<?xml version="1.0" encoding="UTF-8" standalone="no"?>
<?xml-stylesheet href="zcash-dag.css" type="text/css"?>
<!DOCTYPE svg PUBLIC "-//W3C//DTD SVG 1.1//EN"
 "http://www.w3.org/Graphics/SVG/1.1/DTD/svg11.dtd">
<!-- Generated by graphviz version 2.40.1 (20161225.0304)
 -->
<!-- Pages: 1 -->
<svg width="508pt" height="676pt"
 viewBox="0.00 0.00 508.00 676.00" xmlns="http://www.w3.org/2000/svg" xmlns:xlink="http://www.w3.org/1999/xlink">
<g id="graph0" class="graph" transform="scale(1 1) rotate(0) translate(4 672)">
<polygon fill="#ffffff" stroke="transparent" points="-4,4 -4,-672 504,-672 504,4 -4,4"/>
<!-- ZcashFoundation/zebra#5316 -->
<g id="node1" class="node open">
<title>ZcashFoundation/zebra#5316</title>
<g id="a_node1"><a xlink:href="https://github.com/ZcashFoundation/zebra/issues/5316" xlink:title="ZcashFoundation/zebra#5316&#10;Only run the&#10;`lightwalletd` full sync&#10;on the `main` branch" target="_blank">
<polygon fill="#c2e0c6" stroke="#000000" stroke-width="2" points="232,-68 0,-68 0,0 232,0 232,-68"/>
<text text-anchor="middle" x="116" y="-52.8" font-family="Times,serif" font-size="14.00" fill="#000000">ZcashFoundation/zebra#5316</text>
<text text-anchor="middle" x="116" y="-37.8" font-family="Times,serif" font-size="14.00" fill="#000000">Only run the</text>
<text text-anchor="middle" x="116" y="-22.8" font-family="Times,serif" font-size="14.00" fill="#000000">`lightwalletd` full sync</text>
<text text-anchor="middle" x="116" y="-7.8" font-family="Times,serif" font-size="14.00" fill="#000000">on the `main` branch</text>
</a>
</g>
</g>
<!-- ZcashFoundation/zebra#4412 -->
<g id="node2" class="node open">
<title>ZcashFoundation/zebra#4412</title>
<g id="a_node2"><a xlink:href="https://github.com/ZcashFoundation/zebra/issues/4412" xlink:title="ZcashFoundation/zebra#4412&#10;Automate pinning CI&#10;dependencies to specific&#10;commit hashes" target="_blank">
<polygon fill="#c2e0c6" stroke="#000000" stroke-width="2" points="232,-154 0,-154 0,-86 232,-86 232,-154"/>
<text text-anchor="middle" x="116" y="-138.8" font-family="Times,serif" font-size="14.00" fill="#000000">ZcashFoundation/zebra#4412</text>
<text text-anchor="middle" x="116" y="-123.8" font-family="Times,serif" font-size="14.00" fill="#000000">Automate pinning CI</text>
<text text-anchor="middle" x="116" y="-108.8" font-family="Times,serif" font-size="14.00" fill="#000000">dependencies to specific</text>
<text text-anchor="middle" x="116" y="-93.8" font-family="Times,serif" font-size="14.00" fill="#000000">commit hashes</text>
</a>
</g>
</g>
<!-- ZcashFoundation/zebra#4612 -->
<g id="node3" class="node closed">
<title>ZcashFoundation/zebra#4612</title>
<g id="a_node3"><a xlink:href="https://github.com/ZcashFoundation/zebra/issues/4612" xlink:title="ZcashFoundation/zebra#4612&#10;ci: Wait for lightwalletd&#10;image rebuild if it has&#10;changed" target="_blank">
<polygon fill="#fad8c7" stroke="#000000" points="500,-240 268,-240 268,-172 500,-172 500,-240"/>
<text text-anchor="middle" x="384" y="-224.8" font-family="Times,serif" font-size="14.00" fill="#000000">ZcashFoundation/zebra#4612</text>
<text text-anchor="middle" x="384" y="-209.8" font-family="Times,serif" font-size="14.00" fill="#000000">ci: Wait for lightwalletd</text>
<text text-anchor="middle" x="384" y="-194.8" font-family="Times,serif" font-size="14.00" fill="#000000">image rebuild if it has</text>
<text text-anchor="middle" x="384" y="-179.8" font-family="Times,serif" font-size="14.00" fill="#000000">changed</text>
</a>
</g>
</g>
<!-- ZcashFoundation/zebra#5153 -->
<g id="node4" class="node open">
<title>ZcashFoundation/zebra#5153</title>
<g id="a_node4"><a xlink:href="https://github.com/ZcashFoundation/zebra/issues/5153" xlink:title="ZcashFoundation/zebra#5153&#10;Tag Google Cloud&#10;instances with the name&#10;of the test or workflow" target="_blank">
<polygon fill="#c2e0c6" stroke="#000000" stroke-width="2" points="232,-410 0,-410 0,-342 232,-342 232,-410"/>
<text text-anchor="middle" x="116" y="-394.8" font-family="Times,serif" font-size="14.00" fill="#000000">ZcashFoundation/zebra#5153</text>
<text text-anchor="middle" x="116" y="-379.8" font-family="Times,serif" font-size="14.00" fill="#000000">Tag Google Cloud</text>
<text text-anchor="middle" x="116" y="-364.8" font-family="Times,serif" font-size="14.00" fill="#000000">instances with the name</text>
<text text-anchor="middle" x="116" y="-349.8" font-family="Times,serif" font-size="14.00" fill="#000000">of the test or workflow</text>
</a>
</g>
</g>
<!-- ZcashFoundation/zebra#5189 -->
<g id="node5" class="node closed">
<title>ZcashFoundation/zebra#5189</title>
<g id="a_node5"><a xlink:href="https://github.com/ZcashFoundation/zebra/issues/5189" xlink:title="ZcashFoundation/zebra#5189&#10;Run some docker tests on&#10;smaller instances" target="_blank">
<polygon fill="#fad8c7" stroke="#000000" points="500,-486.5 268,-486.5 268,-433.5 500,-433.5 500,-486.5"/>
<text text-anchor="middle" x="384" y="-471.3" font-family="Times,serif" font-size="14.00" fill="#000000">ZcashFoundation/zebra#5189</text>
<text text-anchor="middle" x="384" y="-456.3" font-family="Times,serif" font-size="14.00" fill="#000000">Run some docker tests on</text>
<text text-anchor="middle" x="384" y="-441.3" font-family="Times,serif" font-size="14.00" fill="#000000">smaller instances</text>
</a>
</g>
</g>
<!-- ZcashFoundation/zebra#5153&#45;&gt;ZcashFoundation/zebra#5189 -->
<g id="edge1" class="edge">
<title>ZcashFoundation/zebra#5153&#45;&gt;ZcashFoundation/zebra#5189</title>
<path fill="none" stroke="#000000" d="M224.62,-410.04C246.04,-416.76 268.36,-423.75 289.27,-430.31"/>
<polygon fill="#000000" stroke="#000000" points="288.5109,-433.7399 299.1,-433.39 290.6039,-427.0601 288.5109,-433.7399"/>
</g>
<!-- ZcashFoundation/zebra#5155 -->
<g id="node6" class="node closed">
<title>ZcashFoundation/zebra#5155</title>
<g id="a_node6"><a xlink:href="https://github.com/ZcashFoundation/zebra/issues/5155" xlink:title="ZcashFoundation/zebra#5155&#10;Decide if we want to&#10;create cached states more&#10;often" target="_blank">
<polygon fill="#fad8c7" stroke="#000000" points="500,-412 268,-412 268,-344 500,-344 500,-412"/>
<text text-anchor="middle" x="384" y="-396.8" font-family="Times,serif" font-size="14.00" fill="#000000">ZcashFoundation/zebra#5155</text>
<text text-anchor="middle" x="384" y="-381.8" font-family="Times,serif" font-size="14.00" fill="#000000">Decide if we want to</text>
<text text-anchor="middle" x="384" y="-366.8" font-family="Times,serif" font-size="14.00" fill="#000000">create cached states more</text>
<text text-anchor="middle" x="384" y="-351.8" font-family="Times,serif" font-size="14.00" fill="#000000">often</text>
</a>
</g>
</g>
<!-- ZcashFoundation/zebra#5153&#45;&gt;ZcashFoundation/zebra#5155 -->
<g id="edge2" class="edge">
<title>ZcashFoundation/zebra#5153&#45;&gt;ZcashFoundation/zebra#5155</title>
<path fill="none" stroke="#000000" d="M232.38,-376.87C240.71,-376.93 249.14,-376.99 257.53,-377.06"/>
<polygon fill="#000000" stroke="#000000" points="257.7162,-380.5613 267.74,-377.13 257.7643,-373.5614 257.7162,-380.5613"/>
</g>
<!-- ZcashFoundation/zebra#5188 -->
<g id="node7" class="node closed">
<title>ZcashFoundation/zebra#5188</title>
<g id="a_node7"><a xlink:href="https://github.com/ZcashFoundation/zebra/issues/5188" xlink:title="ZcashFoundation/zebra#5188&#10;Reduce continuous&#10;deployment instance group&#10;size to 1" target="_blank">
<polygon fill="#fad8c7" stroke="#000000" points="500,-326 268,-326 268,-258 500,-258 500,-326"/>
<text text-anchor="middle" x="384" y="-310.8" font-family="Times,serif" font-size="14.00" fill="#000000">ZcashFoundation/zebra#5188</text>
<text text-anchor="middle" x="384" y="-295.8" font-family="Times,serif" font-size="14.00" fill="#000000">Reduce continuous</text>
<text text-anchor="middle" x="384" y="-280.8" font-family="Times,serif" font-size="14.00" fill="#000000">deployment instance group</text>
<text text-anchor="middle" x="384" y="-265.8" font-family="Times,serif" font-size="14.00" fill="#000000">size to 1</text>
</a>
</g>
</g>
<!-- ZcashFoundation/zebra#5153&#45;&gt;ZcashFoundation/zebra#5188 -->
<g id="edge3" class="edge">
<title>ZcashFoundation/zebra#5153&#45;&gt;ZcashFoundation/zebra#5188</title>
<path fill="none" stroke="#000000" d="M224.62,-341.96C238.05,-337.75 251.83,-333.43 265.39,-329.18"/>
<polygon fill="#000000" stroke="#000000" points="266.738,-332.4253 275.23,-326.09 264.6407,-325.7468 266.738,-332.4253"/>
</g>
<!-- ZcashFoundation/zebra#5393 -->
<g id="node8" class="node open">
<title>ZcashFoundation/zebra#5393</title>
<g id="a_node8"><a xlink:href="https://github.com/ZcashFoundation/zebra/pull/5393" xlink:title="ZcashFoundation/zebra#5393&#10;ci(sync): only run the&#10;`lightwalletd` full sync&#10;on the `main` branch" target="_blank">
<polygon fill="#c2e0c6" stroke="#000000" stroke-width="2" points="232,-582 0,-582 0,-578 -4,-578 -4,-574 0,-574 0,-522 -4,-522 -4,-518 0,-518 0,-514 232,-514 232,-582"/>
<polyline fill="none" stroke="#000000" stroke-width="2" points="0,-578 4,-578 4,-574 0,-574 "/>
<polyline fill="none" stroke="#000000" stroke-width="2" points="0,-522 4,-522 4,-518 0,-518 "/>
<text text-anchor="middle" x="116" y="-566.8" font-family="Times,serif" font-size="14.00" fill="#000000">ZcashFoundation/zebra#5393</text>
<text text-anchor="middle" x="116" y="-551.8" font-family="Times,serif" font-size="14.00" fill="#000000">ci(sync): only run the</text>
<text text-anchor="middle" x="116" y="-536.8" font-family="Times,serif" font-size="14.00" fill="#000000">`lightwalletd` full sync</text>
<text text-anchor="middle" x="116" y="-521.8" font-family="Times,serif" font-size="14.00" fill="#000000">on the `main` branch</text>
</a>
</g>
</g>
<!-- ZcashFoundation/zebra#5399 -->
<g id="node9" class="node closed">
<title>ZcashFoundation/zebra#5399</title>
<g id="a_node9"><a xlink:href="https://github.com/ZcashFoundation/zebra/pull/5399" xlink:title="ZcashFoundation/zebra#5399&#10;fix(ci): Limit checkpoint&#10;and lwd full sync&#10;concurrency" target="_blank">
<polygon fill="#fad8c7" stroke="#000000" points="500,-582 268,-582 268,-578 264,-578 264,-574 268,-574 268,-522 264,-522 264,-518 268,-518 268,-514 500,-514 500,-582"/>
<polyline fill="none" stroke="#000000" points="268,-578 272,-578 272,-574 268,-574 "/>
<polyline fill="none" stroke="#000000" points="268,-522 272,-522 272,-518 268,-518 "/>
<text text-anchor="middle" x="384" y="-566.8" font-family="Times,serif" font-size="14.00" fill="#000000">ZcashFoundation/zebra#5399</text>
<text text-anchor="middle" x="384" y="-551.8" font-family="Times,serif" font-size="14.00" fill="#000000">fix(ci): Limit checkpoint</text>
<text text-anchor="middle" x="384" y="-536.8" font-family="Times,serif" font-size="14.00" fill="#000000">and lwd full sync</text>
<text text-anchor="middle" x="384" y="-521.8" font-family="Times,serif" font-size="14.00" fill="#000000">concurrency</text>
</a>
</g>
</g>
<!-- ZcashFoundation/zebra#5393&#45;&gt;ZcashFoundation/zebra#5399 -->
<g id="edge4" class="edge">
<title>ZcashFoundation/zebra#5393&#45;&gt;ZcashFoundation/zebra#5399</title>
<path fill="none" stroke="#000000" d="M232.38,-548C240.71,-548 249.14,-548 257.53,-548"/>
<polygon fill="#000000" stroke="#000000" points="257.74,-551.5001 267.74,-548 257.74,-544.5001 257.74,-551.5001"/>
</g>
<!-- ZcashFoundation/zebra#4882 -->
<g id="node10" class="node open">
<title>ZcashFoundation/zebra#4882</title>
<g id="a_node10"><a xlink:href="https://github.com/ZcashFoundation/zebra/issues/4882" xlink:title="ZcashFoundation/zebra#4882&#10;Add zcash&#45;lightwalletd /&#10;Build images to required&#10;jobs" target="_blank">
<polygon fill="#c2e0c6" stroke="#000000" stroke-width="2" points="232,-240 0,-240 0,-172 232,-172 232,-240"/>
<text text-anchor="middle" x="116" y="-224.8" font-family="Times,serif" font-size="14.00" fill="#000000">ZcashFoundation/zebra#4882</text>
<text text-anchor="middle" x="116" y="-209.8" font-family="Times,serif" font-size="14.00" fill="#000000">Add zcash&#45;lightwalletd /</text>
<text text-anchor="middle" x="116" y="-194.8" font-family="Times,serif" font-size="14.00" fill="#000000">Build images to required</text>
<text text-anchor="middle" x="116" y="-179.8" font-family="Times,serif" font-size="14.00" fill="#000000">jobs</text>
</a>
</g>
</g>
<!-- ZcashFoundation/zebra#4882&#45;&gt;ZcashFoundation/zebra#4612 -->
<g id="edge5" class="edge">
<title>ZcashFoundation/zebra#4882&#45;&gt;ZcashFoundation/zebra#4612</title>
<path fill="none" stroke="#000000" d="M232.38,-206C240.71,-206 249.14,-206 257.53,-206"/>
<polygon fill="#000000" stroke="#000000" points="257.74,-209.5001 267.74,-206 257.74,-202.5001 257.74,-209.5001"/>
</g>
<!-- ZcashFoundation/zebra#5199 -->
<g id="node11" class="node open">
<title>ZcashFoundation/zebra#5199</title>
<g id="a_node11"><a xlink:href="https://github.com/ZcashFoundation/zebra/issues/5199" xlink:title="ZcashFoundation/zebra#5199&#10;Consider using `nextest`&#10;to run tests faster and&#10;reduce Google Cloud costs" target="_blank">
<polygon fill="#c2e0c6" stroke="#000000" stroke-width="2" points="232,-496 0,-496 0,-428 232,-428 232,-496"/>
<text text-anchor="middle" x="116" y="-480.8" font-family="Times,serif" font-size="14.00" fill="#000000">ZcashFoundation/zebra#5199</text>
<text text-anchor="middle" x="116" y="-465.8" font-family="Times,serif" font-size="14.00" fill="#000000">Consider using `nextest`</text>
<text text-anchor="middle" x="116" y="-450.8" font-family="Times,serif" font-size="14.00" fill="#000000">to run tests faster and</text>
<text text-anchor="middle" x="116" y="-435.8" font-family="Times,serif" font-size="14.00" fill="#000000">reduce Google Cloud costs</text>
</a>
</g>
</g>
<!-- ZcashFoundation/zebra#5199&#45;&gt;ZcashFoundation/zebra#5189 -->
<g id="edge6" class="edge">
<title>ZcashFoundation/zebra#5199&#45;&gt;ZcashFoundation/zebra#5189</title>
<path fill="none" stroke="#000000" d="M232.38,-461.13C240.71,-461.07 249.14,-461.01 257.53,-460.94"/>
<polygon fill="#000000" stroke="#000000" points="257.7643,-464.4386 267.74,-460.87 257.7162,-457.4387 257.7643,-464.4386"/>
</g>
<!-- ZcashFoundation/zebra#4554 -->
<g id="node12" class="node open">
<title>ZcashFoundation/zebra#4554</title>
<g id="a_node12"><a xlink:href="https://github.com/ZcashFoundation/zebra/issues/4554" xlink:title="ZcashFoundation/zebra#4554&#10;benchmarks: surface&#10;zebrad mainnet sync time&#10;in CI" target="_blank">
<polygon fill="#c2e0c6" stroke="#000000" stroke-width="2" points="232,-668 0,-668 0,-600 232,-600 232,-668"/>
<text text-anchor="middle" x="116" y="-652.8" font-family="Times,serif" font-size="14.00" fill="#000000">ZcashFoundation/zebra#4554</text>
<text text-anchor="middle" x="116" y="-637.8" font-family="Times,serif" font-size="14.00" fill="#000000">benchmarks: surface</text>
<text text-anchor="middle" x="116" y="-622.8" font-family="Times,serif" font-size="14.00" fill="#000000">zebrad mainnet sync time</text>
<text text-anchor="middle" x="116" y="-607.8" font-family="Times,serif" font-size="14.00" fill="#000000">in CI</text>
</a>
</g>
</g>
</g>
</svg>
