<?xml version="1.0" encoding="UTF-8" standalone="no"?>
<?xml-stylesheet href="zcash-dag.css" type="text/css"?>
<!DOCTYPE svg PUBLIC "-//W3C//DTD SVG 1.1//EN"
 "http://www.w3.org/Graphics/SVG/1.1/DTD/svg11.dtd">
<!-- Generated by graphviz version 2.40.1 (20161225.0304)
 -->
<!-- Pages: 1 -->
<svg width="508pt" height="406pt"
 viewBox="0.00 0.00 508.00 406.00" xmlns="http://www.w3.org/2000/svg" xmlns:xlink="http://www.w3.org/1999/xlink">
<g id="graph0" class="graph" transform="scale(1 1) rotate(0) translate(4 402)">
<polygon fill="#ffffff" stroke="transparent" points="-4,4 -4,-402 504,-402 504,4 -4,4"/>
<!-- ZcashFoundation/zebra#5316 -->
<g id="node1" class="node closed">
<title>ZcashFoundation/zebra#5316</title>
<g id="a_node1"><a xlink:href="https://github.com/ZcashFoundation/zebra/issues/5316" xlink:title="ZcashFoundation/zebra#5316&#10;Only run the&#10;`lightwalletd` full sync&#10;on the `main` branch" target="_blank">
<polygon fill="#fad8c7" stroke="#000000" points="500,-68 268,-68 268,0 500,0 500,-68"/>
<text text-anchor="middle" x="384" y="-52.8" font-family="Times,serif" font-size="14.00" fill="#000000">ZcashFoundation/zebra#5316</text>
<text text-anchor="middle" x="384" y="-37.8" font-family="Times,serif" font-size="14.00" fill="#000000">Only run the</text>
<text text-anchor="middle" x="384" y="-22.8" font-family="Times,serif" font-size="14.00" fill="#000000">`lightwalletd` full sync</text>
<text text-anchor="middle" x="384" y="-7.8" font-family="Times,serif" font-size="14.00" fill="#000000">on the `main` branch</text>
</a>
</g>
</g>
<!-- ZcashFoundation/zebra#5069 -->
<g id="node2" class="node open">
<title>ZcashFoundation/zebra#5069</title>
<g id="a_node2"><a xlink:href="https://github.com/ZcashFoundation/zebra/issues/5069" xlink:title="ZcashFoundation/zebra#5069&#10;Fix &quot;Connection closed by&#10;remote host&quot; error on&#10;Google Cloud ssh" target="_blank">
<polygon fill="#c2e0c6" stroke="#000000" stroke-width="2" points="232,-68 0,-68 0,0 232,0 232,-68"/>
<text text-anchor="middle" x="116" y="-52.8" font-family="Times,serif" font-size="14.00" fill="#000000">ZcashFoundation/zebra#5069</text>
<text text-anchor="middle" x="116" y="-37.8" font-family="Times,serif" font-size="14.00" fill="#000000">Fix &quot;Connection closed by</text>
<text text-anchor="middle" x="116" y="-22.8" font-family="Times,serif" font-size="14.00" fill="#000000">remote host&quot; error on</text>
<text text-anchor="middle" x="116" y="-7.8" font-family="Times,serif" font-size="14.00" fill="#000000">Google Cloud ssh</text>
</a>
</g>
</g>
<!-- ZcashFoundation/zebra#5069&#45;&gt;ZcashFoundation/zebra#5316 -->
<g id="edge1" class="edge">
<title>ZcashFoundation/zebra#5069&#45;&gt;ZcashFoundation/zebra#5316</title>
<path fill="none" stroke="#000000" d="M232.38,-34C240.71,-34 249.14,-34 257.53,-34"/>
<polygon fill="#000000" stroke="#000000" points="257.74,-37.5001 267.74,-34 257.74,-30.5001 257.74,-37.5001"/>
</g>
<!-- ZcashFoundation/zebra#4412 -->
<g id="node3" class="node open">
<title>ZcashFoundation/zebra#4412</title>
<g id="a_node3"><a xlink:href="https://github.com/ZcashFoundation/zebra/issues/4412" xlink:title="ZcashFoundation/zebra#4412&#10;Automate pinning CI&#10;dependencies to specific&#10;commit hashes" target="_blank">
<polygon fill="#c2e0c6" stroke="#000000" stroke-width="2" points="232,-154 0,-154 0,-86 232,-86 232,-154"/>
<text text-anchor="middle" x="116" y="-138.8" font-family="Times,serif" font-size="14.00" fill="#000000">ZcashFoundation/zebra#4412</text>
<text text-anchor="middle" x="116" y="-123.8" font-family="Times,serif" font-size="14.00" fill="#000000">Automate pinning CI</text>
<text text-anchor="middle" x="116" y="-108.8" font-family="Times,serif" font-size="14.00" fill="#000000">dependencies to specific</text>
<text text-anchor="middle" x="116" y="-93.8" font-family="Times,serif" font-size="14.00" fill="#000000">commit hashes</text>
</a>
</g>
</g>
<!-- ZcashFoundation/zebra#5189 -->
<g id="node4" class="node closed">
<title>ZcashFoundation/zebra#5189</title>
<g id="a_node4"><a xlink:href="https://github.com/ZcashFoundation/zebra/issues/5189" xlink:title="ZcashFoundation/zebra#5189&#10;Run some docker tests on&#10;smaller instances" target="_blank">
<polygon fill="#fad8c7" stroke="#000000" points="500,-225.5 268,-225.5 268,-172.5 500,-172.5 500,-225.5"/>
<text text-anchor="middle" x="384" y="-210.3" font-family="Times,serif" font-size="14.00" fill="#000000">ZcashFoundation/zebra#5189</text>
<text text-anchor="middle" x="384" y="-195.3" font-family="Times,serif" font-size="14.00" fill="#000000">Run some docker tests on</text>
<text text-anchor="middle" x="384" y="-180.3" font-family="Times,serif" font-size="14.00" fill="#000000">smaller instances</text>
</a>
</g>
</g>
<!-- ZcashFoundation/zebra#5606 -->
<g id="node5" class="node open">
<title>ZcashFoundation/zebra#5606</title>
<g id="a_node5"><a xlink:href="https://github.com/ZcashFoundation/zebra/pull/5606" xlink:title="ZcashFoundation/zebra#5606&#10;fix(gcloud): setup the&#10;GCP CLI after&#10;authenticating" target="_blank">
<polygon fill="#c2e0c6" stroke="#000000" stroke-width="2" points="232,-312 0,-312 0,-308 -4,-308 -4,-304 0,-304 0,-252 -4,-252 -4,-248 0,-248 0,-244 232,-244 232,-312"/>
<polyline fill="none" stroke="#000000" stroke-width="2" points="0,-308 4,-308 4,-304 0,-304 "/>
<polyline fill="none" stroke="#000000" stroke-width="2" points="0,-252 4,-252 4,-248 0,-248 "/>
<text text-anchor="middle" x="116" y="-296.8" font-family="Times,serif" font-size="14.00" fill="#000000">ZcashFoundation/zebra#5606</text>
<text text-anchor="middle" x="116" y="-281.8" font-family="Times,serif" font-size="14.00" fill="#000000">fix(gcloud): setup the</text>
<text text-anchor="middle" x="116" y="-266.8" font-family="Times,serif" font-size="14.00" fill="#000000">GCP CLI after</text>
<text text-anchor="middle" x="116" y="-251.8" font-family="Times,serif" font-size="14.00" fill="#000000">authenticating</text>
</a>
</g>
</g>
<!-- ZcashFoundation/zebra#5602 -->
<g id="node6" class="node open">
<title>ZcashFoundation/zebra#5602</title>
<g id="a_node6"><a xlink:href="https://github.com/ZcashFoundation/zebra/pull/5602" xlink:title="ZcashFoundation/zebra#5602&#10;feat(ssh): enable OS&#10;Login for GCP test&#10;instances" target="_blank">
<polygon fill="#c2e0c6" stroke="#000000" points="500,-312 268,-312 268,-308 264,-308 264,-304 268,-304 268,-252 264,-252 264,-248 268,-248 268,-244 500,-244 500,-312"/>
<polyline fill="none" stroke="#000000" points="268,-308 272,-308 272,-304 268,-304 "/>
<polyline fill="none" stroke="#000000" points="268,-252 272,-252 272,-248 268,-248 "/>
<text text-anchor="middle" x="384" y="-296.8" font-family="Times,serif" font-size="14.00" fill="#000000">ZcashFoundation/zebra#5602</text>
<text text-anchor="middle" x="384" y="-281.8" font-family="Times,serif" font-size="14.00" fill="#000000">feat(ssh): enable OS</text>
<text text-anchor="middle" x="384" y="-266.8" font-family="Times,serif" font-size="14.00" fill="#000000">Login for GCP test</text>
<text text-anchor="middle" x="384" y="-251.8" font-family="Times,serif" font-size="14.00" fill="#000000">instances</text>
</a>
</g>
</g>
<!-- ZcashFoundation/zebra#5606&#45;&gt;ZcashFoundation/zebra#5602 -->
<g id="edge2" class="edge">
<title>ZcashFoundation/zebra#5606&#45;&gt;ZcashFoundation/zebra#5602</title>
<path fill="none" stroke="#000000" d="M232.38,-278C240.71,-278 249.14,-278 257.53,-278"/>
<polygon fill="#000000" stroke="#000000" points="257.74,-281.5001 267.74,-278 257.74,-274.5001 257.74,-281.5001"/>
</g>
<!-- ZcashFoundation/zebra#5199 -->
<g id="node7" class="node open">
<title>ZcashFoundation/zebra#5199</title>
<g id="a_node7"><a xlink:href="https://github.com/ZcashFoundation/zebra/issues/5199" xlink:title="ZcashFoundation/zebra#5199&#10;Consider using `nextest`&#10;to run tests faster" target="_blank">
<polygon fill="#c2e0c6" stroke="#000000" stroke-width="2" points="232,-225.5 0,-225.5 0,-172.5 232,-172.5 232,-225.5"/>
<text text-anchor="middle" x="116" y="-210.3" font-family="Times,serif" font-size="14.00" fill="#000000">ZcashFoundation/zebra#5199</text>
<text text-anchor="middle" x="116" y="-195.3" font-family="Times,serif" font-size="14.00" fill="#000000">Consider using `nextest`</text>
<text text-anchor="middle" x="116" y="-180.3" font-family="Times,serif" font-size="14.00" fill="#000000">to run tests faster</text>
</a>
</g>
</g>
<!-- ZcashFoundation/zebra#5199&#45;&gt;ZcashFoundation/zebra#5189 -->
<g id="edge3" class="edge">
<title>ZcashFoundation/zebra#5199&#45;&gt;ZcashFoundation/zebra#5189</title>
<path fill="none" stroke="#000000" d="M232.38,-199C240.71,-199 249.14,-199 257.53,-199"/>
<polygon fill="#000000" stroke="#000000" points="257.74,-202.5001 267.74,-199 257.74,-195.5001 257.74,-202.5001"/>
</g>
<!-- ZcashFoundation/zebra#4554 -->
<g id="node8" class="node open">
<title>ZcashFoundation/zebra#4554</title>
<g id="a_node8"><a xlink:href="https://github.com/ZcashFoundation/zebra/issues/4554" xlink:title="ZcashFoundation/zebra#4554&#10;benchmarks: surface&#10;zebrad mainnet sync time&#10;in CI" target="_blank">
<polygon fill="#c2e0c6" stroke="#000000" stroke-width="2" points="232,-398 0,-398 0,-330 232,-330 232,-398"/>
<text text-anchor="middle" x="116" y="-382.8" font-family="Times,serif" font-size="14.00" fill="#000000">ZcashFoundation/zebra#4554</text>
<text text-anchor="middle" x="116" y="-367.8" font-family="Times,serif" font-size="14.00" fill="#000000">benchmarks: surface</text>
<text text-anchor="middle" x="116" y="-352.8" font-family="Times,serif" font-size="14.00" fill="#000000">zebrad mainnet sync time</text>
<text text-anchor="middle" x="116" y="-337.8" font-family="Times,serif" font-size="14.00" fill="#000000">in CI</text>
</a>
</g>
</g>
</g>
</svg>
