<?xml version="1.0" encoding="UTF-8" standalone="no"?>
<?xml-stylesheet href="zcash-dag.css" type="text/css"?>
<!DOCTYPE svg PUBLIC "-//W3C//DTD SVG 1.1//EN"
 "http://www.w3.org/Graphics/SVG/1.1/DTD/svg11.dtd">
<!-- Generated by graphviz version 2.40.1 (20161225.0304)
 -->
<!-- Pages: 1 -->
<svg width="1100pt" height="817pt"
 viewBox="0.00 0.00 1100.00 817.00" xmlns="http://www.w3.org/2000/svg" xmlns:xlink="http://www.w3.org/1999/xlink">
<g id="graph0" class="graph" transform="scale(1 1) rotate(0) translate(4 813)">
<polygon fill="#ffffff" stroke="transparent" points="-4,4 -4,-813 1096,-813 1096,4 -4,4"/>
<g id="clust1" class="cluster">
<title>cluster_3</title>
<polygon fill="none" stroke="#0000ff" points="0,-626 0,-733 288,-733 288,-626 0,-626"/>
<text text-anchor="middle" x="144" y="-717.8" font-family="Times,serif" font-size="14.00" fill="#000000">Epic: Zebra as a lightwalletd backend</text>
</g>
<g id="clust2" class="cluster">
<title>cluster_4</title>
<polygon fill="none" stroke="#0000ff" points="308,-218 308,-640 1092,-640 1092,-218 308,-218"/>
<text text-anchor="middle" x="700" y="-624.8" font-family="Times,serif" font-size="14.00" fill="#000000">Epic: Zebra Stable Release Candidate</text>
</g>
<g id="clust3" class="cluster">
<title>cluster_0</title>
<polygon fill="none" stroke="#0000ff" points="844,-648 844,-741 1092,-741 1092,-648 844,-648"/>
<text text-anchor="middle" x="968" y="-725.8" font-family="Times,serif" font-size="14.00" fill="#000000">Tracking: Tech Debt</text>
</g>
<g id="clust4" class="cluster">
<title>cluster_1</title>
<polygon fill="none" stroke="#0000ff" points="308,-85 308,-178 556,-178 556,-85 308,-85"/>
<text text-anchor="middle" x="432" y="-162.8" font-family="Times,serif" font-size="14.00" fill="#000000">Tracking: Documentation</text>
</g>
<!-- ZcashFoundation/zebra#4612 -->
<g id="node1" class="node open">
<title>ZcashFoundation/zebra#4612</title>
<g id="a_node1"><a xlink:href="https://github.com/ZcashFoundation/zebra/issues/4612" xlink:title="ZcashFoundation/zebra#4612&#10;ci: Wait for lightwalletd&#10;image rebuild if it has&#10;changed" target="_blank">
<polygon fill="#c2e0c6" stroke="#000000" stroke-width="2" points="260,-702 28,-702 28,-634 260,-634 260,-702"/>
<text text-anchor="middle" x="144" y="-686.8" font-family="Times,serif" font-size="14.00" fill="#000000">ZcashFoundation/zebra#4612</text>
<text text-anchor="middle" x="144" y="-671.8" font-family="Times,serif" font-size="14.00" fill="#000000">ci: Wait for lightwalletd</text>
<text text-anchor="middle" x="144" y="-656.8" font-family="Times,serif" font-size="14.00" fill="#000000">image rebuild if it has</text>
<text text-anchor="middle" x="144" y="-641.8" font-family="Times,serif" font-size="14.00" fill="#000000">changed</text>
</a>
</g>
</g>
<!-- ZcashFoundation/zebra#1894 -->
<g id="node2" class="node open">
<title>ZcashFoundation/zebra#1894</title>
<g id="a_node2"><a xlink:href="https://github.com/ZcashFoundation/zebra/issues/1894" xlink:title="ZcashFoundation/zebra#1894&#10;Zebra should follow OS&#10;directory conventions&#10;better" target="_blank">
<polygon fill="#c2e0c6" stroke="#000000" points="816,-451 584,-451 584,-383 816,-383 816,-451"/>
<text text-anchor="middle" x="700" y="-435.8" font-family="Times,serif" font-size="14.00" fill="#000000">ZcashFoundation/zebra#1894</text>
<text text-anchor="middle" x="700" y="-420.8" font-family="Times,serif" font-size="14.00" fill="#000000">Zebra should follow OS</text>
<text text-anchor="middle" x="700" y="-405.8" font-family="Times,serif" font-size="14.00" fill="#000000">directory conventions</text>
<text text-anchor="middle" x="700" y="-390.8" font-family="Times,serif" font-size="14.00" fill="#000000">better</text>
</a>
</g>
</g>
<!-- ZcashFoundation/zebra#3432 -->
<g id="node3" class="node open">
<title>ZcashFoundation/zebra#3432</title>
<g id="a_node3"><a xlink:href="https://github.com/ZcashFoundation/zebra/issues/3432" xlink:title="ZcashFoundation/zebra#3432&#10;Use the Filesystem&#10;Hierarchy Standard (FHS)&#10;for deployments and&#10;artifacts" target="_blank">
<polygon fill="#c2e0c6" stroke="#000000" points="1084,-458.5 852,-458.5 852,-375.5 1084,-375.5 1084,-458.5"/>
<text text-anchor="middle" x="968" y="-443.3" font-family="Times,serif" font-size="14.00" fill="#000000">ZcashFoundation/zebra#3432</text>
<text text-anchor="middle" x="968" y="-428.3" font-family="Times,serif" font-size="14.00" fill="#000000">Use the Filesystem</text>
<text text-anchor="middle" x="968" y="-413.3" font-family="Times,serif" font-size="14.00" fill="#000000">Hierarchy Standard (FHS)</text>
<text text-anchor="middle" x="968" y="-398.3" font-family="Times,serif" font-size="14.00" fill="#000000">for deployments and</text>
<text text-anchor="middle" x="968" y="-383.3" font-family="Times,serif" font-size="14.00" fill="#000000">artifacts</text>
</a>
</g>
</g>
<!-- ZcashFoundation/zebra#1894&#45;&gt;ZcashFoundation/zebra#3432 -->
<g id="edge1" class="edge">
<title>ZcashFoundation/zebra#1894&#45;&gt;ZcashFoundation/zebra#3432</title>
<path fill="none" stroke="#000000" d="M816.38,-417C824.71,-417 833.14,-417 841.53,-417"/>
<polygon fill="#000000" stroke="#000000" points="841.74,-420.5001 851.74,-417 841.74,-413.5001 841.74,-420.5001"/>
</g>
<!-- ZcashFoundation/zebra#3050 -->
<g id="node4" class="node open">
<title>ZcashFoundation/zebra#3050</title>
<g id="a_node4"><a xlink:href="https://github.com/ZcashFoundation/zebra/issues/3050" xlink:title="ZcashFoundation/zebra#3050&#10;Tag Zebra 1.0.0&#45;rc.0&#10;stable release candidate" target="_blank">
<polygon fill="#a7c2aa" stroke="#000000" points="816,-522.5 584,-522.5 584,-469.5 816,-469.5 816,-522.5"/>
<text text-anchor="middle" x="700" y="-507.3" font-family="Times,serif" font-size="14.00" fill="#000000">ZcashFoundation/zebra#3050</text>
<text text-anchor="middle" x="700" y="-492.3" font-family="Times,serif" font-size="14.00" fill="#000000">Tag Zebra 1.0.0&#45;rc.0</text>
<text text-anchor="middle" x="700" y="-477.3" font-family="Times,serif" font-size="14.00" fill="#000000">stable release candidate</text>
</a>
</g>
</g>
<!-- ZcashFoundation/zebra#1904 -->
<g id="node5" class="node open">
<title>ZcashFoundation/zebra#1904</title>
<g id="a_node5"><a xlink:href="https://github.com/ZcashFoundation/zebra/issues/1904" xlink:title="ZcashFoundation/zebra#1904&#10;Some DNS seeders and&#10;block explorers don&#39;t&#10;show Zebra nodes" target="_blank">
<polygon fill="#a7c2aa" stroke="#000000" points="816,-609 584,-609 584,-541 816,-541 816,-609"/>
<text text-anchor="middle" x="700" y="-593.8" font-family="Times,serif" font-size="14.00" fill="#000000">ZcashFoundation/zebra#1904</text>
<text text-anchor="middle" x="700" y="-578.8" font-family="Times,serif" font-size="14.00" fill="#000000">Some DNS seeders and</text>
<text text-anchor="middle" x="700" y="-563.8" font-family="Times,serif" font-size="14.00" fill="#000000">block explorers don&#39;t</text>
<text text-anchor="middle" x="700" y="-548.8" font-family="Times,serif" font-size="14.00" fill="#000000">show Zebra nodes</text>
</a>
</g>
</g>
<!-- ZcashFoundation/zebra#1791 -->
<g id="node11" class="node closed">
<title>ZcashFoundation/zebra#1791</title>
<g id="a_node11"><a xlink:href="https://github.com/ZcashFoundation/zebra/issues/1791" xlink:title="ZcashFoundation/zebra#1791&#10;Re&#45;enable `sync_large_che&#10;ckpoints_testnet` test" target="_blank">
<polygon fill="#fad8c7" stroke="#000000" points="1084,-709.5 852,-709.5 852,-656.5 1084,-656.5 1084,-709.5"/>
<text text-anchor="middle" x="968" y="-694.3" font-family="Times,serif" font-size="14.00" fill="#000000">ZcashFoundation/zebra#1791</text>
<text text-anchor="middle" x="968" y="-679.3" font-family="Times,serif" font-size="14.00" fill="#000000">Re&#45;enable `sync_large_che</text>
<text text-anchor="middle" x="968" y="-664.3" font-family="Times,serif" font-size="14.00" fill="#000000">ckpoints_testnet` test</text>
</a>
</g>
</g>
<!-- ZcashFoundation/zebra#1904&#45;&gt;ZcashFoundation/zebra#1791 -->
<g id="edge8" class="edge">
<title>ZcashFoundation/zebra#1904&#45;&gt;ZcashFoundation/zebra#1791</title>
<path fill="none" stroke="#000000" d="M766.16,-609.13C790.32,-620.94 818.08,-633.78 844,-644 852.01,-647.16 860.38,-650.24 868.84,-653.2"/>
<polygon fill="#000000" stroke="#000000" points="867.8053,-656.5453 878.4,-656.49 870.0832,-649.9263 867.8053,-656.5453"/>
</g>
<!-- ZcashFoundation/zebra#4448 -->
<g id="node6" class="node open">
<title>ZcashFoundation/zebra#4448</title>
<g id="a_node6"><a xlink:href="https://github.com/ZcashFoundation/zebra/issues/4448" xlink:title="ZcashFoundation/zebra#4448&#10;Decide on supported&#10;platforms and test in CI" target="_blank">
<polygon fill="#c2e0c6" stroke="#000000" stroke-width="2" points="548,-522.5 316,-522.5 316,-469.5 548,-469.5 548,-522.5"/>
<text text-anchor="middle" x="432" y="-507.3" font-family="Times,serif" font-size="14.00" fill="#000000">ZcashFoundation/zebra#4448</text>
<text text-anchor="middle" x="432" y="-492.3" font-family="Times,serif" font-size="14.00" fill="#000000">Decide on supported</text>
<text text-anchor="middle" x="432" y="-477.3" font-family="Times,serif" font-size="14.00" fill="#000000">platforms and test in CI</text>
</a>
</g>
</g>
<!-- ZcashFoundation/zebra#4448&#45;&gt;ZcashFoundation/zebra#1894 -->
<g id="edge2" class="edge">
<title>ZcashFoundation/zebra#4448&#45;&gt;ZcashFoundation/zebra#1894</title>
<path fill="none" stroke="#000000" d="M526.84,-469.46C536.7,-466.63 546.56,-463.78 556,-461 563.67,-458.75 571.56,-456.4 579.51,-454.03"/>
<polygon fill="#000000" stroke="#000000" points="580.6516,-457.3416 589.22,-451.11 578.6357,-450.6382 580.6516,-457.3416"/>
</g>
<!-- ZcashFoundation/zebra#4448&#45;&gt;ZcashFoundation/zebra#3050 -->
<g id="edge3" class="edge">
<title>ZcashFoundation/zebra#4448&#45;&gt;ZcashFoundation/zebra#3050</title>
<path fill="none" stroke="#000000" d="M548.38,-496C556.71,-496 565.14,-496 573.53,-496"/>
<polygon fill="#000000" stroke="#000000" points="573.74,-499.5001 583.74,-496 573.74,-492.5001 573.74,-499.5001"/>
</g>
<!-- ZcashFoundation/zebra#755 -->
<g id="node13" class="node open">
<title>ZcashFoundation/zebra#755</title>
<g id="a_node13"><a xlink:href="https://github.com/ZcashFoundation/zebra/issues/755" xlink:title="ZcashFoundation/zebra#755&#10;Automate zebrad releases" target="_blank">
<polygon fill="#c2e0c6" stroke="#000000" points="811.5,-210 588.5,-210 588.5,-172 811.5,-172 811.5,-210"/>
<text text-anchor="middle" x="700" y="-194.8" font-family="Times,serif" font-size="14.00" fill="#000000">ZcashFoundation/zebra#755</text>
<text text-anchor="middle" x="700" y="-179.8" font-family="Times,serif" font-size="14.00" fill="#000000">Automate zebrad releases</text>
</a>
</g>
</g>
<!-- ZcashFoundation/zebra#4448&#45;&gt;ZcashFoundation/zebra#755 -->
<g id="edge9" class="edge">
<title>ZcashFoundation/zebra#4448&#45;&gt;ZcashFoundation/zebra#755</title>
<path fill="none" stroke="#000000" d="M547.49,-469.45C550.54,-466.88 553.39,-464.07 556,-461 625.37,-379.35 516.17,-300.23 581.71,-217.47"/>
<polygon fill="#000000" stroke="#000000" points="584.5132,-219.5779 588.37,-209.71 579.2013,-215.019 584.5132,-219.5779"/>
</g>
<!-- ZcashFoundation/zebra#2564 -->
<g id="node14" class="node open">
<title>ZcashFoundation/zebra#2564</title>
<g id="a_node14"><a xlink:href="https://github.com/ZcashFoundation/zebra/issues/2564" xlink:title="ZcashFoundation/zebra#2564&#10;Include git metadata in&#10;docker logs and Google&#10;Cloud panic reports" target="_blank">
<polygon fill="#c2e0c6" stroke="#000000" points="816,-154 584,-154 584,-86 816,-86 816,-154"/>
<text text-anchor="middle" x="700" y="-138.8" font-family="Times,serif" font-size="14.00" fill="#000000">ZcashFoundation/zebra#2564</text>
<text text-anchor="middle" x="700" y="-123.8" font-family="Times,serif" font-size="14.00" fill="#000000">Include git metadata in</text>
<text text-anchor="middle" x="700" y="-108.8" font-family="Times,serif" font-size="14.00" fill="#000000">docker logs and Google</text>
<text text-anchor="middle" x="700" y="-93.8" font-family="Times,serif" font-size="14.00" fill="#000000">Cloud panic reports</text>
</a>
</g>
</g>
<!-- ZcashFoundation/zebra#4448&#45;&gt;ZcashFoundation/zebra#2564 -->
<g id="edge10" class="edge">
<title>ZcashFoundation/zebra#4448&#45;&gt;ZcashFoundation/zebra#2564</title>
<path fill="none" stroke="#000000" d="M547.82,-469.3C550.75,-466.77 553.49,-464.01 556,-461 598.58,-409.9 543.5,-215.76 584,-163 584.39,-162.49 584.78,-161.99 585.18,-161.5"/>
<polygon fill="#000000" stroke="#000000" points="587.9248,-163.6896 592.21,-154 582.8176,-158.9024 587.9248,-163.6896"/>
</g>
<!-- ZcashFoundation/zebra#4562 -->
<g id="node7" class="node open">
<title>ZcashFoundation/zebra#4562</title>
<g id="a_node7"><a xlink:href="https://github.com/ZcashFoundation/zebra/issues/4562" xlink:title="ZcashFoundation/zebra#4562&#10;Deploy long&#45;running Zebra&#10;nodes after each tagged&#10;release" target="_blank">
<polygon fill="#c2e0c6" stroke="#000000" points="548,-609 316,-609 316,-541 548,-541 548,-609"/>
<text text-anchor="middle" x="432" y="-593.8" font-family="Times,serif" font-size="14.00" fill="#000000">ZcashFoundation/zebra#4562</text>
<text text-anchor="middle" x="432" y="-578.8" font-family="Times,serif" font-size="14.00" fill="#000000">Deploy long&#45;running Zebra</text>
<text text-anchor="middle" x="432" y="-563.8" font-family="Times,serif" font-size="14.00" fill="#000000">nodes after each tagged</text>
<text text-anchor="middle" x="432" y="-548.8" font-family="Times,serif" font-size="14.00" fill="#000000">release</text>
</a>
</g>
</g>
<!-- ZcashFoundation/zebra#4562&#45;&gt;ZcashFoundation/zebra#1904 -->
<g id="edge4" class="edge">
<title>ZcashFoundation/zebra#4562&#45;&gt;ZcashFoundation/zebra#1904</title>
<path fill="none" stroke="#000000" d="M548.38,-575C556.71,-575 565.14,-575 573.53,-575"/>
<polygon fill="#000000" stroke="#000000" points="573.74,-578.5001 583.74,-575 573.74,-571.5001 573.74,-578.5001"/>
</g>
<!-- ZcashFoundation/zebra#1638 -->
<g id="node8" class="node open">
<title>ZcashFoundation/zebra#1638</title>
<g id="a_node8"><a xlink:href="https://github.com/ZcashFoundation/zebra/issues/1638" xlink:title="ZcashFoundation/zebra#1638&#10;Create PGP keys amongst&#10;security@zfnd.org" target="_blank">
<polygon fill="#c2e0c6" stroke="#000000" stroke-width="2" points="548,-451.5 316,-451.5 316,-398.5 548,-398.5 548,-451.5"/>
<text text-anchor="middle" x="432" y="-436.3" font-family="Times,serif" font-size="14.00" fill="#000000">ZcashFoundation/zebra#1638</text>
<text text-anchor="middle" x="432" y="-421.3" font-family="Times,serif" font-size="14.00" fill="#000000">Create PGP keys amongst</text>
<text text-anchor="middle" x="432" y="-406.3" font-family="Times,serif" font-size="14.00" fill="#000000">security@zfnd.org</text>
</a>
</g>
</g>
<!-- ZcashFoundation/zebra#4751 -->
<g id="node9" class="node open">
<title>ZcashFoundation/zebra#4751</title>
<g id="a_node9"><a xlink:href="https://github.com/ZcashFoundation/zebra/issues/4751" xlink:title="ZcashFoundation/zebra#4751&#10;ci: Add missing CI/CD&#10;status labels to&#10;README.md" target="_blank">
<polygon fill="#c2e0c6" stroke="#000000" stroke-width="2" points="548,-380 316,-380 316,-312 548,-312 548,-380"/>
<text text-anchor="middle" x="432" y="-364.8" font-family="Times,serif" font-size="14.00" fill="#000000">ZcashFoundation/zebra#4751</text>
<text text-anchor="middle" x="432" y="-349.8" font-family="Times,serif" font-size="14.00" fill="#000000">ci: Add missing CI/CD</text>
<text text-anchor="middle" x="432" y="-334.8" font-family="Times,serif" font-size="14.00" fill="#000000">status labels to</text>
<text text-anchor="middle" x="432" y="-319.8" font-family="Times,serif" font-size="14.00" fill="#000000">README.md</text>
</a>
</g>
</g>
<!-- ZcashFoundation/zebra#4753 -->
<g id="node10" class="node open">
<title>ZcashFoundation/zebra#4753</title>
<g id="a_node10"><a xlink:href="https://github.com/ZcashFoundation/zebra/issues/4753" xlink:title="ZcashFoundation/zebra#4753&#10;ci: Split deploy&#45;gcp&#45;&#10;tests workflow into&#10;multiple categories" target="_blank">
<polygon fill="#c2e0c6" stroke="#000000" stroke-width="2" points="548,-294 316,-294 316,-226 548,-226 548,-294"/>
<text text-anchor="middle" x="432" y="-278.8" font-family="Times,serif" font-size="14.00" fill="#000000">ZcashFoundation/zebra#4753</text>
<text text-anchor="middle" x="432" y="-263.8" font-family="Times,serif" font-size="14.00" fill="#000000">ci: Split deploy&#45;gcp&#45;</text>
<text text-anchor="middle" x="432" y="-248.8" font-family="Times,serif" font-size="14.00" fill="#000000">tests workflow into</text>
<text text-anchor="middle" x="432" y="-233.8" font-family="Times,serif" font-size="14.00" fill="#000000">multiple categories</text>
</a>
</g>
</g>
<!-- ZcashFoundation/zebra#1963 -->
<g id="node12" class="node open">
<title>ZcashFoundation/zebra#1963</title>
<g id="a_node12"><a xlink:href="https://github.com/ZcashFoundation/zebra/issues/1963" xlink:title="ZcashFoundation/zebra#1963&#10;Work out how to release&#10;Zebra binaries" target="_blank">
<polygon fill="#c2e0c6" stroke="#000000" stroke-width="2" points="548,-146.5 316,-146.5 316,-93.5 548,-93.5 548,-146.5"/>
<text text-anchor="middle" x="432" y="-131.3" font-family="Times,serif" font-size="14.00" fill="#000000">ZcashFoundation/zebra#1963</text>
<text text-anchor="middle" x="432" y="-116.3" font-family="Times,serif" font-size="14.00" fill="#000000">Work out how to release</text>
<text text-anchor="middle" x="432" y="-101.3" font-family="Times,serif" font-size="14.00" fill="#000000">Zebra binaries</text>
</a>
</g>
</g>
<!-- ZcashFoundation/zebra#1963&#45;&gt;ZcashFoundation/zebra#755 -->
<g id="edge5" class="edge">
<title>ZcashFoundation/zebra#1963&#45;&gt;ZcashFoundation/zebra#755</title>
<path fill="none" stroke="#000000" d="M523.88,-146.61C543.67,-152.17 564.5,-157.89 584,-163 592.3,-165.17 600.95,-167.38 609.62,-169.55"/>
<polygon fill="#000000" stroke="#000000" points="608.852,-172.9655 619.4,-171.97 610.5335,-166.1704 608.852,-172.9655"/>
</g>
<!-- ZcashFoundation/zebra#1963&#45;&gt;ZcashFoundation/zebra#2564 -->
<g id="edge6" class="edge">
<title>ZcashFoundation/zebra#1963&#45;&gt;ZcashFoundation/zebra#2564</title>
<path fill="none" stroke="#000000" d="M548.38,-120C556.71,-120 565.14,-120 573.53,-120"/>
<polygon fill="#000000" stroke="#000000" points="573.74,-123.5001 583.74,-120 573.74,-116.5001 573.74,-123.5001"/>
</g>
<!-- ZcashFoundation/zebra#4412 -->
<g id="node15" class="node open">
<title>ZcashFoundation/zebra#4412</title>
<g id="a_node15"><a xlink:href="https://github.com/ZcashFoundation/zebra/issues/4412" xlink:title="ZcashFoundation/zebra#4412&#10;Automate pinning CI&#10;dependencies to specific&#10;commit hashes" target="_blank">
<polygon fill="#c2e0c6" stroke="#000000" points="816,-68 584,-68 584,0 816,0 816,-68"/>
<text text-anchor="middle" x="700" y="-52.8" font-family="Times,serif" font-size="14.00" fill="#000000">ZcashFoundation/zebra#4412</text>
<text text-anchor="middle" x="700" y="-37.8" font-family="Times,serif" font-size="14.00" fill="#000000">Automate pinning CI</text>
<text text-anchor="middle" x="700" y="-22.8" font-family="Times,serif" font-size="14.00" fill="#000000">dependencies to specific</text>
<text text-anchor="middle" x="700" y="-7.8" font-family="Times,serif" font-size="14.00" fill="#000000">commit hashes</text>
</a>
</g>
</g>
<!-- ZcashFoundation/zebra#1963&#45;&gt;ZcashFoundation/zebra#4412 -->
<g id="edge7" class="edge">
<title>ZcashFoundation/zebra#1963&#45;&gt;ZcashFoundation/zebra#4412</title>
<path fill="none" stroke="#000000" d="M514.6,-93.495C536.63,-86.425 560.85,-78.653 584.3,-71.126"/>
<polygon fill="#000000" stroke="#000000" points="585.4967,-74.4179 593.95,-68.031 583.3588,-67.7523 585.4967,-74.4179"/>
</g>
<!-- ZcashFoundation/zebra#4554 -->
<g id="node16" class="node open">
<title>ZcashFoundation/zebra#4554</title>
<g id="a_node16"><a xlink:href="https://github.com/ZcashFoundation/zebra/issues/4554" xlink:title="ZcashFoundation/zebra#4554&#10;benchmarks: surface&#10;zebrad mainnet sync time&#10;in CI" target="_blank">
<polygon fill="#c2e0c6" stroke="#000000" stroke-width="2" points="260,-809 28,-809 28,-741 260,-741 260,-809"/>
<text text-anchor="middle" x="144" y="-793.8" font-family="Times,serif" font-size="14.00" fill="#000000">ZcashFoundation/zebra#4554</text>
<text text-anchor="middle" x="144" y="-778.8" font-family="Times,serif" font-size="14.00" fill="#000000">benchmarks: surface</text>
<text text-anchor="middle" x="144" y="-763.8" font-family="Times,serif" font-size="14.00" fill="#000000">zebrad mainnet sync time</text>
<text text-anchor="middle" x="144" y="-748.8" font-family="Times,serif" font-size="14.00" fill="#000000">in CI</text>
</a>
</g>
</g>
<!-- ZcashFoundation/zebra#4546 -->
<g id="node17" class="node open">
<title>ZcashFoundation/zebra#4546</title>
<g id="a_node17"><a xlink:href="https://github.com/ZcashFoundation/zebra/issues/4546" xlink:title="ZcashFoundation/zebra#4546&#10;Fix automatic Zebra&#10;deployments to Google&#10;Cloud" target="_blank">
<polygon fill="#c2e0c6" stroke="#000000" stroke-width="2" points="260,-609 28,-609 28,-541 260,-541 260,-609"/>
<text text-anchor="middle" x="144" y="-593.8" font-family="Times,serif" font-size="14.00" fill="#000000">ZcashFoundation/zebra#4546</text>
<text text-anchor="middle" x="144" y="-578.8" font-family="Times,serif" font-size="14.00" fill="#000000">Fix automatic Zebra</text>
<text text-anchor="middle" x="144" y="-563.8" font-family="Times,serif" font-size="14.00" fill="#000000">deployments to Google</text>
<text text-anchor="middle" x="144" y="-548.8" font-family="Times,serif" font-size="14.00" fill="#000000">Cloud</text>
</a>
</g>
</g>
<!-- ZcashFoundation/zebra#4546&#45;&gt;ZcashFoundation/zebra#4562 -->
<g id="edge11" class="edge">
<title>ZcashFoundation/zebra#4546&#45;&gt;ZcashFoundation/zebra#4562</title>
<path fill="none" stroke="#000000" d="M260.31,-575C275.15,-575 290.4,-575 305.39,-575"/>
<polygon fill="#000000" stroke="#000000" points="305.72,-578.5001 315.72,-575 305.72,-571.5001 305.72,-578.5001"/>
</g>
</g>
</svg>
