<?xml version="1.0" encoding="UTF-8" standalone="no"?>
<?xml-stylesheet href="zcash-dag.css" type="text/css"?>
<!DOCTYPE svg PUBLIC "-//W3C//DTD SVG 1.1//EN"
 "http://www.w3.org/Graphics/SVG/1.1/DTD/svg11.dtd">
<!-- Generated by graphviz version 2.40.1 (20161225.0304)
 -->
<!-- Pages: 1 -->
<svg width="808pt" height="968pt"
 viewBox="0.00 0.00 808.00 967.81" xmlns="http://www.w3.org/2000/svg" xmlns:xlink="http://www.w3.org/1999/xlink">
<g id="graph0" class="graph" transform="scale(1 1) rotate(0) translate(4 963.806)">
<polygon fill="#ffffff" stroke="transparent" points="-4,4 -4,-963.806 804,-963.806 804,4 -4,4"/>
<g id="clust1" class="cluster">
<title>cluster_0</title>
<polygon fill="none" stroke="#0000ff" points="8,-300.806 8,-809.806 256,-809.806 256,-300.806 8,-300.806"/>
<text text-anchor="middle" x="132" y="-794.606" font-family="Times,serif" font-size="14.00" fill="#000000">Epic: Zebra Release Candidates</text>
</g>
<g id="clust2" class="cluster">
<title>cluster_1</title>
<polygon fill="none" stroke="#0000ff" points="276,-145.806 276,-913.806 792,-913.806 792,-145.806 276,-145.806"/>
<text text-anchor="middle" x="534" y="-898.606" font-family="Times,serif" font-size="14.00" fill="#000000">DevOps Ticket Tracker</text>
</g>
<g id="clust3" class="cluster">
<title>cluster_2</title>
<polygon fill="none" stroke="#0000ff" points="0,-23.406 0,-959.806 800,-959.806 800,-23.406 0,-23.406"/>
<text text-anchor="middle" x="400" y="-944.606" font-family="Times,serif" font-size="14.00" fill="#000000">Epic: Zebra as a lightwalletd backend</text>
</g>
<!-- ZcashFoundation/zebra#1615 -->
<g id="node1" class="node open">
<title>ZcashFoundation/zebra#1615</title>
<g id="a_node1"><a xlink:href="https://github.com/ZcashFoundation/zebra/issues/1615" xlink:title="ZcashFoundation/zebra#1615&#10;Zebra release candidate&#10;binaries should be linked&#10;from ZFND website" target="_blank">
<polygon fill="#a7c2aa" stroke="#000000" points="248,-778.806 16,-778.806 16,-710.806 248,-710.806 248,-778.806"/>
<text text-anchor="middle" x="132" y="-763.606" font-family="Times,serif" font-size="14.00" fill="#000000">ZcashFoundation/zebra#1615</text>
<text text-anchor="middle" x="132" y="-748.606" font-family="Times,serif" font-size="14.00" fill="#000000">Zebra release candidate</text>
<text text-anchor="middle" x="132" y="-733.606" font-family="Times,serif" font-size="14.00" fill="#000000">binaries should be linked</text>
<text text-anchor="middle" x="132" y="-718.606" font-family="Times,serif" font-size="14.00" fill="#000000">from ZFND website</text>
</a>
</g>
</g>
<!-- ZcashFoundation/zebra#3050 -->
<g id="node2" class="node open">
<title>ZcashFoundation/zebra#3050</title>
<g id="a_node2"><a xlink:href="https://github.com/ZcashFoundation/zebra/issues/3050" xlink:title="ZcashFoundation/zebra#3050&#10;Tag Zebra 1.0.0&#45;rc.0&#10;stable release candidate" target="_blank">
<polygon fill="#a7c2aa" stroke="#000000" points="248,-606.306 16,-606.306 16,-553.306 248,-553.306 248,-606.306"/>
<text text-anchor="middle" x="132" y="-591.106" font-family="Times,serif" font-size="14.00" fill="#000000">ZcashFoundation/zebra#3050</text>
<text text-anchor="middle" x="132" y="-576.106" font-family="Times,serif" font-size="14.00" fill="#000000">Tag Zebra 1.0.0&#45;rc.0</text>
<text text-anchor="middle" x="132" y="-561.106" font-family="Times,serif" font-size="14.00" fill="#000000">stable release candidate</text>
</a>
</g>
</g>
<!-- ZcashFoundation/zebra#4955 -->
<g id="node12" class="node open">
<title>ZcashFoundation/zebra#4955</title>
<g id="a_node12"><a xlink:href="https://github.com/ZcashFoundation/zebra/issues/4955" xlink:title="ZcashFoundation/zebra#4955&#10;Make long&#45;running test&#10;names match workflow&#10;names" target="_blank">
<polygon fill="#c2e0c6" stroke="#000000" points="516,-653.806 284,-653.806 284,-585.806 516,-585.806 516,-653.806"/>
<text text-anchor="middle" x="400" y="-638.606" font-family="Times,serif" font-size="14.00" fill="#000000">ZcashFoundation/zebra#4955</text>
<text text-anchor="middle" x="400" y="-623.606" font-family="Times,serif" font-size="14.00" fill="#000000">Make long&#45;running test</text>
<text text-anchor="middle" x="400" y="-608.606" font-family="Times,serif" font-size="14.00" fill="#000000">names match workflow</text>
<text text-anchor="middle" x="400" y="-593.606" font-family="Times,serif" font-size="14.00" fill="#000000">names</text>
</a>
</g>
</g>
<!-- ZcashFoundation/zebra#3050&#45;&gt;ZcashFoundation/zebra#4955 -->
<g id="edge3" class="edge">
<title>ZcashFoundation/zebra#3050&#45;&gt;ZcashFoundation/zebra#4955</title>
<path fill="none" stroke="#000000" d="M248.38,-597.176C256.81,-598.436 265.33,-599.706 273.81,-600.966"/>
<polygon fill="#000000" stroke="#000000" points="273.3313,-604.4333 283.74,-602.456 274.3701,-597.5108 273.3313,-604.4333"/>
</g>
<!-- ZcashFoundation/zebra#4992 -->
<g id="node13" class="node open">
<title>ZcashFoundation/zebra#4992</title>
<g id="a_node13"><a xlink:href="https://github.com/ZcashFoundation/zebra/issues/4992" xlink:title="ZcashFoundation/zebra#4992&#10;Run cached state CI on&#10;testnet" target="_blank">
<polygon fill="#c2e0c6" stroke="#000000" points="516,-567.306 284,-567.306 284,-514.306 516,-514.306 516,-567.306"/>
<text text-anchor="middle" x="400" y="-552.106" font-family="Times,serif" font-size="14.00" fill="#000000">ZcashFoundation/zebra#4992</text>
<text text-anchor="middle" x="400" y="-537.106" font-family="Times,serif" font-size="14.00" fill="#000000">Run cached state CI on</text>
<text text-anchor="middle" x="400" y="-522.106" font-family="Times,serif" font-size="14.00" fill="#000000">testnet</text>
</a>
</g>
</g>
<!-- ZcashFoundation/zebra#3050&#45;&gt;ZcashFoundation/zebra#4992 -->
<g id="edge4" class="edge">
<title>ZcashFoundation/zebra#3050&#45;&gt;ZcashFoundation/zebra#4992</title>
<path fill="none" stroke="#000000" d="M248.38,-562.866C256.81,-561.646 265.33,-560.406 273.81,-559.166"/>
<polygon fill="#000000" stroke="#000000" points="274.3458,-562.625 283.74,-557.726 273.3412,-555.6975 274.3458,-562.625"/>
</g>
<!-- ZcashFoundation/zebra#4967 -->
<g id="node18" class="node open">
<title>ZcashFoundation/zebra#4967</title>
<g id="a_node18"><a xlink:href="https://github.com/ZcashFoundation/zebra/pull/4967" xlink:title="ZcashFoundation/zebra#4967&#10;feat(rpc): add&#10;getblockhash rpc method" target="_blank">
<polygon fill="#a7c2aa" stroke="#000000" points="516,-136.304 284,-136.304 284,-132.304 280,-132.304 280,-128.304 284,-128.304 284,-91.304 280,-91.304 280,-87.304 284,-87.304 284,-83.304 516,-83.304 516,-136.304"/>
<polyline fill="none" stroke="#000000" points="284,-132.304 288,-132.304 288,-128.304 284,-128.304 "/>
<polyline fill="none" stroke="#000000" points="284,-91.304 288,-91.304 288,-87.304 284,-87.304 "/>
<text text-anchor="middle" x="400" y="-121.104" font-family="Times,serif" font-size="14.00" fill="#000000">ZcashFoundation/zebra#4967</text>
<text text-anchor="middle" x="400" y="-106.104" font-family="Times,serif" font-size="14.00" fill="#000000">feat(rpc): add</text>
<text text-anchor="middle" x="400" y="-91.104" font-family="Times,serif" font-size="14.00" fill="#000000">getblockhash rpc method</text>
</a>
</g>
</g>
<!-- ZcashFoundation/zebra#3050&#45;&gt;ZcashFoundation/zebra#4967 -->
<g id="edge5" class="edge">
<title>ZcashFoundation/zebra#3050&#45;&gt;ZcashFoundation/zebra#4967</title>
<path fill="none" stroke="#000000" d="M247.26,-552.956C250.43,-550.186 253.36,-547.146 256,-543.806 311.47,-473.636 219.48,-211.126 276,-141.806 276.22,-141.526 276.45,-141.256 276.68,-140.986"/>
<polygon fill="#000000" stroke="#000000" points="279.2936,-143.32 283.81,-133.736 274.3027,-138.4117 279.2936,-143.32"/>
</g>
<!-- ZcashFoundation/zebra#4882 -->
<g id="node3" class="node open">
<title>ZcashFoundation/zebra#4882</title>
<g id="a_node3"><a xlink:href="https://github.com/ZcashFoundation/zebra/issues/4882" xlink:title="ZcashFoundation/zebra#4882&#10;Add zcash&#45;lightwalletd /&#10;Build images to required&#10;jobs" target="_blank">
<polygon fill="#c2e0c6" stroke="#000000" stroke-width="2" points="248,-692.806 16,-692.806 16,-624.806 248,-624.806 248,-692.806"/>
<text text-anchor="middle" x="132" y="-677.606" font-family="Times,serif" font-size="14.00" fill="#000000">ZcashFoundation/zebra#4882</text>
<text text-anchor="middle" x="132" y="-662.606" font-family="Times,serif" font-size="14.00" fill="#000000">Add zcash&#45;lightwalletd /</text>
<text text-anchor="middle" x="132" y="-647.606" font-family="Times,serif" font-size="14.00" fill="#000000">Build images to required</text>
<text text-anchor="middle" x="132" y="-632.606" font-family="Times,serif" font-size="14.00" fill="#000000">jobs</text>
</a>
</g>
</g>
<!-- ZcashFoundation/zebra#4612 -->
<g id="node11" class="node open">
<title>ZcashFoundation/zebra#4612</title>
<g id="a_node11"><a xlink:href="https://github.com/ZcashFoundation/zebra/issues/4612" xlink:title="ZcashFoundation/zebra#4612&#10;ci: Wait for lightwalletd&#10;image rebuild if it has&#10;changed" target="_blank">
<polygon fill="#c2e0c6" stroke="#000000" points="516,-739.806 284,-739.806 284,-671.806 516,-671.806 516,-739.806"/>
<text text-anchor="middle" x="400" y="-724.606" font-family="Times,serif" font-size="14.00" fill="#000000">ZcashFoundation/zebra#4612</text>
<text text-anchor="middle" x="400" y="-709.606" font-family="Times,serif" font-size="14.00" fill="#000000">ci: Wait for lightwalletd</text>
<text text-anchor="middle" x="400" y="-694.606" font-family="Times,serif" font-size="14.00" fill="#000000">image rebuild if it has</text>
<text text-anchor="middle" x="400" y="-679.606" font-family="Times,serif" font-size="14.00" fill="#000000">changed</text>
</a>
</g>
</g>
<!-- ZcashFoundation/zebra#4882&#45;&gt;ZcashFoundation/zebra#4612 -->
<g id="edge6" class="edge">
<title>ZcashFoundation/zebra#4882&#45;&gt;ZcashFoundation/zebra#4612</title>
<path fill="none" stroke="#000000" d="M248.38,-679.216C256.81,-680.696 265.33,-682.186 273.81,-683.676"/>
<polygon fill="#000000" stroke="#000000" points="273.286,-687.1374 283.74,-685.416 274.4942,-680.2425 273.286,-687.1374"/>
</g>
<!-- ZcashFoundation/zebra#4529 -->
<g id="node4" class="node open">
<title>ZcashFoundation/zebra#4529</title>
<g id="a_node4"><a xlink:href="https://github.com/ZcashFoundation/zebra/issues/4529" xlink:title="ZcashFoundation/zebra#4529&#10;Make PRs from external&#10;repositories pass or skip&#10;CI jobs" target="_blank">
<polygon fill="#c2e0c6" stroke="#000000" stroke-width="2" points="248,-534.806 16,-534.806 16,-466.806 248,-466.806 248,-534.806"/>
<text text-anchor="middle" x="132" y="-519.606" font-family="Times,serif" font-size="14.00" fill="#000000">ZcashFoundation/zebra#4529</text>
<text text-anchor="middle" x="132" y="-504.606" font-family="Times,serif" font-size="14.00" fill="#000000">Make PRs from external</text>
<text text-anchor="middle" x="132" y="-489.606" font-family="Times,serif" font-size="14.00" fill="#000000">repositories pass or skip</text>
<text text-anchor="middle" x="132" y="-474.606" font-family="Times,serif" font-size="14.00" fill="#000000">CI jobs</text>
</a>
</g>
</g>
<!-- ZcashFoundation/zebra#5168 -->
<g id="node5" class="node open">
<title>ZcashFoundation/zebra#5168</title>
<g id="a_node5"><a xlink:href="https://github.com/ZcashFoundation/zebra/issues/5168" xlink:title="ZcashFoundation/zebra#5168&#10;Add Docker tests for&#10;default config and&#10;$ZEBRA_CONF_PATH" target="_blank">
<polygon fill="#c2e0c6" stroke="#000000" stroke-width="2" points="248,-448.806 16,-448.806 16,-380.806 248,-380.806 248,-448.806"/>
<text text-anchor="middle" x="132" y="-433.606" font-family="Times,serif" font-size="14.00" fill="#000000">ZcashFoundation/zebra#5168</text>
<text text-anchor="middle" x="132" y="-418.606" font-family="Times,serif" font-size="14.00" fill="#000000">Add Docker tests for</text>
<text text-anchor="middle" x="132" y="-403.606" font-family="Times,serif" font-size="14.00" fill="#000000">default config and</text>
<text text-anchor="middle" x="132" y="-388.606" font-family="Times,serif" font-size="14.00" fill="#000000">$ZEBRA_CONF_PATH</text>
</a>
</g>
</g>
<!-- ZcashFoundation/zebra#1638 -->
<g id="node6" class="node open">
<title>ZcashFoundation/zebra#1638</title>
<g id="a_node6"><a xlink:href="https://github.com/ZcashFoundation/zebra/issues/1638" xlink:title="ZcashFoundation/zebra#1638&#10;Create PGP keys amongst&#10;security@zfnd.org" target="_blank">
<polygon fill="#c2e0c6" stroke="#000000" stroke-width="2" points="248,-362.306 16,-362.306 16,-309.306 248,-309.306 248,-362.306"/>
<text text-anchor="middle" x="132" y="-347.106" font-family="Times,serif" font-size="14.00" fill="#000000">ZcashFoundation/zebra#1638</text>
<text text-anchor="middle" x="132" y="-332.106" font-family="Times,serif" font-size="14.00" fill="#000000">Create PGP keys amongst</text>
<text text-anchor="middle" x="132" y="-317.106" font-family="Times,serif" font-size="14.00" fill="#000000">security@zfnd.org</text>
</a>
</g>
</g>
<!-- ZcashFoundation/zebra#4953 -->
<g id="node7" class="node open">
<title>ZcashFoundation/zebra#4953</title>
<g id="a_node7"><a xlink:href="https://github.com/ZcashFoundation/zebra/issues/4953" xlink:title="ZcashFoundation/zebra#4953&#10;Document how to use&#10;released Zebra binaries" target="_blank">
<polygon fill="#c2e0c6" stroke="#000000" stroke-width="2" points="516,-882.306 284,-882.306 284,-829.306 516,-829.306 516,-882.306"/>
<text text-anchor="middle" x="400" y="-867.106" font-family="Times,serif" font-size="14.00" fill="#000000">ZcashFoundation/zebra#4953</text>
<text text-anchor="middle" x="400" y="-852.106" font-family="Times,serif" font-size="14.00" fill="#000000">Document how to use</text>
<text text-anchor="middle" x="400" y="-837.106" font-family="Times,serif" font-size="14.00" fill="#000000">released Zebra binaries</text>
</a>
</g>
</g>
<!-- ZcashFoundation/zebra#4953&#45;&gt;ZcashFoundation/zebra#1615 -->
<g id="edge7" class="edge">
<title>ZcashFoundation/zebra#4953&#45;&gt;ZcashFoundation/zebra#1615</title>
<path fill="none" stroke="#000000" d="M298.9,-829.196C291.09,-826.556 283.37,-823.756 276,-820.806 250.05,-810.426 222.66,-796.726 198.82,-783.826"/>
<polygon fill="#000000" stroke="#000000" points="200.3223,-780.6583 189.87,-778.926 196.9607,-786.7983 200.3223,-780.6583"/>
</g>
<!-- ZcashFoundation/zebra#1963 -->
<g id="node8" class="node open">
<title>ZcashFoundation/zebra#1963</title>
<g id="a_node8"><a xlink:href="https://github.com/ZcashFoundation/zebra/issues/1963" xlink:title="ZcashFoundation/zebra#1963&#10;Work out how to release&#10;Zebra binaries" target="_blank">
<polygon fill="#c2e0c6" stroke="#000000" stroke-width="2" points="516,-811.306 284,-811.306 284,-758.306 516,-758.306 516,-811.306"/>
<text text-anchor="middle" x="400" y="-796.106" font-family="Times,serif" font-size="14.00" fill="#000000">ZcashFoundation/zebra#1963</text>
<text text-anchor="middle" x="400" y="-781.106" font-family="Times,serif" font-size="14.00" fill="#000000">Work out how to release</text>
<text text-anchor="middle" x="400" y="-766.106" font-family="Times,serif" font-size="14.00" fill="#000000">Zebra binaries</text>
</a>
</g>
</g>
<!-- ZcashFoundation/zebra#4954 -->
<g id="node9" class="node open">
<title>ZcashFoundation/zebra#4954</title>
<g id="a_node9"><a xlink:href="https://github.com/ZcashFoundation/zebra/issues/4954" xlink:title="ZcashFoundation/zebra#4954&#10;Update release checklist&#10;PR template for the&#10;release candidate series" target="_blank">
<polygon fill="#c2e0c6" stroke="#000000" points="784,-477.806 552,-477.806 552,-409.806 784,-409.806 784,-477.806"/>
<text text-anchor="middle" x="668" y="-462.606" font-family="Times,serif" font-size="14.00" fill="#000000">ZcashFoundation/zebra#4954</text>
<text text-anchor="middle" x="668" y="-447.606" font-family="Times,serif" font-size="14.00" fill="#000000">Update release checklist</text>
<text text-anchor="middle" x="668" y="-432.606" font-family="Times,serif" font-size="14.00" fill="#000000">PR template for the</text>
<text text-anchor="middle" x="668" y="-417.606" font-family="Times,serif" font-size="14.00" fill="#000000">release candidate series</text>
</a>
</g>
</g>
<!-- ZcashFoundation/zebra#1963&#45;&gt;ZcashFoundation/zebra#4954 -->
<g id="edge1" class="edge">
<title>ZcashFoundation/zebra#1963&#45;&gt;ZcashFoundation/zebra#4954</title>
<path fill="none" stroke="#000000" d="M502.81,-758.276C507.47,-755.436 511.9,-752.286 516,-748.806 598.1,-678.996 640.32,-554.116 657.85,-487.876"/>
<polygon fill="#000000" stroke="#000000" points="661.2487,-488.7127 660.35,-478.156 654.4693,-486.9689 661.2487,-488.7127"/>
</g>
<!-- ZcashFoundation/zebra#4412 -->
<g id="node10" class="node open">
<title>ZcashFoundation/zebra#4412</title>
<g id="a_node10"><a xlink:href="https://github.com/ZcashFoundation/zebra/issues/4412" xlink:title="ZcashFoundation/zebra#4412&#10;Automate pinning CI&#10;dependencies to specific&#10;commit hashes" target="_blank">
<polygon fill="#c2e0c6" stroke="#000000" points="784,-818.806 552,-818.806 552,-750.806 784,-750.806 784,-818.806"/>
<text text-anchor="middle" x="668" y="-803.606" font-family="Times,serif" font-size="14.00" fill="#000000">ZcashFoundation/zebra#4412</text>
<text text-anchor="middle" x="668" y="-788.606" font-family="Times,serif" font-size="14.00" fill="#000000">Automate pinning CI</text>
<text text-anchor="middle" x="668" y="-773.606" font-family="Times,serif" font-size="14.00" fill="#000000">dependencies to specific</text>
<text text-anchor="middle" x="668" y="-758.606" font-family="Times,serif" font-size="14.00" fill="#000000">commit hashes</text>
</a>
</g>
</g>
<!-- ZcashFoundation/zebra#1963&#45;&gt;ZcashFoundation/zebra#4412 -->
<g id="edge2" class="edge">
<title>ZcashFoundation/zebra#1963&#45;&gt;ZcashFoundation/zebra#4412</title>
<path fill="none" stroke="#000000" d="M516.38,-784.806C524.71,-784.806 533.14,-784.806 541.53,-784.806"/>
<polygon fill="#000000" stroke="#000000" points="541.74,-788.3061 551.74,-784.806 541.74,-781.3061 541.74,-788.3061"/>
</g>
<!-- ZcashFoundation/zebra#755 -->
<g id="node19" class="node closed">
<title>ZcashFoundation/zebra#755</title>
<g id="a_node19"><a xlink:href="https://github.com/ZcashFoundation/zebra/issues/755" xlink:title="ZcashFoundation/zebra#755&#10;Automate zebrad releases" target="_blank">
<polygon fill="#fad8c7" stroke="#000000" points="779.5,-959.806 556.5,-959.806 556.5,-921.806 779.5,-921.806 779.5,-959.806"/>
<text text-anchor="middle" x="668" y="-944.606" font-family="Times,serif" font-size="14.00" fill="#000000">ZcashFoundation/zebra#755</text>
<text text-anchor="middle" x="668" y="-929.606" font-family="Times,serif" font-size="14.00" fill="#000000">Automate zebrad releases</text>
</a>
</g>
</g>
<!-- ZcashFoundation/zebra#1963&#45;&gt;ZcashFoundation/zebra#755 -->
<g id="edge8" class="edge">
<title>ZcashFoundation/zebra#1963&#45;&gt;ZcashFoundation/zebra#755</title>
<path fill="none" stroke="#000000" d="M504.08,-811.336C508.32,-814.176 512.33,-817.326 516,-820.806 547.04,-850.196 521.23,-883.006 549.67,-914.626"/>
<polygon fill="#000000" stroke="#000000" points="547.4675,-917.3639 557.1,-921.776 552.3213,-912.32 547.4675,-917.3639"/>
</g>
<!-- ZcashFoundation/zebra#4954&#45;&gt;ZcashFoundation/zebra#3050 -->
<g id="edge9" class="edge">
<title>ZcashFoundation/zebra#4954&#45;&gt;ZcashFoundation/zebra#3050</title>
<path fill="none" stroke="#000000" d="M665.92,-409.536C659.25,-333.466 631.37,-151.136 516,-73.804 427.4,-14.4144 353.01,0 276,-73.804 238.26,-109.97 288.27,-502.686 256,-543.806 255.51,-544.436 255,-545.046 254.49,-545.656"/>
<polygon fill="#000000" stroke="#000000" points="251.8006,-543.3993 247.29,-552.986 256.7945,-548.3046 251.8006,-543.3993"/>
</g>
<!-- ZcashFoundation/zebra#4554 -->
<g id="node14" class="node open">
<title>ZcashFoundation/zebra#4554</title>
<g id="a_node14"><a xlink:href="https://github.com/ZcashFoundation/zebra/issues/4554" xlink:title="ZcashFoundation/zebra#4554&#10;benchmarks: surface&#10;zebrad mainnet sync time&#10;in CI" target="_blank">
<polygon fill="#c2e0c6" stroke="#000000" stroke-width="2" points="516,-495.806 284,-495.806 284,-427.806 516,-427.806 516,-495.806"/>
<text text-anchor="middle" x="400" y="-480.606" font-family="Times,serif" font-size="14.00" fill="#000000">ZcashFoundation/zebra#4554</text>
<text text-anchor="middle" x="400" y="-465.606" font-family="Times,serif" font-size="14.00" fill="#000000">benchmarks: surface</text>
<text text-anchor="middle" x="400" y="-450.606" font-family="Times,serif" font-size="14.00" fill="#000000">zebrad mainnet sync time</text>
<text text-anchor="middle" x="400" y="-435.606" font-family="Times,serif" font-size="14.00" fill="#000000">in CI</text>
</a>
</g>
</g>
<!-- ZcashFoundation/zebra#4956 -->
<g id="node15" class="node open">
<title>ZcashFoundation/zebra#4956</title>
<g id="a_node15"><a xlink:href="https://github.com/ZcashFoundation/zebra/issues/4956" xlink:title="ZcashFoundation/zebra#4956&#10;Make file locations&#10;appear in zebrad Docker&#10;error messages" target="_blank">
<polygon fill="#c2e0c6" stroke="#000000" stroke-width="2" points="516,-409.806 284,-409.806 284,-341.806 516,-341.806 516,-409.806"/>
<text text-anchor="middle" x="400" y="-394.606" font-family="Times,serif" font-size="14.00" fill="#000000">ZcashFoundation/zebra#4956</text>
<text text-anchor="middle" x="400" y="-379.606" font-family="Times,serif" font-size="14.00" fill="#000000">Make file locations</text>
<text text-anchor="middle" x="400" y="-364.606" font-family="Times,serif" font-size="14.00" fill="#000000">appear in zebrad Docker</text>
<text text-anchor="middle" x="400" y="-349.606" font-family="Times,serif" font-size="14.00" fill="#000000">error messages</text>
</a>
</g>
</g>
<!-- ZcashFoundation/zebra#4976 -->
<g id="node16" class="node open">
<title>ZcashFoundation/zebra#4976</title>
<g id="a_node16"><a xlink:href="https://github.com/ZcashFoundation/zebra/issues/4976" xlink:title="ZcashFoundation/zebra#4976&#10;Move continuous&#10;deployment to another&#10;Google Cloud region" target="_blank">
<polygon fill="#c2e0c6" stroke="#000000" stroke-width="2" points="516,-323.806 284,-323.806 284,-255.806 516,-255.806 516,-323.806"/>
<text text-anchor="middle" x="400" y="-308.606" font-family="Times,serif" font-size="14.00" fill="#000000">ZcashFoundation/zebra#4976</text>
<text text-anchor="middle" x="400" y="-293.606" font-family="Times,serif" font-size="14.00" fill="#000000">Move continuous</text>
<text text-anchor="middle" x="400" y="-278.606" font-family="Times,serif" font-size="14.00" fill="#000000">deployment to another</text>
<text text-anchor="middle" x="400" y="-263.606" font-family="Times,serif" font-size="14.00" fill="#000000">Google Cloud region</text>
</a>
</g>
</g>
<!-- ZcashFoundation/zebra#4946 -->
<g id="node17" class="node open">
<title>ZcashFoundation/zebra#4946</title>
<g id="a_node17"><a xlink:href="https://github.com/ZcashFoundation/zebra/issues/4946" xlink:title="ZcashFoundation/zebra#4946&#10;Managed instance groups&#10;deployed with continuous&#10;deployment can&#39;t scale&#10;beyond 1 instance" target="_blank">
<polygon fill="#c2e0c6" stroke="#000000" stroke-width="2" points="516,-237.306 284,-237.306 284,-154.306 516,-154.306 516,-237.306"/>
<text text-anchor="middle" x="400" y="-222.106" font-family="Times,serif" font-size="14.00" fill="#000000">ZcashFoundation/zebra#4946</text>
<text text-anchor="middle" x="400" y="-207.106" font-family="Times,serif" font-size="14.00" fill="#000000">Managed instance groups</text>
<text text-anchor="middle" x="400" y="-192.106" font-family="Times,serif" font-size="14.00" fill="#000000">deployed with continuous</text>
<text text-anchor="middle" x="400" y="-177.106" font-family="Times,serif" font-size="14.00" fill="#000000">deployment can&#39;t scale</text>
<text text-anchor="middle" x="400" y="-162.106" font-family="Times,serif" font-size="14.00" fill="#000000">beyond 1 instance</text>
</a>
</g>
</g>
</g>
</svg>
