<?xml version="1.0" encoding="UTF-8" standalone="no"?>
<?xml-stylesheet href="zcash-dag.css" type="text/css"?>
<!DOCTYPE svg PUBLIC "-//W3C//DTD SVG 1.1//EN"
 "http://www.w3.org/Graphics/SVG/1.1/DTD/svg11.dtd">
<!-- Generated by graphviz version 2.43.0 (0)
 -->
<!-- Pages: 1 -->
<svg width="702pt" height="548pt"
 viewBox="0.00 0.00 702.00 547.50" xmlns="http://www.w3.org/2000/svg" xmlns:xlink="http://www.w3.org/1999/xlink">
<g id="graph0" class="graph" transform="scale(1 1) rotate(0) translate(4 543.5)">
<polygon fill="white" stroke="transparent" points="-4,4 -4,-543.5 698,-543.5 698,4 -4,4"/>
<g id="clust1" class="cluster">
<title>cluster_1</title>
<polygon fill="none" stroke="blue" points="0,0 0,-250 450,-250 450,0 0,0"/>
<text text-anchor="middle" x="225" y="-234.8" font-family="Times,serif" font-size="14.00">Epic: FROST Proof of Concept/Prototype and Documentation</text>
</g>
<g id="clust2" class="cluster">
<title>cluster_0</title>
<polygon fill="none" stroke="blue" points="109,-258 109,-422 341,-422 341,-258 109,-258"/>
<text text-anchor="middle" x="225" y="-406.8" font-family="Times,serif" font-size="14.00">Epic: Re&#45;randomizable FROST</text>
</g>
<!-- ZcashFoundation/frost#239 -->
<g id="node1" class="node open">
<title>ZcashFoundation/frost#239</title>
<g id="a_node1"><a xlink:href="https://github.com/ZcashFoundation/frost/issues/239" xlink:title="ZcashFoundation/frost#239&#10;Epic: Demo for Signature&#10;generation &#45; Participant&#10;CLI" target="_blank">
<polygon fill="#c2e0c6" stroke="black" stroke-width="2" points="333,-219 117,-219 117,-151 333,-151 333,-219"/>
<text text-anchor="middle" x="225" y="-203.8" font-family="Times,serif" font-size="14.00">ZcashFoundation/frost#239</text>
<text text-anchor="middle" x="225" y="-188.8" font-family="Times,serif" font-size="14.00">Epic: Demo for Signature</text>
<text text-anchor="middle" x="225" y="-173.8" font-family="Times,serif" font-size="14.00">generation &#45; Participant</text>
<text text-anchor="middle" x="225" y="-158.8" font-family="Times,serif" font-size="14.00">CLI</text>
</a>
</g>
</g>
<!-- ZcashFoundation/frost#240 -->
<g id="node2" class="node open">
<title>ZcashFoundation/frost#240</title>
<g id="a_node2"><a xlink:href="https://github.com/ZcashFoundation/frost/issues/240" xlink:title="ZcashFoundation/frost#240&#10;Demo for Signature&#10;verification" target="_blank">
<polygon fill="#c2e0c6" stroke="black" stroke-width="2" points="333,-132.5 117,-132.5 117,-79.5 333,-79.5 333,-132.5"/>
<text text-anchor="middle" x="225" y="-117.3" font-family="Times,serif" font-size="14.00">ZcashFoundation/frost#240</text>
<text text-anchor="middle" x="225" y="-102.3" font-family="Times,serif" font-size="14.00">Demo for Signature</text>
<text text-anchor="middle" x="225" y="-87.3" font-family="Times,serif" font-size="14.00">verification</text>
</a>
</g>
</g>
<!-- ZcashFoundation/frost#242 -->
<g id="node3" class="node open">
<title>ZcashFoundation/frost#242</title>
<g id="a_node3"><a xlink:href="https://github.com/ZcashFoundation/frost/issues/242" xlink:title="ZcashFoundation/frost#242&#10;Implement broadcast&#10;channel for FROST PoC" target="_blank">
<polygon fill="#c2e0c6" stroke="black" stroke-width="2" points="333,-61.5 117,-61.5 117,-8.5 333,-8.5 333,-61.5"/>
<text text-anchor="middle" x="225" y="-46.3" font-family="Times,serif" font-size="14.00">ZcashFoundation/frost#242</text>
<text text-anchor="middle" x="225" y="-31.3" font-family="Times,serif" font-size="14.00">Implement broadcast</text>
<text text-anchor="middle" x="225" y="-16.3" font-family="Times,serif" font-size="14.00">channel for FROST PoC</text>
</a>
</g>
</g>
<!-- ZcashFoundation/frost#216 -->
<g id="node4" class="node open">
<title>ZcashFoundation/frost#216</title>
<g id="a_node4"><a xlink:href="https://github.com/ZcashFoundation/frost/issues/216" xlink:title="ZcashFoundation/frost#216&#10;Write security proof for&#10;Rerandomized FROST" target="_blank">
<polygon fill="#c2e0c6" stroke="black" stroke-width="2" points="333,-390.5 117,-390.5 117,-337.5 333,-337.5 333,-390.5"/>
<text text-anchor="middle" x="225" y="-375.3" font-family="Times,serif" font-size="14.00">ZcashFoundation/frost#216</text>
<text text-anchor="middle" x="225" y="-360.3" font-family="Times,serif" font-size="14.00">Write security proof for</text>
<text text-anchor="middle" x="225" y="-345.3" font-family="Times,serif" font-size="14.00">Rerandomized FROST</text>
</a>
</g>
</g>
<!-- ZcashFoundation/frost#437 -->
<g id="node5" class="node open">
<title>ZcashFoundation/frost#437</title>
<g id="a_node5"><a xlink:href="https://github.com/ZcashFoundation/frost/pull/437" xlink:title="ZcashFoundation/frost#437&#10;Simplify rerandomized&#10;FROST" target="_blank">
<polygon fill="#c2e0c6" stroke="black" stroke-width="2" points="333,-319.5 117,-319.5 117,-315.5 113,-315.5 113,-311.5 117,-311.5 117,-274.5 113,-274.5 113,-270.5 117,-270.5 117,-266.5 333,-266.5 333,-319.5"/>
<polyline fill="none" stroke="black" stroke-width="2" points="117,-315.5 121,-315.5 121,-311.5 117,-311.5 "/>
<polyline fill="none" stroke="black" stroke-width="2" points="117,-274.5 121,-274.5 121,-270.5 117,-270.5 "/>
<text text-anchor="middle" x="225" y="-304.3" font-family="Times,serif" font-size="14.00">ZcashFoundation/frost#437</text>
<text text-anchor="middle" x="225" y="-289.3" font-family="Times,serif" font-size="14.00">Simplify rerandomized</text>
<text text-anchor="middle" x="225" y="-274.3" font-family="Times,serif" font-size="14.00">FROST</text>
</a>
</g>
</g>
<!-- ZcashFoundation/frost#235 -->
<g id="node6" class="node closed">
<title>ZcashFoundation/frost#235</title>
<g id="a_node6"><a xlink:href="https://github.com/ZcashFoundation/frost/issues/235" xlink:title="ZcashFoundation/frost#235&#10;Tag a `frost` release&#10;based on the final&#10;version of the spec" target="_blank">
<polygon fill="#fad8c7" stroke="black" points="694,-515 478,-515 478,-447 694,-447 694,-515"/>
<text text-anchor="middle" x="586" y="-499.8" font-family="Times,serif" font-size="14.00">ZcashFoundation/frost#235</text>
<text text-anchor="middle" x="586" y="-484.8" font-family="Times,serif" font-size="14.00">Tag a `frost` release</text>
<text text-anchor="middle" x="586" y="-469.8" font-family="Times,serif" font-size="14.00">based on the final</text>
<text text-anchor="middle" x="586" y="-454.8" font-family="Times,serif" font-size="14.00">version of the spec</text>
</a>
</g>
</g>
<!-- ZcashFoundation/frost#189 -->
<g id="node7" class="node open">
<title>ZcashFoundation/frost#189</title>
<g id="a_node7"><a xlink:href="https://github.com/ZcashFoundation/frost/issues/189" xlink:title="ZcashFoundation/frost#189&#10;Updated release drafter&#10;config to match zebrad&#39;s" target="_blank">
<polygon fill="#c2e0c6" stroke="black" stroke-width="2" points="333,-539.5 117,-539.5 117,-486.5 333,-486.5 333,-539.5"/>
<text text-anchor="middle" x="225" y="-524.3" font-family="Times,serif" font-size="14.00">ZcashFoundation/frost#189</text>
<text text-anchor="middle" x="225" y="-509.3" font-family="Times,serif" font-size="14.00">Updated release drafter</text>
<text text-anchor="middle" x="225" y="-494.3" font-family="Times,serif" font-size="14.00">config to match zebrad&#39;s</text>
</a>
</g>
</g>
<!-- ZcashFoundation/frost#189&#45;&gt;ZcashFoundation/frost#235 -->
<g id="edge1" class="edge">
<title>ZcashFoundation/frost#189&#45;&gt;ZcashFoundation/frost#235</title>
<path fill="none" stroke="black" d="M333.23,-503.44C375.59,-499.67 424.4,-495.32 467.69,-491.46"/>
<polygon fill="black" stroke="black" points="468.06,-494.94 477.71,-490.56 467.44,-487.97 468.06,-494.94"/>
</g>
<!-- ZcashFoundation/frost#190 -->
<g id="node8" class="node open">
<title>ZcashFoundation/frost#190</title>
<g id="a_node8"><a xlink:href="https://github.com/ZcashFoundation/frost/issues/190" xlink:title="ZcashFoundation/frost#190&#10;Write a release checklist" target="_blank">
<polygon fill="#c2e0c6" stroke="black" stroke-width="2" points="333,-468 117,-468 117,-430 333,-430 333,-468"/>
<text text-anchor="middle" x="225" y="-452.8" font-family="Times,serif" font-size="14.00">ZcashFoundation/frost#190</text>
<text text-anchor="middle" x="225" y="-437.8" font-family="Times,serif" font-size="14.00">Write a release checklist</text>
</a>
</g>
</g>
<!-- ZcashFoundation/frost#190&#45;&gt;ZcashFoundation/frost#235 -->
<g id="edge2" class="edge">
<title>ZcashFoundation/frost#190&#45;&gt;ZcashFoundation/frost#235</title>
<path fill="none" stroke="black" d="M333.23,-458.56C375.59,-462.33 424.4,-466.68 467.69,-470.54"/>
<polygon fill="black" stroke="black" points="467.44,-474.03 477.71,-471.44 468.06,-467.06 467.44,-474.03"/>
</g>
</g>
</svg>
