<?xml version="1.0" encoding="UTF-8" standalone="no"?>
<?xml-stylesheet href="zcash-dag.css" type="text/css"?>
<!DOCTYPE svg PUBLIC "-//W3C//DTD SVG 1.1//EN"
 "http://www.w3.org/Graphics/SVG/1.1/DTD/svg11.dtd">
<!-- Generated by graphviz version 2.40.1 (20161225.0304)
 -->
<!-- Pages: 1 -->
<svg width="564pt" height="829pt"
 viewBox="0.00 0.00 564.00 829.00" xmlns="http://www.w3.org/2000/svg" xmlns:xlink="http://www.w3.org/1999/xlink">
<g id="graph0" class="graph" transform="scale(1 1) rotate(0) translate(4 825)">
<polygon fill="#ffffff" stroke="transparent" points="-4,4 -4,-825 560,-825 560,4 -4,4"/>
<g id="clust1" class="cluster">
<title>cluster_5</title>
<polygon fill="none" stroke="#0000ff" points="0,-714 0,-821 288,-821 288,-714 0,-714"/>
<text text-anchor="middle" x="144" y="-805.8" font-family="Times,serif" font-size="14.00" fill="#000000">Epic: Zebra as a lightwalletd backend</text>
</g>
<g id="clust2" class="cluster">
<title>cluster_0</title>
<polygon fill="none" stroke="#0000ff" points="20,0 20,-179 268,-179 268,0 20,0"/>
<text text-anchor="middle" x="144" y="-163.8" font-family="Times,serif" font-size="14.00" fill="#000000">Tracking: Tech Debt</text>
</g>
<g id="clust3" class="cluster">
<title>cluster_1</title>
<polygon fill="none" stroke="#0000ff" points="20,-187 20,-351 268,-351 268,-187 20,-187"/>
<text text-anchor="middle" x="144" y="-335.8" font-family="Times,serif" font-size="14.00" fill="#000000">Tracking: Documentation</text>
</g>
<g id="clust4" class="cluster">
<title>cluster_4</title>
<polygon fill="none" stroke="#0000ff" points="20,-546 20,-639 556,-639 556,-546 20,-546"/>
<text text-anchor="middle" x="288" y="-623.8" font-family="Times,serif" font-size="14.00" fill="#000000">Epic: Zebra Stable Release Candidate</text>
</g>
<g id="clust5" class="cluster">
<title>cluster_3</title>
<polygon fill="none" stroke="#0000ff" points="20,-359 20,-538 556,-538 556,-359 20,-359"/>
<text text-anchor="middle" x="288" y="-522.8" font-family="Times,serif" font-size="14.00" fill="#000000">Epic: Breaking Changes before the Stable Release</text>
</g>
<!-- ZcashFoundation/zebra#4456 -->
<g id="node1" class="node open">
<title>ZcashFoundation/zebra#4456</title>
<g id="a_node1"><a xlink:href="https://github.com/ZcashFoundation/zebra/issues/4456" xlink:title="ZcashFoundation/zebra#4456&#10;Full sync test takes&#10;slightly longer than CI&#10;timeout" target="_blank">
<polygon fill="#c2e0c6" stroke="#000000" stroke-width="2" points="260,-790 28,-790 28,-722 260,-722 260,-790"/>
<text text-anchor="middle" x="144" y="-774.8" font-family="Times,serif" font-size="14.00" fill="#000000">ZcashFoundation/zebra#4456</text>
<text text-anchor="middle" x="144" y="-759.8" font-family="Times,serif" font-size="14.00" fill="#000000">Full sync test takes</text>
<text text-anchor="middle" x="144" y="-744.8" font-family="Times,serif" font-size="14.00" fill="#000000">slightly longer than CI</text>
<text text-anchor="middle" x="144" y="-729.8" font-family="Times,serif" font-size="14.00" fill="#000000">timeout</text>
</a>
</g>
</g>
<!-- ZcashFoundation/zebra#4554 -->
<g id="node12" class="node open">
<title>ZcashFoundation/zebra#4554</title>
<g id="a_node12"><a xlink:href="https://github.com/ZcashFoundation/zebra/issues/4554" xlink:title="ZcashFoundation/zebra#4554&#10;benchmarks: surface&#10;zebrad mainnet sync time&#10;in CI" target="_blank">
<polygon fill="#c2e0c6" stroke="#000000" points="548,-752 316,-752 316,-684 548,-684 548,-752"/>
<text text-anchor="middle" x="432" y="-736.8" font-family="Times,serif" font-size="14.00" fill="#000000">ZcashFoundation/zebra#4554</text>
<text text-anchor="middle" x="432" y="-721.8" font-family="Times,serif" font-size="14.00" fill="#000000">benchmarks: surface</text>
<text text-anchor="middle" x="432" y="-706.8" font-family="Times,serif" font-size="14.00" fill="#000000">zebrad mainnet sync time</text>
<text text-anchor="middle" x="432" y="-691.8" font-family="Times,serif" font-size="14.00" fill="#000000">in CI</text>
</a>
</g>
</g>
<!-- ZcashFoundation/zebra#4456&#45;&gt;ZcashFoundation/zebra#4554 -->
<g id="edge4" class="edge">
<title>ZcashFoundation/zebra#4456&#45;&gt;ZcashFoundation/zebra#4554</title>
<path fill="none" stroke="#000000" d="M260.31,-740.65C275.15,-738.7 290.4,-736.68 305.39,-734.71"/>
<polygon fill="#000000" stroke="#000000" points="306.267,-738.1244 315.72,-733.34 305.3466,-731.1852 306.267,-738.1244"/>
</g>
<!-- ZcashFoundation/zebra#1364 -->
<g id="node2" class="node open">
<title>ZcashFoundation/zebra#1364</title>
<g id="a_node2"><a xlink:href="https://github.com/ZcashFoundation/zebra/issues/1364" xlink:title="ZcashFoundation/zebra#1364&#10;Add a CI job which&#10;compiles each Zebra crate&#10;individually" target="_blank">
<polygon fill="#c2e0c6" stroke="#000000" stroke-width="2" points="260,-148 28,-148 28,-80 260,-80 260,-148"/>
<text text-anchor="middle" x="144" y="-132.8" font-family="Times,serif" font-size="14.00" fill="#000000">ZcashFoundation/zebra#1364</text>
<text text-anchor="middle" x="144" y="-117.8" font-family="Times,serif" font-size="14.00" fill="#000000">Add a CI job which</text>
<text text-anchor="middle" x="144" y="-102.8" font-family="Times,serif" font-size="14.00" fill="#000000">compiles each Zebra crate</text>
<text text-anchor="middle" x="144" y="-87.8" font-family="Times,serif" font-size="14.00" fill="#000000">individually</text>
</a>
</g>
</g>
<!-- ZcashFoundation/zebra#4550 -->
<g id="node11" class="node open">
<title>ZcashFoundation/zebra#4550</title>
<g id="a_node11"><a xlink:href="https://github.com/ZcashFoundation/zebra/issues/4550" xlink:title="ZcashFoundation/zebra#4550&#10;Add all&#45;features and no&#45;&#10;default&#45;features builds&#10;to CI" target="_blank">
<polygon fill="#c2e0c6" stroke="#000000" points="548,-148 316,-148 316,-80 548,-80 548,-148"/>
<text text-anchor="middle" x="432" y="-132.8" font-family="Times,serif" font-size="14.00" fill="#000000">ZcashFoundation/zebra#4550</text>
<text text-anchor="middle" x="432" y="-117.8" font-family="Times,serif" font-size="14.00" fill="#000000">Add all&#45;features and no&#45;</text>
<text text-anchor="middle" x="432" y="-102.8" font-family="Times,serif" font-size="14.00" fill="#000000">default&#45;features builds</text>
<text text-anchor="middle" x="432" y="-87.8" font-family="Times,serif" font-size="14.00" fill="#000000">to CI</text>
</a>
</g>
</g>
<!-- ZcashFoundation/zebra#1364&#45;&gt;ZcashFoundation/zebra#4550 -->
<g id="edge3" class="edge">
<title>ZcashFoundation/zebra#1364&#45;&gt;ZcashFoundation/zebra#4550</title>
<path fill="none" stroke="#000000" d="M260.31,-114C275.15,-114 290.4,-114 305.39,-114"/>
<polygon fill="#000000" stroke="#000000" points="305.72,-117.5001 315.72,-114 305.72,-110.5001 305.72,-117.5001"/>
</g>
<!-- ZcashFoundation/zebra#2090 -->
<g id="node3" class="node open">
<title>ZcashFoundation/zebra#2090</title>
<g id="a_node3"><a xlink:href="https://github.com/ZcashFoundation/zebra/issues/2090" xlink:title="ZcashFoundation/zebra#2090&#10;Auto&#45;delete old Google&#10;Cloud instance templates" target="_blank">
<polygon fill="#c2e0c6" stroke="#000000" stroke-width="2" points="260,-61.5 28,-61.5 28,-8.5 260,-8.5 260,-61.5"/>
<text text-anchor="middle" x="144" y="-46.3" font-family="Times,serif" font-size="14.00" fill="#000000">ZcashFoundation/zebra#2090</text>
<text text-anchor="middle" x="144" y="-31.3" font-family="Times,serif" font-size="14.00" fill="#000000">Auto&#45;delete old Google</text>
<text text-anchor="middle" x="144" y="-16.3" font-family="Times,serif" font-size="14.00" fill="#000000">Cloud instance templates</text>
</a>
</g>
</g>
<!-- ZcashFoundation/zebra#4524 -->
<g id="node4" class="node open">
<title>ZcashFoundation/zebra#4524</title>
<g id="a_node4"><a xlink:href="https://github.com/ZcashFoundation/zebra/issues/4524" xlink:title="ZcashFoundation/zebra#4524&#10;Add `cargo doc`&#10;warnings/errors to CI" target="_blank">
<polygon fill="#c2e0c6" stroke="#000000" stroke-width="2" points="260,-319.5 28,-319.5 28,-266.5 260,-266.5 260,-319.5"/>
<text text-anchor="middle" x="144" y="-304.3" font-family="Times,serif" font-size="14.00" fill="#000000">ZcashFoundation/zebra#4524</text>
<text text-anchor="middle" x="144" y="-289.3" font-family="Times,serif" font-size="14.00" fill="#000000">Add `cargo doc`</text>
<text text-anchor="middle" x="144" y="-274.3" font-family="Times,serif" font-size="14.00" fill="#000000">warnings/errors to CI</text>
</a>
</g>
</g>
<!-- ZcashFoundation/zebra#1963 -->
<g id="node5" class="node open">
<title>ZcashFoundation/zebra#1963</title>
<g id="a_node5"><a xlink:href="https://github.com/ZcashFoundation/zebra/issues/1963" xlink:title="ZcashFoundation/zebra#1963&#10;Revise Release Process&#10;RFC Draft" target="_blank">
<polygon fill="#c2e0c6" stroke="#000000" stroke-width="2" points="260,-248.5 28,-248.5 28,-195.5 260,-195.5 260,-248.5"/>
<text text-anchor="middle" x="144" y="-233.3" font-family="Times,serif" font-size="14.00" fill="#000000">ZcashFoundation/zebra#1963</text>
<text text-anchor="middle" x="144" y="-218.3" font-family="Times,serif" font-size="14.00" fill="#000000">Revise Release Process</text>
<text text-anchor="middle" x="144" y="-203.3" font-family="Times,serif" font-size="14.00" fill="#000000">RFC Draft</text>
</a>
</g>
</g>
<!-- ZcashFoundation/zebra#3050 -->
<g id="node6" class="node open">
<title>ZcashFoundation/zebra#3050</title>
<g id="a_node6"><a xlink:href="https://github.com/ZcashFoundation/zebra/issues/3050" xlink:title="ZcashFoundation/zebra#3050&#10;Tag Zebra 1.0.0&#45;rc.0&#10;stable release candidate" target="_blank">
<polygon fill="#a7c2aa" stroke="#000000" points="548,-607.5 316,-607.5 316,-554.5 548,-554.5 548,-607.5"/>
<text text-anchor="middle" x="432" y="-592.3" font-family="Times,serif" font-size="14.00" fill="#000000">ZcashFoundation/zebra#3050</text>
<text text-anchor="middle" x="432" y="-577.3" font-family="Times,serif" font-size="14.00" fill="#000000">Tag Zebra 1.0.0&#45;rc.0</text>
<text text-anchor="middle" x="432" y="-562.3" font-family="Times,serif" font-size="14.00" fill="#000000">stable release candidate</text>
</a>
</g>
</g>
<!-- ZcashFoundation/zebra#4448 -->
<g id="node7" class="node open">
<title>ZcashFoundation/zebra#4448</title>
<g id="a_node7"><a xlink:href="https://github.com/ZcashFoundation/zebra/issues/4448" xlink:title="ZcashFoundation/zebra#4448&#10;Decide on supported&#10;platforms and test in CI" target="_blank">
<polygon fill="#c2e0c6" stroke="#000000" stroke-width="2" points="260,-607.5 28,-607.5 28,-554.5 260,-554.5 260,-607.5"/>
<text text-anchor="middle" x="144" y="-592.3" font-family="Times,serif" font-size="14.00" fill="#000000">ZcashFoundation/zebra#4448</text>
<text text-anchor="middle" x="144" y="-577.3" font-family="Times,serif" font-size="14.00" fill="#000000">Decide on supported</text>
<text text-anchor="middle" x="144" y="-562.3" font-family="Times,serif" font-size="14.00" fill="#000000">platforms and test in CI</text>
</a>
</g>
</g>
<!-- ZcashFoundation/zebra#4448&#45;&gt;ZcashFoundation/zebra#3050 -->
<g id="edge1" class="edge">
<title>ZcashFoundation/zebra#4448&#45;&gt;ZcashFoundation/zebra#3050</title>
<path fill="none" stroke="#000000" d="M260.31,-581C275.15,-581 290.4,-581 305.39,-581"/>
<polygon fill="#000000" stroke="#000000" points="305.72,-584.5001 315.72,-581 305.72,-577.5001 305.72,-584.5001"/>
</g>
<!-- ZcashFoundation/zebra#1894 -->
<g id="node8" class="node open">
<title>ZcashFoundation/zebra#1894</title>
<g id="a_node8"><a xlink:href="https://github.com/ZcashFoundation/zebra/issues/1894" xlink:title="ZcashFoundation/zebra#1894&#10;Zebra should follow OS&#10;directory conventions&#10;better" target="_blank">
<polygon fill="#c2e0c6" stroke="#000000" stroke-width="2" points="260,-507 28,-507 28,-439 260,-439 260,-507"/>
<text text-anchor="middle" x="144" y="-491.8" font-family="Times,serif" font-size="14.00" fill="#000000">ZcashFoundation/zebra#1894</text>
<text text-anchor="middle" x="144" y="-476.8" font-family="Times,serif" font-size="14.00" fill="#000000">Zebra should follow OS</text>
<text text-anchor="middle" x="144" y="-461.8" font-family="Times,serif" font-size="14.00" fill="#000000">directory conventions</text>
<text text-anchor="middle" x="144" y="-446.8" font-family="Times,serif" font-size="14.00" fill="#000000">better</text>
</a>
</g>
</g>
<!-- ZcashFoundation/zebra#3432 -->
<g id="node9" class="node open">
<title>ZcashFoundation/zebra#3432</title>
<g id="a_node9"><a xlink:href="https://github.com/ZcashFoundation/zebra/issues/3432" xlink:title="ZcashFoundation/zebra#3432&#10;Use the Filesystem&#10;Hierarchy Standard (FHS)&#10;for deployments and&#10;artifacts" target="_blank">
<polygon fill="#c2e0c6" stroke="#000000" points="548,-506.5 316,-506.5 316,-423.5 548,-423.5 548,-506.5"/>
<text text-anchor="middle" x="432" y="-491.3" font-family="Times,serif" font-size="14.00" fill="#000000">ZcashFoundation/zebra#3432</text>
<text text-anchor="middle" x="432" y="-476.3" font-family="Times,serif" font-size="14.00" fill="#000000">Use the Filesystem</text>
<text text-anchor="middle" x="432" y="-461.3" font-family="Times,serif" font-size="14.00" fill="#000000">Hierarchy Standard (FHS)</text>
<text text-anchor="middle" x="432" y="-446.3" font-family="Times,serif" font-size="14.00" fill="#000000">for deployments and</text>
<text text-anchor="middle" x="432" y="-431.3" font-family="Times,serif" font-size="14.00" fill="#000000">artifacts</text>
</a>
</g>
</g>
<!-- ZcashFoundation/zebra#1894&#45;&gt;ZcashFoundation/zebra#3432 -->
<g id="edge2" class="edge">
<title>ZcashFoundation/zebra#1894&#45;&gt;ZcashFoundation/zebra#3432</title>
<path fill="none" stroke="#000000" d="M260.31,-469.77C275.15,-469.36 290.4,-468.93 305.39,-468.52"/>
<polygon fill="#000000" stroke="#000000" points="305.8222,-472.0093 315.72,-468.23 305.6257,-465.0121 305.8222,-472.0093"/>
</g>
<!-- ZcashFoundation/zebra#1638 -->
<g id="node10" class="node open">
<title>ZcashFoundation/zebra#1638</title>
<g id="a_node10"><a xlink:href="https://github.com/ZcashFoundation/zebra/issues/1638" xlink:title="ZcashFoundation/zebra#1638&#10;Create PGP keys amongst&#10;security@zfnd.org" target="_blank">
<polygon fill="#c2e0c6" stroke="#000000" stroke-width="2" points="260,-420.5 28,-420.5 28,-367.5 260,-367.5 260,-420.5"/>
<text text-anchor="middle" x="144" y="-405.3" font-family="Times,serif" font-size="14.00" fill="#000000">ZcashFoundation/zebra#1638</text>
<text text-anchor="middle" x="144" y="-390.3" font-family="Times,serif" font-size="14.00" fill="#000000">Create PGP keys amongst</text>
<text text-anchor="middle" x="144" y="-375.3" font-family="Times,serif" font-size="14.00" fill="#000000">security@zfnd.org</text>
</a>
</g>
</g>
<!-- ZcashFoundation/zebra#4474 -->
<g id="node13" class="node open">
<title>ZcashFoundation/zebra#4474</title>
<g id="a_node13"><a xlink:href="https://github.com/ZcashFoundation/zebra/pull/4474" xlink:title="ZcashFoundation/zebra#4474&#10;fix(ci): Require full&#10;sync to reach 100%" target="_blank">
<polygon fill="#c2e0c6" stroke="#000000" stroke-width="2" points="260,-703.5 28,-703.5 28,-699.5 24,-699.5 24,-695.5 28,-695.5 28,-658.5 24,-658.5 24,-654.5 28,-654.5 28,-650.5 260,-650.5 260,-703.5"/>
<polyline fill="none" stroke="#000000" stroke-width="2" points="28,-699.5 32,-699.5 32,-695.5 28,-695.5 "/>
<polyline fill="none" stroke="#000000" stroke-width="2" points="28,-658.5 32,-658.5 32,-654.5 28,-654.5 "/>
<text text-anchor="middle" x="144" y="-688.3" font-family="Times,serif" font-size="14.00" fill="#000000">ZcashFoundation/zebra#4474</text>
<text text-anchor="middle" x="144" y="-673.3" font-family="Times,serif" font-size="14.00" fill="#000000">fix(ci): Require full</text>
<text text-anchor="middle" x="144" y="-658.3" font-family="Times,serif" font-size="14.00" fill="#000000">sync to reach 100%</text>
</a>
</g>
</g>
<!-- ZcashFoundation/zebra#4474&#45;&gt;ZcashFoundation/zebra#4554 -->
<g id="edge5" class="edge">
<title>ZcashFoundation/zebra#4474&#45;&gt;ZcashFoundation/zebra#4554</title>
<path fill="none" stroke="#000000" d="M260.31,-693.56C275.15,-695.67 290.4,-697.84 305.39,-699.98"/>
<polygon fill="#000000" stroke="#000000" points="305.3266,-703.5062 315.72,-701.45 306.3129,-696.576 305.3266,-703.5062"/>
</g>
</g>
</svg>
