<?xml version="1.0" encoding="UTF-8" standalone="no"?>
<?xml-stylesheet href="zcash-dag.css" type="text/css"?>
<!DOCTYPE svg PUBLIC "-//W3C//DTD SVG 1.1//EN"
 "http://www.w3.org/Graphics/SVG/1.1/DTD/svg11.dtd">
<!-- Generated by graphviz version 2.40.1 (20161225.0304)
 -->
<!-- Pages: 1 -->
<svg width="783pt" height="1074pt"
 viewBox="0.00 0.00 783.00 1074.00" xmlns="http://www.w3.org/2000/svg" xmlns:xlink="http://www.w3.org/1999/xlink">
<g id="graph0" class="graph" transform="scale(1 1) rotate(0) translate(4 1070)">
<polygon fill="#ffffff" stroke="transparent" points="-4,4 -4,-1070 779,-1070 779,4 -4,4"/>
<g id="clust1" class="cluster">
<title>cluster_0</title>
<polygon fill="none" stroke="#0000ff" points="289,-261.5 289,-368.5 522,-368.5 522,-261.5 289,-261.5"/>
<text text-anchor="middle" x="405.5" y="-353.3" font-family="Times,serif" font-size="14.00" fill="#000000">Epic: FROST Audit</text>
</g>
<g id="clust2" class="cluster">
<title>cluster_1</title>
<polygon fill="none" stroke="#0000ff" points="18,-433.5 18,-911.5 775,-911.5 775,-433.5 18,-433.5"/>
<text text-anchor="middle" x="396.5" y="-896.3" font-family="Times,serif" font-size="14.00" fill="#000000">Epic: FROST Proof of Concept/Prototype and Documentation</text>
</g>
<g id="clust3" class="cluster">
<title>cluster_2</title>
<polygon fill="none" stroke="#0000ff" points="18,-919.5 18,-1012.5 252,-1012.5 252,-919.5 18,-919.5"/>
<text text-anchor="middle" x="135" y="-997.3" font-family="Times,serif" font-size="14.00" fill="#000000">Epic: Re&#45;randomizable FROST</text>
</g>
<g id="clust4" class="cluster">
<title>cluster_3</title>
<polygon fill="none" stroke="#0000ff" points="0,-62.5 0,-425.5 269,-425.5 269,-62.5 0,-62.5"/>
<text text-anchor="middle" x="134.5" y="-410.3" font-family="Times,serif" font-size="14.00" fill="#000000">Epic: Prep crates / APIs for release</text>
</g>
<!-- ZcashFoundation/frost#235 -->
<g id="node1" class="node open">
<title>ZcashFoundation/frost#235</title>
<g id="a_node1"><a xlink:href="https://github.com/ZcashFoundation/frost/issues/235" xlink:title="ZcashFoundation/frost#235&#10;Tag a `frost` release&#10;based on the final&#10;version of the spec" target="_blank">
<polygon fill="#c2e0c6" stroke="#000000" points="514,-337.5 297,-337.5 297,-269.5 514,-269.5 514,-337.5"/>
<text text-anchor="middle" x="405.5" y="-322.3" font-family="Times,serif" font-size="14.00" fill="#000000">ZcashFoundation/frost#235</text>
<text text-anchor="middle" x="405.5" y="-307.3" font-family="Times,serif" font-size="14.00" fill="#000000">Tag a `frost` release</text>
<text text-anchor="middle" x="405.5" y="-292.3" font-family="Times,serif" font-size="14.00" fill="#000000">based on the final</text>
<text text-anchor="middle" x="405.5" y="-277.3" font-family="Times,serif" font-size="14.00" fill="#000000">version of the spec</text>
</a>
</g>
</g>
<!-- ZcashFoundation/frost#238 -->
<g id="node2" class="node open">
<title>ZcashFoundation/frost#238</title>
<g id="a_node2"><a xlink:href="https://github.com/ZcashFoundation/frost/issues/238" xlink:title="ZcashFoundation/frost#238&#10;Demo for Trusted Dealer&#10;key share generation" target="_blank">
<polygon fill="#c2e0c6" stroke="#000000" stroke-width="2" points="243,-880 26,-880 26,-827 243,-827 243,-880"/>
<text text-anchor="middle" x="134.5" y="-864.8" font-family="Times,serif" font-size="14.00" fill="#000000">ZcashFoundation/frost#238</text>
<text text-anchor="middle" x="134.5" y="-849.8" font-family="Times,serif" font-size="14.00" fill="#000000">Demo for Trusted Dealer</text>
<text text-anchor="middle" x="134.5" y="-834.8" font-family="Times,serif" font-size="14.00" fill="#000000">key share generation</text>
</a>
</g>
</g>
<!-- ZcashFoundation/frost#239 -->
<g id="node3" class="node open">
<title>ZcashFoundation/frost#239</title>
<g id="a_node3"><a xlink:href="https://github.com/ZcashFoundation/frost/issues/239" xlink:title="ZcashFoundation/frost#239&#10;Demo for Signature&#10;generation: Participant&#10;CLI" target="_blank">
<polygon fill="#c2e0c6" stroke="#000000" points="514,-880.5 297,-880.5 297,-812.5 514,-812.5 514,-880.5"/>
<text text-anchor="middle" x="405.5" y="-865.3" font-family="Times,serif" font-size="14.00" fill="#000000">ZcashFoundation/frost#239</text>
<text text-anchor="middle" x="405.5" y="-850.3" font-family="Times,serif" font-size="14.00" fill="#000000">Demo for Signature</text>
<text text-anchor="middle" x="405.5" y="-835.3" font-family="Times,serif" font-size="14.00" fill="#000000">generation: Participant</text>
<text text-anchor="middle" x="405.5" y="-820.3" font-family="Times,serif" font-size="14.00" fill="#000000">CLI</text>
</a>
</g>
</g>
<!-- ZcashFoundation/frost#238&#45;&gt;ZcashFoundation/frost#239 -->
<g id="edge1" class="edge">
<title>ZcashFoundation/frost#238&#45;&gt;ZcashFoundation/frost#239</title>
<path fill="none" stroke="#000000" d="M243.16,-850.69C257.52,-850.32 272.3,-849.94 286.81,-849.57"/>
<polygon fill="#000000" stroke="#000000" points="286.9044,-853.0688 296.81,-849.31 286.7224,-846.0712 286.9044,-853.0688"/>
</g>
<!-- ZcashFoundation/frost#249 -->
<g id="node4" class="node open">
<title>ZcashFoundation/frost#249</title>
<g id="a_node4"><a xlink:href="https://github.com/ZcashFoundation/frost/issues/249" xlink:title="ZcashFoundation/frost#249&#10;Demo for Signature&#10;generation: Coordinator&#10;CLI" target="_blank">
<polygon fill="#c2e0c6" stroke="#000000" points="767,-880.5 550,-880.5 550,-812.5 767,-812.5 767,-880.5"/>
<text text-anchor="middle" x="658.5" y="-865.3" font-family="Times,serif" font-size="14.00" fill="#000000">ZcashFoundation/frost#249</text>
<text text-anchor="middle" x="658.5" y="-850.3" font-family="Times,serif" font-size="14.00" fill="#000000">Demo for Signature</text>
<text text-anchor="middle" x="658.5" y="-835.3" font-family="Times,serif" font-size="14.00" fill="#000000">generation: Coordinator</text>
<text text-anchor="middle" x="658.5" y="-820.3" font-family="Times,serif" font-size="14.00" fill="#000000">CLI</text>
</a>
</g>
</g>
<!-- ZcashFoundation/frost#239&#45;&gt;ZcashFoundation/frost#249 -->
<g id="edge2" class="edge">
<title>ZcashFoundation/frost#239&#45;&gt;ZcashFoundation/frost#249</title>
<path fill="none" stroke="#000000" d="M514.26,-846.5C522.64,-846.5 531.13,-846.5 539.57,-846.5"/>
<polygon fill="#000000" stroke="#000000" points="539.83,-850.0001 549.83,-846.5 539.83,-843.0001 539.83,-850.0001"/>
</g>
<!-- ZcashFoundation/frost#240 -->
<g id="node5" class="node open">
<title>ZcashFoundation/frost#240</title>
<g id="a_node5"><a xlink:href="https://github.com/ZcashFoundation/frost/issues/240" xlink:title="ZcashFoundation/frost#240&#10;Demo for Signature&#10;verification" target="_blank">
<polygon fill="#c2e0c6" stroke="#000000" stroke-width="2" points="243,-809 26,-809 26,-756 243,-756 243,-809"/>
<text text-anchor="middle" x="134.5" y="-793.8" font-family="Times,serif" font-size="14.00" fill="#000000">ZcashFoundation/frost#240</text>
<text text-anchor="middle" x="134.5" y="-778.8" font-family="Times,serif" font-size="14.00" fill="#000000">Demo for Signature</text>
<text text-anchor="middle" x="134.5" y="-763.8" font-family="Times,serif" font-size="14.00" fill="#000000">verification</text>
</a>
</g>
</g>
<!-- ZcashFoundation/frost#252 -->
<g id="node6" class="node open">
<title>ZcashFoundation/frost#252</title>
<g id="a_node6"><a xlink:href="https://github.com/ZcashFoundation/frost/issues/252" xlink:title="ZcashFoundation/frost#252&#10;Demo for Distributed Key&#10;Generation (DKG)" target="_blank">
<polygon fill="#c2e0c6" stroke="#000000" stroke-width="2" points="243,-738 26,-738 26,-685 243,-685 243,-738"/>
<text text-anchor="middle" x="134.5" y="-722.8" font-family="Times,serif" font-size="14.00" fill="#000000">ZcashFoundation/frost#252</text>
<text text-anchor="middle" x="134.5" y="-707.8" font-family="Times,serif" font-size="14.00" fill="#000000">Demo for Distributed Key</text>
<text text-anchor="middle" x="134.5" y="-692.8" font-family="Times,serif" font-size="14.00" fill="#000000">Generation (DKG)</text>
</a>
</g>
</g>
<!-- ZcashFoundation/frost#242 -->
<g id="node7" class="node open">
<title>ZcashFoundation/frost#242</title>
<g id="a_node7"><a xlink:href="https://github.com/ZcashFoundation/frost/issues/242" xlink:title="ZcashFoundation/frost#242&#10;Implement broadcast&#10;channel for FROST PoC" target="_blank">
<polygon fill="#c2e0c6" stroke="#000000" stroke-width="2" points="243,-667 26,-667 26,-614 243,-614 243,-667"/>
<text text-anchor="middle" x="134.5" y="-651.8" font-family="Times,serif" font-size="14.00" fill="#000000">ZcashFoundation/frost#242</text>
<text text-anchor="middle" x="134.5" y="-636.8" font-family="Times,serif" font-size="14.00" fill="#000000">Implement broadcast</text>
<text text-anchor="middle" x="134.5" y="-621.8" font-family="Times,serif" font-size="14.00" fill="#000000">channel for FROST PoC</text>
</a>
</g>
</g>
<!-- ZcashFoundation/frost#251 -->
<g id="node8" class="node open">
<title>ZcashFoundation/frost#251</title>
<g id="a_node8"><a xlink:href="https://github.com/ZcashFoundation/frost/issues/251" xlink:title="ZcashFoundation/frost#251&#10;Publish FROST API&#10;reference docs to&#10;doc.frost.zfnd.org" target="_blank">
<polygon fill="#c2e0c6" stroke="#000000" stroke-width="2" points="243,-595.5 26,-595.5 26,-527.5 243,-527.5 243,-595.5"/>
<text text-anchor="middle" x="134.5" y="-580.3" font-family="Times,serif" font-size="14.00" fill="#000000">ZcashFoundation/frost#251</text>
<text text-anchor="middle" x="134.5" y="-565.3" font-family="Times,serif" font-size="14.00" fill="#000000">Publish FROST API</text>
<text text-anchor="middle" x="134.5" y="-550.3" font-family="Times,serif" font-size="14.00" fill="#000000">reference docs to</text>
<text text-anchor="middle" x="134.5" y="-535.3" font-family="Times,serif" font-size="14.00" fill="#000000">doc.frost.zfnd.org</text>
</a>
</g>
</g>
<!-- ZcashFoundation/frost#241 -->
<g id="node9" class="node open">
<title>ZcashFoundation/frost#241</title>
<g id="a_node9"><a xlink:href="https://github.com/ZcashFoundation/frost/issues/241" xlink:title="ZcashFoundation/frost#241&#10;Generate and publish&#10;documentation for&#10;`frost&#45;*` crates" target="_blank">
<polygon fill="#c2e0c6" stroke="#000000" stroke-width="2" points="243,-509.5 26,-509.5 26,-441.5 243,-441.5 243,-509.5"/>
<text text-anchor="middle" x="134.5" y="-494.3" font-family="Times,serif" font-size="14.00" fill="#000000">ZcashFoundation/frost#241</text>
<text text-anchor="middle" x="134.5" y="-479.3" font-family="Times,serif" font-size="14.00" fill="#000000">Generate and publish</text>
<text text-anchor="middle" x="134.5" y="-464.3" font-family="Times,serif" font-size="14.00" fill="#000000">documentation for</text>
<text text-anchor="middle" x="134.5" y="-449.3" font-family="Times,serif" font-size="14.00" fill="#000000">`frost&#45;*` crates</text>
</a>
</g>
</g>
<!-- ZcashFoundation/frost#216 -->
<g id="node10" class="node open">
<title>ZcashFoundation/frost#216</title>
<g id="a_node10"><a xlink:href="https://github.com/ZcashFoundation/frost/issues/216" xlink:title="ZcashFoundation/frost#216&#10;Write security proof for&#10;Rerandomized FROST" target="_blank">
<polygon fill="#c2e0c6" stroke="#000000" stroke-width="2" points="243,-981 26,-981 26,-928 243,-928 243,-981"/>
<text text-anchor="middle" x="134.5" y="-965.8" font-family="Times,serif" font-size="14.00" fill="#000000">ZcashFoundation/frost#216</text>
<text text-anchor="middle" x="134.5" y="-950.8" font-family="Times,serif" font-size="14.00" fill="#000000">Write security proof for</text>
<text text-anchor="middle" x="134.5" y="-935.8" font-family="Times,serif" font-size="14.00" fill="#000000">Rerandomized FROST</text>
</a>
</g>
</g>
<!-- ZcashFoundation/frost#189 -->
<g id="node11" class="node open">
<title>ZcashFoundation/frost#189</title>
<g id="a_node11"><a xlink:href="https://github.com/ZcashFoundation/frost/issues/189" xlink:title="ZcashFoundation/frost#189&#10;Updated release drafter&#10;config to match zebrad&#39;s" target="_blank">
<polygon fill="#c2e0c6" stroke="#000000" stroke-width="2" points="243,-394 26,-394 26,-341 243,-341 243,-394"/>
<text text-anchor="middle" x="134.5" y="-378.8" font-family="Times,serif" font-size="14.00" fill="#000000">ZcashFoundation/frost#189</text>
<text text-anchor="middle" x="134.5" y="-363.8" font-family="Times,serif" font-size="14.00" fill="#000000">Updated release drafter</text>
<text text-anchor="middle" x="134.5" y="-348.8" font-family="Times,serif" font-size="14.00" fill="#000000">config to match zebrad&#39;s</text>
</a>
</g>
</g>
<!-- ZcashFoundation/frost#189&#45;&gt;ZcashFoundation/frost#235 -->
<g id="edge3" class="edge">
<title>ZcashFoundation/frost#189&#45;&gt;ZcashFoundation/frost#235</title>
<path fill="none" stroke="#000000" d="M243.16,-341.84C257.52,-338.45 272.3,-334.96 286.81,-331.53"/>
<polygon fill="#000000" stroke="#000000" points="287.8813,-334.8734 296.81,-329.17 286.2734,-328.0606 287.8813,-334.8734"/>
</g>
<!-- ZcashFoundation/frost#190 -->
<g id="node12" class="node open">
<title>ZcashFoundation/frost#190</title>
<g id="a_node12"><a xlink:href="https://github.com/ZcashFoundation/frost/issues/190" xlink:title="ZcashFoundation/frost#190&#10;Write a release checklist" target="_blank">
<polygon fill="#c2e0c6" stroke="#000000" stroke-width="2" points="243,-322.5 26,-322.5 26,-284.5 243,-284.5 243,-322.5"/>
<text text-anchor="middle" x="134.5" y="-307.3" font-family="Times,serif" font-size="14.00" fill="#000000">ZcashFoundation/frost#190</text>
<text text-anchor="middle" x="134.5" y="-292.3" font-family="Times,serif" font-size="14.00" fill="#000000">Write a release checklist</text>
</a>
</g>
</g>
<!-- ZcashFoundation/frost#190&#45;&gt;ZcashFoundation/frost#235 -->
<g id="edge4" class="edge">
<title>ZcashFoundation/frost#190&#45;&gt;ZcashFoundation/frost#235</title>
<path fill="none" stroke="#000000" d="M243.16,-303.5C257.38,-303.5 272.01,-303.5 286.39,-303.5"/>
<polygon fill="#000000" stroke="#000000" points="286.81,-307.0001 296.81,-303.5 286.81,-300.0001 286.81,-307.0001"/>
</g>
<!-- ZcashFoundation/frost#79 -->
<g id="node13" class="node open">
<title>ZcashFoundation/frost#79</title>
<g id="a_node13"><a xlink:href="https://github.com/ZcashFoundation/frost/issues/79" xlink:title="ZcashFoundation/frost#79&#10;Publish `frost&#45;` crates" target="_blank">
<polygon fill="#c2e0c6" stroke="#000000" stroke-width="2" points="238.5,-266.5 30.5,-266.5 30.5,-228.5 238.5,-228.5 238.5,-266.5"/>
<text text-anchor="middle" x="134.5" y="-251.3" font-family="Times,serif" font-size="14.00" fill="#000000">ZcashFoundation/frost#79</text>
<text text-anchor="middle" x="134.5" y="-236.3" font-family="Times,serif" font-size="14.00" fill="#000000">Publish `frost&#45;` crates</text>
</a>
</g>
</g>
<!-- ZcashFoundation/frost#243 -->
<g id="node14" class="node open">
<title>ZcashFoundation/frost#243</title>
<g id="a_node14"><a xlink:href="https://github.com/ZcashFoundation/frost/issues/243" xlink:title="ZcashFoundation/frost#243&#10;Publish FROST&#10;documentation to&#10;frost.zfnd.org" target="_blank">
<polygon fill="#c2e0c6" stroke="#000000" stroke-width="2" points="243,-210.5 26,-210.5 26,-142.5 243,-142.5 243,-210.5"/>
<text text-anchor="middle" x="134.5" y="-195.3" font-family="Times,serif" font-size="14.00" fill="#000000">ZcashFoundation/frost#243</text>
<text text-anchor="middle" x="134.5" y="-180.3" font-family="Times,serif" font-size="14.00" fill="#000000">Publish FROST</text>
<text text-anchor="middle" x="134.5" y="-165.3" font-family="Times,serif" font-size="14.00" fill="#000000">documentation to</text>
<text text-anchor="middle" x="134.5" y="-150.3" font-family="Times,serif" font-size="14.00" fill="#000000">frost.zfnd.org</text>
</a>
</g>
</g>
<!-- ZcashFoundation/frost#166 -->
<g id="node15" class="node open">
<title>ZcashFoundation/frost#166</title>
<g id="a_node15"><a xlink:href="https://github.com/ZcashFoundation/frost/issues/166" xlink:title="ZcashFoundation/frost#166&#10;Squat crate names on&#10;crates.io" target="_blank">
<polygon fill="#c2e0c6" stroke="#000000" stroke-width="2" points="243,-124 26,-124 26,-71 243,-71 243,-124"/>
<text text-anchor="middle" x="134.5" y="-108.8" font-family="Times,serif" font-size="14.00" fill="#000000">ZcashFoundation/frost#166</text>
<text text-anchor="middle" x="134.5" y="-93.8" font-family="Times,serif" font-size="14.00" fill="#000000">Squat crate names on</text>
<text text-anchor="middle" x="134.5" y="-78.8" font-family="Times,serif" font-size="14.00" fill="#000000">crates.io</text>
</a>
</g>
</g>
<!-- ZcashFoundation/frost#250 -->
<g id="node16" class="node open">
<title>ZcashFoundation/frost#250</title>
<g id="a_node16"><a xlink:href="https://github.com/ZcashFoundation/frost/pull/250" xlink:title="ZcashFoundation/frost#250&#10;Start FROST book" target="_blank">
<polygon fill="#c2e0c6" stroke="#000000" stroke-width="2" points="243,-1058.5 26,-1058.5 26,-1054.5 22,-1054.5 22,-1050.5 26,-1050.5 26,-1028.5 22,-1028.5 22,-1024.5 26,-1024.5 26,-1020.5 243,-1020.5 243,-1058.5"/>
<polyline fill="none" stroke="#000000" stroke-width="2" points="26,-1054.5 30,-1054.5 30,-1050.5 26,-1050.5 "/>
<polyline fill="none" stroke="#000000" stroke-width="2" points="26,-1028.5 30,-1028.5 30,-1024.5 26,-1024.5 "/>
<text text-anchor="middle" x="134.5" y="-1043.3" font-family="Times,serif" font-size="14.00" fill="#000000">ZcashFoundation/frost#250</text>
<text text-anchor="middle" x="134.5" y="-1028.3" font-family="Times,serif" font-size="14.00" fill="#000000">Start FROST book</text>
</a>
</g>
</g>
<!-- ZcashFoundation/frost#244 -->
<g id="node17" class="node closed">
<title>ZcashFoundation/frost#244</title>
<g id="a_node17"><a xlink:href="https://github.com/ZcashFoundation/frost/pull/244" xlink:title="ZcashFoundation/frost#244&#10;List of dependencies for&#10;audit" target="_blank">
<polygon fill="#fad8c7" stroke="#000000" points="514,-1066 297,-1066 297,-1062 293,-1062 293,-1058 297,-1058 297,-1021 293,-1021 293,-1017 297,-1017 297,-1013 514,-1013 514,-1066"/>
<polyline fill="none" stroke="#000000" points="297,-1062 301,-1062 301,-1058 297,-1058 "/>
<polyline fill="none" stroke="#000000" points="297,-1021 301,-1021 301,-1017 297,-1017 "/>
<text text-anchor="middle" x="405.5" y="-1050.8" font-family="Times,serif" font-size="14.00" fill="#000000">ZcashFoundation/frost#244</text>
<text text-anchor="middle" x="405.5" y="-1035.8" font-family="Times,serif" font-size="14.00" fill="#000000">List of dependencies for</text>
<text text-anchor="middle" x="405.5" y="-1020.8" font-family="Times,serif" font-size="14.00" fill="#000000">audit</text>
</a>
</g>
</g>
<!-- ZcashFoundation/frost#250&#45;&gt;ZcashFoundation/frost#244 -->
<g id="edge5" class="edge">
<title>ZcashFoundation/frost#250&#45;&gt;ZcashFoundation/frost#244</title>
<path fill="none" stroke="#000000" d="M243.16,-1039.5C257.38,-1039.5 272.01,-1039.5 286.39,-1039.5"/>
<polygon fill="#000000" stroke="#000000" points="286.81,-1043.0001 296.81,-1039.5 286.81,-1036.0001 286.81,-1043.0001"/>
</g>
<!-- ZcashFoundation/frost#215 -->
<g id="node18" class="node open">
<title>ZcashFoundation/frost#215</title>
<g id="a_node18"><a xlink:href="https://github.com/ZcashFoundation/frost/pull/215" xlink:title="ZcashFoundation/frost#215&#10;Update p256 requirement&#10;from 0.11.1 to 0.12.0" target="_blank">
<polygon fill="#c2e0c6" stroke="#000000" stroke-width="2" points="243,-53 26,-53 26,-49 22,-49 22,-45 26,-45 26,-8 22,-8 22,-4 26,-4 26,0 243,0 243,-53"/>
<polyline fill="none" stroke="#000000" stroke-width="2" points="26,-49 30,-49 30,-45 26,-45 "/>
<polyline fill="none" stroke="#000000" stroke-width="2" points="26,-8 30,-8 30,-4 26,-4 "/>
<text text-anchor="middle" x="134.5" y="-37.8" font-family="Times,serif" font-size="14.00" fill="#000000">ZcashFoundation/frost#215</text>
<text text-anchor="middle" x="134.5" y="-22.8" font-family="Times,serif" font-size="14.00" fill="#000000">Update p256 requirement</text>
<text text-anchor="middle" x="134.5" y="-7.8" font-family="Times,serif" font-size="14.00" fill="#000000">from 0.11.1 to 0.12.0</text>
</a>
</g>
</g>
<!-- ZcashFoundation/frost#215&#45;&gt;ZcashFoundation/frost#235 -->
<g id="edge6" class="edge">
<title>ZcashFoundation/frost#215&#45;&gt;ZcashFoundation/frost#235</title>
<path fill="none" stroke="#000000" d="M243.15,-43.731C252.37,-47.702 261.15,-52.56 269,-58.5 336.38,-109.52 375.14,-203.99 393.12,-259.53"/>
<polygon fill="#000000" stroke="#000000" points="389.7883,-260.6028 396.13,-269.09 396.4652,-258.5005 389.7883,-260.6028"/>
</g>
</g>
</svg>
