<?xml version="1.0" encoding="UTF-8" standalone="no"?>
<?xml-stylesheet href="zcash-dag.css" type="text/css"?>
<!DOCTYPE svg PUBLIC "-//W3C//DTD SVG 1.1//EN"
 "http://www.w3.org/Graphics/SVG/1.1/DTD/svg11.dtd">
<!-- Generated by graphviz version 2.40.1 (20161225.0304)
 -->
<!-- Pages: 1 -->
<svg width="824pt" height="1370pt"
 viewBox="0.00 0.00 824.00 1370.00" xmlns="http://www.w3.org/2000/svg" xmlns:xlink="http://www.w3.org/1999/xlink">
<g id="graph0" class="graph" transform="scale(1 1) rotate(0) translate(4 1366)">
<polygon fill="#ffffff" stroke="transparent" points="-4,4 -4,-1366 820,-1366 820,4 -4,4"/>
<g id="clust1" class="cluster">
<title>cluster_1</title>
<polygon fill="none" stroke="#0000ff" points="0,-508 0,-1362 536,-1362 536,-508 0,-508"/>
<text text-anchor="middle" x="268" y="-1346.8" font-family="Times,serif" font-size="14.00" fill="#000000">DevOps Ticket Tracker</text>
</g>
<g id="clust2" class="cluster">
<title>cluster_2</title>
<polygon fill="none" stroke="#0000ff" points="268,0 268,-107 556,-107 556,0 268,0"/>
<text text-anchor="middle" x="412" y="-91.8" font-family="Times,serif" font-size="14.00" fill="#000000">Epic: Zebra as a lightwalletd backend</text>
</g>
<g id="clust3" class="cluster">
<title>cluster_0</title>
<polygon fill="none" stroke="#0000ff" points="288,-163 288,-500 536,-500 536,-163 288,-163"/>
<text text-anchor="middle" x="412" y="-484.8" font-family="Times,serif" font-size="14.00" fill="#000000">Epic: Zebra Release Candidates</text>
</g>
<!-- ZcashFoundation/zebra#4953 -->
<g id="node1" class="node open">
<title>ZcashFoundation/zebra#4953</title>
<g id="a_node1"><a xlink:href="https://github.com/ZcashFoundation/zebra/issues/4953" xlink:title="ZcashFoundation/zebra#4953&#10;Document how to use&#10;released Zebra binaries" target="_blank">
<polygon fill="#c2e0c6" stroke="#000000" stroke-width="2" points="240,-1101.5 8,-1101.5 8,-1048.5 240,-1048.5 240,-1101.5"/>
<text text-anchor="middle" x="124" y="-1086.3" font-family="Times,serif" font-size="14.00" fill="#000000">ZcashFoundation/zebra#4953</text>
<text text-anchor="middle" x="124" y="-1071.3" font-family="Times,serif" font-size="14.00" fill="#000000">Document how to use</text>
<text text-anchor="middle" x="124" y="-1056.3" font-family="Times,serif" font-size="14.00" fill="#000000">released Zebra binaries</text>
</a>
</g>
</g>
<!-- ZcashFoundation/zebra#1615 -->
<g id="node14" class="node open">
<title>ZcashFoundation/zebra#1615</title>
<g id="a_node14"><a xlink:href="https://github.com/ZcashFoundation/zebra/issues/1615" xlink:title="ZcashFoundation/zebra#1615&#10;Zebra release candidate&#10;binaries should be linked&#10;from ZFND website" target="_blank">
<polygon fill="#a7c2aa" stroke="#000000" points="528,-397 296,-397 296,-329 528,-329 528,-397"/>
<text text-anchor="middle" x="412" y="-381.8" font-family="Times,serif" font-size="14.00" fill="#000000">ZcashFoundation/zebra#1615</text>
<text text-anchor="middle" x="412" y="-366.8" font-family="Times,serif" font-size="14.00" fill="#000000">Zebra release candidate</text>
<text text-anchor="middle" x="412" y="-351.8" font-family="Times,serif" font-size="14.00" fill="#000000">binaries should be linked</text>
<text text-anchor="middle" x="412" y="-336.8" font-family="Times,serif" font-size="14.00" fill="#000000">from ZFND website</text>
</a>
</g>
</g>
<!-- ZcashFoundation/zebra#4953&#45;&gt;ZcashFoundation/zebra#1615 -->
<g id="edge3" class="edge">
<title>ZcashFoundation/zebra#4953&#45;&gt;ZcashFoundation/zebra#1615</title>
<path fill="none" stroke="#000000" d="M231.42,-1048.1C234.54,-1045.4 237.42,-1042.3 240,-1039 283,-983.26 224.7,-461.51 268,-406 273.42,-399.05 279.92,-393.19 287.11,-388.24"/>
<polygon fill="#000000" stroke="#000000" points="289.1814,-391.0748 295.86,-382.85 285.5101,-385.1148 289.1814,-391.0748"/>
</g>
<!-- ZcashFoundation/zebra#1963 -->
<g id="node2" class="node open">
<title>ZcashFoundation/zebra#1963</title>
<g id="a_node2"><a xlink:href="https://github.com/ZcashFoundation/zebra/issues/1963" xlink:title="ZcashFoundation/zebra#1963&#10;Work out how to release&#10;Zebra binaries" target="_blank">
<polygon fill="#c2e0c6" stroke="#000000" stroke-width="2" points="240,-1330.5 8,-1330.5 8,-1277.5 240,-1277.5 240,-1330.5"/>
<text text-anchor="middle" x="124" y="-1315.3" font-family="Times,serif" font-size="14.00" fill="#000000">ZcashFoundation/zebra#1963</text>
<text text-anchor="middle" x="124" y="-1300.3" font-family="Times,serif" font-size="14.00" fill="#000000">Work out how to release</text>
<text text-anchor="middle" x="124" y="-1285.3" font-family="Times,serif" font-size="14.00" fill="#000000">Zebra binaries</text>
</a>
</g>
</g>
<!-- ZcashFoundation/zebra#4954 -->
<g id="node3" class="node open">
<title>ZcashFoundation/zebra#4954</title>
<g id="a_node3"><a xlink:href="https://github.com/ZcashFoundation/zebra/issues/4954" xlink:title="ZcashFoundation/zebra#4954&#10;Update release checklist&#10;PR template for the&#10;release candidate series" target="_blank">
<polygon fill="#c2e0c6" stroke="#000000" points="528,-915 296,-915 296,-847 528,-847 528,-915"/>
<text text-anchor="middle" x="412" y="-899.8" font-family="Times,serif" font-size="14.00" fill="#000000">ZcashFoundation/zebra#4954</text>
<text text-anchor="middle" x="412" y="-884.8" font-family="Times,serif" font-size="14.00" fill="#000000">Update release checklist</text>
<text text-anchor="middle" x="412" y="-869.8" font-family="Times,serif" font-size="14.00" fill="#000000">PR template for the</text>
<text text-anchor="middle" x="412" y="-854.8" font-family="Times,serif" font-size="14.00" fill="#000000">release candidate series</text>
</a>
</g>
</g>
<!-- ZcashFoundation/zebra#1963&#45;&gt;ZcashFoundation/zebra#4954 -->
<g id="edge1" class="edge">
<title>ZcashFoundation/zebra#1963&#45;&gt;ZcashFoundation/zebra#4954</title>
<path fill="none" stroke="#000000" d="M227.54,-1277.3C231.95,-1274.5 236.14,-1271.4 240,-1268 344.78,-1174.8 388.9,-1005.7 404.59,-925.52"/>
<polygon fill="#000000" stroke="#000000" points="408.1092,-925.7465 406.53,-915.27 401.2313,-924.4447 408.1092,-925.7465"/>
</g>
<!-- ZcashFoundation/zebra#4412 -->
<g id="node4" class="node open">
<title>ZcashFoundation/zebra#4412</title>
<g id="a_node4"><a xlink:href="https://github.com/ZcashFoundation/zebra/issues/4412" xlink:title="ZcashFoundation/zebra#4412&#10;Automate pinning CI&#10;dependencies to specific&#10;commit hashes" target="_blank">
<polygon fill="#c2e0c6" stroke="#000000" points="528,-1331 296,-1331 296,-1263 528,-1263 528,-1331"/>
<text text-anchor="middle" x="412" y="-1315.8" font-family="Times,serif" font-size="14.00" fill="#000000">ZcashFoundation/zebra#4412</text>
<text text-anchor="middle" x="412" y="-1300.8" font-family="Times,serif" font-size="14.00" fill="#000000">Automate pinning CI</text>
<text text-anchor="middle" x="412" y="-1285.8" font-family="Times,serif" font-size="14.00" fill="#000000">dependencies to specific</text>
<text text-anchor="middle" x="412" y="-1270.8" font-family="Times,serif" font-size="14.00" fill="#000000">commit hashes</text>
</a>
</g>
</g>
<!-- ZcashFoundation/zebra#1963&#45;&gt;ZcashFoundation/zebra#4412 -->
<g id="edge2" class="edge">
<title>ZcashFoundation/zebra#1963&#45;&gt;ZcashFoundation/zebra#4412</title>
<path fill="none" stroke="#000000" d="M240.31,-1301.2C255.15,-1300.8 270.4,-1300.4 285.39,-1300.1"/>
<polygon fill="#000000" stroke="#000000" points="285.8259,-1303.5889 295.72,-1299.8 285.6226,-1296.5919 285.8259,-1303.5889"/>
</g>
<!-- ZcashFoundation/zebra#755 -->
<g id="node18" class="node closed">
<title>ZcashFoundation/zebra#755</title>
<g id="a_node18"><a xlink:href="https://github.com/ZcashFoundation/zebra/issues/755" xlink:title="ZcashFoundation/zebra#755&#10;Automate zebrad releases" target="_blank">
<polygon fill="#fad8c7" stroke="#000000" points="523.5,-153 300.5,-153 300.5,-115 523.5,-115 523.5,-153"/>
<text text-anchor="middle" x="412" y="-137.8" font-family="Times,serif" font-size="14.00" fill="#000000">ZcashFoundation/zebra#755</text>
<text text-anchor="middle" x="412" y="-122.8" font-family="Times,serif" font-size="14.00" fill="#000000">Automate zebrad releases</text>
</a>
</g>
</g>
<!-- ZcashFoundation/zebra#1963&#45;&gt;ZcashFoundation/zebra#755 -->
<g id="edge4" class="edge">
<title>ZcashFoundation/zebra#1963&#45;&gt;ZcashFoundation/zebra#755</title>
<path fill="none" stroke="#000000" d="M231.5,-1277.2C234.6,-1274.4 237.46,-1271.4 240,-1268 314.36,-1169.7 187.46,-252.31 268,-159 274.46,-151.52 282.29,-145.73 290.92,-141.3"/>
<polygon fill="#000000" stroke="#000000" points="292.4865,-144.4337 300.19,-137.16 289.6319,-138.0421 292.4865,-144.4337"/>
</g>
<!-- ZcashFoundation/zebra#3050 -->
<g id="node15" class="node open">
<title>ZcashFoundation/zebra#3050</title>
<g id="a_node15"><a xlink:href="https://github.com/ZcashFoundation/zebra/issues/3050" xlink:title="ZcashFoundation/zebra#3050&#10;Tag Zebra 1.0.0&#45;rc.0&#10;stable release candidate" target="_blank">
<polygon fill="#a7c2aa" stroke="#000000" points="528,-468.5 296,-468.5 296,-415.5 528,-415.5 528,-468.5"/>
<text text-anchor="middle" x="412" y="-453.3" font-family="Times,serif" font-size="14.00" fill="#000000">ZcashFoundation/zebra#3050</text>
<text text-anchor="middle" x="412" y="-438.3" font-family="Times,serif" font-size="14.00" fill="#000000">Tag Zebra 1.0.0&#45;rc.0</text>
<text text-anchor="middle" x="412" y="-423.3" font-family="Times,serif" font-size="14.00" fill="#000000">stable release candidate</text>
</a>
</g>
</g>
<!-- ZcashFoundation/zebra#4954&#45;&gt;ZcashFoundation/zebra#3050 -->
<g id="edge5" class="edge">
<title>ZcashFoundation/zebra#4954&#45;&gt;ZcashFoundation/zebra#3050</title>
<path fill="none" stroke="#000000" d="M412,-846.77C412,-724.15 412,-601.54 412,-478.92"/>
<polygon fill="#000000" stroke="#000000" points="415.5001,-478.58 412,-468.58 408.5001,-478.58 415.5001,-478.58"/>
</g>
<!-- ZcashFoundation/zebra#4955 -->
<g id="node5" class="node open">
<title>ZcashFoundation/zebra#4955</title>
<g id="a_node5"><a xlink:href="https://github.com/ZcashFoundation/zebra/issues/4955" xlink:title="ZcashFoundation/zebra#4955&#10;Make long&#45;running test&#10;names match workflow&#10;names" target="_blank">
<polygon fill="#c2e0c6" stroke="#000000" points="240,-1259 8,-1259 8,-1191 240,-1191 240,-1259"/>
<text text-anchor="middle" x="124" y="-1243.8" font-family="Times,serif" font-size="14.00" fill="#000000">ZcashFoundation/zebra#4955</text>
<text text-anchor="middle" x="124" y="-1228.8" font-family="Times,serif" font-size="14.00" fill="#000000">Make long&#45;running test</text>
<text text-anchor="middle" x="124" y="-1213.8" font-family="Times,serif" font-size="14.00" fill="#000000">names match workflow</text>
<text text-anchor="middle" x="124" y="-1198.8" font-family="Times,serif" font-size="14.00" fill="#000000">names</text>
</a>
</g>
</g>
<!-- ZcashFoundation/zebra#4882 -->
<g id="node6" class="node open">
<title>ZcashFoundation/zebra#4882</title>
<g id="a_node6"><a xlink:href="https://github.com/ZcashFoundation/zebra/issues/4882" xlink:title="ZcashFoundation/zebra#4882&#10;Add zcash&#45;lightwalletd /&#10;Build images to required&#10;jobs" target="_blank">
<polygon fill="#c2e0c6" stroke="#000000" stroke-width="2" points="240,-1030 8,-1030 8,-962 240,-962 240,-1030"/>
<text text-anchor="middle" x="124" y="-1014.8" font-family="Times,serif" font-size="14.00" fill="#000000">ZcashFoundation/zebra#4882</text>
<text text-anchor="middle" x="124" y="-999.8" font-family="Times,serif" font-size="14.00" fill="#000000">Add zcash&#45;lightwalletd /</text>
<text text-anchor="middle" x="124" y="-984.8" font-family="Times,serif" font-size="14.00" fill="#000000">Build images to required</text>
<text text-anchor="middle" x="124" y="-969.8" font-family="Times,serif" font-size="14.00" fill="#000000">jobs</text>
</a>
</g>
</g>
<!-- ZcashFoundation/zebra#4612 -->
<g id="node13" class="node open">
<title>ZcashFoundation/zebra#4612</title>
<g id="a_node13"><a xlink:href="https://github.com/ZcashFoundation/zebra/issues/4612" xlink:title="ZcashFoundation/zebra#4612&#10;ci: Wait for lightwalletd&#10;image rebuild if it has&#10;changed" target="_blank">
<polygon fill="#c2e0c6" stroke="#000000" points="528,-76 296,-76 296,-8 528,-8 528,-76"/>
<text text-anchor="middle" x="412" y="-60.8" font-family="Times,serif" font-size="14.00" fill="#000000">ZcashFoundation/zebra#4612</text>
<text text-anchor="middle" x="412" y="-45.8" font-family="Times,serif" font-size="14.00" fill="#000000">ci: Wait for lightwalletd</text>
<text text-anchor="middle" x="412" y="-30.8" font-family="Times,serif" font-size="14.00" fill="#000000">image rebuild if it has</text>
<text text-anchor="middle" x="412" y="-15.8" font-family="Times,serif" font-size="14.00" fill="#000000">changed</text>
</a>
</g>
</g>
<!-- ZcashFoundation/zebra#4882&#45;&gt;ZcashFoundation/zebra#4612 -->
<g id="edge6" class="edge">
<title>ZcashFoundation/zebra#4882&#45;&gt;ZcashFoundation/zebra#4612</title>
<path fill="none" stroke="#000000" d="M232.5,-961.74C235.22,-959.04 237.74,-956.14 240,-953 295.05,-876.61 215.39,-184.1 268,-106 274.2,-96.79 282.06,-88.896 290.88,-82.127"/>
<polygon fill="#000000" stroke="#000000" points="293.092,-84.8496 299.24,-76.221 289.053,-79.1324 293.092,-84.8496"/>
</g>
<!-- ZcashFoundation/zebra#4992 -->
<g id="node7" class="node open">
<title>ZcashFoundation/zebra#4992</title>
<g id="a_node7"><a xlink:href="https://github.com/ZcashFoundation/zebra/issues/4992" xlink:title="ZcashFoundation/zebra#4992&#10;Run cached state CI on&#10;testnet" target="_blank">
<polygon fill="#c2e0c6" stroke="#000000" points="240,-1172.5 8,-1172.5 8,-1119.5 240,-1119.5 240,-1172.5"/>
<text text-anchor="middle" x="124" y="-1157.3" font-family="Times,serif" font-size="14.00" fill="#000000">ZcashFoundation/zebra#4992</text>
<text text-anchor="middle" x="124" y="-1142.3" font-family="Times,serif" font-size="14.00" fill="#000000">Run cached state CI on</text>
<text text-anchor="middle" x="124" y="-1127.3" font-family="Times,serif" font-size="14.00" fill="#000000">testnet</text>
</a>
</g>
</g>
<!-- ZcashFoundation/zebra#4554 -->
<g id="node8" class="node open">
<title>ZcashFoundation/zebra#4554</title>
<g id="a_node8"><a xlink:href="https://github.com/ZcashFoundation/zebra/issues/4554" xlink:title="ZcashFoundation/zebra#4554&#10;benchmarks: surface&#10;zebrad mainnet sync time&#10;in CI" target="_blank">
<polygon fill="#c2e0c6" stroke="#000000" stroke-width="2" points="240,-944 8,-944 8,-876 240,-876 240,-944"/>
<text text-anchor="middle" x="124" y="-928.8" font-family="Times,serif" font-size="14.00" fill="#000000">ZcashFoundation/zebra#4554</text>
<text text-anchor="middle" x="124" y="-913.8" font-family="Times,serif" font-size="14.00" fill="#000000">benchmarks: surface</text>
<text text-anchor="middle" x="124" y="-898.8" font-family="Times,serif" font-size="14.00" fill="#000000">zebrad mainnet sync time</text>
<text text-anchor="middle" x="124" y="-883.8" font-family="Times,serif" font-size="14.00" fill="#000000">in CI</text>
</a>
</g>
</g>
<!-- ZcashFoundation/zebra#4529 -->
<g id="node9" class="node open">
<title>ZcashFoundation/zebra#4529</title>
<g id="a_node9"><a xlink:href="https://github.com/ZcashFoundation/zebra/issues/4529" xlink:title="ZcashFoundation/zebra#4529&#10;Make PRs from external&#10;repositories pass or skip&#10;CI jobs" target="_blank">
<polygon fill="#c2e0c6" stroke="#000000" stroke-width="2" points="240,-858 8,-858 8,-790 240,-790 240,-858"/>
<text text-anchor="middle" x="124" y="-842.8" font-family="Times,serif" font-size="14.00" fill="#000000">ZcashFoundation/zebra#4529</text>
<text text-anchor="middle" x="124" y="-827.8" font-family="Times,serif" font-size="14.00" fill="#000000">Make PRs from external</text>
<text text-anchor="middle" x="124" y="-812.8" font-family="Times,serif" font-size="14.00" fill="#000000">repositories pass or skip</text>
<text text-anchor="middle" x="124" y="-797.8" font-family="Times,serif" font-size="14.00" fill="#000000">CI jobs</text>
</a>
</g>
</g>
<!-- ZcashFoundation/zebra#4956 -->
<g id="node10" class="node open">
<title>ZcashFoundation/zebra#4956</title>
<g id="a_node10"><a xlink:href="https://github.com/ZcashFoundation/zebra/issues/4956" xlink:title="ZcashFoundation/zebra#4956&#10;Make file locations&#10;appear in zebrad Docker&#10;error messages" target="_blank">
<polygon fill="#c2e0c6" stroke="#000000" stroke-width="2" points="240,-772 8,-772 8,-704 240,-704 240,-772"/>
<text text-anchor="middle" x="124" y="-756.8" font-family="Times,serif" font-size="14.00" fill="#000000">ZcashFoundation/zebra#4956</text>
<text text-anchor="middle" x="124" y="-741.8" font-family="Times,serif" font-size="14.00" fill="#000000">Make file locations</text>
<text text-anchor="middle" x="124" y="-726.8" font-family="Times,serif" font-size="14.00" fill="#000000">appear in zebrad Docker</text>
<text text-anchor="middle" x="124" y="-711.8" font-family="Times,serif" font-size="14.00" fill="#000000">error messages</text>
</a>
</g>
</g>
<!-- ZcashFoundation/zebra#4976 -->
<g id="node11" class="node open">
<title>ZcashFoundation/zebra#4976</title>
<g id="a_node11"><a xlink:href="https://github.com/ZcashFoundation/zebra/issues/4976" xlink:title="ZcashFoundation/zebra#4976&#10;Move continuous&#10;deployment to another&#10;Google Cloud region" target="_blank">
<polygon fill="#c2e0c6" stroke="#000000" stroke-width="2" points="240,-686 8,-686 8,-618 240,-618 240,-686"/>
<text text-anchor="middle" x="124" y="-670.8" font-family="Times,serif" font-size="14.00" fill="#000000">ZcashFoundation/zebra#4976</text>
<text text-anchor="middle" x="124" y="-655.8" font-family="Times,serif" font-size="14.00" fill="#000000">Move continuous</text>
<text text-anchor="middle" x="124" y="-640.8" font-family="Times,serif" font-size="14.00" fill="#000000">deployment to another</text>
<text text-anchor="middle" x="124" y="-625.8" font-family="Times,serif" font-size="14.00" fill="#000000">Google Cloud region</text>
</a>
</g>
</g>
<!-- ZcashFoundation/zebra#4946 -->
<g id="node12" class="node open">
<title>ZcashFoundation/zebra#4946</title>
<g id="a_node12"><a xlink:href="https://github.com/ZcashFoundation/zebra/issues/4946" xlink:title="ZcashFoundation/zebra#4946&#10;Managed instance groups&#10;deployed with continuous&#10;deployment can&#39;t scale&#10;beyond 1 instance" target="_blank">
<polygon fill="#c2e0c6" stroke="#000000" stroke-width="2" points="240,-599.5 8,-599.5 8,-516.5 240,-516.5 240,-599.5"/>
<text text-anchor="middle" x="124" y="-584.3" font-family="Times,serif" font-size="14.00" fill="#000000">ZcashFoundation/zebra#4946</text>
<text text-anchor="middle" x="124" y="-569.3" font-family="Times,serif" font-size="14.00" fill="#000000">Managed instance groups</text>
<text text-anchor="middle" x="124" y="-554.3" font-family="Times,serif" font-size="14.00" fill="#000000">deployed with continuous</text>
<text text-anchor="middle" x="124" y="-539.3" font-family="Times,serif" font-size="14.00" fill="#000000">deployment can&#39;t scale</text>
<text text-anchor="middle" x="124" y="-524.3" font-family="Times,serif" font-size="14.00" fill="#000000">beyond 1 instance</text>
</a>
</g>
</g>
<!-- ZcashFoundation/zebra#3050&#45;&gt;ZcashFoundation/zebra#4955 -->
<g id="edge7" class="edge">
<title>ZcashFoundation/zebra#3050&#45;&gt;ZcashFoundation/zebra#4955</title>
<path fill="none" stroke="#000000" d="M310.06,-468.53C293.57,-477.23 278.49,-488.75 268,-504 225.26,-566.11 284.33,-1121 240,-1182 239.72,-1182.4 239.43,-1182.8 239.14,-1183.2"/>
<polygon fill="#000000" stroke="#000000" points="236.5002,-1180.9016 232.47,-1190.7 241.7309,-1185.5535 236.5002,-1180.9016"/>
</g>
<!-- ZcashFoundation/zebra#3050&#45;&gt;ZcashFoundation/zebra#4992 -->
<g id="edge8" class="edge">
<title>ZcashFoundation/zebra#3050&#45;&gt;ZcashFoundation/zebra#4992</title>
<path fill="none" stroke="#000000" d="M310.12,-468.57C293.63,-477.27 278.53,-488.78 268,-504 229.59,-559.53 281.5,-1057.7 240,-1111 239.78,-1111.3 239.56,-1111.6 239.34,-1111.8"/>
<polygon fill="#000000" stroke="#000000" points="236.6663,-1109.5332 232.33,-1119.2 241.7481,-1114.3472 236.6663,-1109.5332"/>
</g>
<!-- ZcashFoundation/zebra#4967 -->
<g id="node19" class="node open">
<title>ZcashFoundation/zebra#4967</title>
<g id="a_node19"><a xlink:href="https://github.com/ZcashFoundation/zebra/pull/4967" xlink:title="ZcashFoundation/zebra#4967&#10;feat(rpc): add&#10;getblockhash rpc method" target="_blank">
<polygon fill="#a7c2aa" stroke="#000000" points="816,-468.5 584,-468.5 584,-464.5 580,-464.5 580,-460.5 584,-460.5 584,-423.5 580,-423.5 580,-419.5 584,-419.5 584,-415.5 816,-415.5 816,-468.5"/>
<polyline fill="none" stroke="#000000" points="584,-464.5 588,-464.5 588,-460.5 584,-460.5 "/>
<polyline fill="none" stroke="#000000" points="584,-423.5 588,-423.5 588,-419.5 584,-419.5 "/>
<text text-anchor="middle" x="700" y="-453.3" font-family="Times,serif" font-size="14.00" fill="#000000">ZcashFoundation/zebra#4967</text>
<text text-anchor="middle" x="700" y="-438.3" font-family="Times,serif" font-size="14.00" fill="#000000">feat(rpc): add</text>
<text text-anchor="middle" x="700" y="-423.3" font-family="Times,serif" font-size="14.00" fill="#000000">getblockhash rpc method</text>
</a>
</g>
</g>
<!-- ZcashFoundation/zebra#3050&#45;&gt;ZcashFoundation/zebra#4967 -->
<g id="edge9" class="edge">
<title>ZcashFoundation/zebra#3050&#45;&gt;ZcashFoundation/zebra#4967</title>
<path fill="none" stroke="#000000" d="M528.31,-442C543.15,-442 558.4,-442 573.39,-442"/>
<polygon fill="#000000" stroke="#000000" points="573.72,-445.5001 583.72,-442 573.72,-438.5001 573.72,-445.5001"/>
</g>
<!-- ZcashFoundation/zebra#5168 -->
<g id="node16" class="node open">
<title>ZcashFoundation/zebra#5168</title>
<g id="a_node16"><a xlink:href="https://github.com/ZcashFoundation/zebra/issues/5168" xlink:title="ZcashFoundation/zebra#5168&#10;Add Docker tests for&#10;default config and&#10;$ZEBRA_CONF_PATH" target="_blank">
<polygon fill="#c2e0c6" stroke="#000000" stroke-width="2" points="528,-311 296,-311 296,-243 528,-243 528,-311"/>
<text text-anchor="middle" x="412" y="-295.8" font-family="Times,serif" font-size="14.00" fill="#000000">ZcashFoundation/zebra#5168</text>
<text text-anchor="middle" x="412" y="-280.8" font-family="Times,serif" font-size="14.00" fill="#000000">Add Docker tests for</text>
<text text-anchor="middle" x="412" y="-265.8" font-family="Times,serif" font-size="14.00" fill="#000000">default config and</text>
<text text-anchor="middle" x="412" y="-250.8" font-family="Times,serif" font-size="14.00" fill="#000000">$ZEBRA_CONF_PATH</text>
</a>
</g>
</g>
<!-- ZcashFoundation/zebra#1638 -->
<g id="node17" class="node open">
<title>ZcashFoundation/zebra#1638</title>
<g id="a_node17"><a xlink:href="https://github.com/ZcashFoundation/zebra/issues/1638" xlink:title="ZcashFoundation/zebra#1638&#10;Create PGP keys amongst&#10;security@zfnd.org" target="_blank">
<polygon fill="#c2e0c6" stroke="#000000" stroke-width="2" points="528,-224.5 296,-224.5 296,-171.5 528,-171.5 528,-224.5"/>
<text text-anchor="middle" x="412" y="-209.3" font-family="Times,serif" font-size="14.00" fill="#000000">ZcashFoundation/zebra#1638</text>
<text text-anchor="middle" x="412" y="-194.3" font-family="Times,serif" font-size="14.00" fill="#000000">Create PGP keys amongst</text>
<text text-anchor="middle" x="412" y="-179.3" font-family="Times,serif" font-size="14.00" fill="#000000">security@zfnd.org</text>
</a>
</g>
</g>
</g>
</svg>
