<?xml version="1.0" encoding="UTF-8" standalone="no"?>
<?xml-stylesheet href="zcash-dag.css" type="text/css"?>
<!DOCTYPE svg PUBLIC "-//W3C//DTD SVG 1.1//EN"
 "http://www.w3.org/Graphics/SVG/1.1/DTD/svg11.dtd">
<!-- Generated by graphviz version 2.40.1 (20161225.0304)
 -->
<!-- Pages: 1 -->
<svg width="792pt" height="1263pt"
 viewBox="0.00 0.00 792.00 1263.00" xmlns="http://www.w3.org/2000/svg" xmlns:xlink="http://www.w3.org/1999/xlink">
<g id="graph0" class="graph" transform="scale(1 1) rotate(0) translate(4 1259)">
<polygon fill="#ffffff" stroke="transparent" points="-4,4 -4,-1259 788,-1259 788,4 -4,4"/>
<g id="clust1" class="cluster">
<title>cluster_1</title>
<polygon fill="none" stroke="#0000ff" points="8,-393 8,-1247 524,-1247 524,-393 8,-393"/>
<text text-anchor="middle" x="266" y="-1231.8" font-family="Times,serif" font-size="14.00" fill="#000000">DevOps Ticket Tracker</text>
</g>
<g id="clust2" class="cluster">
<title>cluster_0</title>
<polygon fill="none" stroke="#0000ff" points="276,-48 276,-385 524,-385 524,-48 276,-48"/>
<text text-anchor="middle" x="400" y="-369.8" font-family="Times,serif" font-size="14.00" fill="#000000">Epic: Zebra Release Candidates</text>
</g>
<g id="clust3" class="cluster">
<title>cluster_3</title>
<polygon fill="none" stroke="#0000ff" points="0,0 0,-1255 784,-1255 784,0 0,0"/>
<text text-anchor="middle" x="392" y="-1239.8" font-family="Times,serif" font-size="14.00" fill="#000000">Epic: Zebra as a lightwalletd backend</text>
</g>
<!-- ZcashFoundation/zebra#4953 -->
<g id="node1" class="node open">
<title>ZcashFoundation/zebra#4953</title>
<g id="a_node1"><a xlink:href="https://github.com/ZcashFoundation/zebra/issues/4953" xlink:title="ZcashFoundation/zebra#4953&#10;Document how to use&#10;released Zebra binaries" target="_blank">
<polygon fill="#c2e0c6" stroke="#000000" stroke-width="2" points="248,-900.5 16,-900.5 16,-847.5 248,-847.5 248,-900.5"/>
<text text-anchor="middle" x="132" y="-885.3" font-family="Times,serif" font-size="14.00" fill="#000000">ZcashFoundation/zebra#4953</text>
<text text-anchor="middle" x="132" y="-870.3" font-family="Times,serif" font-size="14.00" fill="#000000">Document how to use</text>
<text text-anchor="middle" x="132" y="-855.3" font-family="Times,serif" font-size="14.00" fill="#000000">released Zebra binaries</text>
</a>
</g>
</g>
<!-- ZcashFoundation/zebra#1615 -->
<g id="node14" class="node open">
<title>ZcashFoundation/zebra#1615</title>
<g id="a_node14"><a xlink:href="https://github.com/ZcashFoundation/zebra/issues/1615" xlink:title="ZcashFoundation/zebra#1615&#10;Zebra release candidate&#10;binaries should be linked&#10;from ZFND website" target="_blank">
<polygon fill="#a7c2aa" stroke="#000000" points="516,-282 284,-282 284,-214 516,-214 516,-282"/>
<text text-anchor="middle" x="400" y="-266.8" font-family="Times,serif" font-size="14.00" fill="#000000">ZcashFoundation/zebra#1615</text>
<text text-anchor="middle" x="400" y="-251.8" font-family="Times,serif" font-size="14.00" fill="#000000">Zebra release candidate</text>
<text text-anchor="middle" x="400" y="-236.8" font-family="Times,serif" font-size="14.00" fill="#000000">binaries should be linked</text>
<text text-anchor="middle" x="400" y="-221.8" font-family="Times,serif" font-size="14.00" fill="#000000">from ZFND website</text>
</a>
</g>
</g>
<!-- ZcashFoundation/zebra#4953&#45;&gt;ZcashFoundation/zebra#1615 -->
<g id="edge4" class="edge">
<title>ZcashFoundation/zebra#4953&#45;&gt;ZcashFoundation/zebra#1615</title>
<path fill="none" stroke="#000000" d="M239.39,-847.12C242.52,-844.36 245.41,-841.33 248,-838 322.54,-742.06 203.39,-389.41 276,-292 276.57,-291.24 277.15,-290.49 277.74,-289.76"/>
<polygon fill="#000000" stroke="#000000" points="280.3742,-292.0669 284.62,-282.36 275.2476,-287.3005 280.3742,-292.0669"/>
</g>
<!-- ZcashFoundation/zebra#1963 -->
<g id="node2" class="node open">
<title>ZcashFoundation/zebra#1963</title>
<g id="a_node2"><a xlink:href="https://github.com/ZcashFoundation/zebra/issues/1963" xlink:title="ZcashFoundation/zebra#1963&#10;Work out how to release&#10;Zebra binaries" target="_blank">
<polygon fill="#c2e0c6" stroke="#000000" stroke-width="2" points="248,-1215.5 16,-1215.5 16,-1162.5 248,-1162.5 248,-1215.5"/>
<text text-anchor="middle" x="132" y="-1200.3" font-family="Times,serif" font-size="14.00" fill="#000000">ZcashFoundation/zebra#1963</text>
<text text-anchor="middle" x="132" y="-1185.3" font-family="Times,serif" font-size="14.00" fill="#000000">Work out how to release</text>
<text text-anchor="middle" x="132" y="-1170.3" font-family="Times,serif" font-size="14.00" fill="#000000">Zebra binaries</text>
</a>
</g>
</g>
<!-- ZcashFoundation/zebra#4954 -->
<g id="node3" class="node open">
<title>ZcashFoundation/zebra#4954</title>
<g id="a_node3"><a xlink:href="https://github.com/ZcashFoundation/zebra/issues/4954" xlink:title="ZcashFoundation/zebra#4954&#10;Update release checklist&#10;PR template for the&#10;release candidate series" target="_blank">
<polygon fill="#c2e0c6" stroke="#000000" points="516,-1216 284,-1216 284,-1148 516,-1148 516,-1216"/>
<text text-anchor="middle" x="400" y="-1200.8" font-family="Times,serif" font-size="14.00" fill="#000000">ZcashFoundation/zebra#4954</text>
<text text-anchor="middle" x="400" y="-1185.8" font-family="Times,serif" font-size="14.00" fill="#000000">Update release checklist</text>
<text text-anchor="middle" x="400" y="-1170.8" font-family="Times,serif" font-size="14.00" fill="#000000">PR template for the</text>
<text text-anchor="middle" x="400" y="-1155.8" font-family="Times,serif" font-size="14.00" fill="#000000">release candidate series</text>
</a>
</g>
</g>
<!-- ZcashFoundation/zebra#1963&#45;&gt;ZcashFoundation/zebra#4954 -->
<g id="edge1" class="edge">
<title>ZcashFoundation/zebra#1963&#45;&gt;ZcashFoundation/zebra#4954</title>
<path fill="none" stroke="#000000" d="M248.38,-1186C256.71,-1185.7 265.14,-1185.5 273.53,-1185.3"/>
<polygon fill="#000000" stroke="#000000" points="273.8471,-1188.7923 283.74,-1185 273.6415,-1181.7953 273.8471,-1188.7923"/>
</g>
<!-- ZcashFoundation/zebra#4412 -->
<g id="node4" class="node open">
<title>ZcashFoundation/zebra#4412</title>
<g id="a_node4"><a xlink:href="https://github.com/ZcashFoundation/zebra/issues/4412" xlink:title="ZcashFoundation/zebra#4412&#10;Automate pinning CI&#10;dependencies to specific&#10;commit hashes" target="_blank">
<polygon fill="#c2e0c6" stroke="#000000" points="516,-1130 284,-1130 284,-1062 516,-1062 516,-1130"/>
<text text-anchor="middle" x="400" y="-1114.8" font-family="Times,serif" font-size="14.00" fill="#000000">ZcashFoundation/zebra#4412</text>
<text text-anchor="middle" x="400" y="-1099.8" font-family="Times,serif" font-size="14.00" fill="#000000">Automate pinning CI</text>
<text text-anchor="middle" x="400" y="-1084.8" font-family="Times,serif" font-size="14.00" fill="#000000">dependencies to specific</text>
<text text-anchor="middle" x="400" y="-1069.8" font-family="Times,serif" font-size="14.00" fill="#000000">commit hashes</text>
</a>
</g>
</g>
<!-- ZcashFoundation/zebra#1963&#45;&gt;ZcashFoundation/zebra#4412 -->
<g id="edge2" class="edge">
<title>ZcashFoundation/zebra#1963&#45;&gt;ZcashFoundation/zebra#4412</title>
<path fill="none" stroke="#000000" d="M222.74,-1162.4C231.35,-1159.4 239.88,-1156.3 248,-1153 260.91,-1147.8 263.18,-1144.4 276,-1139 280.19,-1137.2 284.48,-1135.5 288.82,-1133.8"/>
<polygon fill="#000000" stroke="#000000" points="290.4101,-1136.9349 298.42,-1130 287.8337,-1130.4262 290.4101,-1136.9349"/>
</g>
<!-- ZcashFoundation/zebra#755 -->
<g id="node18" class="node closed">
<title>ZcashFoundation/zebra#755</title>
<g id="a_node18"><a xlink:href="https://github.com/ZcashFoundation/zebra/issues/755" xlink:title="ZcashFoundation/zebra#755&#10;Automate zebrad releases" target="_blank">
<polygon fill="#fad8c7" stroke="#000000" points="511.5,-38 288.5,-38 288.5,0 511.5,0 511.5,-38"/>
<text text-anchor="middle" x="400" y="-22.8" font-family="Times,serif" font-size="14.00" fill="#000000">ZcashFoundation/zebra#755</text>
<text text-anchor="middle" x="400" y="-7.8" font-family="Times,serif" font-size="14.00" fill="#000000">Automate zebrad releases</text>
</a>
</g>
</g>
<!-- ZcashFoundation/zebra#1963&#45;&gt;ZcashFoundation/zebra#755 -->
<g id="edge5" class="edge">
<title>ZcashFoundation/zebra#1963&#45;&gt;ZcashFoundation/zebra#755</title>
<path fill="none" stroke="#000000" d="M239.5,-1162.2C242.6,-1159.4 245.46,-1156.4 248,-1153 322.36,-1054.7 196.73,-138.39 276,-44 277.38,-42.36 278.83,-40.809 280.35,-39.342"/>
<polygon fill="#000000" stroke="#000000" points="282.9517,-41.7353 288.47,-32.691 278.516,-36.32 282.9517,-41.7353"/>
</g>
<!-- ZcashFoundation/zebra#3050 -->
<g id="node15" class="node open">
<title>ZcashFoundation/zebra#3050</title>
<g id="a_node15"><a xlink:href="https://github.com/ZcashFoundation/zebra/issues/3050" xlink:title="ZcashFoundation/zebra#3050&#10;Tag Zebra 1.0.0&#45;rc.0&#10;stable release candidate" target="_blank">
<polygon fill="#a7c2aa" stroke="#000000" points="516,-353.5 284,-353.5 284,-300.5 516,-300.5 516,-353.5"/>
<text text-anchor="middle" x="400" y="-338.3" font-family="Times,serif" font-size="14.00" fill="#000000">ZcashFoundation/zebra#3050</text>
<text text-anchor="middle" x="400" y="-323.3" font-family="Times,serif" font-size="14.00" fill="#000000">Tag Zebra 1.0.0&#45;rc.0</text>
<text text-anchor="middle" x="400" y="-308.3" font-family="Times,serif" font-size="14.00" fill="#000000">stable release candidate</text>
</a>
</g>
</g>
<!-- ZcashFoundation/zebra#4954&#45;&gt;ZcashFoundation/zebra#3050 -->
<g id="edge6" class="edge">
<title>ZcashFoundation/zebra#4954&#45;&gt;ZcashFoundation/zebra#3050</title>
<path fill="none" stroke="#000000" d="M283.93,-1154.4C275.02,-1147.9 267.4,-1139.9 262,-1130 252.26,-1112.2 252.26,-415.85 262,-398 271.04,-381.44 285.46,-368.63 301.65,-358.75"/>
<polygon fill="#000000" stroke="#000000" points="303.8224,-361.5414 310.79,-353.56 300.3659,-355.4543 303.8224,-361.5414"/>
</g>
<!-- ZcashFoundation/zebra#4612 -->
<g id="node5" class="node open">
<title>ZcashFoundation/zebra#4612</title>
<g id="a_node5"><a xlink:href="https://github.com/ZcashFoundation/zebra/issues/4612" xlink:title="ZcashFoundation/zebra#4612&#10;ci: Wait for lightwalletd&#10;image rebuild if it has&#10;changed" target="_blank">
<polygon fill="#c2e0c6" stroke="#000000" points="516,-1044 284,-1044 284,-976 516,-976 516,-1044"/>
<text text-anchor="middle" x="400" y="-1028.8" font-family="Times,serif" font-size="14.00" fill="#000000">ZcashFoundation/zebra#4612</text>
<text text-anchor="middle" x="400" y="-1013.8" font-family="Times,serif" font-size="14.00" fill="#000000">ci: Wait for lightwalletd</text>
<text text-anchor="middle" x="400" y="-998.8" font-family="Times,serif" font-size="14.00" fill="#000000">image rebuild if it has</text>
<text text-anchor="middle" x="400" y="-983.8" font-family="Times,serif" font-size="14.00" fill="#000000">changed</text>
</a>
</g>
</g>
<!-- ZcashFoundation/zebra#4955 -->
<g id="node6" class="node open">
<title>ZcashFoundation/zebra#4955</title>
<g id="a_node6"><a xlink:href="https://github.com/ZcashFoundation/zebra/issues/4955" xlink:title="ZcashFoundation/zebra#4955&#10;Make long&#45;running test&#10;names match workflow&#10;names" target="_blank">
<polygon fill="#c2e0c6" stroke="#000000" points="248,-1058 16,-1058 16,-990 248,-990 248,-1058"/>
<text text-anchor="middle" x="132" y="-1042.8" font-family="Times,serif" font-size="14.00" fill="#000000">ZcashFoundation/zebra#4955</text>
<text text-anchor="middle" x="132" y="-1027.8" font-family="Times,serif" font-size="14.00" fill="#000000">Make long&#45;running test</text>
<text text-anchor="middle" x="132" y="-1012.8" font-family="Times,serif" font-size="14.00" fill="#000000">names match workflow</text>
<text text-anchor="middle" x="132" y="-997.8" font-family="Times,serif" font-size="14.00" fill="#000000">names</text>
</a>
</g>
</g>
<!-- ZcashFoundation/zebra#4882 -->
<g id="node7" class="node open">
<title>ZcashFoundation/zebra#4882</title>
<g id="a_node7"><a xlink:href="https://github.com/ZcashFoundation/zebra/issues/4882" xlink:title="ZcashFoundation/zebra#4882&#10;Add zcash&#45;lightwalletd /&#10;Build images to required&#10;jobs" target="_blank">
<polygon fill="#c2e0c6" stroke="#000000" stroke-width="2" points="248,-1144 16,-1144 16,-1076 248,-1076 248,-1144"/>
<text text-anchor="middle" x="132" y="-1128.8" font-family="Times,serif" font-size="14.00" fill="#000000">ZcashFoundation/zebra#4882</text>
<text text-anchor="middle" x="132" y="-1113.8" font-family="Times,serif" font-size="14.00" fill="#000000">Add zcash&#45;lightwalletd /</text>
<text text-anchor="middle" x="132" y="-1098.8" font-family="Times,serif" font-size="14.00" fill="#000000">Build images to required</text>
<text text-anchor="middle" x="132" y="-1083.8" font-family="Times,serif" font-size="14.00" fill="#000000">jobs</text>
</a>
</g>
</g>
<!-- ZcashFoundation/zebra#4882&#45;&gt;ZcashFoundation/zebra#4612 -->
<g id="edge3" class="edge">
<title>ZcashFoundation/zebra#4882&#45;&gt;ZcashFoundation/zebra#4612</title>
<path fill="none" stroke="#000000" d="M226.67,-1075.9C233.92,-1073 241.1,-1070 248,-1067 260.76,-1061.5 263.18,-1058.4 276,-1053 280.19,-1051.2 284.48,-1049.5 288.82,-1047.8"/>
<polygon fill="#000000" stroke="#000000" points="290.4101,-1050.9349 298.42,-1044 287.8337,-1044.4262 290.4101,-1050.9349"/>
</g>
<!-- ZcashFoundation/zebra#4992 -->
<g id="node8" class="node open">
<title>ZcashFoundation/zebra#4992</title>
<g id="a_node8"><a xlink:href="https://github.com/ZcashFoundation/zebra/issues/4992" xlink:title="ZcashFoundation/zebra#4992&#10;Run cached state CI on&#10;testnet" target="_blank">
<polygon fill="#c2e0c6" stroke="#000000" points="248,-971.5 16,-971.5 16,-918.5 248,-918.5 248,-971.5"/>
<text text-anchor="middle" x="132" y="-956.3" font-family="Times,serif" font-size="14.00" fill="#000000">ZcashFoundation/zebra#4992</text>
<text text-anchor="middle" x="132" y="-941.3" font-family="Times,serif" font-size="14.00" fill="#000000">Run cached state CI on</text>
<text text-anchor="middle" x="132" y="-926.3" font-family="Times,serif" font-size="14.00" fill="#000000">testnet</text>
</a>
</g>
</g>
<!-- ZcashFoundation/zebra#4554 -->
<g id="node9" class="node open">
<title>ZcashFoundation/zebra#4554</title>
<g id="a_node9"><a xlink:href="https://github.com/ZcashFoundation/zebra/issues/4554" xlink:title="ZcashFoundation/zebra#4554&#10;benchmarks: surface&#10;zebrad mainnet sync time&#10;in CI" target="_blank">
<polygon fill="#c2e0c6" stroke="#000000" stroke-width="2" points="248,-829 16,-829 16,-761 248,-761 248,-829"/>
<text text-anchor="middle" x="132" y="-813.8" font-family="Times,serif" font-size="14.00" fill="#000000">ZcashFoundation/zebra#4554</text>
<text text-anchor="middle" x="132" y="-798.8" font-family="Times,serif" font-size="14.00" fill="#000000">benchmarks: surface</text>
<text text-anchor="middle" x="132" y="-783.8" font-family="Times,serif" font-size="14.00" fill="#000000">zebrad mainnet sync time</text>
<text text-anchor="middle" x="132" y="-768.8" font-family="Times,serif" font-size="14.00" fill="#000000">in CI</text>
</a>
</g>
</g>
<!-- ZcashFoundation/zebra#4529 -->
<g id="node10" class="node open">
<title>ZcashFoundation/zebra#4529</title>
<g id="a_node10"><a xlink:href="https://github.com/ZcashFoundation/zebra/issues/4529" xlink:title="ZcashFoundation/zebra#4529&#10;Make PRs from external&#10;repositories pass or skip&#10;CI jobs" target="_blank">
<polygon fill="#c2e0c6" stroke="#000000" stroke-width="2" points="248,-743 16,-743 16,-675 248,-675 248,-743"/>
<text text-anchor="middle" x="132" y="-727.8" font-family="Times,serif" font-size="14.00" fill="#000000">ZcashFoundation/zebra#4529</text>
<text text-anchor="middle" x="132" y="-712.8" font-family="Times,serif" font-size="14.00" fill="#000000">Make PRs from external</text>
<text text-anchor="middle" x="132" y="-697.8" font-family="Times,serif" font-size="14.00" fill="#000000">repositories pass or skip</text>
<text text-anchor="middle" x="132" y="-682.8" font-family="Times,serif" font-size="14.00" fill="#000000">CI jobs</text>
</a>
</g>
</g>
<!-- ZcashFoundation/zebra#4956 -->
<g id="node11" class="node open">
<title>ZcashFoundation/zebra#4956</title>
<g id="a_node11"><a xlink:href="https://github.com/ZcashFoundation/zebra/issues/4956" xlink:title="ZcashFoundation/zebra#4956&#10;Make file locations&#10;appear in zebrad Docker&#10;error messages" target="_blank">
<polygon fill="#c2e0c6" stroke="#000000" stroke-width="2" points="248,-657 16,-657 16,-589 248,-589 248,-657"/>
<text text-anchor="middle" x="132" y="-641.8" font-family="Times,serif" font-size="14.00" fill="#000000">ZcashFoundation/zebra#4956</text>
<text text-anchor="middle" x="132" y="-626.8" font-family="Times,serif" font-size="14.00" fill="#000000">Make file locations</text>
<text text-anchor="middle" x="132" y="-611.8" font-family="Times,serif" font-size="14.00" fill="#000000">appear in zebrad Docker</text>
<text text-anchor="middle" x="132" y="-596.8" font-family="Times,serif" font-size="14.00" fill="#000000">error messages</text>
</a>
</g>
</g>
<!-- ZcashFoundation/zebra#4976 -->
<g id="node12" class="node open">
<title>ZcashFoundation/zebra#4976</title>
<g id="a_node12"><a xlink:href="https://github.com/ZcashFoundation/zebra/issues/4976" xlink:title="ZcashFoundation/zebra#4976&#10;Move continuous&#10;deployment to another&#10;Google Cloud region" target="_blank">
<polygon fill="#c2e0c6" stroke="#000000" stroke-width="2" points="248,-571 16,-571 16,-503 248,-503 248,-571"/>
<text text-anchor="middle" x="132" y="-555.8" font-family="Times,serif" font-size="14.00" fill="#000000">ZcashFoundation/zebra#4976</text>
<text text-anchor="middle" x="132" y="-540.8" font-family="Times,serif" font-size="14.00" fill="#000000">Move continuous</text>
<text text-anchor="middle" x="132" y="-525.8" font-family="Times,serif" font-size="14.00" fill="#000000">deployment to another</text>
<text text-anchor="middle" x="132" y="-510.8" font-family="Times,serif" font-size="14.00" fill="#000000">Google Cloud region</text>
</a>
</g>
</g>
<!-- ZcashFoundation/zebra#4946 -->
<g id="node13" class="node open">
<title>ZcashFoundation/zebra#4946</title>
<g id="a_node13"><a xlink:href="https://github.com/ZcashFoundation/zebra/issues/4946" xlink:title="ZcashFoundation/zebra#4946&#10;Managed instance groups&#10;deployed with continuous&#10;deployment can&#39;t scale&#10;beyond 1 instance" target="_blank">
<polygon fill="#c2e0c6" stroke="#000000" stroke-width="2" points="248,-484.5 16,-484.5 16,-401.5 248,-401.5 248,-484.5"/>
<text text-anchor="middle" x="132" y="-469.3" font-family="Times,serif" font-size="14.00" fill="#000000">ZcashFoundation/zebra#4946</text>
<text text-anchor="middle" x="132" y="-454.3" font-family="Times,serif" font-size="14.00" fill="#000000">Managed instance groups</text>
<text text-anchor="middle" x="132" y="-439.3" font-family="Times,serif" font-size="14.00" fill="#000000">deployed with continuous</text>
<text text-anchor="middle" x="132" y="-424.3" font-family="Times,serif" font-size="14.00" fill="#000000">deployment can&#39;t scale</text>
<text text-anchor="middle" x="132" y="-409.3" font-family="Times,serif" font-size="14.00" fill="#000000">beyond 1 instance</text>
</a>
</g>
</g>
<!-- ZcashFoundation/zebra#3050&#45;&gt;ZcashFoundation/zebra#4955 -->
<g id="edge7" class="edge">
<title>ZcashFoundation/zebra#3050&#45;&gt;ZcashFoundation/zebra#4955</title>
<path fill="none" stroke="#000000" d="M316.15,-353.64C300.38,-362.44 285.78,-373.97 276,-389 204.13,-499.37 325.76,-874.7 248,-981 247.71,-981.39 247.43,-981.78 247.13,-982.16"/>
<polygon fill="#000000" stroke="#000000" points="244.4588,-979.897 240.44,-989.7 249.6949,-984.5428 244.4588,-979.897"/>
</g>
<!-- ZcashFoundation/zebra#3050&#45;&gt;ZcashFoundation/zebra#4992 -->
<g id="edge8" class="edge">
<title>ZcashFoundation/zebra#3050&#45;&gt;ZcashFoundation/zebra#4992</title>
<path fill="none" stroke="#000000" d="M316.54,-353.52C300.64,-362.33 285.9,-373.9 276,-389 212.42,-485.96 319.61,-818.81 248,-910 247.78,-910.28 247.56,-910.56 247.34,-910.83"/>
<polygon fill="#000000" stroke="#000000" points="244.6634,-908.5654 240.3,-918.22 249.7317,-913.3937 244.6634,-908.5654"/>
</g>
<!-- ZcashFoundation/zebra#4967 -->
<g id="node19" class="node open">
<title>ZcashFoundation/zebra#4967</title>
<g id="a_node19"><a xlink:href="https://github.com/ZcashFoundation/zebra/pull/4967" xlink:title="ZcashFoundation/zebra#4967&#10;feat(rpc): add&#10;getblockhash rpc method" target="_blank">
<polygon fill="#a7c2aa" stroke="#000000" points="784,-353.5 552,-353.5 552,-349.5 548,-349.5 548,-345.5 552,-345.5 552,-308.5 548,-308.5 548,-304.5 552,-304.5 552,-300.5 784,-300.5 784,-353.5"/>
<polyline fill="none" stroke="#000000" points="552,-349.5 556,-349.5 556,-345.5 552,-345.5 "/>
<polyline fill="none" stroke="#000000" points="552,-308.5 556,-308.5 556,-304.5 552,-304.5 "/>
<text text-anchor="middle" x="668" y="-338.3" font-family="Times,serif" font-size="14.00" fill="#000000">ZcashFoundation/zebra#4967</text>
<text text-anchor="middle" x="668" y="-323.3" font-family="Times,serif" font-size="14.00" fill="#000000">feat(rpc): add</text>
<text text-anchor="middle" x="668" y="-308.3" font-family="Times,serif" font-size="14.00" fill="#000000">getblockhash rpc method</text>
</a>
</g>
</g>
<!-- ZcashFoundation/zebra#3050&#45;&gt;ZcashFoundation/zebra#4967 -->
<g id="edge9" class="edge">
<title>ZcashFoundation/zebra#3050&#45;&gt;ZcashFoundation/zebra#4967</title>
<path fill="none" stroke="#000000" d="M516.38,-327C524.71,-327 533.14,-327 541.53,-327"/>
<polygon fill="#000000" stroke="#000000" points="541.74,-330.5001 551.74,-327 541.74,-323.5001 541.74,-330.5001"/>
</g>
<!-- ZcashFoundation/zebra#5168 -->
<g id="node16" class="node open">
<title>ZcashFoundation/zebra#5168</title>
<g id="a_node16"><a xlink:href="https://github.com/ZcashFoundation/zebra/issues/5168" xlink:title="ZcashFoundation/zebra#5168&#10;Add Docker tests for&#10;default config and&#10;$ZEBRA_CONF_PATH" target="_blank">
<polygon fill="#c2e0c6" stroke="#000000" stroke-width="2" points="516,-196 284,-196 284,-128 516,-128 516,-196"/>
<text text-anchor="middle" x="400" y="-180.8" font-family="Times,serif" font-size="14.00" fill="#000000">ZcashFoundation/zebra#5168</text>
<text text-anchor="middle" x="400" y="-165.8" font-family="Times,serif" font-size="14.00" fill="#000000">Add Docker tests for</text>
<text text-anchor="middle" x="400" y="-150.8" font-family="Times,serif" font-size="14.00" fill="#000000">default config and</text>
<text text-anchor="middle" x="400" y="-135.8" font-family="Times,serif" font-size="14.00" fill="#000000">$ZEBRA_CONF_PATH</text>
</a>
</g>
</g>
<!-- ZcashFoundation/zebra#1638 -->
<g id="node17" class="node open">
<title>ZcashFoundation/zebra#1638</title>
<g id="a_node17"><a xlink:href="https://github.com/ZcashFoundation/zebra/issues/1638" xlink:title="ZcashFoundation/zebra#1638&#10;Create PGP keys amongst&#10;security@zfnd.org" target="_blank">
<polygon fill="#c2e0c6" stroke="#000000" stroke-width="2" points="516,-109.5 284,-109.5 284,-56.5 516,-56.5 516,-109.5"/>
<text text-anchor="middle" x="400" y="-94.3" font-family="Times,serif" font-size="14.00" fill="#000000">ZcashFoundation/zebra#1638</text>
<text text-anchor="middle" x="400" y="-79.3" font-family="Times,serif" font-size="14.00" fill="#000000">Create PGP keys amongst</text>
<text text-anchor="middle" x="400" y="-64.3" font-family="Times,serif" font-size="14.00" fill="#000000">security@zfnd.org</text>
</a>
</g>
</g>
</g>
</svg>
