<?xml version="1.0" encoding="UTF-8" standalone="no"?>
<?xml-stylesheet href="zcash-dag.css" type="text/css"?>
<!DOCTYPE svg PUBLIC "-//W3C//DTD SVG 1.1//EN"
 "http://www.w3.org/Graphics/SVG/1.1/DTD/svg11.dtd">
<!-- Generated by graphviz version 2.43.0 (0)
 -->
<!-- Pages: 1 -->
<svg width="1040pt" height="286pt"
 viewBox="0.00 0.00 1040.00 286.00" xmlns="http://www.w3.org/2000/svg" xmlns:xlink="http://www.w3.org/1999/xlink">
<g id="graph0" class="graph" transform="scale(1 1) rotate(0) translate(4 282)">
<polygon fill="white" stroke="transparent" points="-4,4 -4,-282 1036,-282 1036,4 -4,4"/>
<!-- ZcashFoundation/zebra#7045 -->
<g id="node1" class="node open">
<title>ZcashFoundation/zebra#7045</title>
<g id="a_node1"><a xlink:href="https://github.com/ZcashFoundation/zebra/pull/7045" xlink:title="ZcashFoundation/zebra#7045&#10;refactor(docker): allow&#10;more flexible zebra&#10;configuration" target="_blank">
<polygon fill="#c2e0c6" stroke="black" stroke-width="2" points="231,-75.5 0,-75.5 0,-71.5 -4,-71.5 -4,-67.5 0,-67.5 0,-15.5 -4,-15.5 -4,-11.5 0,-11.5 0,-7.5 231,-7.5 231,-75.5"/>
<polyline fill="none" stroke="black" stroke-width="2" points="0,-71.5 4,-71.5 4,-67.5 0,-67.5 "/>
<polyline fill="none" stroke="black" stroke-width="2" points="0,-15.5 4,-15.5 4,-11.5 0,-11.5 "/>
<text text-anchor="middle" x="115.5" y="-60.3" font-family="Times,serif" font-size="14.00">ZcashFoundation/zebra#7045</text>
<text text-anchor="middle" x="115.5" y="-45.3" font-family="Times,serif" font-size="14.00">refactor(docker): allow</text>
<text text-anchor="middle" x="115.5" y="-30.3" font-family="Times,serif" font-size="14.00">more flexible zebra</text>
<text text-anchor="middle" x="115.5" y="-15.3" font-family="Times,serif" font-size="14.00">configuration</text>
</a>
</g>
</g>
<!-- ZcashFoundation/zebra#6752 -->
<g id="node2" class="node open">
<title>ZcashFoundation/zebra#6752</title>
<g id="a_node2"><a xlink:href="https://github.com/ZcashFoundation/zebra/issues/6752" xlink:title="ZcashFoundation/zebra#6752&#10;Pass mining config to the&#10;mining Docker container&#10;at runtime" target="_blank">
<polygon fill="#c2e0c6" stroke="black" points="498,-75.5 267,-75.5 267,-7.5 498,-7.5 498,-75.5"/>
<text text-anchor="middle" x="382.5" y="-60.3" font-family="Times,serif" font-size="14.00">ZcashFoundation/zebra#6752</text>
<text text-anchor="middle" x="382.5" y="-45.3" font-family="Times,serif" font-size="14.00">Pass mining config to the</text>
<text text-anchor="middle" x="382.5" y="-30.3" font-family="Times,serif" font-size="14.00">mining Docker container</text>
<text text-anchor="middle" x="382.5" y="-15.3" font-family="Times,serif" font-size="14.00">at runtime</text>
</a>
</g>
</g>
<!-- ZcashFoundation/zebra#7045&#45;&gt;ZcashFoundation/zebra#6752 -->
<g id="edge1" class="edge">
<title>ZcashFoundation/zebra#7045&#45;&gt;ZcashFoundation/zebra#6752</title>
<path fill="none" stroke="black" d="M231.19,-41.5C239.55,-41.5 247.99,-41.5 256.4,-41.5"/>
<polygon fill="black" stroke="black" points="256.63,-45 266.63,-41.5 256.63,-38 256.63,-45"/>
</g>
<!-- ZcashFoundation/zebra#6611 -->
<g id="node3" class="node open">
<title>ZcashFoundation/zebra#6611</title>
<g id="a_node3"><a xlink:href="https://github.com/ZcashFoundation/zebra/issues/6611" xlink:title="ZcashFoundation/zebra#6611&#10;Document how to switch&#10;from Testnet to Mainnet&#10;in Docker images" target="_blank">
<polygon fill="#a7c2aa" stroke="black" points="765,-75.5 534,-75.5 534,-7.5 765,-7.5 765,-75.5"/>
<text text-anchor="middle" x="649.5" y="-60.3" font-family="Times,serif" font-size="14.00">ZcashFoundation/zebra#6611</text>
<text text-anchor="middle" x="649.5" y="-45.3" font-family="Times,serif" font-size="14.00">Document how to switch</text>
<text text-anchor="middle" x="649.5" y="-30.3" font-family="Times,serif" font-size="14.00">from Testnet to Mainnet</text>
<text text-anchor="middle" x="649.5" y="-15.3" font-family="Times,serif" font-size="14.00">in Docker images</text>
</a>
</g>
</g>
<!-- ZcashFoundation/zebra#6752&#45;&gt;ZcashFoundation/zebra#6611 -->
<g id="edge2" class="edge">
<title>ZcashFoundation/zebra#6752&#45;&gt;ZcashFoundation/zebra#6611</title>
<path fill="none" stroke="black" d="M498.19,-41.5C506.55,-41.5 514.99,-41.5 523.4,-41.5"/>
<polygon fill="black" stroke="black" points="523.63,-45 533.63,-41.5 523.63,-38 523.63,-45"/>
</g>
<!-- ZcashFoundation/zebra#6159 -->
<g id="node4" class="node closed">
<title>ZcashFoundation/zebra#6159</title>
<g id="a_node4"><a xlink:href="https://github.com/ZcashFoundation/zebra/issues/6159" xlink:title="ZcashFoundation/zebra#6159&#10;Documentation: Write a&#10;blog post to share how we&#10;used Zebra and s&#45;nomp to&#10;mine on testnet" target="_blank">
<polygon fill="#fad8c7" stroke="black" points="1032,-83 801,-83 801,0 1032,0 1032,-83"/>
<text text-anchor="middle" x="916.5" y="-67.8" font-family="Times,serif" font-size="14.00">ZcashFoundation/zebra#6159</text>
<text text-anchor="middle" x="916.5" y="-52.8" font-family="Times,serif" font-size="14.00">Documentation: Write a</text>
<text text-anchor="middle" x="916.5" y="-37.8" font-family="Times,serif" font-size="14.00">blog post to share how we</text>
<text text-anchor="middle" x="916.5" y="-22.8" font-family="Times,serif" font-size="14.00">used Zebra and s&#45;nomp to</text>
<text text-anchor="middle" x="916.5" y="-7.8" font-family="Times,serif" font-size="14.00">mine on testnet</text>
</a>
</g>
</g>
<!-- ZcashFoundation/zebra#6611&#45;&gt;ZcashFoundation/zebra#6159 -->
<g id="edge3" class="edge">
<title>ZcashFoundation/zebra#6611&#45;&gt;ZcashFoundation/zebra#6159</title>
<path fill="none" stroke="black" d="M765.19,-41.5C773.55,-41.5 781.99,-41.5 790.4,-41.5"/>
<polygon fill="black" stroke="black" points="790.63,-45 800.63,-41.5 790.63,-38 790.63,-45"/>
</g>
<!-- ZcashFoundation/zebra#6025 -->
<g id="node5" class="node open">
<title>ZcashFoundation/zebra#6025</title>
<g id="a_node5"><a xlink:href="https://github.com/ZcashFoundation/zebra/issues/6025" xlink:title="ZcashFoundation/zebra#6025&#10;Add a manually&#45;triggered&#10;workflow for mining a&#10;block on testnet" target="_blank">
<polygon fill="#c2e0c6" stroke="black" points="498,-169.5 267,-169.5 267,-101.5 498,-101.5 498,-169.5"/>
<text text-anchor="middle" x="382.5" y="-154.3" font-family="Times,serif" font-size="14.00">ZcashFoundation/zebra#6025</text>
<text text-anchor="middle" x="382.5" y="-139.3" font-family="Times,serif" font-size="14.00">Add a manually&#45;triggered</text>
<text text-anchor="middle" x="382.5" y="-124.3" font-family="Times,serif" font-size="14.00">workflow for mining a</text>
<text text-anchor="middle" x="382.5" y="-109.3" font-family="Times,serif" font-size="14.00">block on testnet</text>
</a>
</g>
</g>
<!-- ZcashFoundation/zebra#6118 -->
<g id="node6" class="node open">
<title>ZcashFoundation/zebra#6118</title>
<g id="a_node6"><a xlink:href="https://github.com/ZcashFoundation/zebra/issues/6118" xlink:title="ZcashFoundation/zebra#6118&#10;Create a Docker images&#10;and docker&#45;compose for&#10;mining with Zebra on&#10;Testnet" target="_blank">
<polygon fill="#c2e0c6" stroke="black" stroke-width="2" points="231,-177 0,-177 0,-94 231,-94 231,-177"/>
<text text-anchor="middle" x="115.5" y="-161.8" font-family="Times,serif" font-size="14.00">ZcashFoundation/zebra#6118</text>
<text text-anchor="middle" x="115.5" y="-146.8" font-family="Times,serif" font-size="14.00">Create a Docker images</text>
<text text-anchor="middle" x="115.5" y="-131.8" font-family="Times,serif" font-size="14.00">and docker&#45;compose for</text>
<text text-anchor="middle" x="115.5" y="-116.8" font-family="Times,serif" font-size="14.00">mining with Zebra on</text>
<text text-anchor="middle" x="115.5" y="-101.8" font-family="Times,serif" font-size="14.00">Testnet</text>
</a>
</g>
</g>
<!-- ZcashFoundation/zebra#6118&#45;&gt;ZcashFoundation/zebra#6025 -->
<g id="edge4" class="edge">
<title>ZcashFoundation/zebra#6118&#45;&gt;ZcashFoundation/zebra#6025</title>
<path fill="none" stroke="black" d="M231.19,-135.5C239.55,-135.5 247.99,-135.5 256.4,-135.5"/>
<polygon fill="black" stroke="black" points="256.63,-139 266.63,-135.5 256.63,-132 256.63,-139"/>
</g>
<!-- ZcashFoundation/zebra#4554 -->
<g id="node7" class="node open">
<title>ZcashFoundation/zebra#4554</title>
<g id="a_node7"><a xlink:href="https://github.com/ZcashFoundation/zebra/issues/4554" xlink:title="ZcashFoundation/zebra#4554&#10;benchmarks: create a&#10;ticket if zebrad mainnet&#10;sync time increases&#10;significantly" target="_blank">
<polygon fill="#c2e0c6" stroke="black" stroke-width="2" points="231,-278 0,-278 0,-195 231,-195 231,-278"/>
<text text-anchor="middle" x="115.5" y="-262.8" font-family="Times,serif" font-size="14.00">ZcashFoundation/zebra#4554</text>
<text text-anchor="middle" x="115.5" y="-247.8" font-family="Times,serif" font-size="14.00">benchmarks: create a</text>
<text text-anchor="middle" x="115.5" y="-232.8" font-family="Times,serif" font-size="14.00">ticket if zebrad mainnet</text>
<text text-anchor="middle" x="115.5" y="-217.8" font-family="Times,serif" font-size="14.00">sync time increases</text>
<text text-anchor="middle" x="115.5" y="-202.8" font-family="Times,serif" font-size="14.00">significantly</text>
</a>
</g>
</g>
</g>
</svg>
