<?xml version="1.0" encoding="UTF-8" standalone="no"?>
<?xml-stylesheet href="zcash-dag.css" type="text/css"?>
<!DOCTYPE svg PUBLIC "-//W3C//DTD SVG 1.1//EN"
 "http://www.w3.org/Graphics/SVG/1.1/DTD/svg11.dtd">
<!-- Generated by graphviz version 2.40.1 (20161225.0304)
 -->
<!-- Pages: 1 -->
<svg width="1997pt" height="825pt"
 viewBox="0.00 0.00 1996.50 825.00" xmlns="http://www.w3.org/2000/svg" xmlns:xlink="http://www.w3.org/1999/xlink">
<g id="graph0" class="graph" transform="scale(1 1) rotate(0) translate(4 821)">
<polygon fill="#ffffff" stroke="transparent" points="-4,4 -4,-821 1992.5,-821 1992.5,4 -4,4"/>
<g id="clust1" class="cluster">
<title>cluster_4</title>
<polygon fill="none" stroke="#0000ff" points="1242.5,-124 1242.5,-430 1735.5,-430 1735.5,-124 1242.5,-124"/>
<text text-anchor="middle" x="1489" y="-414.8" font-family="Times,serif" font-size="14.00" fill="#000000">Epic: v9/v10</text>
</g>
<g id="clust2" class="cluster">
<title>cluster_1</title>
<polygon fill="none" stroke="#0000ff" points="998.5,0 998.5,-219 1222.5,-219 1222.5,0 998.5,0"/>
<text text-anchor="middle" x="1110.5" y="-203.8" font-family="Times,serif" font-size="14.00" fill="#000000">Epic: Remaining Curves</text>
</g>
<g id="clust3" class="cluster">
<title>cluster_0</title>
<polygon fill="none" stroke="#0000ff" points="0,-227 0,-406 1222.5,-406 1222.5,-227 0,-227"/>
<text text-anchor="middle" x="611.25" y="-390.8" font-family="Times,serif" font-size="14.00" fill="#000000">Epic: v8</text>
</g>
<g id="clust4" class="cluster">
<title>cluster_2</title>
<polygon fill="none" stroke="#0000ff" points="0,-477 0,-584 477,-584 477,-477 0,-477"/>
<text text-anchor="middle" x="238.5" y="-568.8" font-family="Times,serif" font-size="14.00" fill="#000000">Epic: DKG</text>
</g>
<g id="clust5" class="cluster">
<title>cluster_3</title>
<polygon fill="none" stroke="#0000ff" points="1502.5,-438 1502.5,-687 1988.5,-687 1988.5,-438 1502.5,-438"/>
<text text-anchor="middle" x="1745.5" y="-671.8" font-family="Times,serif" font-size="14.00" fill="#000000">Epic: Re&#45;randomizable FROST</text>
</g>
<!-- ZcashFoundation/frost#79 -->
<g id="node1" class="node open">
<title>ZcashFoundation/frost#79</title>
<g id="a_node1"><a xlink:href="https://github.com/ZcashFoundation/frost/issues/79" xlink:title="ZcashFoundation/frost#79&#10;Publish `frost&#45;` crates" target="_blank">
<polygon fill="#c2e0c6" stroke="#000000" points="1723,-170 1515,-170 1515,-132 1723,-132 1723,-170"/>
<text text-anchor="middle" x="1619" y="-154.8" font-family="Times,serif" font-size="14.00" fill="#000000">ZcashFoundation/frost#79</text>
<text text-anchor="middle" x="1619" y="-139.8" font-family="Times,serif" font-size="14.00" fill="#000000">Publish `frost&#45;` crates</text>
</a>
</g>
</g>
<!-- ZcashFoundation/frost#138 -->
<g id="node2" class="node open">
<title>ZcashFoundation/frost#138</title>
<g id="a_node2"><a xlink:href="https://github.com/ZcashFoundation/frost/issues/138" xlink:title="ZcashFoundation/frost#138&#10;When hashing an&#10;identifier, serialize the&#10;scalar entirely, instead&#10;of using 2 bytes" target="_blank">
<polygon fill="#c2e0c6" stroke="#000000" points="1471,-342.5 1254,-342.5 1254,-259.5 1471,-259.5 1471,-342.5"/>
<text text-anchor="middle" x="1362.5" y="-327.3" font-family="Times,serif" font-size="14.00" fill="#000000">ZcashFoundation/frost#138</text>
<text text-anchor="middle" x="1362.5" y="-312.3" font-family="Times,serif" font-size="14.00" fill="#000000">When hashing an</text>
<text text-anchor="middle" x="1362.5" y="-297.3" font-family="Times,serif" font-size="14.00" fill="#000000">identifier, serialize the</text>
<text text-anchor="middle" x="1362.5" y="-282.3" font-family="Times,serif" font-size="14.00" fill="#000000">scalar entirely, instead</text>
<text text-anchor="middle" x="1362.5" y="-267.3" font-family="Times,serif" font-size="14.00" fill="#000000">of using 2 bytes</text>
</a>
</g>
</g>
<!-- ZcashFoundation/frost#138&#45;&gt;ZcashFoundation/frost#79 -->
<g id="edge1" class="edge">
<title>ZcashFoundation/frost#138&#45;&gt;ZcashFoundation/frost#79</title>
<path fill="none" stroke="#000000" d="M1430.4,-259.34C1445.8,-248.24 1461.5,-235.54 1474.5,-222 1490.3,-205.58 1483.9,-192.15 1502.5,-179 1504.4,-177.64 1506.4,-176.34 1508.5,-175.1"/>
<polygon fill="#000000" stroke="#000000" points="1510.6048,-177.9382 1517.7,-170.07 1507.2467,-171.7963 1510.6048,-177.9382"/>
</g>
<!-- ZcashFoundation/frost#102 -->
<g id="node3" class="node open">
<title>ZcashFoundation/frost#102</title>
<g id="a_node3"><a xlink:href="https://github.com/ZcashFoundation/frost/issues/102" xlink:title="ZcashFoundation/frost#102&#10;frost&#45;core: add and use C&#10;iphersuite.identifier_to_&#10;scalar()" target="_blank">
<polygon fill="#c2e0c6" stroke="#000000" points="1727.5,-256 1510.5,-256 1510.5,-188 1727.5,-188 1727.5,-256"/>
<text text-anchor="middle" x="1619" y="-240.8" font-family="Times,serif" font-size="14.00" fill="#000000">ZcashFoundation/frost#102</text>
<text text-anchor="middle" x="1619" y="-225.8" font-family="Times,serif" font-size="14.00" fill="#000000">frost&#45;core: add and use C</text>
<text text-anchor="middle" x="1619" y="-210.8" font-family="Times,serif" font-size="14.00" fill="#000000">iphersuite.identifier_to_</text>
<text text-anchor="middle" x="1619" y="-195.8" font-family="Times,serif" font-size="14.00" fill="#000000">scalar()</text>
</a>
</g>
</g>
<!-- ZcashFoundation/frost#138&#45;&gt;ZcashFoundation/frost#102 -->
<g id="edge2" class="edge">
<title>ZcashFoundation/frost#138&#45;&gt;ZcashFoundation/frost#102</title>
<path fill="none" stroke="#000000" d="M1471.3,-267.5C1481,-264.5 1490.9,-261.46 1500.7,-258.44"/>
<polygon fill="#000000" stroke="#000000" points="1501.9684,-261.7119 1510.5,-255.43 1499.9131,-255.0204 1501.9684,-261.7119"/>
</g>
<!-- ZcashFoundation/frost#134 -->
<g id="node4" class="node open">
<title>ZcashFoundation/frost#134</title>
<g id="a_node4"><a xlink:href="https://github.com/ZcashFoundation/frost/issues/134" xlink:title="ZcashFoundation/frost#134&#10;Reject identity in&#10;DeserializeElement" target="_blank">
<polygon fill="#c2e0c6" stroke="#000000" points="1727.5,-327.5 1510.5,-327.5 1510.5,-274.5 1727.5,-274.5 1727.5,-327.5"/>
<text text-anchor="middle" x="1619" y="-312.3" font-family="Times,serif" font-size="14.00" fill="#000000">ZcashFoundation/frost#134</text>
<text text-anchor="middle" x="1619" y="-297.3" font-family="Times,serif" font-size="14.00" fill="#000000">Reject identity in</text>
<text text-anchor="middle" x="1619" y="-282.3" font-family="Times,serif" font-size="14.00" fill="#000000">DeserializeElement</text>
</a>
</g>
</g>
<!-- ZcashFoundation/frost#138&#45;&gt;ZcashFoundation/frost#134 -->
<g id="edge3" class="edge">
<title>ZcashFoundation/frost#138&#45;&gt;ZcashFoundation/frost#134</title>
<path fill="none" stroke="#000000" d="M1471.3,-301C1480.9,-301 1490.7,-301 1500.4,-301"/>
<polygon fill="#000000" stroke="#000000" points="1500.5,-304.5001 1510.5,-301 1500.5,-297.5001 1500.5,-304.5001"/>
</g>
<!-- ZcashFoundation/frost#133 -->
<g id="node5" class="node open">
<title>ZcashFoundation/frost#133</title>
<g id="a_node5"><a xlink:href="https://github.com/ZcashFoundation/frost/issues/133" xlink:title="ZcashFoundation/frost#133&#10;Use nonce_generate test&#10;vectors" target="_blank">
<polygon fill="#c2e0c6" stroke="#000000" points="1727.5,-398.5 1510.5,-398.5 1510.5,-345.5 1727.5,-345.5 1727.5,-398.5"/>
<text text-anchor="middle" x="1619" y="-383.3" font-family="Times,serif" font-size="14.00" fill="#000000">ZcashFoundation/frost#133</text>
<text text-anchor="middle" x="1619" y="-368.3" font-family="Times,serif" font-size="14.00" fill="#000000">Use nonce_generate test</text>
<text text-anchor="middle" x="1619" y="-353.3" font-family="Times,serif" font-size="14.00" fill="#000000">vectors</text>
</a>
</g>
</g>
<!-- ZcashFoundation/frost#138&#45;&gt;ZcashFoundation/frost#133 -->
<g id="edge4" class="edge">
<title>ZcashFoundation/frost#138&#45;&gt;ZcashFoundation/frost#133</title>
<path fill="none" stroke="#000000" d="M1471.3,-331.11C1485.1,-334.94 1499.3,-338.86 1513.1,-342.68"/>
<polygon fill="#000000" stroke="#000000" points="1512.4274,-346.1259 1523,-345.44 1514.3073,-339.383 1512.4274,-346.1259"/>
</g>
<!-- ZcashFoundation/frost#120 -->
<g id="node20" class="node open">
<title>ZcashFoundation/frost#120</title>
<g id="a_node20"><a xlink:href="https://github.com/ZcashFoundation/frost/issues/120" xlink:title="ZcashFoundation/frost#120&#10;Update Re&#45;randomizable&#10;FROST implementation to&#10;V10" target="_blank">
<polygon fill="#c2e0c6" stroke="#000000" points="1727.5,-570 1510.5,-570 1510.5,-502 1727.5,-502 1727.5,-570"/>
<text text-anchor="middle" x="1619" y="-554.8" font-family="Times,serif" font-size="14.00" fill="#000000">ZcashFoundation/frost#120</text>
<text text-anchor="middle" x="1619" y="-539.8" font-family="Times,serif" font-size="14.00" fill="#000000">Update Re&#45;randomizable</text>
<text text-anchor="middle" x="1619" y="-524.8" font-family="Times,serif" font-size="14.00" fill="#000000">FROST implementation to</text>
<text text-anchor="middle" x="1619" y="-509.8" font-family="Times,serif" font-size="14.00" fill="#000000">V10</text>
</a>
</g>
</g>
<!-- ZcashFoundation/frost#138&#45;&gt;ZcashFoundation/frost#120 -->
<g id="edge17" class="edge">
<title>ZcashFoundation/frost#138&#45;&gt;ZcashFoundation/frost#120</title>
<path fill="none" stroke="#000000" d="M1383.3,-342.55C1406.8,-385.7 1448.9,-452.46 1502.5,-493 1504.1,-494.19 1505.7,-495.36 1507.3,-496.49"/>
<polygon fill="#000000" stroke="#000000" points="1505.4885,-499.486 1515.8,-501.92 1509.257,-493.5869 1505.4885,-499.486"/>
</g>
<!-- ZcashFoundation/frost#127 -->
<g id="node6" class="node open">
<title>ZcashFoundation/frost#127</title>
<g id="a_node6"><a xlink:href="https://github.com/ZcashFoundation/frost/issues/127" xlink:title="ZcashFoundation/frost#127&#10;Dedupe `SharePackage` and&#10;`SecretShare`" target="_blank">
<polygon fill="#c2e0c6" stroke="#000000" stroke-width="2" points="1474.5,-213.5 1250.5,-213.5 1250.5,-160.5 1474.5,-160.5 1474.5,-213.5"/>
<text text-anchor="middle" x="1362.5" y="-198.3" font-family="Times,serif" font-size="14.00" fill="#000000">ZcashFoundation/frost#127</text>
<text text-anchor="middle" x="1362.5" y="-183.3" font-family="Times,serif" font-size="14.00" fill="#000000">Dedupe `SharePackage` and</text>
<text text-anchor="middle" x="1362.5" y="-168.3" font-family="Times,serif" font-size="14.00" fill="#000000">`SecretShare`</text>
</a>
</g>
</g>
<!-- ZcashFoundation/frost#70 -->
<g id="node7" class="node open">
<title>ZcashFoundation/frost#70</title>
<g id="a_node7"><a xlink:href="https://github.com/ZcashFoundation/frost/issues/70" xlink:title="ZcashFoundation/frost#70&#10;Add Ed25519 support" target="_blank">
<polygon fill="#c2e0c6" stroke="#000000" points="1214.5,-188 1006.5,-188 1006.5,-150 1214.5,-150 1214.5,-188"/>
<text text-anchor="middle" x="1110.5" y="-172.8" font-family="Times,serif" font-size="14.00" fill="#000000">ZcashFoundation/frost#70</text>
<text text-anchor="middle" x="1110.5" y="-157.8" font-family="Times,serif" font-size="14.00" fill="#000000">Add Ed25519 support</text>
</a>
</g>
</g>
<!-- ZcashFoundation/frost#19 -->
<g id="node8" class="node open">
<title>ZcashFoundation/frost#19</title>
<g id="a_node8"><a xlink:href="https://github.com/ZcashFoundation/frost/issues/19" xlink:title="ZcashFoundation/frost#19&#10;`frost&#45;secp256k1`:&#10;implement FROST on&#10;Secp256k1 curve" target="_blank">
<polygon fill="#c2e0c6" stroke="#000000" points="1214.5,-132 1006.5,-132 1006.5,-64 1214.5,-64 1214.5,-132"/>
<text text-anchor="middle" x="1110.5" y="-116.8" font-family="Times,serif" font-size="14.00" fill="#000000">ZcashFoundation/frost#19</text>
<text text-anchor="middle" x="1110.5" y="-101.8" font-family="Times,serif" font-size="14.00" fill="#000000">`frost&#45;secp256k1`:</text>
<text text-anchor="middle" x="1110.5" y="-86.8" font-family="Times,serif" font-size="14.00" fill="#000000">implement FROST on</text>
<text text-anchor="middle" x="1110.5" y="-71.8" font-family="Times,serif" font-size="14.00" fill="#000000">Secp256k1 curve</text>
</a>
</g>
</g>
<!-- ZcashFoundation/frost#71 -->
<g id="node9" class="node open">
<title>ZcashFoundation/frost#71</title>
<g id="a_node9"><a xlink:href="https://github.com/ZcashFoundation/frost/issues/71" xlink:title="ZcashFoundation/frost#71&#10;Add Ed448 support" target="_blank">
<polygon fill="#c2e0c6" stroke="#000000" points="1214.5,-46 1006.5,-46 1006.5,-8 1214.5,-8 1214.5,-46"/>
<text text-anchor="middle" x="1110.5" y="-30.8" font-family="Times,serif" font-size="14.00" fill="#000000">ZcashFoundation/frost#71</text>
<text text-anchor="middle" x="1110.5" y="-15.8" font-family="Times,serif" font-size="14.00" fill="#000000">Add Ed448 support</text>
</a>
</g>
</g>
<!-- ZcashFoundation/frost#86 -->
<g id="node10" class="node open">
<title>ZcashFoundation/frost#86</title>
<g id="a_node10"><a xlink:href="https://github.com/ZcashFoundation/frost/issues/86" xlink:title="ZcashFoundation/frost#86&#10;frost&#45;core: update for&#10;spec version 6&amp;7" target="_blank">
<polygon fill="#c2e0c6" stroke="#000000" points="469,-349.5 261,-349.5 261,-296.5 469,-296.5 469,-349.5"/>
<text text-anchor="middle" x="365" y="-334.3" font-family="Times,serif" font-size="14.00" fill="#000000">ZcashFoundation/frost#86</text>
<text text-anchor="middle" x="365" y="-319.3" font-family="Times,serif" font-size="14.00" fill="#000000">frost&#45;core: update for</text>
<text text-anchor="middle" x="365" y="-304.3" font-family="Times,serif" font-size="14.00" fill="#000000">spec version 6&amp;7</text>
</a>
</g>
</g>
<!-- ZcashFoundation/frost#101 -->
<g id="node11" class="node open">
<title>ZcashFoundation/frost#101</title>
<g id="a_node11"><a xlink:href="https://github.com/ZcashFoundation/frost/issues/101" xlink:title="ZcashFoundation/frost#101&#10;frost&#45;core: support H4&#10;and H5 domain&#45;separated&#10;hashes per&#45;ciphersuite" target="_blank">
<polygon fill="#c2e0c6" stroke="#000000" points="726.5,-339 509.5,-339 509.5,-271 726.5,-271 726.5,-339"/>
<text text-anchor="middle" x="618" y="-323.8" font-family="Times,serif" font-size="14.00" fill="#000000">ZcashFoundation/frost#101</text>
<text text-anchor="middle" x="618" y="-308.8" font-family="Times,serif" font-size="14.00" fill="#000000">frost&#45;core: support H4</text>
<text text-anchor="middle" x="618" y="-293.8" font-family="Times,serif" font-size="14.00" fill="#000000">and H5 domain&#45;separated</text>
<text text-anchor="middle" x="618" y="-278.8" font-family="Times,serif" font-size="14.00" fill="#000000">hashes per&#45;ciphersuite</text>
</a>
</g>
</g>
<!-- ZcashFoundation/frost#86&#45;&gt;ZcashFoundation/frost#101 -->
<g id="edge5" class="edge">
<title>ZcashFoundation/frost#86&#45;&gt;ZcashFoundation/frost#101</title>
<path fill="none" stroke="#000000" d="M469,-315.6C479.02,-314.89 489.23,-314.16 499.37,-313.44"/>
<polygon fill="#000000" stroke="#000000" points="499.7636,-316.9209 509.49,-312.72 499.2668,-309.9386 499.7636,-316.9209"/>
</g>
<!-- ZcashFoundation/frost#97 -->
<g id="node12" class="node open">
<title>ZcashFoundation/frost#97</title>
<g id="a_node12"><a xlink:href="https://github.com/ZcashFoundation/frost/issues/97" xlink:title="ZcashFoundation/frost#97&#10;frost&#45;core: update to&#10;spec v8" target="_blank">
<polygon fill="#c2e0c6" stroke="#000000" points="970.5,-288.5 762.5,-288.5 762.5,-235.5 970.5,-235.5 970.5,-288.5"/>
<text text-anchor="middle" x="866.5" y="-273.3" font-family="Times,serif" font-size="14.00" fill="#000000">ZcashFoundation/frost#97</text>
<text text-anchor="middle" x="866.5" y="-258.3" font-family="Times,serif" font-size="14.00" fill="#000000">frost&#45;core: update to</text>
<text text-anchor="middle" x="866.5" y="-243.3" font-family="Times,serif" font-size="14.00" fill="#000000">spec v8</text>
</a>
</g>
</g>
<!-- ZcashFoundation/frost#101&#45;&gt;ZcashFoundation/frost#97 -->
<g id="edge6" class="edge">
<title>ZcashFoundation/frost#101&#45;&gt;ZcashFoundation/frost#97</title>
<path fill="none" stroke="#000000" d="M726.63,-286.2C735.18,-284.72 743.82,-283.23 752.4,-281.74"/>
<polygon fill="#000000" stroke="#000000" points="753.1613,-285.1604 762.42,-280.01 751.9703,-278.2625 753.1613,-285.1604"/>
</g>
<!-- ZcashFoundation/frost#97&#45;&gt;ZcashFoundation/frost#70 -->
<g id="edge12" class="edge">
<title>ZcashFoundation/frost#97&#45;&gt;ZcashFoundation/frost#70</title>
<path fill="none" stroke="#000000" d="M936.09,-235.47C972.4,-221.64 1016.4,-204.88 1051.1,-191.66"/>
<polygon fill="#000000" stroke="#000000" points="1052.508,-194.8689 1060.6,-188.03 1050.0094,-188.33 1052.508,-194.8689"/>
</g>
<!-- ZcashFoundation/frost#97&#45;&gt;ZcashFoundation/frost#19 -->
<g id="edge13" class="edge">
<title>ZcashFoundation/frost#97&#45;&gt;ZcashFoundation/frost#19</title>
<path fill="none" stroke="#000000" d="M889.96,-235.26C914.7,-208.41 955.94,-167.34 998.5,-141 1000.7,-139.63 1003,-138.3 1005.3,-136.99"/>
<polygon fill="#000000" stroke="#000000" points="1007.1707,-139.9573 1014.3,-132.12 1003.8393,-133.8009 1007.1707,-139.9573"/>
</g>
<!-- ZcashFoundation/frost#97&#45;&gt;ZcashFoundation/frost#71 -->
<g id="edge14" class="edge">
<title>ZcashFoundation/frost#97&#45;&gt;ZcashFoundation/frost#71</title>
<path fill="none" stroke="#000000" d="M875.86,-235.5C892.98,-191.03 933.65,-101.7 998.5,-55 1000.4,-53.644 1002.3,-52.353 1004.3,-51.125"/>
<polygon fill="#000000" stroke="#000000" points="1006.2562,-54.0422 1013.3,-46.128 1002.8582,-47.9223 1006.2562,-54.0422"/>
</g>
<!-- ZcashFoundation/frost#99 -->
<g id="node13" class="node open">
<title>ZcashFoundation/frost#99</title>
<g id="a_node13"><a xlink:href="https://github.com/ZcashFoundation/frost/issues/99" xlink:title="ZcashFoundation/frost#99&#10;frost&#45;p256: update to use&#10;frost&#45;core v8" target="_blank">
<polygon fill="#c2e0c6" stroke="#000000" points="1214.5,-288.5 1006.5,-288.5 1006.5,-235.5 1214.5,-235.5 1214.5,-288.5"/>
<text text-anchor="middle" x="1110.5" y="-273.3" font-family="Times,serif" font-size="14.00" fill="#000000">ZcashFoundation/frost#99</text>
<text text-anchor="middle" x="1110.5" y="-258.3" font-family="Times,serif" font-size="14.00" fill="#000000">frost&#45;p256: update to use</text>
<text text-anchor="middle" x="1110.5" y="-243.3" font-family="Times,serif" font-size="14.00" fill="#000000">frost&#45;core v8</text>
</a>
</g>
</g>
<!-- ZcashFoundation/frost#97&#45;&gt;ZcashFoundation/frost#99 -->
<g id="edge7" class="edge">
<title>ZcashFoundation/frost#97&#45;&gt;ZcashFoundation/frost#99</title>
<path fill="none" stroke="#000000" d="M970.69,-262C979.07,-262 987.56,-262 996,-262"/>
<polygon fill="#000000" stroke="#000000" points="996.3,-265.5001 1006.3,-262 996.3,-258.5001 996.3,-265.5001"/>
</g>
<!-- ZcashFoundation/frost#98 -->
<g id="node14" class="node open">
<title>ZcashFoundation/frost#98</title>
<g id="a_node14"><a xlink:href="https://github.com/ZcashFoundation/frost/issues/98" xlink:title="ZcashFoundation/frost#98&#10;frost&#45;ristretto255:&#10;update to use frost&#45;core&#10;v8" target="_blank">
<polygon fill="#c2e0c6" stroke="#000000" points="1214.5,-375 1006.5,-375 1006.5,-307 1214.5,-307 1214.5,-375"/>
<text text-anchor="middle" x="1110.5" y="-359.8" font-family="Times,serif" font-size="14.00" fill="#000000">ZcashFoundation/frost#98</text>
<text text-anchor="middle" x="1110.5" y="-344.8" font-family="Times,serif" font-size="14.00" fill="#000000">frost&#45;ristretto255:</text>
<text text-anchor="middle" x="1110.5" y="-329.8" font-family="Times,serif" font-size="14.00" fill="#000000">update to use frost&#45;core</text>
<text text-anchor="middle" x="1110.5" y="-314.8" font-family="Times,serif" font-size="14.00" fill="#000000">v8</text>
</a>
</g>
</g>
<!-- ZcashFoundation/frost#97&#45;&gt;ZcashFoundation/frost#98 -->
<g id="edge8" class="edge">
<title>ZcashFoundation/frost#97&#45;&gt;ZcashFoundation/frost#98</title>
<path fill="none" stroke="#000000" d="M948.43,-288.53C963.94,-293.55 980.42,-298.88 996.7,-304.15"/>
<polygon fill="#000000" stroke="#000000" points="995.7083,-307.5077 1006.3,-307.25 997.8594,-300.8464 995.7083,-307.5077"/>
</g>
<!-- ZcashFoundation/frost#99&#45;&gt;ZcashFoundation/frost#138 -->
<g id="edge15" class="edge">
<title>ZcashFoundation/frost#99&#45;&gt;ZcashFoundation/frost#138</title>
<path fill="none" stroke="#000000" d="M1214.8,-278.14C1224.4,-279.62 1234.1,-281.13 1243.7,-282.62"/>
<polygon fill="#000000" stroke="#000000" points="1243.3848,-286.1125 1253.8,-284.17 1244.4467,-279.1935 1243.3848,-286.1125"/>
</g>
<!-- ZcashFoundation/frost#98&#45;&gt;ZcashFoundation/frost#138 -->
<g id="edge16" class="edge">
<title>ZcashFoundation/frost#98&#45;&gt;ZcashFoundation/frost#138</title>
<path fill="none" stroke="#000000" d="M1214.8,-324.44C1224.4,-322.93 1234.1,-321.38 1243.7,-319.85"/>
<polygon fill="#000000" stroke="#000000" points="1244.466,-323.2726 1253.8,-318.26 1243.3773,-316.3578 1244.466,-323.2726"/>
</g>
<!-- ZcashFoundation/frost#92 -->
<g id="node15" class="node open">
<title>ZcashFoundation/frost#92</title>
<g id="a_node15"><a xlink:href="https://github.com/ZcashFoundation/frost/issues/92" xlink:title="ZcashFoundation/frost#92&#10;v6/v7: Use per&#45;signer&#10;values of rho to mitigate&#10;protocol malleability" target="_blank">
<polygon fill="#c2e0c6" stroke="#000000" stroke-width="2" points="216,-375 8,-375 8,-307 216,-307 216,-375"/>
<text text-anchor="middle" x="112" y="-359.8" font-family="Times,serif" font-size="14.00" fill="#000000">ZcashFoundation/frost#92</text>
<text text-anchor="middle" x="112" y="-344.8" font-family="Times,serif" font-size="14.00" fill="#000000">v6/v7: Use per&#45;signer</text>
<text text-anchor="middle" x="112" y="-329.8" font-family="Times,serif" font-size="14.00" fill="#000000">values of rho to mitigate</text>
<text text-anchor="middle" x="112" y="-314.8" font-family="Times,serif" font-size="14.00" fill="#000000">protocol malleability</text>
</a>
</g>
</g>
<!-- ZcashFoundation/frost#92&#45;&gt;ZcashFoundation/frost#86 -->
<g id="edge9" class="edge">
<title>ZcashFoundation/frost#92&#45;&gt;ZcashFoundation/frost#86</title>
<path fill="none" stroke="#000000" d="M216,-333.6C227.49,-332.78 239.24,-331.95 250.84,-331.12"/>
<polygon fill="#000000" stroke="#000000" points="251.2628,-334.5989 260.99,-330.4 250.7674,-327.6164 251.2628,-334.5989"/>
</g>
<!-- ZcashFoundation/frost#95 -->
<g id="node16" class="node open">
<title>ZcashFoundation/frost#95</title>
<g id="a_node16"><a xlink:href="https://github.com/ZcashFoundation/frost/issues/95" xlink:title="ZcashFoundation/frost#95&#10;Flesh out all rustdoc in&#10;frost&#45;p256 public API" target="_blank">
<polygon fill="#c2e0c6" stroke="#000000" stroke-width="2" points="216,-288.5 8,-288.5 8,-235.5 216,-235.5 216,-288.5"/>
<text text-anchor="middle" x="112" y="-273.3" font-family="Times,serif" font-size="14.00" fill="#000000">ZcashFoundation/frost#95</text>
<text text-anchor="middle" x="112" y="-258.3" font-family="Times,serif" font-size="14.00" fill="#000000">Flesh out all rustdoc in</text>
<text text-anchor="middle" x="112" y="-243.3" font-family="Times,serif" font-size="14.00" fill="#000000">frost&#45;p256 public API</text>
</a>
</g>
</g>
<!-- ZcashFoundation/frost#35 -->
<g id="node17" class="node open">
<title>ZcashFoundation/frost#35</title>
<g id="a_node17"><a xlink:href="https://github.com/ZcashFoundation/frost/issues/35" xlink:title="ZcashFoundation/frost#35&#10;frost&#45;core: Implement the&#10;generic DKG" target="_blank">
<polygon fill="#c2e0c6" stroke="#000000" stroke-width="2" points="216,-545.5 8,-545.5 8,-492.5 216,-492.5 216,-545.5"/>
<text text-anchor="middle" x="112" y="-530.3" font-family="Times,serif" font-size="14.00" fill="#000000">ZcashFoundation/frost#35</text>
<text text-anchor="middle" x="112" y="-515.3" font-family="Times,serif" font-size="14.00" fill="#000000">frost&#45;core: Implement the</text>
<text text-anchor="middle" x="112" y="-500.3" font-family="Times,serif" font-size="14.00" fill="#000000">generic DKG</text>
</a>
</g>
</g>
<!-- ZcashFoundation/frost#63 -->
<g id="node18" class="node open">
<title>ZcashFoundation/frost#63</title>
<g id="a_node18"><a xlink:href="https://github.com/ZcashFoundation/frost/issues/63" xlink:title="ZcashFoundation/frost#63&#10;frost&#45;ristretto255:&#10;implement `frost&#45;core`&#39;s&#10;DKG concretely" target="_blank">
<polygon fill="#c2e0c6" stroke="#000000" points="469,-553 261,-553 261,-485 469,-485 469,-553"/>
<text text-anchor="middle" x="365" y="-537.8" font-family="Times,serif" font-size="14.00" fill="#000000">ZcashFoundation/frost#63</text>
<text text-anchor="middle" x="365" y="-522.8" font-family="Times,serif" font-size="14.00" fill="#000000">frost&#45;ristretto255:</text>
<text text-anchor="middle" x="365" y="-507.8" font-family="Times,serif" font-size="14.00" fill="#000000">implement `frost&#45;core`&#39;s</text>
<text text-anchor="middle" x="365" y="-492.8" font-family="Times,serif" font-size="14.00" fill="#000000">DKG concretely</text>
</a>
</g>
</g>
<!-- ZcashFoundation/frost#35&#45;&gt;ZcashFoundation/frost#63 -->
<g id="edge10" class="edge">
<title>ZcashFoundation/frost#35&#45;&gt;ZcashFoundation/frost#63</title>
<path fill="none" stroke="#000000" d="M216,-519C227.49,-519 239.24,-519 250.84,-519"/>
<polygon fill="#000000" stroke="#000000" points="250.99,-522.5001 260.99,-519 250.99,-515.5001 250.99,-522.5001"/>
</g>
<!-- ZcashFoundation/frost#119 -->
<g id="node19" class="node open">
<title>ZcashFoundation/frost#119</title>
<g id="a_node19"><a xlink:href="https://github.com/ZcashFoundation/frost/issues/119" xlink:title="ZcashFoundation/frost#119&#10;Review and officially&#10;submit the Re&#45;&#10;randomizable FROST ZIP" target="_blank">
<polygon fill="#c2e0c6" stroke="#000000" points="1727.5,-656 1510.5,-656 1510.5,-588 1727.5,-588 1727.5,-656"/>
<text text-anchor="middle" x="1619" y="-640.8" font-family="Times,serif" font-size="14.00" fill="#000000">ZcashFoundation/frost#119</text>
<text text-anchor="middle" x="1619" y="-625.8" font-family="Times,serif" font-size="14.00" fill="#000000">Review and officially</text>
<text text-anchor="middle" x="1619" y="-610.8" font-family="Times,serif" font-size="14.00" fill="#000000">submit the Re&#45;</text>
<text text-anchor="middle" x="1619" y="-595.8" font-family="Times,serif" font-size="14.00" fill="#000000">randomizable FROST ZIP</text>
</a>
</g>
</g>
<!-- ZcashFoundation/frost#121 -->
<g id="node21" class="node open">
<title>ZcashFoundation/frost#121</title>
<g id="a_node21"><a xlink:href="https://github.com/ZcashFoundation/frost/issues/121" xlink:title="ZcashFoundation/frost#121&#10;Organize the Re&#45;&#10;randomizable FROST&#10;implementation" target="_blank">
<polygon fill="#c2e0c6" stroke="#000000" points="1980.5,-570 1763.5,-570 1763.5,-502 1980.5,-502 1980.5,-570"/>
<text text-anchor="middle" x="1872" y="-554.8" font-family="Times,serif" font-size="14.00" fill="#000000">ZcashFoundation/frost#121</text>
<text text-anchor="middle" x="1872" y="-539.8" font-family="Times,serif" font-size="14.00" fill="#000000">Organize the Re&#45;</text>
<text text-anchor="middle" x="1872" y="-524.8" font-family="Times,serif" font-size="14.00" fill="#000000">randomizable FROST</text>
<text text-anchor="middle" x="1872" y="-509.8" font-family="Times,serif" font-size="14.00" fill="#000000">implementation</text>
</a>
</g>
</g>
<!-- ZcashFoundation/frost#120&#45;&gt;ZcashFoundation/frost#121 -->
<g id="edge11" class="edge">
<title>ZcashFoundation/frost#120&#45;&gt;ZcashFoundation/frost#121</title>
<path fill="none" stroke="#000000" d="M1727.8,-536C1736.1,-536 1744.6,-536 1753.1,-536"/>
<polygon fill="#000000" stroke="#000000" points="1753.3,-539.5001 1763.3,-536 1753.3,-532.5001 1753.3,-539.5001"/>
</g>
<!-- ZcashFoundation/frost#81 -->
<g id="node22" class="node open">
<title>ZcashFoundation/frost#81</title>
<g id="a_node22"><a xlink:href="https://github.com/ZcashFoundation/frost/issues/81" xlink:title="ZcashFoundation/frost#81&#10;Start rerandomized repo" target="_blank">
<polygon fill="#c2e0c6" stroke="#000000" stroke-width="2" points="1723,-484 1515,-484 1515,-446 1723,-446 1723,-484"/>
<text text-anchor="middle" x="1619" y="-468.8" font-family="Times,serif" font-size="14.00" fill="#000000">ZcashFoundation/frost#81</text>
<text text-anchor="middle" x="1619" y="-453.8" font-family="Times,serif" font-size="14.00" fill="#000000">Start rerandomized repo</text>
</a>
</g>
</g>
<!-- ZcashFoundation/frost#39 -->
<g id="node23" class="node open">
<title>ZcashFoundation/frost#39</title>
<g id="a_node23"><a xlink:href="https://github.com/ZcashFoundation/frost/issues/39" xlink:title="ZcashFoundation/frost#39&#10;Migrate/port `redjubjub`&#10;to frost&#45;core / FROST&#10;spec v05+" target="_blank">
<polygon fill="#c2e0c6" stroke="#000000" stroke-width="2" points="216,-660 8,-660 8,-592 216,-592 216,-660"/>
<text text-anchor="middle" x="112" y="-644.8" font-family="Times,serif" font-size="14.00" fill="#000000">ZcashFoundation/frost#39</text>
<text text-anchor="middle" x="112" y="-629.8" font-family="Times,serif" font-size="14.00" fill="#000000">Migrate/port `redjubjub`</text>
<text text-anchor="middle" x="112" y="-614.8" font-family="Times,serif" font-size="14.00" fill="#000000">to frost&#45;core / FROST</text>
<text text-anchor="middle" x="112" y="-599.8" font-family="Times,serif" font-size="14.00" fill="#000000">spec v05+</text>
</a>
</g>
</g>
<!-- ZcashFoundation/frost#40 -->
<g id="node24" class="node open">
<title>ZcashFoundation/frost#40</title>
<g id="a_node24"><a xlink:href="https://github.com/ZcashFoundation/frost/issues/40" xlink:title="ZcashFoundation/frost#40&#10;Migrate/port `redpallas`&#10;to frost&#45;core / FROST&#10;spec v05+" target="_blank">
<polygon fill="#c2e0c6" stroke="#000000" stroke-width="2" points="216,-746 8,-746 8,-678 216,-678 216,-746"/>
<text text-anchor="middle" x="112" y="-730.8" font-family="Times,serif" font-size="14.00" fill="#000000">ZcashFoundation/frost#40</text>
<text text-anchor="middle" x="112" y="-715.8" font-family="Times,serif" font-size="14.00" fill="#000000">Migrate/port `redpallas`</text>
<text text-anchor="middle" x="112" y="-700.8" font-family="Times,serif" font-size="14.00" fill="#000000">to frost&#45;core / FROST</text>
<text text-anchor="middle" x="112" y="-685.8" font-family="Times,serif" font-size="14.00" fill="#000000">spec v05+</text>
</a>
</g>
</g>
<!-- ZcashFoundation/frost#132 -->
<g id="node25" class="node open">
<title>ZcashFoundation/frost#132</title>
<g id="a_node25"><a xlink:href="https://github.com/ZcashFoundation/frost/issues/132" xlink:title="ZcashFoundation/frost#132&#10;Epic: v9/v10" target="_blank">
<polygon fill="#c2e0c6" stroke="#000000" stroke-width="2" points="220.5,-802 3.5,-802 3.5,-764 220.5,-764 220.5,-802"/>
<text text-anchor="middle" x="112" y="-786.8" font-family="Times,serif" font-size="14.00" fill="#000000">ZcashFoundation/frost#132</text>
<text text-anchor="middle" x="112" y="-771.8" font-family="Times,serif" font-size="14.00" fill="#000000">Epic: v9/v10</text>
</a>
</g>
</g>
<!-- ZcashFoundation/frost#114 -->
<g id="node26" class="node open">
<title>ZcashFoundation/frost#114</title>
<g id="a_node26"><a xlink:href="https://github.com/ZcashFoundation/frost/pull/114" xlink:title="ZcashFoundation/frost#114&#10;Refreshed Identifier&#10;newtype of Scalar with&#10;traits" target="_blank">
<polygon fill="#c2e0c6" stroke="#000000" points="473.5,-817 256.5,-817 256.5,-813 252.5,-813 252.5,-809 256.5,-809 256.5,-757 252.5,-757 252.5,-753 256.5,-753 256.5,-749 473.5,-749 473.5,-817"/>
<polyline fill="none" stroke="#000000" points="256.5,-813 260.5,-813 260.5,-809 256.5,-809 "/>
<polyline fill="none" stroke="#000000" points="256.5,-757 260.5,-757 260.5,-753 256.5,-753 "/>
<text text-anchor="middle" x="365" y="-801.8" font-family="Times,serif" font-size="14.00" fill="#000000">ZcashFoundation/frost#114</text>
<text text-anchor="middle" x="365" y="-786.8" font-family="Times,serif" font-size="14.00" fill="#000000">Refreshed Identifier</text>
<text text-anchor="middle" x="365" y="-771.8" font-family="Times,serif" font-size="14.00" fill="#000000">newtype of Scalar with</text>
<text text-anchor="middle" x="365" y="-756.8" font-family="Times,serif" font-size="14.00" fill="#000000">traits</text>
</a>
</g>
</g>
<!-- ZcashFoundation/frost#132&#45;&gt;ZcashFoundation/frost#114 -->
<g id="edge18" class="edge">
<title>ZcashFoundation/frost#132&#45;&gt;ZcashFoundation/frost#114</title>
<path fill="none" stroke="#000000" d="M220.76,-783C229.14,-783 237.63,-783 246.07,-783"/>
<polygon fill="#000000" stroke="#000000" points="246.33,-786.5001 256.33,-783 246.33,-779.5001 246.33,-786.5001"/>
</g>
<!-- ZcashFoundation/frost#140 -->
<g id="node27" class="node open">
<title>ZcashFoundation/frost#140</title>
<g id="a_node27"><a xlink:href="https://github.com/ZcashFoundation/frost/issues/140" xlink:title="ZcashFoundation/frost#140&#10;Update Re&#45;randomizable&#10;FROST ZIP to V10" target="_blank">
<polygon fill="#c2e0c6" stroke="#000000" stroke-width="2" points="1471,-605.5 1254,-605.5 1254,-552.5 1471,-552.5 1471,-605.5"/>
<text text-anchor="middle" x="1362.5" y="-590.3" font-family="Times,serif" font-size="14.00" fill="#000000">ZcashFoundation/frost#140</text>
<text text-anchor="middle" x="1362.5" y="-575.3" font-family="Times,serif" font-size="14.00" fill="#000000">Update Re&#45;randomizable</text>
<text text-anchor="middle" x="1362.5" y="-560.3" font-family="Times,serif" font-size="14.00" fill="#000000">FROST ZIP to V10</text>
</a>
</g>
</g>
<!-- ZcashFoundation/frost#140&#45;&gt;ZcashFoundation/frost#119 -->
<g id="edge19" class="edge">
<title>ZcashFoundation/frost#140&#45;&gt;ZcashFoundation/frost#119</title>
<path fill="none" stroke="#000000" d="M1471.3,-597.24C1480.9,-598.85 1490.7,-600.49 1500.4,-602.12"/>
<polygon fill="#000000" stroke="#000000" points="1500.0612,-605.6117 1510.5,-603.8 1501.2098,-598.7065 1500.0612,-605.6117"/>
</g>
<!-- ZcashFoundation/frost#140&#45;&gt;ZcashFoundation/frost#120 -->
<g id="edge20" class="edge">
<title>ZcashFoundation/frost#140&#45;&gt;ZcashFoundation/frost#120</title>
<path fill="none" stroke="#000000" d="M1471.3,-560.76C1480.9,-559.15 1490.7,-557.51 1500.4,-555.88"/>
<polygon fill="#000000" stroke="#000000" points="1501.2098,-559.2935 1510.5,-554.2 1500.0612,-552.3883 1501.2098,-559.2935"/>
</g>
</g>
</svg>
