<?xml version="1.0" encoding="UTF-8" standalone="no"?>
<?xml-stylesheet href="zcash-dag.css" type="text/css"?>
<!DOCTYPE svg PUBLIC "-//W3C//DTD SVG 1.1//EN"
 "http://www.w3.org/Graphics/SVG/1.1/DTD/svg11.dtd">
<!-- Generated by graphviz version 2.40.1 (20161225.0304)
 -->
<!-- Pages: 1 -->
<svg width="240pt" height="148pt"
 viewBox="0.00 0.00 240.00 147.50" xmlns="http://www.w3.org/2000/svg" xmlns:xlink="http://www.w3.org/1999/xlink">
<g id="graph0" class="graph" transform="scale(1 1) rotate(0) translate(4 143.5)">
<polygon fill="#ffffff" stroke="transparent" points="-4,4 -4,-143.5 236,-143.5 236,4 -4,4"/>
<!-- ZcashFoundation/zebra#5963 -->
<g id="node1" class="node open">
<title>ZcashFoundation/zebra#5963</title>
<g id="a_node1"><a xlink:href="https://github.com/ZcashFoundation/zebra/pull/5963" xlink:title="ZcashFoundation/zebra#5963&#10;change(ci): Run block&#10;proposal tests in CI" target="_blank">
<polygon fill="#c2e0c6" stroke="#000000" stroke-width="2" points="232,-53 0,-53 0,-49 -4,-49 -4,-45 0,-45 0,-8 -4,-8 -4,-4 0,-4 0,0 232,0 232,-53"/>
<polyline fill="none" stroke="#000000" stroke-width="2" points="0,-49 4,-49 4,-45 0,-45 "/>
<polyline fill="none" stroke="#000000" stroke-width="2" points="0,-8 4,-8 4,-4 0,-4 "/>
<text text-anchor="middle" x="116" y="-37.8" font-family="Times,serif" font-size="14.00" fill="#000000">ZcashFoundation/zebra#5963</text>
<text text-anchor="middle" x="116" y="-22.8" font-family="Times,serif" font-size="14.00" fill="#000000">change(ci): Run block</text>
<text text-anchor="middle" x="116" y="-7.8" font-family="Times,serif" font-size="14.00" fill="#000000">proposal tests in CI</text>
</a>
</g>
</g>
<!-- ZcashFoundation/zebra#4554 -->
<g id="node2" class="node open">
<title>ZcashFoundation/zebra#4554</title>
<g id="a_node2"><a xlink:href="https://github.com/ZcashFoundation/zebra/issues/4554" xlink:title="ZcashFoundation/zebra#4554&#10;benchmarks: surface&#10;zebrad mainnet sync time&#10;in CI" target="_blank">
<polygon fill="#c2e0c6" stroke="#000000" stroke-width="2" points="232,-139.5 0,-139.5 0,-71.5 232,-71.5 232,-139.5"/>
<text text-anchor="middle" x="116" y="-124.3" font-family="Times,serif" font-size="14.00" fill="#000000">ZcashFoundation/zebra#4554</text>
<text text-anchor="middle" x="116" y="-109.3" font-family="Times,serif" font-size="14.00" fill="#000000">benchmarks: surface</text>
<text text-anchor="middle" x="116" y="-94.3" font-family="Times,serif" font-size="14.00" fill="#000000">zebrad mainnet sync time</text>
<text text-anchor="middle" x="116" y="-79.3" font-family="Times,serif" font-size="14.00" fill="#000000">in CI</text>
</a>
</g>
</g>
</g>
</svg>
