<?xml version="1.0" encoding="UTF-8" standalone="no"?>
<?xml-stylesheet href="zcash-dag.css" type="text/css"?>
<!DOCTYPE svg PUBLIC "-//W3C//DTD SVG 1.1//EN"
 "http://www.w3.org/Graphics/SVG/1.1/DTD/svg11.dtd">
<!-- Generated by graphviz version 2.40.1 (20161225.0304)
 -->
<!-- Pages: 1 -->
<svg width="1360pt" height="773pt"
 viewBox="0.00 0.00 1360.00 773.00" xmlns="http://www.w3.org/2000/svg" xmlns:xlink="http://www.w3.org/1999/xlink">
<g id="graph0" class="graph" transform="scale(1 1) rotate(0) translate(4 769)">
<polygon fill="#ffffff" stroke="transparent" points="-4,4 -4,-769 1356,-769 1356,4 -4,4"/>
<g id="clust1" class="cluster">
<title>cluster_0</title>
<polygon fill="none" stroke="#0000ff" points="20,-91 20,-255 268,-255 268,-91 20,-91"/>
<text text-anchor="middle" x="144" y="-239.8" font-family="Times,serif" font-size="14.00" fill="#000000">Tracking: Documentation</text>
</g>
<g id="clust2" class="cluster">
<title>cluster_4</title>
<polygon fill="none" stroke="#0000ff" points="20,-417 20,-510 556,-510 556,-417 20,-417"/>
<text text-anchor="middle" x="288" y="-494.8" font-family="Times,serif" font-size="14.00" fill="#000000">Epic: Zebra Stable Release Candidate</text>
</g>
<g id="clust3" class="cluster">
<title>cluster_3</title>
<polygon fill="none" stroke="#0000ff" points="576,-259 576,-524 1092,-524 1092,-259 576,-259"/>
<text text-anchor="middle" x="834" y="-508.8" font-family="Times,serif" font-size="14.00" fill="#000000">Epic: Breaking Changes before the Stable Release</text>
</g>
<g id="clust4" class="cluster">
<title>cluster_5</title>
<polygon fill="none" stroke="#0000ff" points="0,-582 0,-689 288,-689 288,-582 0,-582"/>
<text text-anchor="middle" x="144" y="-673.8" font-family="Times,serif" font-size="14.00" fill="#000000">Epic: Zebra as a lightwalletd backend</text>
</g>
<g id="clust5" class="cluster">
<title>cluster_1</title>
<polygon fill="none" stroke="#0000ff" points="844,0 844,-251 1092,-251 1092,0 844,0"/>
<text text-anchor="middle" x="968" y="-235.8" font-family="Times,serif" font-size="14.00" fill="#000000">Tracking: Tech Debt</text>
</g>
<!-- ZcashFoundation/zebra#4524 -->
<g id="node1" class="node open">
<title>ZcashFoundation/zebra#4524</title>
<g id="a_node1"><a xlink:href="https://github.com/ZcashFoundation/zebra/issues/4524" xlink:title="ZcashFoundation/zebra#4524&#10;Add `cargo doc`&#10;warnings/errors to CI" target="_blank">
<polygon fill="#c2e0c6" stroke="#000000" stroke-width="2" points="260,-223.5 28,-223.5 28,-170.5 260,-170.5 260,-223.5"/>
<text text-anchor="middle" x="144" y="-208.3" font-family="Times,serif" font-size="14.00" fill="#000000">ZcashFoundation/zebra#4524</text>
<text text-anchor="middle" x="144" y="-193.3" font-family="Times,serif" font-size="14.00" fill="#000000">Add `cargo doc`</text>
<text text-anchor="middle" x="144" y="-178.3" font-family="Times,serif" font-size="14.00" fill="#000000">warnings/errors to CI</text>
</a>
</g>
</g>
<!-- ZcashFoundation/zebra#1963 -->
<g id="node2" class="node open">
<title>ZcashFoundation/zebra#1963</title>
<g id="a_node2"><a xlink:href="https://github.com/ZcashFoundation/zebra/issues/1963" xlink:title="ZcashFoundation/zebra#1963&#10;Revise Release Process&#10;RFC Draft" target="_blank">
<polygon fill="#c2e0c6" stroke="#000000" stroke-width="2" points="260,-152.5 28,-152.5 28,-99.5 260,-99.5 260,-152.5"/>
<text text-anchor="middle" x="144" y="-137.3" font-family="Times,serif" font-size="14.00" fill="#000000">ZcashFoundation/zebra#1963</text>
<text text-anchor="middle" x="144" y="-122.3" font-family="Times,serif" font-size="14.00" fill="#000000">Revise Release Process</text>
<text text-anchor="middle" x="144" y="-107.3" font-family="Times,serif" font-size="14.00" fill="#000000">RFC Draft</text>
</a>
</g>
</g>
<!-- ZcashFoundation/zebra#3050 -->
<g id="node3" class="node open">
<title>ZcashFoundation/zebra#3050</title>
<g id="a_node3"><a xlink:href="https://github.com/ZcashFoundation/zebra/issues/3050" xlink:title="ZcashFoundation/zebra#3050&#10;Tag Zebra 1.0.0&#45;rc.0&#10;stable release candidate" target="_blank">
<polygon fill="#a7c2aa" stroke="#000000" points="548,-478.5 316,-478.5 316,-425.5 548,-425.5 548,-478.5"/>
<text text-anchor="middle" x="432" y="-463.3" font-family="Times,serif" font-size="14.00" fill="#000000">ZcashFoundation/zebra#3050</text>
<text text-anchor="middle" x="432" y="-448.3" font-family="Times,serif" font-size="14.00" fill="#000000">Tag Zebra 1.0.0&#45;rc.0</text>
<text text-anchor="middle" x="432" y="-433.3" font-family="Times,serif" font-size="14.00" fill="#000000">stable release candidate</text>
</a>
</g>
</g>
<!-- ZcashFoundation/zebra#4448 -->
<g id="node4" class="node open">
<title>ZcashFoundation/zebra#4448</title>
<g id="a_node4"><a xlink:href="https://github.com/ZcashFoundation/zebra/issues/4448" xlink:title="ZcashFoundation/zebra#4448&#10;Decide on supported&#10;platforms and test in CI" target="_blank">
<polygon fill="#c2e0c6" stroke="#000000" stroke-width="2" points="260,-478.5 28,-478.5 28,-425.5 260,-425.5 260,-478.5"/>
<text text-anchor="middle" x="144" y="-463.3" font-family="Times,serif" font-size="14.00" fill="#000000">ZcashFoundation/zebra#4448</text>
<text text-anchor="middle" x="144" y="-448.3" font-family="Times,serif" font-size="14.00" fill="#000000">Decide on supported</text>
<text text-anchor="middle" x="144" y="-433.3" font-family="Times,serif" font-size="14.00" fill="#000000">platforms and test in CI</text>
</a>
</g>
</g>
<!-- ZcashFoundation/zebra#4448&#45;&gt;ZcashFoundation/zebra#3050 -->
<g id="edge1" class="edge">
<title>ZcashFoundation/zebra#4448&#45;&gt;ZcashFoundation/zebra#3050</title>
<path fill="none" stroke="#000000" d="M260.31,-452C275.15,-452 290.4,-452 305.39,-452"/>
<polygon fill="#000000" stroke="#000000" points="305.72,-455.5001 315.72,-452 305.72,-448.5001 305.72,-455.5001"/>
</g>
<!-- ZcashFoundation/zebra#1894 -->
<g id="node5" class="node open">
<title>ZcashFoundation/zebra#1894</title>
<g id="a_node5"><a xlink:href="https://github.com/ZcashFoundation/zebra/issues/1894" xlink:title="ZcashFoundation/zebra#1894&#10;Zebra should follow OS&#10;directory conventions&#10;better" target="_blank">
<polygon fill="#c2e0c6" stroke="#000000" stroke-width="2" points="816,-493 584,-493 584,-425 816,-425 816,-493"/>
<text text-anchor="middle" x="700" y="-477.8" font-family="Times,serif" font-size="14.00" fill="#000000">ZcashFoundation/zebra#1894</text>
<text text-anchor="middle" x="700" y="-462.8" font-family="Times,serif" font-size="14.00" fill="#000000">Zebra should follow OS</text>
<text text-anchor="middle" x="700" y="-447.8" font-family="Times,serif" font-size="14.00" fill="#000000">directory conventions</text>
<text text-anchor="middle" x="700" y="-432.8" font-family="Times,serif" font-size="14.00" fill="#000000">better</text>
</a>
</g>
</g>
<!-- ZcashFoundation/zebra#3432 -->
<g id="node6" class="node open">
<title>ZcashFoundation/zebra#3432</title>
<g id="a_node6"><a xlink:href="https://github.com/ZcashFoundation/zebra/issues/3432" xlink:title="ZcashFoundation/zebra#3432&#10;Use the Filesystem&#10;Hierarchy Standard (FHS)&#10;for deployments and&#10;artifacts" target="_blank">
<polygon fill="#c2e0c6" stroke="#000000" points="1084,-492.5 852,-492.5 852,-409.5 1084,-409.5 1084,-492.5"/>
<text text-anchor="middle" x="968" y="-477.3" font-family="Times,serif" font-size="14.00" fill="#000000">ZcashFoundation/zebra#3432</text>
<text text-anchor="middle" x="968" y="-462.3" font-family="Times,serif" font-size="14.00" fill="#000000">Use the Filesystem</text>
<text text-anchor="middle" x="968" y="-447.3" font-family="Times,serif" font-size="14.00" fill="#000000">Hierarchy Standard (FHS)</text>
<text text-anchor="middle" x="968" y="-432.3" font-family="Times,serif" font-size="14.00" fill="#000000">for deployments and</text>
<text text-anchor="middle" x="968" y="-417.3" font-family="Times,serif" font-size="14.00" fill="#000000">artifacts</text>
</a>
</g>
</g>
<!-- ZcashFoundation/zebra#1894&#45;&gt;ZcashFoundation/zebra#3432 -->
<g id="edge2" class="edge">
<title>ZcashFoundation/zebra#1894&#45;&gt;ZcashFoundation/zebra#3432</title>
<path fill="none" stroke="#000000" d="M816.38,-455.53C824.71,-455.28 833.14,-455.03 841.53,-454.78"/>
<polygon fill="#000000" stroke="#000000" points="841.8509,-458.272 851.74,-454.47 841.6384,-451.2752 841.8509,-458.272"/>
</g>
<!-- ZcashFoundation/zebra#1904 -->
<g id="node7" class="node open">
<title>ZcashFoundation/zebra#1904</title>
<g id="a_node7"><a xlink:href="https://github.com/ZcashFoundation/zebra/issues/1904" xlink:title="ZcashFoundation/zebra#1904&#10;Some DNS seeders and&#10;block explorers don&#39;t&#10;show Zebra nodes" target="_blank">
<polygon fill="#a7c2aa" stroke="#000000" points="816,-407 584,-407 584,-339 816,-339 816,-407"/>
<text text-anchor="middle" x="700" y="-391.8" font-family="Times,serif" font-size="14.00" fill="#000000">ZcashFoundation/zebra#1904</text>
<text text-anchor="middle" x="700" y="-376.8" font-family="Times,serif" font-size="14.00" fill="#000000">Some DNS seeders and</text>
<text text-anchor="middle" x="700" y="-361.8" font-family="Times,serif" font-size="14.00" fill="#000000">block explorers don&#39;t</text>
<text text-anchor="middle" x="700" y="-346.8" font-family="Times,serif" font-size="14.00" fill="#000000">show Zebra nodes</text>
</a>
</g>
</g>
<!-- ZcashFoundation/zebra#1791 -->
<g id="node10" class="node closed">
<title>ZcashFoundation/zebra#1791</title>
<g id="a_node10"><a xlink:href="https://github.com/ZcashFoundation/zebra/issues/1791" xlink:title="ZcashFoundation/zebra#1791&#10;Re&#45;enable `sync_large_che&#10;ckpoints_testnet` test" target="_blank">
<polygon fill="#fad8c7" stroke="#000000" points="1084,-219.5 852,-219.5 852,-166.5 1084,-166.5 1084,-219.5"/>
<text text-anchor="middle" x="968" y="-204.3" font-family="Times,serif" font-size="14.00" fill="#000000">ZcashFoundation/zebra#1791</text>
<text text-anchor="middle" x="968" y="-189.3" font-family="Times,serif" font-size="14.00" fill="#000000">Re&#45;enable `sync_large_che</text>
<text text-anchor="middle" x="968" y="-174.3" font-family="Times,serif" font-size="14.00" fill="#000000">ckpoints_testnet` test</text>
</a>
</g>
</g>
<!-- ZcashFoundation/zebra#1904&#45;&gt;ZcashFoundation/zebra#1791 -->
<g id="edge4" class="edge">
<title>ZcashFoundation/zebra#1904&#45;&gt;ZcashFoundation/zebra#1791</title>
<path fill="none" stroke="#000000" d="M804.39,-338.9C808.52,-335.87 812.42,-332.58 816,-329 840.85,-304.12 820.43,-281.1 844,-255 855.02,-242.8 868.99,-232.69 883.55,-224.43"/>
<polygon fill="#000000" stroke="#000000" points="885.5241,-227.3422 892.67,-219.52 882.2058,-221.1787 885.5241,-227.3422"/>
</g>
<!-- ZcashFoundation/zebra#1638 -->
<g id="node8" class="node open">
<title>ZcashFoundation/zebra#1638</title>
<g id="a_node8"><a xlink:href="https://github.com/ZcashFoundation/zebra/issues/1638" xlink:title="ZcashFoundation/zebra#1638&#10;Create PGP keys amongst&#10;security@zfnd.org" target="_blank">
<polygon fill="#c2e0c6" stroke="#000000" stroke-width="2" points="816,-320.5 584,-320.5 584,-267.5 816,-267.5 816,-320.5"/>
<text text-anchor="middle" x="700" y="-305.3" font-family="Times,serif" font-size="14.00" fill="#000000">ZcashFoundation/zebra#1638</text>
<text text-anchor="middle" x="700" y="-290.3" font-family="Times,serif" font-size="14.00" fill="#000000">Create PGP keys amongst</text>
<text text-anchor="middle" x="700" y="-275.3" font-family="Times,serif" font-size="14.00" fill="#000000">security@zfnd.org</text>
</a>
</g>
</g>
<!-- ZcashFoundation/zebra#4456 -->
<g id="node9" class="node open">
<title>ZcashFoundation/zebra#4456</title>
<g id="a_node9"><a xlink:href="https://github.com/ZcashFoundation/zebra/issues/4456" xlink:title="ZcashFoundation/zebra#4456&#10;Full sync test takes&#10;slightly longer than CI&#10;timeout" target="_blank">
<polygon fill="#c2e0c6" stroke="#000000" stroke-width="2" points="260,-658 28,-658 28,-590 260,-590 260,-658"/>
<text text-anchor="middle" x="144" y="-642.8" font-family="Times,serif" font-size="14.00" fill="#000000">ZcashFoundation/zebra#4456</text>
<text text-anchor="middle" x="144" y="-627.8" font-family="Times,serif" font-size="14.00" fill="#000000">Full sync test takes</text>
<text text-anchor="middle" x="144" y="-612.8" font-family="Times,serif" font-size="14.00" fill="#000000">slightly longer than CI</text>
<text text-anchor="middle" x="144" y="-597.8" font-family="Times,serif" font-size="14.00" fill="#000000">timeout</text>
</a>
</g>
</g>
<!-- ZcashFoundation/zebra#4554 -->
<g id="node14" class="node open">
<title>ZcashFoundation/zebra#4554</title>
<g id="a_node14"><a xlink:href="https://github.com/ZcashFoundation/zebra/issues/4554" xlink:title="ZcashFoundation/zebra#4554&#10;benchmarks: surface&#10;zebrad mainnet sync time&#10;in CI" target="_blank">
<polygon fill="#c2e0c6" stroke="#000000" points="548,-622 316,-622 316,-554 548,-554 548,-622"/>
<text text-anchor="middle" x="432" y="-606.8" font-family="Times,serif" font-size="14.00" fill="#000000">ZcashFoundation/zebra#4554</text>
<text text-anchor="middle" x="432" y="-591.8" font-family="Times,serif" font-size="14.00" fill="#000000">benchmarks: surface</text>
<text text-anchor="middle" x="432" y="-576.8" font-family="Times,serif" font-size="14.00" fill="#000000">zebrad mainnet sync time</text>
<text text-anchor="middle" x="432" y="-561.8" font-family="Times,serif" font-size="14.00" fill="#000000">in CI</text>
</a>
</g>
</g>
<!-- ZcashFoundation/zebra#4456&#45;&gt;ZcashFoundation/zebra#4554 -->
<g id="edge5" class="edge">
<title>ZcashFoundation/zebra#4456&#45;&gt;ZcashFoundation/zebra#4554</title>
<path fill="none" stroke="#000000" d="M260.31,-609.46C275.15,-607.61 290.4,-605.7 305.39,-603.83"/>
<polygon fill="#000000" stroke="#000000" points="306.2353,-607.2513 315.72,-602.53 305.3612,-600.3061 306.2353,-607.2513"/>
</g>
<!-- ZcashFoundation/zebra#1364 -->
<g id="node11" class="node open">
<title>ZcashFoundation/zebra#1364</title>
<g id="a_node11"><a xlink:href="https://github.com/ZcashFoundation/zebra/issues/1364" xlink:title="ZcashFoundation/zebra#1364&#10;Add a CI job which&#10;compiles each Zebra crate&#10;individually" target="_blank">
<polygon fill="#c2e0c6" stroke="#000000" stroke-width="2" points="1084,-148 852,-148 852,-80 1084,-80 1084,-148"/>
<text text-anchor="middle" x="968" y="-132.8" font-family="Times,serif" font-size="14.00" fill="#000000">ZcashFoundation/zebra#1364</text>
<text text-anchor="middle" x="968" y="-117.8" font-family="Times,serif" font-size="14.00" fill="#000000">Add a CI job which</text>
<text text-anchor="middle" x="968" y="-102.8" font-family="Times,serif" font-size="14.00" fill="#000000">compiles each Zebra crate</text>
<text text-anchor="middle" x="968" y="-87.8" font-family="Times,serif" font-size="14.00" fill="#000000">individually</text>
</a>
</g>
</g>
<!-- ZcashFoundation/zebra#4550 -->
<g id="node13" class="node open">
<title>ZcashFoundation/zebra#4550</title>
<g id="a_node13"><a xlink:href="https://github.com/ZcashFoundation/zebra/issues/4550" xlink:title="ZcashFoundation/zebra#4550&#10;Add all&#45;features and no&#45;&#10;default&#45;features builds&#10;to CI" target="_blank">
<polygon fill="#c2e0c6" stroke="#000000" points="1352,-148 1120,-148 1120,-80 1352,-80 1352,-148"/>
<text text-anchor="middle" x="1236" y="-132.8" font-family="Times,serif" font-size="14.00" fill="#000000">ZcashFoundation/zebra#4550</text>
<text text-anchor="middle" x="1236" y="-117.8" font-family="Times,serif" font-size="14.00" fill="#000000">Add all&#45;features and no&#45;</text>
<text text-anchor="middle" x="1236" y="-102.8" font-family="Times,serif" font-size="14.00" fill="#000000">default&#45;features builds</text>
<text text-anchor="middle" x="1236" y="-87.8" font-family="Times,serif" font-size="14.00" fill="#000000">to CI</text>
</a>
</g>
</g>
<!-- ZcashFoundation/zebra#1364&#45;&gt;ZcashFoundation/zebra#4550 -->
<g id="edge3" class="edge">
<title>ZcashFoundation/zebra#1364&#45;&gt;ZcashFoundation/zebra#4550</title>
<path fill="none" stroke="#000000" d="M1084.4,-114C1092.7,-114 1101.1,-114 1109.5,-114"/>
<polygon fill="#000000" stroke="#000000" points="1109.7,-117.5001 1119.7,-114 1109.7,-110.5001 1109.7,-117.5001"/>
</g>
<!-- ZcashFoundation/zebra#2090 -->
<g id="node12" class="node open">
<title>ZcashFoundation/zebra#2090</title>
<g id="a_node12"><a xlink:href="https://github.com/ZcashFoundation/zebra/issues/2090" xlink:title="ZcashFoundation/zebra#2090&#10;Auto&#45;delete old Google&#10;Cloud instance templates" target="_blank">
<polygon fill="#c2e0c6" stroke="#000000" stroke-width="2" points="1084,-61.5 852,-61.5 852,-8.5 1084,-8.5 1084,-61.5"/>
<text text-anchor="middle" x="968" y="-46.3" font-family="Times,serif" font-size="14.00" fill="#000000">ZcashFoundation/zebra#2090</text>
<text text-anchor="middle" x="968" y="-31.3" font-family="Times,serif" font-size="14.00" fill="#000000">Auto&#45;delete old Google</text>
<text text-anchor="middle" x="968" y="-16.3" font-family="Times,serif" font-size="14.00" fill="#000000">Cloud instance templates</text>
</a>
</g>
</g>
<!-- ZcashFoundation/zebra#4474 -->
<g id="node15" class="node open">
<title>ZcashFoundation/zebra#4474</title>
<g id="a_node15"><a xlink:href="https://github.com/ZcashFoundation/zebra/pull/4474" xlink:title="ZcashFoundation/zebra#4474&#10;fix(ci): Require full&#10;sync to reach 100%" target="_blank">
<polygon fill="#c2e0c6" stroke="#000000" stroke-width="2" points="260,-571.5 28,-571.5 28,-567.5 24,-567.5 24,-563.5 28,-563.5 28,-526.5 24,-526.5 24,-522.5 28,-522.5 28,-518.5 260,-518.5 260,-571.5"/>
<polyline fill="none" stroke="#000000" stroke-width="2" points="28,-567.5 32,-567.5 32,-563.5 28,-563.5 "/>
<polyline fill="none" stroke="#000000" stroke-width="2" points="28,-526.5 32,-526.5 32,-522.5 28,-522.5 "/>
<text text-anchor="middle" x="144" y="-556.3" font-family="Times,serif" font-size="14.00" fill="#000000">ZcashFoundation/zebra#4474</text>
<text text-anchor="middle" x="144" y="-541.3" font-family="Times,serif" font-size="14.00" fill="#000000">fix(ci): Require full</text>
<text text-anchor="middle" x="144" y="-526.3" font-family="Times,serif" font-size="14.00" fill="#000000">sync to reach 100%</text>
</a>
</g>
</g>
<!-- ZcashFoundation/zebra#4474&#45;&gt;ZcashFoundation/zebra#4554 -->
<g id="edge6" class="edge">
<title>ZcashFoundation/zebra#4474&#45;&gt;ZcashFoundation/zebra#4554</title>
<path fill="none" stroke="#000000" d="M260.31,-562.37C275.29,-564.6 290.69,-566.9 305.83,-569.16"/>
<polygon fill="#000000" stroke="#000000" points="305.3121,-572.6214 315.72,-570.64 306.3481,-565.6985 305.3121,-572.6214"/>
</g>
<!-- ZcashFoundation/zebra#4551 -->
<g id="node16" class="node open">
<title>ZcashFoundation/zebra#4551</title>
<g id="a_node16"><a xlink:href="https://github.com/ZcashFoundation/zebra/issues/4551" xlink:title="ZcashFoundation/zebra#4551&#10;ci: lightwalletd tests&#10;fail with &quot;could not read&#10;ScriptSig&quot;" target="_blank">
<polygon fill="#c2e0c6" stroke="#000000" stroke-width="2" points="260,-765 28,-765 28,-697 260,-697 260,-765"/>
<text text-anchor="middle" x="144" y="-749.8" font-family="Times,serif" font-size="14.00" fill="#000000">ZcashFoundation/zebra#4551</text>
<text text-anchor="middle" x="144" y="-734.8" font-family="Times,serif" font-size="14.00" fill="#000000">ci: lightwalletd tests</text>
<text text-anchor="middle" x="144" y="-719.8" font-family="Times,serif" font-size="14.00" fill="#000000">fail with &quot;could not read</text>
<text text-anchor="middle" x="144" y="-704.8" font-family="Times,serif" font-size="14.00" fill="#000000">ScriptSig&quot;</text>
</a>
</g>
</g>
<!-- ZcashFoundation/zebra#4537 -->
<g id="node17" class="node open">
<title>ZcashFoundation/zebra#4537</title>
<g id="a_node17"><a xlink:href="https://github.com/ZcashFoundation/zebra/pull/4537" xlink:title="ZcashFoundation/zebra#4537&#10;test(grpc):&#10;`GetMempoolTx` and&#10;`GetMempoolStream` test" target="_blank">
<polygon fill="#a7c2aa" stroke="#000000" points="548,-765 316,-765 316,-761 312,-761 312,-757 316,-757 316,-705 312,-705 312,-701 316,-701 316,-697 548,-697 548,-765"/>
<polyline fill="none" stroke="#000000" points="316,-761 320,-761 320,-757 316,-757 "/>
<polyline fill="none" stroke="#000000" points="316,-705 320,-705 320,-701 316,-701 "/>
<text text-anchor="middle" x="432" y="-749.8" font-family="Times,serif" font-size="14.00" fill="#000000">ZcashFoundation/zebra#4537</text>
<text text-anchor="middle" x="432" y="-734.8" font-family="Times,serif" font-size="14.00" fill="#000000">test(grpc):</text>
<text text-anchor="middle" x="432" y="-719.8" font-family="Times,serif" font-size="14.00" fill="#000000">`GetMempoolTx` and</text>
<text text-anchor="middle" x="432" y="-704.8" font-family="Times,serif" font-size="14.00" fill="#000000">`GetMempoolStream` test</text>
</a>
</g>
</g>
<!-- ZcashFoundation/zebra#4551&#45;&gt;ZcashFoundation/zebra#4537 -->
<g id="edge7" class="edge">
<title>ZcashFoundation/zebra#4551&#45;&gt;ZcashFoundation/zebra#4537</title>
<path fill="none" stroke="#000000" d="M260.31,-731C275.15,-731 290.4,-731 305.39,-731"/>
<polygon fill="#000000" stroke="#000000" points="305.72,-734.5001 315.72,-731 305.72,-727.5001 305.72,-734.5001"/>
</g>
<!-- ZcashFoundation/zebra#4546 -->
<g id="node18" class="node open">
<title>ZcashFoundation/zebra#4546</title>
<g id="a_node18"><a xlink:href="https://github.com/ZcashFoundation/zebra/issues/4546" xlink:title="ZcashFoundation/zebra#4546&#10;Fix Zebra deployments" target="_blank">
<polygon fill="#c2e0c6" stroke="#000000" stroke-width="2" points="260,-392 28,-392 28,-354 260,-354 260,-392"/>
<text text-anchor="middle" x="144" y="-376.8" font-family="Times,serif" font-size="14.00" fill="#000000">ZcashFoundation/zebra#4546</text>
<text text-anchor="middle" x="144" y="-361.8" font-family="Times,serif" font-size="14.00" fill="#000000">Fix Zebra deployments</text>
</a>
</g>
</g>
<!-- ZcashFoundation/zebra#4562 -->
<g id="node19" class="node open">
<title>ZcashFoundation/zebra#4562</title>
<g id="a_node19"><a xlink:href="https://github.com/ZcashFoundation/zebra/issues/4562" xlink:title="ZcashFoundation/zebra#4562&#10;Deploy long&#45;running Zebra&#10;nodes after each tagged&#10;release" target="_blank">
<polygon fill="#c2e0c6" stroke="#000000" points="548,-407 316,-407 316,-339 548,-339 548,-407"/>
<text text-anchor="middle" x="432" y="-391.8" font-family="Times,serif" font-size="14.00" fill="#000000">ZcashFoundation/zebra#4562</text>
<text text-anchor="middle" x="432" y="-376.8" font-family="Times,serif" font-size="14.00" fill="#000000">Deploy long&#45;running Zebra</text>
<text text-anchor="middle" x="432" y="-361.8" font-family="Times,serif" font-size="14.00" fill="#000000">nodes after each tagged</text>
<text text-anchor="middle" x="432" y="-346.8" font-family="Times,serif" font-size="14.00" fill="#000000">release</text>
</a>
</g>
</g>
<!-- ZcashFoundation/zebra#4546&#45;&gt;ZcashFoundation/zebra#4562 -->
<g id="edge8" class="edge">
<title>ZcashFoundation/zebra#4546&#45;&gt;ZcashFoundation/zebra#4562</title>
<path fill="none" stroke="#000000" d="M260.31,-373C275.15,-373 290.4,-373 305.39,-373"/>
<polygon fill="#000000" stroke="#000000" points="305.72,-376.5001 315.72,-373 305.72,-369.5001 305.72,-376.5001"/>
</g>
<!-- ZcashFoundation/zebra#4562&#45;&gt;ZcashFoundation/zebra#1904 -->
<g id="edge9" class="edge">
<title>ZcashFoundation/zebra#4562&#45;&gt;ZcashFoundation/zebra#1904</title>
<path fill="none" stroke="#000000" d="M548.38,-373C556.71,-373 565.14,-373 573.53,-373"/>
<polygon fill="#000000" stroke="#000000" points="573.74,-376.5001 583.74,-373 573.74,-369.5001 573.74,-376.5001"/>
</g>
</g>
</svg>
