<?xml version="1.0" encoding="UTF-8" standalone="no"?>
<?xml-stylesheet href="zcash-dag.css" type="text/css"?>
<!DOCTYPE svg PUBLIC "-//W3C//DTD SVG 1.1//EN"
 "http://www.w3.org/Graphics/SVG/1.1/DTD/svg11.dtd">
<!-- Generated by graphviz version 2.40.1 (20161225.0304)
 -->
<!-- Pages: 1 -->
<svg width="1052pt" height="749pt"
 viewBox="0.00 0.00 1052.00 749.00" xmlns="http://www.w3.org/2000/svg" xmlns:xlink="http://www.w3.org/1999/xlink">
<g id="graph0" class="graph" transform="scale(1 1) rotate(0) translate(4 745)">
<polygon fill="#ffffff" stroke="transparent" points="-4,4 -4,-745 1048,-745 1048,4 -4,4"/>
<g id="clust1" class="cluster">
<title>cluster_0</title>
<polygon fill="none" stroke="#0000ff" points="796,-648 796,-741 1044,-741 1044,-648 796,-648"/>
<text text-anchor="middle" x="920" y="-725.8" font-family="Times,serif" font-size="14.00" fill="#000000">Tracking: Tech Debt</text>
</g>
<g id="clust2" class="cluster">
<title>cluster_1</title>
<polygon fill="none" stroke="#0000ff" points="260,-85 260,-178 508,-178 508,-85 260,-85"/>
<text text-anchor="middle" x="384" y="-162.8" font-family="Times,serif" font-size="14.00" fill="#000000">Tracking: Documentation</text>
</g>
<g id="clust3" class="cluster">
<title>cluster_4</title>
<polygon fill="none" stroke="#0000ff" points="260,-218 260,-640 1044,-640 1044,-218 260,-218"/>
<text text-anchor="middle" x="652" y="-624.8" font-family="Times,serif" font-size="14.00" fill="#000000">Epic: Zebra Stable Release Candidate</text>
</g>
<!-- ZcashFoundation/zebra#1791 -->
<g id="node1" class="node closed">
<title>ZcashFoundation/zebra#1791</title>
<g id="a_node1"><a xlink:href="https://github.com/ZcashFoundation/zebra/issues/1791" xlink:title="ZcashFoundation/zebra#1791&#10;Re&#45;enable `sync_large_che&#10;ckpoints_testnet` test" target="_blank">
<polygon fill="#fad8c7" stroke="#000000" points="1036,-709.5 804,-709.5 804,-656.5 1036,-656.5 1036,-709.5"/>
<text text-anchor="middle" x="920" y="-694.3" font-family="Times,serif" font-size="14.00" fill="#000000">ZcashFoundation/zebra#1791</text>
<text text-anchor="middle" x="920" y="-679.3" font-family="Times,serif" font-size="14.00" fill="#000000">Re&#45;enable `sync_large_che</text>
<text text-anchor="middle" x="920" y="-664.3" font-family="Times,serif" font-size="14.00" fill="#000000">ckpoints_testnet` test</text>
</a>
</g>
</g>
<!-- ZcashFoundation/zebra#1963 -->
<g id="node2" class="node open">
<title>ZcashFoundation/zebra#1963</title>
<g id="a_node2"><a xlink:href="https://github.com/ZcashFoundation/zebra/issues/1963" xlink:title="ZcashFoundation/zebra#1963&#10;Work out how to release&#10;Zebra binaries" target="_blank">
<polygon fill="#c2e0c6" stroke="#000000" stroke-width="2" points="500,-146.5 268,-146.5 268,-93.5 500,-93.5 500,-146.5"/>
<text text-anchor="middle" x="384" y="-131.3" font-family="Times,serif" font-size="14.00" fill="#000000">ZcashFoundation/zebra#1963</text>
<text text-anchor="middle" x="384" y="-116.3" font-family="Times,serif" font-size="14.00" fill="#000000">Work out how to release</text>
<text text-anchor="middle" x="384" y="-101.3" font-family="Times,serif" font-size="14.00" fill="#000000">Zebra binaries</text>
</a>
</g>
</g>
<!-- ZcashFoundation/zebra#755 -->
<g id="node12" class="node open">
<title>ZcashFoundation/zebra#755</title>
<g id="a_node12"><a xlink:href="https://github.com/ZcashFoundation/zebra/issues/755" xlink:title="ZcashFoundation/zebra#755&#10;Automate zebrad releases" target="_blank">
<polygon fill="#c2e0c6" stroke="#000000" points="763.5,-210 540.5,-210 540.5,-172 763.5,-172 763.5,-210"/>
<text text-anchor="middle" x="652" y="-194.8" font-family="Times,serif" font-size="14.00" fill="#000000">ZcashFoundation/zebra#755</text>
<text text-anchor="middle" x="652" y="-179.8" font-family="Times,serif" font-size="14.00" fill="#000000">Automate zebrad releases</text>
</a>
</g>
</g>
<!-- ZcashFoundation/zebra#1963&#45;&gt;ZcashFoundation/zebra#755 -->
<g id="edge5" class="edge">
<title>ZcashFoundation/zebra#1963&#45;&gt;ZcashFoundation/zebra#755</title>
<path fill="none" stroke="#000000" d="M475.88,-146.61C495.67,-152.17 516.5,-157.89 536,-163 544.3,-165.17 552.95,-167.38 561.62,-169.55"/>
<polygon fill="#000000" stroke="#000000" points="560.852,-172.9655 571.4,-171.97 562.5335,-166.1704 560.852,-172.9655"/>
</g>
<!-- ZcashFoundation/zebra#2564 -->
<g id="node13" class="node open">
<title>ZcashFoundation/zebra#2564</title>
<g id="a_node13"><a xlink:href="https://github.com/ZcashFoundation/zebra/issues/2564" xlink:title="ZcashFoundation/zebra#2564&#10;Include git metadata in&#10;docker logs and Google&#10;Cloud panic reports" target="_blank">
<polygon fill="#c2e0c6" stroke="#000000" points="768,-154 536,-154 536,-86 768,-86 768,-154"/>
<text text-anchor="middle" x="652" y="-138.8" font-family="Times,serif" font-size="14.00" fill="#000000">ZcashFoundation/zebra#2564</text>
<text text-anchor="middle" x="652" y="-123.8" font-family="Times,serif" font-size="14.00" fill="#000000">Include git metadata in</text>
<text text-anchor="middle" x="652" y="-108.8" font-family="Times,serif" font-size="14.00" fill="#000000">docker logs and Google</text>
<text text-anchor="middle" x="652" y="-93.8" font-family="Times,serif" font-size="14.00" fill="#000000">Cloud panic reports</text>
</a>
</g>
</g>
<!-- ZcashFoundation/zebra#1963&#45;&gt;ZcashFoundation/zebra#2564 -->
<g id="edge6" class="edge">
<title>ZcashFoundation/zebra#1963&#45;&gt;ZcashFoundation/zebra#2564</title>
<path fill="none" stroke="#000000" d="M500.38,-120C508.71,-120 517.14,-120 525.53,-120"/>
<polygon fill="#000000" stroke="#000000" points="525.74,-123.5001 535.74,-120 525.74,-116.5001 525.74,-123.5001"/>
</g>
<!-- ZcashFoundation/zebra#4412 -->
<g id="node14" class="node open">
<title>ZcashFoundation/zebra#4412</title>
<g id="a_node14"><a xlink:href="https://github.com/ZcashFoundation/zebra/issues/4412" xlink:title="ZcashFoundation/zebra#4412&#10;Automate pinning CI&#10;dependencies to specific&#10;commit hashes" target="_blank">
<polygon fill="#c2e0c6" stroke="#000000" points="768,-68 536,-68 536,0 768,0 768,-68"/>
<text text-anchor="middle" x="652" y="-52.8" font-family="Times,serif" font-size="14.00" fill="#000000">ZcashFoundation/zebra#4412</text>
<text text-anchor="middle" x="652" y="-37.8" font-family="Times,serif" font-size="14.00" fill="#000000">Automate pinning CI</text>
<text text-anchor="middle" x="652" y="-22.8" font-family="Times,serif" font-size="14.00" fill="#000000">dependencies to specific</text>
<text text-anchor="middle" x="652" y="-7.8" font-family="Times,serif" font-size="14.00" fill="#000000">commit hashes</text>
</a>
</g>
</g>
<!-- ZcashFoundation/zebra#1963&#45;&gt;ZcashFoundation/zebra#4412 -->
<g id="edge7" class="edge">
<title>ZcashFoundation/zebra#1963&#45;&gt;ZcashFoundation/zebra#4412</title>
<path fill="none" stroke="#000000" d="M466.6,-93.495C488.63,-86.425 512.85,-78.653 536.3,-71.126"/>
<polygon fill="#000000" stroke="#000000" points="537.4967,-74.4179 545.95,-68.031 535.3588,-67.7523 537.4967,-74.4179"/>
</g>
<!-- ZcashFoundation/zebra#1894 -->
<g id="node3" class="node open">
<title>ZcashFoundation/zebra#1894</title>
<g id="a_node3"><a xlink:href="https://github.com/ZcashFoundation/zebra/issues/1894" xlink:title="ZcashFoundation/zebra#1894&#10;Zebra should follow OS&#10;directory conventions&#10;better" target="_blank">
<polygon fill="#c2e0c6" stroke="#000000" points="768,-451 536,-451 536,-383 768,-383 768,-451"/>
<text text-anchor="middle" x="652" y="-435.8" font-family="Times,serif" font-size="14.00" fill="#000000">ZcashFoundation/zebra#1894</text>
<text text-anchor="middle" x="652" y="-420.8" font-family="Times,serif" font-size="14.00" fill="#000000">Zebra should follow OS</text>
<text text-anchor="middle" x="652" y="-405.8" font-family="Times,serif" font-size="14.00" fill="#000000">directory conventions</text>
<text text-anchor="middle" x="652" y="-390.8" font-family="Times,serif" font-size="14.00" fill="#000000">better</text>
</a>
</g>
</g>
<!-- ZcashFoundation/zebra#3432 -->
<g id="node4" class="node open">
<title>ZcashFoundation/zebra#3432</title>
<g id="a_node4"><a xlink:href="https://github.com/ZcashFoundation/zebra/issues/3432" xlink:title="ZcashFoundation/zebra#3432&#10;Use the Filesystem&#10;Hierarchy Standard (FHS)&#10;for deployments and&#10;artifacts" target="_blank">
<polygon fill="#c2e0c6" stroke="#000000" points="1036,-458.5 804,-458.5 804,-375.5 1036,-375.5 1036,-458.5"/>
<text text-anchor="middle" x="920" y="-443.3" font-family="Times,serif" font-size="14.00" fill="#000000">ZcashFoundation/zebra#3432</text>
<text text-anchor="middle" x="920" y="-428.3" font-family="Times,serif" font-size="14.00" fill="#000000">Use the Filesystem</text>
<text text-anchor="middle" x="920" y="-413.3" font-family="Times,serif" font-size="14.00" fill="#000000">Hierarchy Standard (FHS)</text>
<text text-anchor="middle" x="920" y="-398.3" font-family="Times,serif" font-size="14.00" fill="#000000">for deployments and</text>
<text text-anchor="middle" x="920" y="-383.3" font-family="Times,serif" font-size="14.00" fill="#000000">artifacts</text>
</a>
</g>
</g>
<!-- ZcashFoundation/zebra#1894&#45;&gt;ZcashFoundation/zebra#3432 -->
<g id="edge1" class="edge">
<title>ZcashFoundation/zebra#1894&#45;&gt;ZcashFoundation/zebra#3432</title>
<path fill="none" stroke="#000000" d="M768.38,-417C776.71,-417 785.14,-417 793.53,-417"/>
<polygon fill="#000000" stroke="#000000" points="793.74,-420.5001 803.74,-417 793.74,-413.5001 793.74,-420.5001"/>
</g>
<!-- ZcashFoundation/zebra#3050 -->
<g id="node5" class="node open">
<title>ZcashFoundation/zebra#3050</title>
<g id="a_node5"><a xlink:href="https://github.com/ZcashFoundation/zebra/issues/3050" xlink:title="ZcashFoundation/zebra#3050&#10;Tag Zebra 1.0.0&#45;rc.0&#10;stable release candidate" target="_blank">
<polygon fill="#a7c2aa" stroke="#000000" points="768,-522.5 536,-522.5 536,-469.5 768,-469.5 768,-522.5"/>
<text text-anchor="middle" x="652" y="-507.3" font-family="Times,serif" font-size="14.00" fill="#000000">ZcashFoundation/zebra#3050</text>
<text text-anchor="middle" x="652" y="-492.3" font-family="Times,serif" font-size="14.00" fill="#000000">Tag Zebra 1.0.0&#45;rc.0</text>
<text text-anchor="middle" x="652" y="-477.3" font-family="Times,serif" font-size="14.00" fill="#000000">stable release candidate</text>
</a>
</g>
</g>
<!-- ZcashFoundation/zebra#1904 -->
<g id="node6" class="node open">
<title>ZcashFoundation/zebra#1904</title>
<g id="a_node6"><a xlink:href="https://github.com/ZcashFoundation/zebra/issues/1904" xlink:title="ZcashFoundation/zebra#1904&#10;Some DNS seeders and&#10;block explorers don&#39;t&#10;show Zebra nodes" target="_blank">
<polygon fill="#a7c2aa" stroke="#000000" points="768,-609 536,-609 536,-541 768,-541 768,-609"/>
<text text-anchor="middle" x="652" y="-593.8" font-family="Times,serif" font-size="14.00" fill="#000000">ZcashFoundation/zebra#1904</text>
<text text-anchor="middle" x="652" y="-578.8" font-family="Times,serif" font-size="14.00" fill="#000000">Some DNS seeders and</text>
<text text-anchor="middle" x="652" y="-563.8" font-family="Times,serif" font-size="14.00" fill="#000000">block explorers don&#39;t</text>
<text text-anchor="middle" x="652" y="-548.8" font-family="Times,serif" font-size="14.00" fill="#000000">show Zebra nodes</text>
</a>
</g>
</g>
<!-- ZcashFoundation/zebra#1904&#45;&gt;ZcashFoundation/zebra#1791 -->
<g id="edge8" class="edge">
<title>ZcashFoundation/zebra#1904&#45;&gt;ZcashFoundation/zebra#1791</title>
<path fill="none" stroke="#000000" d="M718.16,-609.13C742.32,-620.94 770.08,-633.78 796,-644 804.01,-647.16 812.38,-650.24 820.84,-653.2"/>
<polygon fill="#000000" stroke="#000000" points="819.8053,-656.5453 830.4,-656.49 822.0832,-649.9263 819.8053,-656.5453"/>
</g>
<!-- ZcashFoundation/zebra#4448 -->
<g id="node7" class="node open">
<title>ZcashFoundation/zebra#4448</title>
<g id="a_node7"><a xlink:href="https://github.com/ZcashFoundation/zebra/issues/4448" xlink:title="ZcashFoundation/zebra#4448&#10;Decide on supported&#10;platforms and test in CI" target="_blank">
<polygon fill="#c2e0c6" stroke="#000000" stroke-width="2" points="500,-522.5 268,-522.5 268,-469.5 500,-469.5 500,-522.5"/>
<text text-anchor="middle" x="384" y="-507.3" font-family="Times,serif" font-size="14.00" fill="#000000">ZcashFoundation/zebra#4448</text>
<text text-anchor="middle" x="384" y="-492.3" font-family="Times,serif" font-size="14.00" fill="#000000">Decide on supported</text>
<text text-anchor="middle" x="384" y="-477.3" font-family="Times,serif" font-size="14.00" fill="#000000">platforms and test in CI</text>
</a>
</g>
</g>
<!-- ZcashFoundation/zebra#4448&#45;&gt;ZcashFoundation/zebra#1894 -->
<g id="edge2" class="edge">
<title>ZcashFoundation/zebra#4448&#45;&gt;ZcashFoundation/zebra#1894</title>
<path fill="none" stroke="#000000" d="M478.84,-469.46C488.7,-466.63 498.56,-463.78 508,-461 515.67,-458.75 523.56,-456.4 531.51,-454.03"/>
<polygon fill="#000000" stroke="#000000" points="532.6516,-457.3416 541.22,-451.11 530.6357,-450.6382 532.6516,-457.3416"/>
</g>
<!-- ZcashFoundation/zebra#4448&#45;&gt;ZcashFoundation/zebra#3050 -->
<g id="edge3" class="edge">
<title>ZcashFoundation/zebra#4448&#45;&gt;ZcashFoundation/zebra#3050</title>
<path fill="none" stroke="#000000" d="M500.38,-496C508.71,-496 517.14,-496 525.53,-496"/>
<polygon fill="#000000" stroke="#000000" points="525.74,-499.5001 535.74,-496 525.74,-492.5001 525.74,-499.5001"/>
</g>
<!-- ZcashFoundation/zebra#4448&#45;&gt;ZcashFoundation/zebra#755 -->
<g id="edge9" class="edge">
<title>ZcashFoundation/zebra#4448&#45;&gt;ZcashFoundation/zebra#755</title>
<path fill="none" stroke="#000000" d="M499.49,-469.45C502.54,-466.88 505.39,-464.07 508,-461 577.37,-379.35 468.17,-300.23 533.71,-217.47"/>
<polygon fill="#000000" stroke="#000000" points="536.5132,-219.5779 540.37,-209.71 531.2013,-215.019 536.5132,-219.5779"/>
</g>
<!-- ZcashFoundation/zebra#4448&#45;&gt;ZcashFoundation/zebra#2564 -->
<g id="edge10" class="edge">
<title>ZcashFoundation/zebra#4448&#45;&gt;ZcashFoundation/zebra#2564</title>
<path fill="none" stroke="#000000" d="M499.82,-469.3C502.75,-466.77 505.49,-464.01 508,-461 550.58,-409.9 495.5,-215.76 536,-163 536.39,-162.49 536.78,-161.99 537.18,-161.5"/>
<polygon fill="#000000" stroke="#000000" points="539.9248,-163.6896 544.21,-154 534.8176,-158.9024 539.9248,-163.6896"/>
</g>
<!-- ZcashFoundation/zebra#4562 -->
<g id="node8" class="node open">
<title>ZcashFoundation/zebra#4562</title>
<g id="a_node8"><a xlink:href="https://github.com/ZcashFoundation/zebra/issues/4562" xlink:title="ZcashFoundation/zebra#4562&#10;Deploy long&#45;running Zebra&#10;nodes after each tagged&#10;release" target="_blank">
<polygon fill="#c2e0c6" stroke="#000000" points="500,-609 268,-609 268,-541 500,-541 500,-609"/>
<text text-anchor="middle" x="384" y="-593.8" font-family="Times,serif" font-size="14.00" fill="#000000">ZcashFoundation/zebra#4562</text>
<text text-anchor="middle" x="384" y="-578.8" font-family="Times,serif" font-size="14.00" fill="#000000">Deploy long&#45;running Zebra</text>
<text text-anchor="middle" x="384" y="-563.8" font-family="Times,serif" font-size="14.00" fill="#000000">nodes after each tagged</text>
<text text-anchor="middle" x="384" y="-548.8" font-family="Times,serif" font-size="14.00" fill="#000000">release</text>
</a>
</g>
</g>
<!-- ZcashFoundation/zebra#4562&#45;&gt;ZcashFoundation/zebra#1904 -->
<g id="edge4" class="edge">
<title>ZcashFoundation/zebra#4562&#45;&gt;ZcashFoundation/zebra#1904</title>
<path fill="none" stroke="#000000" d="M500.38,-575C508.71,-575 517.14,-575 525.53,-575"/>
<polygon fill="#000000" stroke="#000000" points="525.74,-578.5001 535.74,-575 525.74,-571.5001 525.74,-578.5001"/>
</g>
<!-- ZcashFoundation/zebra#1638 -->
<g id="node9" class="node open">
<title>ZcashFoundation/zebra#1638</title>
<g id="a_node9"><a xlink:href="https://github.com/ZcashFoundation/zebra/issues/1638" xlink:title="ZcashFoundation/zebra#1638&#10;Create PGP keys amongst&#10;security@zfnd.org" target="_blank">
<polygon fill="#c2e0c6" stroke="#000000" stroke-width="2" points="500,-451.5 268,-451.5 268,-398.5 500,-398.5 500,-451.5"/>
<text text-anchor="middle" x="384" y="-436.3" font-family="Times,serif" font-size="14.00" fill="#000000">ZcashFoundation/zebra#1638</text>
<text text-anchor="middle" x="384" y="-421.3" font-family="Times,serif" font-size="14.00" fill="#000000">Create PGP keys amongst</text>
<text text-anchor="middle" x="384" y="-406.3" font-family="Times,serif" font-size="14.00" fill="#000000">security@zfnd.org</text>
</a>
</g>
</g>
<!-- ZcashFoundation/zebra#4751 -->
<g id="node10" class="node open">
<title>ZcashFoundation/zebra#4751</title>
<g id="a_node10"><a xlink:href="https://github.com/ZcashFoundation/zebra/issues/4751" xlink:title="ZcashFoundation/zebra#4751&#10;ci: Add missing CI/CD&#10;status labels to&#10;README.md" target="_blank">
<polygon fill="#c2e0c6" stroke="#000000" stroke-width="2" points="500,-380 268,-380 268,-312 500,-312 500,-380"/>
<text text-anchor="middle" x="384" y="-364.8" font-family="Times,serif" font-size="14.00" fill="#000000">ZcashFoundation/zebra#4751</text>
<text text-anchor="middle" x="384" y="-349.8" font-family="Times,serif" font-size="14.00" fill="#000000">ci: Add missing CI/CD</text>
<text text-anchor="middle" x="384" y="-334.8" font-family="Times,serif" font-size="14.00" fill="#000000">status labels to</text>
<text text-anchor="middle" x="384" y="-319.8" font-family="Times,serif" font-size="14.00" fill="#000000">README.md</text>
</a>
</g>
</g>
<!-- ZcashFoundation/zebra#4753 -->
<g id="node11" class="node open">
<title>ZcashFoundation/zebra#4753</title>
<g id="a_node11"><a xlink:href="https://github.com/ZcashFoundation/zebra/issues/4753" xlink:title="ZcashFoundation/zebra#4753&#10;ci: Split deploy&#45;gcp&#45;&#10;tests workflow into&#10;multiple categories" target="_blank">
<polygon fill="#c2e0c6" stroke="#000000" stroke-width="2" points="500,-294 268,-294 268,-226 500,-226 500,-294"/>
<text text-anchor="middle" x="384" y="-278.8" font-family="Times,serif" font-size="14.00" fill="#000000">ZcashFoundation/zebra#4753</text>
<text text-anchor="middle" x="384" y="-263.8" font-family="Times,serif" font-size="14.00" fill="#000000">ci: Split deploy&#45;gcp&#45;</text>
<text text-anchor="middle" x="384" y="-248.8" font-family="Times,serif" font-size="14.00" fill="#000000">tests workflow into</text>
<text text-anchor="middle" x="384" y="-233.8" font-family="Times,serif" font-size="14.00" fill="#000000">multiple categories</text>
</a>
</g>
</g>
<!-- ZcashFoundation/zebra#4554 -->
<g id="node15" class="node open">
<title>ZcashFoundation/zebra#4554</title>
<g id="a_node15"><a xlink:href="https://github.com/ZcashFoundation/zebra/issues/4554" xlink:title="ZcashFoundation/zebra#4554&#10;benchmarks: surface&#10;zebrad mainnet sync time&#10;in CI" target="_blank">
<polygon fill="#c2e0c6" stroke="#000000" stroke-width="2" points="232,-695 0,-695 0,-627 232,-627 232,-695"/>
<text text-anchor="middle" x="116" y="-679.8" font-family="Times,serif" font-size="14.00" fill="#000000">ZcashFoundation/zebra#4554</text>
<text text-anchor="middle" x="116" y="-664.8" font-family="Times,serif" font-size="14.00" fill="#000000">benchmarks: surface</text>
<text text-anchor="middle" x="116" y="-649.8" font-family="Times,serif" font-size="14.00" fill="#000000">zebrad mainnet sync time</text>
<text text-anchor="middle" x="116" y="-634.8" font-family="Times,serif" font-size="14.00" fill="#000000">in CI</text>
</a>
</g>
</g>
<!-- ZcashFoundation/zebra#4546 -->
<g id="node16" class="node open">
<title>ZcashFoundation/zebra#4546</title>
<g id="a_node16"><a xlink:href="https://github.com/ZcashFoundation/zebra/issues/4546" xlink:title="ZcashFoundation/zebra#4546&#10;Fix automatic Zebra&#10;deployments to Google&#10;Cloud" target="_blank">
<polygon fill="#c2e0c6" stroke="#000000" stroke-width="2" points="232,-609 0,-609 0,-541 232,-541 232,-609"/>
<text text-anchor="middle" x="116" y="-593.8" font-family="Times,serif" font-size="14.00" fill="#000000">ZcashFoundation/zebra#4546</text>
<text text-anchor="middle" x="116" y="-578.8" font-family="Times,serif" font-size="14.00" fill="#000000">Fix automatic Zebra</text>
<text text-anchor="middle" x="116" y="-563.8" font-family="Times,serif" font-size="14.00" fill="#000000">deployments to Google</text>
<text text-anchor="middle" x="116" y="-548.8" font-family="Times,serif" font-size="14.00" fill="#000000">Cloud</text>
</a>
</g>
</g>
<!-- ZcashFoundation/zebra#4546&#45;&gt;ZcashFoundation/zebra#4562 -->
<g id="edge11" class="edge">
<title>ZcashFoundation/zebra#4546&#45;&gt;ZcashFoundation/zebra#4562</title>
<path fill="none" stroke="#000000" d="M232.38,-575C240.71,-575 249.14,-575 257.53,-575"/>
<polygon fill="#000000" stroke="#000000" points="257.74,-578.5001 267.74,-575 257.74,-571.5001 257.74,-578.5001"/>
</g>
</g>
</svg>
