<?xml version="1.0" encoding="UTF-8" standalone="no"?>
<?xml-stylesheet href="zcash-dag.css" type="text/css"?>
<!DOCTYPE svg PUBLIC "-//W3C//DTD SVG 1.1//EN"
 "http://www.w3.org/Graphics/SVG/1.1/DTD/svg11.dtd">
<!-- Generated by graphviz version 2.40.1 (20161225.0304)
 -->
<!-- Pages: 1 -->
<svg width="776pt" height="920pt"
 viewBox="0.00 0.00 776.00 919.50" xmlns="http://www.w3.org/2000/svg" xmlns:xlink="http://www.w3.org/1999/xlink">
<g id="graph0" class="graph" transform="scale(1 1) rotate(0) translate(4 915.5)">
<polygon fill="#ffffff" stroke="transparent" points="-4,4 -4,-915.5 772,-915.5 772,4 -4,4"/>
<g id="clust1" class="cluster">
<title>cluster_1</title>
<polygon fill="none" stroke="#0000ff" points="260,-117.5 260,-210.5 508,-210.5 508,-117.5 260,-117.5"/>
<text text-anchor="middle" x="384" y="-195.3" font-family="Times,serif" font-size="14.00" fill="#000000">Epic: Zebra Release Candidate</text>
</g>
<!-- ZcashFoundation/zebra#3050 -->
<g id="node1" class="node open">
<title>ZcashFoundation/zebra#3050</title>
<g id="a_node1"><a xlink:href="https://github.com/ZcashFoundation/zebra/issues/3050" xlink:title="ZcashFoundation/zebra#3050&#10;Tag Zebra 1.0.0&#45;rc.0&#10;stable release candidate" target="_blank">
<polygon fill="#a7c2aa" stroke="#000000" points="500,-179 268,-179 268,-126 500,-126 500,-179"/>
<text text-anchor="middle" x="384" y="-163.8" font-family="Times,serif" font-size="14.00" fill="#000000">ZcashFoundation/zebra#3050</text>
<text text-anchor="middle" x="384" y="-148.8" font-family="Times,serif" font-size="14.00" fill="#000000">Tag Zebra 1.0.0&#45;rc.0</text>
<text text-anchor="middle" x="384" y="-133.8" font-family="Times,serif" font-size="14.00" fill="#000000">stable release candidate</text>
</a>
</g>
</g>
<!-- ZcashFoundation/zebra#4967 -->
<g id="node2" class="node open">
<title>ZcashFoundation/zebra#4967</title>
<g id="a_node2"><a xlink:href="https://github.com/ZcashFoundation/zebra/pull/4967" xlink:title="ZcashFoundation/zebra#4967&#10;feat(rpc): add&#10;getblockhash rpc method" target="_blank">
<polygon fill="#a7c2aa" stroke="#000000" points="768,-258 536,-258 536,-254 532,-254 532,-250 536,-250 536,-213 532,-213 532,-209 536,-209 536,-205 768,-205 768,-258"/>
<polyline fill="none" stroke="#000000" points="536,-254 540,-254 540,-250 536,-250 "/>
<polyline fill="none" stroke="#000000" points="536,-213 540,-213 540,-209 536,-209 "/>
<text text-anchor="middle" x="652" y="-242.8" font-family="Times,serif" font-size="14.00" fill="#000000">ZcashFoundation/zebra#4967</text>
<text text-anchor="middle" x="652" y="-227.8" font-family="Times,serif" font-size="14.00" fill="#000000">feat(rpc): add</text>
<text text-anchor="middle" x="652" y="-212.8" font-family="Times,serif" font-size="14.00" fill="#000000">getblockhash rpc method</text>
</a>
</g>
</g>
<!-- ZcashFoundation/zebra#3050&#45;&gt;ZcashFoundation/zebra#4967 -->
<g id="edge1" class="edge">
<title>ZcashFoundation/zebra#3050&#45;&gt;ZcashFoundation/zebra#4967</title>
<path fill="none" stroke="#000000" d="M473.99,-179.03C499.07,-186.42 526.46,-194.49 552.07,-202.04"/>
<polygon fill="#000000" stroke="#000000" points="551.2183,-205.4378 561.8,-204.91 553.1988,-198.7238 551.2183,-205.4378"/>
</g>
<!-- ZcashFoundation/zebra#4955 -->
<g id="node3" class="node open">
<title>ZcashFoundation/zebra#4955</title>
<g id="a_node3"><a xlink:href="https://github.com/ZcashFoundation/zebra/issues/4955" xlink:title="ZcashFoundation/zebra#4955&#10;Make long&#45;running test&#10;names match workflow&#10;names" target="_blank">
<polygon fill="#c2e0c6" stroke="#000000" points="768,-186.5 536,-186.5 536,-118.5 768,-118.5 768,-186.5"/>
<text text-anchor="middle" x="652" y="-171.3" font-family="Times,serif" font-size="14.00" fill="#000000">ZcashFoundation/zebra#4955</text>
<text text-anchor="middle" x="652" y="-156.3" font-family="Times,serif" font-size="14.00" fill="#000000">Make long&#45;running test</text>
<text text-anchor="middle" x="652" y="-141.3" font-family="Times,serif" font-size="14.00" fill="#000000">names match workflow</text>
<text text-anchor="middle" x="652" y="-126.3" font-family="Times,serif" font-size="14.00" fill="#000000">names</text>
</a>
</g>
</g>
<!-- ZcashFoundation/zebra#3050&#45;&gt;ZcashFoundation/zebra#4955 -->
<g id="edge2" class="edge">
<title>ZcashFoundation/zebra#3050&#45;&gt;ZcashFoundation/zebra#4955</title>
<path fill="none" stroke="#000000" d="M500.38,-152.5C508.71,-152.5 517.14,-152.5 525.53,-152.5"/>
<polygon fill="#000000" stroke="#000000" points="525.74,-156.0001 535.74,-152.5 525.74,-149.0001 525.74,-156.0001"/>
</g>
<!-- ZcashFoundation/zebra#4992 -->
<g id="node4" class="node open">
<title>ZcashFoundation/zebra#4992</title>
<g id="a_node4"><a xlink:href="https://github.com/ZcashFoundation/zebra/issues/4992" xlink:title="ZcashFoundation/zebra#4992&#10;Run cached state CI on&#10;testnet" target="_blank">
<polygon fill="#c2e0c6" stroke="#000000" points="768,-100 536,-100 536,-47 768,-47 768,-100"/>
<text text-anchor="middle" x="652" y="-84.8" font-family="Times,serif" font-size="14.00" fill="#000000">ZcashFoundation/zebra#4992</text>
<text text-anchor="middle" x="652" y="-69.8" font-family="Times,serif" font-size="14.00" fill="#000000">Run cached state CI on</text>
<text text-anchor="middle" x="652" y="-54.8" font-family="Times,serif" font-size="14.00" fill="#000000">testnet</text>
</a>
</g>
</g>
<!-- ZcashFoundation/zebra#3050&#45;&gt;ZcashFoundation/zebra#4992 -->
<g id="edge3" class="edge">
<title>ZcashFoundation/zebra#3050&#45;&gt;ZcashFoundation/zebra#4992</title>
<path fill="none" stroke="#000000" d="M473.99,-125.97C499.07,-118.58 526.46,-110.51 552.07,-102.96"/>
<polygon fill="#000000" stroke="#000000" points="553.1988,-106.2762 561.8,-100.09 551.2183,-99.5622 553.1988,-106.2762"/>
</g>
<!-- ZcashFoundation/zebra#5312 -->
<g id="node5" class="node open">
<title>ZcashFoundation/zebra#5312</title>
<g id="a_node5"><a xlink:href="https://github.com/ZcashFoundation/zebra/pull/5312" xlink:title="ZcashFoundation/zebra#5312&#10;fix(docker): Add latest&#10;and edge tags to Docker&#10;images" target="_blank">
<polygon fill="#c2e0c6" stroke="#000000" stroke-width="2" points="232,-327.5 0,-327.5 0,-323.5 -4,-323.5 -4,-319.5 0,-319.5 0,-267.5 -4,-267.5 -4,-263.5 0,-263.5 0,-259.5 232,-259.5 232,-327.5"/>
<polyline fill="none" stroke="#000000" stroke-width="2" points="0,-323.5 4,-323.5 4,-319.5 0,-319.5 "/>
<polyline fill="none" stroke="#000000" stroke-width="2" points="0,-267.5 4,-267.5 4,-263.5 0,-263.5 "/>
<text text-anchor="middle" x="116" y="-312.3" font-family="Times,serif" font-size="14.00" fill="#000000">ZcashFoundation/zebra#5312</text>
<text text-anchor="middle" x="116" y="-297.3" font-family="Times,serif" font-size="14.00" fill="#000000">fix(docker): Add latest</text>
<text text-anchor="middle" x="116" y="-282.3" font-family="Times,serif" font-size="14.00" fill="#000000">and edge tags to Docker</text>
<text text-anchor="middle" x="116" y="-267.3" font-family="Times,serif" font-size="14.00" fill="#000000">images</text>
</a>
</g>
</g>
<!-- ZcashFoundation/zebra#5312&#45;&gt;ZcashFoundation/zebra#3050 -->
<g id="edge4" class="edge">
<title>ZcashFoundation/zebra#5312&#45;&gt;ZcashFoundation/zebra#3050</title>
<path fill="none" stroke="#000000" d="M210.72,-259.44C218,-256.26 225.17,-252.93 232,-249.5 269.43,-230.71 309.25,-205.06 338.75,-184.86"/>
<polygon fill="#000000" stroke="#000000" points="340.9218,-187.6136 347.16,-179.05 336.943,-181.8544 340.9218,-187.6136"/>
</g>
<!-- ZcashFoundation/zebra#5313 -->
<g id="node6" class="node open">
<title>ZcashFoundation/zebra#5313</title>
<g id="a_node6"><a xlink:href="https://github.com/ZcashFoundation/zebra/pull/5313" xlink:title="ZcashFoundation/zebra#5313&#10;fix(docker): Make default&#10;command work in docker&#10;images, disable optional&#10;listener ports" target="_blank">
<polygon fill="#c2e0c6" stroke="#000000" stroke-width="2" points="232,-241 0,-241 0,-237 -4,-237 -4,-233 0,-233 0,-166 -4,-166 -4,-162 0,-162 0,-158 232,-158 232,-241"/>
<polyline fill="none" stroke="#000000" stroke-width="2" points="0,-237 4,-237 4,-233 0,-233 "/>
<polyline fill="none" stroke="#000000" stroke-width="2" points="0,-166 4,-166 4,-162 0,-162 "/>
<text text-anchor="middle" x="116" y="-225.8" font-family="Times,serif" font-size="14.00" fill="#000000">ZcashFoundation/zebra#5313</text>
<text text-anchor="middle" x="116" y="-210.8" font-family="Times,serif" font-size="14.00" fill="#000000">fix(docker): Make default</text>
<text text-anchor="middle" x="116" y="-195.8" font-family="Times,serif" font-size="14.00" fill="#000000">command work in docker</text>
<text text-anchor="middle" x="116" y="-180.8" font-family="Times,serif" font-size="14.00" fill="#000000">images, disable optional</text>
<text text-anchor="middle" x="116" y="-165.8" font-family="Times,serif" font-size="14.00" fill="#000000">listener ports</text>
</a>
</g>
</g>
<!-- ZcashFoundation/zebra#5313&#45;&gt;ZcashFoundation/zebra#3050 -->
<g id="edge5" class="edge">
<title>ZcashFoundation/zebra#5313&#45;&gt;ZcashFoundation/zebra#3050</title>
<path fill="none" stroke="#000000" d="M232.38,-179.09C240.81,-177.61 249.33,-176.12 257.81,-174.63"/>
<polygon fill="#000000" stroke="#000000" points="258.4942,-178.0635 267.74,-172.89 257.286,-171.1686 258.4942,-178.0635"/>
</g>
<!-- ZcashFoundation/zebra#4953 -->
<g id="node7" class="node open">
<title>ZcashFoundation/zebra#4953</title>
<g id="a_node7"><a xlink:href="https://github.com/ZcashFoundation/zebra/issues/4953" xlink:title="ZcashFoundation/zebra#4953&#10;Document how to use&#10;released Zebra binaries" target="_blank">
<polygon fill="#c2e0c6" stroke="#000000" stroke-width="2" points="232,-399 0,-399 0,-346 232,-346 232,-399"/>
<text text-anchor="middle" x="116" y="-383.8" font-family="Times,serif" font-size="14.00" fill="#000000">ZcashFoundation/zebra#4953</text>
<text text-anchor="middle" x="116" y="-368.8" font-family="Times,serif" font-size="14.00" fill="#000000">Document how to use</text>
<text text-anchor="middle" x="116" y="-353.8" font-family="Times,serif" font-size="14.00" fill="#000000">released Zebra binaries</text>
</a>
</g>
</g>
<!-- ZcashFoundation/zebra#1615 -->
<g id="node8" class="node open">
<title>ZcashFoundation/zebra#1615</title>
<g id="a_node8"><a xlink:href="https://github.com/ZcashFoundation/zebra/issues/1615" xlink:title="ZcashFoundation/zebra#1615&#10;Zebra release candidate&#10;binaries should be linked&#10;from ZFND website" target="_blank">
<polygon fill="#a7c2aa" stroke="#000000" points="500,-406.5 268,-406.5 268,-338.5 500,-338.5 500,-406.5"/>
<text text-anchor="middle" x="384" y="-391.3" font-family="Times,serif" font-size="14.00" fill="#000000">ZcashFoundation/zebra#1615</text>
<text text-anchor="middle" x="384" y="-376.3" font-family="Times,serif" font-size="14.00" fill="#000000">Zebra release candidate</text>
<text text-anchor="middle" x="384" y="-361.3" font-family="Times,serif" font-size="14.00" fill="#000000">binaries should be linked</text>
<text text-anchor="middle" x="384" y="-346.3" font-family="Times,serif" font-size="14.00" fill="#000000">from ZFND website</text>
</a>
</g>
</g>
<!-- ZcashFoundation/zebra#4953&#45;&gt;ZcashFoundation/zebra#1615 -->
<g id="edge6" class="edge">
<title>ZcashFoundation/zebra#4953&#45;&gt;ZcashFoundation/zebra#1615</title>
<path fill="none" stroke="#000000" d="M232.38,-372.5C240.71,-372.5 249.14,-372.5 257.53,-372.5"/>
<polygon fill="#000000" stroke="#000000" points="257.74,-376.0001 267.74,-372.5 257.74,-369.0001 257.74,-376.0001"/>
</g>
<!-- ZcashFoundation/zebra#4954 -->
<g id="node9" class="node open">
<title>ZcashFoundation/zebra#4954</title>
<g id="a_node9"><a xlink:href="https://github.com/ZcashFoundation/zebra/issues/4954" xlink:title="ZcashFoundation/zebra#4954&#10;Update release checklist&#10;PR template for the&#10;release candidate series" target="_blank">
<polygon fill="#c2e0c6" stroke="#000000" stroke-width="2" points="232,-139.5 0,-139.5 0,-71.5 232,-71.5 232,-139.5"/>
<text text-anchor="middle" x="116" y="-124.3" font-family="Times,serif" font-size="14.00" fill="#000000">ZcashFoundation/zebra#4954</text>
<text text-anchor="middle" x="116" y="-109.3" font-family="Times,serif" font-size="14.00" fill="#000000">Update release checklist</text>
<text text-anchor="middle" x="116" y="-94.3" font-family="Times,serif" font-size="14.00" fill="#000000">PR template for the</text>
<text text-anchor="middle" x="116" y="-79.3" font-family="Times,serif" font-size="14.00" fill="#000000">release candidate series</text>
</a>
</g>
</g>
<!-- ZcashFoundation/zebra#4954&#45;&gt;ZcashFoundation/zebra#3050 -->
<g id="edge7" class="edge">
<title>ZcashFoundation/zebra#4954&#45;&gt;ZcashFoundation/zebra#3050</title>
<path fill="none" stroke="#000000" d="M232.38,-125.91C240.81,-127.39 249.33,-128.88 257.81,-130.37"/>
<polygon fill="#000000" stroke="#000000" points="257.286,-133.8314 267.74,-132.11 258.4942,-126.9365 257.286,-133.8314"/>
</g>
<!-- ZcashFoundation/zebra#4412 -->
<g id="node10" class="node open">
<title>ZcashFoundation/zebra#4412</title>
<g id="a_node10"><a xlink:href="https://github.com/ZcashFoundation/zebra/issues/4412" xlink:title="ZcashFoundation/zebra#4412&#10;Automate pinning CI&#10;dependencies to specific&#10;commit hashes" target="_blank">
<polygon fill="#c2e0c6" stroke="#000000" stroke-width="2" points="232,-485.5 0,-485.5 0,-417.5 232,-417.5 232,-485.5"/>
<text text-anchor="middle" x="116" y="-470.3" font-family="Times,serif" font-size="14.00" fill="#000000">ZcashFoundation/zebra#4412</text>
<text text-anchor="middle" x="116" y="-455.3" font-family="Times,serif" font-size="14.00" fill="#000000">Automate pinning CI</text>
<text text-anchor="middle" x="116" y="-440.3" font-family="Times,serif" font-size="14.00" fill="#000000">dependencies to specific</text>
<text text-anchor="middle" x="116" y="-425.3" font-family="Times,serif" font-size="14.00" fill="#000000">commit hashes</text>
</a>
</g>
</g>
<!-- ZcashFoundation/zebra#4612 -->
<g id="node11" class="node closed">
<title>ZcashFoundation/zebra#4612</title>
<g id="a_node11"><a xlink:href="https://github.com/ZcashFoundation/zebra/issues/4612" xlink:title="ZcashFoundation/zebra#4612&#10;ci: Wait for lightwalletd&#10;image rebuild if it has&#10;changed" target="_blank">
<polygon fill="#fad8c7" stroke="#000000" points="500,-571.5 268,-571.5 268,-503.5 500,-503.5 500,-571.5"/>
<text text-anchor="middle" x="384" y="-556.3" font-family="Times,serif" font-size="14.00" fill="#000000">ZcashFoundation/zebra#4612</text>
<text text-anchor="middle" x="384" y="-541.3" font-family="Times,serif" font-size="14.00" fill="#000000">ci: Wait for lightwalletd</text>
<text text-anchor="middle" x="384" y="-526.3" font-family="Times,serif" font-size="14.00" fill="#000000">image rebuild if it has</text>
<text text-anchor="middle" x="384" y="-511.3" font-family="Times,serif" font-size="14.00" fill="#000000">changed</text>
</a>
</g>
</g>
<!-- ZcashFoundation/zebra#5091 -->
<g id="node12" class="node open">
<title>ZcashFoundation/zebra#5091</title>
<g id="a_node12"><a xlink:href="https://github.com/ZcashFoundation/zebra/issues/5091" xlink:title="ZcashFoundation/zebra#5091&#10;Fix parameter download&#10;hangs with Rust 1.64" target="_blank">
<polygon fill="#c2e0c6" stroke="#000000" stroke-width="2" points="232,-53 0,-53 0,0 232,0 232,-53"/>
<text text-anchor="middle" x="116" y="-37.8" font-family="Times,serif" font-size="14.00" fill="#000000">ZcashFoundation/zebra#5091</text>
<text text-anchor="middle" x="116" y="-22.8" font-family="Times,serif" font-size="14.00" fill="#000000">Fix parameter download</text>
<text text-anchor="middle" x="116" y="-7.8" font-family="Times,serif" font-size="14.00" fill="#000000">hangs with Rust 1.64</text>
</a>
</g>
</g>
<!-- ZcashFoundation/zebra#5091&#45;&gt;ZcashFoundation/zebra#3050 -->
<g id="edge8" class="edge">
<title>ZcashFoundation/zebra#5091&#45;&gt;ZcashFoundation/zebra#3050</title>
<path fill="none" stroke="#000000" d="M208.54,-53.056C216.57,-56.008 224.48,-59.164 232,-62.5 268.45,-78.681 307.09,-101.65 336.29,-120.33"/>
<polygon fill="#000000" stroke="#000000" points="334.7405,-123.4957 345.04,-125.98 338.5377,-117.6151 334.7405,-123.4957"/>
</g>
<!-- ZcashFoundation/zebra#5153 -->
<g id="node13" class="node open">
<title>ZcashFoundation/zebra#5153</title>
<g id="a_node13"><a xlink:href="https://github.com/ZcashFoundation/zebra/issues/5153" xlink:title="ZcashFoundation/zebra#5153&#10;Tag Google Cloud&#10;instances with the name&#10;of the test or workflow" target="_blank">
<polygon fill="#c2e0c6" stroke="#000000" stroke-width="2" points="232,-698.5 0,-698.5 0,-630.5 232,-630.5 232,-698.5"/>
<text text-anchor="middle" x="116" y="-683.3" font-family="Times,serif" font-size="14.00" fill="#000000">ZcashFoundation/zebra#5153</text>
<text text-anchor="middle" x="116" y="-668.3" font-family="Times,serif" font-size="14.00" fill="#000000">Tag Google Cloud</text>
<text text-anchor="middle" x="116" y="-653.3" font-family="Times,serif" font-size="14.00" fill="#000000">instances with the name</text>
<text text-anchor="middle" x="116" y="-638.3" font-family="Times,serif" font-size="14.00" fill="#000000">of the test or workflow</text>
</a>
</g>
</g>
<!-- ZcashFoundation/zebra#5155 -->
<g id="node14" class="node closed">
<title>ZcashFoundation/zebra#5155</title>
<g id="a_node14"><a xlink:href="https://github.com/ZcashFoundation/zebra/issues/5155" xlink:title="ZcashFoundation/zebra#5155&#10;Decide if we want to&#10;create cached states more&#10;often" target="_blank">
<polygon fill="#fad8c7" stroke="#000000" points="500,-743.5 268,-743.5 268,-675.5 500,-675.5 500,-743.5"/>
<text text-anchor="middle" x="384" y="-728.3" font-family="Times,serif" font-size="14.00" fill="#000000">ZcashFoundation/zebra#5155</text>
<text text-anchor="middle" x="384" y="-713.3" font-family="Times,serif" font-size="14.00" fill="#000000">Decide if we want to</text>
<text text-anchor="middle" x="384" y="-698.3" font-family="Times,serif" font-size="14.00" fill="#000000">create cached states more</text>
<text text-anchor="middle" x="384" y="-683.3" font-family="Times,serif" font-size="14.00" fill="#000000">often</text>
</a>
</g>
</g>
<!-- ZcashFoundation/zebra#5153&#45;&gt;ZcashFoundation/zebra#5155 -->
<g id="edge9" class="edge">
<title>ZcashFoundation/zebra#5153&#45;&gt;ZcashFoundation/zebra#5155</title>
<path fill="none" stroke="#000000" d="M232.38,-684.04C240.81,-685.46 249.33,-686.89 257.81,-688.31"/>
<polygon fill="#000000" stroke="#000000" points="257.298,-691.773 267.74,-689.98 258.459,-684.8699 257.298,-691.773"/>
</g>
<!-- ZcashFoundation/zebra#5188 -->
<g id="node15" class="node closed">
<title>ZcashFoundation/zebra#5188</title>
<g id="a_node15"><a xlink:href="https://github.com/ZcashFoundation/zebra/issues/5188" xlink:title="ZcashFoundation/zebra#5188&#10;Reduce continuous&#10;deployment instance group&#10;size to 1" target="_blank">
<polygon fill="#fad8c7" stroke="#000000" points="500,-657.5 268,-657.5 268,-589.5 500,-589.5 500,-657.5"/>
<text text-anchor="middle" x="384" y="-642.3" font-family="Times,serif" font-size="14.00" fill="#000000">ZcashFoundation/zebra#5188</text>
<text text-anchor="middle" x="384" y="-627.3" font-family="Times,serif" font-size="14.00" fill="#000000">Reduce continuous</text>
<text text-anchor="middle" x="384" y="-612.3" font-family="Times,serif" font-size="14.00" fill="#000000">deployment instance group</text>
<text text-anchor="middle" x="384" y="-597.3" font-family="Times,serif" font-size="14.00" fill="#000000">size to 1</text>
</a>
</g>
</g>
<!-- ZcashFoundation/zebra#5153&#45;&gt;ZcashFoundation/zebra#5188 -->
<g id="edge10" class="edge">
<title>ZcashFoundation/zebra#5153&#45;&gt;ZcashFoundation/zebra#5188</title>
<path fill="none" stroke="#000000" d="M232.38,-646.7C240.81,-645.41 249.33,-644.1 257.81,-642.81"/>
<polygon fill="#000000" stroke="#000000" points="258.3847,-646.2629 267.74,-641.29 257.3255,-639.3435 258.3847,-646.2629"/>
</g>
<!-- ZcashFoundation/zebra#4882 -->
<g id="node16" class="node open">
<title>ZcashFoundation/zebra#4882</title>
<g id="a_node16"><a xlink:href="https://github.com/ZcashFoundation/zebra/issues/4882" xlink:title="ZcashFoundation/zebra#4882&#10;Add zcash&#45;lightwalletd /&#10;Build images to required&#10;jobs" target="_blank">
<polygon fill="#c2e0c6" stroke="#000000" stroke-width="2" points="232,-571.5 0,-571.5 0,-503.5 232,-503.5 232,-571.5"/>
<text text-anchor="middle" x="116" y="-556.3" font-family="Times,serif" font-size="14.00" fill="#000000">ZcashFoundation/zebra#4882</text>
<text text-anchor="middle" x="116" y="-541.3" font-family="Times,serif" font-size="14.00" fill="#000000">Add zcash&#45;lightwalletd /</text>
<text text-anchor="middle" x="116" y="-526.3" font-family="Times,serif" font-size="14.00" fill="#000000">Build images to required</text>
<text text-anchor="middle" x="116" y="-511.3" font-family="Times,serif" font-size="14.00" fill="#000000">jobs</text>
</a>
</g>
</g>
<!-- ZcashFoundation/zebra#4882&#45;&gt;ZcashFoundation/zebra#4612 -->
<g id="edge11" class="edge">
<title>ZcashFoundation/zebra#4882&#45;&gt;ZcashFoundation/zebra#4612</title>
<path fill="none" stroke="#000000" d="M232.38,-537.5C240.71,-537.5 249.14,-537.5 257.53,-537.5"/>
<polygon fill="#000000" stroke="#000000" points="257.74,-541.0001 267.74,-537.5 257.74,-534.0001 257.74,-541.0001"/>
</g>
<!-- ZcashFoundation/zebra#5189 -->
<g id="node17" class="node open">
<title>ZcashFoundation/zebra#5189</title>
<g id="a_node17"><a xlink:href="https://github.com/ZcashFoundation/zebra/issues/5189" xlink:title="ZcashFoundation/zebra#5189&#10;Run some docker tests on&#10;smaller instances" target="_blank">
<polygon fill="#c2e0c6" stroke="#000000" points="500,-818 268,-818 268,-765 500,-765 500,-818"/>
<text text-anchor="middle" x="384" y="-802.8" font-family="Times,serif" font-size="14.00" fill="#000000">ZcashFoundation/zebra#5189</text>
<text text-anchor="middle" x="384" y="-787.8" font-family="Times,serif" font-size="14.00" fill="#000000">Run some docker tests on</text>
<text text-anchor="middle" x="384" y="-772.8" font-family="Times,serif" font-size="14.00" fill="#000000">smaller instances</text>
</a>
</g>
</g>
<!-- ZcashFoundation/zebra#5199 -->
<g id="node18" class="node open">
<title>ZcashFoundation/zebra#5199</title>
<g id="a_node18"><a xlink:href="https://github.com/ZcashFoundation/zebra/issues/5199" xlink:title="ZcashFoundation/zebra#5199&#10;Consider using `nextest`&#10;to run tests faster and&#10;reduce Google Cloud costs" target="_blank">
<polygon fill="#c2e0c6" stroke="#000000" stroke-width="2" points="232,-825.5 0,-825.5 0,-757.5 232,-757.5 232,-825.5"/>
<text text-anchor="middle" x="116" y="-810.3" font-family="Times,serif" font-size="14.00" fill="#000000">ZcashFoundation/zebra#5199</text>
<text text-anchor="middle" x="116" y="-795.3" font-family="Times,serif" font-size="14.00" fill="#000000">Consider using `nextest`</text>
<text text-anchor="middle" x="116" y="-780.3" font-family="Times,serif" font-size="14.00" fill="#000000">to run tests faster and</text>
<text text-anchor="middle" x="116" y="-765.3" font-family="Times,serif" font-size="14.00" fill="#000000">reduce Google Cloud costs</text>
</a>
</g>
</g>
<!-- ZcashFoundation/zebra#5199&#45;&gt;ZcashFoundation/zebra#5189 -->
<g id="edge12" class="edge">
<title>ZcashFoundation/zebra#5199&#45;&gt;ZcashFoundation/zebra#5189</title>
<path fill="none" stroke="#000000" d="M232.38,-791.5C240.71,-791.5 249.14,-791.5 257.53,-791.5"/>
<polygon fill="#000000" stroke="#000000" points="257.74,-795.0001 267.74,-791.5 257.74,-788.0001 257.74,-795.0001"/>
</g>
<!-- ZcashFoundation/zebra#4554 -->
<g id="node19" class="node open">
<title>ZcashFoundation/zebra#4554</title>
<g id="a_node19"><a xlink:href="https://github.com/ZcashFoundation/zebra/issues/4554" xlink:title="ZcashFoundation/zebra#4554&#10;benchmarks: surface&#10;zebrad mainnet sync time&#10;in CI" target="_blank">
<polygon fill="#c2e0c6" stroke="#000000" stroke-width="2" points="232,-911.5 0,-911.5 0,-843.5 232,-843.5 232,-911.5"/>
<text text-anchor="middle" x="116" y="-896.3" font-family="Times,serif" font-size="14.00" fill="#000000">ZcashFoundation/zebra#4554</text>
<text text-anchor="middle" x="116" y="-881.3" font-family="Times,serif" font-size="14.00" fill="#000000">benchmarks: surface</text>
<text text-anchor="middle" x="116" y="-866.3" font-family="Times,serif" font-size="14.00" fill="#000000">zebrad mainnet sync time</text>
<text text-anchor="middle" x="116" y="-851.3" font-family="Times,serif" font-size="14.00" fill="#000000">in CI</text>
</a>
</g>
</g>
</g>
</svg>
