<?xml version="1.0" encoding="UTF-8" standalone="no"?>
<?xml-stylesheet href="zcash-dag.css" type="text/css"?>
<!DOCTYPE svg PUBLIC "-//W3C//DTD SVG 1.1//EN"
 "http://www.w3.org/Graphics/SVG/1.1/DTD/svg11.dtd">
<!-- Generated by graphviz version 2.40.1 (20161225.0304)
 -->
<!-- Pages: 1 -->
<svg width="832pt" height="1255pt"
 viewBox="0.00 0.00 832.00 1255.00" xmlns="http://www.w3.org/2000/svg" xmlns:xlink="http://www.w3.org/1999/xlink">
<g id="graph0" class="graph" transform="scale(1 1) rotate(0) translate(4 1251)">
<polygon fill="#ffffff" stroke="transparent" points="-4,4 -4,-1251 828,-1251 828,4 -4,4"/>
<g id="clust1" class="cluster">
<title>cluster_2</title>
<polygon fill="none" stroke="#0000ff" points="536,-281 536,-388 824,-388 824,-281 536,-281"/>
<text text-anchor="middle" x="680" y="-372.8" font-family="Times,serif" font-size="14.00" fill="#000000">Epic: Zebra as a lightwalletd backend</text>
</g>
<g id="clust2" class="cluster">
<title>cluster_1</title>
<polygon fill="none" stroke="#0000ff" points="0,-565 0,-1247 516,-1247 516,-565 0,-565"/>
<text text-anchor="middle" x="258" y="-1231.8" font-family="Times,serif" font-size="14.00" fill="#000000">DevOps Ticket Tracker</text>
</g>
<g id="clust3" class="cluster">
<title>cluster_0</title>
<polygon fill="none" stroke="#0000ff" points="268,-48 268,-557 516,-557 516,-48 268,-48"/>
<text text-anchor="middle" x="392" y="-541.8" font-family="Times,serif" font-size="14.00" fill="#000000">Epic: Zebra Release Candidates</text>
</g>
<!-- ZcashFoundation/zebra#4612 -->
<g id="node1" class="node open">
<title>ZcashFoundation/zebra#4612</title>
<g id="a_node1"><a xlink:href="https://github.com/ZcashFoundation/zebra/issues/4612" xlink:title="ZcashFoundation/zebra#4612&#10;ci: Wait for lightwalletd&#10;image rebuild if it has&#10;changed" target="_blank">
<polygon fill="#c2e0c6" stroke="#000000" points="796,-357 564,-357 564,-289 796,-289 796,-357"/>
<text text-anchor="middle" x="680" y="-341.8" font-family="Times,serif" font-size="14.00" fill="#000000">ZcashFoundation/zebra#4612</text>
<text text-anchor="middle" x="680" y="-326.8" font-family="Times,serif" font-size="14.00" fill="#000000">ci: Wait for lightwalletd</text>
<text text-anchor="middle" x="680" y="-311.8" font-family="Times,serif" font-size="14.00" fill="#000000">image rebuild if it has</text>
<text text-anchor="middle" x="680" y="-296.8" font-family="Times,serif" font-size="14.00" fill="#000000">changed</text>
</a>
</g>
</g>
<!-- ZcashFoundation/zebra#4953 -->
<g id="node2" class="node open">
<title>ZcashFoundation/zebra#4953</title>
<g id="a_node2"><a xlink:href="https://github.com/ZcashFoundation/zebra/issues/4953" xlink:title="ZcashFoundation/zebra#4953&#10;Document how to use&#10;released Zebra binaries" target="_blank">
<polygon fill="#c2e0c6" stroke="#000000" stroke-width="2" points="240,-1144.5 8,-1144.5 8,-1091.5 240,-1091.5 240,-1144.5"/>
<text text-anchor="middle" x="124" y="-1129.3" font-family="Times,serif" font-size="14.00" fill="#000000">ZcashFoundation/zebra#4953</text>
<text text-anchor="middle" x="124" y="-1114.3" font-family="Times,serif" font-size="14.00" fill="#000000">Document how to use</text>
<text text-anchor="middle" x="124" y="-1099.3" font-family="Times,serif" font-size="14.00" fill="#000000">released Zebra binaries</text>
</a>
</g>
</g>
<!-- ZcashFoundation/zebra#1615 -->
<g id="node12" class="node open">
<title>ZcashFoundation/zebra#1615</title>
<g id="a_node12"><a xlink:href="https://github.com/ZcashFoundation/zebra/issues/1615" xlink:title="ZcashFoundation/zebra#1615&#10;Zebra release candidate&#10;binaries should be linked&#10;from ZFND website" target="_blank">
<polygon fill="#a7c2aa" stroke="#000000" points="508,-526 276,-526 276,-458 508,-458 508,-526"/>
<text text-anchor="middle" x="392" y="-510.8" font-family="Times,serif" font-size="14.00" fill="#000000">ZcashFoundation/zebra#1615</text>
<text text-anchor="middle" x="392" y="-495.8" font-family="Times,serif" font-size="14.00" fill="#000000">Zebra release candidate</text>
<text text-anchor="middle" x="392" y="-480.8" font-family="Times,serif" font-size="14.00" fill="#000000">binaries should be linked</text>
<text text-anchor="middle" x="392" y="-465.8" font-family="Times,serif" font-size="14.00" fill="#000000">from ZFND website</text>
</a>
</g>
</g>
<!-- ZcashFoundation/zebra#4953&#45;&gt;ZcashFoundation/zebra#1615 -->
<g id="edge7" class="edge">
<title>ZcashFoundation/zebra#4953&#45;&gt;ZcashFoundation/zebra#1615</title>
<path fill="none" stroke="#000000" d="M231.38,-1091.1C234.51,-1088.4 237.41,-1085.3 240,-1082 311.25,-990.53 206.57,-659.34 268,-561 275.02,-549.76 284.57,-540.2 295.26,-532.1"/>
<polygon fill="#000000" stroke="#000000" points="297.4834,-534.8153 303.65,-526.2 293.4567,-529.0893 297.4834,-534.8153"/>
</g>
<!-- ZcashFoundation/zebra#1963 -->
<g id="node3" class="node open">
<title>ZcashFoundation/zebra#1963</title>
<g id="a_node3"><a xlink:href="https://github.com/ZcashFoundation/zebra/issues/1963" xlink:title="ZcashFoundation/zebra#1963&#10;Work out how to release&#10;Zebra binaries" target="_blank">
<polygon fill="#c2e0c6" stroke="#000000" stroke-width="2" points="240,-1215.5 8,-1215.5 8,-1162.5 240,-1162.5 240,-1215.5"/>
<text text-anchor="middle" x="124" y="-1200.3" font-family="Times,serif" font-size="14.00" fill="#000000">ZcashFoundation/zebra#1963</text>
<text text-anchor="middle" x="124" y="-1185.3" font-family="Times,serif" font-size="14.00" fill="#000000">Work out how to release</text>
<text text-anchor="middle" x="124" y="-1170.3" font-family="Times,serif" font-size="14.00" fill="#000000">Zebra binaries</text>
</a>
</g>
</g>
<!-- ZcashFoundation/zebra#4954 -->
<g id="node4" class="node open">
<title>ZcashFoundation/zebra#4954</title>
<g id="a_node4"><a xlink:href="https://github.com/ZcashFoundation/zebra/issues/4954" xlink:title="ZcashFoundation/zebra#4954&#10;Update release checklist&#10;PR template for the&#10;release candidate series" target="_blank">
<polygon fill="#c2e0c6" stroke="#000000" points="508,-886 276,-886 276,-818 508,-818 508,-886"/>
<text text-anchor="middle" x="392" y="-870.8" font-family="Times,serif" font-size="14.00" fill="#000000">ZcashFoundation/zebra#4954</text>
<text text-anchor="middle" x="392" y="-855.8" font-family="Times,serif" font-size="14.00" fill="#000000">Update release checklist</text>
<text text-anchor="middle" x="392" y="-840.8" font-family="Times,serif" font-size="14.00" fill="#000000">PR template for the</text>
<text text-anchor="middle" x="392" y="-825.8" font-family="Times,serif" font-size="14.00" fill="#000000">release candidate series</text>
</a>
</g>
</g>
<!-- ZcashFoundation/zebra#1963&#45;&gt;ZcashFoundation/zebra#4954 -->
<g id="edge1" class="edge">
<title>ZcashFoundation/zebra#1963&#45;&gt;ZcashFoundation/zebra#4954</title>
<path fill="none" stroke="#000000" d="M228.43,-1162.4C232.49,-1159.8 236.38,-1157 240,-1154 321.69,-1085.4 364.01,-961.94 381.68,-896.13"/>
<polygon fill="#000000" stroke="#000000" points="385.1641,-896.6395 384.3,-886.08 378.3905,-894.8736 385.1641,-896.6395"/>
</g>
<!-- ZcashFoundation/zebra#4412 -->
<g id="node5" class="node open">
<title>ZcashFoundation/zebra#4412</title>
<g id="a_node5"><a xlink:href="https://github.com/ZcashFoundation/zebra/issues/4412" xlink:title="ZcashFoundation/zebra#4412&#10;Automate pinning CI&#10;dependencies to specific&#10;commit hashes" target="_blank">
<polygon fill="#c2e0c6" stroke="#000000" points="508,-1216 276,-1216 276,-1148 508,-1148 508,-1216"/>
<text text-anchor="middle" x="392" y="-1200.8" font-family="Times,serif" font-size="14.00" fill="#000000">ZcashFoundation/zebra#4412</text>
<text text-anchor="middle" x="392" y="-1185.8" font-family="Times,serif" font-size="14.00" fill="#000000">Automate pinning CI</text>
<text text-anchor="middle" x="392" y="-1170.8" font-family="Times,serif" font-size="14.00" fill="#000000">dependencies to specific</text>
<text text-anchor="middle" x="392" y="-1155.8" font-family="Times,serif" font-size="14.00" fill="#000000">commit hashes</text>
</a>
</g>
</g>
<!-- ZcashFoundation/zebra#1963&#45;&gt;ZcashFoundation/zebra#4412 -->
<g id="edge2" class="edge">
<title>ZcashFoundation/zebra#1963&#45;&gt;ZcashFoundation/zebra#4412</title>
<path fill="none" stroke="#000000" d="M240.38,-1186C248.71,-1185.7 257.14,-1185.5 265.53,-1185.3"/>
<polygon fill="#000000" stroke="#000000" points="265.8471,-1188.7923 275.74,-1185 265.6415,-1181.7953 265.8471,-1188.7923"/>
</g>
<!-- ZcashFoundation/zebra#755 -->
<g id="node19" class="node closed">
<title>ZcashFoundation/zebra#755</title>
<g id="a_node19"><a xlink:href="https://github.com/ZcashFoundation/zebra/issues/755" xlink:title="ZcashFoundation/zebra#755&#10;Automate zebrad releases" target="_blank">
<polygon fill="#fad8c7" stroke="#000000" points="503.5,-38 280.5,-38 280.5,0 503.5,0 503.5,-38"/>
<text text-anchor="middle" x="392" y="-22.8" font-family="Times,serif" font-size="14.00" fill="#000000">ZcashFoundation/zebra#755</text>
<text text-anchor="middle" x="392" y="-7.8" font-family="Times,serif" font-size="14.00" fill="#000000">Automate zebrad releases</text>
</a>
</g>
</g>
<!-- ZcashFoundation/zebra#1963&#45;&gt;ZcashFoundation/zebra#755 -->
<g id="edge8" class="edge">
<title>ZcashFoundation/zebra#1963&#45;&gt;ZcashFoundation/zebra#755</title>
<path fill="none" stroke="#000000" d="M232.41,-1162.3C235.16,-1159.8 237.7,-1157 240,-1154 314.81,-1055.9 188.66,-138.48 268,-44 269.38,-42.36 270.83,-40.809 272.35,-39.342"/>
<polygon fill="#000000" stroke="#000000" points="274.9523,-41.7347 280.47,-32.69 270.5163,-36.3197 274.9523,-41.7347"/>
</g>
<!-- ZcashFoundation/zebra#3050 -->
<g id="node13" class="node open">
<title>ZcashFoundation/zebra#3050</title>
<g id="a_node13"><a xlink:href="https://github.com/ZcashFoundation/zebra/issues/3050" xlink:title="ZcashFoundation/zebra#3050&#10;Tag Zebra 1.0.0&#45;rc.0&#10;stable release candidate" target="_blank">
<polygon fill="#a7c2aa" stroke="#000000" points="508,-439.5 276,-439.5 276,-386.5 508,-386.5 508,-439.5"/>
<text text-anchor="middle" x="392" y="-424.3" font-family="Times,serif" font-size="14.00" fill="#000000">ZcashFoundation/zebra#3050</text>
<text text-anchor="middle" x="392" y="-409.3" font-family="Times,serif" font-size="14.00" fill="#000000">Tag Zebra 1.0.0&#45;rc.0</text>
<text text-anchor="middle" x="392" y="-394.3" font-family="Times,serif" font-size="14.00" fill="#000000">stable release candidate</text>
</a>
</g>
</g>
<!-- ZcashFoundation/zebra#4954&#45;&gt;ZcashFoundation/zebra#3050 -->
<g id="edge9" class="edge">
<title>ZcashFoundation/zebra#4954&#45;&gt;ZcashFoundation/zebra#3050</title>
<path fill="none" stroke="#000000" d="M370.21,-817.73C337.32,-763.75 276.44,-654.48 254,-552 245.06,-511.19 233.98,-494.67 254,-458 257.65,-451.31 262.37,-445.57 267.85,-440.65"/>
<polygon fill="#000000" stroke="#000000" points="270.0487,-443.3737 275.76,-434.45 265.7304,-437.8644 270.0487,-443.3737"/>
</g>
<!-- ZcashFoundation/zebra#4955 -->
<g id="node6" class="node open">
<title>ZcashFoundation/zebra#4955</title>
<g id="a_node6"><a xlink:href="https://github.com/ZcashFoundation/zebra/issues/4955" xlink:title="ZcashFoundation/zebra#4955&#10;Make long&#45;running test&#10;names match workflow&#10;names" target="_blank">
<polygon fill="#c2e0c6" stroke="#000000" points="240,-1073 8,-1073 8,-1005 240,-1005 240,-1073"/>
<text text-anchor="middle" x="124" y="-1057.8" font-family="Times,serif" font-size="14.00" fill="#000000">ZcashFoundation/zebra#4955</text>
<text text-anchor="middle" x="124" y="-1042.8" font-family="Times,serif" font-size="14.00" fill="#000000">Make long&#45;running test</text>
<text text-anchor="middle" x="124" y="-1027.8" font-family="Times,serif" font-size="14.00" fill="#000000">names match workflow</text>
<text text-anchor="middle" x="124" y="-1012.8" font-family="Times,serif" font-size="14.00" fill="#000000">names</text>
</a>
</g>
</g>
<!-- ZcashFoundation/zebra#4992 -->
<g id="node7" class="node open">
<title>ZcashFoundation/zebra#4992</title>
<g id="a_node7"><a xlink:href="https://github.com/ZcashFoundation/zebra/issues/4992" xlink:title="ZcashFoundation/zebra#4992&#10;Run cached state CI on&#10;testnet" target="_blank">
<polygon fill="#c2e0c6" stroke="#000000" points="240,-986.5 8,-986.5 8,-933.5 240,-933.5 240,-986.5"/>
<text text-anchor="middle" x="124" y="-971.3" font-family="Times,serif" font-size="14.00" fill="#000000">ZcashFoundation/zebra#4992</text>
<text text-anchor="middle" x="124" y="-956.3" font-family="Times,serif" font-size="14.00" fill="#000000">Run cached state CI on</text>
<text text-anchor="middle" x="124" y="-941.3" font-family="Times,serif" font-size="14.00" fill="#000000">testnet</text>
</a>
</g>
</g>
<!-- ZcashFoundation/zebra#4554 -->
<g id="node8" class="node open">
<title>ZcashFoundation/zebra#4554</title>
<g id="a_node8"><a xlink:href="https://github.com/ZcashFoundation/zebra/issues/4554" xlink:title="ZcashFoundation/zebra#4554&#10;benchmarks: surface&#10;zebrad mainnet sync time&#10;in CI" target="_blank">
<polygon fill="#c2e0c6" stroke="#000000" stroke-width="2" points="240,-915 8,-915 8,-847 240,-847 240,-915"/>
<text text-anchor="middle" x="124" y="-899.8" font-family="Times,serif" font-size="14.00" fill="#000000">ZcashFoundation/zebra#4554</text>
<text text-anchor="middle" x="124" y="-884.8" font-family="Times,serif" font-size="14.00" fill="#000000">benchmarks: surface</text>
<text text-anchor="middle" x="124" y="-869.8" font-family="Times,serif" font-size="14.00" fill="#000000">zebrad mainnet sync time</text>
<text text-anchor="middle" x="124" y="-854.8" font-family="Times,serif" font-size="14.00" fill="#000000">in CI</text>
</a>
</g>
</g>
<!-- ZcashFoundation/zebra#4956 -->
<g id="node9" class="node open">
<title>ZcashFoundation/zebra#4956</title>
<g id="a_node9"><a xlink:href="https://github.com/ZcashFoundation/zebra/issues/4956" xlink:title="ZcashFoundation/zebra#4956&#10;Make file locations&#10;appear in zebrad Docker&#10;error messages" target="_blank">
<polygon fill="#c2e0c6" stroke="#000000" stroke-width="2" points="240,-829 8,-829 8,-761 240,-761 240,-829"/>
<text text-anchor="middle" x="124" y="-813.8" font-family="Times,serif" font-size="14.00" fill="#000000">ZcashFoundation/zebra#4956</text>
<text text-anchor="middle" x="124" y="-798.8" font-family="Times,serif" font-size="14.00" fill="#000000">Make file locations</text>
<text text-anchor="middle" x="124" y="-783.8" font-family="Times,serif" font-size="14.00" fill="#000000">appear in zebrad Docker</text>
<text text-anchor="middle" x="124" y="-768.8" font-family="Times,serif" font-size="14.00" fill="#000000">error messages</text>
</a>
</g>
</g>
<!-- ZcashFoundation/zebra#4976 -->
<g id="node10" class="node open">
<title>ZcashFoundation/zebra#4976</title>
<g id="a_node10"><a xlink:href="https://github.com/ZcashFoundation/zebra/issues/4976" xlink:title="ZcashFoundation/zebra#4976&#10;Move continuous&#10;deployment to another&#10;Google Cloud region" target="_blank">
<polygon fill="#c2e0c6" stroke="#000000" stroke-width="2" points="240,-743 8,-743 8,-675 240,-675 240,-743"/>
<text text-anchor="middle" x="124" y="-727.8" font-family="Times,serif" font-size="14.00" fill="#000000">ZcashFoundation/zebra#4976</text>
<text text-anchor="middle" x="124" y="-712.8" font-family="Times,serif" font-size="14.00" fill="#000000">Move continuous</text>
<text text-anchor="middle" x="124" y="-697.8" font-family="Times,serif" font-size="14.00" fill="#000000">deployment to another</text>
<text text-anchor="middle" x="124" y="-682.8" font-family="Times,serif" font-size="14.00" fill="#000000">Google Cloud region</text>
</a>
</g>
</g>
<!-- ZcashFoundation/zebra#4946 -->
<g id="node11" class="node open">
<title>ZcashFoundation/zebra#4946</title>
<g id="a_node11"><a xlink:href="https://github.com/ZcashFoundation/zebra/issues/4946" xlink:title="ZcashFoundation/zebra#4946&#10;Managed instance groups&#10;deployed with continuous&#10;deployment can&#39;t scale&#10;beyond 1 instance" target="_blank">
<polygon fill="#c2e0c6" stroke="#000000" stroke-width="2" points="240,-656.5 8,-656.5 8,-573.5 240,-573.5 240,-656.5"/>
<text text-anchor="middle" x="124" y="-641.3" font-family="Times,serif" font-size="14.00" fill="#000000">ZcashFoundation/zebra#4946</text>
<text text-anchor="middle" x="124" y="-626.3" font-family="Times,serif" font-size="14.00" fill="#000000">Managed instance groups</text>
<text text-anchor="middle" x="124" y="-611.3" font-family="Times,serif" font-size="14.00" fill="#000000">deployed with continuous</text>
<text text-anchor="middle" x="124" y="-596.3" font-family="Times,serif" font-size="14.00" fill="#000000">deployment can&#39;t scale</text>
<text text-anchor="middle" x="124" y="-581.3" font-family="Times,serif" font-size="14.00" fill="#000000">beyond 1 instance</text>
</a>
</g>
</g>
<!-- ZcashFoundation/zebra#3050&#45;&gt;ZcashFoundation/zebra#4955 -->
<g id="edge3" class="edge">
<title>ZcashFoundation/zebra#3050&#45;&gt;ZcashFoundation/zebra#4955</title>
<path fill="none" stroke="#000000" d="M276.75,-439.85C273.58,-442.62 270.64,-445.66 268,-449 192.45,-544.43 312.05,-897.9 240,-996 239.71,-996.39 239.42,-996.78 239.13,-997.16"/>
<polygon fill="#000000" stroke="#000000" points="236.4561,-994.8999 232.43,-1004.7 241.6888,-999.5496 236.4561,-994.8999"/>
</g>
<!-- ZcashFoundation/zebra#3050&#45;&gt;ZcashFoundation/zebra#4992 -->
<g id="edge4" class="edge">
<title>ZcashFoundation/zebra#3050&#45;&gt;ZcashFoundation/zebra#4992</title>
<path fill="none" stroke="#000000" d="M276.78,-439.87C273.6,-442.64 270.66,-445.67 268,-449 202.04,-531.65 305.2,-840.75 240,-924 239.51,-924.62 239.01,-925.23 238.51,-925.84"/>
<polygon fill="#000000" stroke="#000000" points="235.8898,-923.5123 231.36,-933.09 240.8738,-928.4276 235.8898,-923.5123"/>
</g>
<!-- ZcashFoundation/zebra#4967 -->
<g id="node18" class="node open">
<title>ZcashFoundation/zebra#4967</title>
<g id="a_node18"><a xlink:href="https://github.com/ZcashFoundation/zebra/pull/4967" xlink:title="ZcashFoundation/zebra#4967&#10;feat(rpc): add&#10;getblockhash rpc method" target="_blank">
<polygon fill="#a7c2aa" stroke="#000000" points="796,-449.5 564,-449.5 564,-445.5 560,-445.5 560,-441.5 564,-441.5 564,-404.5 560,-404.5 560,-400.5 564,-400.5 564,-396.5 796,-396.5 796,-449.5"/>
<polyline fill="none" stroke="#000000" points="564,-445.5 568,-445.5 568,-441.5 564,-441.5 "/>
<polyline fill="none" stroke="#000000" points="564,-404.5 568,-404.5 568,-400.5 564,-400.5 "/>
<text text-anchor="middle" x="680" y="-434.3" font-family="Times,serif" font-size="14.00" fill="#000000">ZcashFoundation/zebra#4967</text>
<text text-anchor="middle" x="680" y="-419.3" font-family="Times,serif" font-size="14.00" fill="#000000">feat(rpc): add</text>
<text text-anchor="middle" x="680" y="-404.3" font-family="Times,serif" font-size="14.00" fill="#000000">getblockhash rpc method</text>
</a>
</g>
</g>
<!-- ZcashFoundation/zebra#3050&#45;&gt;ZcashFoundation/zebra#4967 -->
<g id="edge5" class="edge">
<title>ZcashFoundation/zebra#3050&#45;&gt;ZcashFoundation/zebra#4967</title>
<path fill="none" stroke="#000000" d="M508.31,-417.04C523.15,-417.55 538.4,-418.08 553.39,-418.6"/>
<polygon fill="#000000" stroke="#000000" points="553.6041,-422.1095 563.72,-418.96 553.848,-415.1137 553.6041,-422.1095"/>
</g>
<!-- ZcashFoundation/zebra#4882 -->
<g id="node14" class="node open">
<title>ZcashFoundation/zebra#4882</title>
<g id="a_node14"><a xlink:href="https://github.com/ZcashFoundation/zebra/issues/4882" xlink:title="ZcashFoundation/zebra#4882&#10;Add zcash&#45;lightwalletd /&#10;Build images to required&#10;jobs" target="_blank">
<polygon fill="#c2e0c6" stroke="#000000" stroke-width="2" points="508,-368 276,-368 276,-300 508,-300 508,-368"/>
<text text-anchor="middle" x="392" y="-352.8" font-family="Times,serif" font-size="14.00" fill="#000000">ZcashFoundation/zebra#4882</text>
<text text-anchor="middle" x="392" y="-337.8" font-family="Times,serif" font-size="14.00" fill="#000000">Add zcash&#45;lightwalletd /</text>
<text text-anchor="middle" x="392" y="-322.8" font-family="Times,serif" font-size="14.00" fill="#000000">Build images to required</text>
<text text-anchor="middle" x="392" y="-307.8" font-family="Times,serif" font-size="14.00" fill="#000000">jobs</text>
</a>
</g>
</g>
<!-- ZcashFoundation/zebra#4882&#45;&gt;ZcashFoundation/zebra#4612 -->
<g id="edge6" class="edge">
<title>ZcashFoundation/zebra#4882&#45;&gt;ZcashFoundation/zebra#4612</title>
<path fill="none" stroke="#000000" d="M508.31,-329.56C523.15,-328.99 538.4,-328.41 553.39,-327.84"/>
<polygon fill="#000000" stroke="#000000" points="553.8629,-331.3244 563.72,-327.44 553.592,-324.3296 553.8629,-331.3244"/>
</g>
<!-- ZcashFoundation/zebra#4529 -->
<g id="node15" class="node open">
<title>ZcashFoundation/zebra#4529</title>
<g id="a_node15"><a xlink:href="https://github.com/ZcashFoundation/zebra/issues/4529" xlink:title="ZcashFoundation/zebra#4529&#10;Make PRs from external&#10;repositories pass or skip&#10;CI jobs" target="_blank">
<polygon fill="#c2e0c6" stroke="#000000" stroke-width="2" points="508,-282 276,-282 276,-214 508,-214 508,-282"/>
<text text-anchor="middle" x="392" y="-266.8" font-family="Times,serif" font-size="14.00" fill="#000000">ZcashFoundation/zebra#4529</text>
<text text-anchor="middle" x="392" y="-251.8" font-family="Times,serif" font-size="14.00" fill="#000000">Make PRs from external</text>
<text text-anchor="middle" x="392" y="-236.8" font-family="Times,serif" font-size="14.00" fill="#000000">repositories pass or skip</text>
<text text-anchor="middle" x="392" y="-221.8" font-family="Times,serif" font-size="14.00" fill="#000000">CI jobs</text>
</a>
</g>
</g>
<!-- ZcashFoundation/zebra#5168 -->
<g id="node16" class="node open">
<title>ZcashFoundation/zebra#5168</title>
<g id="a_node16"><a xlink:href="https://github.com/ZcashFoundation/zebra/issues/5168" xlink:title="ZcashFoundation/zebra#5168&#10;Add Docker tests for&#10;default config and&#10;$ZEBRA_CONF_PATH" target="_blank">
<polygon fill="#c2e0c6" stroke="#000000" stroke-width="2" points="508,-196 276,-196 276,-128 508,-128 508,-196"/>
<text text-anchor="middle" x="392" y="-180.8" font-family="Times,serif" font-size="14.00" fill="#000000">ZcashFoundation/zebra#5168</text>
<text text-anchor="middle" x="392" y="-165.8" font-family="Times,serif" font-size="14.00" fill="#000000">Add Docker tests for</text>
<text text-anchor="middle" x="392" y="-150.8" font-family="Times,serif" font-size="14.00" fill="#000000">default config and</text>
<text text-anchor="middle" x="392" y="-135.8" font-family="Times,serif" font-size="14.00" fill="#000000">$ZEBRA_CONF_PATH</text>
</a>
</g>
</g>
<!-- ZcashFoundation/zebra#1638 -->
<g id="node17" class="node open">
<title>ZcashFoundation/zebra#1638</title>
<g id="a_node17"><a xlink:href="https://github.com/ZcashFoundation/zebra/issues/1638" xlink:title="ZcashFoundation/zebra#1638&#10;Create PGP keys amongst&#10;security@zfnd.org" target="_blank">
<polygon fill="#c2e0c6" stroke="#000000" stroke-width="2" points="508,-109.5 276,-109.5 276,-56.5 508,-56.5 508,-109.5"/>
<text text-anchor="middle" x="392" y="-94.3" font-family="Times,serif" font-size="14.00" fill="#000000">ZcashFoundation/zebra#1638</text>
<text text-anchor="middle" x="392" y="-79.3" font-family="Times,serif" font-size="14.00" fill="#000000">Create PGP keys amongst</text>
<text text-anchor="middle" x="392" y="-64.3" font-family="Times,serif" font-size="14.00" fill="#000000">security@zfnd.org</text>
</a>
</g>
</g>
</g>
</svg>
