<?xml version="1.0" encoding="UTF-8" standalone="no"?>
<?xml-stylesheet href="zcash-dag.css" type="text/css"?>
<!DOCTYPE svg PUBLIC "-//W3C//DTD SVG 1.1//EN"
 "http://www.w3.org/Graphics/SVG/1.1/DTD/svg11.dtd">
<!-- Generated by graphviz version 2.40.1 (20161225.0304)
 -->
<!-- Pages: 1 -->
<svg width="1084pt" height="954pt"
 viewBox="0.00 0.00 1084.00 954.00" xmlns="http://www.w3.org/2000/svg" xmlns:xlink="http://www.w3.org/1999/xlink">
<g id="graph0" class="graph" transform="scale(1 1) rotate(0) translate(4 950)">
<polygon fill="#ffffff" stroke="transparent" points="-4,4 -4,-950 1080,-950 1080,4 -4,4"/>
<g id="clust1" class="cluster">
<title>cluster_1</title>
<polygon fill="none" stroke="#0000ff" points="548,-179 548,-946 796,-946 796,-179 548,-179"/>
<text text-anchor="middle" x="672" y="-930.8" font-family="Times,serif" font-size="14.00" fill="#000000">DevOps Ticket Tracker</text>
</g>
<g id="clust2" class="cluster">
<title>cluster_0</title>
<polygon fill="none" stroke="#0000ff" points="260,-351 260,-616 508,-616 508,-351 260,-351"/>
<text text-anchor="middle" x="384" y="-600.8" font-family="Times,serif" font-size="14.00" fill="#000000">Epic: Zebra Release Candidate</text>
</g>
<g id="clust3" class="cluster">
<title>cluster_2</title>
<polygon fill="none" stroke="#0000ff" points="528,0 528,-107 816,-107 816,0 528,0"/>
<text text-anchor="middle" x="672" y="-91.8" font-family="Times,serif" font-size="14.00" fill="#000000">Epic: Zebra as a lightwalletd backend</text>
</g>
<!-- ZcashFoundation/zebra#4953 -->
<g id="node1" class="node open">
<title>ZcashFoundation/zebra#4953</title>
<g id="a_node1"><a xlink:href="https://github.com/ZcashFoundation/zebra/issues/4953" xlink:title="ZcashFoundation/zebra#4953&#10;Document how to use&#10;released Zebra binaries" target="_blank">
<polygon fill="#c2e0c6" stroke="#000000" stroke-width="2" points="788,-914.5 556,-914.5 556,-861.5 788,-861.5 788,-914.5"/>
<text text-anchor="middle" x="672" y="-899.3" font-family="Times,serif" font-size="14.00" fill="#000000">ZcashFoundation/zebra#4953</text>
<text text-anchor="middle" x="672" y="-884.3" font-family="Times,serif" font-size="14.00" fill="#000000">Document how to use</text>
<text text-anchor="middle" x="672" y="-869.3" font-family="Times,serif" font-size="14.00" fill="#000000">released Zebra binaries</text>
</a>
</g>
</g>
<!-- ZcashFoundation/zebra#1615 -->
<g id="node15" class="node open">
<title>ZcashFoundation/zebra#1615</title>
<g id="a_node15"><a xlink:href="https://github.com/ZcashFoundation/zebra/issues/1615" xlink:title="ZcashFoundation/zebra#1615&#10;Zebra release candidate&#10;binaries should be linked&#10;from ZFND website" target="_blank">
<polygon fill="#a7c2aa" stroke="#000000" points="1076,-922 844,-922 844,-854 1076,-854 1076,-922"/>
<text text-anchor="middle" x="960" y="-906.8" font-family="Times,serif" font-size="14.00" fill="#000000">ZcashFoundation/zebra#1615</text>
<text text-anchor="middle" x="960" y="-891.8" font-family="Times,serif" font-size="14.00" fill="#000000">Zebra release candidate</text>
<text text-anchor="middle" x="960" y="-876.8" font-family="Times,serif" font-size="14.00" fill="#000000">binaries should be linked</text>
<text text-anchor="middle" x="960" y="-861.8" font-family="Times,serif" font-size="14.00" fill="#000000">from ZFND website</text>
</a>
</g>
</g>
<!-- ZcashFoundation/zebra#4953&#45;&gt;ZcashFoundation/zebra#1615 -->
<g id="edge5" class="edge">
<title>ZcashFoundation/zebra#4953&#45;&gt;ZcashFoundation/zebra#1615</title>
<path fill="none" stroke="#000000" d="M788.31,-888C803.15,-888 818.4,-888 833.39,-888"/>
<polygon fill="#000000" stroke="#000000" points="833.72,-891.5001 843.72,-888 833.72,-884.5001 833.72,-891.5001"/>
</g>
<!-- ZcashFoundation/zebra#4954 -->
<g id="node2" class="node open">
<title>ZcashFoundation/zebra#4954</title>
<g id="a_node2"><a xlink:href="https://github.com/ZcashFoundation/zebra/issues/4954" xlink:title="ZcashFoundation/zebra#4954&#10;Update release checklist&#10;PR template for the&#10;release candidate series" target="_blank">
<polygon fill="#c2e0c6" stroke="#000000" stroke-width="2" points="788,-843 556,-843 556,-775 788,-775 788,-843"/>
<text text-anchor="middle" x="672" y="-827.8" font-family="Times,serif" font-size="14.00" fill="#000000">ZcashFoundation/zebra#4954</text>
<text text-anchor="middle" x="672" y="-812.8" font-family="Times,serif" font-size="14.00" fill="#000000">Update release checklist</text>
<text text-anchor="middle" x="672" y="-797.8" font-family="Times,serif" font-size="14.00" fill="#000000">PR template for the</text>
<text text-anchor="middle" x="672" y="-782.8" font-family="Times,serif" font-size="14.00" fill="#000000">release candidate series</text>
</a>
</g>
</g>
<!-- ZcashFoundation/zebra#3050 -->
<g id="node10" class="node open">
<title>ZcashFoundation/zebra#3050</title>
<g id="a_node10"><a xlink:href="https://github.com/ZcashFoundation/zebra/issues/3050" xlink:title="ZcashFoundation/zebra#3050&#10;Tag Zebra 1.0.0&#45;rc.0&#10;stable release candidate" target="_blank">
<polygon fill="#a7c2aa" stroke="#000000" points="500,-584.5 268,-584.5 268,-531.5 500,-531.5 500,-584.5"/>
<text text-anchor="middle" x="384" y="-569.3" font-family="Times,serif" font-size="14.00" fill="#000000">ZcashFoundation/zebra#3050</text>
<text text-anchor="middle" x="384" y="-554.3" font-family="Times,serif" font-size="14.00" fill="#000000">Tag Zebra 1.0.0&#45;rc.0</text>
<text text-anchor="middle" x="384" y="-539.3" font-family="Times,serif" font-size="14.00" fill="#000000">stable release candidate</text>
</a>
</g>
</g>
<!-- ZcashFoundation/zebra#4954&#45;&gt;ZcashFoundation/zebra#3050 -->
<g id="edge6" class="edge">
<title>ZcashFoundation/zebra#4954&#45;&gt;ZcashFoundation/zebra#3050</title>
<path fill="none" stroke="#000000" d="M555.66,-787.91C545.22,-782.21 535.71,-775.03 528,-766 484.33,-714.85 547.78,-670.23 508,-616 500.33,-605.54 490.29,-596.9 479.24,-589.79"/>
<polygon fill="#000000" stroke="#000000" points="480.9997,-586.7643 470.62,-584.64 477.4095,-592.7735 480.9997,-586.7643"/>
</g>
<!-- ZcashFoundation/zebra#4412 -->
<g id="node3" class="node open">
<title>ZcashFoundation/zebra#4412</title>
<g id="a_node3"><a xlink:href="https://github.com/ZcashFoundation/zebra/issues/4412" xlink:title="ZcashFoundation/zebra#4412&#10;Automate pinning CI&#10;dependencies to specific&#10;commit hashes" target="_blank">
<polygon fill="#c2e0c6" stroke="#000000" stroke-width="2" points="788,-757 556,-757 556,-689 788,-689 788,-757"/>
<text text-anchor="middle" x="672" y="-741.8" font-family="Times,serif" font-size="14.00" fill="#000000">ZcashFoundation/zebra#4412</text>
<text text-anchor="middle" x="672" y="-726.8" font-family="Times,serif" font-size="14.00" fill="#000000">Automate pinning CI</text>
<text text-anchor="middle" x="672" y="-711.8" font-family="Times,serif" font-size="14.00" fill="#000000">dependencies to specific</text>
<text text-anchor="middle" x="672" y="-696.8" font-family="Times,serif" font-size="14.00" fill="#000000">commit hashes</text>
</a>
</g>
</g>
<!-- ZcashFoundation/zebra#4955 -->
<g id="node4" class="node open">
<title>ZcashFoundation/zebra#4955</title>
<g id="a_node4"><a xlink:href="https://github.com/ZcashFoundation/zebra/issues/4955" xlink:title="ZcashFoundation/zebra#4955&#10;Make long&#45;running test&#10;names match workflow&#10;names" target="_blank">
<polygon fill="#c2e0c6" stroke="#000000" points="788,-671 556,-671 556,-603 788,-603 788,-671"/>
<text text-anchor="middle" x="672" y="-655.8" font-family="Times,serif" font-size="14.00" fill="#000000">ZcashFoundation/zebra#4955</text>
<text text-anchor="middle" x="672" y="-640.8" font-family="Times,serif" font-size="14.00" fill="#000000">Make long&#45;running test</text>
<text text-anchor="middle" x="672" y="-625.8" font-family="Times,serif" font-size="14.00" fill="#000000">names match workflow</text>
<text text-anchor="middle" x="672" y="-610.8" font-family="Times,serif" font-size="14.00" fill="#000000">names</text>
</a>
</g>
</g>
<!-- ZcashFoundation/zebra#4992 -->
<g id="node5" class="node open">
<title>ZcashFoundation/zebra#4992</title>
<g id="a_node5"><a xlink:href="https://github.com/ZcashFoundation/zebra/issues/4992" xlink:title="ZcashFoundation/zebra#4992&#10;Run cached state CI on&#10;testnet" target="_blank">
<polygon fill="#c2e0c6" stroke="#000000" points="788,-584.5 556,-584.5 556,-531.5 788,-531.5 788,-584.5"/>
<text text-anchor="middle" x="672" y="-569.3" font-family="Times,serif" font-size="14.00" fill="#000000">ZcashFoundation/zebra#4992</text>
<text text-anchor="middle" x="672" y="-554.3" font-family="Times,serif" font-size="14.00" fill="#000000">Run cached state CI on</text>
<text text-anchor="middle" x="672" y="-539.3" font-family="Times,serif" font-size="14.00" fill="#000000">testnet</text>
</a>
</g>
</g>
<!-- ZcashFoundation/zebra#4554 -->
<g id="node6" class="node open">
<title>ZcashFoundation/zebra#4554</title>
<g id="a_node6"><a xlink:href="https://github.com/ZcashFoundation/zebra/issues/4554" xlink:title="ZcashFoundation/zebra#4554&#10;benchmarks: surface&#10;zebrad mainnet sync time&#10;in CI" target="_blank">
<polygon fill="#c2e0c6" stroke="#000000" stroke-width="2" points="788,-513 556,-513 556,-445 788,-445 788,-513"/>
<text text-anchor="middle" x="672" y="-497.8" font-family="Times,serif" font-size="14.00" fill="#000000">ZcashFoundation/zebra#4554</text>
<text text-anchor="middle" x="672" y="-482.8" font-family="Times,serif" font-size="14.00" fill="#000000">benchmarks: surface</text>
<text text-anchor="middle" x="672" y="-467.8" font-family="Times,serif" font-size="14.00" fill="#000000">zebrad mainnet sync time</text>
<text text-anchor="middle" x="672" y="-452.8" font-family="Times,serif" font-size="14.00" fill="#000000">in CI</text>
</a>
</g>
</g>
<!-- ZcashFoundation/zebra#4956 -->
<g id="node7" class="node open">
<title>ZcashFoundation/zebra#4956</title>
<g id="a_node7"><a xlink:href="https://github.com/ZcashFoundation/zebra/issues/4956" xlink:title="ZcashFoundation/zebra#4956&#10;Make file locations&#10;appear in zebrad Docker&#10;error messages" target="_blank">
<polygon fill="#c2e0c6" stroke="#000000" stroke-width="2" points="788,-427 556,-427 556,-359 788,-359 788,-427"/>
<text text-anchor="middle" x="672" y="-411.8" font-family="Times,serif" font-size="14.00" fill="#000000">ZcashFoundation/zebra#4956</text>
<text text-anchor="middle" x="672" y="-396.8" font-family="Times,serif" font-size="14.00" fill="#000000">Make file locations</text>
<text text-anchor="middle" x="672" y="-381.8" font-family="Times,serif" font-size="14.00" fill="#000000">appear in zebrad Docker</text>
<text text-anchor="middle" x="672" y="-366.8" font-family="Times,serif" font-size="14.00" fill="#000000">error messages</text>
</a>
</g>
</g>
<!-- ZcashFoundation/zebra#4976 -->
<g id="node8" class="node open">
<title>ZcashFoundation/zebra#4976</title>
<g id="a_node8"><a xlink:href="https://github.com/ZcashFoundation/zebra/issues/4976" xlink:title="ZcashFoundation/zebra#4976&#10;Move continuous&#10;deployment to another&#10;Google Cloud region" target="_blank">
<polygon fill="#c2e0c6" stroke="#000000" stroke-width="2" points="788,-341 556,-341 556,-273 788,-273 788,-341"/>
<text text-anchor="middle" x="672" y="-325.8" font-family="Times,serif" font-size="14.00" fill="#000000">ZcashFoundation/zebra#4976</text>
<text text-anchor="middle" x="672" y="-310.8" font-family="Times,serif" font-size="14.00" fill="#000000">Move continuous</text>
<text text-anchor="middle" x="672" y="-295.8" font-family="Times,serif" font-size="14.00" fill="#000000">deployment to another</text>
<text text-anchor="middle" x="672" y="-280.8" font-family="Times,serif" font-size="14.00" fill="#000000">Google Cloud region</text>
</a>
</g>
</g>
<!-- ZcashFoundation/zebra#4529 -->
<g id="node9" class="node open">
<title>ZcashFoundation/zebra#4529</title>
<g id="a_node9"><a xlink:href="https://github.com/ZcashFoundation/zebra/issues/4529" xlink:title="ZcashFoundation/zebra#4529&#10;Make PRs from external&#10;repositories pass or skip&#10;CI jobs" target="_blank">
<polygon fill="#c2e0c6" stroke="#000000" stroke-width="2" points="788,-255 556,-255 556,-187 788,-187 788,-255"/>
<text text-anchor="middle" x="672" y="-239.8" font-family="Times,serif" font-size="14.00" fill="#000000">ZcashFoundation/zebra#4529</text>
<text text-anchor="middle" x="672" y="-224.8" font-family="Times,serif" font-size="14.00" fill="#000000">Make PRs from external</text>
<text text-anchor="middle" x="672" y="-209.8" font-family="Times,serif" font-size="14.00" fill="#000000">repositories pass or skip</text>
<text text-anchor="middle" x="672" y="-194.8" font-family="Times,serif" font-size="14.00" fill="#000000">CI jobs</text>
</a>
</g>
</g>
<!-- ZcashFoundation/zebra#3050&#45;&gt;ZcashFoundation/zebra#4955 -->
<g id="edge1" class="edge">
<title>ZcashFoundation/zebra#3050&#45;&gt;ZcashFoundation/zebra#4955</title>
<path fill="none" stroke="#000000" d="M480.7,-584.53C501.7,-590.29 524.2,-596.46 546.14,-602.48"/>
<polygon fill="#000000" stroke="#000000" points="545.2609,-605.868 555.83,-605.13 547.1075,-599.116 545.2609,-605.868"/>
</g>
<!-- ZcashFoundation/zebra#3050&#45;&gt;ZcashFoundation/zebra#4992 -->
<g id="edge2" class="edge">
<title>ZcashFoundation/zebra#3050&#45;&gt;ZcashFoundation/zebra#4992</title>
<path fill="none" stroke="#000000" d="M500.31,-558C515.15,-558 530.4,-558 545.39,-558"/>
<polygon fill="#000000" stroke="#000000" points="545.72,-561.5001 555.72,-558 545.72,-554.5001 545.72,-561.5001"/>
</g>
<!-- ZcashFoundation/zebra#4967 -->
<g id="node14" class="node open">
<title>ZcashFoundation/zebra#4967</title>
<g id="a_node14"><a xlink:href="https://github.com/ZcashFoundation/zebra/pull/4967" xlink:title="ZcashFoundation/zebra#4967&#10;feat(rpc): add&#10;getblockhash rpc method" target="_blank">
<polygon fill="#a7c2aa" stroke="#000000" points="788,-168.5 556,-168.5 556,-164.5 552,-164.5 552,-160.5 556,-160.5 556,-123.5 552,-123.5 552,-119.5 556,-119.5 556,-115.5 788,-115.5 788,-168.5"/>
<polyline fill="none" stroke="#000000" points="556,-164.5 560,-164.5 560,-160.5 556,-160.5 "/>
<polyline fill="none" stroke="#000000" points="556,-123.5 560,-123.5 560,-119.5 556,-119.5 "/>
<text text-anchor="middle" x="672" y="-153.3" font-family="Times,serif" font-size="14.00" fill="#000000">ZcashFoundation/zebra#4967</text>
<text text-anchor="middle" x="672" y="-138.3" font-family="Times,serif" font-size="14.00" fill="#000000">feat(rpc): add</text>
<text text-anchor="middle" x="672" y="-123.3" font-family="Times,serif" font-size="14.00" fill="#000000">getblockhash rpc method</text>
</a>
</g>
</g>
<!-- ZcashFoundation/zebra#3050&#45;&gt;ZcashFoundation/zebra#4967 -->
<g id="edge3" class="edge">
<title>ZcashFoundation/zebra#3050&#45;&gt;ZcashFoundation/zebra#4967</title>
<path fill="none" stroke="#000000" d="M499.23,-531.13C502.4,-528.37 505.35,-525.33 508,-522 556.14,-461.6 478.15,-234 528,-175 533.41,-168.59 539.79,-163.29 546.8,-158.9"/>
<polygon fill="#000000" stroke="#000000" points="548.9248,-161.7251 555.99,-153.83 545.5434,-155.596 548.9248,-161.7251"/>
</g>
<!-- ZcashFoundation/zebra#4882 -->
<g id="node11" class="node open">
<title>ZcashFoundation/zebra#4882</title>
<g id="a_node11"><a xlink:href="https://github.com/ZcashFoundation/zebra/issues/4882" xlink:title="ZcashFoundation/zebra#4882&#10;Add zcash&#45;lightwalletd /&#10;Build images to required&#10;jobs" target="_blank">
<polygon fill="#c2e0c6" stroke="#000000" stroke-width="2" points="500,-513 268,-513 268,-445 500,-445 500,-513"/>
<text text-anchor="middle" x="384" y="-497.8" font-family="Times,serif" font-size="14.00" fill="#000000">ZcashFoundation/zebra#4882</text>
<text text-anchor="middle" x="384" y="-482.8" font-family="Times,serif" font-size="14.00" fill="#000000">Add zcash&#45;lightwalletd /</text>
<text text-anchor="middle" x="384" y="-467.8" font-family="Times,serif" font-size="14.00" fill="#000000">Build images to required</text>
<text text-anchor="middle" x="384" y="-452.8" font-family="Times,serif" font-size="14.00" fill="#000000">jobs</text>
</a>
</g>
</g>
<!-- ZcashFoundation/zebra#4612 -->
<g id="node13" class="node open">
<title>ZcashFoundation/zebra#4612</title>
<g id="a_node13"><a xlink:href="https://github.com/ZcashFoundation/zebra/issues/4612" xlink:title="ZcashFoundation/zebra#4612&#10;ci: Wait for lightwalletd&#10;image rebuild if it has&#10;changed" target="_blank">
<polygon fill="#c2e0c6" stroke="#000000" points="788,-76 556,-76 556,-8 788,-8 788,-76"/>
<text text-anchor="middle" x="672" y="-60.8" font-family="Times,serif" font-size="14.00" fill="#000000">ZcashFoundation/zebra#4612</text>
<text text-anchor="middle" x="672" y="-45.8" font-family="Times,serif" font-size="14.00" fill="#000000">ci: Wait for lightwalletd</text>
<text text-anchor="middle" x="672" y="-30.8" font-family="Times,serif" font-size="14.00" fill="#000000">image rebuild if it has</text>
<text text-anchor="middle" x="672" y="-15.8" font-family="Times,serif" font-size="14.00" fill="#000000">changed</text>
</a>
</g>
</g>
<!-- ZcashFoundation/zebra#4882&#45;&gt;ZcashFoundation/zebra#4612 -->
<g id="edge4" class="edge">
<title>ZcashFoundation/zebra#4882&#45;&gt;ZcashFoundation/zebra#4612</title>
<path fill="none" stroke="#000000" d="M500.31,-444.61C503.08,-441.95 505.66,-439.09 508,-436 552.39,-377.46 486.12,-166.36 528,-106 534.45,-96.7 542.58,-88.733 551.68,-81.912"/>
<polygon fill="#000000" stroke="#000000" points="553.6789,-84.7851 559.9,-76.209 549.6886,-79.0337 553.6789,-84.7851"/>
</g>
<!-- ZcashFoundation/zebra#5168 -->
<g id="node12" class="node open">
<title>ZcashFoundation/zebra#5168</title>
<g id="a_node12"><a xlink:href="https://github.com/ZcashFoundation/zebra/issues/5168" xlink:title="ZcashFoundation/zebra#5168&#10;Add Docker tests for&#10;default config and&#10;$ZEBRA_CONF_PATH" target="_blank">
<polygon fill="#c2e0c6" stroke="#000000" stroke-width="2" points="500,-427 268,-427 268,-359 500,-359 500,-427"/>
<text text-anchor="middle" x="384" y="-411.8" font-family="Times,serif" font-size="14.00" fill="#000000">ZcashFoundation/zebra#5168</text>
<text text-anchor="middle" x="384" y="-396.8" font-family="Times,serif" font-size="14.00" fill="#000000">Add Docker tests for</text>
<text text-anchor="middle" x="384" y="-381.8" font-family="Times,serif" font-size="14.00" fill="#000000">default config and</text>
<text text-anchor="middle" x="384" y="-366.8" font-family="Times,serif" font-size="14.00" fill="#000000">$ZEBRA_CONF_PATH</text>
</a>
</g>
</g>
<!-- ZcashFoundation/zebra#5091 -->
<g id="node16" class="node open">
<title>ZcashFoundation/zebra#5091</title>
<g id="a_node16"><a xlink:href="https://github.com/ZcashFoundation/zebra/issues/5091" xlink:title="ZcashFoundation/zebra#5091&#10;Fix parameter download&#10;hangs with Rust 1.64" target="_blank">
<polygon fill="#c2e0c6" stroke="#000000" stroke-width="2" points="232,-584.5 0,-584.5 0,-531.5 232,-531.5 232,-584.5"/>
<text text-anchor="middle" x="116" y="-569.3" font-family="Times,serif" font-size="14.00" fill="#000000">ZcashFoundation/zebra#5091</text>
<text text-anchor="middle" x="116" y="-554.3" font-family="Times,serif" font-size="14.00" fill="#000000">Fix parameter download</text>
<text text-anchor="middle" x="116" y="-539.3" font-family="Times,serif" font-size="14.00" fill="#000000">hangs with Rust 1.64</text>
</a>
</g>
</g>
<!-- ZcashFoundation/zebra#5091&#45;&gt;ZcashFoundation/zebra#3050 -->
<g id="edge7" class="edge">
<title>ZcashFoundation/zebra#5091&#45;&gt;ZcashFoundation/zebra#3050</title>
<path fill="none" stroke="#000000" d="M232.38,-558C240.71,-558 249.14,-558 257.53,-558"/>
<polygon fill="#000000" stroke="#000000" points="257.74,-561.5001 267.74,-558 257.74,-554.5001 257.74,-561.5001"/>
</g>
<!-- ZcashFoundation/zebra#5189 -->
<g id="node17" class="node open">
<title>ZcashFoundation/zebra#5189</title>
<g id="a_node17"><a xlink:href="https://github.com/ZcashFoundation/zebra/issues/5189" xlink:title="ZcashFoundation/zebra#5189&#10;Run some docker tests on&#10;smaller instances" target="_blank">
<polygon fill="#c2e0c6" stroke="#000000" points="500,-677.5 268,-677.5 268,-624.5 500,-624.5 500,-677.5"/>
<text text-anchor="middle" x="384" y="-662.3" font-family="Times,serif" font-size="14.00" fill="#000000">ZcashFoundation/zebra#5189</text>
<text text-anchor="middle" x="384" y="-647.3" font-family="Times,serif" font-size="14.00" fill="#000000">Run some docker tests on</text>
<text text-anchor="middle" x="384" y="-632.3" font-family="Times,serif" font-size="14.00" fill="#000000">smaller instances</text>
</a>
</g>
</g>
<!-- ZcashFoundation/zebra#5199 -->
<g id="node18" class="node open">
<title>ZcashFoundation/zebra#5199</title>
<g id="a_node18"><a xlink:href="https://github.com/ZcashFoundation/zebra/issues/5199" xlink:title="ZcashFoundation/zebra#5199&#10;Consider using `nextest`&#10;to run tests faster and&#10;reduce Google Cloud costs" target="_blank">
<polygon fill="#c2e0c6" stroke="#000000" stroke-width="2" points="232,-685 0,-685 0,-617 232,-617 232,-685"/>
<text text-anchor="middle" x="116" y="-669.8" font-family="Times,serif" font-size="14.00" fill="#000000">ZcashFoundation/zebra#5199</text>
<text text-anchor="middle" x="116" y="-654.8" font-family="Times,serif" font-size="14.00" fill="#000000">Consider using `nextest`</text>
<text text-anchor="middle" x="116" y="-639.8" font-family="Times,serif" font-size="14.00" fill="#000000">to run tests faster and</text>
<text text-anchor="middle" x="116" y="-624.8" font-family="Times,serif" font-size="14.00" fill="#000000">reduce Google Cloud costs</text>
</a>
</g>
</g>
<!-- ZcashFoundation/zebra#5199&#45;&gt;ZcashFoundation/zebra#5189 -->
<g id="edge8" class="edge">
<title>ZcashFoundation/zebra#5199&#45;&gt;ZcashFoundation/zebra#5189</title>
<path fill="none" stroke="#000000" d="M232.38,-651C240.71,-651 249.14,-651 257.53,-651"/>
<polygon fill="#000000" stroke="#000000" points="257.74,-654.5001 267.74,-651 257.74,-647.5001 257.74,-654.5001"/>
</g>
</g>
</svg>
