<?xml version="1.0" encoding="UTF-8" standalone="no"?>
<?xml-stylesheet href="zcash-dag.css" type="text/css"?>
<!DOCTYPE svg PUBLIC "-//W3C//DTD SVG 1.1//EN"
 "http://www.w3.org/Graphics/SVG/1.1/DTD/svg11.dtd">
<!-- Generated by graphviz version 2.40.1 (20161225.0304)
 -->
<!-- Pages: 1 -->
<svg width="1060pt" height="464pt"
 viewBox="0.00 0.00 1060.00 464.00" xmlns="http://www.w3.org/2000/svg" xmlns:xlink="http://www.w3.org/1999/xlink">
<g id="graph0" class="graph" transform="scale(1 1) rotate(0) translate(4 460)">
<polygon fill="#ffffff" stroke="transparent" points="-4,4 -4,-460 1056,-460 1056,4 -4,4"/>
<g id="clust1" class="cluster">
<title>cluster_0</title>
<polygon fill="none" stroke="#0000ff" points="804,-64 804,-157 1052,-157 1052,-64 804,-64"/>
<text text-anchor="middle" x="928" y="-141.8" font-family="Times,serif" font-size="14.00" fill="#000000">Tracking: Tech Debt</text>
</g>
<g id="clust2" class="cluster">
<title>cluster_1</title>
<polygon fill="none" stroke="#0000ff" points="0,-201 0,-294 248,-294 248,-201 0,-201"/>
<text text-anchor="middle" x="124" y="-278.8" font-family="Times,serif" font-size="14.00" fill="#000000">Tracking: Documentation</text>
</g>
<g id="clust3" class="cluster">
<title>cluster_4</title>
<polygon fill="none" stroke="#0000ff" points="268,0 268,-337 784,-337 784,0 268,0"/>
<text text-anchor="middle" x="526" y="-321.8" font-family="Times,serif" font-size="14.00" fill="#000000">Epic: Zebra Stable Release Candidate</text>
</g>
<!-- ZcashFoundation/zebra#1791 -->
<g id="node1" class="node closed">
<title>ZcashFoundation/zebra#1791</title>
<g id="a_node1"><a xlink:href="https://github.com/ZcashFoundation/zebra/issues/1791" xlink:title="ZcashFoundation/zebra#1791&#10;Re&#45;enable `sync_large_che&#10;ckpoints_testnet` test" target="_blank">
<polygon fill="#fad8c7" stroke="#000000" points="1044,-125.5 812,-125.5 812,-72.5 1044,-72.5 1044,-125.5"/>
<text text-anchor="middle" x="928" y="-110.3" font-family="Times,serif" font-size="14.00" fill="#000000">ZcashFoundation/zebra#1791</text>
<text text-anchor="middle" x="928" y="-95.3" font-family="Times,serif" font-size="14.00" fill="#000000">Re&#45;enable `sync_large_che</text>
<text text-anchor="middle" x="928" y="-80.3" font-family="Times,serif" font-size="14.00" fill="#000000">ckpoints_testnet` test</text>
</a>
</g>
</g>
<!-- ZcashFoundation/zebra#1963 -->
<g id="node2" class="node open">
<title>ZcashFoundation/zebra#1963</title>
<g id="a_node2"><a xlink:href="https://github.com/ZcashFoundation/zebra/issues/1963" xlink:title="ZcashFoundation/zebra#1963&#10;Revise Release Process&#10;RFC Draft" target="_blank">
<polygon fill="#c2e0c6" stroke="#000000" stroke-width="2" points="240,-262.5 8,-262.5 8,-209.5 240,-209.5 240,-262.5"/>
<text text-anchor="middle" x="124" y="-247.3" font-family="Times,serif" font-size="14.00" fill="#000000">ZcashFoundation/zebra#1963</text>
<text text-anchor="middle" x="124" y="-232.3" font-family="Times,serif" font-size="14.00" fill="#000000">Revise Release Process</text>
<text text-anchor="middle" x="124" y="-217.3" font-family="Times,serif" font-size="14.00" fill="#000000">RFC Draft</text>
</a>
</g>
</g>
<!-- ZcashFoundation/zebra#1894 -->
<g id="node3" class="node open">
<title>ZcashFoundation/zebra#1894</title>
<g id="a_node3"><a xlink:href="https://github.com/ZcashFoundation/zebra/issues/1894" xlink:title="ZcashFoundation/zebra#1894&#10;Zebra should follow OS&#10;directory conventions&#10;better" target="_blank">
<polygon fill="#c2e0c6" stroke="#000000" stroke-width="2" points="508,-306 276,-306 276,-238 508,-238 508,-306"/>
<text text-anchor="middle" x="392" y="-290.8" font-family="Times,serif" font-size="14.00" fill="#000000">ZcashFoundation/zebra#1894</text>
<text text-anchor="middle" x="392" y="-275.8" font-family="Times,serif" font-size="14.00" fill="#000000">Zebra should follow OS</text>
<text text-anchor="middle" x="392" y="-260.8" font-family="Times,serif" font-size="14.00" fill="#000000">directory conventions</text>
<text text-anchor="middle" x="392" y="-245.8" font-family="Times,serif" font-size="14.00" fill="#000000">better</text>
</a>
</g>
</g>
<!-- ZcashFoundation/zebra#3432 -->
<g id="node4" class="node open">
<title>ZcashFoundation/zebra#3432</title>
<g id="a_node4"><a xlink:href="https://github.com/ZcashFoundation/zebra/issues/3432" xlink:title="ZcashFoundation/zebra#3432&#10;Use the Filesystem&#10;Hierarchy Standard (FHS)&#10;for deployments and&#10;artifacts" target="_blank">
<polygon fill="#c2e0c6" stroke="#000000" points="776,-305.5 544,-305.5 544,-222.5 776,-222.5 776,-305.5"/>
<text text-anchor="middle" x="660" y="-290.3" font-family="Times,serif" font-size="14.00" fill="#000000">ZcashFoundation/zebra#3432</text>
<text text-anchor="middle" x="660" y="-275.3" font-family="Times,serif" font-size="14.00" fill="#000000">Use the Filesystem</text>
<text text-anchor="middle" x="660" y="-260.3" font-family="Times,serif" font-size="14.00" fill="#000000">Hierarchy Standard (FHS)</text>
<text text-anchor="middle" x="660" y="-245.3" font-family="Times,serif" font-size="14.00" fill="#000000">for deployments and</text>
<text text-anchor="middle" x="660" y="-230.3" font-family="Times,serif" font-size="14.00" fill="#000000">artifacts</text>
</a>
</g>
</g>
<!-- ZcashFoundation/zebra#1894&#45;&gt;ZcashFoundation/zebra#3432 -->
<g id="edge1" class="edge">
<title>ZcashFoundation/zebra#1894&#45;&gt;ZcashFoundation/zebra#3432</title>
<path fill="none" stroke="#000000" d="M508.38,-268.53C516.71,-268.28 525.14,-268.03 533.53,-267.78"/>
<polygon fill="#000000" stroke="#000000" points="533.8509,-271.272 543.74,-267.47 533.6384,-264.2752 533.8509,-271.272"/>
</g>
<!-- ZcashFoundation/zebra#3050 -->
<g id="node5" class="node open">
<title>ZcashFoundation/zebra#3050</title>
<g id="a_node5"><a xlink:href="https://github.com/ZcashFoundation/zebra/issues/3050" xlink:title="ZcashFoundation/zebra#3050&#10;Tag Zebra 1.0.0&#45;rc.0&#10;stable release candidate" target="_blank">
<polygon fill="#a7c2aa" stroke="#000000" points="776,-204.5 544,-204.5 544,-151.5 776,-151.5 776,-204.5"/>
<text text-anchor="middle" x="660" y="-189.3" font-family="Times,serif" font-size="14.00" fill="#000000">ZcashFoundation/zebra#3050</text>
<text text-anchor="middle" x="660" y="-174.3" font-family="Times,serif" font-size="14.00" fill="#000000">Tag Zebra 1.0.0&#45;rc.0</text>
<text text-anchor="middle" x="660" y="-159.3" font-family="Times,serif" font-size="14.00" fill="#000000">stable release candidate</text>
</a>
</g>
</g>
<!-- ZcashFoundation/zebra#1904 -->
<g id="node6" class="node open">
<title>ZcashFoundation/zebra#1904</title>
<g id="a_node6"><a xlink:href="https://github.com/ZcashFoundation/zebra/issues/1904" xlink:title="ZcashFoundation/zebra#1904&#10;Some DNS seeders and&#10;block explorers don&#39;t&#10;show Zebra nodes" target="_blank">
<polygon fill="#a7c2aa" stroke="#000000" points="776,-133 544,-133 544,-65 776,-65 776,-133"/>
<text text-anchor="middle" x="660" y="-117.8" font-family="Times,serif" font-size="14.00" fill="#000000">ZcashFoundation/zebra#1904</text>
<text text-anchor="middle" x="660" y="-102.8" font-family="Times,serif" font-size="14.00" fill="#000000">Some DNS seeders and</text>
<text text-anchor="middle" x="660" y="-87.8" font-family="Times,serif" font-size="14.00" fill="#000000">block explorers don&#39;t</text>
<text text-anchor="middle" x="660" y="-72.8" font-family="Times,serif" font-size="14.00" fill="#000000">show Zebra nodes</text>
</a>
</g>
</g>
<!-- ZcashFoundation/zebra#1904&#45;&gt;ZcashFoundation/zebra#1791 -->
<g id="edge4" class="edge">
<title>ZcashFoundation/zebra#1904&#45;&gt;ZcashFoundation/zebra#1791</title>
<path fill="none" stroke="#000000" d="M776.38,-99C784.71,-99 793.14,-99 801.53,-99"/>
<polygon fill="#000000" stroke="#000000" points="801.74,-102.5001 811.74,-99 801.74,-95.5001 801.74,-102.5001"/>
</g>
<!-- ZcashFoundation/zebra#4448 -->
<g id="node7" class="node open">
<title>ZcashFoundation/zebra#4448</title>
<g id="a_node7"><a xlink:href="https://github.com/ZcashFoundation/zebra/issues/4448" xlink:title="ZcashFoundation/zebra#4448&#10;Decide on supported&#10;platforms and test in CI" target="_blank">
<polygon fill="#c2e0c6" stroke="#000000" stroke-width="2" points="508,-219.5 276,-219.5 276,-166.5 508,-166.5 508,-219.5"/>
<text text-anchor="middle" x="392" y="-204.3" font-family="Times,serif" font-size="14.00" fill="#000000">ZcashFoundation/zebra#4448</text>
<text text-anchor="middle" x="392" y="-189.3" font-family="Times,serif" font-size="14.00" fill="#000000">Decide on supported</text>
<text text-anchor="middle" x="392" y="-174.3" font-family="Times,serif" font-size="14.00" fill="#000000">platforms and test in CI</text>
</a>
</g>
</g>
<!-- ZcashFoundation/zebra#4448&#45;&gt;ZcashFoundation/zebra#3050 -->
<g id="edge2" class="edge">
<title>ZcashFoundation/zebra#4448&#45;&gt;ZcashFoundation/zebra#3050</title>
<path fill="none" stroke="#000000" d="M508.38,-186.49C516.71,-186.02 525.14,-185.55 533.53,-185.08"/>
<polygon fill="#000000" stroke="#000000" points="533.9507,-188.5621 543.74,-184.51 533.5604,-181.5729 533.9507,-188.5621"/>
</g>
<!-- ZcashFoundation/zebra#4562 -->
<g id="node8" class="node open">
<title>ZcashFoundation/zebra#4562</title>
<g id="a_node8"><a xlink:href="https://github.com/ZcashFoundation/zebra/issues/4562" xlink:title="ZcashFoundation/zebra#4562&#10;Deploy long&#45;running Zebra&#10;nodes after each tagged&#10;release" target="_blank">
<polygon fill="#c2e0c6" stroke="#000000" points="508,-148 276,-148 276,-80 508,-80 508,-148"/>
<text text-anchor="middle" x="392" y="-132.8" font-family="Times,serif" font-size="14.00" fill="#000000">ZcashFoundation/zebra#4562</text>
<text text-anchor="middle" x="392" y="-117.8" font-family="Times,serif" font-size="14.00" fill="#000000">Deploy long&#45;running Zebra</text>
<text text-anchor="middle" x="392" y="-102.8" font-family="Times,serif" font-size="14.00" fill="#000000">nodes after each tagged</text>
<text text-anchor="middle" x="392" y="-87.8" font-family="Times,serif" font-size="14.00" fill="#000000">release</text>
</a>
</g>
</g>
<!-- ZcashFoundation/zebra#4562&#45;&gt;ZcashFoundation/zebra#1904 -->
<g id="edge3" class="edge">
<title>ZcashFoundation/zebra#4562&#45;&gt;ZcashFoundation/zebra#1904</title>
<path fill="none" stroke="#000000" d="M508.38,-107.49C516.71,-107.02 525.14,-106.55 533.53,-106.08"/>
<polygon fill="#000000" stroke="#000000" points="533.9507,-109.5621 543.74,-105.51 533.5604,-102.5729 533.9507,-109.5621"/>
</g>
<!-- ZcashFoundation/zebra#1638 -->
<g id="node9" class="node open">
<title>ZcashFoundation/zebra#1638</title>
<g id="a_node9"><a xlink:href="https://github.com/ZcashFoundation/zebra/issues/1638" xlink:title="ZcashFoundation/zebra#1638&#10;Create PGP keys amongst&#10;security@zfnd.org" target="_blank">
<polygon fill="#c2e0c6" stroke="#000000" stroke-width="2" points="508,-61.5 276,-61.5 276,-8.5 508,-8.5 508,-61.5"/>
<text text-anchor="middle" x="392" y="-46.3" font-family="Times,serif" font-size="14.00" fill="#000000">ZcashFoundation/zebra#1638</text>
<text text-anchor="middle" x="392" y="-31.3" font-family="Times,serif" font-size="14.00" fill="#000000">Create PGP keys amongst</text>
<text text-anchor="middle" x="392" y="-16.3" font-family="Times,serif" font-size="14.00" fill="#000000">security@zfnd.org</text>
</a>
</g>
</g>
<!-- ZcashFoundation/zebra#4554 -->
<g id="node10" class="node open">
<title>ZcashFoundation/zebra#4554</title>
<g id="a_node10"><a xlink:href="https://github.com/ZcashFoundation/zebra/issues/4554" xlink:title="ZcashFoundation/zebra#4554&#10;benchmarks: surface&#10;zebrad mainnet sync time&#10;in CI" target="_blank">
<polygon fill="#c2e0c6" stroke="#000000" stroke-width="2" points="240,-370 8,-370 8,-302 240,-302 240,-370"/>
<text text-anchor="middle" x="124" y="-354.8" font-family="Times,serif" font-size="14.00" fill="#000000">ZcashFoundation/zebra#4554</text>
<text text-anchor="middle" x="124" y="-339.8" font-family="Times,serif" font-size="14.00" fill="#000000">benchmarks: surface</text>
<text text-anchor="middle" x="124" y="-324.8" font-family="Times,serif" font-size="14.00" fill="#000000">zebrad mainnet sync time</text>
<text text-anchor="middle" x="124" y="-309.8" font-family="Times,serif" font-size="14.00" fill="#000000">in CI</text>
</a>
</g>
</g>
<!-- ZcashFoundation/zebra#4546 -->
<g id="node11" class="node open">
<title>ZcashFoundation/zebra#4546</title>
<g id="a_node11"><a xlink:href="https://github.com/ZcashFoundation/zebra/issues/4546" xlink:title="ZcashFoundation/zebra#4546&#10;Fix automatic Zebra&#10;deployments to Google&#10;Cloud" target="_blank">
<polygon fill="#c2e0c6" stroke="#000000" stroke-width="2" points="240,-148 8,-148 8,-80 240,-80 240,-148"/>
<text text-anchor="middle" x="124" y="-132.8" font-family="Times,serif" font-size="14.00" fill="#000000">ZcashFoundation/zebra#4546</text>
<text text-anchor="middle" x="124" y="-117.8" font-family="Times,serif" font-size="14.00" fill="#000000">Fix automatic Zebra</text>
<text text-anchor="middle" x="124" y="-102.8" font-family="Times,serif" font-size="14.00" fill="#000000">deployments to Google</text>
<text text-anchor="middle" x="124" y="-87.8" font-family="Times,serif" font-size="14.00" fill="#000000">Cloud</text>
</a>
</g>
</g>
<!-- ZcashFoundation/zebra#4546&#45;&gt;ZcashFoundation/zebra#4562 -->
<g id="edge5" class="edge">
<title>ZcashFoundation/zebra#4546&#45;&gt;ZcashFoundation/zebra#4562</title>
<path fill="none" stroke="#000000" d="M240.38,-114C248.71,-114 257.14,-114 265.53,-114"/>
<polygon fill="#000000" stroke="#000000" points="265.74,-117.5001 275.74,-114 265.74,-110.5001 265.74,-117.5001"/>
</g>
<!-- ZcashFoundation/zebra#4651 -->
<g id="node12" class="node open">
<title>ZcashFoundation/zebra#4651</title>
<g id="a_node12"><a xlink:href="https://github.com/ZcashFoundation/zebra/issues/4651" xlink:title="ZcashFoundation/zebra#4651&#10;Tag Zebra beta.12 release" target="_blank">
<polygon fill="#a7c2aa" stroke="#000000" points="508,-441 276,-441 276,-403 508,-403 508,-441"/>
<text text-anchor="middle" x="392" y="-425.8" font-family="Times,serif" font-size="14.00" fill="#000000">ZcashFoundation/zebra#4651</text>
<text text-anchor="middle" x="392" y="-410.8" font-family="Times,serif" font-size="14.00" fill="#000000">Tag Zebra beta.12 release</text>
</a>
</g>
</g>
<!-- ZcashFoundation/zebra#4663 -->
<g id="node13" class="node open">
<title>ZcashFoundation/zebra#4663</title>
<g id="a_node13"><a xlink:href="https://github.com/ZcashFoundation/zebra/pull/4663" xlink:title="ZcashFoundation/zebra#4663&#10;fix(ci): Ignore&#10;lightwalletd hangs for&#10;now" target="_blank">
<polygon fill="#c2e0c6" stroke="#000000" stroke-width="2" points="240,-456 8,-456 8,-452 4,-452 4,-448 8,-448 8,-396 4,-396 4,-392 8,-392 8,-388 240,-388 240,-456"/>
<polyline fill="none" stroke="#000000" stroke-width="2" points="8,-452 12,-452 12,-448 8,-448 "/>
<polyline fill="none" stroke="#000000" stroke-width="2" points="8,-396 12,-396 12,-392 8,-392 "/>
<text text-anchor="middle" x="124" y="-440.8" font-family="Times,serif" font-size="14.00" fill="#000000">ZcashFoundation/zebra#4663</text>
<text text-anchor="middle" x="124" y="-425.8" font-family="Times,serif" font-size="14.00" fill="#000000">fix(ci): Ignore</text>
<text text-anchor="middle" x="124" y="-410.8" font-family="Times,serif" font-size="14.00" fill="#000000">lightwalletd hangs for</text>
<text text-anchor="middle" x="124" y="-395.8" font-family="Times,serif" font-size="14.00" fill="#000000">now</text>
</a>
</g>
</g>
<!-- ZcashFoundation/zebra#4663&#45;&gt;ZcashFoundation/zebra#4651 -->
<g id="edge6" class="edge">
<title>ZcashFoundation/zebra#4663&#45;&gt;ZcashFoundation/zebra#4651</title>
<path fill="none" stroke="#000000" d="M240.38,-422C248.71,-422 257.14,-422 265.53,-422"/>
<polygon fill="#000000" stroke="#000000" points="265.74,-425.5001 275.74,-422 265.74,-418.5001 265.74,-425.5001"/>
</g>
</g>
</svg>
