<?xml version="1.0" encoding="UTF-8" standalone="no"?>
<?xml-stylesheet href="zcash-dag.css" type="text/css"?>
<!DOCTYPE svg PUBLIC "-//W3C//DTD SVG 1.1//EN"
 "http://www.w3.org/Graphics/SVG/1.1/DTD/svg11.dtd">
<!-- Generated by graphviz version 2.40.1 (20161225.0304)
 -->
<!-- Pages: 1 -->
<svg width="824pt" height="1282pt"
 viewBox="0.00 0.00 824.00 1282.00" xmlns="http://www.w3.org/2000/svg" xmlns:xlink="http://www.w3.org/1999/xlink">
<g id="graph0" class="graph" transform="scale(1 1) rotate(0) translate(4 1278)">
<polygon fill="#ffffff" stroke="transparent" points="-4,4 -4,-1278 820,-1278 820,4 -4,4"/>
<g id="clust1" class="cluster">
<title>cluster_2</title>
<polygon fill="none" stroke="#0000ff" points="268,0 268,-107 556,-107 556,0 268,0"/>
<text text-anchor="middle" x="412" y="-91.8" font-family="Times,serif" font-size="14.00" fill="#000000">Epic: Zebra as a lightwalletd backend</text>
</g>
<g id="clust2" class="cluster">
<title>cluster_1</title>
<polygon fill="none" stroke="#0000ff" points="0,-421 0,-1274 536,-1274 536,-421 0,-421"/>
<text text-anchor="middle" x="268" y="-1258.8" font-family="Times,serif" font-size="14.00" fill="#000000">DevOps Ticket Tracker</text>
</g>
<g id="clust3" class="cluster">
<title>cluster_0</title>
<polygon fill="none" stroke="#0000ff" points="288,-163 288,-413 536,-413 536,-163 288,-163"/>
<text text-anchor="middle" x="412" y="-397.8" font-family="Times,serif" font-size="14.00" fill="#000000">Epic: Zebra Release Candidates</text>
</g>
<!-- ZcashFoundation/zebra#4612 -->
<g id="node1" class="node open">
<title>ZcashFoundation/zebra#4612</title>
<g id="a_node1"><a xlink:href="https://github.com/ZcashFoundation/zebra/issues/4612" xlink:title="ZcashFoundation/zebra#4612&#10;ci: Wait for lightwalletd&#10;image rebuild if it has&#10;changed" target="_blank">
<polygon fill="#c2e0c6" stroke="#000000" points="528,-76 296,-76 296,-8 528,-8 528,-76"/>
<text text-anchor="middle" x="412" y="-60.8" font-family="Times,serif" font-size="14.00" fill="#000000">ZcashFoundation/zebra#4612</text>
<text text-anchor="middle" x="412" y="-45.8" font-family="Times,serif" font-size="14.00" fill="#000000">ci: Wait for lightwalletd</text>
<text text-anchor="middle" x="412" y="-30.8" font-family="Times,serif" font-size="14.00" fill="#000000">image rebuild if it has</text>
<text text-anchor="middle" x="412" y="-15.8" font-family="Times,serif" font-size="14.00" fill="#000000">changed</text>
</a>
</g>
</g>
<!-- ZcashFoundation/zebra#4953 -->
<g id="node2" class="node open">
<title>ZcashFoundation/zebra#4953</title>
<g id="a_node2"><a xlink:href="https://github.com/ZcashFoundation/zebra/issues/4953" xlink:title="ZcashFoundation/zebra#4953&#10;Document how to use&#10;released Zebra binaries" target="_blank">
<polygon fill="#c2e0c6" stroke="#000000" stroke-width="2" points="240,-1171.5 8,-1171.5 8,-1118.5 240,-1118.5 240,-1171.5"/>
<text text-anchor="middle" x="124" y="-1156.3" font-family="Times,serif" font-size="14.00" fill="#000000">ZcashFoundation/zebra#4953</text>
<text text-anchor="middle" x="124" y="-1141.3" font-family="Times,serif" font-size="14.00" fill="#000000">Document how to use</text>
<text text-anchor="middle" x="124" y="-1126.3" font-family="Times,serif" font-size="14.00" fill="#000000">released Zebra binaries</text>
</a>
</g>
</g>
<!-- ZcashFoundation/zebra#1615 -->
<g id="node14" class="node open">
<title>ZcashFoundation/zebra#1615</title>
<g id="a_node14"><a xlink:href="https://github.com/ZcashFoundation/zebra/issues/1615" xlink:title="ZcashFoundation/zebra#1615&#10;Zebra release candidate&#10;binaries should be linked&#10;from ZFND website" target="_blank">
<polygon fill="#a7c2aa" stroke="#000000" points="528,-382 296,-382 296,-314 528,-314 528,-382"/>
<text text-anchor="middle" x="412" y="-366.8" font-family="Times,serif" font-size="14.00" fill="#000000">ZcashFoundation/zebra#1615</text>
<text text-anchor="middle" x="412" y="-351.8" font-family="Times,serif" font-size="14.00" fill="#000000">Zebra release candidate</text>
<text text-anchor="middle" x="412" y="-336.8" font-family="Times,serif" font-size="14.00" fill="#000000">binaries should be linked</text>
<text text-anchor="middle" x="412" y="-321.8" font-family="Times,serif" font-size="14.00" fill="#000000">from ZFND website</text>
</a>
</g>
</g>
<!-- ZcashFoundation/zebra#4953&#45;&gt;ZcashFoundation/zebra#1615 -->
<g id="edge3" class="edge">
<title>ZcashFoundation/zebra#4953&#45;&gt;ZcashFoundation/zebra#1615</title>
<path fill="none" stroke="#000000" d="M232.35,-1118.3C235.12,-1115.7 237.68,-1113 240,-1110 287.19,-1049.1 225.63,-481.37 268,-417 275.6,-405.45 285.71,-395.78 297.06,-387.69"/>
<polygon fill="#000000" stroke="#000000" points="299.1186,-390.5248 305.53,-382.09 295.258,-384.6856 299.1186,-390.5248"/>
</g>
<!-- ZcashFoundation/zebra#1963 -->
<g id="node3" class="node open">
<title>ZcashFoundation/zebra#1963</title>
<g id="a_node3"><a xlink:href="https://github.com/ZcashFoundation/zebra/issues/1963" xlink:title="ZcashFoundation/zebra#1963&#10;Work out how to release&#10;Zebra binaries" target="_blank">
<polygon fill="#c2e0c6" stroke="#000000" stroke-width="2" points="240,-1242.5 8,-1242.5 8,-1189.5 240,-1189.5 240,-1242.5"/>
<text text-anchor="middle" x="124" y="-1227.3" font-family="Times,serif" font-size="14.00" fill="#000000">ZcashFoundation/zebra#1963</text>
<text text-anchor="middle" x="124" y="-1212.3" font-family="Times,serif" font-size="14.00" fill="#000000">Work out how to release</text>
<text text-anchor="middle" x="124" y="-1197.3" font-family="Times,serif" font-size="14.00" fill="#000000">Zebra binaries</text>
</a>
</g>
</g>
<!-- ZcashFoundation/zebra#4954 -->
<g id="node4" class="node open">
<title>ZcashFoundation/zebra#4954</title>
<g id="a_node4"><a xlink:href="https://github.com/ZcashFoundation/zebra/issues/4954" xlink:title="ZcashFoundation/zebra#4954&#10;Update release checklist&#10;PR template for the&#10;release candidate series" target="_blank">
<polygon fill="#c2e0c6" stroke="#000000" points="528,-827 296,-827 296,-759 528,-759 528,-827"/>
<text text-anchor="middle" x="412" y="-811.8" font-family="Times,serif" font-size="14.00" fill="#000000">ZcashFoundation/zebra#4954</text>
<text text-anchor="middle" x="412" y="-796.8" font-family="Times,serif" font-size="14.00" fill="#000000">Update release checklist</text>
<text text-anchor="middle" x="412" y="-781.8" font-family="Times,serif" font-size="14.00" fill="#000000">PR template for the</text>
<text text-anchor="middle" x="412" y="-766.8" font-family="Times,serif" font-size="14.00" fill="#000000">release candidate series</text>
</a>
</g>
</g>
<!-- ZcashFoundation/zebra#1963&#45;&gt;ZcashFoundation/zebra#4954 -->
<g id="edge1" class="edge">
<title>ZcashFoundation/zebra#1963&#45;&gt;ZcashFoundation/zebra#4954</title>
<path fill="none" stroke="#000000" d="M228.88,-1189.4C232.8,-1186.9 236.53,-1184.1 240,-1181 345.46,-1087.9 389.29,-917.85 404.75,-837.42"/>
<polygon fill="#000000" stroke="#000000" points="408.2745,-837.6126 406.67,-827.14 401.3935,-836.3274 408.2745,-837.6126"/>
</g>
<!-- ZcashFoundation/zebra#4412 -->
<g id="node5" class="node open">
<title>ZcashFoundation/zebra#4412</title>
<g id="a_node5"><a xlink:href="https://github.com/ZcashFoundation/zebra/issues/4412" xlink:title="ZcashFoundation/zebra#4412&#10;Automate pinning CI&#10;dependencies to specific&#10;commit hashes" target="_blank">
<polygon fill="#c2e0c6" stroke="#000000" points="528,-1243 296,-1243 296,-1175 528,-1175 528,-1243"/>
<text text-anchor="middle" x="412" y="-1227.8" font-family="Times,serif" font-size="14.00" fill="#000000">ZcashFoundation/zebra#4412</text>
<text text-anchor="middle" x="412" y="-1212.8" font-family="Times,serif" font-size="14.00" fill="#000000">Automate pinning CI</text>
<text text-anchor="middle" x="412" y="-1197.8" font-family="Times,serif" font-size="14.00" fill="#000000">dependencies to specific</text>
<text text-anchor="middle" x="412" y="-1182.8" font-family="Times,serif" font-size="14.00" fill="#000000">commit hashes</text>
</a>
</g>
</g>
<!-- ZcashFoundation/zebra#1963&#45;&gt;ZcashFoundation/zebra#4412 -->
<g id="edge2" class="edge">
<title>ZcashFoundation/zebra#1963&#45;&gt;ZcashFoundation/zebra#4412</title>
<path fill="none" stroke="#000000" d="M240.31,-1213.2C255.15,-1212.8 270.4,-1212.4 285.39,-1212.1"/>
<polygon fill="#000000" stroke="#000000" points="285.8259,-1215.5889 295.72,-1211.8 285.6226,-1208.5919 285.8259,-1215.5889"/>
</g>
<!-- ZcashFoundation/zebra#755 -->
<g id="node17" class="node closed">
<title>ZcashFoundation/zebra#755</title>
<g id="a_node17"><a xlink:href="https://github.com/ZcashFoundation/zebra/issues/755" xlink:title="ZcashFoundation/zebra#755&#10;Automate zebrad releases" target="_blank">
<polygon fill="#fad8c7" stroke="#000000" points="523.5,-153 300.5,-153 300.5,-115 523.5,-115 523.5,-153"/>
<text text-anchor="middle" x="412" y="-137.8" font-family="Times,serif" font-size="14.00" fill="#000000">ZcashFoundation/zebra#755</text>
<text text-anchor="middle" x="412" y="-122.8" font-family="Times,serif" font-size="14.00" fill="#000000">Automate zebrad releases</text>
</a>
</g>
</g>
<!-- ZcashFoundation/zebra#1963&#45;&gt;ZcashFoundation/zebra#755 -->
<g id="edge4" class="edge">
<title>ZcashFoundation/zebra#1963&#45;&gt;ZcashFoundation/zebra#755</title>
<path fill="none" stroke="#000000" d="M232.4,-1189.3C235.15,-1186.8 237.7,-1184 240,-1181 308.98,-1090.7 193.68,-244.92 268,-159 274.47,-151.52 282.3,-145.74 290.94,-141.32"/>
<polygon fill="#000000" stroke="#000000" points="292.5065,-144.4537 300.21,-137.18 289.6519,-138.0621 292.5065,-144.4537"/>
</g>
<!-- ZcashFoundation/zebra#3050 -->
<g id="node15" class="node open">
<title>ZcashFoundation/zebra#3050</title>
<g id="a_node15"><a xlink:href="https://github.com/ZcashFoundation/zebra/issues/3050" xlink:title="ZcashFoundation/zebra#3050&#10;Tag Zebra 1.0.0&#45;rc.0&#10;stable release candidate" target="_blank">
<polygon fill="#a7c2aa" stroke="#000000" points="528,-295.5 296,-295.5 296,-242.5 528,-242.5 528,-295.5"/>
<text text-anchor="middle" x="412" y="-280.3" font-family="Times,serif" font-size="14.00" fill="#000000">ZcashFoundation/zebra#3050</text>
<text text-anchor="middle" x="412" y="-265.3" font-family="Times,serif" font-size="14.00" fill="#000000">Tag Zebra 1.0.0&#45;rc.0</text>
<text text-anchor="middle" x="412" y="-250.3" font-family="Times,serif" font-size="14.00" fill="#000000">stable release candidate</text>
</a>
</g>
</g>
<!-- ZcashFoundation/zebra#4954&#45;&gt;ZcashFoundation/zebra#3050 -->
<g id="edge5" class="edge">
<title>ZcashFoundation/zebra#4954&#45;&gt;ZcashFoundation/zebra#3050</title>
<path fill="none" stroke="#000000" d="M393.72,-758.96C343.53,-663.4 210.1,-394.41 254,-314 261.51,-300.24 273.08,-290.32 286.62,-283.21"/>
<polygon fill="#000000" stroke="#000000" points="288.1952,-286.3374 295.78,-278.94 285.2376,-279.9929 288.1952,-286.3374"/>
</g>
<!-- ZcashFoundation/zebra#4882 -->
<g id="node6" class="node open">
<title>ZcashFoundation/zebra#4882</title>
<g id="a_node6"><a xlink:href="https://github.com/ZcashFoundation/zebra/issues/4882" xlink:title="ZcashFoundation/zebra#4882&#10;Add zcash&#45;lightwalletd /&#10;Build images to required&#10;jobs" target="_blank">
<polygon fill="#c2e0c6" stroke="#000000" stroke-width="2" points="240,-1029 8,-1029 8,-961 240,-961 240,-1029"/>
<text text-anchor="middle" x="124" y="-1013.8" font-family="Times,serif" font-size="14.00" fill="#000000">ZcashFoundation/zebra#4882</text>
<text text-anchor="middle" x="124" y="-998.8" font-family="Times,serif" font-size="14.00" fill="#000000">Add zcash&#45;lightwalletd /</text>
<text text-anchor="middle" x="124" y="-983.8" font-family="Times,serif" font-size="14.00" fill="#000000">Build images to required</text>
<text text-anchor="middle" x="124" y="-968.8" font-family="Times,serif" font-size="14.00" fill="#000000">jobs</text>
</a>
</g>
</g>
<!-- ZcashFoundation/zebra#4882&#45;&gt;ZcashFoundation/zebra#4612 -->
<g id="edge6" class="edge">
<title>ZcashFoundation/zebra#4882&#45;&gt;ZcashFoundation/zebra#4612</title>
<path fill="none" stroke="#000000" d="M232.5,-960.74C235.22,-958.04 237.74,-955.14 240,-952 294.99,-875.7 215.45,-184 268,-106 274.2,-96.79 282.06,-88.897 290.88,-82.127"/>
<polygon fill="#000000" stroke="#000000" points="293.092,-84.8496 299.24,-76.221 289.053,-79.1324 293.092,-84.8496"/>
</g>
<!-- ZcashFoundation/zebra#4992 -->
<g id="node7" class="node open">
<title>ZcashFoundation/zebra#4992</title>
<g id="a_node7"><a xlink:href="https://github.com/ZcashFoundation/zebra/issues/4992" xlink:title="ZcashFoundation/zebra#4992&#10;Run cached state CI on&#10;testnet" target="_blank">
<polygon fill="#c2e0c6" stroke="#000000" points="240,-1100.5 8,-1100.5 8,-1047.5 240,-1047.5 240,-1100.5"/>
<text text-anchor="middle" x="124" y="-1085.3" font-family="Times,serif" font-size="14.00" fill="#000000">ZcashFoundation/zebra#4992</text>
<text text-anchor="middle" x="124" y="-1070.3" font-family="Times,serif" font-size="14.00" fill="#000000">Run cached state CI on</text>
<text text-anchor="middle" x="124" y="-1055.3" font-family="Times,serif" font-size="14.00" fill="#000000">testnet</text>
</a>
</g>
</g>
<!-- ZcashFoundation/zebra#4554 -->
<g id="node8" class="node open">
<title>ZcashFoundation/zebra#4554</title>
<g id="a_node8"><a xlink:href="https://github.com/ZcashFoundation/zebra/issues/4554" xlink:title="ZcashFoundation/zebra#4554&#10;benchmarks: surface&#10;zebrad mainnet sync time&#10;in CI" target="_blank">
<polygon fill="#c2e0c6" stroke="#000000" stroke-width="2" points="240,-943 8,-943 8,-875 240,-875 240,-943"/>
<text text-anchor="middle" x="124" y="-927.8" font-family="Times,serif" font-size="14.00" fill="#000000">ZcashFoundation/zebra#4554</text>
<text text-anchor="middle" x="124" y="-912.8" font-family="Times,serif" font-size="14.00" fill="#000000">benchmarks: surface</text>
<text text-anchor="middle" x="124" y="-897.8" font-family="Times,serif" font-size="14.00" fill="#000000">zebrad mainnet sync time</text>
<text text-anchor="middle" x="124" y="-882.8" font-family="Times,serif" font-size="14.00" fill="#000000">in CI</text>
</a>
</g>
</g>
<!-- ZcashFoundation/zebra#4529 -->
<g id="node9" class="node open">
<title>ZcashFoundation/zebra#4529</title>
<g id="a_node9"><a xlink:href="https://github.com/ZcashFoundation/zebra/issues/4529" xlink:title="ZcashFoundation/zebra#4529&#10;Make PRs from external&#10;repositories pass or skip&#10;CI jobs" target="_blank">
<polygon fill="#c2e0c6" stroke="#000000" stroke-width="2" points="240,-857 8,-857 8,-789 240,-789 240,-857"/>
<text text-anchor="middle" x="124" y="-841.8" font-family="Times,serif" font-size="14.00" fill="#000000">ZcashFoundation/zebra#4529</text>
<text text-anchor="middle" x="124" y="-826.8" font-family="Times,serif" font-size="14.00" fill="#000000">Make PRs from external</text>
<text text-anchor="middle" x="124" y="-811.8" font-family="Times,serif" font-size="14.00" fill="#000000">repositories pass or skip</text>
<text text-anchor="middle" x="124" y="-796.8" font-family="Times,serif" font-size="14.00" fill="#000000">CI jobs</text>
</a>
</g>
</g>
<!-- ZcashFoundation/zebra#4955 -->
<g id="node10" class="node open">
<title>ZcashFoundation/zebra#4955</title>
<g id="a_node10"><a xlink:href="https://github.com/ZcashFoundation/zebra/issues/4955" xlink:title="ZcashFoundation/zebra#4955&#10;Make long&#45;running test&#10;names match workflow&#10;names" target="_blank">
<polygon fill="#c2e0c6" stroke="#000000" stroke-width="2" points="240,-771 8,-771 8,-703 240,-703 240,-771"/>
<text text-anchor="middle" x="124" y="-755.8" font-family="Times,serif" font-size="14.00" fill="#000000">ZcashFoundation/zebra#4955</text>
<text text-anchor="middle" x="124" y="-740.8" font-family="Times,serif" font-size="14.00" fill="#000000">Make long&#45;running test</text>
<text text-anchor="middle" x="124" y="-725.8" font-family="Times,serif" font-size="14.00" fill="#000000">names match workflow</text>
<text text-anchor="middle" x="124" y="-710.8" font-family="Times,serif" font-size="14.00" fill="#000000">names</text>
</a>
</g>
</g>
<!-- ZcashFoundation/zebra#4956 -->
<g id="node11" class="node open">
<title>ZcashFoundation/zebra#4956</title>
<g id="a_node11"><a xlink:href="https://github.com/ZcashFoundation/zebra/issues/4956" xlink:title="ZcashFoundation/zebra#4956&#10;Make file locations&#10;appear in zebrad Docker&#10;error messages" target="_blank">
<polygon fill="#c2e0c6" stroke="#000000" stroke-width="2" points="240,-685 8,-685 8,-617 240,-617 240,-685"/>
<text text-anchor="middle" x="124" y="-669.8" font-family="Times,serif" font-size="14.00" fill="#000000">ZcashFoundation/zebra#4956</text>
<text text-anchor="middle" x="124" y="-654.8" font-family="Times,serif" font-size="14.00" fill="#000000">Make file locations</text>
<text text-anchor="middle" x="124" y="-639.8" font-family="Times,serif" font-size="14.00" fill="#000000">appear in zebrad Docker</text>
<text text-anchor="middle" x="124" y="-624.8" font-family="Times,serif" font-size="14.00" fill="#000000">error messages</text>
</a>
</g>
</g>
<!-- ZcashFoundation/zebra#4976 -->
<g id="node12" class="node open">
<title>ZcashFoundation/zebra#4976</title>
<g id="a_node12"><a xlink:href="https://github.com/ZcashFoundation/zebra/issues/4976" xlink:title="ZcashFoundation/zebra#4976&#10;Move continuous&#10;deployment to another&#10;Google Cloud region" target="_blank">
<polygon fill="#c2e0c6" stroke="#000000" stroke-width="2" points="240,-599 8,-599 8,-531 240,-531 240,-599"/>
<text text-anchor="middle" x="124" y="-583.8" font-family="Times,serif" font-size="14.00" fill="#000000">ZcashFoundation/zebra#4976</text>
<text text-anchor="middle" x="124" y="-568.8" font-family="Times,serif" font-size="14.00" fill="#000000">Move continuous</text>
<text text-anchor="middle" x="124" y="-553.8" font-family="Times,serif" font-size="14.00" fill="#000000">deployment to another</text>
<text text-anchor="middle" x="124" y="-538.8" font-family="Times,serif" font-size="14.00" fill="#000000">Google Cloud region</text>
</a>
</g>
</g>
<!-- ZcashFoundation/zebra#4946 -->
<g id="node13" class="node open">
<title>ZcashFoundation/zebra#4946</title>
<g id="a_node13"><a xlink:href="https://github.com/ZcashFoundation/zebra/issues/4946" xlink:title="ZcashFoundation/zebra#4946&#10;Managed instance groups&#10;deployed with continuous&#10;deployment can&#39;t scale&#10;beyond 1 instance" target="_blank">
<polygon fill="#c2e0c6" stroke="#000000" stroke-width="2" points="240,-512.5 8,-512.5 8,-429.5 240,-429.5 240,-512.5"/>
<text text-anchor="middle" x="124" y="-497.3" font-family="Times,serif" font-size="14.00" fill="#000000">ZcashFoundation/zebra#4946</text>
<text text-anchor="middle" x="124" y="-482.3" font-family="Times,serif" font-size="14.00" fill="#000000">Managed instance groups</text>
<text text-anchor="middle" x="124" y="-467.3" font-family="Times,serif" font-size="14.00" fill="#000000">deployed with continuous</text>
<text text-anchor="middle" x="124" y="-452.3" font-family="Times,serif" font-size="14.00" fill="#000000">deployment can&#39;t scale</text>
<text text-anchor="middle" x="124" y="-437.3" font-family="Times,serif" font-size="14.00" fill="#000000">beyond 1 instance</text>
</a>
</g>
</g>
<!-- ZcashFoundation/zebra#3050&#45;&gt;ZcashFoundation/zebra#4992 -->
<g id="edge7" class="edge">
<title>ZcashFoundation/zebra#3050&#45;&gt;ZcashFoundation/zebra#4992</title>
<path fill="none" stroke="#000000" d="M295.7,-283.18C285.11,-288.59 275.55,-295.7 268,-305 216.62,-368.27 289.59,-973.32 240,-1038 239.52,-1038.6 239.03,-1039.2 238.52,-1039.9"/>
<polygon fill="#000000" stroke="#000000" points="235.8929,-1037.5817 231.45,-1047.2 240.9212,-1042.4516 235.8929,-1037.5817"/>
</g>
<!-- ZcashFoundation/zebra#4967 -->
<g id="node18" class="node open">
<title>ZcashFoundation/zebra#4967</title>
<g id="a_node18"><a xlink:href="https://github.com/ZcashFoundation/zebra/pull/4967" xlink:title="ZcashFoundation/zebra#4967&#10;feat(rpc): add&#10;getblockhash rpc method" target="_blank">
<polygon fill="#a7c2aa" stroke="#000000" points="816,-295.5 584,-295.5 584,-291.5 580,-291.5 580,-287.5 584,-287.5 584,-250.5 580,-250.5 580,-246.5 584,-246.5 584,-242.5 816,-242.5 816,-295.5"/>
<polyline fill="none" stroke="#000000" points="584,-291.5 588,-291.5 588,-287.5 584,-287.5 "/>
<polyline fill="none" stroke="#000000" points="584,-250.5 588,-250.5 588,-246.5 584,-246.5 "/>
<text text-anchor="middle" x="700" y="-280.3" font-family="Times,serif" font-size="14.00" fill="#000000">ZcashFoundation/zebra#4967</text>
<text text-anchor="middle" x="700" y="-265.3" font-family="Times,serif" font-size="14.00" fill="#000000">feat(rpc): add</text>
<text text-anchor="middle" x="700" y="-250.3" font-family="Times,serif" font-size="14.00" fill="#000000">getblockhash rpc method</text>
</a>
</g>
</g>
<!-- ZcashFoundation/zebra#3050&#45;&gt;ZcashFoundation/zebra#4967 -->
<g id="edge8" class="edge">
<title>ZcashFoundation/zebra#3050&#45;&gt;ZcashFoundation/zebra#4967</title>
<path fill="none" stroke="#000000" d="M528.31,-269C543.15,-269 558.4,-269 573.39,-269"/>
<polygon fill="#000000" stroke="#000000" points="573.72,-272.5001 583.72,-269 573.72,-265.5001 573.72,-272.5001"/>
</g>
<!-- ZcashFoundation/zebra#1638 -->
<g id="node16" class="node open">
<title>ZcashFoundation/zebra#1638</title>
<g id="a_node16"><a xlink:href="https://github.com/ZcashFoundation/zebra/issues/1638" xlink:title="ZcashFoundation/zebra#1638&#10;Create PGP keys amongst&#10;security@zfnd.org" target="_blank">
<polygon fill="#c2e0c6" stroke="#000000" stroke-width="2" points="528,-224.5 296,-224.5 296,-171.5 528,-171.5 528,-224.5"/>
<text text-anchor="middle" x="412" y="-209.3" font-family="Times,serif" font-size="14.00" fill="#000000">ZcashFoundation/zebra#1638</text>
<text text-anchor="middle" x="412" y="-194.3" font-family="Times,serif" font-size="14.00" fill="#000000">Create PGP keys amongst</text>
<text text-anchor="middle" x="412" y="-179.3" font-family="Times,serif" font-size="14.00" fill="#000000">security@zfnd.org</text>
</a>
</g>
</g>
</g>
</svg>
