<?xml version="1.0" encoding="UTF-8" standalone="no"?>
<?xml-stylesheet href="zcash-dag.css" type="text/css"?>
<!DOCTYPE svg PUBLIC "-//W3C//DTD SVG 1.1//EN"
 "http://www.w3.org/Graphics/SVG/1.1/DTD/svg11.dtd">
<!-- Generated by graphviz version 2.40.1 (20161225.0304)
 -->
<!-- Pages: 1 -->
<svg width="508pt" height="763pt"
 viewBox="0.00 0.00 508.00 763.00" xmlns="http://www.w3.org/2000/svg" xmlns:xlink="http://www.w3.org/1999/xlink">
<g id="graph0" class="graph" transform="scale(1 1) rotate(0) translate(4 759)">
<polygon fill="#ffffff" stroke="transparent" points="-4,4 -4,-759 504,-759 504,4 -4,4"/>
<!-- ZcashFoundation/zebra#5316 -->
<g id="node1" class="node open">
<title>ZcashFoundation/zebra#5316</title>
<g id="a_node1"><a xlink:href="https://github.com/ZcashFoundation/zebra/issues/5316" xlink:title="ZcashFoundation/zebra#5316&#10;Only run the&#10;`lightwalletd` full sync&#10;on the `main` branch" target="_blank">
<polygon fill="#c2e0c6" stroke="#000000" stroke-width="2" points="232,-68 0,-68 0,0 232,0 232,-68"/>
<text text-anchor="middle" x="116" y="-52.8" font-family="Times,serif" font-size="14.00" fill="#000000">ZcashFoundation/zebra#5316</text>
<text text-anchor="middle" x="116" y="-37.8" font-family="Times,serif" font-size="14.00" fill="#000000">Only run the</text>
<text text-anchor="middle" x="116" y="-22.8" font-family="Times,serif" font-size="14.00" fill="#000000">`lightwalletd` full sync</text>
<text text-anchor="middle" x="116" y="-7.8" font-family="Times,serif" font-size="14.00" fill="#000000">on the `main` branch</text>
</a>
</g>
</g>
<!-- ZcashFoundation/zebra#4412 -->
<g id="node2" class="node open">
<title>ZcashFoundation/zebra#4412</title>
<g id="a_node2"><a xlink:href="https://github.com/ZcashFoundation/zebra/issues/4412" xlink:title="ZcashFoundation/zebra#4412&#10;Automate pinning CI&#10;dependencies to specific&#10;commit hashes" target="_blank">
<polygon fill="#c2e0c6" stroke="#000000" stroke-width="2" points="232,-154 0,-154 0,-86 232,-86 232,-154"/>
<text text-anchor="middle" x="116" y="-138.8" font-family="Times,serif" font-size="14.00" fill="#000000">ZcashFoundation/zebra#4412</text>
<text text-anchor="middle" x="116" y="-123.8" font-family="Times,serif" font-size="14.00" fill="#000000">Automate pinning CI</text>
<text text-anchor="middle" x="116" y="-108.8" font-family="Times,serif" font-size="14.00" fill="#000000">dependencies to specific</text>
<text text-anchor="middle" x="116" y="-93.8" font-family="Times,serif" font-size="14.00" fill="#000000">commit hashes</text>
</a>
</g>
</g>
<!-- ZcashFoundation/zebra#5370 -->
<g id="node3" class="node open">
<title>ZcashFoundation/zebra#5370</title>
<g id="a_node3"><a xlink:href="https://github.com/ZcashFoundation/zebra/pull/5370" xlink:title="ZcashFoundation/zebra#5370&#10;ci(ssh): avoid ssh&#10;timeouts from the server" target="_blank">
<polygon fill="#c2e0c6" stroke="#000000" stroke-width="2" points="232,-225.5 0,-225.5 0,-221.5 -4,-221.5 -4,-217.5 0,-217.5 0,-180.5 -4,-180.5 -4,-176.5 0,-176.5 0,-172.5 232,-172.5 232,-225.5"/>
<polyline fill="none" stroke="#000000" stroke-width="2" points="0,-221.5 4,-221.5 4,-217.5 0,-217.5 "/>
<polyline fill="none" stroke="#000000" stroke-width="2" points="0,-180.5 4,-180.5 4,-176.5 0,-176.5 "/>
<text text-anchor="middle" x="116" y="-210.3" font-family="Times,serif" font-size="14.00" fill="#000000">ZcashFoundation/zebra#5370</text>
<text text-anchor="middle" x="116" y="-195.3" font-family="Times,serif" font-size="14.00" fill="#000000">ci(ssh): avoid ssh</text>
<text text-anchor="middle" x="116" y="-180.3" font-family="Times,serif" font-size="14.00" fill="#000000">timeouts from the server</text>
</a>
</g>
</g>
<!-- ZcashFoundation/zebra#5371 -->
<g id="node4" class="node closed">
<title>ZcashFoundation/zebra#5371</title>
<g id="a_node4"><a xlink:href="https://github.com/ZcashFoundation/zebra/pull/5371" xlink:title="ZcashFoundation/zebra#5371&#10;ci(disk): use an official&#10;GCP image on CI VMs for&#10;disk auto&#45;resizing, make&#10;CI &amp; CD disks 300GB" target="_blank">
<polygon fill="#fad8c7" stroke="#000000" points="500,-240.5 268,-240.5 268,-236.5 264,-236.5 264,-232.5 268,-232.5 268,-165.5 264,-165.5 264,-161.5 268,-161.5 268,-157.5 500,-157.5 500,-240.5"/>
<polyline fill="none" stroke="#000000" points="268,-236.5 272,-236.5 272,-232.5 268,-232.5 "/>
<polyline fill="none" stroke="#000000" points="268,-165.5 272,-165.5 272,-161.5 268,-161.5 "/>
<text text-anchor="middle" x="384" y="-225.3" font-family="Times,serif" font-size="14.00" fill="#000000">ZcashFoundation/zebra#5371</text>
<text text-anchor="middle" x="384" y="-210.3" font-family="Times,serif" font-size="14.00" fill="#000000">ci(disk): use an official</text>
<text text-anchor="middle" x="384" y="-195.3" font-family="Times,serif" font-size="14.00" fill="#000000">GCP image on CI VMs for</text>
<text text-anchor="middle" x="384" y="-180.3" font-family="Times,serif" font-size="14.00" fill="#000000">disk auto&#45;resizing, make</text>
<text text-anchor="middle" x="384" y="-165.3" font-family="Times,serif" font-size="14.00" fill="#000000">CI &amp; CD disks 300GB</text>
</a>
</g>
</g>
<!-- ZcashFoundation/zebra#5370&#45;&gt;ZcashFoundation/zebra#5371 -->
<g id="edge1" class="edge">
<title>ZcashFoundation/zebra#5370&#45;&gt;ZcashFoundation/zebra#5371</title>
<path fill="none" stroke="#000000" d="M232.38,-199C240.71,-199 249.14,-199 257.53,-199"/>
<polygon fill="#000000" stroke="#000000" points="257.74,-202.5001 267.74,-199 257.74,-195.5001 257.74,-202.5001"/>
</g>
<!-- ZcashFoundation/zebra#4612 -->
<g id="node5" class="node closed">
<title>ZcashFoundation/zebra#4612</title>
<g id="a_node5"><a xlink:href="https://github.com/ZcashFoundation/zebra/issues/4612" xlink:title="ZcashFoundation/zebra#4612&#10;ci: Wait for lightwalletd&#10;image rebuild if it has&#10;changed" target="_blank">
<polygon fill="#fad8c7" stroke="#000000" points="500,-327 268,-327 268,-259 500,-259 500,-327"/>
<text text-anchor="middle" x="384" y="-311.8" font-family="Times,serif" font-size="14.00" fill="#000000">ZcashFoundation/zebra#4612</text>
<text text-anchor="middle" x="384" y="-296.8" font-family="Times,serif" font-size="14.00" fill="#000000">ci: Wait for lightwalletd</text>
<text text-anchor="middle" x="384" y="-281.8" font-family="Times,serif" font-size="14.00" fill="#000000">image rebuild if it has</text>
<text text-anchor="middle" x="384" y="-266.8" font-family="Times,serif" font-size="14.00" fill="#000000">changed</text>
</a>
</g>
</g>
<!-- ZcashFoundation/zebra#5153 -->
<g id="node6" class="node open">
<title>ZcashFoundation/zebra#5153</title>
<g id="a_node6"><a xlink:href="https://github.com/ZcashFoundation/zebra/issues/5153" xlink:title="ZcashFoundation/zebra#5153&#10;Tag Google Cloud&#10;instances with the name&#10;of the test or workflow" target="_blank">
<polygon fill="#c2e0c6" stroke="#000000" stroke-width="2" points="232,-497 0,-497 0,-429 232,-429 232,-497"/>
<text text-anchor="middle" x="116" y="-481.8" font-family="Times,serif" font-size="14.00" fill="#000000">ZcashFoundation/zebra#5153</text>
<text text-anchor="middle" x="116" y="-466.8" font-family="Times,serif" font-size="14.00" fill="#000000">Tag Google Cloud</text>
<text text-anchor="middle" x="116" y="-451.8" font-family="Times,serif" font-size="14.00" fill="#000000">instances with the name</text>
<text text-anchor="middle" x="116" y="-436.8" font-family="Times,serif" font-size="14.00" fill="#000000">of the test or workflow</text>
</a>
</g>
</g>
<!-- ZcashFoundation/zebra#5189 -->
<g id="node7" class="node closed">
<title>ZcashFoundation/zebra#5189</title>
<g id="a_node7"><a xlink:href="https://github.com/ZcashFoundation/zebra/issues/5189" xlink:title="ZcashFoundation/zebra#5189&#10;Run some docker tests on&#10;smaller instances" target="_blank">
<polygon fill="#fad8c7" stroke="#000000" points="500,-573.5 268,-573.5 268,-520.5 500,-520.5 500,-573.5"/>
<text text-anchor="middle" x="384" y="-558.3" font-family="Times,serif" font-size="14.00" fill="#000000">ZcashFoundation/zebra#5189</text>
<text text-anchor="middle" x="384" y="-543.3" font-family="Times,serif" font-size="14.00" fill="#000000">Run some docker tests on</text>
<text text-anchor="middle" x="384" y="-528.3" font-family="Times,serif" font-size="14.00" fill="#000000">smaller instances</text>
</a>
</g>
</g>
<!-- ZcashFoundation/zebra#5153&#45;&gt;ZcashFoundation/zebra#5189 -->
<g id="edge2" class="edge">
<title>ZcashFoundation/zebra#5153&#45;&gt;ZcashFoundation/zebra#5189</title>
<path fill="none" stroke="#000000" d="M224.62,-497.04C246.04,-503.76 268.36,-510.75 289.27,-517.31"/>
<polygon fill="#000000" stroke="#000000" points="288.5109,-520.7399 299.1,-520.39 290.6039,-514.0601 288.5109,-520.7399"/>
</g>
<!-- ZcashFoundation/zebra#5155 -->
<g id="node8" class="node closed">
<title>ZcashFoundation/zebra#5155</title>
<g id="a_node8"><a xlink:href="https://github.com/ZcashFoundation/zebra/issues/5155" xlink:title="ZcashFoundation/zebra#5155&#10;Decide if we want to&#10;create cached states more&#10;often" target="_blank">
<polygon fill="#fad8c7" stroke="#000000" points="500,-499 268,-499 268,-431 500,-431 500,-499"/>
<text text-anchor="middle" x="384" y="-483.8" font-family="Times,serif" font-size="14.00" fill="#000000">ZcashFoundation/zebra#5155</text>
<text text-anchor="middle" x="384" y="-468.8" font-family="Times,serif" font-size="14.00" fill="#000000">Decide if we want to</text>
<text text-anchor="middle" x="384" y="-453.8" font-family="Times,serif" font-size="14.00" fill="#000000">create cached states more</text>
<text text-anchor="middle" x="384" y="-438.8" font-family="Times,serif" font-size="14.00" fill="#000000">often</text>
</a>
</g>
</g>
<!-- ZcashFoundation/zebra#5153&#45;&gt;ZcashFoundation/zebra#5155 -->
<g id="edge3" class="edge">
<title>ZcashFoundation/zebra#5153&#45;&gt;ZcashFoundation/zebra#5155</title>
<path fill="none" stroke="#000000" d="M232.38,-463.87C240.71,-463.93 249.14,-463.99 257.53,-464.06"/>
<polygon fill="#000000" stroke="#000000" points="257.7162,-467.5613 267.74,-464.13 257.7643,-460.5614 257.7162,-467.5613"/>
</g>
<!-- ZcashFoundation/zebra#5188 -->
<g id="node9" class="node closed">
<title>ZcashFoundation/zebra#5188</title>
<g id="a_node9"><a xlink:href="https://github.com/ZcashFoundation/zebra/issues/5188" xlink:title="ZcashFoundation/zebra#5188&#10;Reduce continuous&#10;deployment instance group&#10;size to 1" target="_blank">
<polygon fill="#fad8c7" stroke="#000000" points="500,-413 268,-413 268,-345 500,-345 500,-413"/>
<text text-anchor="middle" x="384" y="-397.8" font-family="Times,serif" font-size="14.00" fill="#000000">ZcashFoundation/zebra#5188</text>
<text text-anchor="middle" x="384" y="-382.8" font-family="Times,serif" font-size="14.00" fill="#000000">Reduce continuous</text>
<text text-anchor="middle" x="384" y="-367.8" font-family="Times,serif" font-size="14.00" fill="#000000">deployment instance group</text>
<text text-anchor="middle" x="384" y="-352.8" font-family="Times,serif" font-size="14.00" fill="#000000">size to 1</text>
</a>
</g>
</g>
<!-- ZcashFoundation/zebra#5153&#45;&gt;ZcashFoundation/zebra#5188 -->
<g id="edge4" class="edge">
<title>ZcashFoundation/zebra#5153&#45;&gt;ZcashFoundation/zebra#5188</title>
<path fill="none" stroke="#000000" d="M224.62,-428.96C238.05,-424.75 251.83,-420.43 265.39,-416.18"/>
<polygon fill="#000000" stroke="#000000" points="266.738,-419.4253 275.23,-413.09 264.6407,-412.7468 266.738,-419.4253"/>
</g>
<!-- ZcashFoundation/zebra#5393 -->
<g id="node10" class="node open">
<title>ZcashFoundation/zebra#5393</title>
<g id="a_node10"><a xlink:href="https://github.com/ZcashFoundation/zebra/pull/5393" xlink:title="ZcashFoundation/zebra#5393&#10;ci(sync): only run the&#10;`lightwalletd` full sync&#10;on the `main` branch" target="_blank">
<polygon fill="#c2e0c6" stroke="#000000" stroke-width="2" points="232,-669 0,-669 0,-665 -4,-665 -4,-661 0,-661 0,-609 -4,-609 -4,-605 0,-605 0,-601 232,-601 232,-669"/>
<polyline fill="none" stroke="#000000" stroke-width="2" points="0,-665 4,-665 4,-661 0,-661 "/>
<polyline fill="none" stroke="#000000" stroke-width="2" points="0,-609 4,-609 4,-605 0,-605 "/>
<text text-anchor="middle" x="116" y="-653.8" font-family="Times,serif" font-size="14.00" fill="#000000">ZcashFoundation/zebra#5393</text>
<text text-anchor="middle" x="116" y="-638.8" font-family="Times,serif" font-size="14.00" fill="#000000">ci(sync): only run the</text>
<text text-anchor="middle" x="116" y="-623.8" font-family="Times,serif" font-size="14.00" fill="#000000">`lightwalletd` full sync</text>
<text text-anchor="middle" x="116" y="-608.8" font-family="Times,serif" font-size="14.00" fill="#000000">on the `main` branch</text>
</a>
</g>
</g>
<!-- ZcashFoundation/zebra#5399 -->
<g id="node11" class="node open">
<title>ZcashFoundation/zebra#5399</title>
<g id="a_node11"><a xlink:href="https://github.com/ZcashFoundation/zebra/pull/5399" xlink:title="ZcashFoundation/zebra#5399&#10;fix(ci): Limit checkpoint&#10;and lwd full sync&#10;concurrency" target="_blank">
<polygon fill="#c2e0c6" stroke="#000000" points="500,-669 268,-669 268,-665 264,-665 264,-661 268,-661 268,-609 264,-609 264,-605 268,-605 268,-601 500,-601 500,-669"/>
<polyline fill="none" stroke="#000000" points="268,-665 272,-665 272,-661 268,-661 "/>
<polyline fill="none" stroke="#000000" points="268,-609 272,-609 272,-605 268,-605 "/>
<text text-anchor="middle" x="384" y="-653.8" font-family="Times,serif" font-size="14.00" fill="#000000">ZcashFoundation/zebra#5399</text>
<text text-anchor="middle" x="384" y="-638.8" font-family="Times,serif" font-size="14.00" fill="#000000">fix(ci): Limit checkpoint</text>
<text text-anchor="middle" x="384" y="-623.8" font-family="Times,serif" font-size="14.00" fill="#000000">and lwd full sync</text>
<text text-anchor="middle" x="384" y="-608.8" font-family="Times,serif" font-size="14.00" fill="#000000">concurrency</text>
</a>
</g>
</g>
<!-- ZcashFoundation/zebra#5393&#45;&gt;ZcashFoundation/zebra#5399 -->
<g id="edge5" class="edge">
<title>ZcashFoundation/zebra#5393&#45;&gt;ZcashFoundation/zebra#5399</title>
<path fill="none" stroke="#000000" d="M232.38,-635C240.71,-635 249.14,-635 257.53,-635"/>
<polygon fill="#000000" stroke="#000000" points="257.74,-638.5001 267.74,-635 257.74,-631.5001 257.74,-638.5001"/>
</g>
<!-- ZcashFoundation/zebra#4882 -->
<g id="node12" class="node open">
<title>ZcashFoundation/zebra#4882</title>
<g id="a_node12"><a xlink:href="https://github.com/ZcashFoundation/zebra/issues/4882" xlink:title="ZcashFoundation/zebra#4882&#10;Add zcash&#45;lightwalletd /&#10;Build images to required&#10;jobs" target="_blank">
<polygon fill="#c2e0c6" stroke="#000000" stroke-width="2" points="232,-327 0,-327 0,-259 232,-259 232,-327"/>
<text text-anchor="middle" x="116" y="-311.8" font-family="Times,serif" font-size="14.00" fill="#000000">ZcashFoundation/zebra#4882</text>
<text text-anchor="middle" x="116" y="-296.8" font-family="Times,serif" font-size="14.00" fill="#000000">Add zcash&#45;lightwalletd /</text>
<text text-anchor="middle" x="116" y="-281.8" font-family="Times,serif" font-size="14.00" fill="#000000">Build images to required</text>
<text text-anchor="middle" x="116" y="-266.8" font-family="Times,serif" font-size="14.00" fill="#000000">jobs</text>
</a>
</g>
</g>
<!-- ZcashFoundation/zebra#4882&#45;&gt;ZcashFoundation/zebra#4612 -->
<g id="edge6" class="edge">
<title>ZcashFoundation/zebra#4882&#45;&gt;ZcashFoundation/zebra#4612</title>
<path fill="none" stroke="#000000" d="M232.38,-293C240.71,-293 249.14,-293 257.53,-293"/>
<polygon fill="#000000" stroke="#000000" points="257.74,-296.5001 267.74,-293 257.74,-289.5001 257.74,-296.5001"/>
</g>
<!-- ZcashFoundation/zebra#5199 -->
<g id="node13" class="node open">
<title>ZcashFoundation/zebra#5199</title>
<g id="a_node13"><a xlink:href="https://github.com/ZcashFoundation/zebra/issues/5199" xlink:title="ZcashFoundation/zebra#5199&#10;Consider using `nextest`&#10;to run tests faster and&#10;reduce Google Cloud costs" target="_blank">
<polygon fill="#c2e0c6" stroke="#000000" stroke-width="2" points="232,-583 0,-583 0,-515 232,-515 232,-583"/>
<text text-anchor="middle" x="116" y="-567.8" font-family="Times,serif" font-size="14.00" fill="#000000">ZcashFoundation/zebra#5199</text>
<text text-anchor="middle" x="116" y="-552.8" font-family="Times,serif" font-size="14.00" fill="#000000">Consider using `nextest`</text>
<text text-anchor="middle" x="116" y="-537.8" font-family="Times,serif" font-size="14.00" fill="#000000">to run tests faster and</text>
<text text-anchor="middle" x="116" y="-522.8" font-family="Times,serif" font-size="14.00" fill="#000000">reduce Google Cloud costs</text>
</a>
</g>
</g>
<!-- ZcashFoundation/zebra#5199&#45;&gt;ZcashFoundation/zebra#5189 -->
<g id="edge7" class="edge">
<title>ZcashFoundation/zebra#5199&#45;&gt;ZcashFoundation/zebra#5189</title>
<path fill="none" stroke="#000000" d="M232.38,-548.13C240.71,-548.07 249.14,-548.01 257.53,-547.94"/>
<polygon fill="#000000" stroke="#000000" points="257.7643,-551.4386 267.74,-547.87 257.7162,-544.4387 257.7643,-551.4386"/>
</g>
<!-- ZcashFoundation/zebra#4554 -->
<g id="node14" class="node open">
<title>ZcashFoundation/zebra#4554</title>
<g id="a_node14"><a xlink:href="https://github.com/ZcashFoundation/zebra/issues/4554" xlink:title="ZcashFoundation/zebra#4554&#10;benchmarks: surface&#10;zebrad mainnet sync time&#10;in CI" target="_blank">
<polygon fill="#c2e0c6" stroke="#000000" stroke-width="2" points="232,-755 0,-755 0,-687 232,-687 232,-755"/>
<text text-anchor="middle" x="116" y="-739.8" font-family="Times,serif" font-size="14.00" fill="#000000">ZcashFoundation/zebra#4554</text>
<text text-anchor="middle" x="116" y="-724.8" font-family="Times,serif" font-size="14.00" fill="#000000">benchmarks: surface</text>
<text text-anchor="middle" x="116" y="-709.8" font-family="Times,serif" font-size="14.00" fill="#000000">zebrad mainnet sync time</text>
<text text-anchor="middle" x="116" y="-694.8" font-family="Times,serif" font-size="14.00" fill="#000000">in CI</text>
</a>
</g>
</g>
</g>
</svg>
