<?xml version="1.0" encoding="UTF-8" standalone="no"?>
<?xml-stylesheet href="zcash-dag.css" type="text/css"?>
<!DOCTYPE svg PUBLIC "-//W3C//DTD SVG 1.1//EN"
 "http://www.w3.org/Graphics/SVG/1.1/DTD/svg11.dtd">
<!-- Generated by graphviz version 2.40.1 (20161225.0304)
 -->
<!-- Pages: 1 -->
<svg width="540pt" height="948pt"
 viewBox="0.00 0.00 540.00 947.50" xmlns="http://www.w3.org/2000/svg" xmlns:xlink="http://www.w3.org/1999/xlink">
<g id="graph0" class="graph" transform="scale(1 1) rotate(0) translate(4 943.5)">
<polygon fill="#ffffff" stroke="transparent" points="-4,4 -4,-943.5 536,-943.5 536,4 -4,4"/>
<g id="clust1" class="cluster">
<title>cluster_0</title>
<polygon fill="none" stroke="#0000ff" points="8,-303.5 8,-812.5 256,-812.5 256,-303.5 8,-303.5"/>
<text text-anchor="middle" x="132" y="-797.3" font-family="Times,serif" font-size="14.00" fill="#000000">Epic: Zebra Release Candidates</text>
</g>
<g id="clust2" class="cluster">
<title>cluster_1</title>
<polygon fill="none" stroke="#0000ff" points="276,-62.5 276,-931.5 524,-931.5 524,-62.5 276,-62.5"/>
<text text-anchor="middle" x="400" y="-916.3" font-family="Times,serif" font-size="14.00" fill="#000000">DevOps Ticket Tracker</text>
</g>
<g id="clust3" class="cluster">
<title>cluster_2</title>
<polygon fill="none" stroke="#0000ff" points="0,0 0,-939.5 532,-939.5 532,0 0,0"/>
<text text-anchor="middle" x="266" y="-924.3" font-family="Times,serif" font-size="14.00" fill="#000000">Epic: Zebra as a lightwalletd backend</text>
</g>
<!-- ZcashFoundation/zebra#1615 -->
<g id="node1" class="node open">
<title>ZcashFoundation/zebra#1615</title>
<g id="a_node1"><a xlink:href="https://github.com/ZcashFoundation/zebra/issues/1615" xlink:title="ZcashFoundation/zebra#1615&#10;Zebra release candidate&#10;binaries should be linked&#10;from ZFND website" target="_blank">
<polygon fill="#a7c2aa" stroke="#000000" points="248,-781.5 16,-781.5 16,-713.5 248,-713.5 248,-781.5"/>
<text text-anchor="middle" x="132" y="-766.3" font-family="Times,serif" font-size="14.00" fill="#000000">ZcashFoundation/zebra#1615</text>
<text text-anchor="middle" x="132" y="-751.3" font-family="Times,serif" font-size="14.00" fill="#000000">Zebra release candidate</text>
<text text-anchor="middle" x="132" y="-736.3" font-family="Times,serif" font-size="14.00" fill="#000000">binaries should be linked</text>
<text text-anchor="middle" x="132" y="-721.3" font-family="Times,serif" font-size="14.00" fill="#000000">from ZFND website</text>
</a>
</g>
</g>
<!-- ZcashFoundation/zebra#3050 -->
<g id="node2" class="node open">
<title>ZcashFoundation/zebra#3050</title>
<g id="a_node2"><a xlink:href="https://github.com/ZcashFoundation/zebra/issues/3050" xlink:title="ZcashFoundation/zebra#3050&#10;Tag Zebra 1.0.0&#45;rc.0&#10;stable release candidate" target="_blank">
<polygon fill="#a7c2aa" stroke="#000000" points="248,-609 16,-609 16,-556 248,-556 248,-609"/>
<text text-anchor="middle" x="132" y="-593.8" font-family="Times,serif" font-size="14.00" fill="#000000">ZcashFoundation/zebra#3050</text>
<text text-anchor="middle" x="132" y="-578.8" font-family="Times,serif" font-size="14.00" fill="#000000">Tag Zebra 1.0.0&#45;rc.0</text>
<text text-anchor="middle" x="132" y="-563.8" font-family="Times,serif" font-size="14.00" fill="#000000">stable release candidate</text>
</a>
</g>
</g>
<!-- ZcashFoundation/zebra#4955 -->
<g id="node11" class="node open">
<title>ZcashFoundation/zebra#4955</title>
<g id="a_node11"><a xlink:href="https://github.com/ZcashFoundation/zebra/issues/4955" xlink:title="ZcashFoundation/zebra#4955&#10;Make long&#45;running test&#10;names match workflow&#10;names" target="_blank">
<polygon fill="#c2e0c6" stroke="#000000" points="516,-498.5 284,-498.5 284,-430.5 516,-430.5 516,-498.5"/>
<text text-anchor="middle" x="400" y="-483.3" font-family="Times,serif" font-size="14.00" fill="#000000">ZcashFoundation/zebra#4955</text>
<text text-anchor="middle" x="400" y="-468.3" font-family="Times,serif" font-size="14.00" fill="#000000">Make long&#45;running test</text>
<text text-anchor="middle" x="400" y="-453.3" font-family="Times,serif" font-size="14.00" fill="#000000">names match workflow</text>
<text text-anchor="middle" x="400" y="-438.3" font-family="Times,serif" font-size="14.00" fill="#000000">names</text>
</a>
</g>
</g>
<!-- ZcashFoundation/zebra#3050&#45;&gt;ZcashFoundation/zebra#4955 -->
<g id="edge1" class="edge">
<title>ZcashFoundation/zebra#3050&#45;&gt;ZcashFoundation/zebra#4955</title>
<path fill="none" stroke="#000000" d="M242.37,-555.94C247.17,-553.11 251.74,-549.97 256,-546.5 270.79,-534.43 261.57,-520.99 276,-508.5 277.55,-507.15 279.15,-505.85 280.79,-504.58"/>
<polygon fill="#000000" stroke="#000000" points="283.1403,-507.2045 289.28,-498.57 279.0958,-501.4911 283.1403,-507.2045"/>
</g>
<!-- ZcashFoundation/zebra#4992 -->
<g id="node12" class="node open">
<title>ZcashFoundation/zebra#4992</title>
<g id="a_node12"><a xlink:href="https://github.com/ZcashFoundation/zebra/issues/4992" xlink:title="ZcashFoundation/zebra#4992&#10;Run cached state CI on&#10;testnet" target="_blank">
<polygon fill="#c2e0c6" stroke="#000000" points="516,-570 284,-570 284,-517 516,-517 516,-570"/>
<text text-anchor="middle" x="400" y="-554.8" font-family="Times,serif" font-size="14.00" fill="#000000">ZcashFoundation/zebra#4992</text>
<text text-anchor="middle" x="400" y="-539.8" font-family="Times,serif" font-size="14.00" fill="#000000">Run cached state CI on</text>
<text text-anchor="middle" x="400" y="-524.8" font-family="Times,serif" font-size="14.00" fill="#000000">testnet</text>
</a>
</g>
</g>
<!-- ZcashFoundation/zebra#3050&#45;&gt;ZcashFoundation/zebra#4992 -->
<g id="edge2" class="edge">
<title>ZcashFoundation/zebra#3050&#45;&gt;ZcashFoundation/zebra#4992</title>
<path fill="none" stroke="#000000" d="M248.38,-565.56C256.81,-564.34 265.33,-563.1 273.81,-561.86"/>
<polygon fill="#000000" stroke="#000000" points="274.3458,-565.319 283.74,-560.42 273.3412,-558.3915 274.3458,-565.319"/>
</g>
<!-- ZcashFoundation/zebra#4967 -->
<g id="node17" class="node open">
<title>ZcashFoundation/zebra#4967</title>
<g id="a_node17"><a xlink:href="https://github.com/ZcashFoundation/zebra/pull/4967" xlink:title="ZcashFoundation/zebra#4967&#10;feat(rpc): add&#10;getblockhash rpc method" target="_blank">
<polygon fill="#a7c2aa" stroke="#000000" points="516,-53 284,-53 284,-49 280,-49 280,-45 284,-45 284,-8 280,-8 280,-4 284,-4 284,0 516,0 516,-53"/>
<polyline fill="none" stroke="#000000" points="284,-49 288,-49 288,-45 284,-45 "/>
<polyline fill="none" stroke="#000000" points="284,-8 288,-8 288,-4 284,-4 "/>
<text text-anchor="middle" x="400" y="-37.8" font-family="Times,serif" font-size="14.00" fill="#000000">ZcashFoundation/zebra#4967</text>
<text text-anchor="middle" x="400" y="-22.8" font-family="Times,serif" font-size="14.00" fill="#000000">feat(rpc): add</text>
<text text-anchor="middle" x="400" y="-7.8" font-family="Times,serif" font-size="14.00" fill="#000000">getblockhash rpc method</text>
</a>
</g>
</g>
<!-- ZcashFoundation/zebra#3050&#45;&gt;ZcashFoundation/zebra#4967 -->
<g id="edge3" class="edge">
<title>ZcashFoundation/zebra#3050&#45;&gt;ZcashFoundation/zebra#4967</title>
<path fill="none" stroke="#000000" d="M247.3,-555.69C250.45,-552.91 253.37,-549.85 256,-546.5 289.47,-503.78 241.89,-100.71 276,-58.5 276.22,-58.224 276.45,-57.951 276.67,-57.68"/>
<polygon fill="#000000" stroke="#000000" points="279.2916,-60.0051 283.78,-50.408 274.2864,-55.1114 279.2916,-60.0051"/>
</g>
<!-- ZcashFoundation/zebra#4882 -->
<g id="node3" class="node open">
<title>ZcashFoundation/zebra#4882</title>
<g id="a_node3"><a xlink:href="https://github.com/ZcashFoundation/zebra/issues/4882" xlink:title="ZcashFoundation/zebra#4882&#10;Add zcash&#45;lightwalletd /&#10;Build images to required&#10;jobs" target="_blank">
<polygon fill="#c2e0c6" stroke="#000000" stroke-width="2" points="248,-695.5 16,-695.5 16,-627.5 248,-627.5 248,-695.5"/>
<text text-anchor="middle" x="132" y="-680.3" font-family="Times,serif" font-size="14.00" fill="#000000">ZcashFoundation/zebra#4882</text>
<text text-anchor="middle" x="132" y="-665.3" font-family="Times,serif" font-size="14.00" fill="#000000">Add zcash&#45;lightwalletd /</text>
<text text-anchor="middle" x="132" y="-650.3" font-family="Times,serif" font-size="14.00" fill="#000000">Build images to required</text>
<text text-anchor="middle" x="132" y="-635.3" font-family="Times,serif" font-size="14.00" fill="#000000">jobs</text>
</a>
</g>
</g>
<!-- ZcashFoundation/zebra#4612 -->
<g id="node10" class="node open">
<title>ZcashFoundation/zebra#4612</title>
<g id="a_node10"><a xlink:href="https://github.com/ZcashFoundation/zebra/issues/4612" xlink:title="ZcashFoundation/zebra#4612&#10;ci: Wait for lightwalletd&#10;image rebuild if it has&#10;changed" target="_blank">
<polygon fill="#c2e0c6" stroke="#000000" points="516,-828.5 284,-828.5 284,-760.5 516,-760.5 516,-828.5"/>
<text text-anchor="middle" x="400" y="-813.3" font-family="Times,serif" font-size="14.00" fill="#000000">ZcashFoundation/zebra#4612</text>
<text text-anchor="middle" x="400" y="-798.3" font-family="Times,serif" font-size="14.00" fill="#000000">ci: Wait for lightwalletd</text>
<text text-anchor="middle" x="400" y="-783.3" font-family="Times,serif" font-size="14.00" fill="#000000">image rebuild if it has</text>
<text text-anchor="middle" x="400" y="-768.3" font-family="Times,serif" font-size="14.00" fill="#000000">changed</text>
</a>
</g>
</g>
<!-- ZcashFoundation/zebra#4882&#45;&gt;ZcashFoundation/zebra#4612 -->
<g id="edge4" class="edge">
<title>ZcashFoundation/zebra#4882&#45;&gt;ZcashFoundation/zebra#4612</title>
<path fill="none" stroke="#000000" d="M245.07,-695.62C248.92,-698.36 252.59,-701.31 256,-704.5 272.59,-719.99 259.41,-736.01 276,-751.5 276.96,-752.4 277.94,-753.27 278.94,-754.13"/>
<polygon fill="#000000" stroke="#000000" points="276.897,-756.9755 286.93,-760.38 281.2099,-751.462 276.897,-756.9755"/>
</g>
<!-- ZcashFoundation/zebra#4529 -->
<g id="node4" class="node open">
<title>ZcashFoundation/zebra#4529</title>
<g id="a_node4"><a xlink:href="https://github.com/ZcashFoundation/zebra/issues/4529" xlink:title="ZcashFoundation/zebra#4529&#10;Make PRs from external&#10;repositories pass or skip&#10;CI jobs" target="_blank">
<polygon fill="#c2e0c6" stroke="#000000" stroke-width="2" points="248,-537.5 16,-537.5 16,-469.5 248,-469.5 248,-537.5"/>
<text text-anchor="middle" x="132" y="-522.3" font-family="Times,serif" font-size="14.00" fill="#000000">ZcashFoundation/zebra#4529</text>
<text text-anchor="middle" x="132" y="-507.3" font-family="Times,serif" font-size="14.00" fill="#000000">Make PRs from external</text>
<text text-anchor="middle" x="132" y="-492.3" font-family="Times,serif" font-size="14.00" fill="#000000">repositories pass or skip</text>
<text text-anchor="middle" x="132" y="-477.3" font-family="Times,serif" font-size="14.00" fill="#000000">CI jobs</text>
</a>
</g>
</g>
<!-- ZcashFoundation/zebra#5168 -->
<g id="node5" class="node open">
<title>ZcashFoundation/zebra#5168</title>
<g id="a_node5"><a xlink:href="https://github.com/ZcashFoundation/zebra/issues/5168" xlink:title="ZcashFoundation/zebra#5168&#10;Add Docker tests for&#10;default config and&#10;$ZEBRA_CONF_PATH" target="_blank">
<polygon fill="#c2e0c6" stroke="#000000" stroke-width="2" points="248,-451.5 16,-451.5 16,-383.5 248,-383.5 248,-451.5"/>
<text text-anchor="middle" x="132" y="-436.3" font-family="Times,serif" font-size="14.00" fill="#000000">ZcashFoundation/zebra#5168</text>
<text text-anchor="middle" x="132" y="-421.3" font-family="Times,serif" font-size="14.00" fill="#000000">Add Docker tests for</text>
<text text-anchor="middle" x="132" y="-406.3" font-family="Times,serif" font-size="14.00" fill="#000000">default config and</text>
<text text-anchor="middle" x="132" y="-391.3" font-family="Times,serif" font-size="14.00" fill="#000000">$ZEBRA_CONF_PATH</text>
</a>
</g>
</g>
<!-- ZcashFoundation/zebra#1638 -->
<g id="node6" class="node open">
<title>ZcashFoundation/zebra#1638</title>
<g id="a_node6"><a xlink:href="https://github.com/ZcashFoundation/zebra/issues/1638" xlink:title="ZcashFoundation/zebra#1638&#10;Create PGP keys amongst&#10;security@zfnd.org" target="_blank">
<polygon fill="#c2e0c6" stroke="#000000" stroke-width="2" points="248,-365 16,-365 16,-312 248,-312 248,-365"/>
<text text-anchor="middle" x="132" y="-349.8" font-family="Times,serif" font-size="14.00" fill="#000000">ZcashFoundation/zebra#1638</text>
<text text-anchor="middle" x="132" y="-334.8" font-family="Times,serif" font-size="14.00" fill="#000000">Create PGP keys amongst</text>
<text text-anchor="middle" x="132" y="-319.8" font-family="Times,serif" font-size="14.00" fill="#000000">security@zfnd.org</text>
</a>
</g>
</g>
<!-- ZcashFoundation/zebra#4953 -->
<g id="node7" class="node open">
<title>ZcashFoundation/zebra#4953</title>
<g id="a_node7"><a xlink:href="https://github.com/ZcashFoundation/zebra/issues/4953" xlink:title="ZcashFoundation/zebra#4953&#10;Document how to use&#10;released Zebra binaries" target="_blank">
<polygon fill="#c2e0c6" stroke="#000000" stroke-width="2" points="516,-900 284,-900 284,-847 516,-847 516,-900"/>
<text text-anchor="middle" x="400" y="-884.8" font-family="Times,serif" font-size="14.00" fill="#000000">ZcashFoundation/zebra#4953</text>
<text text-anchor="middle" x="400" y="-869.8" font-family="Times,serif" font-size="14.00" fill="#000000">Document how to use</text>
<text text-anchor="middle" x="400" y="-854.8" font-family="Times,serif" font-size="14.00" fill="#000000">released Zebra binaries</text>
</a>
</g>
</g>
<!-- ZcashFoundation/zebra#4953&#45;&gt;ZcashFoundation/zebra#1615 -->
<g id="edge5" class="edge">
<title>ZcashFoundation/zebra#4953&#45;&gt;ZcashFoundation/zebra#1615</title>
<path fill="none" stroke="#000000" d="M299.64,-846.97C291.54,-844.05 283.57,-840.89 276,-837.5 245.41,-823.82 213.6,-804.55 187.68,-787.35"/>
<polygon fill="#000000" stroke="#000000" points="189.3813,-784.2763 179.13,-781.6 185.4748,-790.0849 189.3813,-784.2763"/>
</g>
<!-- ZcashFoundation/zebra#4954 -->
<g id="node8" class="node open">
<title>ZcashFoundation/zebra#4954</title>
<g id="a_node8"><a xlink:href="https://github.com/ZcashFoundation/zebra/issues/4954" xlink:title="ZcashFoundation/zebra#4954&#10;Update release checklist&#10;PR template for the&#10;release candidate series" target="_blank">
<polygon fill="#c2e0c6" stroke="#000000" stroke-width="2" points="516,-656.5 284,-656.5 284,-588.5 516,-588.5 516,-656.5"/>
<text text-anchor="middle" x="400" y="-641.3" font-family="Times,serif" font-size="14.00" fill="#000000">ZcashFoundation/zebra#4954</text>
<text text-anchor="middle" x="400" y="-626.3" font-family="Times,serif" font-size="14.00" fill="#000000">Update release checklist</text>
<text text-anchor="middle" x="400" y="-611.3" font-family="Times,serif" font-size="14.00" fill="#000000">PR template for the</text>
<text text-anchor="middle" x="400" y="-596.3" font-family="Times,serif" font-size="14.00" fill="#000000">release candidate series</text>
</a>
</g>
</g>
<!-- ZcashFoundation/zebra#4954&#45;&gt;ZcashFoundation/zebra#3050 -->
<g id="edge6" class="edge">
<title>ZcashFoundation/zebra#4954&#45;&gt;ZcashFoundation/zebra#3050</title>
<path fill="none" stroke="#000000" d="M283.74,-605.15C275.31,-603.89 266.79,-602.62 258.31,-601.35"/>
<polygon fill="#000000" stroke="#000000" points="258.7867,-597.8825 248.38,-599.87 257.7548,-604.806 258.7867,-597.8825"/>
</g>
<!-- ZcashFoundation/zebra#4412 -->
<g id="node9" class="node open">
<title>ZcashFoundation/zebra#4412</title>
<g id="a_node9"><a xlink:href="https://github.com/ZcashFoundation/zebra/issues/4412" xlink:title="ZcashFoundation/zebra#4412&#10;Automate pinning CI&#10;dependencies to specific&#10;commit hashes" target="_blank">
<polygon fill="#c2e0c6" stroke="#000000" stroke-width="2" points="516,-742.5 284,-742.5 284,-674.5 516,-674.5 516,-742.5"/>
<text text-anchor="middle" x="400" y="-727.3" font-family="Times,serif" font-size="14.00" fill="#000000">ZcashFoundation/zebra#4412</text>
<text text-anchor="middle" x="400" y="-712.3" font-family="Times,serif" font-size="14.00" fill="#000000">Automate pinning CI</text>
<text text-anchor="middle" x="400" y="-697.3" font-family="Times,serif" font-size="14.00" fill="#000000">dependencies to specific</text>
<text text-anchor="middle" x="400" y="-682.3" font-family="Times,serif" font-size="14.00" fill="#000000">commit hashes</text>
</a>
</g>
</g>
<!-- ZcashFoundation/zebra#4554 -->
<g id="node13" class="node open">
<title>ZcashFoundation/zebra#4554</title>
<g id="a_node13"><a xlink:href="https://github.com/ZcashFoundation/zebra/issues/4554" xlink:title="ZcashFoundation/zebra#4554&#10;benchmarks: surface&#10;zebrad mainnet sync time&#10;in CI" target="_blank">
<polygon fill="#c2e0c6" stroke="#000000" stroke-width="2" points="516,-412.5 284,-412.5 284,-344.5 516,-344.5 516,-412.5"/>
<text text-anchor="middle" x="400" y="-397.3" font-family="Times,serif" font-size="14.00" fill="#000000">ZcashFoundation/zebra#4554</text>
<text text-anchor="middle" x="400" y="-382.3" font-family="Times,serif" font-size="14.00" fill="#000000">benchmarks: surface</text>
<text text-anchor="middle" x="400" y="-367.3" font-family="Times,serif" font-size="14.00" fill="#000000">zebrad mainnet sync time</text>
<text text-anchor="middle" x="400" y="-352.3" font-family="Times,serif" font-size="14.00" fill="#000000">in CI</text>
</a>
</g>
</g>
<!-- ZcashFoundation/zebra#4956 -->
<g id="node14" class="node open">
<title>ZcashFoundation/zebra#4956</title>
<g id="a_node14"><a xlink:href="https://github.com/ZcashFoundation/zebra/issues/4956" xlink:title="ZcashFoundation/zebra#4956&#10;Make file locations&#10;appear in zebrad Docker&#10;error messages" target="_blank">
<polygon fill="#c2e0c6" stroke="#000000" stroke-width="2" points="516,-326.5 284,-326.5 284,-258.5 516,-258.5 516,-326.5"/>
<text text-anchor="middle" x="400" y="-311.3" font-family="Times,serif" font-size="14.00" fill="#000000">ZcashFoundation/zebra#4956</text>
<text text-anchor="middle" x="400" y="-296.3" font-family="Times,serif" font-size="14.00" fill="#000000">Make file locations</text>
<text text-anchor="middle" x="400" y="-281.3" font-family="Times,serif" font-size="14.00" fill="#000000">appear in zebrad Docker</text>
<text text-anchor="middle" x="400" y="-266.3" font-family="Times,serif" font-size="14.00" fill="#000000">error messages</text>
</a>
</g>
</g>
<!-- ZcashFoundation/zebra#4976 -->
<g id="node15" class="node open">
<title>ZcashFoundation/zebra#4976</title>
<g id="a_node15"><a xlink:href="https://github.com/ZcashFoundation/zebra/issues/4976" xlink:title="ZcashFoundation/zebra#4976&#10;Move continuous&#10;deployment to another&#10;Google Cloud region" target="_blank">
<polygon fill="#c2e0c6" stroke="#000000" stroke-width="2" points="516,-240.5 284,-240.5 284,-172.5 516,-172.5 516,-240.5"/>
<text text-anchor="middle" x="400" y="-225.3" font-family="Times,serif" font-size="14.00" fill="#000000">ZcashFoundation/zebra#4976</text>
<text text-anchor="middle" x="400" y="-210.3" font-family="Times,serif" font-size="14.00" fill="#000000">Move continuous</text>
<text text-anchor="middle" x="400" y="-195.3" font-family="Times,serif" font-size="14.00" fill="#000000">deployment to another</text>
<text text-anchor="middle" x="400" y="-180.3" font-family="Times,serif" font-size="14.00" fill="#000000">Google Cloud region</text>
</a>
</g>
</g>
<!-- ZcashFoundation/zebra#4946 -->
<g id="node16" class="node open">
<title>ZcashFoundation/zebra#4946</title>
<g id="a_node16"><a xlink:href="https://github.com/ZcashFoundation/zebra/issues/4946" xlink:title="ZcashFoundation/zebra#4946&#10;Managed instance groups&#10;deployed with continuous&#10;deployment can&#39;t scale&#10;beyond 1 instance" target="_blank">
<polygon fill="#c2e0c6" stroke="#000000" stroke-width="2" points="516,-154 284,-154 284,-71 516,-71 516,-154"/>
<text text-anchor="middle" x="400" y="-138.8" font-family="Times,serif" font-size="14.00" fill="#000000">ZcashFoundation/zebra#4946</text>
<text text-anchor="middle" x="400" y="-123.8" font-family="Times,serif" font-size="14.00" fill="#000000">Managed instance groups</text>
<text text-anchor="middle" x="400" y="-108.8" font-family="Times,serif" font-size="14.00" fill="#000000">deployed with continuous</text>
<text text-anchor="middle" x="400" y="-93.8" font-family="Times,serif" font-size="14.00" fill="#000000">deployment can&#39;t scale</text>
<text text-anchor="middle" x="400" y="-78.8" font-family="Times,serif" font-size="14.00" fill="#000000">beyond 1 instance</text>
</a>
</g>
</g>
</g>
</svg>
