<?xml version="1.0" encoding="UTF-8" standalone="no"?>
<?xml-stylesheet href="zcash-dag.css" type="text/css"?>
<!DOCTYPE svg PUBLIC "-//W3C//DTD SVG 1.1//EN"
 "http://www.w3.org/Graphics/SVG/1.1/DTD/svg11.dtd">
<!-- Generated by graphviz version 2.40.1 (20161225.0304)
 -->
<!-- Pages: 1 -->
<svg width="792pt" height="1333pt"
 viewBox="0.00 0.00 792.00 1333.00" xmlns="http://www.w3.org/2000/svg" xmlns:xlink="http://www.w3.org/1999/xlink">
<g id="graph0" class="graph" transform="scale(1 1) rotate(0) translate(4 1329)">
<polygon fill="#ffffff" stroke="transparent" points="-4,4 -4,-1329 788,-1329 788,4 -4,4"/>
<g id="clust1" class="cluster">
<title>cluster_1</title>
<polygon fill="none" stroke="#0000ff" points="8,-479 8,-1317 524,-1317 524,-479 8,-479"/>
<text text-anchor="middle" x="266" y="-1301.8" font-family="Times,serif" font-size="14.00" fill="#000000">DevOps Ticket Tracker</text>
</g>
<g id="clust2" class="cluster">
<title>cluster_0</title>
<polygon fill="none" stroke="#0000ff" points="276,-48 276,-471 524,-471 524,-48 276,-48"/>
<text text-anchor="middle" x="400" y="-455.8" font-family="Times,serif" font-size="14.00" fill="#000000">Epic: Zebra Release Candidates</text>
</g>
<g id="clust3" class="cluster">
<title>cluster_2</title>
<polygon fill="none" stroke="#0000ff" points="0,0 0,-1325 784,-1325 784,0 0,0"/>
<text text-anchor="middle" x="392" y="-1309.8" font-family="Times,serif" font-size="14.00" fill="#000000">Epic: Zebra as a lightwalletd backend</text>
</g>
<!-- ZcashFoundation/zebra#4953 -->
<g id="node1" class="node open">
<title>ZcashFoundation/zebra#4953</title>
<g id="a_node1"><a xlink:href="https://github.com/ZcashFoundation/zebra/issues/4953" xlink:title="ZcashFoundation/zebra#4953&#10;Document how to use&#10;released Zebra binaries" target="_blank">
<polygon fill="#c2e0c6" stroke="#000000" stroke-width="2" points="248,-1214.5 16,-1214.5 16,-1161.5 248,-1161.5 248,-1214.5"/>
<text text-anchor="middle" x="132" y="-1199.3" font-family="Times,serif" font-size="14.00" fill="#000000">ZcashFoundation/zebra#4953</text>
<text text-anchor="middle" x="132" y="-1184.3" font-family="Times,serif" font-size="14.00" fill="#000000">Document how to use</text>
<text text-anchor="middle" x="132" y="-1169.3" font-family="Times,serif" font-size="14.00" fill="#000000">released Zebra binaries</text>
</a>
</g>
</g>
<!-- ZcashFoundation/zebra#1615 -->
<g id="node13" class="node open">
<title>ZcashFoundation/zebra#1615</title>
<g id="a_node13"><a xlink:href="https://github.com/ZcashFoundation/zebra/issues/1615" xlink:title="ZcashFoundation/zebra#1615&#10;Zebra release candidate&#10;binaries should be linked&#10;from ZFND website" target="_blank">
<polygon fill="#a7c2aa" stroke="#000000" points="516,-440 284,-440 284,-372 516,-372 516,-440"/>
<text text-anchor="middle" x="400" y="-424.8" font-family="Times,serif" font-size="14.00" fill="#000000">ZcashFoundation/zebra#1615</text>
<text text-anchor="middle" x="400" y="-409.8" font-family="Times,serif" font-size="14.00" fill="#000000">Zebra release candidate</text>
<text text-anchor="middle" x="400" y="-394.8" font-family="Times,serif" font-size="14.00" fill="#000000">binaries should be linked</text>
<text text-anchor="middle" x="400" y="-379.8" font-family="Times,serif" font-size="14.00" fill="#000000">from ZFND website</text>
</a>
</g>
</g>
<!-- ZcashFoundation/zebra#4953&#45;&gt;ZcashFoundation/zebra#1615 -->
<g id="edge6" class="edge">
<title>ZcashFoundation/zebra#4953&#45;&gt;ZcashFoundation/zebra#1615</title>
<path fill="none" stroke="#000000" d="M240.34,-1161.3C243.11,-1158.7 245.68,-1156 248,-1153 294.2,-1093.4 236.45,-539.19 276,-475 282.95,-463.72 292.45,-454.13 303.13,-446.02"/>
<polygon fill="#000000" stroke="#000000" points="305.3499,-448.7371 311.5,-440.11 301.3123,-443.0189 305.3499,-448.7371"/>
</g>
<!-- ZcashFoundation/zebra#1963 -->
<g id="node2" class="node open">
<title>ZcashFoundation/zebra#1963</title>
<g id="a_node2"><a xlink:href="https://github.com/ZcashFoundation/zebra/issues/1963" xlink:title="ZcashFoundation/zebra#1963&#10;Work out how to release&#10;Zebra binaries" target="_blank">
<polygon fill="#c2e0c6" stroke="#000000" stroke-width="2" points="248,-1285.5 16,-1285.5 16,-1232.5 248,-1232.5 248,-1285.5"/>
<text text-anchor="middle" x="132" y="-1270.3" font-family="Times,serif" font-size="14.00" fill="#000000">ZcashFoundation/zebra#1963</text>
<text text-anchor="middle" x="132" y="-1255.3" font-family="Times,serif" font-size="14.00" fill="#000000">Work out how to release</text>
<text text-anchor="middle" x="132" y="-1240.3" font-family="Times,serif" font-size="14.00" fill="#000000">Zebra binaries</text>
</a>
</g>
</g>
<!-- ZcashFoundation/zebra#4954 -->
<g id="node3" class="node open">
<title>ZcashFoundation/zebra#4954</title>
<g id="a_node3"><a xlink:href="https://github.com/ZcashFoundation/zebra/issues/4954" xlink:title="ZcashFoundation/zebra#4954&#10;Update release checklist&#10;PR template for the&#10;release candidate series" target="_blank">
<polygon fill="#c2e0c6" stroke="#000000" points="516,-878 284,-878 284,-810 516,-810 516,-878"/>
<text text-anchor="middle" x="400" y="-862.8" font-family="Times,serif" font-size="14.00" fill="#000000">ZcashFoundation/zebra#4954</text>
<text text-anchor="middle" x="400" y="-847.8" font-family="Times,serif" font-size="14.00" fill="#000000">Update release checklist</text>
<text text-anchor="middle" x="400" y="-832.8" font-family="Times,serif" font-size="14.00" fill="#000000">PR template for the</text>
<text text-anchor="middle" x="400" y="-817.8" font-family="Times,serif" font-size="14.00" fill="#000000">release candidate series</text>
</a>
</g>
</g>
<!-- ZcashFoundation/zebra#1963&#45;&gt;ZcashFoundation/zebra#4954 -->
<g id="edge1" class="edge">
<title>ZcashFoundation/zebra#1963&#45;&gt;ZcashFoundation/zebra#4954</title>
<path fill="none" stroke="#000000" d="M237.29,-1232.4C241.07,-1229.8 244.67,-1227.1 248,-1224 347.65,-1132.7 383.13,-967.29 394.79,-888.3"/>
<polygon fill="#000000" stroke="#000000" points="398.2835,-888.5919 396.22,-878.2 391.3526,-887.6106 398.2835,-888.5919"/>
</g>
<!-- ZcashFoundation/zebra#4412 -->
<g id="node4" class="node open">
<title>ZcashFoundation/zebra#4412</title>
<g id="a_node4"><a xlink:href="https://github.com/ZcashFoundation/zebra/issues/4412" xlink:title="ZcashFoundation/zebra#4412&#10;Automate pinning CI&#10;dependencies to specific&#10;commit hashes" target="_blank">
<polygon fill="#c2e0c6" stroke="#000000" points="516,-1286 284,-1286 284,-1218 516,-1218 516,-1286"/>
<text text-anchor="middle" x="400" y="-1270.8" font-family="Times,serif" font-size="14.00" fill="#000000">ZcashFoundation/zebra#4412</text>
<text text-anchor="middle" x="400" y="-1255.8" font-family="Times,serif" font-size="14.00" fill="#000000">Automate pinning CI</text>
<text text-anchor="middle" x="400" y="-1240.8" font-family="Times,serif" font-size="14.00" fill="#000000">dependencies to specific</text>
<text text-anchor="middle" x="400" y="-1225.8" font-family="Times,serif" font-size="14.00" fill="#000000">commit hashes</text>
</a>
</g>
</g>
<!-- ZcashFoundation/zebra#1963&#45;&gt;ZcashFoundation/zebra#4412 -->
<g id="edge2" class="edge">
<title>ZcashFoundation/zebra#1963&#45;&gt;ZcashFoundation/zebra#4412</title>
<path fill="none" stroke="#000000" d="M248.38,-1256C256.71,-1255.7 265.14,-1255.5 273.53,-1255.3"/>
<polygon fill="#000000" stroke="#000000" points="273.8471,-1258.7923 283.74,-1255 273.6415,-1251.7953 273.8471,-1258.7923"/>
</g>
<!-- ZcashFoundation/zebra#755 -->
<g id="node19" class="node closed">
<title>ZcashFoundation/zebra#755</title>
<g id="a_node19"><a xlink:href="https://github.com/ZcashFoundation/zebra/issues/755" xlink:title="ZcashFoundation/zebra#755&#10;Automate zebrad releases" target="_blank">
<polygon fill="#fad8c7" stroke="#000000" points="511.5,-38 288.5,-38 288.5,0 511.5,0 511.5,-38"/>
<text text-anchor="middle" x="400" y="-22.8" font-family="Times,serif" font-size="14.00" fill="#000000">ZcashFoundation/zebra#755</text>
<text text-anchor="middle" x="400" y="-7.8" font-family="Times,serif" font-size="14.00" fill="#000000">Automate zebrad releases</text>
</a>
</g>
</g>
<!-- ZcashFoundation/zebra#1963&#45;&gt;ZcashFoundation/zebra#755 -->
<g id="edge7" class="edge">
<title>ZcashFoundation/zebra#1963&#45;&gt;ZcashFoundation/zebra#755</title>
<path fill="none" stroke="#000000" d="M240.41,-1232.3C243.16,-1229.8 245.71,-1227 248,-1224 287.72,-1171.8 233.87,-94.247 276,-44 277.38,-42.359 278.83,-40.807 280.34,-39.34"/>
<polygon fill="#000000" stroke="#000000" points="282.945,-41.7303 288.46,-32.684 278.5074,-36.3166 282.945,-41.7303"/>
</g>
<!-- ZcashFoundation/zebra#3050 -->
<g id="node14" class="node open">
<title>ZcashFoundation/zebra#3050</title>
<g id="a_node14"><a xlink:href="https://github.com/ZcashFoundation/zebra/issues/3050" xlink:title="ZcashFoundation/zebra#3050&#10;Tag Zebra 1.0.0&#45;rc.0&#10;stable release candidate" target="_blank">
<polygon fill="#a7c2aa" stroke="#000000" points="516,-353.5 284,-353.5 284,-300.5 516,-300.5 516,-353.5"/>
<text text-anchor="middle" x="400" y="-338.3" font-family="Times,serif" font-size="14.00" fill="#000000">ZcashFoundation/zebra#3050</text>
<text text-anchor="middle" x="400" y="-323.3" font-family="Times,serif" font-size="14.00" fill="#000000">Tag Zebra 1.0.0&#45;rc.0</text>
<text text-anchor="middle" x="400" y="-308.3" font-family="Times,serif" font-size="14.00" fill="#000000">stable release candidate</text>
</a>
</g>
</g>
<!-- ZcashFoundation/zebra#4954&#45;&gt;ZcashFoundation/zebra#3050 -->
<g id="edge8" class="edge">
<title>ZcashFoundation/zebra#4954&#45;&gt;ZcashFoundation/zebra#3050</title>
<path fill="none" stroke="#000000" d="M382.94,-809.96C351.48,-745.05 285.39,-598.26 262,-466 254.73,-424.86 241.98,-408.67 262,-372 265.65,-365.31 270.37,-359.57 275.85,-354.65"/>
<polygon fill="#000000" stroke="#000000" points="278.0487,-357.3737 283.76,-348.45 273.7304,-351.8644 278.0487,-357.3737"/>
</g>
<!-- ZcashFoundation/zebra#4612 -->
<g id="node5" class="node open">
<title>ZcashFoundation/zebra#4612</title>
<g id="a_node5"><a xlink:href="https://github.com/ZcashFoundation/zebra/issues/4612" xlink:title="ZcashFoundation/zebra#4612&#10;ci: Wait for lightwalletd&#10;image rebuild if it has&#10;changed" target="_blank">
<polygon fill="#c2e0c6" stroke="#000000" points="248,-1072 16,-1072 16,-1004 248,-1004 248,-1072"/>
<text text-anchor="middle" x="132" y="-1056.8" font-family="Times,serif" font-size="14.00" fill="#000000">ZcashFoundation/zebra#4612</text>
<text text-anchor="middle" x="132" y="-1041.8" font-family="Times,serif" font-size="14.00" fill="#000000">ci: Wait for lightwalletd</text>
<text text-anchor="middle" x="132" y="-1026.8" font-family="Times,serif" font-size="14.00" fill="#000000">image rebuild if it has</text>
<text text-anchor="middle" x="132" y="-1011.8" font-family="Times,serif" font-size="14.00" fill="#000000">changed</text>
</a>
</g>
</g>
<!-- ZcashFoundation/zebra#4992 -->
<g id="node6" class="node open">
<title>ZcashFoundation/zebra#4992</title>
<g id="a_node6"><a xlink:href="https://github.com/ZcashFoundation/zebra/issues/4992" xlink:title="ZcashFoundation/zebra#4992&#10;Run cached state CI on&#10;testnet" target="_blank">
<polygon fill="#c2e0c6" stroke="#000000" points="248,-1143.5 16,-1143.5 16,-1090.5 248,-1090.5 248,-1143.5"/>
<text text-anchor="middle" x="132" y="-1128.3" font-family="Times,serif" font-size="14.00" fill="#000000">ZcashFoundation/zebra#4992</text>
<text text-anchor="middle" x="132" y="-1113.3" font-family="Times,serif" font-size="14.00" fill="#000000">Run cached state CI on</text>
<text text-anchor="middle" x="132" y="-1098.3" font-family="Times,serif" font-size="14.00" fill="#000000">testnet</text>
</a>
</g>
</g>
<!-- ZcashFoundation/zebra#4554 -->
<g id="node7" class="node open">
<title>ZcashFoundation/zebra#4554</title>
<g id="a_node7"><a xlink:href="https://github.com/ZcashFoundation/zebra/issues/4554" xlink:title="ZcashFoundation/zebra#4554&#10;benchmarks: surface&#10;zebrad mainnet sync time&#10;in CI" target="_blank">
<polygon fill="#c2e0c6" stroke="#000000" stroke-width="2" points="248,-986 16,-986 16,-918 248,-918 248,-986"/>
<text text-anchor="middle" x="132" y="-970.8" font-family="Times,serif" font-size="14.00" fill="#000000">ZcashFoundation/zebra#4554</text>
<text text-anchor="middle" x="132" y="-955.8" font-family="Times,serif" font-size="14.00" fill="#000000">benchmarks: surface</text>
<text text-anchor="middle" x="132" y="-940.8" font-family="Times,serif" font-size="14.00" fill="#000000">zebrad mainnet sync time</text>
<text text-anchor="middle" x="132" y="-925.8" font-family="Times,serif" font-size="14.00" fill="#000000">in CI</text>
</a>
</g>
</g>
<!-- ZcashFoundation/zebra#4955 -->
<g id="node8" class="node open">
<title>ZcashFoundation/zebra#4955</title>
<g id="a_node8"><a xlink:href="https://github.com/ZcashFoundation/zebra/issues/4955" xlink:title="ZcashFoundation/zebra#4955&#10;Make long&#45;running test&#10;names match workflow&#10;names" target="_blank">
<polygon fill="#c2e0c6" stroke="#000000" stroke-width="2" points="248,-900 16,-900 16,-832 248,-832 248,-900"/>
<text text-anchor="middle" x="132" y="-884.8" font-family="Times,serif" font-size="14.00" fill="#000000">ZcashFoundation/zebra#4955</text>
<text text-anchor="middle" x="132" y="-869.8" font-family="Times,serif" font-size="14.00" fill="#000000">Make long&#45;running test</text>
<text text-anchor="middle" x="132" y="-854.8" font-family="Times,serif" font-size="14.00" fill="#000000">names match workflow</text>
<text text-anchor="middle" x="132" y="-839.8" font-family="Times,serif" font-size="14.00" fill="#000000">names</text>
</a>
</g>
</g>
<!-- ZcashFoundation/zebra#4956 -->
<g id="node9" class="node open">
<title>ZcashFoundation/zebra#4956</title>
<g id="a_node9"><a xlink:href="https://github.com/ZcashFoundation/zebra/issues/4956" xlink:title="ZcashFoundation/zebra#4956&#10;Make file locations&#10;appear in zebrad Docker&#10;error messages" target="_blank">
<polygon fill="#c2e0c6" stroke="#000000" stroke-width="2" points="248,-814 16,-814 16,-746 248,-746 248,-814"/>
<text text-anchor="middle" x="132" y="-798.8" font-family="Times,serif" font-size="14.00" fill="#000000">ZcashFoundation/zebra#4956</text>
<text text-anchor="middle" x="132" y="-783.8" font-family="Times,serif" font-size="14.00" fill="#000000">Make file locations</text>
<text text-anchor="middle" x="132" y="-768.8" font-family="Times,serif" font-size="14.00" fill="#000000">appear in zebrad Docker</text>
<text text-anchor="middle" x="132" y="-753.8" font-family="Times,serif" font-size="14.00" fill="#000000">error messages</text>
</a>
</g>
</g>
<!-- ZcashFoundation/zebra#4976 -->
<g id="node10" class="node open">
<title>ZcashFoundation/zebra#4976</title>
<g id="a_node10"><a xlink:href="https://github.com/ZcashFoundation/zebra/issues/4976" xlink:title="ZcashFoundation/zebra#4976&#10;Move continuous&#10;deployment to another&#10;Google Cloud region" target="_blank">
<polygon fill="#c2e0c6" stroke="#000000" stroke-width="2" points="248,-728 16,-728 16,-660 248,-660 248,-728"/>
<text text-anchor="middle" x="132" y="-712.8" font-family="Times,serif" font-size="14.00" fill="#000000">ZcashFoundation/zebra#4976</text>
<text text-anchor="middle" x="132" y="-697.8" font-family="Times,serif" font-size="14.00" fill="#000000">Move continuous</text>
<text text-anchor="middle" x="132" y="-682.8" font-family="Times,serif" font-size="14.00" fill="#000000">deployment to another</text>
<text text-anchor="middle" x="132" y="-667.8" font-family="Times,serif" font-size="14.00" fill="#000000">Google Cloud region</text>
</a>
</g>
</g>
<!-- ZcashFoundation/zebra#4946 -->
<g id="node11" class="node open">
<title>ZcashFoundation/zebra#4946</title>
<g id="a_node11"><a xlink:href="https://github.com/ZcashFoundation/zebra/issues/4946" xlink:title="ZcashFoundation/zebra#4946&#10;Managed instance groups&#10;deployed with continuous&#10;deployment can&#39;t scale&#10;beyond 1 instance" target="_blank">
<polygon fill="#c2e0c6" stroke="#000000" stroke-width="2" points="248,-641.5 16,-641.5 16,-558.5 248,-558.5 248,-641.5"/>
<text text-anchor="middle" x="132" y="-626.3" font-family="Times,serif" font-size="14.00" fill="#000000">ZcashFoundation/zebra#4946</text>
<text text-anchor="middle" x="132" y="-611.3" font-family="Times,serif" font-size="14.00" fill="#000000">Managed instance groups</text>
<text text-anchor="middle" x="132" y="-596.3" font-family="Times,serif" font-size="14.00" fill="#000000">deployed with continuous</text>
<text text-anchor="middle" x="132" y="-581.3" font-family="Times,serif" font-size="14.00" fill="#000000">deployment can&#39;t scale</text>
<text text-anchor="middle" x="132" y="-566.3" font-family="Times,serif" font-size="14.00" fill="#000000">beyond 1 instance</text>
</a>
</g>
</g>
<!-- ZcashFoundation/zebra#4965 -->
<g id="node12" class="node open">
<title>ZcashFoundation/zebra#4965</title>
<g id="a_node12"><a xlink:href="https://github.com/ZcashFoundation/zebra/issues/4965" xlink:title="ZcashFoundation/zebra#4965&#10;ci: delete old cached&#10;disk images from GCP" target="_blank">
<polygon fill="#c2e0c6" stroke="#000000" stroke-width="2" points="248,-540.5 16,-540.5 16,-487.5 248,-487.5 248,-540.5"/>
<text text-anchor="middle" x="132" y="-525.3" font-family="Times,serif" font-size="14.00" fill="#000000">ZcashFoundation/zebra#4965</text>
<text text-anchor="middle" x="132" y="-510.3" font-family="Times,serif" font-size="14.00" fill="#000000">ci: delete old cached</text>
<text text-anchor="middle" x="132" y="-495.3" font-family="Times,serif" font-size="14.00" fill="#000000">disk images from GCP</text>
</a>
</g>
</g>
<!-- ZcashFoundation/zebra#3050&#45;&gt;ZcashFoundation/zebra#4992 -->
<g id="edge3" class="edge">
<title>ZcashFoundation/zebra#3050&#45;&gt;ZcashFoundation/zebra#4992</title>
<path fill="none" stroke="#000000" d="M284.69,-353.81C281.54,-356.59 278.62,-359.64 276,-363 226.82,-425.89 296.6,-1017.7 248,-1081 247.52,-1081.6 247.03,-1082.2 246.52,-1082.9"/>
<polygon fill="#000000" stroke="#000000" points="243.8896,-1080.5848 239.44,-1090.2 248.9146,-1085.4583 243.8896,-1080.5848"/>
</g>
<!-- ZcashFoundation/zebra#4967 -->
<g id="node18" class="node open">
<title>ZcashFoundation/zebra#4967</title>
<g id="a_node18"><a xlink:href="https://github.com/ZcashFoundation/zebra/pull/4967" xlink:title="ZcashFoundation/zebra#4967&#10;feat(rpc): add&#10;getblockhash rpc method" target="_blank">
<polygon fill="#a7c2aa" stroke="#000000" points="784,-353.5 552,-353.5 552,-349.5 548,-349.5 548,-345.5 552,-345.5 552,-308.5 548,-308.5 548,-304.5 552,-304.5 552,-300.5 784,-300.5 784,-353.5"/>
<polyline fill="none" stroke="#000000" points="552,-349.5 556,-349.5 556,-345.5 552,-345.5 "/>
<polyline fill="none" stroke="#000000" points="552,-308.5 556,-308.5 556,-304.5 552,-304.5 "/>
<text text-anchor="middle" x="668" y="-338.3" font-family="Times,serif" font-size="14.00" fill="#000000">ZcashFoundation/zebra#4967</text>
<text text-anchor="middle" x="668" y="-323.3" font-family="Times,serif" font-size="14.00" fill="#000000">feat(rpc): add</text>
<text text-anchor="middle" x="668" y="-308.3" font-family="Times,serif" font-size="14.00" fill="#000000">getblockhash rpc method</text>
</a>
</g>
</g>
<!-- ZcashFoundation/zebra#3050&#45;&gt;ZcashFoundation/zebra#4967 -->
<g id="edge4" class="edge">
<title>ZcashFoundation/zebra#3050&#45;&gt;ZcashFoundation/zebra#4967</title>
<path fill="none" stroke="#000000" d="M516.38,-327C524.71,-327 533.14,-327 541.53,-327"/>
<polygon fill="#000000" stroke="#000000" points="541.74,-330.5001 551.74,-327 541.74,-323.5001 541.74,-330.5001"/>
</g>
<!-- ZcashFoundation/zebra#4882 -->
<g id="node15" class="node open">
<title>ZcashFoundation/zebra#4882</title>
<g id="a_node15"><a xlink:href="https://github.com/ZcashFoundation/zebra/issues/4882" xlink:title="ZcashFoundation/zebra#4882&#10;Add zcash&#45;lightwalletd /&#10;Build images to required&#10;jobs" target="_blank">
<polygon fill="#c2e0c6" stroke="#000000" stroke-width="2" points="516,-282 284,-282 284,-214 516,-214 516,-282"/>
<text text-anchor="middle" x="400" y="-266.8" font-family="Times,serif" font-size="14.00" fill="#000000">ZcashFoundation/zebra#4882</text>
<text text-anchor="middle" x="400" y="-251.8" font-family="Times,serif" font-size="14.00" fill="#000000">Add zcash&#45;lightwalletd /</text>
<text text-anchor="middle" x="400" y="-236.8" font-family="Times,serif" font-size="14.00" fill="#000000">Build images to required</text>
<text text-anchor="middle" x="400" y="-221.8" font-family="Times,serif" font-size="14.00" fill="#000000">jobs</text>
</a>
</g>
</g>
<!-- ZcashFoundation/zebra#4882&#45;&gt;ZcashFoundation/zebra#4612 -->
<g id="edge5" class="edge">
<title>ZcashFoundation/zebra#4882&#45;&gt;ZcashFoundation/zebra#4612</title>
<path fill="none" stroke="#000000" d="M284.57,-282.32C281.45,-285.29 278.57,-288.51 276,-292 229.64,-354.94 293.92,-931.73 248,-995 247.72,-995.39 247.43,-995.78 247.14,-996.16"/>
<polygon fill="#000000" stroke="#000000" points="244.4743,-993.891 240.47,-1003.7 249.7173,-998.529 244.4743,-993.891"/>
</g>
<!-- ZcashFoundation/zebra#4529 -->
<g id="node16" class="node open">
<title>ZcashFoundation/zebra#4529</title>
<g id="a_node16"><a xlink:href="https://github.com/ZcashFoundation/zebra/issues/4529" xlink:title="ZcashFoundation/zebra#4529&#10;Make PRs from external&#10;repositories pass or skip&#10;CI jobs" target="_blank">
<polygon fill="#c2e0c6" stroke="#000000" stroke-width="2" points="516,-196 284,-196 284,-128 516,-128 516,-196"/>
<text text-anchor="middle" x="400" y="-180.8" font-family="Times,serif" font-size="14.00" fill="#000000">ZcashFoundation/zebra#4529</text>
<text text-anchor="middle" x="400" y="-165.8" font-family="Times,serif" font-size="14.00" fill="#000000">Make PRs from external</text>
<text text-anchor="middle" x="400" y="-150.8" font-family="Times,serif" font-size="14.00" fill="#000000">repositories pass or skip</text>
<text text-anchor="middle" x="400" y="-135.8" font-family="Times,serif" font-size="14.00" fill="#000000">CI jobs</text>
</a>
</g>
</g>
<!-- ZcashFoundation/zebra#1638 -->
<g id="node17" class="node open">
<title>ZcashFoundation/zebra#1638</title>
<g id="a_node17"><a xlink:href="https://github.com/ZcashFoundation/zebra/issues/1638" xlink:title="ZcashFoundation/zebra#1638&#10;Create PGP keys amongst&#10;security@zfnd.org" target="_blank">
<polygon fill="#c2e0c6" stroke="#000000" stroke-width="2" points="516,-109.5 284,-109.5 284,-56.5 516,-56.5 516,-109.5"/>
<text text-anchor="middle" x="400" y="-94.3" font-family="Times,serif" font-size="14.00" fill="#000000">ZcashFoundation/zebra#1638</text>
<text text-anchor="middle" x="400" y="-79.3" font-family="Times,serif" font-size="14.00" fill="#000000">Create PGP keys amongst</text>
<text text-anchor="middle" x="400" y="-64.3" font-family="Times,serif" font-size="14.00" fill="#000000">security@zfnd.org</text>
</a>
</g>
</g>
</g>
</svg>
