<?xml version="1.0" encoding="UTF-8" standalone="no"?>
<?xml-stylesheet href="zcash-dag.css" type="text/css"?>
<!DOCTYPE svg PUBLIC "-//W3C//DTD SVG 1.1//EN"
 "http://www.w3.org/Graphics/SVG/1.1/DTD/svg11.dtd">
<!-- Generated by graphviz version 2.40.1 (20161225.0304)
 -->
<!-- Pages: 1 -->
<svg width="508pt" height="320pt"
 viewBox="0.00 0.00 508.00 320.00" xmlns="http://www.w3.org/2000/svg" xmlns:xlink="http://www.w3.org/1999/xlink">
<g id="graph0" class="graph" transform="scale(1 1) rotate(0) translate(4 316)">
<polygon fill="#ffffff" stroke="transparent" points="-4,4 -4,-316 504,-316 504,4 -4,4"/>
<!-- ZcashFoundation/zebra#4412 -->
<g id="node1" class="node open">
<title>ZcashFoundation/zebra#4412</title>
<g id="a_node1"><a xlink:href="https://github.com/ZcashFoundation/zebra/issues/4412" xlink:title="ZcashFoundation/zebra#4412&#10;Automate pinning CI&#10;dependencies to specific&#10;commit hashes" target="_blank">
<polygon fill="#c2e0c6" stroke="#000000" stroke-width="2" points="232,-68 0,-68 0,0 232,0 232,-68"/>
<text text-anchor="middle" x="116" y="-52.8" font-family="Times,serif" font-size="14.00" fill="#000000">ZcashFoundation/zebra#4412</text>
<text text-anchor="middle" x="116" y="-37.8" font-family="Times,serif" font-size="14.00" fill="#000000">Automate pinning CI</text>
<text text-anchor="middle" x="116" y="-22.8" font-family="Times,serif" font-size="14.00" fill="#000000">dependencies to specific</text>
<text text-anchor="middle" x="116" y="-7.8" font-family="Times,serif" font-size="14.00" fill="#000000">commit hashes</text>
</a>
</g>
</g>
<!-- ZcashFoundation/zebra#5189 -->
<g id="node2" class="node closed">
<title>ZcashFoundation/zebra#5189</title>
<g id="a_node2"><a xlink:href="https://github.com/ZcashFoundation/zebra/issues/5189" xlink:title="ZcashFoundation/zebra#5189&#10;Run some docker tests on&#10;smaller instances" target="_blank">
<polygon fill="#fad8c7" stroke="#000000" points="500,-139.5 268,-139.5 268,-86.5 500,-86.5 500,-139.5"/>
<text text-anchor="middle" x="384" y="-124.3" font-family="Times,serif" font-size="14.00" fill="#000000">ZcashFoundation/zebra#5189</text>
<text text-anchor="middle" x="384" y="-109.3" font-family="Times,serif" font-size="14.00" fill="#000000">Run some docker tests on</text>
<text text-anchor="middle" x="384" y="-94.3" font-family="Times,serif" font-size="14.00" fill="#000000">smaller instances</text>
</a>
</g>
</g>
<!-- ZcashFoundation/zebra#5670 -->
<g id="node3" class="node open">
<title>ZcashFoundation/zebra#5670</title>
<g id="a_node3"><a xlink:href="https://github.com/ZcashFoundation/zebra/pull/5670" xlink:title="ZcashFoundation/zebra#5670&#10;fix(deploy): no dot name&#10;instance template disks&#10;to allow scaling" target="_blank">
<polygon fill="#c2e0c6" stroke="#000000" stroke-width="2" points="232,-226 0,-226 0,-222 -4,-222 -4,-218 0,-218 0,-166 -4,-166 -4,-162 0,-162 0,-158 232,-158 232,-226"/>
<polyline fill="none" stroke="#000000" stroke-width="2" points="0,-222 4,-222 4,-218 0,-218 "/>
<polyline fill="none" stroke="#000000" stroke-width="2" points="0,-166 4,-166 4,-162 0,-162 "/>
<text text-anchor="middle" x="116" y="-210.8" font-family="Times,serif" font-size="14.00" fill="#000000">ZcashFoundation/zebra#5670</text>
<text text-anchor="middle" x="116" y="-195.8" font-family="Times,serif" font-size="14.00" fill="#000000">fix(deploy): no dot name</text>
<text text-anchor="middle" x="116" y="-180.8" font-family="Times,serif" font-size="14.00" fill="#000000">instance template disks</text>
<text text-anchor="middle" x="116" y="-165.8" font-family="Times,serif" font-size="14.00" fill="#000000">to allow scaling</text>
</a>
</g>
</g>
<!-- ZcashFoundation/zebra#5671 -->
<g id="node4" class="node open">
<title>ZcashFoundation/zebra#5671</title>
<g id="a_node4"><a xlink:href="https://github.com/ZcashFoundation/zebra/pull/5671" xlink:title="ZcashFoundation/zebra#5671&#10;fix(ssh): add a fixed SSH&#10;key to use with `gcloud`" target="_blank">
<polygon fill="#c2e0c6" stroke="#000000" points="500,-218.5 268,-218.5 268,-214.5 264,-214.5 264,-210.5 268,-210.5 268,-173.5 264,-173.5 264,-169.5 268,-169.5 268,-165.5 500,-165.5 500,-218.5"/>
<polyline fill="none" stroke="#000000" points="268,-214.5 272,-214.5 272,-210.5 268,-210.5 "/>
<polyline fill="none" stroke="#000000" points="268,-173.5 272,-173.5 272,-169.5 268,-169.5 "/>
<text text-anchor="middle" x="384" y="-203.3" font-family="Times,serif" font-size="14.00" fill="#000000">ZcashFoundation/zebra#5671</text>
<text text-anchor="middle" x="384" y="-188.3" font-family="Times,serif" font-size="14.00" fill="#000000">fix(ssh): add a fixed SSH</text>
<text text-anchor="middle" x="384" y="-173.3" font-family="Times,serif" font-size="14.00" fill="#000000">key to use with `gcloud`</text>
</a>
</g>
</g>
<!-- ZcashFoundation/zebra#5670&#45;&gt;ZcashFoundation/zebra#5671 -->
<g id="edge1" class="edge">
<title>ZcashFoundation/zebra#5670&#45;&gt;ZcashFoundation/zebra#5671</title>
<path fill="none" stroke="#000000" d="M232.38,-192C240.71,-192 249.14,-192 257.53,-192"/>
<polygon fill="#000000" stroke="#000000" points="257.74,-195.5001 267.74,-192 257.74,-188.5001 257.74,-195.5001"/>
</g>
<!-- ZcashFoundation/zebra#5199 -->
<g id="node5" class="node open">
<title>ZcashFoundation/zebra#5199</title>
<g id="a_node5"><a xlink:href="https://github.com/ZcashFoundation/zebra/issues/5199" xlink:title="ZcashFoundation/zebra#5199&#10;Consider using `nextest`&#10;to run tests faster" target="_blank">
<polygon fill="#c2e0c6" stroke="#000000" stroke-width="2" points="232,-139.5 0,-139.5 0,-86.5 232,-86.5 232,-139.5"/>
<text text-anchor="middle" x="116" y="-124.3" font-family="Times,serif" font-size="14.00" fill="#000000">ZcashFoundation/zebra#5199</text>
<text text-anchor="middle" x="116" y="-109.3" font-family="Times,serif" font-size="14.00" fill="#000000">Consider using `nextest`</text>
<text text-anchor="middle" x="116" y="-94.3" font-family="Times,serif" font-size="14.00" fill="#000000">to run tests faster</text>
</a>
</g>
</g>
<!-- ZcashFoundation/zebra#5199&#45;&gt;ZcashFoundation/zebra#5189 -->
<g id="edge2" class="edge">
<title>ZcashFoundation/zebra#5199&#45;&gt;ZcashFoundation/zebra#5189</title>
<path fill="none" stroke="#000000" d="M232.38,-113C240.71,-113 249.14,-113 257.53,-113"/>
<polygon fill="#000000" stroke="#000000" points="257.74,-116.5001 267.74,-113 257.74,-109.5001 257.74,-116.5001"/>
</g>
<!-- ZcashFoundation/zebra#4554 -->
<g id="node6" class="node open">
<title>ZcashFoundation/zebra#4554</title>
<g id="a_node6"><a xlink:href="https://github.com/ZcashFoundation/zebra/issues/4554" xlink:title="ZcashFoundation/zebra#4554&#10;benchmarks: surface&#10;zebrad mainnet sync time&#10;in CI" target="_blank">
<polygon fill="#c2e0c6" stroke="#000000" stroke-width="2" points="232,-312 0,-312 0,-244 232,-244 232,-312"/>
<text text-anchor="middle" x="116" y="-296.8" font-family="Times,serif" font-size="14.00" fill="#000000">ZcashFoundation/zebra#4554</text>
<text text-anchor="middle" x="116" y="-281.8" font-family="Times,serif" font-size="14.00" fill="#000000">benchmarks: surface</text>
<text text-anchor="middle" x="116" y="-266.8" font-family="Times,serif" font-size="14.00" fill="#000000">zebrad mainnet sync time</text>
<text text-anchor="middle" x="116" y="-251.8" font-family="Times,serif" font-size="14.00" fill="#000000">in CI</text>
</a>
</g>
</g>
</g>
</svg>
