<?xml version="1.0" encoding="UTF-8" standalone="no"?>
<?xml-stylesheet href="zcash-dag.css" type="text/css"?>
<!DOCTYPE svg PUBLIC "-//W3C//DTD SVG 1.1//EN"
 "http://www.w3.org/Graphics/SVG/1.1/DTD/svg11.dtd">
<!-- Generated by graphviz version 2.43.0 (0)
 -->
<!-- Pages: 1 -->
<svg width="506pt" height="492pt"
 viewBox="0.00 0.00 506.00 492.00" xmlns="http://www.w3.org/2000/svg" xmlns:xlink="http://www.w3.org/1999/xlink">
<g id="graph0" class="graph" transform="scale(1 1) rotate(0) translate(4 488)">
<polygon fill="white" stroke="transparent" points="-4,4 -4,-488 502,-488 502,4 -4,4"/>
<!-- ZcashFoundation/zebra#4554 -->
<g id="node1" class="node open">
<title>ZcashFoundation/zebra#4554</title>
<g id="a_node1"><a xlink:href="https://github.com/ZcashFoundation/zebra/issues/4554" xlink:title="ZcashFoundation/zebra#4554&#10;benchmarks: create a&#10;ticket if zebrad mainnet&#10;sync time increases&#10;significantly" target="_blank">
<polygon fill="#c2e0c6" stroke="black" stroke-width="2" points="231,-83 0,-83 0,0 231,0 231,-83"/>
<text text-anchor="middle" x="115.5" y="-67.8" font-family="Times,serif" font-size="14.00">ZcashFoundation/zebra#4554</text>
<text text-anchor="middle" x="115.5" y="-52.8" font-family="Times,serif" font-size="14.00">benchmarks: create a</text>
<text text-anchor="middle" x="115.5" y="-37.8" font-family="Times,serif" font-size="14.00">ticket if zebrad mainnet</text>
<text text-anchor="middle" x="115.5" y="-22.8" font-family="Times,serif" font-size="14.00">sync time increases</text>
<text text-anchor="middle" x="115.5" y="-7.8" font-family="Times,serif" font-size="14.00">significantly</text>
</a>
</g>
</g>
<!-- ZcashFoundation/zebra#7617 -->
<g id="node2" class="node open">
<title>ZcashFoundation/zebra#7617</title>
<g id="a_node2"><a xlink:href="https://github.com/ZcashFoundation/zebra/pull/7617" xlink:title="ZcashFoundation/zebra#7617&#10;ref(docker): use cache&#10;mounts for build cache" target="_blank">
<polygon fill="#c2e0c6" stroke="black" stroke-width="2" points="231,-154 0,-154 0,-150 -4,-150 -4,-146 0,-146 0,-109 -4,-109 -4,-105 0,-105 0,-101 231,-101 231,-154"/>
<polyline fill="none" stroke="black" stroke-width="2" points="0,-150 4,-150 4,-146 0,-146 "/>
<polyline fill="none" stroke="black" stroke-width="2" points="0,-109 4,-109 4,-105 0,-105 "/>
<text text-anchor="middle" x="115.5" y="-138.8" font-family="Times,serif" font-size="14.00">ZcashFoundation/zebra#7617</text>
<text text-anchor="middle" x="115.5" y="-123.8" font-family="Times,serif" font-size="14.00">ref(docker): use cache</text>
<text text-anchor="middle" x="115.5" y="-108.8" font-family="Times,serif" font-size="14.00">mounts for build cache</text>
</a>
</g>
</g>
<!-- ZcashFoundation/zebra#7764 -->
<g id="node3" class="node open">
<title>ZcashFoundation/zebra#7764</title>
<g id="a_node3"><a xlink:href="https://github.com/ZcashFoundation/zebra/issues/7764" xlink:title="ZcashFoundation/zebra#7764&#10;Publish next Zebra&#10;release: 1.4.0" target="_blank">
<polygon fill="#a7c2aa" stroke="black" points="498,-225 267,-225 267,-172 498,-172 498,-225"/>
<text text-anchor="middle" x="382.5" y="-209.8" font-family="Times,serif" font-size="14.00">ZcashFoundation/zebra#7764</text>
<text text-anchor="middle" x="382.5" y="-194.8" font-family="Times,serif" font-size="14.00">Publish next Zebra</text>
<text text-anchor="middle" x="382.5" y="-179.8" font-family="Times,serif" font-size="14.00">release: 1.4.0</text>
</a>
</g>
</g>
<!-- ZcashFoundation/zebra#6894 -->
<g id="node4" class="node open">
<title>ZcashFoundation/zebra#6894</title>
<g id="a_node4"><a xlink:href="https://github.com/ZcashFoundation/zebra/issues/6894" xlink:title="ZcashFoundation/zebra#6894&#10;Use cached state for&#10;continuous deployment&#10;instances" target="_blank">
<polygon fill="#c2e0c6" stroke="black" stroke-width="2" points="231,-311.5 0,-311.5 0,-243.5 231,-243.5 231,-311.5"/>
<text text-anchor="middle" x="115.5" y="-296.3" font-family="Times,serif" font-size="14.00">ZcashFoundation/zebra#6894</text>
<text text-anchor="middle" x="115.5" y="-281.3" font-family="Times,serif" font-size="14.00">Use cached state for</text>
<text text-anchor="middle" x="115.5" y="-266.3" font-family="Times,serif" font-size="14.00">continuous deployment</text>
<text text-anchor="middle" x="115.5" y="-251.3" font-family="Times,serif" font-size="14.00">instances</text>
</a>
</g>
</g>
<!-- ZcashFoundation/zebra#7415 -->
<g id="node5" class="node open">
<title>ZcashFoundation/zebra#7415</title>
<g id="a_node5"><a xlink:href="https://github.com/ZcashFoundation/zebra/issues/7415" xlink:title="ZcashFoundation/zebra#7415&#10;devops: Remove redundant&#10;tags in Docker Hub" target="_blank">
<polygon fill="#c2e0c6" stroke="black" stroke-width="2" points="231,-225 0,-225 0,-172 231,-172 231,-225"/>
<text text-anchor="middle" x="115.5" y="-209.8" font-family="Times,serif" font-size="14.00">ZcashFoundation/zebra#7415</text>
<text text-anchor="middle" x="115.5" y="-194.8" font-family="Times,serif" font-size="14.00">devops: Remove redundant</text>
<text text-anchor="middle" x="115.5" y="-179.8" font-family="Times,serif" font-size="14.00">tags in Docker Hub</text>
</a>
</g>
</g>
<!-- ZcashFoundation/zebra#7415&#45;&gt;ZcashFoundation/zebra#7764 -->
<g id="edge1" class="edge">
<title>ZcashFoundation/zebra#7415&#45;&gt;ZcashFoundation/zebra#7764</title>
<path fill="none" stroke="black" d="M231.19,-198.5C239.55,-198.5 247.99,-198.5 256.4,-198.5"/>
<polygon fill="black" stroke="black" points="256.63,-202 266.63,-198.5 256.63,-195 256.63,-202"/>
</g>
<!-- ZcashFoundation/zebra#7558 -->
<g id="node6" class="node open">
<title>ZcashFoundation/zebra#7558</title>
<g id="a_node6"><a xlink:href="https://github.com/ZcashFoundation/zebra/issues/7558" xlink:title="ZcashFoundation/zebra#7558&#10;dev docs: Document how to&#10;fix cached state issues" target="_blank">
<polygon fill="#c2e0c6" stroke="black" stroke-width="2" points="231,-383 0,-383 0,-330 231,-330 231,-383"/>
<text text-anchor="middle" x="115.5" y="-367.8" font-family="Times,serif" font-size="14.00">ZcashFoundation/zebra#7558</text>
<text text-anchor="middle" x="115.5" y="-352.8" font-family="Times,serif" font-size="14.00">dev docs: Document how to</text>
<text text-anchor="middle" x="115.5" y="-337.8" font-family="Times,serif" font-size="14.00">fix cached state issues</text>
</a>
</g>
</g>
<!-- ZcashFoundation/zebra#4464 -->
<g id="node7" class="node open">
<title>ZcashFoundation/zebra#4464</title>
<g id="a_node7"><a xlink:href="https://github.com/ZcashFoundation/zebra/issues/4464" xlink:title="ZcashFoundation/zebra#4464&#10;ci: create documentation&#10;on how to run tests&#10;locally for development&#10;purposes" target="_blank">
<polygon fill="#c2e0c6" stroke="black" stroke-width="2" points="231,-484 0,-484 0,-401 231,-401 231,-484"/>
<text text-anchor="middle" x="115.5" y="-468.8" font-family="Times,serif" font-size="14.00">ZcashFoundation/zebra#4464</text>
<text text-anchor="middle" x="115.5" y="-453.8" font-family="Times,serif" font-size="14.00">ci: create documentation</text>
<text text-anchor="middle" x="115.5" y="-438.8" font-family="Times,serif" font-size="14.00">on how to run tests</text>
<text text-anchor="middle" x="115.5" y="-423.8" font-family="Times,serif" font-size="14.00">locally for development</text>
<text text-anchor="middle" x="115.5" y="-408.8" font-family="Times,serif" font-size="14.00">purposes</text>
</a>
</g>
</g>
</g>
</svg>
