<?xml version="1.0" encoding="UTF-8" standalone="no"?>
<?xml-stylesheet href="zcash-dag.css" type="text/css"?>
<!DOCTYPE svg PUBLIC "-//W3C//DTD SVG 1.1//EN"
 "http://www.w3.org/Graphics/SVG/1.1/DTD/svg11.dtd">
<!-- Generated by graphviz version 2.40.1 (20161225.0304)
 -->
<!-- Pages: 1 -->
<svg width="832pt" height="1239pt"
 viewBox="0.00 0.00 832.00 1239.00" xmlns="http://www.w3.org/2000/svg" xmlns:xlink="http://www.w3.org/1999/xlink">
<g id="graph0" class="graph" transform="scale(1 1) rotate(0) translate(4 1235)">
<polygon fill="#ffffff" stroke="transparent" points="-4,4 -4,-1235 828,-1235 828,4 -4,4"/>
<g id="clust1" class="cluster">
<title>cluster_1</title>
<polygon fill="none" stroke="#0000ff" points="0,-479 0,-1231 516,-1231 516,-479 0,-479"/>
<text text-anchor="middle" x="258" y="-1215.8" font-family="Times,serif" font-size="14.00" fill="#000000">DevOps Ticket Tracker</text>
</g>
<g id="clust2" class="cluster">
<title>cluster_0</title>
<polygon fill="none" stroke="#0000ff" points="268,-48 268,-471 516,-471 516,-48 268,-48"/>
<text text-anchor="middle" x="392" y="-455.8" font-family="Times,serif" font-size="14.00" fill="#000000">Epic: Zebra Release Candidates</text>
</g>
<g id="clust3" class="cluster">
<title>cluster_2</title>
<polygon fill="none" stroke="#0000ff" points="536,-195 536,-302 824,-302 824,-195 536,-195"/>
<text text-anchor="middle" x="680" y="-286.8" font-family="Times,serif" font-size="14.00" fill="#000000">Epic: Zebra as a lightwalletd backend</text>
</g>
<!-- ZcashFoundation/zebra#4953 -->
<g id="node1" class="node open">
<title>ZcashFoundation/zebra#4953</title>
<g id="a_node1"><a xlink:href="https://github.com/ZcashFoundation/zebra/issues/4953" xlink:title="ZcashFoundation/zebra#4953&#10;Document how to use&#10;released Zebra binaries" target="_blank">
<polygon fill="#c2e0c6" stroke="#000000" stroke-width="2" points="240,-1128.5 8,-1128.5 8,-1075.5 240,-1075.5 240,-1128.5"/>
<text text-anchor="middle" x="124" y="-1113.3" font-family="Times,serif" font-size="14.00" fill="#000000">ZcashFoundation/zebra#4953</text>
<text text-anchor="middle" x="124" y="-1098.3" font-family="Times,serif" font-size="14.00" fill="#000000">Document how to use</text>
<text text-anchor="middle" x="124" y="-1083.3" font-family="Times,serif" font-size="14.00" fill="#000000">released Zebra binaries</text>
</a>
</g>
</g>
<!-- ZcashFoundation/zebra#1615 -->
<g id="node12" class="node open">
<title>ZcashFoundation/zebra#1615</title>
<g id="a_node12"><a xlink:href="https://github.com/ZcashFoundation/zebra/issues/1615" xlink:title="ZcashFoundation/zebra#1615&#10;Zebra release candidate&#10;binaries should be linked&#10;from ZFND website" target="_blank">
<polygon fill="#a7c2aa" stroke="#000000" points="508,-440 276,-440 276,-372 508,-372 508,-440"/>
<text text-anchor="middle" x="392" y="-424.8" font-family="Times,serif" font-size="14.00" fill="#000000">ZcashFoundation/zebra#1615</text>
<text text-anchor="middle" x="392" y="-409.8" font-family="Times,serif" font-size="14.00" fill="#000000">Zebra release candidate</text>
<text text-anchor="middle" x="392" y="-394.8" font-family="Times,serif" font-size="14.00" fill="#000000">binaries should be linked</text>
<text text-anchor="middle" x="392" y="-379.8" font-family="Times,serif" font-size="14.00" fill="#000000">from ZFND website</text>
</a>
</g>
</g>
<!-- ZcashFoundation/zebra#4953&#45;&gt;ZcashFoundation/zebra#1615 -->
<g id="edge6" class="edge">
<title>ZcashFoundation/zebra#4953&#45;&gt;ZcashFoundation/zebra#1615</title>
<path fill="none" stroke="#000000" d="M232.32,-1075.2C235.1,-1072.7 237.67,-1070 240,-1067 280.51,-1015.1 233.29,-530.96 268,-475 274.98,-463.74 284.51,-454.16 295.2,-446.06"/>
<polygon fill="#000000" stroke="#000000" points="297.4199,-448.7771 303.57,-440.15 293.3823,-443.0589 297.4199,-448.7771"/>
</g>
<!-- ZcashFoundation/zebra#1963 -->
<g id="node2" class="node open">
<title>ZcashFoundation/zebra#1963</title>
<g id="a_node2"><a xlink:href="https://github.com/ZcashFoundation/zebra/issues/1963" xlink:title="ZcashFoundation/zebra#1963&#10;Work out how to release&#10;Zebra binaries" target="_blank">
<polygon fill="#c2e0c6" stroke="#000000" stroke-width="2" points="240,-1199.5 8,-1199.5 8,-1146.5 240,-1146.5 240,-1199.5"/>
<text text-anchor="middle" x="124" y="-1184.3" font-family="Times,serif" font-size="14.00" fill="#000000">ZcashFoundation/zebra#1963</text>
<text text-anchor="middle" x="124" y="-1169.3" font-family="Times,serif" font-size="14.00" fill="#000000">Work out how to release</text>
<text text-anchor="middle" x="124" y="-1154.3" font-family="Times,serif" font-size="14.00" fill="#000000">Zebra binaries</text>
</a>
</g>
</g>
<!-- ZcashFoundation/zebra#4954 -->
<g id="node3" class="node open">
<title>ZcashFoundation/zebra#4954</title>
<g id="a_node3"><a xlink:href="https://github.com/ZcashFoundation/zebra/issues/4954" xlink:title="ZcashFoundation/zebra#4954&#10;Update release checklist&#10;PR template for the&#10;release candidate series" target="_blank">
<polygon fill="#c2e0c6" stroke="#000000" points="508,-835 276,-835 276,-767 508,-767 508,-835"/>
<text text-anchor="middle" x="392" y="-819.8" font-family="Times,serif" font-size="14.00" fill="#000000">ZcashFoundation/zebra#4954</text>
<text text-anchor="middle" x="392" y="-804.8" font-family="Times,serif" font-size="14.00" fill="#000000">Update release checklist</text>
<text text-anchor="middle" x="392" y="-789.8" font-family="Times,serif" font-size="14.00" fill="#000000">PR template for the</text>
<text text-anchor="middle" x="392" y="-774.8" font-family="Times,serif" font-size="14.00" fill="#000000">release candidate series</text>
</a>
</g>
</g>
<!-- ZcashFoundation/zebra#1963&#45;&gt;ZcashFoundation/zebra#4954 -->
<g id="edge1" class="edge">
<title>ZcashFoundation/zebra#1963&#45;&gt;ZcashFoundation/zebra#4954</title>
<path fill="none" stroke="#000000" d="M228.86,-1146.4C232.78,-1143.8 236.52,-1141.1 240,-1138 329.68,-1059.3 369.26,-917.26 384.22,-845.32"/>
<polygon fill="#000000" stroke="#000000" points="387.7088,-845.7239 386.25,-835.23 380.8463,-844.3432 387.7088,-845.7239"/>
</g>
<!-- ZcashFoundation/zebra#4412 -->
<g id="node4" class="node open">
<title>ZcashFoundation/zebra#4412</title>
<g id="a_node4"><a xlink:href="https://github.com/ZcashFoundation/zebra/issues/4412" xlink:title="ZcashFoundation/zebra#4412&#10;Automate pinning CI&#10;dependencies to specific&#10;commit hashes" target="_blank">
<polygon fill="#c2e0c6" stroke="#000000" points="508,-1200 276,-1200 276,-1132 508,-1132 508,-1200"/>
<text text-anchor="middle" x="392" y="-1184.8" font-family="Times,serif" font-size="14.00" fill="#000000">ZcashFoundation/zebra#4412</text>
<text text-anchor="middle" x="392" y="-1169.8" font-family="Times,serif" font-size="14.00" fill="#000000">Automate pinning CI</text>
<text text-anchor="middle" x="392" y="-1154.8" font-family="Times,serif" font-size="14.00" fill="#000000">dependencies to specific</text>
<text text-anchor="middle" x="392" y="-1139.8" font-family="Times,serif" font-size="14.00" fill="#000000">commit hashes</text>
</a>
</g>
</g>
<!-- ZcashFoundation/zebra#1963&#45;&gt;ZcashFoundation/zebra#4412 -->
<g id="edge2" class="edge">
<title>ZcashFoundation/zebra#1963&#45;&gt;ZcashFoundation/zebra#4412</title>
<path fill="none" stroke="#000000" d="M240.38,-1170C248.71,-1169.7 257.14,-1169.5 265.53,-1169.3"/>
<polygon fill="#000000" stroke="#000000" points="265.8471,-1172.7923 275.74,-1169 265.6415,-1165.7953 265.8471,-1172.7923"/>
</g>
<!-- ZcashFoundation/zebra#755 -->
<g id="node19" class="node closed">
<title>ZcashFoundation/zebra#755</title>
<g id="a_node19"><a xlink:href="https://github.com/ZcashFoundation/zebra/issues/755" xlink:title="ZcashFoundation/zebra#755&#10;Automate zebrad releases" target="_blank">
<polygon fill="#fad8c7" stroke="#000000" points="503.5,-38 280.5,-38 280.5,0 503.5,0 503.5,-38"/>
<text text-anchor="middle" x="392" y="-22.8" font-family="Times,serif" font-size="14.00" fill="#000000">ZcashFoundation/zebra#755</text>
<text text-anchor="middle" x="392" y="-7.8" font-family="Times,serif" font-size="14.00" fill="#000000">Automate zebrad releases</text>
</a>
</g>
</g>
<!-- ZcashFoundation/zebra#1963&#45;&gt;ZcashFoundation/zebra#755 -->
<g id="edge7" class="edge">
<title>ZcashFoundation/zebra#1963&#45;&gt;ZcashFoundation/zebra#755</title>
<path fill="none" stroke="#000000" d="M232.41,-1146.3C235.16,-1143.8 237.7,-1141 240,-1138 313.75,-1041.3 189.79,-137.1 268,-44 269.38,-42.361 270.83,-40.81 272.35,-39.343"/>
<polygon fill="#000000" stroke="#000000" points="274.9517,-41.7363 280.47,-32.692 270.516,-36.321 274.9517,-41.7363"/>
</g>
<!-- ZcashFoundation/zebra#3050 -->
<g id="node13" class="node open">
<title>ZcashFoundation/zebra#3050</title>
<g id="a_node13"><a xlink:href="https://github.com/ZcashFoundation/zebra/issues/3050" xlink:title="ZcashFoundation/zebra#3050&#10;Tag Zebra 1.0.0&#45;rc.0&#10;stable release candidate" target="_blank">
<polygon fill="#a7c2aa" stroke="#000000" points="508,-353.5 276,-353.5 276,-300.5 508,-300.5 508,-353.5"/>
<text text-anchor="middle" x="392" y="-338.3" font-family="Times,serif" font-size="14.00" fill="#000000">ZcashFoundation/zebra#3050</text>
<text text-anchor="middle" x="392" y="-323.3" font-family="Times,serif" font-size="14.00" fill="#000000">Tag Zebra 1.0.0&#45;rc.0</text>
<text text-anchor="middle" x="392" y="-308.3" font-family="Times,serif" font-size="14.00" fill="#000000">stable release candidate</text>
</a>
</g>
</g>
<!-- ZcashFoundation/zebra#4954&#45;&gt;ZcashFoundation/zebra#3050 -->
<g id="edge8" class="edge">
<title>ZcashFoundation/zebra#4954&#45;&gt;ZcashFoundation/zebra#3050</title>
<path fill="none" stroke="#000000" d="M372.56,-766.73C340.28,-707.62 276.9,-581.7 254,-466 245.89,-425.02 233.98,-408.67 254,-372 257.65,-365.31 262.37,-359.57 267.85,-354.65"/>
<polygon fill="#000000" stroke="#000000" points="270.0487,-357.3737 275.76,-348.45 265.7304,-351.8644 270.0487,-357.3737"/>
</g>
<!-- ZcashFoundation/zebra#4992 -->
<g id="node5" class="node open">
<title>ZcashFoundation/zebra#4992</title>
<g id="a_node5"><a xlink:href="https://github.com/ZcashFoundation/zebra/issues/4992" xlink:title="ZcashFoundation/zebra#4992&#10;Run cached state CI on&#10;testnet" target="_blank">
<polygon fill="#c2e0c6" stroke="#000000" points="240,-1057.5 8,-1057.5 8,-1004.5 240,-1004.5 240,-1057.5"/>
<text text-anchor="middle" x="124" y="-1042.3" font-family="Times,serif" font-size="14.00" fill="#000000">ZcashFoundation/zebra#4992</text>
<text text-anchor="middle" x="124" y="-1027.3" font-family="Times,serif" font-size="14.00" fill="#000000">Run cached state CI on</text>
<text text-anchor="middle" x="124" y="-1012.3" font-family="Times,serif" font-size="14.00" fill="#000000">testnet</text>
</a>
</g>
</g>
<!-- ZcashFoundation/zebra#4554 -->
<g id="node6" class="node open">
<title>ZcashFoundation/zebra#4554</title>
<g id="a_node6"><a xlink:href="https://github.com/ZcashFoundation/zebra/issues/4554" xlink:title="ZcashFoundation/zebra#4554&#10;benchmarks: surface&#10;zebrad mainnet sync time&#10;in CI" target="_blank">
<polygon fill="#c2e0c6" stroke="#000000" stroke-width="2" points="240,-986 8,-986 8,-918 240,-918 240,-986"/>
<text text-anchor="middle" x="124" y="-970.8" font-family="Times,serif" font-size="14.00" fill="#000000">ZcashFoundation/zebra#4554</text>
<text text-anchor="middle" x="124" y="-955.8" font-family="Times,serif" font-size="14.00" fill="#000000">benchmarks: surface</text>
<text text-anchor="middle" x="124" y="-940.8" font-family="Times,serif" font-size="14.00" fill="#000000">zebrad mainnet sync time</text>
<text text-anchor="middle" x="124" y="-925.8" font-family="Times,serif" font-size="14.00" fill="#000000">in CI</text>
</a>
</g>
</g>
<!-- ZcashFoundation/zebra#4955 -->
<g id="node7" class="node open">
<title>ZcashFoundation/zebra#4955</title>
<g id="a_node7"><a xlink:href="https://github.com/ZcashFoundation/zebra/issues/4955" xlink:title="ZcashFoundation/zebra#4955&#10;Make long&#45;running test&#10;names match workflow&#10;names" target="_blank">
<polygon fill="#c2e0c6" stroke="#000000" stroke-width="2" points="240,-900 8,-900 8,-832 240,-832 240,-900"/>
<text text-anchor="middle" x="124" y="-884.8" font-family="Times,serif" font-size="14.00" fill="#000000">ZcashFoundation/zebra#4955</text>
<text text-anchor="middle" x="124" y="-869.8" font-family="Times,serif" font-size="14.00" fill="#000000">Make long&#45;running test</text>
<text text-anchor="middle" x="124" y="-854.8" font-family="Times,serif" font-size="14.00" fill="#000000">names match workflow</text>
<text text-anchor="middle" x="124" y="-839.8" font-family="Times,serif" font-size="14.00" fill="#000000">names</text>
</a>
</g>
</g>
<!-- ZcashFoundation/zebra#4956 -->
<g id="node8" class="node open">
<title>ZcashFoundation/zebra#4956</title>
<g id="a_node8"><a xlink:href="https://github.com/ZcashFoundation/zebra/issues/4956" xlink:title="ZcashFoundation/zebra#4956&#10;Make file locations&#10;appear in zebrad Docker&#10;error messages" target="_blank">
<polygon fill="#c2e0c6" stroke="#000000" stroke-width="2" points="240,-814 8,-814 8,-746 240,-746 240,-814"/>
<text text-anchor="middle" x="124" y="-798.8" font-family="Times,serif" font-size="14.00" fill="#000000">ZcashFoundation/zebra#4956</text>
<text text-anchor="middle" x="124" y="-783.8" font-family="Times,serif" font-size="14.00" fill="#000000">Make file locations</text>
<text text-anchor="middle" x="124" y="-768.8" font-family="Times,serif" font-size="14.00" fill="#000000">appear in zebrad Docker</text>
<text text-anchor="middle" x="124" y="-753.8" font-family="Times,serif" font-size="14.00" fill="#000000">error messages</text>
</a>
</g>
</g>
<!-- ZcashFoundation/zebra#4976 -->
<g id="node9" class="node open">
<title>ZcashFoundation/zebra#4976</title>
<g id="a_node9"><a xlink:href="https://github.com/ZcashFoundation/zebra/issues/4976" xlink:title="ZcashFoundation/zebra#4976&#10;Move continuous&#10;deployment to another&#10;Google Cloud region" target="_blank">
<polygon fill="#c2e0c6" stroke="#000000" stroke-width="2" points="240,-728 8,-728 8,-660 240,-660 240,-728"/>
<text text-anchor="middle" x="124" y="-712.8" font-family="Times,serif" font-size="14.00" fill="#000000">ZcashFoundation/zebra#4976</text>
<text text-anchor="middle" x="124" y="-697.8" font-family="Times,serif" font-size="14.00" fill="#000000">Move continuous</text>
<text text-anchor="middle" x="124" y="-682.8" font-family="Times,serif" font-size="14.00" fill="#000000">deployment to another</text>
<text text-anchor="middle" x="124" y="-667.8" font-family="Times,serif" font-size="14.00" fill="#000000">Google Cloud region</text>
</a>
</g>
</g>
<!-- ZcashFoundation/zebra#4946 -->
<g id="node10" class="node open">
<title>ZcashFoundation/zebra#4946</title>
<g id="a_node10"><a xlink:href="https://github.com/ZcashFoundation/zebra/issues/4946" xlink:title="ZcashFoundation/zebra#4946&#10;Managed instance groups&#10;deployed with continuous&#10;deployment can&#39;t scale&#10;beyond 1 instance" target="_blank">
<polygon fill="#c2e0c6" stroke="#000000" stroke-width="2" points="240,-641.5 8,-641.5 8,-558.5 240,-558.5 240,-641.5"/>
<text text-anchor="middle" x="124" y="-626.3" font-family="Times,serif" font-size="14.00" fill="#000000">ZcashFoundation/zebra#4946</text>
<text text-anchor="middle" x="124" y="-611.3" font-family="Times,serif" font-size="14.00" fill="#000000">Managed instance groups</text>
<text text-anchor="middle" x="124" y="-596.3" font-family="Times,serif" font-size="14.00" fill="#000000">deployed with continuous</text>
<text text-anchor="middle" x="124" y="-581.3" font-family="Times,serif" font-size="14.00" fill="#000000">deployment can&#39;t scale</text>
<text text-anchor="middle" x="124" y="-566.3" font-family="Times,serif" font-size="14.00" fill="#000000">beyond 1 instance</text>
</a>
</g>
</g>
<!-- ZcashFoundation/zebra#4965 -->
<g id="node11" class="node open">
<title>ZcashFoundation/zebra#4965</title>
<g id="a_node11"><a xlink:href="https://github.com/ZcashFoundation/zebra/issues/4965" xlink:title="ZcashFoundation/zebra#4965&#10;ci: delete old cached&#10;disk images from GCP" target="_blank">
<polygon fill="#c2e0c6" stroke="#000000" stroke-width="2" points="240,-540.5 8,-540.5 8,-487.5 240,-487.5 240,-540.5"/>
<text text-anchor="middle" x="124" y="-525.3" font-family="Times,serif" font-size="14.00" fill="#000000">ZcashFoundation/zebra#4965</text>
<text text-anchor="middle" x="124" y="-510.3" font-family="Times,serif" font-size="14.00" fill="#000000">ci: delete old cached</text>
<text text-anchor="middle" x="124" y="-495.3" font-family="Times,serif" font-size="14.00" fill="#000000">disk images from GCP</text>
</a>
</g>
</g>
<!-- ZcashFoundation/zebra#3050&#45;&gt;ZcashFoundation/zebra#4992 -->
<g id="edge3" class="edge">
<title>ZcashFoundation/zebra#3050&#45;&gt;ZcashFoundation/zebra#4992</title>
<path fill="none" stroke="#000000" d="M276.72,-353.83C273.56,-356.6 270.63,-359.65 268,-363 224.56,-418.26 282.93,-939.34 240,-995 239.52,-995.63 239.02,-996.24 238.52,-996.85"/>
<polygon fill="#000000" stroke="#000000" points="235.9162,-994.5065 231.42,-1004.1 240.9174,-999.4043 235.9162,-994.5065"/>
</g>
<!-- ZcashFoundation/zebra#4967 -->
<g id="node18" class="node open">
<title>ZcashFoundation/zebra#4967</title>
<g id="a_node18"><a xlink:href="https://github.com/ZcashFoundation/zebra/pull/4967" xlink:title="ZcashFoundation/zebra#4967&#10;feat(rpc): add&#10;getblockhash rpc method" target="_blank">
<polygon fill="#a7c2aa" stroke="#000000" points="796,-363.5 564,-363.5 564,-359.5 560,-359.5 560,-355.5 564,-355.5 564,-318.5 560,-318.5 560,-314.5 564,-314.5 564,-310.5 796,-310.5 796,-363.5"/>
<polyline fill="none" stroke="#000000" points="564,-359.5 568,-359.5 568,-355.5 564,-355.5 "/>
<polyline fill="none" stroke="#000000" points="564,-318.5 568,-318.5 568,-314.5 564,-314.5 "/>
<text text-anchor="middle" x="680" y="-348.3" font-family="Times,serif" font-size="14.00" fill="#000000">ZcashFoundation/zebra#4967</text>
<text text-anchor="middle" x="680" y="-333.3" font-family="Times,serif" font-size="14.00" fill="#000000">feat(rpc): add</text>
<text text-anchor="middle" x="680" y="-318.3" font-family="Times,serif" font-size="14.00" fill="#000000">getblockhash rpc method</text>
</a>
</g>
</g>
<!-- ZcashFoundation/zebra#3050&#45;&gt;ZcashFoundation/zebra#4967 -->
<g id="edge4" class="edge">
<title>ZcashFoundation/zebra#3050&#45;&gt;ZcashFoundation/zebra#4967</title>
<path fill="none" stroke="#000000" d="M508.31,-331.04C523.15,-331.55 538.4,-332.08 553.39,-332.6"/>
<polygon fill="#000000" stroke="#000000" points="553.6041,-336.1095 563.72,-332.96 553.848,-329.1137 553.6041,-336.1095"/>
</g>
<!-- ZcashFoundation/zebra#4882 -->
<g id="node14" class="node open">
<title>ZcashFoundation/zebra#4882</title>
<g id="a_node14"><a xlink:href="https://github.com/ZcashFoundation/zebra/issues/4882" xlink:title="ZcashFoundation/zebra#4882&#10;Add zcash&#45;lightwalletd /&#10;Build images to required&#10;jobs" target="_blank">
<polygon fill="#c2e0c6" stroke="#000000" stroke-width="2" points="508,-282 276,-282 276,-214 508,-214 508,-282"/>
<text text-anchor="middle" x="392" y="-266.8" font-family="Times,serif" font-size="14.00" fill="#000000">ZcashFoundation/zebra#4882</text>
<text text-anchor="middle" x="392" y="-251.8" font-family="Times,serif" font-size="14.00" fill="#000000">Add zcash&#45;lightwalletd /</text>
<text text-anchor="middle" x="392" y="-236.8" font-family="Times,serif" font-size="14.00" fill="#000000">Build images to required</text>
<text text-anchor="middle" x="392" y="-221.8" font-family="Times,serif" font-size="14.00" fill="#000000">jobs</text>
</a>
</g>
</g>
<!-- ZcashFoundation/zebra#4612 -->
<g id="node17" class="node open">
<title>ZcashFoundation/zebra#4612</title>
<g id="a_node17"><a xlink:href="https://github.com/ZcashFoundation/zebra/issues/4612" xlink:title="ZcashFoundation/zebra#4612&#10;ci: Wait for lightwalletd&#10;image rebuild if it has&#10;changed" target="_blank">
<polygon fill="#c2e0c6" stroke="#000000" points="796,-271 564,-271 564,-203 796,-203 796,-271"/>
<text text-anchor="middle" x="680" y="-255.8" font-family="Times,serif" font-size="14.00" fill="#000000">ZcashFoundation/zebra#4612</text>
<text text-anchor="middle" x="680" y="-240.8" font-family="Times,serif" font-size="14.00" fill="#000000">ci: Wait for lightwalletd</text>
<text text-anchor="middle" x="680" y="-225.8" font-family="Times,serif" font-size="14.00" fill="#000000">image rebuild if it has</text>
<text text-anchor="middle" x="680" y="-210.8" font-family="Times,serif" font-size="14.00" fill="#000000">changed</text>
</a>
</g>
</g>
<!-- ZcashFoundation/zebra#4882&#45;&gt;ZcashFoundation/zebra#4612 -->
<g id="edge5" class="edge">
<title>ZcashFoundation/zebra#4882&#45;&gt;ZcashFoundation/zebra#4612</title>
<path fill="none" stroke="#000000" d="M508.31,-243.56C523.15,-242.99 538.4,-242.41 553.39,-241.84"/>
<polygon fill="#000000" stroke="#000000" points="553.8629,-245.3244 563.72,-241.44 553.592,-238.3296 553.8629,-245.3244"/>
</g>
<!-- ZcashFoundation/zebra#4529 -->
<g id="node15" class="node open">
<title>ZcashFoundation/zebra#4529</title>
<g id="a_node15"><a xlink:href="https://github.com/ZcashFoundation/zebra/issues/4529" xlink:title="ZcashFoundation/zebra#4529&#10;Make PRs from external&#10;repositories pass or skip&#10;CI jobs" target="_blank">
<polygon fill="#c2e0c6" stroke="#000000" stroke-width="2" points="508,-196 276,-196 276,-128 508,-128 508,-196"/>
<text text-anchor="middle" x="392" y="-180.8" font-family="Times,serif" font-size="14.00" fill="#000000">ZcashFoundation/zebra#4529</text>
<text text-anchor="middle" x="392" y="-165.8" font-family="Times,serif" font-size="14.00" fill="#000000">Make PRs from external</text>
<text text-anchor="middle" x="392" y="-150.8" font-family="Times,serif" font-size="14.00" fill="#000000">repositories pass or skip</text>
<text text-anchor="middle" x="392" y="-135.8" font-family="Times,serif" font-size="14.00" fill="#000000">CI jobs</text>
</a>
</g>
</g>
<!-- ZcashFoundation/zebra#1638 -->
<g id="node16" class="node open">
<title>ZcashFoundation/zebra#1638</title>
<g id="a_node16"><a xlink:href="https://github.com/ZcashFoundation/zebra/issues/1638" xlink:title="ZcashFoundation/zebra#1638&#10;Create PGP keys amongst&#10;security@zfnd.org" target="_blank">
<polygon fill="#c2e0c6" stroke="#000000" stroke-width="2" points="508,-109.5 276,-109.5 276,-56.5 508,-56.5 508,-109.5"/>
<text text-anchor="middle" x="392" y="-94.3" font-family="Times,serif" font-size="14.00" fill="#000000">ZcashFoundation/zebra#1638</text>
<text text-anchor="middle" x="392" y="-79.3" font-family="Times,serif" font-size="14.00" fill="#000000">Create PGP keys amongst</text>
<text text-anchor="middle" x="392" y="-64.3" font-family="Times,serif" font-size="14.00" fill="#000000">security@zfnd.org</text>
</a>
</g>
</g>
</g>
</svg>
