<?xml version="1.0" encoding="UTF-8" standalone="no"?>
<?xml-stylesheet href="zcash-dag.css" type="text/css"?>
<!DOCTYPE svg PUBLIC "-//W3C//DTD SVG 1.1//EN"
 "http://www.w3.org/Graphics/SVG/1.1/DTD/svg11.dtd">
<!-- Generated by graphviz version 2.43.0 (0)
 -->
<!-- Pages: 1 -->
<svg width="506pt" height="437pt"
 viewBox="0.00 0.00 506.00 436.50" xmlns="http://www.w3.org/2000/svg" xmlns:xlink="http://www.w3.org/1999/xlink">
<g id="graph0" class="graph" transform="scale(1 1) rotate(0) translate(4 432.5)">
<polygon fill="white" stroke="transparent" points="-4,4 -4,-432.5 502,-432.5 502,4 -4,4"/>
<!-- ZcashFoundation/zebra#7175 -->
<g id="node1" class="node open">
<title>ZcashFoundation/zebra#7175</title>
<g id="a_node1"><a xlink:href="https://github.com/ZcashFoundation/zebra/pull/7175" xlink:title="ZcashFoundation/zebra#7175&#10;fix(Docker): Pass build&#10;args to `runtime` images" target="_blank">
<polygon fill="#c2e0c6" stroke="black" stroke-width="2" points="231,-139.5 0,-139.5 0,-135.5 -4,-135.5 -4,-131.5 0,-131.5 0,-94.5 -4,-94.5 -4,-90.5 0,-90.5 0,-86.5 231,-86.5 231,-139.5"/>
<polyline fill="none" stroke="black" stroke-width="2" points="0,-135.5 4,-135.5 4,-131.5 0,-131.5 "/>
<polyline fill="none" stroke="black" stroke-width="2" points="0,-94.5 4,-94.5 4,-90.5 0,-90.5 "/>
<text text-anchor="middle" x="115.5" y="-124.3" font-family="Times,serif" font-size="14.00">ZcashFoundation/zebra#7175</text>
<text text-anchor="middle" x="115.5" y="-109.3" font-family="Times,serif" font-size="14.00">fix(Docker): Pass build</text>
<text text-anchor="middle" x="115.5" y="-94.3" font-family="Times,serif" font-size="14.00">args to `runtime` images</text>
</a>
</g>
</g>
<!-- ZcashFoundation/zebra#7179 -->
<g id="node2" class="node open">
<title>ZcashFoundation/zebra#7179</title>
<g id="a_node2"><a xlink:href="https://github.com/ZcashFoundation/zebra/pull/7179" xlink:title="ZcashFoundation/zebra#7179&#10;add(Docker): &#160;Docs for&#10;mining with Docker" target="_blank">
<polygon fill="#c2e0c6" stroke="black" points="498,-100.5 267,-100.5 267,-96.5 263,-96.5 263,-92.5 267,-92.5 267,-55.5 263,-55.5 263,-51.5 267,-51.5 267,-47.5 498,-47.5 498,-100.5"/>
<polyline fill="none" stroke="black" points="267,-96.5 271,-96.5 271,-92.5 267,-92.5 "/>
<polyline fill="none" stroke="black" points="267,-55.5 271,-55.5 271,-51.5 267,-51.5 "/>
<text text-anchor="middle" x="382.5" y="-85.3" font-family="Times,serif" font-size="14.00">ZcashFoundation/zebra#7179</text>
<text text-anchor="middle" x="382.5" y="-70.3" font-family="Times,serif" font-size="14.00">add(Docker): &#160;Docs for</text>
<text text-anchor="middle" x="382.5" y="-55.3" font-family="Times,serif" font-size="14.00">mining with Docker</text>
</a>
</g>
</g>
<!-- ZcashFoundation/zebra#7175&#45;&gt;ZcashFoundation/zebra#7179 -->
<g id="edge1" class="edge">
<title>ZcashFoundation/zebra#7175&#45;&gt;ZcashFoundation/zebra#7179</title>
<path fill="none" stroke="black" d="M231.19,-96.12C239.64,-94.88 248.18,-93.62 256.68,-92.37"/>
<polygon fill="black" stroke="black" points="257.25,-95.82 266.63,-90.91 256.23,-88.9 257.25,-95.82"/>
</g>
<!-- ZcashFoundation/zebra#6025 -->
<g id="node3" class="node open">
<title>ZcashFoundation/zebra#6025</title>
<g id="a_node3"><a xlink:href="https://github.com/ZcashFoundation/zebra/issues/6025" xlink:title="ZcashFoundation/zebra#6025&#10;Add a manually&#45;triggered&#10;workflow for mining a&#10;block on testnet" target="_blank">
<polygon fill="#c2e0c6" stroke="black" points="498,-233 267,-233 267,-165 498,-165 498,-233"/>
<text text-anchor="middle" x="382.5" y="-217.8" font-family="Times,serif" font-size="14.00">ZcashFoundation/zebra#6025</text>
<text text-anchor="middle" x="382.5" y="-202.8" font-family="Times,serif" font-size="14.00">Add a manually&#45;triggered</text>
<text text-anchor="middle" x="382.5" y="-187.8" font-family="Times,serif" font-size="14.00">workflow for mining a</text>
<text text-anchor="middle" x="382.5" y="-172.8" font-family="Times,serif" font-size="14.00">block on testnet</text>
</a>
</g>
</g>
<!-- ZcashFoundation/zebra#7200 -->
<g id="node4" class="node open">
<title>ZcashFoundation/zebra#7200</title>
<g id="a_node4"><a xlink:href="https://github.com/ZcashFoundation/zebra/pull/7200" xlink:title="ZcashFoundation/zebra#7200&#10;ref(docker): organize&#10;`ENV` and `ARG` values&#10;based on their usage" target="_blank">
<polygon fill="#c2e0c6" stroke="black" stroke-width="2" points="231,-68 0,-68 0,-64 -4,-64 -4,-60 0,-60 0,-8 -4,-8 -4,-4 0,-4 0,0 231,0 231,-68"/>
<polyline fill="none" stroke="black" stroke-width="2" points="0,-64 4,-64 4,-60 0,-60 "/>
<polyline fill="none" stroke="black" stroke-width="2" points="0,-8 4,-8 4,-4 0,-4 "/>
<text text-anchor="middle" x="115.5" y="-52.8" font-family="Times,serif" font-size="14.00">ZcashFoundation/zebra#7200</text>
<text text-anchor="middle" x="115.5" y="-37.8" font-family="Times,serif" font-size="14.00">ref(docker): organize</text>
<text text-anchor="middle" x="115.5" y="-22.8" font-family="Times,serif" font-size="14.00">`ENV` and `ARG` values</text>
<text text-anchor="middle" x="115.5" y="-7.8" font-family="Times,serif" font-size="14.00">based on their usage</text>
</a>
</g>
</g>
<!-- ZcashFoundation/zebra#7200&#45;&gt;ZcashFoundation/zebra#7179 -->
<g id="edge2" class="edge">
<title>ZcashFoundation/zebra#7200&#45;&gt;ZcashFoundation/zebra#7179</title>
<path fill="none" stroke="black" d="M231.19,-51.31C239.64,-52.59 248.18,-53.88 256.68,-55.16"/>
<polygon fill="black" stroke="black" points="256.22,-58.63 266.63,-56.66 257.26,-51.71 256.22,-58.63"/>
</g>
<!-- ZcashFoundation/zebra#6611 -->
<g id="node5" class="node open">
<title>ZcashFoundation/zebra#6611</title>
<g id="a_node5"><a xlink:href="https://github.com/ZcashFoundation/zebra/issues/6611" xlink:title="ZcashFoundation/zebra#6611&#10;Document how to switch&#10;from Testnet to Mainnet&#10;in Docker images" target="_blank">
<polygon fill="#c2e0c6" stroke="black" stroke-width="2" points="231,-327 0,-327 0,-259 231,-259 231,-327"/>
<text text-anchor="middle" x="115.5" y="-311.8" font-family="Times,serif" font-size="14.00">ZcashFoundation/zebra#6611</text>
<text text-anchor="middle" x="115.5" y="-296.8" font-family="Times,serif" font-size="14.00">Document how to switch</text>
<text text-anchor="middle" x="115.5" y="-281.8" font-family="Times,serif" font-size="14.00">from Testnet to Mainnet</text>
<text text-anchor="middle" x="115.5" y="-266.8" font-family="Times,serif" font-size="14.00">in Docker images</text>
</a>
</g>
</g>
<!-- ZcashFoundation/zebra#6159 -->
<g id="node6" class="node closed">
<title>ZcashFoundation/zebra#6159</title>
<g id="a_node6"><a xlink:href="https://github.com/ZcashFoundation/zebra/issues/6159" xlink:title="ZcashFoundation/zebra#6159&#10;Documentation: Write a&#10;blog post to share how we&#10;used Zebra and s&#45;nomp to&#10;mine on testnet" target="_blank">
<polygon fill="#fad8c7" stroke="black" points="498,-334.5 267,-334.5 267,-251.5 498,-251.5 498,-334.5"/>
<text text-anchor="middle" x="382.5" y="-319.3" font-family="Times,serif" font-size="14.00">ZcashFoundation/zebra#6159</text>
<text text-anchor="middle" x="382.5" y="-304.3" font-family="Times,serif" font-size="14.00">Documentation: Write a</text>
<text text-anchor="middle" x="382.5" y="-289.3" font-family="Times,serif" font-size="14.00">blog post to share how we</text>
<text text-anchor="middle" x="382.5" y="-274.3" font-family="Times,serif" font-size="14.00">used Zebra and s&#45;nomp to</text>
<text text-anchor="middle" x="382.5" y="-259.3" font-family="Times,serif" font-size="14.00">mine on testnet</text>
</a>
</g>
</g>
<!-- ZcashFoundation/zebra#6611&#45;&gt;ZcashFoundation/zebra#6159 -->
<g id="edge3" class="edge">
<title>ZcashFoundation/zebra#6611&#45;&gt;ZcashFoundation/zebra#6159</title>
<path fill="none" stroke="black" d="M231.19,-293C239.55,-293 247.99,-293 256.4,-293"/>
<polygon fill="black" stroke="black" points="256.63,-296.5 266.63,-293 256.63,-289.5 256.63,-296.5"/>
</g>
<!-- ZcashFoundation/zebra#6118 -->
<g id="node7" class="node open">
<title>ZcashFoundation/zebra#6118</title>
<g id="a_node7"><a xlink:href="https://github.com/ZcashFoundation/zebra/issues/6118" xlink:title="ZcashFoundation/zebra#6118&#10;Create a Docker images&#10;and docker&#45;compose for&#10;mining with Zebra on&#10;Testnet" target="_blank">
<polygon fill="#c2e0c6" stroke="black" stroke-width="2" points="231,-240.5 0,-240.5 0,-157.5 231,-157.5 231,-240.5"/>
<text text-anchor="middle" x="115.5" y="-225.3" font-family="Times,serif" font-size="14.00">ZcashFoundation/zebra#6118</text>
<text text-anchor="middle" x="115.5" y="-210.3" font-family="Times,serif" font-size="14.00">Create a Docker images</text>
<text text-anchor="middle" x="115.5" y="-195.3" font-family="Times,serif" font-size="14.00">and docker&#45;compose for</text>
<text text-anchor="middle" x="115.5" y="-180.3" font-family="Times,serif" font-size="14.00">mining with Zebra on</text>
<text text-anchor="middle" x="115.5" y="-165.3" font-family="Times,serif" font-size="14.00">Testnet</text>
</a>
</g>
</g>
<!-- ZcashFoundation/zebra#6118&#45;&gt;ZcashFoundation/zebra#6025 -->
<g id="edge4" class="edge">
<title>ZcashFoundation/zebra#6118&#45;&gt;ZcashFoundation/zebra#6025</title>
<path fill="none" stroke="black" d="M231.19,-199C239.55,-199 247.99,-199 256.4,-199"/>
<polygon fill="black" stroke="black" points="256.63,-202.5 266.63,-199 256.63,-195.5 256.63,-202.5"/>
</g>
<!-- ZcashFoundation/zebra#4554 -->
<g id="node8" class="node open">
<title>ZcashFoundation/zebra#4554</title>
<g id="a_node8"><a xlink:href="https://github.com/ZcashFoundation/zebra/issues/4554" xlink:title="ZcashFoundation/zebra#4554&#10;benchmarks: create a&#10;ticket if zebrad mainnet&#10;sync time increases&#10;significantly" target="_blank">
<polygon fill="#c2e0c6" stroke="black" stroke-width="2" points="231,-428.5 0,-428.5 0,-345.5 231,-345.5 231,-428.5"/>
<text text-anchor="middle" x="115.5" y="-413.3" font-family="Times,serif" font-size="14.00">ZcashFoundation/zebra#4554</text>
<text text-anchor="middle" x="115.5" y="-398.3" font-family="Times,serif" font-size="14.00">benchmarks: create a</text>
<text text-anchor="middle" x="115.5" y="-383.3" font-family="Times,serif" font-size="14.00">ticket if zebrad mainnet</text>
<text text-anchor="middle" x="115.5" y="-368.3" font-family="Times,serif" font-size="14.00">sync time increases</text>
<text text-anchor="middle" x="115.5" y="-353.3" font-family="Times,serif" font-size="14.00">significantly</text>
</a>
</g>
</g>
</g>
</svg>
