<?xml version="1.0" encoding="UTF-8" standalone="no"?>
<?xml-stylesheet href="zcash-dag.css" type="text/css"?>
<!DOCTYPE svg PUBLIC "-//W3C//DTD SVG 1.1//EN"
 "http://www.w3.org/Graphics/SVG/1.1/DTD/svg11.dtd">
<!-- Generated by graphviz version 2.43.0 (0)
 -->
<!-- Pages: 1 -->
<svg width="773pt" height="508pt"
 viewBox="0.00 0.00 773.00 507.50" xmlns="http://www.w3.org/2000/svg" xmlns:xlink="http://www.w3.org/1999/xlink">
<g id="graph0" class="graph" transform="scale(1 1) rotate(0) translate(4 503.5)">
<polygon fill="white" stroke="transparent" points="-4,4 -4,-503.5 769,-503.5 769,4 -4,4"/>
<!-- ZcashFoundation/zebra#4554 -->
<g id="node1" class="node open">
<title>ZcashFoundation/zebra#4554</title>
<g id="a_node1"><a xlink:href="https://github.com/ZcashFoundation/zebra/issues/4554" xlink:title="ZcashFoundation/zebra#4554&#10;benchmarks: create a&#10;ticket if zebrad mainnet&#10;sync time increases&#10;significantly" target="_blank">
<polygon fill="#c2e0c6" stroke="black" stroke-width="2" points="231,-83 0,-83 0,0 231,0 231,-83"/>
<text text-anchor="middle" x="115.5" y="-67.8" font-family="Times,serif" font-size="14.00">ZcashFoundation/zebra#4554</text>
<text text-anchor="middle" x="115.5" y="-52.8" font-family="Times,serif" font-size="14.00">benchmarks: create a</text>
<text text-anchor="middle" x="115.5" y="-37.8" font-family="Times,serif" font-size="14.00">ticket if zebrad mainnet</text>
<text text-anchor="middle" x="115.5" y="-22.8" font-family="Times,serif" font-size="14.00">sync time increases</text>
<text text-anchor="middle" x="115.5" y="-7.8" font-family="Times,serif" font-size="14.00">significantly</text>
</a>
</g>
</g>
<!-- ZcashFoundation/zebra#7616 -->
<g id="node2" class="node open">
<title>ZcashFoundation/zebra#7616</title>
<g id="a_node2"><a xlink:href="https://github.com/ZcashFoundation/zebra/pull/7616" xlink:title="ZcashFoundation/zebra#7616&#10;ref(workflows):&#10;consolidate workflows&#10;based on their purpose" target="_blank">
<polygon fill="#c2e0c6" stroke="black" points="498,-169.5 267,-169.5 267,-165.5 263,-165.5 263,-161.5 267,-161.5 267,-109.5 263,-109.5 263,-105.5 267,-105.5 267,-101.5 498,-101.5 498,-169.5"/>
<polyline fill="none" stroke="black" points="267,-165.5 271,-165.5 271,-161.5 267,-161.5 "/>
<polyline fill="none" stroke="black" points="267,-109.5 271,-109.5 271,-105.5 267,-105.5 "/>
<text text-anchor="middle" x="382.5" y="-154.3" font-family="Times,serif" font-size="14.00">ZcashFoundation/zebra#7616</text>
<text text-anchor="middle" x="382.5" y="-139.3" font-family="Times,serif" font-size="14.00">ref(workflows):</text>
<text text-anchor="middle" x="382.5" y="-124.3" font-family="Times,serif" font-size="14.00">consolidate workflows</text>
<text text-anchor="middle" x="382.5" y="-109.3" font-family="Times,serif" font-size="14.00">based on their purpose</text>
</a>
</g>
</g>
<!-- ZcashFoundation/zebra#7617 -->
<g id="node3" class="node open">
<title>ZcashFoundation/zebra#7617</title>
<g id="a_node3"><a xlink:href="https://github.com/ZcashFoundation/zebra/pull/7617" xlink:title="ZcashFoundation/zebra#7617&#10;ref(docker): use cache&#10;mounts for build cache" target="_blank">
<polygon fill="#c2e0c6" stroke="black" points="765,-162 534,-162 534,-158 530,-158 530,-154 534,-154 534,-117 530,-117 530,-113 534,-113 534,-109 765,-109 765,-162"/>
<polyline fill="none" stroke="black" points="534,-158 538,-158 538,-154 534,-154 "/>
<polyline fill="none" stroke="black" points="534,-117 538,-117 538,-113 534,-113 "/>
<text text-anchor="middle" x="649.5" y="-146.8" font-family="Times,serif" font-size="14.00">ZcashFoundation/zebra#7617</text>
<text text-anchor="middle" x="649.5" y="-131.8" font-family="Times,serif" font-size="14.00">ref(docker): use cache</text>
<text text-anchor="middle" x="649.5" y="-116.8" font-family="Times,serif" font-size="14.00">mounts for build cache</text>
</a>
</g>
</g>
<!-- ZcashFoundation/zebra#7616&#45;&gt;ZcashFoundation/zebra#7617 -->
<g id="edge1" class="edge">
<title>ZcashFoundation/zebra#7616&#45;&gt;ZcashFoundation/zebra#7617</title>
<path fill="none" stroke="black" d="M498.19,-135.5C506.55,-135.5 514.99,-135.5 523.4,-135.5"/>
<polygon fill="black" stroke="black" points="523.63,-139 533.63,-135.5 523.63,-132 523.63,-139"/>
</g>
<!-- ZcashFoundation/zebra#7660 -->
<g id="node4" class="node open">
<title>ZcashFoundation/zebra#7660</title>
<g id="a_node4"><a xlink:href="https://github.com/ZcashFoundation/zebra/pull/7660" xlink:title="ZcashFoundation/zebra#7660&#10;ref(docker): combine test&#10;and prod entrypoints into&#10;one" target="_blank">
<polygon fill="#c2e0c6" stroke="black" stroke-width="2" points="231,-169.5 0,-169.5 0,-165.5 -4,-165.5 -4,-161.5 0,-161.5 0,-109.5 -4,-109.5 -4,-105.5 0,-105.5 0,-101.5 231,-101.5 231,-169.5"/>
<polyline fill="none" stroke="black" stroke-width="2" points="0,-165.5 4,-165.5 4,-161.5 0,-161.5 "/>
<polyline fill="none" stroke="black" stroke-width="2" points="0,-109.5 4,-109.5 4,-105.5 0,-105.5 "/>
<text text-anchor="middle" x="115.5" y="-154.3" font-family="Times,serif" font-size="14.00">ZcashFoundation/zebra#7660</text>
<text text-anchor="middle" x="115.5" y="-139.3" font-family="Times,serif" font-size="14.00">ref(docker): combine test</text>
<text text-anchor="middle" x="115.5" y="-124.3" font-family="Times,serif" font-size="14.00">and prod entrypoints into</text>
<text text-anchor="middle" x="115.5" y="-109.3" font-family="Times,serif" font-size="14.00">one</text>
</a>
</g>
</g>
<!-- ZcashFoundation/zebra#7660&#45;&gt;ZcashFoundation/zebra#7616 -->
<g id="edge2" class="edge">
<title>ZcashFoundation/zebra#7660&#45;&gt;ZcashFoundation/zebra#7616</title>
<path fill="none" stroke="black" d="M231.19,-135.5C239.55,-135.5 247.99,-135.5 256.4,-135.5"/>
<polygon fill="black" stroke="black" points="256.63,-139 266.63,-135.5 256.63,-132 256.63,-139"/>
</g>
<!-- ZcashFoundation/zebra#6167 -->
<g id="node5" class="node open">
<title>ZcashFoundation/zebra#6167</title>
<g id="a_node5"><a xlink:href="https://github.com/ZcashFoundation/zebra/issues/6167" xlink:title="ZcashFoundation/zebra#6167&#10;actions: segregate&#10;workflows based on their&#10;purpose" target="_blank">
<polygon fill="#c2e0c6" stroke="black" stroke-width="2" points="231,-341.5 0,-341.5 0,-273.5 231,-273.5 231,-341.5"/>
<text text-anchor="middle" x="115.5" y="-326.3" font-family="Times,serif" font-size="14.00">ZcashFoundation/zebra#6167</text>
<text text-anchor="middle" x="115.5" y="-311.3" font-family="Times,serif" font-size="14.00">actions: segregate</text>
<text text-anchor="middle" x="115.5" y="-296.3" font-family="Times,serif" font-size="14.00">workflows based on their</text>
<text text-anchor="middle" x="115.5" y="-281.3" font-family="Times,serif" font-size="14.00">purpose</text>
</a>
</g>
</g>
<!-- ZcashFoundation/zebra#6894 -->
<g id="node6" class="node open">
<title>ZcashFoundation/zebra#6894</title>
<g id="a_node6"><a xlink:href="https://github.com/ZcashFoundation/zebra/issues/6894" xlink:title="ZcashFoundation/zebra#6894&#10;Use cached state for&#10;continuous deployment&#10;instances" target="_blank">
<polygon fill="#c2e0c6" stroke="black" points="498,-255.5 267,-255.5 267,-187.5 498,-187.5 498,-255.5"/>
<text text-anchor="middle" x="382.5" y="-240.3" font-family="Times,serif" font-size="14.00">ZcashFoundation/zebra#6894</text>
<text text-anchor="middle" x="382.5" y="-225.3" font-family="Times,serif" font-size="14.00">Use cached state for</text>
<text text-anchor="middle" x="382.5" y="-210.3" font-family="Times,serif" font-size="14.00">continuous deployment</text>
<text text-anchor="middle" x="382.5" y="-195.3" font-family="Times,serif" font-size="14.00">instances</text>
</a>
</g>
</g>
<!-- ZcashFoundation/zebra#6167&#45;&gt;ZcashFoundation/zebra#6894 -->
<g id="edge3" class="edge">
<title>ZcashFoundation/zebra#6167&#45;&gt;ZcashFoundation/zebra#6894</title>
<path fill="none" stroke="black" d="M221.62,-273.39C236.43,-268.58 251.73,-263.61 266.72,-258.75"/>
<polygon fill="black" stroke="black" points="268.08,-261.99 276.51,-255.57 265.92,-255.33 268.08,-261.99"/>
</g>
<!-- ZcashFoundation/zebra#6166 -->
<g id="node7" class="node open">
<title>ZcashFoundation/zebra#6166</title>
<g id="a_node7"><a xlink:href="https://github.com/ZcashFoundation/zebra/issues/6166" xlink:title="ZcashFoundation/zebra#6166&#10;actions: use a name&#10;convention for workflow&#10;files/names" target="_blank">
<polygon fill="#c2e0c6" stroke="black" stroke-width="2" points="231,-255.5 0,-255.5 0,-187.5 231,-187.5 231,-255.5"/>
<text text-anchor="middle" x="115.5" y="-240.3" font-family="Times,serif" font-size="14.00">ZcashFoundation/zebra#6166</text>
<text text-anchor="middle" x="115.5" y="-225.3" font-family="Times,serif" font-size="14.00">actions: use a name</text>
<text text-anchor="middle" x="115.5" y="-210.3" font-family="Times,serif" font-size="14.00">convention for workflow</text>
<text text-anchor="middle" x="115.5" y="-195.3" font-family="Times,serif" font-size="14.00">files/names</text>
</a>
</g>
</g>
<!-- ZcashFoundation/zebra#6166&#45;&gt;ZcashFoundation/zebra#6894 -->
<g id="edge4" class="edge">
<title>ZcashFoundation/zebra#6166&#45;&gt;ZcashFoundation/zebra#6894</title>
<path fill="none" stroke="black" d="M231.19,-221.5C239.55,-221.5 247.99,-221.5 256.4,-221.5"/>
<polygon fill="black" stroke="black" points="256.63,-225 266.63,-221.5 256.63,-218 256.63,-225"/>
</g>
<!-- ZcashFoundation/zebra#7415 -->
<g id="node8" class="node open">
<title>ZcashFoundation/zebra#7415</title>
<g id="a_node8"><a xlink:href="https://github.com/ZcashFoundation/zebra/issues/7415" xlink:title="ZcashFoundation/zebra#7415&#10;devops: Remove redundant&#10;tags in Docker Hub" target="_blank">
<polygon fill="#c2e0c6" stroke="black" stroke-width="2" points="231,-413 0,-413 0,-360 231,-360 231,-413"/>
<text text-anchor="middle" x="115.5" y="-397.8" font-family="Times,serif" font-size="14.00">ZcashFoundation/zebra#7415</text>
<text text-anchor="middle" x="115.5" y="-382.8" font-family="Times,serif" font-size="14.00">devops: Remove redundant</text>
<text text-anchor="middle" x="115.5" y="-367.8" font-family="Times,serif" font-size="14.00">tags in Docker Hub</text>
</a>
</g>
</g>
<!-- ZcashFoundation/zebra#7362 -->
<g id="node9" class="node open">
<title>ZcashFoundation/zebra#7362</title>
<g id="a_node9"><a xlink:href="https://github.com/ZcashFoundation/zebra/issues/7362" xlink:title="ZcashFoundation/zebra#7362&#10;Remove extra tests for&#10;getblocktemplate&#45;rpcs&#10;feature" target="_blank">
<polygon fill="#c2e0c6" stroke="black" stroke-width="2" points="231,-499.5 0,-499.5 0,-431.5 231,-431.5 231,-499.5"/>
<text text-anchor="middle" x="115.5" y="-484.3" font-family="Times,serif" font-size="14.00">ZcashFoundation/zebra#7362</text>
<text text-anchor="middle" x="115.5" y="-469.3" font-family="Times,serif" font-size="14.00">Remove extra tests for</text>
<text text-anchor="middle" x="115.5" y="-454.3" font-family="Times,serif" font-size="14.00">getblocktemplate&#45;rpcs</text>
<text text-anchor="middle" x="115.5" y="-439.3" font-family="Times,serif" font-size="14.00">feature</text>
</a>
</g>
</g>
</g>
</svg>
