<?xml version="1.0" encoding="UTF-8" standalone="no"?>
<?xml-stylesheet href="zcash-dag.css" type="text/css"?>
<!DOCTYPE svg PUBLIC "-//W3C//DTD SVG 1.1//EN"
 "http://www.w3.org/Graphics/SVG/1.1/DTD/svg11.dtd">
<!-- Generated by graphviz version 2.40.1 (20161225.0304)
 -->
<!-- Pages: 1 -->
<svg width="832pt" height="779pt"
 viewBox="0.00 0.00 832.00 779.00" xmlns="http://www.w3.org/2000/svg" xmlns:xlink="http://www.w3.org/1999/xlink">
<g id="graph0" class="graph" transform="scale(1 1) rotate(0) translate(4 775)">
<polygon fill="#ffffff" stroke="transparent" points="-4,4 -4,-775 828,-775 828,4 -4,4"/>
<g id="clust1" class="cluster">
<title>cluster_1</title>
<polygon fill="none" stroke="#0000ff" points="576,-678 576,-771 824,-771 824,-678 576,-678"/>
<text text-anchor="middle" x="700" y="-755.8" font-family="Times,serif" font-size="14.00" fill="#000000">Tracking: Tech Debt</text>
</g>
<g id="clust2" class="cluster">
<title>cluster_5</title>
<polygon fill="none" stroke="#0000ff" points="20,-248 20,-670 824,-670 824,-248 20,-248"/>
<text text-anchor="middle" x="422" y="-654.8" font-family="Times,serif" font-size="14.00" fill="#000000">Epic: Zebra Stable Release Candidate</text>
</g>
<g id="clust3" class="cluster">
<title>cluster_0</title>
<polygon fill="none" stroke="#0000ff" points="20,-115 20,-208 268,-208 268,-115 20,-115"/>
<text text-anchor="middle" x="144" y="-192.8" font-family="Times,serif" font-size="14.00" fill="#000000">Tracking: Documentation</text>
</g>
<g id="clust4" class="cluster">
<title>cluster_3</title>
<polygon fill="none" stroke="#0000ff" points="0,0 0,-107 288,-107 288,0 0,0"/>
<text text-anchor="middle" x="144" y="-91.8" font-family="Times,serif" font-size="14.00" fill="#000000">Epic: Zebra as a lightwalletd backend</text>
</g>
<!-- ZcashFoundation/zebra#1791 -->
<g id="node1" class="node closed">
<title>ZcashFoundation/zebra#1791</title>
<g id="a_node1"><a xlink:href="https://github.com/ZcashFoundation/zebra/issues/1791" xlink:title="ZcashFoundation/zebra#1791&#10;Re&#45;enable `sync_large_che&#10;ckpoints_testnet` test" target="_blank">
<polygon fill="#fad8c7" stroke="#000000" points="816,-739.5 584,-739.5 584,-686.5 816,-686.5 816,-739.5"/>
<text text-anchor="middle" x="700" y="-724.3" font-family="Times,serif" font-size="14.00" fill="#000000">ZcashFoundation/zebra#1791</text>
<text text-anchor="middle" x="700" y="-709.3" font-family="Times,serif" font-size="14.00" fill="#000000">Re&#45;enable `sync_large_che</text>
<text text-anchor="middle" x="700" y="-694.3" font-family="Times,serif" font-size="14.00" fill="#000000">ckpoints_testnet` test</text>
</a>
</g>
</g>
<!-- ZcashFoundation/zebra#1894 -->
<g id="node2" class="node open">
<title>ZcashFoundation/zebra#1894</title>
<g id="a_node2"><a xlink:href="https://github.com/ZcashFoundation/zebra/issues/1894" xlink:title="ZcashFoundation/zebra#1894&#10;Zebra should follow OS&#10;directory conventions&#10;better" target="_blank">
<polygon fill="#c2e0c6" stroke="#000000" points="548,-481 316,-481 316,-413 548,-413 548,-481"/>
<text text-anchor="middle" x="432" y="-465.8" font-family="Times,serif" font-size="14.00" fill="#000000">ZcashFoundation/zebra#1894</text>
<text text-anchor="middle" x="432" y="-450.8" font-family="Times,serif" font-size="14.00" fill="#000000">Zebra should follow OS</text>
<text text-anchor="middle" x="432" y="-435.8" font-family="Times,serif" font-size="14.00" fill="#000000">directory conventions</text>
<text text-anchor="middle" x="432" y="-420.8" font-family="Times,serif" font-size="14.00" fill="#000000">better</text>
</a>
</g>
</g>
<!-- ZcashFoundation/zebra#3432 -->
<g id="node3" class="node open">
<title>ZcashFoundation/zebra#3432</title>
<g id="a_node3"><a xlink:href="https://github.com/ZcashFoundation/zebra/issues/3432" xlink:title="ZcashFoundation/zebra#3432&#10;Use the Filesystem&#10;Hierarchy Standard (FHS)&#10;for deployments and&#10;artifacts" target="_blank">
<polygon fill="#c2e0c6" stroke="#000000" points="816,-488.5 584,-488.5 584,-405.5 816,-405.5 816,-488.5"/>
<text text-anchor="middle" x="700" y="-473.3" font-family="Times,serif" font-size="14.00" fill="#000000">ZcashFoundation/zebra#3432</text>
<text text-anchor="middle" x="700" y="-458.3" font-family="Times,serif" font-size="14.00" fill="#000000">Use the Filesystem</text>
<text text-anchor="middle" x="700" y="-443.3" font-family="Times,serif" font-size="14.00" fill="#000000">Hierarchy Standard (FHS)</text>
<text text-anchor="middle" x="700" y="-428.3" font-family="Times,serif" font-size="14.00" fill="#000000">for deployments and</text>
<text text-anchor="middle" x="700" y="-413.3" font-family="Times,serif" font-size="14.00" fill="#000000">artifacts</text>
</a>
</g>
</g>
<!-- ZcashFoundation/zebra#1894&#45;&gt;ZcashFoundation/zebra#3432 -->
<g id="edge1" class="edge">
<title>ZcashFoundation/zebra#1894&#45;&gt;ZcashFoundation/zebra#3432</title>
<path fill="none" stroke="#000000" d="M548.38,-447C556.71,-447 565.14,-447 573.53,-447"/>
<polygon fill="#000000" stroke="#000000" points="573.74,-450.5001 583.74,-447 573.74,-443.5001 573.74,-450.5001"/>
</g>
<!-- ZcashFoundation/zebra#3050 -->
<g id="node4" class="node open">
<title>ZcashFoundation/zebra#3050</title>
<g id="a_node4"><a xlink:href="https://github.com/ZcashFoundation/zebra/issues/3050" xlink:title="ZcashFoundation/zebra#3050&#10;Tag Zebra 1.0.0&#45;rc.0&#10;stable release candidate" target="_blank">
<polygon fill="#a7c2aa" stroke="#000000" points="548,-552.5 316,-552.5 316,-499.5 548,-499.5 548,-552.5"/>
<text text-anchor="middle" x="432" y="-537.3" font-family="Times,serif" font-size="14.00" fill="#000000">ZcashFoundation/zebra#3050</text>
<text text-anchor="middle" x="432" y="-522.3" font-family="Times,serif" font-size="14.00" fill="#000000">Tag Zebra 1.0.0&#45;rc.0</text>
<text text-anchor="middle" x="432" y="-507.3" font-family="Times,serif" font-size="14.00" fill="#000000">stable release candidate</text>
</a>
</g>
</g>
<!-- ZcashFoundation/zebra#1904 -->
<g id="node5" class="node open">
<title>ZcashFoundation/zebra#1904</title>
<g id="a_node5"><a xlink:href="https://github.com/ZcashFoundation/zebra/issues/1904" xlink:title="ZcashFoundation/zebra#1904&#10;Some DNS seeders and&#10;block explorers don&#39;t&#10;show Zebra nodes" target="_blank">
<polygon fill="#a7c2aa" stroke="#000000" points="548,-639 316,-639 316,-571 548,-571 548,-639"/>
<text text-anchor="middle" x="432" y="-623.8" font-family="Times,serif" font-size="14.00" fill="#000000">ZcashFoundation/zebra#1904</text>
<text text-anchor="middle" x="432" y="-608.8" font-family="Times,serif" font-size="14.00" fill="#000000">Some DNS seeders and</text>
<text text-anchor="middle" x="432" y="-593.8" font-family="Times,serif" font-size="14.00" fill="#000000">block explorers don&#39;t</text>
<text text-anchor="middle" x="432" y="-578.8" font-family="Times,serif" font-size="14.00" fill="#000000">show Zebra nodes</text>
</a>
</g>
</g>
<!-- ZcashFoundation/zebra#1904&#45;&gt;ZcashFoundation/zebra#1791 -->
<g id="edge5" class="edge">
<title>ZcashFoundation/zebra#1904&#45;&gt;ZcashFoundation/zebra#1791</title>
<path fill="none" stroke="#000000" d="M498.16,-639.13C522.32,-650.94 550.08,-663.78 576,-674 584.01,-677.16 592.38,-680.24 600.84,-683.2"/>
<polygon fill="#000000" stroke="#000000" points="599.8053,-686.5453 610.4,-686.49 602.0832,-679.9263 599.8053,-686.5453"/>
</g>
<!-- ZcashFoundation/zebra#4448 -->
<g id="node6" class="node open">
<title>ZcashFoundation/zebra#4448</title>
<g id="a_node6"><a xlink:href="https://github.com/ZcashFoundation/zebra/issues/4448" xlink:title="ZcashFoundation/zebra#4448&#10;Decide on supported&#10;platforms and test in CI" target="_blank">
<polygon fill="#c2e0c6" stroke="#000000" stroke-width="2" points="260,-552.5 28,-552.5 28,-499.5 260,-499.5 260,-552.5"/>
<text text-anchor="middle" x="144" y="-537.3" font-family="Times,serif" font-size="14.00" fill="#000000">ZcashFoundation/zebra#4448</text>
<text text-anchor="middle" x="144" y="-522.3" font-family="Times,serif" font-size="14.00" fill="#000000">Decide on supported</text>
<text text-anchor="middle" x="144" y="-507.3" font-family="Times,serif" font-size="14.00" fill="#000000">platforms and test in CI</text>
</a>
</g>
</g>
<!-- ZcashFoundation/zebra#4448&#45;&gt;ZcashFoundation/zebra#1894 -->
<g id="edge2" class="edge">
<title>ZcashFoundation/zebra#4448&#45;&gt;ZcashFoundation/zebra#1894</title>
<path fill="none" stroke="#000000" d="M256.19,-499.4C266.96,-496.65 277.7,-493.82 288,-491 296.24,-488.74 304.73,-486.34 313.26,-483.87"/>
<polygon fill="#000000" stroke="#000000" points="314.2873,-487.2163 322.91,-481.06 312.3302,-480.4954 314.2873,-487.2163"/>
</g>
<!-- ZcashFoundation/zebra#4448&#45;&gt;ZcashFoundation/zebra#3050 -->
<g id="edge3" class="edge">
<title>ZcashFoundation/zebra#4448&#45;&gt;ZcashFoundation/zebra#3050</title>
<path fill="none" stroke="#000000" d="M260.31,-526C275.15,-526 290.4,-526 305.39,-526"/>
<polygon fill="#000000" stroke="#000000" points="305.72,-529.5001 315.72,-526 305.72,-522.5001 305.72,-529.5001"/>
</g>
<!-- ZcashFoundation/zebra#755 -->
<g id="node13" class="node open">
<title>ZcashFoundation/zebra#755</title>
<g id="a_node13"><a xlink:href="https://github.com/ZcashFoundation/zebra/issues/755" xlink:title="ZcashFoundation/zebra#755&#10;Automate zebrad releases" target="_blank">
<polygon fill="#c2e0c6" stroke="#000000" points="543.5,-240 320.5,-240 320.5,-202 543.5,-202 543.5,-240"/>
<text text-anchor="middle" x="432" y="-224.8" font-family="Times,serif" font-size="14.00" fill="#000000">ZcashFoundation/zebra#755</text>
<text text-anchor="middle" x="432" y="-209.8" font-family="Times,serif" font-size="14.00" fill="#000000">Automate zebrad releases</text>
</a>
</g>
</g>
<!-- ZcashFoundation/zebra#4448&#45;&gt;ZcashFoundation/zebra#755 -->
<g id="edge6" class="edge">
<title>ZcashFoundation/zebra#4448&#45;&gt;ZcashFoundation/zebra#755</title>
<path fill="none" stroke="#000000" d="M260.27,-511.73C270.72,-506.55 280.26,-499.78 288,-491 358.85,-410.64 248.26,-330.31 313.71,-247.48"/>
<polygon fill="#000000" stroke="#000000" points="316.5195,-249.5804 320.37,-239.71 311.2046,-245.0248 316.5195,-249.5804"/>
</g>
<!-- ZcashFoundation/zebra#2564 -->
<g id="node14" class="node open">
<title>ZcashFoundation/zebra#2564</title>
<g id="a_node14"><a xlink:href="https://github.com/ZcashFoundation/zebra/issues/2564" xlink:title="ZcashFoundation/zebra#2564&#10;Include git metadata in&#10;docker logs and Google&#10;Cloud panic reports" target="_blank">
<polygon fill="#c2e0c6" stroke="#000000" points="548,-184 316,-184 316,-116 548,-116 548,-184"/>
<text text-anchor="middle" x="432" y="-168.8" font-family="Times,serif" font-size="14.00" fill="#000000">ZcashFoundation/zebra#2564</text>
<text text-anchor="middle" x="432" y="-153.8" font-family="Times,serif" font-size="14.00" fill="#000000">Include git metadata in</text>
<text text-anchor="middle" x="432" y="-138.8" font-family="Times,serif" font-size="14.00" fill="#000000">docker logs and Google</text>
<text text-anchor="middle" x="432" y="-123.8" font-family="Times,serif" font-size="14.00" fill="#000000">Cloud panic reports</text>
</a>
</g>
</g>
<!-- ZcashFoundation/zebra#4448&#45;&gt;ZcashFoundation/zebra#2564 -->
<g id="edge7" class="edge">
<title>ZcashFoundation/zebra#4448&#45;&gt;ZcashFoundation/zebra#2564</title>
<path fill="none" stroke="#000000" d="M260.09,-512.06C270.65,-506.82 280.26,-499.95 288,-491 331.51,-440.69 275.5,-245.76 316,-193 316.39,-192.49 316.78,-191.99 317.18,-191.5"/>
<polygon fill="#000000" stroke="#000000" points="319.9248,-193.6896 324.21,-184 314.8176,-188.9024 319.9248,-193.6896"/>
</g>
<!-- ZcashFoundation/zebra#4562 -->
<g id="node7" class="node open">
<title>ZcashFoundation/zebra#4562</title>
<g id="a_node7"><a xlink:href="https://github.com/ZcashFoundation/zebra/issues/4562" xlink:title="ZcashFoundation/zebra#4562&#10;Deploy long&#45;running Zebra&#10;nodes after each tagged&#10;release" target="_blank">
<polygon fill="#c2e0c6" stroke="#000000" stroke-width="2" points="260,-639 28,-639 28,-571 260,-571 260,-639"/>
<text text-anchor="middle" x="144" y="-623.8" font-family="Times,serif" font-size="14.00" fill="#000000">ZcashFoundation/zebra#4562</text>
<text text-anchor="middle" x="144" y="-608.8" font-family="Times,serif" font-size="14.00" fill="#000000">Deploy long&#45;running Zebra</text>
<text text-anchor="middle" x="144" y="-593.8" font-family="Times,serif" font-size="14.00" fill="#000000">nodes after each tagged</text>
<text text-anchor="middle" x="144" y="-578.8" font-family="Times,serif" font-size="14.00" fill="#000000">release</text>
</a>
</g>
</g>
<!-- ZcashFoundation/zebra#4562&#45;&gt;ZcashFoundation/zebra#1904 -->
<g id="edge4" class="edge">
<title>ZcashFoundation/zebra#4562&#45;&gt;ZcashFoundation/zebra#1904</title>
<path fill="none" stroke="#000000" d="M260.31,-605C275.15,-605 290.4,-605 305.39,-605"/>
<polygon fill="#000000" stroke="#000000" points="305.72,-608.5001 315.72,-605 305.72,-601.5001 305.72,-608.5001"/>
</g>
<!-- ZcashFoundation/zebra#1638 -->
<g id="node8" class="node open">
<title>ZcashFoundation/zebra#1638</title>
<g id="a_node8"><a xlink:href="https://github.com/ZcashFoundation/zebra/issues/1638" xlink:title="ZcashFoundation/zebra#1638&#10;Create PGP keys amongst&#10;security@zfnd.org" target="_blank">
<polygon fill="#c2e0c6" stroke="#000000" stroke-width="2" points="260,-481.5 28,-481.5 28,-428.5 260,-428.5 260,-481.5"/>
<text text-anchor="middle" x="144" y="-466.3" font-family="Times,serif" font-size="14.00" fill="#000000">ZcashFoundation/zebra#1638</text>
<text text-anchor="middle" x="144" y="-451.3" font-family="Times,serif" font-size="14.00" fill="#000000">Create PGP keys amongst</text>
<text text-anchor="middle" x="144" y="-436.3" font-family="Times,serif" font-size="14.00" fill="#000000">security@zfnd.org</text>
</a>
</g>
</g>
<!-- ZcashFoundation/zebra#4751 -->
<g id="node9" class="node open">
<title>ZcashFoundation/zebra#4751</title>
<g id="a_node9"><a xlink:href="https://github.com/ZcashFoundation/zebra/issues/4751" xlink:title="ZcashFoundation/zebra#4751&#10;ci: Add missing CI/CD&#10;status labels to&#10;README.md" target="_blank">
<polygon fill="#c2e0c6" stroke="#000000" stroke-width="2" points="260,-410 28,-410 28,-342 260,-342 260,-410"/>
<text text-anchor="middle" x="144" y="-394.8" font-family="Times,serif" font-size="14.00" fill="#000000">ZcashFoundation/zebra#4751</text>
<text text-anchor="middle" x="144" y="-379.8" font-family="Times,serif" font-size="14.00" fill="#000000">ci: Add missing CI/CD</text>
<text text-anchor="middle" x="144" y="-364.8" font-family="Times,serif" font-size="14.00" fill="#000000">status labels to</text>
<text text-anchor="middle" x="144" y="-349.8" font-family="Times,serif" font-size="14.00" fill="#000000">README.md</text>
</a>
</g>
</g>
<!-- ZcashFoundation/zebra#4753 -->
<g id="node10" class="node open">
<title>ZcashFoundation/zebra#4753</title>
<g id="a_node10"><a xlink:href="https://github.com/ZcashFoundation/zebra/issues/4753" xlink:title="ZcashFoundation/zebra#4753&#10;ci: Split deploy&#45;gcp&#45;&#10;tests workflow into&#10;multiple categories" target="_blank">
<polygon fill="#c2e0c6" stroke="#000000" stroke-width="2" points="260,-324 28,-324 28,-256 260,-256 260,-324"/>
<text text-anchor="middle" x="144" y="-308.8" font-family="Times,serif" font-size="14.00" fill="#000000">ZcashFoundation/zebra#4753</text>
<text text-anchor="middle" x="144" y="-293.8" font-family="Times,serif" font-size="14.00" fill="#000000">ci: Split deploy&#45;gcp&#45;</text>
<text text-anchor="middle" x="144" y="-278.8" font-family="Times,serif" font-size="14.00" fill="#000000">tests workflow into</text>
<text text-anchor="middle" x="144" y="-263.8" font-family="Times,serif" font-size="14.00" fill="#000000">multiple categories</text>
</a>
</g>
</g>
<!-- ZcashFoundation/zebra#1963 -->
<g id="node11" class="node open">
<title>ZcashFoundation/zebra#1963</title>
<g id="a_node11"><a xlink:href="https://github.com/ZcashFoundation/zebra/issues/1963" xlink:title="ZcashFoundation/zebra#1963&#10;Work out how to release&#10;Zebra binaries" target="_blank">
<polygon fill="#c2e0c6" stroke="#000000" stroke-width="2" points="260,-176.5 28,-176.5 28,-123.5 260,-123.5 260,-176.5"/>
<text text-anchor="middle" x="144" y="-161.3" font-family="Times,serif" font-size="14.00" fill="#000000">ZcashFoundation/zebra#1963</text>
<text text-anchor="middle" x="144" y="-146.3" font-family="Times,serif" font-size="14.00" fill="#000000">Work out how to release</text>
<text text-anchor="middle" x="144" y="-131.3" font-family="Times,serif" font-size="14.00" fill="#000000">Zebra binaries</text>
</a>
</g>
</g>
<!-- ZcashFoundation/zebra#1963&#45;&gt;ZcashFoundation/zebra#755 -->
<g id="edge8" class="edge">
<title>ZcashFoundation/zebra#1963&#45;&gt;ZcashFoundation/zebra#755</title>
<path fill="none" stroke="#000000" d="M249.48,-176.51C271.46,-182 294.48,-187.71 316,-193 324.72,-195.14 333.81,-197.36 342.89,-199.57"/>
<polygon fill="#000000" stroke="#000000" points="342.1864,-203.0008 352.73,-201.96 343.8386,-196.1986 342.1864,-203.0008"/>
</g>
<!-- ZcashFoundation/zebra#1963&#45;&gt;ZcashFoundation/zebra#2564 -->
<g id="edge9" class="edge">
<title>ZcashFoundation/zebra#1963&#45;&gt;ZcashFoundation/zebra#2564</title>
<path fill="none" stroke="#000000" d="M260.31,-150C275.15,-150 290.4,-150 305.39,-150"/>
<polygon fill="#000000" stroke="#000000" points="305.72,-153.5001 315.72,-150 305.72,-146.5001 305.72,-153.5001"/>
</g>
<!-- ZcashFoundation/zebra#4412 -->
<g id="node15" class="node open">
<title>ZcashFoundation/zebra#4412</title>
<g id="a_node15"><a xlink:href="https://github.com/ZcashFoundation/zebra/issues/4412" xlink:title="ZcashFoundation/zebra#4412&#10;Automate pinning CI&#10;dependencies to specific&#10;commit hashes" target="_blank">
<polygon fill="#c2e0c6" stroke="#000000" points="548,-98 316,-98 316,-30 548,-30 548,-98"/>
<text text-anchor="middle" x="432" y="-82.8" font-family="Times,serif" font-size="14.00" fill="#000000">ZcashFoundation/zebra#4412</text>
<text text-anchor="middle" x="432" y="-67.8" font-family="Times,serif" font-size="14.00" fill="#000000">Automate pinning CI</text>
<text text-anchor="middle" x="432" y="-52.8" font-family="Times,serif" font-size="14.00" fill="#000000">dependencies to specific</text>
<text text-anchor="middle" x="432" y="-37.8" font-family="Times,serif" font-size="14.00" fill="#000000">commit hashes</text>
</a>
</g>
</g>
<!-- ZcashFoundation/zebra#1963&#45;&gt;ZcashFoundation/zebra#4412 -->
<g id="edge10" class="edge">
<title>ZcashFoundation/zebra#1963&#45;&gt;ZcashFoundation/zebra#4412</title>
<path fill="none" stroke="#000000" d="M244.51,-123.48C259.13,-119.42 273.98,-115.18 288,-111 298.52,-107.86 309.45,-104.49 320.36,-101.06"/>
<polygon fill="#000000" stroke="#000000" points="321.467,-104.3808 329.94,-98.02 319.3497,-97.7086 321.467,-104.3808"/>
</g>
<!-- ZcashFoundation/zebra#4612 -->
<g id="node12" class="node open">
<title>ZcashFoundation/zebra#4612</title>
<g id="a_node12"><a xlink:href="https://github.com/ZcashFoundation/zebra/issues/4612" xlink:title="ZcashFoundation/zebra#4612&#10;ci: Wait for lightwalletd&#10;image rebuild if it has&#10;changed" target="_blank">
<polygon fill="#c2e0c6" stroke="#000000" stroke-width="2" points="260,-76 28,-76 28,-8 260,-8 260,-76"/>
<text text-anchor="middle" x="144" y="-60.8" font-family="Times,serif" font-size="14.00" fill="#000000">ZcashFoundation/zebra#4612</text>
<text text-anchor="middle" x="144" y="-45.8" font-family="Times,serif" font-size="14.00" fill="#000000">ci: Wait for lightwalletd</text>
<text text-anchor="middle" x="144" y="-30.8" font-family="Times,serif" font-size="14.00" fill="#000000">image rebuild if it has</text>
<text text-anchor="middle" x="144" y="-15.8" font-family="Times,serif" font-size="14.00" fill="#000000">changed</text>
</a>
</g>
</g>
<!-- ZcashFoundation/zebra#4554 -->
<g id="node16" class="node open">
<title>ZcashFoundation/zebra#4554</title>
<g id="a_node16"><a xlink:href="https://github.com/ZcashFoundation/zebra/issues/4554" xlink:title="ZcashFoundation/zebra#4554&#10;benchmarks: surface&#10;zebrad mainnet sync time&#10;in CI" target="_blank">
<polygon fill="#c2e0c6" stroke="#000000" stroke-width="2" points="260,-746 28,-746 28,-678 260,-678 260,-746"/>
<text text-anchor="middle" x="144" y="-730.8" font-family="Times,serif" font-size="14.00" fill="#000000">ZcashFoundation/zebra#4554</text>
<text text-anchor="middle" x="144" y="-715.8" font-family="Times,serif" font-size="14.00" fill="#000000">benchmarks: surface</text>
<text text-anchor="middle" x="144" y="-700.8" font-family="Times,serif" font-size="14.00" fill="#000000">zebrad mainnet sync time</text>
<text text-anchor="middle" x="144" y="-685.8" font-family="Times,serif" font-size="14.00" fill="#000000">in CI</text>
</a>
</g>
</g>
</g>
</svg>
