<?xml version="1.0" encoding="UTF-8" standalone="no"?>
<?xml-stylesheet href="zcash-dag.css" type="text/css"?>
<!DOCTYPE svg PUBLIC "-//W3C//DTD SVG 1.1//EN"
 "http://www.w3.org/Graphics/SVG/1.1/DTD/svg11.dtd">
<!-- Generated by graphviz version 2.40.1 (20161225.0304)
 -->
<!-- Pages: 1 -->
<svg width="824pt" height="1425pt"
 viewBox="0.00 0.00 824.00 1425.00" xmlns="http://www.w3.org/2000/svg" xmlns:xlink="http://www.w3.org/1999/xlink">
<g id="graph0" class="graph" transform="scale(1 1) rotate(0) translate(4 1421)">
<polygon fill="#ffffff" stroke="transparent" points="-4,4 -4,-1421 820,-1421 820,4 -4,4"/>
<g id="clust1" class="cluster">
<title>cluster_1</title>
<polygon fill="none" stroke="#0000ff" points="0,-421 0,-1417 536,-1417 536,-421 0,-421"/>
<text text-anchor="middle" x="268" y="-1401.8" font-family="Times,serif" font-size="14.00" fill="#000000">DevOps Ticket Tracker</text>
</g>
<g id="clust2" class="cluster">
<title>cluster_2</title>
<polygon fill="none" stroke="#0000ff" points="268,0 268,-107 556,-107 556,0 268,0"/>
<text text-anchor="middle" x="412" y="-91.8" font-family="Times,serif" font-size="14.00" fill="#000000">Epic: Zebra as a lightwalletd backend</text>
</g>
<g id="clust3" class="cluster">
<title>cluster_0</title>
<polygon fill="none" stroke="#0000ff" points="288,-163 288,-413 536,-413 536,-163 288,-163"/>
<text text-anchor="middle" x="412" y="-397.8" font-family="Times,serif" font-size="14.00" fill="#000000">Epic: Zebra Release Candidates</text>
</g>
<!-- ZcashFoundation/zebra#4953 -->
<g id="node1" class="node open">
<title>ZcashFoundation/zebra#4953</title>
<g id="a_node1"><a xlink:href="https://github.com/ZcashFoundation/zebra/issues/4953" xlink:title="ZcashFoundation/zebra#4953&#10;Document how to use&#10;released Zebra binaries" target="_blank">
<polygon fill="#c2e0c6" stroke="#000000" stroke-width="2" points="240,-1314.5 8,-1314.5 8,-1261.5 240,-1261.5 240,-1314.5"/>
<text text-anchor="middle" x="124" y="-1299.3" font-family="Times,serif" font-size="14.00" fill="#000000">ZcashFoundation/zebra#4953</text>
<text text-anchor="middle" x="124" y="-1284.3" font-family="Times,serif" font-size="14.00" fill="#000000">Document how to use</text>
<text text-anchor="middle" x="124" y="-1269.3" font-family="Times,serif" font-size="14.00" fill="#000000">released Zebra binaries</text>
</a>
</g>
</g>
<!-- ZcashFoundation/zebra#1615 -->
<g id="node16" class="node open">
<title>ZcashFoundation/zebra#1615</title>
<g id="a_node16"><a xlink:href="https://github.com/ZcashFoundation/zebra/issues/1615" xlink:title="ZcashFoundation/zebra#1615&#10;Zebra release candidate&#10;binaries should be linked&#10;from ZFND website" target="_blank">
<polygon fill="#a7c2aa" stroke="#000000" points="528,-382 296,-382 296,-314 528,-314 528,-382"/>
<text text-anchor="middle" x="412" y="-366.8" font-family="Times,serif" font-size="14.00" fill="#000000">ZcashFoundation/zebra#1615</text>
<text text-anchor="middle" x="412" y="-351.8" font-family="Times,serif" font-size="14.00" fill="#000000">Zebra release candidate</text>
<text text-anchor="middle" x="412" y="-336.8" font-family="Times,serif" font-size="14.00" fill="#000000">binaries should be linked</text>
<text text-anchor="middle" x="412" y="-321.8" font-family="Times,serif" font-size="14.00" fill="#000000">from ZFND website</text>
</a>
</g>
</g>
<!-- ZcashFoundation/zebra#4953&#45;&gt;ZcashFoundation/zebra#1615 -->
<g id="edge3" class="edge">
<title>ZcashFoundation/zebra#4953&#45;&gt;ZcashFoundation/zebra#1615</title>
<path fill="none" stroke="#000000" d="M232.37,-1261.3C235.13,-1258.8 237.69,-1256 240,-1253 296.66,-1179.3 217.17,-494.81 268,-417 275.56,-405.42 285.65,-395.74 296.99,-387.64"/>
<polygon fill="#000000" stroke="#000000" points="299.0448,-390.477 305.44,-382.03 295.173,-384.6452 299.0448,-390.477"/>
</g>
<!-- ZcashFoundation/zebra#1963 -->
<g id="node2" class="node open">
<title>ZcashFoundation/zebra#1963</title>
<g id="a_node2"><a xlink:href="https://github.com/ZcashFoundation/zebra/issues/1963" xlink:title="ZcashFoundation/zebra#1963&#10;Work out how to release&#10;Zebra binaries" target="_blank">
<polygon fill="#c2e0c6" stroke="#000000" stroke-width="2" points="240,-1385.5 8,-1385.5 8,-1332.5 240,-1332.5 240,-1385.5"/>
<text text-anchor="middle" x="124" y="-1370.3" font-family="Times,serif" font-size="14.00" fill="#000000">ZcashFoundation/zebra#1963</text>
<text text-anchor="middle" x="124" y="-1355.3" font-family="Times,serif" font-size="14.00" fill="#000000">Work out how to release</text>
<text text-anchor="middle" x="124" y="-1340.3" font-family="Times,serif" font-size="14.00" fill="#000000">Zebra binaries</text>
</a>
</g>
</g>
<!-- ZcashFoundation/zebra#4954 -->
<g id="node3" class="node open">
<title>ZcashFoundation/zebra#4954</title>
<g id="a_node3"><a xlink:href="https://github.com/ZcashFoundation/zebra/issues/4954" xlink:title="ZcashFoundation/zebra#4954&#10;Update release checklist&#10;PR template for the&#10;release candidate series" target="_blank">
<polygon fill="#c2e0c6" stroke="#000000" points="528,-899 296,-899 296,-831 528,-831 528,-899"/>
<text text-anchor="middle" x="412" y="-883.8" font-family="Times,serif" font-size="14.00" fill="#000000">ZcashFoundation/zebra#4954</text>
<text text-anchor="middle" x="412" y="-868.8" font-family="Times,serif" font-size="14.00" fill="#000000">Update release checklist</text>
<text text-anchor="middle" x="412" y="-853.8" font-family="Times,serif" font-size="14.00" fill="#000000">PR template for the</text>
<text text-anchor="middle" x="412" y="-838.8" font-family="Times,serif" font-size="14.00" fill="#000000">release candidate series</text>
</a>
</g>
</g>
<!-- ZcashFoundation/zebra#1963&#45;&gt;ZcashFoundation/zebra#4954 -->
<g id="edge1" class="edge">
<title>ZcashFoundation/zebra#1963&#45;&gt;ZcashFoundation/zebra#4954</title>
<path fill="none" stroke="#000000" d="M229.37,-1332.5C233.13,-1329.9 236.7,-1327.1 240,-1324 362.16,-1209.6 398.13,-1000.1 408.25,-909.1"/>
<polygon fill="#000000" stroke="#000000" points="411.7342,-909.4338 409.31,-899.12 404.7733,-908.6944 411.7342,-909.4338"/>
</g>
<!-- ZcashFoundation/zebra#4412 -->
<g id="node4" class="node open">
<title>ZcashFoundation/zebra#4412</title>
<g id="a_node4"><a xlink:href="https://github.com/ZcashFoundation/zebra/issues/4412" xlink:title="ZcashFoundation/zebra#4412&#10;Automate pinning CI&#10;dependencies to specific&#10;commit hashes" target="_blank">
<polygon fill="#c2e0c6" stroke="#000000" points="528,-1386 296,-1386 296,-1318 528,-1318 528,-1386"/>
<text text-anchor="middle" x="412" y="-1370.8" font-family="Times,serif" font-size="14.00" fill="#000000">ZcashFoundation/zebra#4412</text>
<text text-anchor="middle" x="412" y="-1355.8" font-family="Times,serif" font-size="14.00" fill="#000000">Automate pinning CI</text>
<text text-anchor="middle" x="412" y="-1340.8" font-family="Times,serif" font-size="14.00" fill="#000000">dependencies to specific</text>
<text text-anchor="middle" x="412" y="-1325.8" font-family="Times,serif" font-size="14.00" fill="#000000">commit hashes</text>
</a>
</g>
</g>
<!-- ZcashFoundation/zebra#1963&#45;&gt;ZcashFoundation/zebra#4412 -->
<g id="edge2" class="edge">
<title>ZcashFoundation/zebra#1963&#45;&gt;ZcashFoundation/zebra#4412</title>
<path fill="none" stroke="#000000" d="M240.31,-1356.2C255.15,-1355.8 270.4,-1355.4 285.39,-1355.1"/>
<polygon fill="#000000" stroke="#000000" points="285.8259,-1358.5889 295.72,-1354.8 285.6226,-1351.5919 285.8259,-1358.5889"/>
</g>
<!-- ZcashFoundation/zebra#755 -->
<g id="node19" class="node closed">
<title>ZcashFoundation/zebra#755</title>
<g id="a_node19"><a xlink:href="https://github.com/ZcashFoundation/zebra/issues/755" xlink:title="ZcashFoundation/zebra#755&#10;Automate zebrad releases" target="_blank">
<polygon fill="#fad8c7" stroke="#000000" points="523.5,-153 300.5,-153 300.5,-115 523.5,-115 523.5,-153"/>
<text text-anchor="middle" x="412" y="-137.8" font-family="Times,serif" font-size="14.00" fill="#000000">ZcashFoundation/zebra#755</text>
<text text-anchor="middle" x="412" y="-122.8" font-family="Times,serif" font-size="14.00" fill="#000000">Automate zebrad releases</text>
</a>
</g>
</g>
<!-- ZcashFoundation/zebra#1963&#45;&gt;ZcashFoundation/zebra#755 -->
<g id="edge4" class="edge">
<title>ZcashFoundation/zebra#1963&#45;&gt;ZcashFoundation/zebra#755</title>
<path fill="none" stroke="#000000" d="M232.41,-1332.3C235.16,-1329.8 237.71,-1327 240,-1324 279.23,-1272.5 225.73,-208.04 268,-159 274.46,-151.51 282.28,-145.72 290.91,-141.29"/>
<polygon fill="#000000" stroke="#000000" points="292.4694,-144.4268 300.17,-137.15 289.6123,-138.0364 292.4694,-144.4268"/>
</g>
<!-- ZcashFoundation/zebra#3050 -->
<g id="node17" class="node open">
<title>ZcashFoundation/zebra#3050</title>
<g id="a_node17"><a xlink:href="https://github.com/ZcashFoundation/zebra/issues/3050" xlink:title="ZcashFoundation/zebra#3050&#10;Tag Zebra 1.0.0&#45;rc.0&#10;stable release candidate" target="_blank">
<polygon fill="#a7c2aa" stroke="#000000" points="528,-295.5 296,-295.5 296,-242.5 528,-242.5 528,-295.5"/>
<text text-anchor="middle" x="412" y="-280.3" font-family="Times,serif" font-size="14.00" fill="#000000">ZcashFoundation/zebra#3050</text>
<text text-anchor="middle" x="412" y="-265.3" font-family="Times,serif" font-size="14.00" fill="#000000">Tag Zebra 1.0.0&#45;rc.0</text>
<text text-anchor="middle" x="412" y="-250.3" font-family="Times,serif" font-size="14.00" fill="#000000">stable release candidate</text>
</a>
</g>
</g>
<!-- ZcashFoundation/zebra#4954&#45;&gt;ZcashFoundation/zebra#3050 -->
<g id="edge5" class="edge">
<title>ZcashFoundation/zebra#4954&#45;&gt;ZcashFoundation/zebra#3050</title>
<path fill="none" stroke="#000000" d="M395.48,-830.72C345.65,-725.19 203.33,-406.8 254,-314 261.51,-300.24 273.08,-290.32 286.62,-283.21"/>
<polygon fill="#000000" stroke="#000000" points="288.1952,-286.3374 295.78,-278.94 285.2376,-279.9929 288.1952,-286.3374"/>
</g>
<!-- ZcashFoundation/zebra#4882 -->
<g id="node5" class="node open">
<title>ZcashFoundation/zebra#4882</title>
<g id="a_node5"><a xlink:href="https://github.com/ZcashFoundation/zebra/issues/4882" xlink:title="ZcashFoundation/zebra#4882&#10;Add zcash&#45;lightwalletd /&#10;Build images to required&#10;jobs" target="_blank">
<polygon fill="#c2e0c6" stroke="#000000" stroke-width="2" points="240,-1172 8,-1172 8,-1104 240,-1104 240,-1172"/>
<text text-anchor="middle" x="124" y="-1156.8" font-family="Times,serif" font-size="14.00" fill="#000000">ZcashFoundation/zebra#4882</text>
<text text-anchor="middle" x="124" y="-1141.8" font-family="Times,serif" font-size="14.00" fill="#000000">Add zcash&#45;lightwalletd /</text>
<text text-anchor="middle" x="124" y="-1126.8" font-family="Times,serif" font-size="14.00" fill="#000000">Build images to required</text>
<text text-anchor="middle" x="124" y="-1111.8" font-family="Times,serif" font-size="14.00" fill="#000000">jobs</text>
</a>
</g>
</g>
<!-- ZcashFoundation/zebra#4612 -->
<g id="node15" class="node open">
<title>ZcashFoundation/zebra#4612</title>
<g id="a_node15"><a xlink:href="https://github.com/ZcashFoundation/zebra/issues/4612" xlink:title="ZcashFoundation/zebra#4612&#10;ci: Wait for lightwalletd&#10;image rebuild if it has&#10;changed" target="_blank">
<polygon fill="#c2e0c6" stroke="#000000" points="528,-76 296,-76 296,-8 528,-8 528,-76"/>
<text text-anchor="middle" x="412" y="-60.8" font-family="Times,serif" font-size="14.00" fill="#000000">ZcashFoundation/zebra#4612</text>
<text text-anchor="middle" x="412" y="-45.8" font-family="Times,serif" font-size="14.00" fill="#000000">ci: Wait for lightwalletd</text>
<text text-anchor="middle" x="412" y="-30.8" font-family="Times,serif" font-size="14.00" fill="#000000">image rebuild if it has</text>
<text text-anchor="middle" x="412" y="-15.8" font-family="Times,serif" font-size="14.00" fill="#000000">changed</text>
</a>
</g>
</g>
<!-- ZcashFoundation/zebra#4882&#45;&gt;ZcashFoundation/zebra#4612 -->
<g id="edge6" class="edge">
<title>ZcashFoundation/zebra#4882&#45;&gt;ZcashFoundation/zebra#4612</title>
<path fill="none" stroke="#000000" d="M232.52,-1103.8C235.24,-1101.1 237.75,-1098.1 240,-1095 304.06,-1005.7 206.8,-197.32 268,-106 274.18,-96.78 282.02,-88.872 290.84,-82.096"/>
<polygon fill="#000000" stroke="#000000" points="293.0503,-84.8196 299.19,-76.185 289.0058,-79.1062 293.0503,-84.8196"/>
</g>
<!-- ZcashFoundation/zebra#4992 -->
<g id="node6" class="node open">
<title>ZcashFoundation/zebra#4992</title>
<g id="a_node6"><a xlink:href="https://github.com/ZcashFoundation/zebra/issues/4992" xlink:title="ZcashFoundation/zebra#4992&#10;Run cached state CI on&#10;testnet" target="_blank">
<polygon fill="#c2e0c6" stroke="#000000" points="240,-1243.5 8,-1243.5 8,-1190.5 240,-1190.5 240,-1243.5"/>
<text text-anchor="middle" x="124" y="-1228.3" font-family="Times,serif" font-size="14.00" fill="#000000">ZcashFoundation/zebra#4992</text>
<text text-anchor="middle" x="124" y="-1213.3" font-family="Times,serif" font-size="14.00" fill="#000000">Run cached state CI on</text>
<text text-anchor="middle" x="124" y="-1198.3" font-family="Times,serif" font-size="14.00" fill="#000000">testnet</text>
</a>
</g>
</g>
<!-- ZcashFoundation/zebra#4554 -->
<g id="node7" class="node open">
<title>ZcashFoundation/zebra#4554</title>
<g id="a_node7"><a xlink:href="https://github.com/ZcashFoundation/zebra/issues/4554" xlink:title="ZcashFoundation/zebra#4554&#10;benchmarks: surface&#10;zebrad mainnet sync time&#10;in CI" target="_blank">
<polygon fill="#c2e0c6" stroke="#000000" stroke-width="2" points="240,-1086 8,-1086 8,-1018 240,-1018 240,-1086"/>
<text text-anchor="middle" x="124" y="-1070.8" font-family="Times,serif" font-size="14.00" fill="#000000">ZcashFoundation/zebra#4554</text>
<text text-anchor="middle" x="124" y="-1055.8" font-family="Times,serif" font-size="14.00" fill="#000000">benchmarks: surface</text>
<text text-anchor="middle" x="124" y="-1040.8" font-family="Times,serif" font-size="14.00" fill="#000000">zebrad mainnet sync time</text>
<text text-anchor="middle" x="124" y="-1025.8" font-family="Times,serif" font-size="14.00" fill="#000000">in CI</text>
</a>
</g>
</g>
<!-- ZcashFoundation/zebra#4929 -->
<g id="node8" class="node open">
<title>ZcashFoundation/zebra#4929</title>
<g id="a_node8"><a xlink:href="https://github.com/ZcashFoundation/zebra/issues/4929" xlink:title="ZcashFoundation/zebra#4929&#10;Re&#45;enable beta Rust tests&#10;on Ubuntu" target="_blank">
<polygon fill="#c2e0c6" stroke="#000000" stroke-width="2" points="240,-999.5 8,-999.5 8,-946.5 240,-946.5 240,-999.5"/>
<text text-anchor="middle" x="124" y="-984.3" font-family="Times,serif" font-size="14.00" fill="#000000">ZcashFoundation/zebra#4929</text>
<text text-anchor="middle" x="124" y="-969.3" font-family="Times,serif" font-size="14.00" fill="#000000">Re&#45;enable beta Rust tests</text>
<text text-anchor="middle" x="124" y="-954.3" font-family="Times,serif" font-size="14.00" fill="#000000">on Ubuntu</text>
</a>
</g>
</g>
<!-- ZcashFoundation/zebra#4529 -->
<g id="node9" class="node open">
<title>ZcashFoundation/zebra#4529</title>
<g id="a_node9"><a xlink:href="https://github.com/ZcashFoundation/zebra/issues/4529" xlink:title="ZcashFoundation/zebra#4529&#10;Make PRs from external&#10;repositories pass or skip&#10;CI jobs" target="_blank">
<polygon fill="#c2e0c6" stroke="#000000" stroke-width="2" points="240,-928 8,-928 8,-860 240,-860 240,-928"/>
<text text-anchor="middle" x="124" y="-912.8" font-family="Times,serif" font-size="14.00" fill="#000000">ZcashFoundation/zebra#4529</text>
<text text-anchor="middle" x="124" y="-897.8" font-family="Times,serif" font-size="14.00" fill="#000000">Make PRs from external</text>
<text text-anchor="middle" x="124" y="-882.8" font-family="Times,serif" font-size="14.00" fill="#000000">repositories pass or skip</text>
<text text-anchor="middle" x="124" y="-867.8" font-family="Times,serif" font-size="14.00" fill="#000000">CI jobs</text>
</a>
</g>
</g>
<!-- ZcashFoundation/zebra#4955 -->
<g id="node10" class="node open">
<title>ZcashFoundation/zebra#4955</title>
<g id="a_node10"><a xlink:href="https://github.com/ZcashFoundation/zebra/issues/4955" xlink:title="ZcashFoundation/zebra#4955&#10;Make long&#45;running test&#10;names match workflow&#10;names" target="_blank">
<polygon fill="#c2e0c6" stroke="#000000" stroke-width="2" points="240,-842 8,-842 8,-774 240,-774 240,-842"/>
<text text-anchor="middle" x="124" y="-826.8" font-family="Times,serif" font-size="14.00" fill="#000000">ZcashFoundation/zebra#4955</text>
<text text-anchor="middle" x="124" y="-811.8" font-family="Times,serif" font-size="14.00" fill="#000000">Make long&#45;running test</text>
<text text-anchor="middle" x="124" y="-796.8" font-family="Times,serif" font-size="14.00" fill="#000000">names match workflow</text>
<text text-anchor="middle" x="124" y="-781.8" font-family="Times,serif" font-size="14.00" fill="#000000">names</text>
</a>
</g>
</g>
<!-- ZcashFoundation/zebra#4956 -->
<g id="node11" class="node open">
<title>ZcashFoundation/zebra#4956</title>
<g id="a_node11"><a xlink:href="https://github.com/ZcashFoundation/zebra/issues/4956" xlink:title="ZcashFoundation/zebra#4956&#10;Make file locations&#10;appear in zebrad Docker&#10;error messages" target="_blank">
<polygon fill="#c2e0c6" stroke="#000000" stroke-width="2" points="240,-756 8,-756 8,-688 240,-688 240,-756"/>
<text text-anchor="middle" x="124" y="-740.8" font-family="Times,serif" font-size="14.00" fill="#000000">ZcashFoundation/zebra#4956</text>
<text text-anchor="middle" x="124" y="-725.8" font-family="Times,serif" font-size="14.00" fill="#000000">Make file locations</text>
<text text-anchor="middle" x="124" y="-710.8" font-family="Times,serif" font-size="14.00" fill="#000000">appear in zebrad Docker</text>
<text text-anchor="middle" x="124" y="-695.8" font-family="Times,serif" font-size="14.00" fill="#000000">error messages</text>
</a>
</g>
</g>
<!-- ZcashFoundation/zebra#4976 -->
<g id="node12" class="node open">
<title>ZcashFoundation/zebra#4976</title>
<g id="a_node12"><a xlink:href="https://github.com/ZcashFoundation/zebra/issues/4976" xlink:title="ZcashFoundation/zebra#4976&#10;Move continuous&#10;deployment to another&#10;Google Cloud region" target="_blank">
<polygon fill="#c2e0c6" stroke="#000000" stroke-width="2" points="240,-670 8,-670 8,-602 240,-602 240,-670"/>
<text text-anchor="middle" x="124" y="-654.8" font-family="Times,serif" font-size="14.00" fill="#000000">ZcashFoundation/zebra#4976</text>
<text text-anchor="middle" x="124" y="-639.8" font-family="Times,serif" font-size="14.00" fill="#000000">Move continuous</text>
<text text-anchor="middle" x="124" y="-624.8" font-family="Times,serif" font-size="14.00" fill="#000000">deployment to another</text>
<text text-anchor="middle" x="124" y="-609.8" font-family="Times,serif" font-size="14.00" fill="#000000">Google Cloud region</text>
</a>
</g>
</g>
<!-- ZcashFoundation/zebra#4946 -->
<g id="node13" class="node open">
<title>ZcashFoundation/zebra#4946</title>
<g id="a_node13"><a xlink:href="https://github.com/ZcashFoundation/zebra/issues/4946" xlink:title="ZcashFoundation/zebra#4946&#10;Managed instance groups&#10;deployed with continuous&#10;deployment can&#39;t scale&#10;beyond 1 instance" target="_blank">
<polygon fill="#c2e0c6" stroke="#000000" stroke-width="2" points="240,-583.5 8,-583.5 8,-500.5 240,-500.5 240,-583.5"/>
<text text-anchor="middle" x="124" y="-568.3" font-family="Times,serif" font-size="14.00" fill="#000000">ZcashFoundation/zebra#4946</text>
<text text-anchor="middle" x="124" y="-553.3" font-family="Times,serif" font-size="14.00" fill="#000000">Managed instance groups</text>
<text text-anchor="middle" x="124" y="-538.3" font-family="Times,serif" font-size="14.00" fill="#000000">deployed with continuous</text>
<text text-anchor="middle" x="124" y="-523.3" font-family="Times,serif" font-size="14.00" fill="#000000">deployment can&#39;t scale</text>
<text text-anchor="middle" x="124" y="-508.3" font-family="Times,serif" font-size="14.00" fill="#000000">beyond 1 instance</text>
</a>
</g>
</g>
<!-- ZcashFoundation/zebra#4965 -->
<g id="node14" class="node open">
<title>ZcashFoundation/zebra#4965</title>
<g id="a_node14"><a xlink:href="https://github.com/ZcashFoundation/zebra/issues/4965" xlink:title="ZcashFoundation/zebra#4965&#10;ci: delete old cached&#10;disk images from GCP" target="_blank">
<polygon fill="#c2e0c6" stroke="#000000" stroke-width="2" points="240,-482.5 8,-482.5 8,-429.5 240,-429.5 240,-482.5"/>
<text text-anchor="middle" x="124" y="-467.3" font-family="Times,serif" font-size="14.00" fill="#000000">ZcashFoundation/zebra#4965</text>
<text text-anchor="middle" x="124" y="-452.3" font-family="Times,serif" font-size="14.00" fill="#000000">ci: delete old cached</text>
<text text-anchor="middle" x="124" y="-437.3" font-family="Times,serif" font-size="14.00" fill="#000000">disk images from GCP</text>
</a>
</g>
</g>
<!-- ZcashFoundation/zebra#3050&#45;&gt;ZcashFoundation/zebra#4992 -->
<g id="edge7" class="edge">
<title>ZcashFoundation/zebra#3050&#45;&gt;ZcashFoundation/zebra#4992</title>
<path fill="none" stroke="#000000" d="M295.99,-282.96C285.27,-288.4 275.61,-295.57 268,-305 206.85,-380.79 299.01,-1103.5 240,-1181 239.52,-1181.6 239.03,-1182.2 238.53,-1182.9"/>
<polygon fill="#000000" stroke="#000000" points="235.9061,-1180.5785 231.47,-1190.2 240.9378,-1185.4449 235.9061,-1180.5785"/>
</g>
<!-- ZcashFoundation/zebra#4967 -->
<g id="node20" class="node open">
<title>ZcashFoundation/zebra#4967</title>
<g id="a_node20"><a xlink:href="https://github.com/ZcashFoundation/zebra/pull/4967" xlink:title="ZcashFoundation/zebra#4967&#10;feat(rpc): add&#10;getblockhash rpc method" target="_blank">
<polygon fill="#a7c2aa" stroke="#000000" points="816,-295.5 584,-295.5 584,-291.5 580,-291.5 580,-287.5 584,-287.5 584,-250.5 580,-250.5 580,-246.5 584,-246.5 584,-242.5 816,-242.5 816,-295.5"/>
<polyline fill="none" stroke="#000000" points="584,-291.5 588,-291.5 588,-287.5 584,-287.5 "/>
<polyline fill="none" stroke="#000000" points="584,-250.5 588,-250.5 588,-246.5 584,-246.5 "/>
<text text-anchor="middle" x="700" y="-280.3" font-family="Times,serif" font-size="14.00" fill="#000000">ZcashFoundation/zebra#4967</text>
<text text-anchor="middle" x="700" y="-265.3" font-family="Times,serif" font-size="14.00" fill="#000000">feat(rpc): add</text>
<text text-anchor="middle" x="700" y="-250.3" font-family="Times,serif" font-size="14.00" fill="#000000">getblockhash rpc method</text>
</a>
</g>
</g>
<!-- ZcashFoundation/zebra#3050&#45;&gt;ZcashFoundation/zebra#4967 -->
<g id="edge8" class="edge">
<title>ZcashFoundation/zebra#3050&#45;&gt;ZcashFoundation/zebra#4967</title>
<path fill="none" stroke="#000000" d="M528.31,-269C543.15,-269 558.4,-269 573.39,-269"/>
<polygon fill="#000000" stroke="#000000" points="573.72,-272.5001 583.72,-269 573.72,-265.5001 573.72,-272.5001"/>
</g>
<!-- ZcashFoundation/zebra#1638 -->
<g id="node18" class="node open">
<title>ZcashFoundation/zebra#1638</title>
<g id="a_node18"><a xlink:href="https://github.com/ZcashFoundation/zebra/issues/1638" xlink:title="ZcashFoundation/zebra#1638&#10;Create PGP keys amongst&#10;security@zfnd.org" target="_blank">
<polygon fill="#c2e0c6" stroke="#000000" stroke-width="2" points="528,-224.5 296,-224.5 296,-171.5 528,-171.5 528,-224.5"/>
<text text-anchor="middle" x="412" y="-209.3" font-family="Times,serif" font-size="14.00" fill="#000000">ZcashFoundation/zebra#1638</text>
<text text-anchor="middle" x="412" y="-194.3" font-family="Times,serif" font-size="14.00" fill="#000000">Create PGP keys amongst</text>
<text text-anchor="middle" x="412" y="-179.3" font-family="Times,serif" font-size="14.00" fill="#000000">security@zfnd.org</text>
</a>
</g>
</g>
</g>
</svg>
