<?xml version="1.0" encoding="UTF-8" standalone="no"?>
<?xml-stylesheet href="zcash-dag.css" type="text/css"?>
<!DOCTYPE svg PUBLIC "-//W3C//DTD SVG 1.1//EN"
 "http://www.w3.org/Graphics/SVG/1.1/DTD/svg11.dtd">
<!-- Generated by graphviz version 2.40.1 (20161225.0304)
 -->
<!-- Pages: 1 -->
<svg width="792pt" height="1406pt"
 viewBox="0.00 0.00 792.00 1406.00" xmlns="http://www.w3.org/2000/svg" xmlns:xlink="http://www.w3.org/1999/xlink">
<g id="graph0" class="graph" transform="scale(1 1) rotate(0) translate(4 1402)">
<polygon fill="#ffffff" stroke="transparent" points="-4,4 -4,-1402 788,-1402 788,4 -4,4"/>
<g id="clust1" class="cluster">
<title>cluster_0</title>
<polygon fill="none" stroke="#0000ff" points="276,-8 276,-345 524,-345 524,-8 276,-8"/>
<text text-anchor="middle" x="400" y="-329.8" font-family="Times,serif" font-size="14.00" fill="#000000">Epic: Zebra Release Candidate</text>
</g>
<g id="clust2" class="cluster">
<title>cluster_1</title>
<polygon fill="none" stroke="#0000ff" points="8,-353 8,-1322 524,-1322 524,-353 8,-353"/>
<text text-anchor="middle" x="266" y="-1306.8" font-family="Times,serif" font-size="14.00" fill="#000000">DevOps Ticket Tracker</text>
</g>
<g id="clust3" class="cluster">
<title>cluster_2</title>
<polygon fill="none" stroke="#0000ff" points="0,0 0,-1398 784,-1398 784,0 0,0"/>
<text text-anchor="middle" x="392" y="-1382.8" font-family="Times,serif" font-size="14.00" fill="#000000">Epic: Zebra as a lightwalletd backend</text>
</g>
<!-- ZcashFoundation/zebra#1615 -->
<g id="node1" class="node open">
<title>ZcashFoundation/zebra#1615</title>
<g id="a_node1"><a xlink:href="https://github.com/ZcashFoundation/zebra/issues/1615" xlink:title="ZcashFoundation/zebra#1615&#10;Zebra release candidate&#10;binaries should be linked&#10;from ZFND website" target="_blank">
<polygon fill="#a7c2aa" stroke="#000000" points="516,-242 284,-242 284,-174 516,-174 516,-242"/>
<text text-anchor="middle" x="400" y="-226.8" font-family="Times,serif" font-size="14.00" fill="#000000">ZcashFoundation/zebra#1615</text>
<text text-anchor="middle" x="400" y="-211.8" font-family="Times,serif" font-size="14.00" fill="#000000">Zebra release candidate</text>
<text text-anchor="middle" x="400" y="-196.8" font-family="Times,serif" font-size="14.00" fill="#000000">binaries should be linked</text>
<text text-anchor="middle" x="400" y="-181.8" font-family="Times,serif" font-size="14.00" fill="#000000">from ZFND website</text>
</a>
</g>
</g>
<!-- ZcashFoundation/zebra#3050 -->
<g id="node2" class="node open">
<title>ZcashFoundation/zebra#3050</title>
<g id="a_node2"><a xlink:href="https://github.com/ZcashFoundation/zebra/issues/3050" xlink:title="ZcashFoundation/zebra#3050&#10;Tag Zebra 1.0.0&#45;rc.0&#10;stable release candidate" target="_blank">
<polygon fill="#a7c2aa" stroke="#000000" points="516,-313.5 284,-313.5 284,-260.5 516,-260.5 516,-313.5"/>
<text text-anchor="middle" x="400" y="-298.3" font-family="Times,serif" font-size="14.00" fill="#000000">ZcashFoundation/zebra#3050</text>
<text text-anchor="middle" x="400" y="-283.3" font-family="Times,serif" font-size="14.00" fill="#000000">Tag Zebra 1.0.0&#45;rc.0</text>
<text text-anchor="middle" x="400" y="-268.3" font-family="Times,serif" font-size="14.00" fill="#000000">stable release candidate</text>
</a>
</g>
</g>
<!-- ZcashFoundation/zebra#4955 -->
<g id="node9" class="node open">
<title>ZcashFoundation/zebra#4955</title>
<g id="a_node9"><a xlink:href="https://github.com/ZcashFoundation/zebra/issues/4955" xlink:title="ZcashFoundation/zebra#4955&#10;Make long&#45;running test&#10;names match workflow&#10;names" target="_blank">
<polygon fill="#c2e0c6" stroke="#000000" points="248,-1047 16,-1047 16,-979 248,-979 248,-1047"/>
<text text-anchor="middle" x="132" y="-1031.8" font-family="Times,serif" font-size="14.00" fill="#000000">ZcashFoundation/zebra#4955</text>
<text text-anchor="middle" x="132" y="-1016.8" font-family="Times,serif" font-size="14.00" fill="#000000">Make long&#45;running test</text>
<text text-anchor="middle" x="132" y="-1001.8" font-family="Times,serif" font-size="14.00" fill="#000000">names match workflow</text>
<text text-anchor="middle" x="132" y="-986.8" font-family="Times,serif" font-size="14.00" fill="#000000">names</text>
</a>
</g>
</g>
<!-- ZcashFoundation/zebra#3050&#45;&gt;ZcashFoundation/zebra#4955 -->
<g id="edge4" class="edge">
<title>ZcashFoundation/zebra#3050&#45;&gt;ZcashFoundation/zebra#4955</title>
<path fill="none" stroke="#000000" d="M316.12,-313.63C300.35,-322.43 285.77,-333.96 276,-349 238.37,-406.92 288.72,-914.21 248,-970 247.72,-970.39 247.43,-970.78 247.13,-971.16"/>
<polygon fill="#000000" stroke="#000000" points="244.4551,-968.9013 240.45,-978.71 249.6977,-973.5398 244.4551,-968.9013"/>
</g>
<!-- ZcashFoundation/zebra#4992 -->
<g id="node11" class="node open">
<title>ZcashFoundation/zebra#4992</title>
<g id="a_node11"><a xlink:href="https://github.com/ZcashFoundation/zebra/issues/4992" xlink:title="ZcashFoundation/zebra#4992&#10;Run cached state CI on&#10;testnet" target="_blank">
<polygon fill="#c2e0c6" stroke="#000000" points="248,-1204.5 16,-1204.5 16,-1151.5 248,-1151.5 248,-1204.5"/>
<text text-anchor="middle" x="132" y="-1189.3" font-family="Times,serif" font-size="14.00" fill="#000000">ZcashFoundation/zebra#4992</text>
<text text-anchor="middle" x="132" y="-1174.3" font-family="Times,serif" font-size="14.00" fill="#000000">Run cached state CI on</text>
<text text-anchor="middle" x="132" y="-1159.3" font-family="Times,serif" font-size="14.00" fill="#000000">testnet</text>
</a>
</g>
</g>
<!-- ZcashFoundation/zebra#3050&#45;&gt;ZcashFoundation/zebra#4992 -->
<g id="edge5" class="edge">
<title>ZcashFoundation/zebra#3050&#45;&gt;ZcashFoundation/zebra#4992</title>
<path fill="none" stroke="#000000" d="M316.01,-313.56C300.25,-322.36 285.69,-333.92 276,-349 228.33,-423.17 301.54,-1072 248,-1142 247.52,-1142.6 247.03,-1143.2 246.53,-1143.9"/>
<polygon fill="#000000" stroke="#000000" points="243.9029,-1141.5817 239.46,-1151.2 248.9312,-1146.4516 243.9029,-1141.5817"/>
</g>
<!-- ZcashFoundation/zebra#4967 -->
<g id="node17" class="node open">
<title>ZcashFoundation/zebra#4967</title>
<g id="a_node17"><a xlink:href="https://github.com/ZcashFoundation/zebra/pull/4967" xlink:title="ZcashFoundation/zebra#4967&#10;feat(rpc): add&#10;getblockhash rpc method" target="_blank">
<polygon fill="#a7c2aa" stroke="#000000" points="784,-313.5 552,-313.5 552,-309.5 548,-309.5 548,-305.5 552,-305.5 552,-268.5 548,-268.5 548,-264.5 552,-264.5 552,-260.5 784,-260.5 784,-313.5"/>
<polyline fill="none" stroke="#000000" points="552,-309.5 556,-309.5 556,-305.5 552,-305.5 "/>
<polyline fill="none" stroke="#000000" points="552,-268.5 556,-268.5 556,-264.5 552,-264.5 "/>
<text text-anchor="middle" x="668" y="-298.3" font-family="Times,serif" font-size="14.00" fill="#000000">ZcashFoundation/zebra#4967</text>
<text text-anchor="middle" x="668" y="-283.3" font-family="Times,serif" font-size="14.00" fill="#000000">feat(rpc): add</text>
<text text-anchor="middle" x="668" y="-268.3" font-family="Times,serif" font-size="14.00" fill="#000000">getblockhash rpc method</text>
</a>
</g>
</g>
<!-- ZcashFoundation/zebra#3050&#45;&gt;ZcashFoundation/zebra#4967 -->
<g id="edge6" class="edge">
<title>ZcashFoundation/zebra#3050&#45;&gt;ZcashFoundation/zebra#4967</title>
<path fill="none" stroke="#000000" d="M516.38,-287C524.71,-287 533.14,-287 541.53,-287"/>
<polygon fill="#000000" stroke="#000000" points="541.74,-290.5001 551.74,-287 541.74,-283.5001 541.74,-290.5001"/>
</g>
<!-- ZcashFoundation/zebra#5168 -->
<g id="node3" class="node open">
<title>ZcashFoundation/zebra#5168</title>
<g id="a_node3"><a xlink:href="https://github.com/ZcashFoundation/zebra/issues/5168" xlink:title="ZcashFoundation/zebra#5168&#10;Add Docker tests for&#10;default config and&#10;$ZEBRA_CONF_PATH" target="_blank">
<polygon fill="#c2e0c6" stroke="#000000" stroke-width="2" points="516,-156 284,-156 284,-88 516,-88 516,-156"/>
<text text-anchor="middle" x="400" y="-140.8" font-family="Times,serif" font-size="14.00" fill="#000000">ZcashFoundation/zebra#5168</text>
<text text-anchor="middle" x="400" y="-125.8" font-family="Times,serif" font-size="14.00" fill="#000000">Add Docker tests for</text>
<text text-anchor="middle" x="400" y="-110.8" font-family="Times,serif" font-size="14.00" fill="#000000">default config and</text>
<text text-anchor="middle" x="400" y="-95.8" font-family="Times,serif" font-size="14.00" fill="#000000">$ZEBRA_CONF_PATH</text>
</a>
</g>
</g>
<!-- ZcashFoundation/zebra#1638 -->
<g id="node4" class="node open">
<title>ZcashFoundation/zebra#1638</title>
<g id="a_node4"><a xlink:href="https://github.com/ZcashFoundation/zebra/issues/1638" xlink:title="ZcashFoundation/zebra#1638&#10;Create PGP keys amongst&#10;security@zfnd.org" target="_blank">
<polygon fill="#c2e0c6" stroke="#000000" stroke-width="2" points="516,-69.5 284,-69.5 284,-16.5 516,-16.5 516,-69.5"/>
<text text-anchor="middle" x="400" y="-54.3" font-family="Times,serif" font-size="14.00" fill="#000000">ZcashFoundation/zebra#1638</text>
<text text-anchor="middle" x="400" y="-39.3" font-family="Times,serif" font-size="14.00" fill="#000000">Create PGP keys amongst</text>
<text text-anchor="middle" x="400" y="-24.3" font-family="Times,serif" font-size="14.00" fill="#000000">security@zfnd.org</text>
</a>
</g>
</g>
<!-- ZcashFoundation/zebra#4953 -->
<g id="node5" class="node open">
<title>ZcashFoundation/zebra#4953</title>
<g id="a_node5"><a xlink:href="https://github.com/ZcashFoundation/zebra/issues/4953" xlink:title="ZcashFoundation/zebra#4953&#10;Document how to use&#10;released Zebra binaries" target="_blank">
<polygon fill="#c2e0c6" stroke="#000000" stroke-width="2" points="248,-874.5 16,-874.5 16,-821.5 248,-821.5 248,-874.5"/>
<text text-anchor="middle" x="132" y="-859.3" font-family="Times,serif" font-size="14.00" fill="#000000">ZcashFoundation/zebra#4953</text>
<text text-anchor="middle" x="132" y="-844.3" font-family="Times,serif" font-size="14.00" fill="#000000">Document how to use</text>
<text text-anchor="middle" x="132" y="-829.3" font-family="Times,serif" font-size="14.00" fill="#000000">released Zebra binaries</text>
</a>
</g>
</g>
<!-- ZcashFoundation/zebra#4953&#45;&gt;ZcashFoundation/zebra#1615 -->
<g id="edge2" class="edge">
<title>ZcashFoundation/zebra#4953&#45;&gt;ZcashFoundation/zebra#1615</title>
<path fill="none" stroke="#000000" d="M239.4,-821.12C242.53,-818.36 245.41,-815.33 248,-812 324.52,-713.38 201.11,-350.86 276,-251 276.29,-250.61 276.58,-250.23 276.88,-249.85"/>
<polygon fill="#000000" stroke="#000000" points="279.5447,-252.1213 283.64,-242.35 274.345,-247.4347 279.5447,-252.1213"/>
</g>
<!-- ZcashFoundation/zebra#4954 -->
<g id="node6" class="node open">
<title>ZcashFoundation/zebra#4954</title>
<g id="a_node6"><a xlink:href="https://github.com/ZcashFoundation/zebra/issues/4954" xlink:title="ZcashFoundation/zebra#4954&#10;Update release checklist&#10;PR template for the&#10;release candidate series" target="_blank">
<polygon fill="#c2e0c6" stroke="#000000" stroke-width="2" points="248,-961 16,-961 16,-893 248,-893 248,-961"/>
<text text-anchor="middle" x="132" y="-945.8" font-family="Times,serif" font-size="14.00" fill="#000000">ZcashFoundation/zebra#4954</text>
<text text-anchor="middle" x="132" y="-930.8" font-family="Times,serif" font-size="14.00" fill="#000000">Update release checklist</text>
<text text-anchor="middle" x="132" y="-915.8" font-family="Times,serif" font-size="14.00" fill="#000000">PR template for the</text>
<text text-anchor="middle" x="132" y="-900.8" font-family="Times,serif" font-size="14.00" fill="#000000">release candidate series</text>
</a>
</g>
</g>
<!-- ZcashFoundation/zebra#4954&#45;&gt;ZcashFoundation/zebra#3050 -->
<g id="edge3" class="edge">
<title>ZcashFoundation/zebra#4954&#45;&gt;ZcashFoundation/zebra#3050</title>
<path fill="none" stroke="#000000" d="M239.51,-892.64C242.61,-889.68 245.46,-886.48 248,-883 318.04,-787 210.9,-448.41 276,-349 284.03,-336.73 295.27,-326.79 307.73,-318.76"/>
<polygon fill="#000000" stroke="#000000" points="309.7294,-321.6426 316.52,-313.51 306.14,-315.6329 309.7294,-321.6426"/>
</g>
<!-- ZcashFoundation/zebra#4412 -->
<g id="node7" class="node open">
<title>ZcashFoundation/zebra#4412</title>
<g id="a_node7"><a xlink:href="https://github.com/ZcashFoundation/zebra/issues/4412" xlink:title="ZcashFoundation/zebra#4412&#10;Automate pinning CI&#10;dependencies to specific&#10;commit hashes" target="_blank">
<polygon fill="#c2e0c6" stroke="#000000" stroke-width="2" points="248,-1133 16,-1133 16,-1065 248,-1065 248,-1133"/>
<text text-anchor="middle" x="132" y="-1117.8" font-family="Times,serif" font-size="14.00" fill="#000000">ZcashFoundation/zebra#4412</text>
<text text-anchor="middle" x="132" y="-1102.8" font-family="Times,serif" font-size="14.00" fill="#000000">Automate pinning CI</text>
<text text-anchor="middle" x="132" y="-1087.8" font-family="Times,serif" font-size="14.00" fill="#000000">dependencies to specific</text>
<text text-anchor="middle" x="132" y="-1072.8" font-family="Times,serif" font-size="14.00" fill="#000000">commit hashes</text>
</a>
</g>
</g>
<!-- ZcashFoundation/zebra#4612 -->
<g id="node8" class="node open">
<title>ZcashFoundation/zebra#4612</title>
<g id="a_node8"><a xlink:href="https://github.com/ZcashFoundation/zebra/issues/4612" xlink:title="ZcashFoundation/zebra#4612&#10;ci: Wait for lightwalletd&#10;image rebuild if it has&#10;changed" target="_blank">
<polygon fill="#c2e0c6" stroke="#000000" points="516,-1291 284,-1291 284,-1223 516,-1223 516,-1291"/>
<text text-anchor="middle" x="400" y="-1275.8" font-family="Times,serif" font-size="14.00" fill="#000000">ZcashFoundation/zebra#4612</text>
<text text-anchor="middle" x="400" y="-1260.8" font-family="Times,serif" font-size="14.00" fill="#000000">ci: Wait for lightwalletd</text>
<text text-anchor="middle" x="400" y="-1245.8" font-family="Times,serif" font-size="14.00" fill="#000000">image rebuild if it has</text>
<text text-anchor="middle" x="400" y="-1230.8" font-family="Times,serif" font-size="14.00" fill="#000000">changed</text>
</a>
</g>
</g>
<!-- ZcashFoundation/zebra#4882 -->
<g id="node10" class="node open">
<title>ZcashFoundation/zebra#4882</title>
<g id="a_node10"><a xlink:href="https://github.com/ZcashFoundation/zebra/issues/4882" xlink:title="ZcashFoundation/zebra#4882&#10;Add zcash&#45;lightwalletd /&#10;Build images to required&#10;jobs" target="_blank">
<polygon fill="#c2e0c6" stroke="#000000" stroke-width="2" points="248,-1291 16,-1291 16,-1223 248,-1223 248,-1291"/>
<text text-anchor="middle" x="132" y="-1275.8" font-family="Times,serif" font-size="14.00" fill="#000000">ZcashFoundation/zebra#4882</text>
<text text-anchor="middle" x="132" y="-1260.8" font-family="Times,serif" font-size="14.00" fill="#000000">Add zcash&#45;lightwalletd /</text>
<text text-anchor="middle" x="132" y="-1245.8" font-family="Times,serif" font-size="14.00" fill="#000000">Build images to required</text>
<text text-anchor="middle" x="132" y="-1230.8" font-family="Times,serif" font-size="14.00" fill="#000000">jobs</text>
</a>
</g>
</g>
<!-- ZcashFoundation/zebra#4882&#45;&gt;ZcashFoundation/zebra#4612 -->
<g id="edge1" class="edge">
<title>ZcashFoundation/zebra#4882&#45;&gt;ZcashFoundation/zebra#4612</title>
<path fill="none" stroke="#000000" d="M248.38,-1257C256.71,-1257 265.14,-1257 273.53,-1257"/>
<polygon fill="#000000" stroke="#000000" points="273.74,-1260.5001 283.74,-1257 273.74,-1253.5001 273.74,-1260.5001"/>
</g>
<!-- ZcashFoundation/zebra#4554 -->
<g id="node12" class="node open">
<title>ZcashFoundation/zebra#4554</title>
<g id="a_node12"><a xlink:href="https://github.com/ZcashFoundation/zebra/issues/4554" xlink:title="ZcashFoundation/zebra#4554&#10;benchmarks: surface&#10;zebrad mainnet sync time&#10;in CI" target="_blank">
<polygon fill="#c2e0c6" stroke="#000000" stroke-width="2" points="248,-803 16,-803 16,-735 248,-735 248,-803"/>
<text text-anchor="middle" x="132" y="-787.8" font-family="Times,serif" font-size="14.00" fill="#000000">ZcashFoundation/zebra#4554</text>
<text text-anchor="middle" x="132" y="-772.8" font-family="Times,serif" font-size="14.00" fill="#000000">benchmarks: surface</text>
<text text-anchor="middle" x="132" y="-757.8" font-family="Times,serif" font-size="14.00" fill="#000000">zebrad mainnet sync time</text>
<text text-anchor="middle" x="132" y="-742.8" font-family="Times,serif" font-size="14.00" fill="#000000">in CI</text>
</a>
</g>
</g>
<!-- ZcashFoundation/zebra#4529 -->
<g id="node13" class="node open">
<title>ZcashFoundation/zebra#4529</title>
<g id="a_node13"><a xlink:href="https://github.com/ZcashFoundation/zebra/issues/4529" xlink:title="ZcashFoundation/zebra#4529&#10;Make PRs from external&#10;repositories pass or skip&#10;CI jobs" target="_blank">
<polygon fill="#c2e0c6" stroke="#000000" stroke-width="2" points="248,-717 16,-717 16,-649 248,-649 248,-717"/>
<text text-anchor="middle" x="132" y="-701.8" font-family="Times,serif" font-size="14.00" fill="#000000">ZcashFoundation/zebra#4529</text>
<text text-anchor="middle" x="132" y="-686.8" font-family="Times,serif" font-size="14.00" fill="#000000">Make PRs from external</text>
<text text-anchor="middle" x="132" y="-671.8" font-family="Times,serif" font-size="14.00" fill="#000000">repositories pass or skip</text>
<text text-anchor="middle" x="132" y="-656.8" font-family="Times,serif" font-size="14.00" fill="#000000">CI jobs</text>
</a>
</g>
</g>
<!-- ZcashFoundation/zebra#4956 -->
<g id="node14" class="node open">
<title>ZcashFoundation/zebra#4956</title>
<g id="a_node14"><a xlink:href="https://github.com/ZcashFoundation/zebra/issues/4956" xlink:title="ZcashFoundation/zebra#4956&#10;Make file locations&#10;appear in zebrad Docker&#10;error messages" target="_blank">
<polygon fill="#c2e0c6" stroke="#000000" stroke-width="2" points="248,-631 16,-631 16,-563 248,-563 248,-631"/>
<text text-anchor="middle" x="132" y="-615.8" font-family="Times,serif" font-size="14.00" fill="#000000">ZcashFoundation/zebra#4956</text>
<text text-anchor="middle" x="132" y="-600.8" font-family="Times,serif" font-size="14.00" fill="#000000">Make file locations</text>
<text text-anchor="middle" x="132" y="-585.8" font-family="Times,serif" font-size="14.00" fill="#000000">appear in zebrad Docker</text>
<text text-anchor="middle" x="132" y="-570.8" font-family="Times,serif" font-size="14.00" fill="#000000">error messages</text>
</a>
</g>
</g>
<!-- ZcashFoundation/zebra#4976 -->
<g id="node15" class="node open">
<title>ZcashFoundation/zebra#4976</title>
<g id="a_node15"><a xlink:href="https://github.com/ZcashFoundation/zebra/issues/4976" xlink:title="ZcashFoundation/zebra#4976&#10;Move continuous&#10;deployment to another&#10;Google Cloud region" target="_blank">
<polygon fill="#c2e0c6" stroke="#000000" stroke-width="2" points="248,-545 16,-545 16,-477 248,-477 248,-545"/>
<text text-anchor="middle" x="132" y="-529.8" font-family="Times,serif" font-size="14.00" fill="#000000">ZcashFoundation/zebra#4976</text>
<text text-anchor="middle" x="132" y="-514.8" font-family="Times,serif" font-size="14.00" fill="#000000">Move continuous</text>
<text text-anchor="middle" x="132" y="-499.8" font-family="Times,serif" font-size="14.00" fill="#000000">deployment to another</text>
<text text-anchor="middle" x="132" y="-484.8" font-family="Times,serif" font-size="14.00" fill="#000000">Google Cloud region</text>
</a>
</g>
</g>
<!-- ZcashFoundation/zebra#4946 -->
<g id="node16" class="node open">
<title>ZcashFoundation/zebra#4946</title>
<g id="a_node16"><a xlink:href="https://github.com/ZcashFoundation/zebra/issues/4946" xlink:title="ZcashFoundation/zebra#4946&#10;Managed instance groups&#10;deployed with continuous&#10;deployment can&#39;t scale&#10;beyond 1 instance per&#10;Zone" target="_blank">
<polygon fill="#c2e0c6" stroke="#000000" stroke-width="2" points="248,-459 16,-459 16,-361 248,-361 248,-459"/>
<text text-anchor="middle" x="132" y="-443.8" font-family="Times,serif" font-size="14.00" fill="#000000">ZcashFoundation/zebra#4946</text>
<text text-anchor="middle" x="132" y="-428.8" font-family="Times,serif" font-size="14.00" fill="#000000">Managed instance groups</text>
<text text-anchor="middle" x="132" y="-413.8" font-family="Times,serif" font-size="14.00" fill="#000000">deployed with continuous</text>
<text text-anchor="middle" x="132" y="-398.8" font-family="Times,serif" font-size="14.00" fill="#000000">deployment can&#39;t scale</text>
<text text-anchor="middle" x="132" y="-383.8" font-family="Times,serif" font-size="14.00" fill="#000000">beyond 1 instance per</text>
<text text-anchor="middle" x="132" y="-368.8" font-family="Times,serif" font-size="14.00" fill="#000000">Zone</text>
</a>
</g>
</g>
<!-- ZcashFoundation/zebra#5189 -->
<g id="node18" class="node open">
<title>ZcashFoundation/zebra#5189</title>
<g id="a_node18"><a xlink:href="https://github.com/ZcashFoundation/zebra/issues/5189" xlink:title="ZcashFoundation/zebra#5189&#10;Run some docker tests on&#10;smaller instances" target="_blank">
<polygon fill="#c2e0c6" stroke="#000000" points="516,-1390.5 284,-1390.5 284,-1337.5 516,-1337.5 516,-1390.5"/>
<text text-anchor="middle" x="400" y="-1375.3" font-family="Times,serif" font-size="14.00" fill="#000000">ZcashFoundation/zebra#5189</text>
<text text-anchor="middle" x="400" y="-1360.3" font-family="Times,serif" font-size="14.00" fill="#000000">Run some docker tests on</text>
<text text-anchor="middle" x="400" y="-1345.3" font-family="Times,serif" font-size="14.00" fill="#000000">smaller instances</text>
</a>
</g>
</g>
<!-- ZcashFoundation/zebra#5199 -->
<g id="node19" class="node open">
<title>ZcashFoundation/zebra#5199</title>
<g id="a_node19"><a xlink:href="https://github.com/ZcashFoundation/zebra/issues/5199" xlink:title="ZcashFoundation/zebra#5199&#10;Consider using `nextest`&#10;to run tests faster and&#10;reduce Google Cloud costs" target="_blank">
<polygon fill="#c2e0c6" stroke="#000000" stroke-width="2" points="248,-1398 16,-1398 16,-1330 248,-1330 248,-1398"/>
<text text-anchor="middle" x="132" y="-1382.8" font-family="Times,serif" font-size="14.00" fill="#000000">ZcashFoundation/zebra#5199</text>
<text text-anchor="middle" x="132" y="-1367.8" font-family="Times,serif" font-size="14.00" fill="#000000">Consider using `nextest`</text>
<text text-anchor="middle" x="132" y="-1352.8" font-family="Times,serif" font-size="14.00" fill="#000000">to run tests faster and</text>
<text text-anchor="middle" x="132" y="-1337.8" font-family="Times,serif" font-size="14.00" fill="#000000">reduce Google Cloud costs</text>
</a>
</g>
</g>
<!-- ZcashFoundation/zebra#5199&#45;&gt;ZcashFoundation/zebra#5189 -->
<g id="edge7" class="edge">
<title>ZcashFoundation/zebra#5199&#45;&gt;ZcashFoundation/zebra#5189</title>
<path fill="none" stroke="#000000" d="M248.38,-1364C256.71,-1364 265.14,-1364 273.53,-1364"/>
<polygon fill="#000000" stroke="#000000" points="273.74,-1367.5001 283.74,-1364 273.74,-1360.5001 273.74,-1367.5001"/>
</g>
</g>
</svg>
