<?xml version="1.0" encoding="UTF-8" standalone="no"?>
<?xml-stylesheet href="zcash-dag.css" type="text/css"?>
<!DOCTYPE svg PUBLIC "-//W3C//DTD SVG 1.1//EN"
 "http://www.w3.org/Graphics/SVG/1.1/DTD/svg11.dtd">
<!-- Generated by graphviz version 2.40.1 (20161225.0304)
 -->
<!-- Pages: 1 -->
<svg width="784pt" height="762pt"
 viewBox="0.00 0.00 784.00 761.50" xmlns="http://www.w3.org/2000/svg" xmlns:xlink="http://www.w3.org/1999/xlink">
<g id="graph0" class="graph" transform="scale(1 1) rotate(0) translate(4 757.5)">
<polygon fill="#ffffff" stroke="transparent" points="-4,4 -4,-757.5 780,-757.5 780,4 -4,4"/>
<g id="clust1" class="cluster">
<title>cluster_0</title>
<polygon fill="none" stroke="#0000ff" points="0,-156.5 0,-249.5 516,-249.5 516,-156.5 0,-156.5"/>
<text text-anchor="middle" x="258" y="-234.3" font-family="Times,serif" font-size="14.00" fill="#000000">Epic: Zebra Release Candidate</text>
</g>
<!-- ZcashFoundation/zebra#5445 -->
<g id="node1" class="node open">
<title>ZcashFoundation/zebra#5445</title>
<g id="a_node1"><a xlink:href="https://github.com/ZcashFoundation/zebra/issues/5445" xlink:title="ZcashFoundation/zebra#5445&#10;Bump `zcash_proofs` to&#10;0.8.0" target="_blank">
<polygon fill="#c2e0c6" stroke="#000000" stroke-width="2" points="240,-218 8,-218 8,-165 240,-165 240,-218"/>
<text text-anchor="middle" x="124" y="-202.8" font-family="Times,serif" font-size="14.00" fill="#000000">ZcashFoundation/zebra#5445</text>
<text text-anchor="middle" x="124" y="-187.8" font-family="Times,serif" font-size="14.00" fill="#000000">Bump `zcash_proofs` to</text>
<text text-anchor="middle" x="124" y="-172.8" font-family="Times,serif" font-size="14.00" fill="#000000">0.8.0</text>
</a>
</g>
</g>
<!-- ZcashFoundation/zebra#5423 -->
<g id="node2" class="node open">
<title>ZcashFoundation/zebra#5423</title>
<g id="a_node2"><a xlink:href="https://github.com/ZcashFoundation/zebra/issues/5423" xlink:title="ZcashFoundation/zebra#5423&#10;Tag Zebra 1.0.0&#45;rc.1" target="_blank">
<polygon fill="#a7c2aa" stroke="#000000" points="508,-218.5 276,-218.5 276,-180.5 508,-180.5 508,-218.5"/>
<text text-anchor="middle" x="392" y="-203.3" font-family="Times,serif" font-size="14.00" fill="#000000">ZcashFoundation/zebra#5423</text>
<text text-anchor="middle" x="392" y="-188.3" font-family="Times,serif" font-size="14.00" fill="#000000">Tag Zebra 1.0.0&#45;rc.1</text>
</a>
</g>
</g>
<!-- ZcashFoundation/zebra#5445&#45;&gt;ZcashFoundation/zebra#5423 -->
<g id="edge1" class="edge">
<title>ZcashFoundation/zebra#5445&#45;&gt;ZcashFoundation/zebra#5423</title>
<path fill="none" stroke="#000000" d="M240.38,-194.97C248.71,-195.22 257.14,-195.47 265.53,-195.72"/>
<polygon fill="#000000" stroke="#000000" points="265.6384,-199.2248 275.74,-196.03 265.8509,-192.228 265.6384,-199.2248"/>
</g>
<!-- ZcashFoundation/zebra#5395 -->
<g id="node3" class="node open">
<title>ZcashFoundation/zebra#5395</title>
<g id="a_node3"><a xlink:href="https://github.com/ZcashFoundation/zebra/pull/5395" xlink:title="ZcashFoundation/zebra#5395&#10;docs(audit): List of&#10;dependencies" target="_blank">
<polygon fill="#a7c2aa" stroke="#000000" points="776,-179 544,-179 544,-175 540,-175 540,-171 544,-171 544,-134 540,-134 540,-130 544,-130 544,-126 776,-126 776,-179"/>
<polyline fill="none" stroke="#000000" points="544,-175 548,-175 548,-171 544,-171 "/>
<polyline fill="none" stroke="#000000" points="544,-134 548,-134 548,-130 544,-130 "/>
<text text-anchor="middle" x="660" y="-163.8" font-family="Times,serif" font-size="14.00" fill="#000000">ZcashFoundation/zebra#5395</text>
<text text-anchor="middle" x="660" y="-148.8" font-family="Times,serif" font-size="14.00" fill="#000000">docs(audit): List of</text>
<text text-anchor="middle" x="660" y="-133.8" font-family="Times,serif" font-size="14.00" fill="#000000">dependencies</text>
</a>
</g>
</g>
<!-- ZcashFoundation/zebra#5445&#45;&gt;ZcashFoundation/zebra#5395 -->
<g id="edge2" class="edge">
<title>ZcashFoundation/zebra#5445&#45;&gt;ZcashFoundation/zebra#5395</title>
<path fill="none" stroke="#000000" d="M240.08,-175.24C252.19,-173.84 264.34,-172.55 276,-171.5 361.71,-163.75 458.49,-158.99 533.45,-156.17"/>
<polygon fill="#000000" stroke="#000000" points="534.0141,-159.6519 543.88,-155.79 533.7592,-152.6565 534.0141,-159.6519"/>
</g>
<!-- ZcashFoundation/zebra#3831 -->
<g id="node4" class="node open">
<title>ZcashFoundation/zebra#3831</title>
<g id="a_node4"><a xlink:href="https://github.com/ZcashFoundation/zebra/issues/3831" xlink:title="ZcashFoundation/zebra#3831&#10;Remove duplicated&#10;zcash_proofs" target="_blank">
<polygon fill="#a7c2aa" stroke="#000000" points="508,-124 276,-124 276,-71 508,-71 508,-124"/>
<text text-anchor="middle" x="392" y="-108.8" font-family="Times,serif" font-size="14.00" fill="#000000">ZcashFoundation/zebra#3831</text>
<text text-anchor="middle" x="392" y="-93.8" font-family="Times,serif" font-size="14.00" fill="#000000">Remove duplicated</text>
<text text-anchor="middle" x="392" y="-78.8" font-family="Times,serif" font-size="14.00" fill="#000000">zcash_proofs</text>
</a>
</g>
</g>
<!-- ZcashFoundation/zebra#5445&#45;&gt;ZcashFoundation/zebra#3831 -->
<g id="edge3" class="edge">
<title>ZcashFoundation/zebra#5445&#45;&gt;ZcashFoundation/zebra#3831</title>
<path fill="none" stroke="#000000" d="M199.72,-164.94C232.97,-153.28 272.17,-139.53 306.46,-127.5"/>
<polygon fill="#000000" stroke="#000000" points="307.7183,-130.7679 316,-124.16 305.4052,-124.1611 307.7183,-130.7679"/>
</g>
<!-- ZcashFoundation/zebra#5091 -->
<g id="node5" class="node open">
<title>ZcashFoundation/zebra#5091</title>
<g id="a_node5"><a xlink:href="https://github.com/ZcashFoundation/zebra/issues/5091" xlink:title="ZcashFoundation/zebra#5091&#10;Fix parameter download&#10;hangs with Rust 1.64" target="_blank">
<polygon fill="#c2e0c6" stroke="#000000" points="508,-53 276,-53 276,0 508,0 508,-53"/>
<text text-anchor="middle" x="392" y="-37.8" font-family="Times,serif" font-size="14.00" fill="#000000">ZcashFoundation/zebra#5091</text>
<text text-anchor="middle" x="392" y="-22.8" font-family="Times,serif" font-size="14.00" fill="#000000">Fix parameter download</text>
<text text-anchor="middle" x="392" y="-7.8" font-family="Times,serif" font-size="14.00" fill="#000000">hangs with Rust 1.64</text>
</a>
</g>
</g>
<!-- ZcashFoundation/zebra#5445&#45;&gt;ZcashFoundation/zebra#5091 -->
<g id="edge4" class="edge">
<title>ZcashFoundation/zebra#5445&#45;&gt;ZcashFoundation/zebra#5091</title>
<path fill="none" stroke="#000000" d="M148.4,-164.85C176.53,-135.6 225.42,-89.15 276,-61.5 278.68,-60.034 281.43,-58.621 284.24,-57.261"/>
<polygon fill="#000000" stroke="#000000" points="285.7127,-60.4362 293.35,-53.093 282.8004,-54.0708 285.7127,-60.4362"/>
</g>
<!-- ZcashFoundation/zebra#5423&#45;&gt;ZcashFoundation/zebra#5395 -->
<g id="edge5" class="edge">
<title>ZcashFoundation/zebra#5423&#45;&gt;ZcashFoundation/zebra#5395</title>
<path fill="none" stroke="#000000" d="M500.62,-180.45C511.51,-178.54 522.62,-176.59 533.67,-174.65"/>
<polygon fill="#000000" stroke="#000000" points="534.5426,-178.0506 543.79,-172.88 533.3365,-171.1553 534.5426,-178.0506"/>
</g>
<!-- ZcashFoundation/zebra#3831&#45;&gt;ZcashFoundation/zebra#5423 -->
<g id="edge6" class="edge">
<title>ZcashFoundation/zebra#3831&#45;&gt;ZcashFoundation/zebra#5423</title>
<path fill="none" stroke="#000000" d="M392,-124.2C392,-139.56 392,-154.92 392,-170.28"/>
<polygon fill="#000000" stroke="#000000" points="388.5001,-170.38 392,-180.38 395.5001,-170.38 388.5001,-170.38"/>
</g>
<!-- ZcashFoundation/zebra#3831&#45;&gt;ZcashFoundation/zebra#5395 -->
<g id="edge7" class="edge">
<title>ZcashFoundation/zebra#3831&#45;&gt;ZcashFoundation/zebra#5395</title>
<path fill="none" stroke="#000000" d="M508.38,-121.38C516.81,-123.11 525.33,-124.86 533.81,-126.6"/>
<polygon fill="#000000" stroke="#000000" points="533.2402,-130.056 543.74,-128.64 534.6489,-123.1992 533.2402,-130.056"/>
</g>
<!-- ZcashFoundation/zebra#4412 -->
<g id="node6" class="node open">
<title>ZcashFoundation/zebra#4412</title>
<g id="a_node6"><a xlink:href="https://github.com/ZcashFoundation/zebra/issues/4412" xlink:title="ZcashFoundation/zebra#4412&#10;Automate pinning CI&#10;dependencies to specific&#10;commit hashes" target="_blank">
<polygon fill="#c2e0c6" stroke="#000000" stroke-width="2" points="240,-325.5 8,-325.5 8,-257.5 240,-257.5 240,-325.5"/>
<text text-anchor="middle" x="124" y="-310.3" font-family="Times,serif" font-size="14.00" fill="#000000">ZcashFoundation/zebra#4412</text>
<text text-anchor="middle" x="124" y="-295.3" font-family="Times,serif" font-size="14.00" fill="#000000">Automate pinning CI</text>
<text text-anchor="middle" x="124" y="-280.3" font-family="Times,serif" font-size="14.00" fill="#000000">dependencies to specific</text>
<text text-anchor="middle" x="124" y="-265.3" font-family="Times,serif" font-size="14.00" fill="#000000">commit hashes</text>
</a>
</g>
</g>
<!-- ZcashFoundation/zebra#4612 -->
<g id="node7" class="node closed">
<title>ZcashFoundation/zebra#4612</title>
<g id="a_node7"><a xlink:href="https://github.com/ZcashFoundation/zebra/issues/4612" xlink:title="ZcashFoundation/zebra#4612&#10;ci: Wait for lightwalletd&#10;image rebuild if it has&#10;changed" target="_blank">
<polygon fill="#fad8c7" stroke="#000000" points="508,-411.5 276,-411.5 276,-343.5 508,-343.5 508,-411.5"/>
<text text-anchor="middle" x="392" y="-396.3" font-family="Times,serif" font-size="14.00" fill="#000000">ZcashFoundation/zebra#4612</text>
<text text-anchor="middle" x="392" y="-381.3" font-family="Times,serif" font-size="14.00" fill="#000000">ci: Wait for lightwalletd</text>
<text text-anchor="middle" x="392" y="-366.3" font-family="Times,serif" font-size="14.00" fill="#000000">image rebuild if it has</text>
<text text-anchor="middle" x="392" y="-351.3" font-family="Times,serif" font-size="14.00" fill="#000000">changed</text>
</a>
</g>
</g>
<!-- ZcashFoundation/zebra#5153 -->
<g id="node8" class="node open">
<title>ZcashFoundation/zebra#5153</title>
<g id="a_node8"><a xlink:href="https://github.com/ZcashFoundation/zebra/issues/5153" xlink:title="ZcashFoundation/zebra#5153&#10;Tag Google Cloud&#10;instances with the name&#10;of the test or workflow" target="_blank">
<polygon fill="#c2e0c6" stroke="#000000" stroke-width="2" points="240,-581.5 8,-581.5 8,-513.5 240,-513.5 240,-581.5"/>
<text text-anchor="middle" x="124" y="-566.3" font-family="Times,serif" font-size="14.00" fill="#000000">ZcashFoundation/zebra#5153</text>
<text text-anchor="middle" x="124" y="-551.3" font-family="Times,serif" font-size="14.00" fill="#000000">Tag Google Cloud</text>
<text text-anchor="middle" x="124" y="-536.3" font-family="Times,serif" font-size="14.00" fill="#000000">instances with the name</text>
<text text-anchor="middle" x="124" y="-521.3" font-family="Times,serif" font-size="14.00" fill="#000000">of the test or workflow</text>
</a>
</g>
</g>
<!-- ZcashFoundation/zebra#5189 -->
<g id="node9" class="node closed">
<title>ZcashFoundation/zebra#5189</title>
<g id="a_node9"><a xlink:href="https://github.com/ZcashFoundation/zebra/issues/5189" xlink:title="ZcashFoundation/zebra#5189&#10;Run some docker tests on&#10;smaller instances" target="_blank">
<polygon fill="#fad8c7" stroke="#000000" points="508,-657 276,-657 276,-604 508,-604 508,-657"/>
<text text-anchor="middle" x="392" y="-641.8" font-family="Times,serif" font-size="14.00" fill="#000000">ZcashFoundation/zebra#5189</text>
<text text-anchor="middle" x="392" y="-626.8" font-family="Times,serif" font-size="14.00" fill="#000000">Run some docker tests on</text>
<text text-anchor="middle" x="392" y="-611.8" font-family="Times,serif" font-size="14.00" fill="#000000">smaller instances</text>
</a>
</g>
</g>
<!-- ZcashFoundation/zebra#5153&#45;&gt;ZcashFoundation/zebra#5189 -->
<g id="edge8" class="edge">
<title>ZcashFoundation/zebra#5153&#45;&gt;ZcashFoundation/zebra#5189</title>
<path fill="none" stroke="#000000" d="M234.17,-581.62C254.89,-588.04 276.39,-594.7 296.61,-600.96"/>
<polygon fill="#000000" stroke="#000000" points="295.8422,-604.3861 306.43,-604 297.9123,-597.6992 295.8422,-604.3861"/>
</g>
<!-- ZcashFoundation/zebra#5155 -->
<g id="node10" class="node closed">
<title>ZcashFoundation/zebra#5155</title>
<g id="a_node10"><a xlink:href="https://github.com/ZcashFoundation/zebra/issues/5155" xlink:title="ZcashFoundation/zebra#5155&#10;Decide if we want to&#10;create cached states more&#10;often" target="_blank">
<polygon fill="#fad8c7" stroke="#000000" points="508,-583.5 276,-583.5 276,-515.5 508,-515.5 508,-583.5"/>
<text text-anchor="middle" x="392" y="-568.3" font-family="Times,serif" font-size="14.00" fill="#000000">ZcashFoundation/zebra#5155</text>
<text text-anchor="middle" x="392" y="-553.3" font-family="Times,serif" font-size="14.00" fill="#000000">Decide if we want to</text>
<text text-anchor="middle" x="392" y="-538.3" font-family="Times,serif" font-size="14.00" fill="#000000">create cached states more</text>
<text text-anchor="middle" x="392" y="-523.3" font-family="Times,serif" font-size="14.00" fill="#000000">often</text>
</a>
</g>
</g>
<!-- ZcashFoundation/zebra#5153&#45;&gt;ZcashFoundation/zebra#5155 -->
<g id="edge9" class="edge">
<title>ZcashFoundation/zebra#5153&#45;&gt;ZcashFoundation/zebra#5155</title>
<path fill="none" stroke="#000000" d="M240.38,-548.37C248.71,-548.43 257.14,-548.49 265.53,-548.56"/>
<polygon fill="#000000" stroke="#000000" points="265.7162,-552.0613 275.74,-548.63 265.7643,-545.0614 265.7162,-552.0613"/>
</g>
<!-- ZcashFoundation/zebra#5188 -->
<g id="node11" class="node closed">
<title>ZcashFoundation/zebra#5188</title>
<g id="a_node11"><a xlink:href="https://github.com/ZcashFoundation/zebra/issues/5188" xlink:title="ZcashFoundation/zebra#5188&#10;Reduce continuous&#10;deployment instance group&#10;size to 1" target="_blank">
<polygon fill="#fad8c7" stroke="#000000" points="508,-497.5 276,-497.5 276,-429.5 508,-429.5 508,-497.5"/>
<text text-anchor="middle" x="392" y="-482.3" font-family="Times,serif" font-size="14.00" fill="#000000">ZcashFoundation/zebra#5188</text>
<text text-anchor="middle" x="392" y="-467.3" font-family="Times,serif" font-size="14.00" fill="#000000">Reduce continuous</text>
<text text-anchor="middle" x="392" y="-452.3" font-family="Times,serif" font-size="14.00" fill="#000000">deployment instance group</text>
<text text-anchor="middle" x="392" y="-437.3" font-family="Times,serif" font-size="14.00" fill="#000000">size to 1</text>
</a>
</g>
</g>
<!-- ZcashFoundation/zebra#5153&#45;&gt;ZcashFoundation/zebra#5188 -->
<g id="edge10" class="edge">
<title>ZcashFoundation/zebra#5153&#45;&gt;ZcashFoundation/zebra#5188</title>
<path fill="none" stroke="#000000" d="M232.62,-513.46C246.05,-509.25 259.83,-504.93 273.39,-500.68"/>
<polygon fill="#000000" stroke="#000000" points="274.738,-503.9253 283.23,-497.59 272.6407,-497.2468 274.738,-503.9253"/>
</g>
<!-- ZcashFoundation/zebra#4882 -->
<g id="node12" class="node open">
<title>ZcashFoundation/zebra#4882</title>
<g id="a_node12"><a xlink:href="https://github.com/ZcashFoundation/zebra/issues/4882" xlink:title="ZcashFoundation/zebra#4882&#10;Add zcash&#45;lightwalletd /&#10;Build images to required&#10;jobs" target="_blank">
<polygon fill="#c2e0c6" stroke="#000000" stroke-width="2" points="240,-411.5 8,-411.5 8,-343.5 240,-343.5 240,-411.5"/>
<text text-anchor="middle" x="124" y="-396.3" font-family="Times,serif" font-size="14.00" fill="#000000">ZcashFoundation/zebra#4882</text>
<text text-anchor="middle" x="124" y="-381.3" font-family="Times,serif" font-size="14.00" fill="#000000">Add zcash&#45;lightwalletd /</text>
<text text-anchor="middle" x="124" y="-366.3" font-family="Times,serif" font-size="14.00" fill="#000000">Build images to required</text>
<text text-anchor="middle" x="124" y="-351.3" font-family="Times,serif" font-size="14.00" fill="#000000">jobs</text>
</a>
</g>
</g>
<!-- ZcashFoundation/zebra#4882&#45;&gt;ZcashFoundation/zebra#4612 -->
<g id="edge11" class="edge">
<title>ZcashFoundation/zebra#4882&#45;&gt;ZcashFoundation/zebra#4612</title>
<path fill="none" stroke="#000000" d="M240.38,-377.5C248.71,-377.5 257.14,-377.5 265.53,-377.5"/>
<polygon fill="#000000" stroke="#000000" points="265.74,-381.0001 275.74,-377.5 265.74,-374.0001 265.74,-381.0001"/>
</g>
<!-- ZcashFoundation/zebra#5199 -->
<g id="node13" class="node open">
<title>ZcashFoundation/zebra#5199</title>
<g id="a_node13"><a xlink:href="https://github.com/ZcashFoundation/zebra/issues/5199" xlink:title="ZcashFoundation/zebra#5199&#10;Consider using `nextest`&#10;to run tests faster and&#10;reduce Google Cloud costs" target="_blank">
<polygon fill="#c2e0c6" stroke="#000000" stroke-width="2" points="240,-667.5 8,-667.5 8,-599.5 240,-599.5 240,-667.5"/>
<text text-anchor="middle" x="124" y="-652.3" font-family="Times,serif" font-size="14.00" fill="#000000">ZcashFoundation/zebra#5199</text>
<text text-anchor="middle" x="124" y="-637.3" font-family="Times,serif" font-size="14.00" fill="#000000">Consider using `nextest`</text>
<text text-anchor="middle" x="124" y="-622.3" font-family="Times,serif" font-size="14.00" fill="#000000">to run tests faster and</text>
<text text-anchor="middle" x="124" y="-607.3" font-family="Times,serif" font-size="14.00" fill="#000000">reduce Google Cloud costs</text>
</a>
</g>
</g>
<!-- ZcashFoundation/zebra#5199&#45;&gt;ZcashFoundation/zebra#5189 -->
<g id="edge12" class="edge">
<title>ZcashFoundation/zebra#5199&#45;&gt;ZcashFoundation/zebra#5189</title>
<path fill="none" stroke="#000000" d="M240.38,-632.2C248.71,-632.1 257.14,-632.01 265.53,-631.92"/>
<polygon fill="#000000" stroke="#000000" points="265.7819,-635.4174 275.74,-631.8 265.6995,-628.4179 265.7819,-635.4174"/>
</g>
<!-- ZcashFoundation/zebra#4554 -->
<g id="node14" class="node open">
<title>ZcashFoundation/zebra#4554</title>
<g id="a_node14"><a xlink:href="https://github.com/ZcashFoundation/zebra/issues/4554" xlink:title="ZcashFoundation/zebra#4554&#10;benchmarks: surface&#10;zebrad mainnet sync time&#10;in CI" target="_blank">
<polygon fill="#c2e0c6" stroke="#000000" stroke-width="2" points="240,-753.5 8,-753.5 8,-685.5 240,-685.5 240,-753.5"/>
<text text-anchor="middle" x="124" y="-738.3" font-family="Times,serif" font-size="14.00" fill="#000000">ZcashFoundation/zebra#4554</text>
<text text-anchor="middle" x="124" y="-723.3" font-family="Times,serif" font-size="14.00" fill="#000000">benchmarks: surface</text>
<text text-anchor="middle" x="124" y="-708.3" font-family="Times,serif" font-size="14.00" fill="#000000">zebrad mainnet sync time</text>
<text text-anchor="middle" x="124" y="-693.3" font-family="Times,serif" font-size="14.00" fill="#000000">in CI</text>
</a>
</g>
</g>
</g>
</svg>
