<?xml version="1.0" encoding="UTF-8" standalone="no"?>
<?xml-stylesheet href="zcash-dag.css" type="text/css"?>
<!DOCTYPE svg PUBLIC "-//W3C//DTD SVG 1.1//EN"
 "http://www.w3.org/Graphics/SVG/1.1/DTD/svg11.dtd">
<!-- Generated by graphviz version 2.40.1 (20161225.0304)
 -->
<!-- Pages: 1 -->
<svg width="783pt" height="603pt"
 viewBox="0.00 0.00 783.00 602.50" xmlns="http://www.w3.org/2000/svg" xmlns:xlink="http://www.w3.org/1999/xlink">
<g id="graph0" class="graph" transform="scale(1 1) rotate(0) translate(4 598.5)">
<polygon fill="#ffffff" stroke="transparent" points="-4,4 -4,-598.5 779,-598.5 779,4 -4,4"/>
<g id="clust1" class="cluster">
<title>cluster_2</title>
<polygon fill="none" stroke="#0000ff" points="18,0 18,-107 252,-107 252,0 18,0"/>
<text text-anchor="middle" x="135" y="-91.8" font-family="Times,serif" font-size="14.00" fill="#000000">Epic: Re&#45;randomizable FROST</text>
</g>
<g id="clust2" class="cluster">
<title>cluster_1</title>
<polygon fill="none" stroke="#0000ff" points="289,-100 289,-207 775,-207 775,-100 289,-100"/>
<text text-anchor="middle" x="532" y="-191.8" font-family="Times,serif" font-size="14.00" fill="#000000">Epic: FROST Proof of Concept/Prototype</text>
</g>
<g id="clust3" class="cluster">
<title>cluster_3</title>
<polygon fill="none" stroke="#0000ff" points="0,-178 0,-541 269,-541 269,-178 0,-178"/>
<text text-anchor="middle" x="134.5" y="-525.8" font-family="Times,serif" font-size="14.00" fill="#000000">Epic: Prep crates / APIs for release</text>
</g>
<!-- ZcashFoundation/frost#121 -->
<g id="node1" class="node open">
<title>ZcashFoundation/frost#121</title>
<g id="a_node1"><a xlink:href="https://github.com/ZcashFoundation/frost/issues/121" xlink:title="ZcashFoundation/frost#121&#10;Organize the Re&#45;&#10;randomizable FROST&#10;implementation" target="_blank">
<polygon fill="#c2e0c6" stroke="#000000" stroke-width="2" points="243,-76 26,-76 26,-8 243,-8 243,-76"/>
<text text-anchor="middle" x="134.5" y="-60.8" font-family="Times,serif" font-size="14.00" fill="#000000">ZcashFoundation/frost#121</text>
<text text-anchor="middle" x="134.5" y="-45.8" font-family="Times,serif" font-size="14.00" fill="#000000">Organize the Re&#45;</text>
<text text-anchor="middle" x="134.5" y="-30.8" font-family="Times,serif" font-size="14.00" fill="#000000">randomizable FROST</text>
<text text-anchor="middle" x="134.5" y="-15.8" font-family="Times,serif" font-size="14.00" fill="#000000">implementation</text>
</a>
</g>
</g>
<!-- ZcashFoundation/frost#239 -->
<g id="node2" class="node open">
<title>ZcashFoundation/frost#239</title>
<g id="a_node2"><a xlink:href="https://github.com/ZcashFoundation/frost/issues/239" xlink:title="ZcashFoundation/frost#239&#10;Demo for Signature&#10;generation: Participant&#10;CLI" target="_blank">
<polygon fill="#c2e0c6" stroke="#000000" points="514,-176 297,-176 297,-108 514,-108 514,-176"/>
<text text-anchor="middle" x="405.5" y="-160.8" font-family="Times,serif" font-size="14.00" fill="#000000">ZcashFoundation/frost#239</text>
<text text-anchor="middle" x="405.5" y="-145.8" font-family="Times,serif" font-size="14.00" fill="#000000">Demo for Signature</text>
<text text-anchor="middle" x="405.5" y="-130.8" font-family="Times,serif" font-size="14.00" fill="#000000">generation: Participant</text>
<text text-anchor="middle" x="405.5" y="-115.8" font-family="Times,serif" font-size="14.00" fill="#000000">CLI</text>
</a>
</g>
</g>
<!-- ZcashFoundation/frost#249 -->
<g id="node3" class="node open">
<title>ZcashFoundation/frost#249</title>
<g id="a_node3"><a xlink:href="https://github.com/ZcashFoundation/frost/issues/249" xlink:title="ZcashFoundation/frost#249&#10;Demo for Signature&#10;generation: Coordinator&#10;CLI" target="_blank">
<polygon fill="#c2e0c6" stroke="#000000" points="767,-176 550,-176 550,-108 767,-108 767,-176"/>
<text text-anchor="middle" x="658.5" y="-160.8" font-family="Times,serif" font-size="14.00" fill="#000000">ZcashFoundation/frost#249</text>
<text text-anchor="middle" x="658.5" y="-145.8" font-family="Times,serif" font-size="14.00" fill="#000000">Demo for Signature</text>
<text text-anchor="middle" x="658.5" y="-130.8" font-family="Times,serif" font-size="14.00" fill="#000000">generation: Coordinator</text>
<text text-anchor="middle" x="658.5" y="-115.8" font-family="Times,serif" font-size="14.00" fill="#000000">CLI</text>
</a>
</g>
</g>
<!-- ZcashFoundation/frost#239&#45;&gt;ZcashFoundation/frost#249 -->
<g id="edge1" class="edge">
<title>ZcashFoundation/frost#239&#45;&gt;ZcashFoundation/frost#249</title>
<path fill="none" stroke="#000000" d="M514.26,-142C522.64,-142 531.13,-142 539.57,-142"/>
<polygon fill="#000000" stroke="#000000" points="539.83,-145.5001 549.83,-142 539.83,-138.5001 539.83,-145.5001"/>
</g>
<!-- ZcashFoundation/frost#189 -->
<g id="node4" class="node open">
<title>ZcashFoundation/frost#189</title>
<g id="a_node4"><a xlink:href="https://github.com/ZcashFoundation/frost/issues/189" xlink:title="ZcashFoundation/frost#189&#10;Updated release drafter&#10;config to match zebrad&#39;s" target="_blank">
<polygon fill="#c2e0c6" stroke="#000000" stroke-width="2" points="243,-509.5 26,-509.5 26,-456.5 243,-456.5 243,-509.5"/>
<text text-anchor="middle" x="134.5" y="-494.3" font-family="Times,serif" font-size="14.00" fill="#000000">ZcashFoundation/frost#189</text>
<text text-anchor="middle" x="134.5" y="-479.3" font-family="Times,serif" font-size="14.00" fill="#000000">Updated release drafter</text>
<text text-anchor="middle" x="134.5" y="-464.3" font-family="Times,serif" font-size="14.00" fill="#000000">config to match zebrad&#39;s</text>
</a>
</g>
</g>
<!-- ZcashFoundation/frost#235 -->
<g id="node9" class="node open">
<title>ZcashFoundation/frost#235</title>
<g id="a_node9"><a xlink:href="https://github.com/ZcashFoundation/frost/issues/235" xlink:title="ZcashFoundation/frost#235&#10;Tag a `frost` release&#10;based on the final&#10;version of the spec" target="_blank">
<polygon fill="#c2e0c6" stroke="#000000" points="514,-485 297,-485 297,-417 514,-417 514,-485"/>
<text text-anchor="middle" x="405.5" y="-469.8" font-family="Times,serif" font-size="14.00" fill="#000000">ZcashFoundation/frost#235</text>
<text text-anchor="middle" x="405.5" y="-454.8" font-family="Times,serif" font-size="14.00" fill="#000000">Tag a `frost` release</text>
<text text-anchor="middle" x="405.5" y="-439.8" font-family="Times,serif" font-size="14.00" fill="#000000">based on the final</text>
<text text-anchor="middle" x="405.5" y="-424.8" font-family="Times,serif" font-size="14.00" fill="#000000">version of the spec</text>
</a>
</g>
</g>
<!-- ZcashFoundation/frost#189&#45;&gt;ZcashFoundation/frost#235 -->
<g id="edge2" class="edge">
<title>ZcashFoundation/frost#189&#45;&gt;ZcashFoundation/frost#235</title>
<path fill="none" stroke="#000000" d="M243.16,-470.17C257.52,-468.47 272.3,-466.73 286.81,-465.01"/>
<polygon fill="#000000" stroke="#000000" points="287.2891,-468.4778 296.81,-463.83 286.4687,-461.5261 287.2891,-468.4778"/>
</g>
<!-- ZcashFoundation/frost#190 -->
<g id="node5" class="node open">
<title>ZcashFoundation/frost#190</title>
<g id="a_node5"><a xlink:href="https://github.com/ZcashFoundation/frost/issues/190" xlink:title="ZcashFoundation/frost#190&#10;Write a release checklist" target="_blank">
<polygon fill="#c2e0c6" stroke="#000000" stroke-width="2" points="243,-438 26,-438 26,-400 243,-400 243,-438"/>
<text text-anchor="middle" x="134.5" y="-422.8" font-family="Times,serif" font-size="14.00" fill="#000000">ZcashFoundation/frost#190</text>
<text text-anchor="middle" x="134.5" y="-407.8" font-family="Times,serif" font-size="14.00" fill="#000000">Write a release checklist</text>
</a>
</g>
</g>
<!-- ZcashFoundation/frost#190&#45;&gt;ZcashFoundation/frost#235 -->
<g id="edge3" class="edge">
<title>ZcashFoundation/frost#190&#45;&gt;ZcashFoundation/frost#235</title>
<path fill="none" stroke="#000000" d="M243.16,-431.83C257.52,-433.53 272.3,-435.27 286.81,-436.99"/>
<polygon fill="#000000" stroke="#000000" points="286.4687,-440.4739 296.81,-438.17 287.2891,-433.5222 286.4687,-440.4739"/>
</g>
<!-- ZcashFoundation/frost#79 -->
<g id="node6" class="node open">
<title>ZcashFoundation/frost#79</title>
<g id="a_node6"><a xlink:href="https://github.com/ZcashFoundation/frost/issues/79" xlink:title="ZcashFoundation/frost#79&#10;Publish `frost&#45;` crates" target="_blank">
<polygon fill="#c2e0c6" stroke="#000000" stroke-width="2" points="238.5,-382 30.5,-382 30.5,-344 238.5,-344 238.5,-382"/>
<text text-anchor="middle" x="134.5" y="-366.8" font-family="Times,serif" font-size="14.00" fill="#000000">ZcashFoundation/frost#79</text>
<text text-anchor="middle" x="134.5" y="-351.8" font-family="Times,serif" font-size="14.00" fill="#000000">Publish `frost&#45;` crates</text>
</a>
</g>
</g>
<!-- ZcashFoundation/frost#243 -->
<g id="node7" class="node open">
<title>ZcashFoundation/frost#243</title>
<g id="a_node7"><a xlink:href="https://github.com/ZcashFoundation/frost/issues/243" xlink:title="ZcashFoundation/frost#243&#10;Publish FROST&#10;documentation to&#10;frost.zfnd.org" target="_blank">
<polygon fill="#c2e0c6" stroke="#000000" stroke-width="2" points="243,-326 26,-326 26,-258 243,-258 243,-326"/>
<text text-anchor="middle" x="134.5" y="-310.8" font-family="Times,serif" font-size="14.00" fill="#000000">ZcashFoundation/frost#243</text>
<text text-anchor="middle" x="134.5" y="-295.8" font-family="Times,serif" font-size="14.00" fill="#000000">Publish FROST</text>
<text text-anchor="middle" x="134.5" y="-280.8" font-family="Times,serif" font-size="14.00" fill="#000000">documentation to</text>
<text text-anchor="middle" x="134.5" y="-265.8" font-family="Times,serif" font-size="14.00" fill="#000000">frost.zfnd.org</text>
</a>
</g>
</g>
<!-- ZcashFoundation/frost#166 -->
<g id="node8" class="node open">
<title>ZcashFoundation/frost#166</title>
<g id="a_node8"><a xlink:href="https://github.com/ZcashFoundation/frost/issues/166" xlink:title="ZcashFoundation/frost#166&#10;Squat crate names on&#10;crates.io" target="_blank">
<polygon fill="#c2e0c6" stroke="#000000" stroke-width="2" points="243,-239.5 26,-239.5 26,-186.5 243,-186.5 243,-239.5"/>
<text text-anchor="middle" x="134.5" y="-224.3" font-family="Times,serif" font-size="14.00" fill="#000000">ZcashFoundation/frost#166</text>
<text text-anchor="middle" x="134.5" y="-209.3" font-family="Times,serif" font-size="14.00" fill="#000000">Squat crate names on</text>
<text text-anchor="middle" x="134.5" y="-194.3" font-family="Times,serif" font-size="14.00" fill="#000000">crates.io</text>
</a>
</g>
</g>
<!-- ZcashFoundation/frost#238 -->
<g id="node10" class="node open">
<title>ZcashFoundation/frost#238</title>
<g id="a_node10"><a xlink:href="https://github.com/ZcashFoundation/frost/issues/238" xlink:title="ZcashFoundation/frost#238&#10;Demo for Trusted Dealer&#10;key share generation" target="_blank">
<polygon fill="#c2e0c6" stroke="#000000" stroke-width="2" points="243,-168.5 26,-168.5 26,-115.5 243,-115.5 243,-168.5"/>
<text text-anchor="middle" x="134.5" y="-153.3" font-family="Times,serif" font-size="14.00" fill="#000000">ZcashFoundation/frost#238</text>
<text text-anchor="middle" x="134.5" y="-138.3" font-family="Times,serif" font-size="14.00" fill="#000000">Demo for Trusted Dealer</text>
<text text-anchor="middle" x="134.5" y="-123.3" font-family="Times,serif" font-size="14.00" fill="#000000">key share generation</text>
</a>
</g>
</g>
<!-- ZcashFoundation/frost#238&#45;&gt;ZcashFoundation/frost#239 -->
<g id="edge4" class="edge">
<title>ZcashFoundation/frost#238&#45;&gt;ZcashFoundation/frost#239</title>
<path fill="none" stroke="#000000" d="M243.16,-142C257.38,-142 272.01,-142 286.39,-142"/>
<polygon fill="#000000" stroke="#000000" points="286.81,-145.5001 296.81,-142 286.81,-138.5001 286.81,-145.5001"/>
</g>
<!-- ZcashFoundation/frost#250 -->
<g id="node11" class="node open">
<title>ZcashFoundation/frost#250</title>
<g id="a_node11"><a xlink:href="https://github.com/ZcashFoundation/frost/pull/250" xlink:title="ZcashFoundation/frost#250&#10;Start FROST book" target="_blank">
<polygon fill="#c2e0c6" stroke="#000000" stroke-width="2" points="243,-587 26,-587 26,-583 22,-583 22,-579 26,-579 26,-557 22,-557 22,-553 26,-553 26,-549 243,-549 243,-587"/>
<polyline fill="none" stroke="#000000" stroke-width="2" points="26,-583 30,-583 30,-579 26,-579 "/>
<polyline fill="none" stroke="#000000" stroke-width="2" points="26,-557 30,-557 30,-553 26,-553 "/>
<text text-anchor="middle" x="134.5" y="-571.8" font-family="Times,serif" font-size="14.00" fill="#000000">ZcashFoundation/frost#250</text>
<text text-anchor="middle" x="134.5" y="-556.8" font-family="Times,serif" font-size="14.00" fill="#000000">Start FROST book</text>
</a>
</g>
</g>
<!-- ZcashFoundation/frost#244 -->
<g id="node12" class="node open">
<title>ZcashFoundation/frost#244</title>
<g id="a_node12"><a xlink:href="https://github.com/ZcashFoundation/frost/pull/244" xlink:title="ZcashFoundation/frost#244&#10;List of dependencies for&#10;audit" target="_blank">
<polygon fill="#c2e0c6" stroke="#000000" points="514,-594.5 297,-594.5 297,-590.5 293,-590.5 293,-586.5 297,-586.5 297,-549.5 293,-549.5 293,-545.5 297,-545.5 297,-541.5 514,-541.5 514,-594.5"/>
<polyline fill="none" stroke="#000000" points="297,-590.5 301,-590.5 301,-586.5 297,-586.5 "/>
<polyline fill="none" stroke="#000000" points="297,-549.5 301,-549.5 301,-545.5 297,-545.5 "/>
<text text-anchor="middle" x="405.5" y="-579.3" font-family="Times,serif" font-size="14.00" fill="#000000">ZcashFoundation/frost#244</text>
<text text-anchor="middle" x="405.5" y="-564.3" font-family="Times,serif" font-size="14.00" fill="#000000">List of dependencies for</text>
<text text-anchor="middle" x="405.5" y="-549.3" font-family="Times,serif" font-size="14.00" fill="#000000">audit</text>
</a>
</g>
</g>
<!-- ZcashFoundation/frost#250&#45;&gt;ZcashFoundation/frost#244 -->
<g id="edge5" class="edge">
<title>ZcashFoundation/frost#250&#45;&gt;ZcashFoundation/frost#244</title>
<path fill="none" stroke="#000000" d="M243.16,-568C257.38,-568 272.01,-568 286.39,-568"/>
<polygon fill="#000000" stroke="#000000" points="286.81,-571.5001 296.81,-568 286.81,-564.5001 286.81,-571.5001"/>
</g>
</g>
</svg>
