<?xml version="1.0" encoding="UTF-8" standalone="no"?>
<?xml-stylesheet href="zcash-dag.css" type="text/css"?>
<!DOCTYPE svg PUBLIC "-//W3C//DTD SVG 1.1//EN"
 "http://www.w3.org/Graphics/SVG/1.1/DTD/svg11.dtd">
<!-- Generated by graphviz version 2.43.0 (0)
 -->
<!-- Pages: 1 -->
<svg width="773pt" height="521pt"
 viewBox="0.00 0.00 773.00 521.00" xmlns="http://www.w3.org/2000/svg" xmlns:xlink="http://www.w3.org/1999/xlink">
<g id="graph0" class="graph" transform="scale(1 1) rotate(0) translate(4 517)">
<polygon fill="white" stroke="transparent" points="-4,4 -4,-517 769,-517 769,4 -4,4"/>
<!-- ZcashFoundation/zebra#6752 -->
<g id="node1" class="node open">
<title>ZcashFoundation/zebra#6752</title>
<g id="a_node1"><a xlink:href="https://github.com/ZcashFoundation/zebra/issues/6752" xlink:title="ZcashFoundation/zebra#6752&#10;Pass mining config to the&#10;mining Docker container&#10;at runtime" target="_blank">
<polygon fill="#c2e0c6" stroke="black" stroke-width="2" points="231,-75.5 0,-75.5 0,-7.5 231,-7.5 231,-75.5"/>
<text text-anchor="middle" x="115.5" y="-60.3" font-family="Times,serif" font-size="14.00">ZcashFoundation/zebra#6752</text>
<text text-anchor="middle" x="115.5" y="-45.3" font-family="Times,serif" font-size="14.00">Pass mining config to the</text>
<text text-anchor="middle" x="115.5" y="-30.3" font-family="Times,serif" font-size="14.00">mining Docker container</text>
<text text-anchor="middle" x="115.5" y="-15.3" font-family="Times,serif" font-size="14.00">at runtime</text>
</a>
</g>
</g>
<!-- ZcashFoundation/zebra#6611 -->
<g id="node2" class="node open">
<title>ZcashFoundation/zebra#6611</title>
<g id="a_node2"><a xlink:href="https://github.com/ZcashFoundation/zebra/issues/6611" xlink:title="ZcashFoundation/zebra#6611&#10;Document how to switch&#10;from Testnet to Mainnet&#10;in Docker images" target="_blank">
<polygon fill="#a7c2aa" stroke="black" points="498,-75.5 267,-75.5 267,-7.5 498,-7.5 498,-75.5"/>
<text text-anchor="middle" x="382.5" y="-60.3" font-family="Times,serif" font-size="14.00">ZcashFoundation/zebra#6611</text>
<text text-anchor="middle" x="382.5" y="-45.3" font-family="Times,serif" font-size="14.00">Document how to switch</text>
<text text-anchor="middle" x="382.5" y="-30.3" font-family="Times,serif" font-size="14.00">from Testnet to Mainnet</text>
<text text-anchor="middle" x="382.5" y="-15.3" font-family="Times,serif" font-size="14.00">in Docker images</text>
</a>
</g>
</g>
<!-- ZcashFoundation/zebra#6752&#45;&gt;ZcashFoundation/zebra#6611 -->
<g id="edge1" class="edge">
<title>ZcashFoundation/zebra#6752&#45;&gt;ZcashFoundation/zebra#6611</title>
<path fill="none" stroke="black" d="M231.19,-41.5C239.55,-41.5 247.99,-41.5 256.4,-41.5"/>
<polygon fill="black" stroke="black" points="256.63,-45 266.63,-41.5 256.63,-38 256.63,-45"/>
</g>
<!-- ZcashFoundation/zebra#6159 -->
<g id="node3" class="node closed">
<title>ZcashFoundation/zebra#6159</title>
<g id="a_node3"><a xlink:href="https://github.com/ZcashFoundation/zebra/issues/6159" xlink:title="ZcashFoundation/zebra#6159&#10;Documentation: Write a&#10;blog post to share how we&#10;used Zebra and s&#45;nomp to&#10;mine on testnet" target="_blank">
<polygon fill="#fad8c7" stroke="black" points="765,-83 534,-83 534,0 765,0 765,-83"/>
<text text-anchor="middle" x="649.5" y="-67.8" font-family="Times,serif" font-size="14.00">ZcashFoundation/zebra#6159</text>
<text text-anchor="middle" x="649.5" y="-52.8" font-family="Times,serif" font-size="14.00">Documentation: Write a</text>
<text text-anchor="middle" x="649.5" y="-37.8" font-family="Times,serif" font-size="14.00">blog post to share how we</text>
<text text-anchor="middle" x="649.5" y="-22.8" font-family="Times,serif" font-size="14.00">used Zebra and s&#45;nomp to</text>
<text text-anchor="middle" x="649.5" y="-7.8" font-family="Times,serif" font-size="14.00">mine on testnet</text>
</a>
</g>
</g>
<!-- ZcashFoundation/zebra#6611&#45;&gt;ZcashFoundation/zebra#6159 -->
<g id="edge2" class="edge">
<title>ZcashFoundation/zebra#6611&#45;&gt;ZcashFoundation/zebra#6159</title>
<path fill="none" stroke="black" d="M498.19,-41.5C506.55,-41.5 514.99,-41.5 523.4,-41.5"/>
<polygon fill="black" stroke="black" points="523.63,-45 533.63,-41.5 523.63,-38 523.63,-45"/>
</g>
<!-- ZcashFoundation/zebra#7031 -->
<g id="node4" class="node open">
<title>ZcashFoundation/zebra#7031</title>
<g id="a_node4"><a xlink:href="https://github.com/ZcashFoundation/zebra/pull/7031" xlink:title="ZcashFoundation/zebra#7031&#10;change(state): Create an&#10;in&#45;place database format&#10;upgrade task, but don&#39;t&#10;do any upgrades yet" target="_blank">
<polygon fill="#c2e0c6" stroke="black" stroke-width="2" points="231,-224 0,-224 0,-220 -4,-220 -4,-216 0,-216 0,-149 -4,-149 -4,-145 0,-145 0,-141 231,-141 231,-224"/>
<polyline fill="none" stroke="black" stroke-width="2" points="0,-220 4,-220 4,-216 0,-216 "/>
<polyline fill="none" stroke="black" stroke-width="2" points="0,-149 4,-149 4,-145 0,-145 "/>
<text text-anchor="middle" x="115.5" y="-208.8" font-family="Times,serif" font-size="14.00">ZcashFoundation/zebra#7031</text>
<text text-anchor="middle" x="115.5" y="-193.8" font-family="Times,serif" font-size="14.00">change(state): Create an</text>
<text text-anchor="middle" x="115.5" y="-178.8" font-family="Times,serif" font-size="14.00">in&#45;place database format</text>
<text text-anchor="middle" x="115.5" y="-163.8" font-family="Times,serif" font-size="14.00">upgrade task, but don&#39;t</text>
<text text-anchor="middle" x="115.5" y="-148.8" font-family="Times,serif" font-size="14.00">do any upgrades yet</text>
</a>
</g>
</g>
<!-- ZcashFoundation/zebra#7109 -->
<g id="node5" class="node open">
<title>ZcashFoundation/zebra#7109</title>
<g id="a_node5"><a xlink:href="https://github.com/ZcashFoundation/zebra/issues/7109" xlink:title="ZcashFoundation/zebra#7109&#10;Store cumulative work in&#10;the finalized state for&#10;each height" target="_blank">
<polygon fill="#a7c2aa" stroke="black" points="498,-216.5 267,-216.5 267,-148.5 498,-148.5 498,-216.5"/>
<text text-anchor="middle" x="382.5" y="-201.3" font-family="Times,serif" font-size="14.00">ZcashFoundation/zebra#7109</text>
<text text-anchor="middle" x="382.5" y="-186.3" font-family="Times,serif" font-size="14.00">Store cumulative work in</text>
<text text-anchor="middle" x="382.5" y="-171.3" font-family="Times,serif" font-size="14.00">the finalized state for</text>
<text text-anchor="middle" x="382.5" y="-156.3" font-family="Times,serif" font-size="14.00">each height</text>
</a>
</g>
</g>
<!-- ZcashFoundation/zebra#7031&#45;&gt;ZcashFoundation/zebra#7109 -->
<g id="edge3" class="edge">
<title>ZcashFoundation/zebra#7031&#45;&gt;ZcashFoundation/zebra#7109</title>
<path fill="none" stroke="black" d="M231.19,-182.5C239.55,-182.5 247.99,-182.5 256.4,-182.5"/>
<polygon fill="black" stroke="black" points="256.63,-186 266.63,-182.5 256.63,-179 256.63,-186"/>
</g>
<!-- ZcashFoundation/zebra#6688 -->
<g id="node6" class="node open">
<title>ZcashFoundation/zebra#6688</title>
<g id="a_node6"><a xlink:href="https://github.com/ZcashFoundation/zebra/issues/6688" xlink:title="ZcashFoundation/zebra#6688&#10;`getnetworksolps` &amp;&#10;`getnetworkhashps` RPCs&#10;hang with large&#10;num_blocks" target="_blank">
<polygon fill="#a7c2aa" stroke="black" points="765,-271 534,-271 534,-188 765,-188 765,-271"/>
<text text-anchor="middle" x="649.5" y="-255.8" font-family="Times,serif" font-size="14.00">ZcashFoundation/zebra#6688</text>
<text text-anchor="middle" x="649.5" y="-240.8" font-family="Times,serif" font-size="14.00">`getnetworksolps` &amp;</text>
<text text-anchor="middle" x="649.5" y="-225.8" font-family="Times,serif" font-size="14.00">`getnetworkhashps` RPCs</text>
<text text-anchor="middle" x="649.5" y="-210.8" font-family="Times,serif" font-size="14.00">hang with large</text>
<text text-anchor="middle" x="649.5" y="-195.8" font-family="Times,serif" font-size="14.00">num_blocks</text>
</a>
</g>
</g>
<!-- ZcashFoundation/zebra#7109&#45;&gt;ZcashFoundation/zebra#6688 -->
<g id="edge4" class="edge">
<title>ZcashFoundation/zebra#7109&#45;&gt;ZcashFoundation/zebra#6688</title>
<path fill="none" stroke="black" d="M498.19,-202.84C506.64,-204.34 515.18,-205.85 523.68,-207.36"/>
<polygon fill="black" stroke="black" points="523.17,-210.82 533.63,-209.13 524.4,-203.93 523.17,-210.82"/>
</g>
<!-- ZcashFoundation/zebra#7110 -->
<g id="node7" class="node open">
<title>ZcashFoundation/zebra#7110</title>
<g id="a_node7"><a xlink:href="https://github.com/ZcashFoundation/zebra/issues/7110" xlink:title="ZcashFoundation/zebra#7110&#10;Show the full chain work&#10;in the chain fork&#10;progress bars" target="_blank">
<polygon fill="#a7c2aa" stroke="black" points="765,-169.5 534,-169.5 534,-101.5 765,-101.5 765,-169.5"/>
<text text-anchor="middle" x="649.5" y="-154.3" font-family="Times,serif" font-size="14.00">ZcashFoundation/zebra#7110</text>
<text text-anchor="middle" x="649.5" y="-139.3" font-family="Times,serif" font-size="14.00">Show the full chain work</text>
<text text-anchor="middle" x="649.5" y="-124.3" font-family="Times,serif" font-size="14.00">in the chain fork</text>
<text text-anchor="middle" x="649.5" y="-109.3" font-family="Times,serif" font-size="14.00">progress bars</text>
</a>
</g>
</g>
<!-- ZcashFoundation/zebra#7109&#45;&gt;ZcashFoundation/zebra#7110 -->
<g id="edge5" class="edge">
<title>ZcashFoundation/zebra#7109&#45;&gt;ZcashFoundation/zebra#7110</title>
<path fill="none" stroke="black" d="M498.19,-162.16C506.64,-160.66 515.18,-159.15 523.68,-157.64"/>
<polygon fill="black" stroke="black" points="524.4,-161.07 533.63,-155.87 523.17,-154.18 524.4,-161.07"/>
</g>
<!-- ZcashFoundation/zebra#6025 -->
<g id="node8" class="node open">
<title>ZcashFoundation/zebra#6025</title>
<g id="a_node8"><a xlink:href="https://github.com/ZcashFoundation/zebra/issues/6025" xlink:title="ZcashFoundation/zebra#6025&#10;Add a manually&#45;triggered&#10;workflow for mining a&#10;block on testnet" target="_blank">
<polygon fill="#c2e0c6" stroke="black" points="498,-317.5 267,-317.5 267,-249.5 498,-249.5 498,-317.5"/>
<text text-anchor="middle" x="382.5" y="-302.3" font-family="Times,serif" font-size="14.00">ZcashFoundation/zebra#6025</text>
<text text-anchor="middle" x="382.5" y="-287.3" font-family="Times,serif" font-size="14.00">Add a manually&#45;triggered</text>
<text text-anchor="middle" x="382.5" y="-272.3" font-family="Times,serif" font-size="14.00">workflow for mining a</text>
<text text-anchor="middle" x="382.5" y="-257.3" font-family="Times,serif" font-size="14.00">block on testnet</text>
</a>
</g>
</g>
<!-- ZcashFoundation/zebra#6118 -->
<g id="node9" class="node open">
<title>ZcashFoundation/zebra#6118</title>
<g id="a_node9"><a xlink:href="https://github.com/ZcashFoundation/zebra/issues/6118" xlink:title="ZcashFoundation/zebra#6118&#10;Create a Docker images&#10;and docker&#45;compose for&#10;mining with Zebra on&#10;Testnet" target="_blank">
<polygon fill="#c2e0c6" stroke="black" stroke-width="2" points="231,-325 0,-325 0,-242 231,-242 231,-325"/>
<text text-anchor="middle" x="115.5" y="-309.8" font-family="Times,serif" font-size="14.00">ZcashFoundation/zebra#6118</text>
<text text-anchor="middle" x="115.5" y="-294.8" font-family="Times,serif" font-size="14.00">Create a Docker images</text>
<text text-anchor="middle" x="115.5" y="-279.8" font-family="Times,serif" font-size="14.00">and docker&#45;compose for</text>
<text text-anchor="middle" x="115.5" y="-264.8" font-family="Times,serif" font-size="14.00">mining with Zebra on</text>
<text text-anchor="middle" x="115.5" y="-249.8" font-family="Times,serif" font-size="14.00">Testnet</text>
</a>
</g>
</g>
<!-- ZcashFoundation/zebra#6118&#45;&gt;ZcashFoundation/zebra#6025 -->
<g id="edge6" class="edge">
<title>ZcashFoundation/zebra#6118&#45;&gt;ZcashFoundation/zebra#6025</title>
<path fill="none" stroke="black" d="M231.19,-283.5C239.55,-283.5 247.99,-283.5 256.4,-283.5"/>
<polygon fill="black" stroke="black" points="256.63,-287 266.63,-283.5 256.63,-280 256.63,-287"/>
</g>
<!-- ZcashFoundation/zebra#4784 -->
<g id="node10" class="node open">
<title>ZcashFoundation/zebra#4784</title>
<g id="a_node10"><a xlink:href="https://github.com/ZcashFoundation/zebra/issues/4784" xlink:title="ZcashFoundation/zebra#4784&#10;Store only the first tree&#10;state in each identical&#10;series of tree states" target="_blank">
<polygon fill="#a7c2aa" stroke="black" points="498,-411.5 267,-411.5 267,-343.5 498,-343.5 498,-411.5"/>
<text text-anchor="middle" x="382.5" y="-396.3" font-family="Times,serif" font-size="14.00">ZcashFoundation/zebra#4784</text>
<text text-anchor="middle" x="382.5" y="-381.3" font-family="Times,serif" font-size="14.00">Store only the first tree</text>
<text text-anchor="middle" x="382.5" y="-366.3" font-family="Times,serif" font-size="14.00">state in each identical</text>
<text text-anchor="middle" x="382.5" y="-351.3" font-family="Times,serif" font-size="14.00">series of tree states</text>
</a>
</g>
</g>
<!-- ZcashFoundation/zebra#6642 -->
<g id="node11" class="node open">
<title>ZcashFoundation/zebra#6642</title>
<g id="a_node11"><a xlink:href="https://github.com/ZcashFoundation/zebra/issues/6642" xlink:title="ZcashFoundation/zebra#6642&#10;Tracking: Update&#10;`lightwalletd` RPCs for&#10;&quot;fast spendability&quot;&#10;algorithm" target="_blank">
<polygon fill="#a7c2aa" stroke="black" points="765,-419 534,-419 534,-336 765,-336 765,-419"/>
<text text-anchor="middle" x="649.5" y="-403.8" font-family="Times,serif" font-size="14.00">ZcashFoundation/zebra#6642</text>
<text text-anchor="middle" x="649.5" y="-388.8" font-family="Times,serif" font-size="14.00">Tracking: Update</text>
<text text-anchor="middle" x="649.5" y="-373.8" font-family="Times,serif" font-size="14.00">`lightwalletd` RPCs for</text>
<text text-anchor="middle" x="649.5" y="-358.8" font-family="Times,serif" font-size="14.00">&quot;fast spendability&quot;</text>
<text text-anchor="middle" x="649.5" y="-343.8" font-family="Times,serif" font-size="14.00">algorithm</text>
</a>
</g>
</g>
<!-- ZcashFoundation/zebra#4784&#45;&gt;ZcashFoundation/zebra#6642 -->
<g id="edge7" class="edge">
<title>ZcashFoundation/zebra#4784&#45;&gt;ZcashFoundation/zebra#6642</title>
<path fill="none" stroke="black" d="M498.19,-377.5C506.55,-377.5 514.99,-377.5 523.4,-377.5"/>
<polygon fill="black" stroke="black" points="523.63,-381 533.63,-377.5 523.63,-374 523.63,-381"/>
</g>
<!-- ZcashFoundation/zebra#4554 -->
<g id="node12" class="node open">
<title>ZcashFoundation/zebra#4554</title>
<g id="a_node12"><a xlink:href="https://github.com/ZcashFoundation/zebra/issues/4554" xlink:title="ZcashFoundation/zebra#4554&#10;benchmarks: create a&#10;ticket if zebrad mainnet&#10;sync time increases&#10;significantly" target="_blank">
<polygon fill="#c2e0c6" stroke="black" stroke-width="2" points="231,-513 0,-513 0,-430 231,-430 231,-513"/>
<text text-anchor="middle" x="115.5" y="-497.8" font-family="Times,serif" font-size="14.00">ZcashFoundation/zebra#4554</text>
<text text-anchor="middle" x="115.5" y="-482.8" font-family="Times,serif" font-size="14.00">benchmarks: create a</text>
<text text-anchor="middle" x="115.5" y="-467.8" font-family="Times,serif" font-size="14.00">ticket if zebrad mainnet</text>
<text text-anchor="middle" x="115.5" y="-452.8" font-family="Times,serif" font-size="14.00">sync time increases</text>
<text text-anchor="middle" x="115.5" y="-437.8" font-family="Times,serif" font-size="14.00">significantly</text>
</a>
</g>
</g>
<!-- ZcashFoundation/zebra#6955 -->
<g id="node13" class="node open">
<title>ZcashFoundation/zebra#6955</title>
<g id="a_node13"><a xlink:href="https://github.com/ZcashFoundation/zebra/issues/6955" xlink:title="ZcashFoundation/zebra#6955&#10;Create an empty database&#10;format update task and&#10;format update tests" target="_blank">
<polygon fill="#c2e0c6" stroke="black" stroke-width="2" points="231,-411.5 0,-411.5 0,-343.5 231,-343.5 231,-411.5"/>
<text text-anchor="middle" x="115.5" y="-396.3" font-family="Times,serif" font-size="14.00">ZcashFoundation/zebra#6955</text>
<text text-anchor="middle" x="115.5" y="-381.3" font-family="Times,serif" font-size="14.00">Create an empty database</text>
<text text-anchor="middle" x="115.5" y="-366.3" font-family="Times,serif" font-size="14.00">format update task and</text>
<text text-anchor="middle" x="115.5" y="-351.3" font-family="Times,serif" font-size="14.00">format update tests</text>
</a>
</g>
</g>
<!-- ZcashFoundation/zebra#6955&#45;&gt;ZcashFoundation/zebra#4784 -->
<g id="edge8" class="edge">
<title>ZcashFoundation/zebra#6955&#45;&gt;ZcashFoundation/zebra#4784</title>
<path fill="none" stroke="black" d="M231.19,-377.5C239.55,-377.5 247.99,-377.5 256.4,-377.5"/>
<polygon fill="black" stroke="black" points="256.63,-381 266.63,-377.5 256.63,-374 256.63,-381"/>
</g>
</g>
</svg>
