<?xml version="1.0" encoding="UTF-8" standalone="no"?>
<?xml-stylesheet href="zcash-dag.css" type="text/css"?>
<!DOCTYPE svg PUBLIC "-//W3C//DTD SVG 1.1//EN"
 "http://www.w3.org/Graphics/SVG/1.1/DTD/svg11.dtd">
<!-- Generated by graphviz version 2.40.1 (20161225.0304)
 -->
<!-- Pages: 1 -->
<svg width="792pt" height="1319pt"
 viewBox="0.00 0.00 792.00 1319.00" xmlns="http://www.w3.org/2000/svg" xmlns:xlink="http://www.w3.org/1999/xlink">
<g id="graph0" class="graph" transform="scale(1 1) rotate(0) translate(4 1315)">
<polygon fill="#ffffff" stroke="transparent" points="-4,4 -4,-1315 788,-1315 788,4 -4,4"/>
<g id="clust1" class="cluster">
<title>cluster_1</title>
<polygon fill="none" stroke="#0000ff" points="8,-306 8,-1303 524,-1303 524,-306 8,-306"/>
<text text-anchor="middle" x="266" y="-1287.8" font-family="Times,serif" font-size="14.00" fill="#000000">DevOps Ticket Tracker</text>
</g>
<g id="clust2" class="cluster">
<title>cluster_2</title>
<polygon fill="none" stroke="#0000ff" points="0,0 0,-1311 784,-1311 784,0 0,0"/>
<text text-anchor="middle" x="392" y="-1295.8" font-family="Times,serif" font-size="14.00" fill="#000000">Epic: Zebra as a lightwalletd backend</text>
</g>
<g id="clust3" class="cluster">
<title>cluster_0</title>
<polygon fill="none" stroke="#0000ff" points="276,-48 276,-298 524,-298 524,-48 276,-48"/>
<text text-anchor="middle" x="400" y="-282.8" font-family="Times,serif" font-size="14.00" fill="#000000">Epic: Zebra Release Candidates</text>
</g>
<!-- ZcashFoundation/zebra#4953 -->
<g id="node1" class="node open">
<title>ZcashFoundation/zebra#4953</title>
<g id="a_node1"><a xlink:href="https://github.com/ZcashFoundation/zebra/issues/4953" xlink:title="ZcashFoundation/zebra#4953&#10;Document how to use&#10;released Zebra binaries" target="_blank">
<polygon fill="#c2e0c6" stroke="#000000" stroke-width="2" points="248,-1113.5 16,-1113.5 16,-1060.5 248,-1060.5 248,-1113.5"/>
<text text-anchor="middle" x="132" y="-1098.3" font-family="Times,serif" font-size="14.00" fill="#000000">ZcashFoundation/zebra#4953</text>
<text text-anchor="middle" x="132" y="-1083.3" font-family="Times,serif" font-size="14.00" fill="#000000">Document how to use</text>
<text text-anchor="middle" x="132" y="-1068.3" font-family="Times,serif" font-size="14.00" fill="#000000">released Zebra binaries</text>
</a>
</g>
</g>
<!-- ZcashFoundation/zebra#1615 -->
<g id="node16" class="node open">
<title>ZcashFoundation/zebra#1615</title>
<g id="a_node16"><a xlink:href="https://github.com/ZcashFoundation/zebra/issues/1615" xlink:title="ZcashFoundation/zebra#1615&#10;Zebra release candidate&#10;binaries should be linked&#10;from ZFND website" target="_blank">
<polygon fill="#a7c2aa" stroke="#000000" points="516,-267 284,-267 284,-199 516,-199 516,-267"/>
<text text-anchor="middle" x="400" y="-251.8" font-family="Times,serif" font-size="14.00" fill="#000000">ZcashFoundation/zebra#1615</text>
<text text-anchor="middle" x="400" y="-236.8" font-family="Times,serif" font-size="14.00" fill="#000000">Zebra release candidate</text>
<text text-anchor="middle" x="400" y="-221.8" font-family="Times,serif" font-size="14.00" fill="#000000">binaries should be linked</text>
<text text-anchor="middle" x="400" y="-206.8" font-family="Times,serif" font-size="14.00" fill="#000000">from ZFND website</text>
</a>
</g>
</g>
<!-- ZcashFoundation/zebra#4953&#45;&gt;ZcashFoundation/zebra#1615 -->
<g id="edge4" class="edge">
<title>ZcashFoundation/zebra#4953&#45;&gt;ZcashFoundation/zebra#1615</title>
<path fill="none" stroke="#000000" d="M240.36,-1060.3C243.12,-1057.7 245.69,-1055 248,-1052 298.97,-986 232.4,-373.09 276,-302 282.93,-290.7 292.42,-281.11 303.09,-273"/>
<polygon fill="#000000" stroke="#000000" points="305.3168,-275.712 311.46,-267.08 301.2746,-269.997 305.3168,-275.712"/>
</g>
<!-- ZcashFoundation/zebra#1963 -->
<g id="node2" class="node open">
<title>ZcashFoundation/zebra#1963</title>
<g id="a_node2"><a xlink:href="https://github.com/ZcashFoundation/zebra/issues/1963" xlink:title="ZcashFoundation/zebra#1963&#10;Work out how to release&#10;Zebra binaries" target="_blank">
<polygon fill="#c2e0c6" stroke="#000000" stroke-width="2" points="248,-1271.5 16,-1271.5 16,-1218.5 248,-1218.5 248,-1271.5"/>
<text text-anchor="middle" x="132" y="-1256.3" font-family="Times,serif" font-size="14.00" fill="#000000">ZcashFoundation/zebra#1963</text>
<text text-anchor="middle" x="132" y="-1241.3" font-family="Times,serif" font-size="14.00" fill="#000000">Work out how to release</text>
<text text-anchor="middle" x="132" y="-1226.3" font-family="Times,serif" font-size="14.00" fill="#000000">Zebra binaries</text>
</a>
</g>
</g>
<!-- ZcashFoundation/zebra#4954 -->
<g id="node3" class="node open">
<title>ZcashFoundation/zebra#4954</title>
<g id="a_node3"><a xlink:href="https://github.com/ZcashFoundation/zebra/issues/4954" xlink:title="ZcashFoundation/zebra#4954&#10;Update release checklist&#10;PR template for the&#10;release candidate series" target="_blank">
<polygon fill="#c2e0c6" stroke="#000000" points="516,-1272 284,-1272 284,-1204 516,-1204 516,-1272"/>
<text text-anchor="middle" x="400" y="-1256.8" font-family="Times,serif" font-size="14.00" fill="#000000">ZcashFoundation/zebra#4954</text>
<text text-anchor="middle" x="400" y="-1241.8" font-family="Times,serif" font-size="14.00" fill="#000000">Update release checklist</text>
<text text-anchor="middle" x="400" y="-1226.8" font-family="Times,serif" font-size="14.00" fill="#000000">PR template for the</text>
<text text-anchor="middle" x="400" y="-1211.8" font-family="Times,serif" font-size="14.00" fill="#000000">release candidate series</text>
</a>
</g>
</g>
<!-- ZcashFoundation/zebra#1963&#45;&gt;ZcashFoundation/zebra#4954 -->
<g id="edge1" class="edge">
<title>ZcashFoundation/zebra#1963&#45;&gt;ZcashFoundation/zebra#4954</title>
<path fill="none" stroke="#000000" d="M248.38,-1242C256.71,-1241.7 265.14,-1241.5 273.53,-1241.3"/>
<polygon fill="#000000" stroke="#000000" points="273.8471,-1244.7923 283.74,-1241 273.6415,-1237.7953 273.8471,-1244.7923"/>
</g>
<!-- ZcashFoundation/zebra#4412 -->
<g id="node4" class="node open">
<title>ZcashFoundation/zebra#4412</title>
<g id="a_node4"><a xlink:href="https://github.com/ZcashFoundation/zebra/issues/4412" xlink:title="ZcashFoundation/zebra#4412&#10;Automate pinning CI&#10;dependencies to specific&#10;commit hashes" target="_blank">
<polygon fill="#c2e0c6" stroke="#000000" points="516,-1186 284,-1186 284,-1118 516,-1118 516,-1186"/>
<text text-anchor="middle" x="400" y="-1170.8" font-family="Times,serif" font-size="14.00" fill="#000000">ZcashFoundation/zebra#4412</text>
<text text-anchor="middle" x="400" y="-1155.8" font-family="Times,serif" font-size="14.00" fill="#000000">Automate pinning CI</text>
<text text-anchor="middle" x="400" y="-1140.8" font-family="Times,serif" font-size="14.00" fill="#000000">dependencies to specific</text>
<text text-anchor="middle" x="400" y="-1125.8" font-family="Times,serif" font-size="14.00" fill="#000000">commit hashes</text>
</a>
</g>
</g>
<!-- ZcashFoundation/zebra#1963&#45;&gt;ZcashFoundation/zebra#4412 -->
<g id="edge2" class="edge">
<title>ZcashFoundation/zebra#1963&#45;&gt;ZcashFoundation/zebra#4412</title>
<path fill="none" stroke="#000000" d="M222.74,-1218.4C231.35,-1215.4 239.88,-1212.3 248,-1209 260.91,-1203.8 263.18,-1200.4 276,-1195 280.19,-1193.2 284.48,-1191.5 288.82,-1189.8"/>
<polygon fill="#000000" stroke="#000000" points="290.4101,-1192.9349 298.42,-1186 287.8337,-1186.4262 290.4101,-1192.9349"/>
</g>
<!-- ZcashFoundation/zebra#755 -->
<g id="node19" class="node closed">
<title>ZcashFoundation/zebra#755</title>
<g id="a_node19"><a xlink:href="https://github.com/ZcashFoundation/zebra/issues/755" xlink:title="ZcashFoundation/zebra#755&#10;Automate zebrad releases" target="_blank">
<polygon fill="#fad8c7" stroke="#000000" points="511.5,-38 288.5,-38 288.5,0 511.5,0 511.5,-38"/>
<text text-anchor="middle" x="400" y="-22.8" font-family="Times,serif" font-size="14.00" fill="#000000">ZcashFoundation/zebra#755</text>
<text text-anchor="middle" x="400" y="-7.8" font-family="Times,serif" font-size="14.00" fill="#000000">Automate zebrad releases</text>
</a>
</g>
</g>
<!-- ZcashFoundation/zebra#1963&#45;&gt;ZcashFoundation/zebra#755 -->
<g id="edge5" class="edge">
<title>ZcashFoundation/zebra#1963&#45;&gt;ZcashFoundation/zebra#755</title>
<path fill="none" stroke="#000000" d="M239.51,-1218.2C242.61,-1215.4 245.46,-1212.4 248,-1209 287.02,-1157.3 234.39,-93.602 276,-44 277.38,-42.359 278.83,-40.808 280.35,-39.34"/>
<polygon fill="#000000" stroke="#000000" points="282.9498,-41.7342 288.46,-32.685 278.5093,-36.3229 282.9498,-41.7342"/>
</g>
<!-- ZcashFoundation/zebra#3050 -->
<g id="node17" class="node open">
<title>ZcashFoundation/zebra#3050</title>
<g id="a_node17"><a xlink:href="https://github.com/ZcashFoundation/zebra/issues/3050" xlink:title="ZcashFoundation/zebra#3050&#10;Tag Zebra 1.0.0&#45;rc.0&#10;stable release candidate" target="_blank">
<polygon fill="#a7c2aa" stroke="#000000" points="516,-180.5 284,-180.5 284,-127.5 516,-127.5 516,-180.5"/>
<text text-anchor="middle" x="400" y="-165.3" font-family="Times,serif" font-size="14.00" fill="#000000">ZcashFoundation/zebra#3050</text>
<text text-anchor="middle" x="400" y="-150.3" font-family="Times,serif" font-size="14.00" fill="#000000">Tag Zebra 1.0.0&#45;rc.0</text>
<text text-anchor="middle" x="400" y="-135.3" font-family="Times,serif" font-size="14.00" fill="#000000">stable release candidate</text>
</a>
</g>
</g>
<!-- ZcashFoundation/zebra#4954&#45;&gt;ZcashFoundation/zebra#3050 -->
<g id="edge6" class="edge">
<title>ZcashFoundation/zebra#4954&#45;&gt;ZcashFoundation/zebra#3050</title>
<path fill="none" stroke="#000000" d="M283.93,-1210.4C275.02,-1203.9 267.4,-1195.9 262,-1186 248.86,-1161.9 248.86,-223.06 262,-199 265.65,-192.31 270.37,-186.57 275.85,-181.65"/>
<polygon fill="#000000" stroke="#000000" points="278.0487,-184.3737 283.76,-175.45 273.7304,-178.8644 278.0487,-184.3737"/>
</g>
<!-- ZcashFoundation/zebra#4612 -->
<g id="node5" class="node open">
<title>ZcashFoundation/zebra#4612</title>
<g id="a_node5"><a xlink:href="https://github.com/ZcashFoundation/zebra/issues/4612" xlink:title="ZcashFoundation/zebra#4612&#10;ci: Wait for lightwalletd&#10;image rebuild if it has&#10;changed" target="_blank">
<polygon fill="#c2e0c6" stroke="#000000" points="516,-1100 284,-1100 284,-1032 516,-1032 516,-1100"/>
<text text-anchor="middle" x="400" y="-1084.8" font-family="Times,serif" font-size="14.00" fill="#000000">ZcashFoundation/zebra#4612</text>
<text text-anchor="middle" x="400" y="-1069.8" font-family="Times,serif" font-size="14.00" fill="#000000">ci: Wait for lightwalletd</text>
<text text-anchor="middle" x="400" y="-1054.8" font-family="Times,serif" font-size="14.00" fill="#000000">image rebuild if it has</text>
<text text-anchor="middle" x="400" y="-1039.8" font-family="Times,serif" font-size="14.00" fill="#000000">changed</text>
</a>
</g>
</g>
<!-- ZcashFoundation/zebra#4882 -->
<g id="node6" class="node open">
<title>ZcashFoundation/zebra#4882</title>
<g id="a_node6"><a xlink:href="https://github.com/ZcashFoundation/zebra/issues/4882" xlink:title="ZcashFoundation/zebra#4882&#10;Add zcash&#45;lightwalletd /&#10;Build images to required&#10;jobs" target="_blank">
<polygon fill="#c2e0c6" stroke="#000000" stroke-width="2" points="248,-1200 16,-1200 16,-1132 248,-1132 248,-1200"/>
<text text-anchor="middle" x="132" y="-1184.8" font-family="Times,serif" font-size="14.00" fill="#000000">ZcashFoundation/zebra#4882</text>
<text text-anchor="middle" x="132" y="-1169.8" font-family="Times,serif" font-size="14.00" fill="#000000">Add zcash&#45;lightwalletd /</text>
<text text-anchor="middle" x="132" y="-1154.8" font-family="Times,serif" font-size="14.00" fill="#000000">Build images to required</text>
<text text-anchor="middle" x="132" y="-1139.8" font-family="Times,serif" font-size="14.00" fill="#000000">jobs</text>
</a>
</g>
</g>
<!-- ZcashFoundation/zebra#4882&#45;&gt;ZcashFoundation/zebra#4612 -->
<g id="edge3" class="edge">
<title>ZcashFoundation/zebra#4882&#45;&gt;ZcashFoundation/zebra#4612</title>
<path fill="none" stroke="#000000" d="M226.67,-1131.9C233.92,-1129 241.1,-1126 248,-1123 260.76,-1117.5 263.18,-1114.4 276,-1109 280.19,-1107.2 284.48,-1105.5 288.82,-1103.8"/>
<polygon fill="#000000" stroke="#000000" points="290.4101,-1106.9349 298.42,-1100 287.8337,-1100.4262 290.4101,-1106.9349"/>
</g>
<!-- ZcashFoundation/zebra#4992 -->
<g id="node7" class="node open">
<title>ZcashFoundation/zebra#4992</title>
<g id="a_node7"><a xlink:href="https://github.com/ZcashFoundation/zebra/issues/4992" xlink:title="ZcashFoundation/zebra#4992&#10;Run cached state CI on&#10;testnet" target="_blank">
<polygon fill="#c2e0c6" stroke="#000000" points="248,-1042.5 16,-1042.5 16,-989.5 248,-989.5 248,-1042.5"/>
<text text-anchor="middle" x="132" y="-1027.3" font-family="Times,serif" font-size="14.00" fill="#000000">ZcashFoundation/zebra#4992</text>
<text text-anchor="middle" x="132" y="-1012.3" font-family="Times,serif" font-size="14.00" fill="#000000">Run cached state CI on</text>
<text text-anchor="middle" x="132" y="-997.3" font-family="Times,serif" font-size="14.00" fill="#000000">testnet</text>
</a>
</g>
</g>
<!-- ZcashFoundation/zebra#4554 -->
<g id="node8" class="node open">
<title>ZcashFoundation/zebra#4554</title>
<g id="a_node8"><a xlink:href="https://github.com/ZcashFoundation/zebra/issues/4554" xlink:title="ZcashFoundation/zebra#4554&#10;benchmarks: surface&#10;zebrad mainnet sync time&#10;in CI" target="_blank">
<polygon fill="#c2e0c6" stroke="#000000" stroke-width="2" points="248,-971 16,-971 16,-903 248,-903 248,-971"/>
<text text-anchor="middle" x="132" y="-955.8" font-family="Times,serif" font-size="14.00" fill="#000000">ZcashFoundation/zebra#4554</text>
<text text-anchor="middle" x="132" y="-940.8" font-family="Times,serif" font-size="14.00" fill="#000000">benchmarks: surface</text>
<text text-anchor="middle" x="132" y="-925.8" font-family="Times,serif" font-size="14.00" fill="#000000">zebrad mainnet sync time</text>
<text text-anchor="middle" x="132" y="-910.8" font-family="Times,serif" font-size="14.00" fill="#000000">in CI</text>
</a>
</g>
</g>
<!-- ZcashFoundation/zebra#4929 -->
<g id="node9" class="node open">
<title>ZcashFoundation/zebra#4929</title>
<g id="a_node9"><a xlink:href="https://github.com/ZcashFoundation/zebra/issues/4929" xlink:title="ZcashFoundation/zebra#4929&#10;Re&#45;enable beta Rust tests&#10;on Ubuntu" target="_blank">
<polygon fill="#c2e0c6" stroke="#000000" stroke-width="2" points="248,-884.5 16,-884.5 16,-831.5 248,-831.5 248,-884.5"/>
<text text-anchor="middle" x="132" y="-869.3" font-family="Times,serif" font-size="14.00" fill="#000000">ZcashFoundation/zebra#4929</text>
<text text-anchor="middle" x="132" y="-854.3" font-family="Times,serif" font-size="14.00" fill="#000000">Re&#45;enable beta Rust tests</text>
<text text-anchor="middle" x="132" y="-839.3" font-family="Times,serif" font-size="14.00" fill="#000000">on Ubuntu</text>
</a>
</g>
</g>
<!-- ZcashFoundation/zebra#4529 -->
<g id="node10" class="node open">
<title>ZcashFoundation/zebra#4529</title>
<g id="a_node10"><a xlink:href="https://github.com/ZcashFoundation/zebra/issues/4529" xlink:title="ZcashFoundation/zebra#4529&#10;Make PRs from external&#10;repositories pass or skip&#10;CI jobs" target="_blank">
<polygon fill="#c2e0c6" stroke="#000000" stroke-width="2" points="248,-813 16,-813 16,-745 248,-745 248,-813"/>
<text text-anchor="middle" x="132" y="-797.8" font-family="Times,serif" font-size="14.00" fill="#000000">ZcashFoundation/zebra#4529</text>
<text text-anchor="middle" x="132" y="-782.8" font-family="Times,serif" font-size="14.00" fill="#000000">Make PRs from external</text>
<text text-anchor="middle" x="132" y="-767.8" font-family="Times,serif" font-size="14.00" fill="#000000">repositories pass or skip</text>
<text text-anchor="middle" x="132" y="-752.8" font-family="Times,serif" font-size="14.00" fill="#000000">CI jobs</text>
</a>
</g>
</g>
<!-- ZcashFoundation/zebra#4955 -->
<g id="node11" class="node open">
<title>ZcashFoundation/zebra#4955</title>
<g id="a_node11"><a xlink:href="https://github.com/ZcashFoundation/zebra/issues/4955" xlink:title="ZcashFoundation/zebra#4955&#10;Make long&#45;running test&#10;names match workflow&#10;names" target="_blank">
<polygon fill="#c2e0c6" stroke="#000000" stroke-width="2" points="248,-727 16,-727 16,-659 248,-659 248,-727"/>
<text text-anchor="middle" x="132" y="-711.8" font-family="Times,serif" font-size="14.00" fill="#000000">ZcashFoundation/zebra#4955</text>
<text text-anchor="middle" x="132" y="-696.8" font-family="Times,serif" font-size="14.00" fill="#000000">Make long&#45;running test</text>
<text text-anchor="middle" x="132" y="-681.8" font-family="Times,serif" font-size="14.00" fill="#000000">names match workflow</text>
<text text-anchor="middle" x="132" y="-666.8" font-family="Times,serif" font-size="14.00" fill="#000000">names</text>
</a>
</g>
</g>
<!-- ZcashFoundation/zebra#4956 -->
<g id="node12" class="node open">
<title>ZcashFoundation/zebra#4956</title>
<g id="a_node12"><a xlink:href="https://github.com/ZcashFoundation/zebra/issues/4956" xlink:title="ZcashFoundation/zebra#4956&#10;Make file locations&#10;appear in zebrad Docker&#10;error messages" target="_blank">
<polygon fill="#c2e0c6" stroke="#000000" stroke-width="2" points="248,-641 16,-641 16,-573 248,-573 248,-641"/>
<text text-anchor="middle" x="132" y="-625.8" font-family="Times,serif" font-size="14.00" fill="#000000">ZcashFoundation/zebra#4956</text>
<text text-anchor="middle" x="132" y="-610.8" font-family="Times,serif" font-size="14.00" fill="#000000">Make file locations</text>
<text text-anchor="middle" x="132" y="-595.8" font-family="Times,serif" font-size="14.00" fill="#000000">appear in zebrad Docker</text>
<text text-anchor="middle" x="132" y="-580.8" font-family="Times,serif" font-size="14.00" fill="#000000">error messages</text>
</a>
</g>
</g>
<!-- ZcashFoundation/zebra#4976 -->
<g id="node13" class="node open">
<title>ZcashFoundation/zebra#4976</title>
<g id="a_node13"><a xlink:href="https://github.com/ZcashFoundation/zebra/issues/4976" xlink:title="ZcashFoundation/zebra#4976&#10;Move continuous&#10;deployment to another&#10;Google Cloud region" target="_blank">
<polygon fill="#c2e0c6" stroke="#000000" stroke-width="2" points="248,-555 16,-555 16,-487 248,-487 248,-555"/>
<text text-anchor="middle" x="132" y="-539.8" font-family="Times,serif" font-size="14.00" fill="#000000">ZcashFoundation/zebra#4976</text>
<text text-anchor="middle" x="132" y="-524.8" font-family="Times,serif" font-size="14.00" fill="#000000">Move continuous</text>
<text text-anchor="middle" x="132" y="-509.8" font-family="Times,serif" font-size="14.00" fill="#000000">deployment to another</text>
<text text-anchor="middle" x="132" y="-494.8" font-family="Times,serif" font-size="14.00" fill="#000000">Google Cloud region</text>
</a>
</g>
</g>
<!-- ZcashFoundation/zebra#4946 -->
<g id="node14" class="node open">
<title>ZcashFoundation/zebra#4946</title>
<g id="a_node14"><a xlink:href="https://github.com/ZcashFoundation/zebra/issues/4946" xlink:title="ZcashFoundation/zebra#4946&#10;Managed instance groups&#10;deployed with continuous&#10;deployment can&#39;t scale&#10;beyond 1 instance" target="_blank">
<polygon fill="#c2e0c6" stroke="#000000" stroke-width="2" points="248,-468.5 16,-468.5 16,-385.5 248,-385.5 248,-468.5"/>
<text text-anchor="middle" x="132" y="-453.3" font-family="Times,serif" font-size="14.00" fill="#000000">ZcashFoundation/zebra#4946</text>
<text text-anchor="middle" x="132" y="-438.3" font-family="Times,serif" font-size="14.00" fill="#000000">Managed instance groups</text>
<text text-anchor="middle" x="132" y="-423.3" font-family="Times,serif" font-size="14.00" fill="#000000">deployed with continuous</text>
<text text-anchor="middle" x="132" y="-408.3" font-family="Times,serif" font-size="14.00" fill="#000000">deployment can&#39;t scale</text>
<text text-anchor="middle" x="132" y="-393.3" font-family="Times,serif" font-size="14.00" fill="#000000">beyond 1 instance</text>
</a>
</g>
</g>
<!-- ZcashFoundation/zebra#4965 -->
<g id="node15" class="node open">
<title>ZcashFoundation/zebra#4965</title>
<g id="a_node15"><a xlink:href="https://github.com/ZcashFoundation/zebra/issues/4965" xlink:title="ZcashFoundation/zebra#4965&#10;ci: delete old cached&#10;disk images from GCP" target="_blank">
<polygon fill="#c2e0c6" stroke="#000000" stroke-width="2" points="248,-367.5 16,-367.5 16,-314.5 248,-314.5 248,-367.5"/>
<text text-anchor="middle" x="132" y="-352.3" font-family="Times,serif" font-size="14.00" fill="#000000">ZcashFoundation/zebra#4965</text>
<text text-anchor="middle" x="132" y="-337.3" font-family="Times,serif" font-size="14.00" fill="#000000">ci: delete old cached</text>
<text text-anchor="middle" x="132" y="-322.3" font-family="Times,serif" font-size="14.00" fill="#000000">disk images from GCP</text>
</a>
</g>
</g>
<!-- ZcashFoundation/zebra#3050&#45;&gt;ZcashFoundation/zebra#4992 -->
<g id="edge7" class="edge">
<title>ZcashFoundation/zebra#3050&#45;&gt;ZcashFoundation/zebra#4992</title>
<path fill="none" stroke="#000000" d="M284.68,-180.8C281.53,-183.58 278.62,-186.64 276,-190 222.02,-259.29 301.34,-910.22 248,-980 247.52,-980.63 247.03,-981.25 246.53,-981.85"/>
<polygon fill="#000000" stroke="#000000" points="243.8897,-979.5456 239.46,-989.17 248.9247,-984.4087 243.8897,-979.5456"/>
</g>
<!-- ZcashFoundation/zebra#4967 -->
<g id="node20" class="node open">
<title>ZcashFoundation/zebra#4967</title>
<g id="a_node20"><a xlink:href="https://github.com/ZcashFoundation/zebra/pull/4967" xlink:title="ZcashFoundation/zebra#4967&#10;feat(rpc): add&#10;getblockhash rpc method" target="_blank">
<polygon fill="#a7c2aa" stroke="#000000" points="784,-180.5 552,-180.5 552,-176.5 548,-176.5 548,-172.5 552,-172.5 552,-135.5 548,-135.5 548,-131.5 552,-131.5 552,-127.5 784,-127.5 784,-180.5"/>
<polyline fill="none" stroke="#000000" points="552,-176.5 556,-176.5 556,-172.5 552,-172.5 "/>
<polyline fill="none" stroke="#000000" points="552,-135.5 556,-135.5 556,-131.5 552,-131.5 "/>
<text text-anchor="middle" x="668" y="-165.3" font-family="Times,serif" font-size="14.00" fill="#000000">ZcashFoundation/zebra#4967</text>
<text text-anchor="middle" x="668" y="-150.3" font-family="Times,serif" font-size="14.00" fill="#000000">feat(rpc): add</text>
<text text-anchor="middle" x="668" y="-135.3" font-family="Times,serif" font-size="14.00" fill="#000000">getblockhash rpc method</text>
</a>
</g>
</g>
<!-- ZcashFoundation/zebra#3050&#45;&gt;ZcashFoundation/zebra#4967 -->
<g id="edge8" class="edge">
<title>ZcashFoundation/zebra#3050&#45;&gt;ZcashFoundation/zebra#4967</title>
<path fill="none" stroke="#000000" d="M516.38,-154C524.71,-154 533.14,-154 541.53,-154"/>
<polygon fill="#000000" stroke="#000000" points="541.74,-157.5001 551.74,-154 541.74,-150.5001 541.74,-157.5001"/>
</g>
<!-- ZcashFoundation/zebra#1638 -->
<g id="node18" class="node open">
<title>ZcashFoundation/zebra#1638</title>
<g id="a_node18"><a xlink:href="https://github.com/ZcashFoundation/zebra/issues/1638" xlink:title="ZcashFoundation/zebra#1638&#10;Create PGP keys amongst&#10;security@zfnd.org" target="_blank">
<polygon fill="#c2e0c6" stroke="#000000" stroke-width="2" points="516,-109.5 284,-109.5 284,-56.5 516,-56.5 516,-109.5"/>
<text text-anchor="middle" x="400" y="-94.3" font-family="Times,serif" font-size="14.00" fill="#000000">ZcashFoundation/zebra#1638</text>
<text text-anchor="middle" x="400" y="-79.3" font-family="Times,serif" font-size="14.00" fill="#000000">Create PGP keys amongst</text>
<text text-anchor="middle" x="400" y="-64.3" font-family="Times,serif" font-size="14.00" fill="#000000">security@zfnd.org</text>
</a>
</g>
</g>
</g>
</svg>
