<?xml version="1.0" encoding="UTF-8" standalone="no"?>
<?xml-stylesheet href="zcash-dag.css" type="text/css"?>
<!DOCTYPE svg PUBLIC "-//W3C//DTD SVG 1.1//EN"
 "http://www.w3.org/Graphics/SVG/1.1/DTD/svg11.dtd">
<!-- Generated by graphviz version 2.40.1 (20161225.0304)
 -->
<!-- Pages: 1 -->
<svg width="792pt" height="1177pt"
 viewBox="0.00 0.00 792.00 1177.00" xmlns="http://www.w3.org/2000/svg" xmlns:xlink="http://www.w3.org/1999/xlink">
<g id="graph0" class="graph" transform="scale(1 1) rotate(0) translate(4 1173)">
<polygon fill="#ffffff" stroke="transparent" points="-4,4 -4,-1173 788,-1173 788,4 -4,4"/>
<g id="clust1" class="cluster">
<title>cluster_1</title>
<polygon fill="none" stroke="#0000ff" points="8,-307 8,-1161 524,-1161 524,-307 8,-307"/>
<text text-anchor="middle" x="266" y="-1145.8" font-family="Times,serif" font-size="14.00" fill="#000000">DevOps Ticket Tracker</text>
</g>
<g id="clust2" class="cluster">
<title>cluster_0</title>
<polygon fill="none" stroke="#0000ff" points="276,-48 276,-299 524,-299 524,-48 276,-48"/>
<text text-anchor="middle" x="400" y="-283.8" font-family="Times,serif" font-size="14.00" fill="#000000">Epic: Zebra Release Candidates</text>
</g>
<g id="clust3" class="cluster">
<title>cluster_2</title>
<polygon fill="none" stroke="#0000ff" points="0,0 0,-1169 784,-1169 784,0 0,0"/>
<text text-anchor="middle" x="392" y="-1153.8" font-family="Times,serif" font-size="14.00" fill="#000000">Epic: Zebra as a lightwalletd backend</text>
</g>
<!-- ZcashFoundation/zebra#4953 -->
<g id="node1" class="node open">
<title>ZcashFoundation/zebra#4953</title>
<g id="a_node1"><a xlink:href="https://github.com/ZcashFoundation/zebra/issues/4953" xlink:title="ZcashFoundation/zebra#4953&#10;Document how to use&#10;released Zebra binaries" target="_blank">
<polygon fill="#c2e0c6" stroke="#000000" stroke-width="2" points="248,-814.5 16,-814.5 16,-761.5 248,-761.5 248,-814.5"/>
<text text-anchor="middle" x="132" y="-799.3" font-family="Times,serif" font-size="14.00" fill="#000000">ZcashFoundation/zebra#4953</text>
<text text-anchor="middle" x="132" y="-784.3" font-family="Times,serif" font-size="14.00" fill="#000000">Document how to use</text>
<text text-anchor="middle" x="132" y="-769.3" font-family="Times,serif" font-size="14.00" fill="#000000">released Zebra binaries</text>
</a>
</g>
</g>
<!-- ZcashFoundation/zebra#1615 -->
<g id="node14" class="node open">
<title>ZcashFoundation/zebra#1615</title>
<g id="a_node14"><a xlink:href="https://github.com/ZcashFoundation/zebra/issues/1615" xlink:title="ZcashFoundation/zebra#1615&#10;Zebra release candidate&#10;binaries should be linked&#10;from ZFND website" target="_blank">
<polygon fill="#a7c2aa" stroke="#000000" points="516,-196 284,-196 284,-128 516,-128 516,-196"/>
<text text-anchor="middle" x="400" y="-180.8" font-family="Times,serif" font-size="14.00" fill="#000000">ZcashFoundation/zebra#1615</text>
<text text-anchor="middle" x="400" y="-165.8" font-family="Times,serif" font-size="14.00" fill="#000000">Zebra release candidate</text>
<text text-anchor="middle" x="400" y="-150.8" font-family="Times,serif" font-size="14.00" fill="#000000">binaries should be linked</text>
<text text-anchor="middle" x="400" y="-135.8" font-family="Times,serif" font-size="14.00" fill="#000000">from ZFND website</text>
</a>
</g>
</g>
<!-- ZcashFoundation/zebra#4953&#45;&gt;ZcashFoundation/zebra#1615 -->
<g id="edge4" class="edge">
<title>ZcashFoundation/zebra#4953&#45;&gt;ZcashFoundation/zebra#1615</title>
<path fill="none" stroke="#000000" d="M239.39,-761.12C242.52,-758.36 245.41,-755.33 248,-752 322.54,-656.06 203.39,-303.41 276,-206 276.57,-205.24 277.15,-204.49 277.74,-203.76"/>
<polygon fill="#000000" stroke="#000000" points="280.3742,-206.0669 284.62,-196.36 275.2476,-201.3005 280.3742,-206.0669"/>
</g>
<!-- ZcashFoundation/zebra#1963 -->
<g id="node2" class="node open">
<title>ZcashFoundation/zebra#1963</title>
<g id="a_node2"><a xlink:href="https://github.com/ZcashFoundation/zebra/issues/1963" xlink:title="ZcashFoundation/zebra#1963&#10;Work out how to release&#10;Zebra binaries" target="_blank">
<polygon fill="#c2e0c6" stroke="#000000" stroke-width="2" points="248,-1129.5 16,-1129.5 16,-1076.5 248,-1076.5 248,-1129.5"/>
<text text-anchor="middle" x="132" y="-1114.3" font-family="Times,serif" font-size="14.00" fill="#000000">ZcashFoundation/zebra#1963</text>
<text text-anchor="middle" x="132" y="-1099.3" font-family="Times,serif" font-size="14.00" fill="#000000">Work out how to release</text>
<text text-anchor="middle" x="132" y="-1084.3" font-family="Times,serif" font-size="14.00" fill="#000000">Zebra binaries</text>
</a>
</g>
</g>
<!-- ZcashFoundation/zebra#4954 -->
<g id="node3" class="node open">
<title>ZcashFoundation/zebra#4954</title>
<g id="a_node3"><a xlink:href="https://github.com/ZcashFoundation/zebra/issues/4954" xlink:title="ZcashFoundation/zebra#4954&#10;Update release checklist&#10;PR template for the&#10;release candidate series" target="_blank">
<polygon fill="#c2e0c6" stroke="#000000" points="516,-1130 284,-1130 284,-1062 516,-1062 516,-1130"/>
<text text-anchor="middle" x="400" y="-1114.8" font-family="Times,serif" font-size="14.00" fill="#000000">ZcashFoundation/zebra#4954</text>
<text text-anchor="middle" x="400" y="-1099.8" font-family="Times,serif" font-size="14.00" fill="#000000">Update release checklist</text>
<text text-anchor="middle" x="400" y="-1084.8" font-family="Times,serif" font-size="14.00" fill="#000000">PR template for the</text>
<text text-anchor="middle" x="400" y="-1069.8" font-family="Times,serif" font-size="14.00" fill="#000000">release candidate series</text>
</a>
</g>
</g>
<!-- ZcashFoundation/zebra#1963&#45;&gt;ZcashFoundation/zebra#4954 -->
<g id="edge1" class="edge">
<title>ZcashFoundation/zebra#1963&#45;&gt;ZcashFoundation/zebra#4954</title>
<path fill="none" stroke="#000000" d="M248.38,-1100C256.71,-1099.7 265.14,-1099.5 273.53,-1099.3"/>
<polygon fill="#000000" stroke="#000000" points="273.8471,-1102.7923 283.74,-1099 273.6415,-1095.7953 273.8471,-1102.7923"/>
</g>
<!-- ZcashFoundation/zebra#4412 -->
<g id="node4" class="node open">
<title>ZcashFoundation/zebra#4412</title>
<g id="a_node4"><a xlink:href="https://github.com/ZcashFoundation/zebra/issues/4412" xlink:title="ZcashFoundation/zebra#4412&#10;Automate pinning CI&#10;dependencies to specific&#10;commit hashes" target="_blank">
<polygon fill="#c2e0c6" stroke="#000000" points="516,-1044 284,-1044 284,-976 516,-976 516,-1044"/>
<text text-anchor="middle" x="400" y="-1028.8" font-family="Times,serif" font-size="14.00" fill="#000000">ZcashFoundation/zebra#4412</text>
<text text-anchor="middle" x="400" y="-1013.8" font-family="Times,serif" font-size="14.00" fill="#000000">Automate pinning CI</text>
<text text-anchor="middle" x="400" y="-998.8" font-family="Times,serif" font-size="14.00" fill="#000000">dependencies to specific</text>
<text text-anchor="middle" x="400" y="-983.8" font-family="Times,serif" font-size="14.00" fill="#000000">commit hashes</text>
</a>
</g>
</g>
<!-- ZcashFoundation/zebra#1963&#45;&gt;ZcashFoundation/zebra#4412 -->
<g id="edge2" class="edge">
<title>ZcashFoundation/zebra#1963&#45;&gt;ZcashFoundation/zebra#4412</title>
<path fill="none" stroke="#000000" d="M222.74,-1076.4C231.35,-1073.4 239.88,-1070.3 248,-1067 260.91,-1061.8 263.18,-1058.4 276,-1053 280.19,-1051.2 284.48,-1049.5 288.82,-1047.8"/>
<polygon fill="#000000" stroke="#000000" points="290.4101,-1050.9349 298.42,-1044 287.8337,-1044.4262 290.4101,-1050.9349"/>
</g>
<!-- ZcashFoundation/zebra#755 -->
<g id="node17" class="node closed">
<title>ZcashFoundation/zebra#755</title>
<g id="a_node17"><a xlink:href="https://github.com/ZcashFoundation/zebra/issues/755" xlink:title="ZcashFoundation/zebra#755&#10;Automate zebrad releases" target="_blank">
<polygon fill="#fad8c7" stroke="#000000" points="511.5,-38 288.5,-38 288.5,0 511.5,0 511.5,-38"/>
<text text-anchor="middle" x="400" y="-22.8" font-family="Times,serif" font-size="14.00" fill="#000000">ZcashFoundation/zebra#755</text>
<text text-anchor="middle" x="400" y="-7.8" font-family="Times,serif" font-size="14.00" fill="#000000">Automate zebrad releases</text>
</a>
</g>
</g>
<!-- ZcashFoundation/zebra#1963&#45;&gt;ZcashFoundation/zebra#755 -->
<g id="edge5" class="edge">
<title>ZcashFoundation/zebra#1963&#45;&gt;ZcashFoundation/zebra#755</title>
<path fill="none" stroke="#000000" d="M239.49,-1076.2C242.59,-1073.4 245.45,-1070.4 248,-1067 316.69,-976.38 202.78,-131 276,-44 277.38,-42.362 278.83,-40.812 280.35,-39.347"/>
<polygon fill="#000000" stroke="#000000" points="282.9535,-41.7393 288.48,-32.7 278.5228,-36.32 282.9535,-41.7393"/>
</g>
<!-- ZcashFoundation/zebra#3050 -->
<g id="node15" class="node open">
<title>ZcashFoundation/zebra#3050</title>
<g id="a_node15"><a xlink:href="https://github.com/ZcashFoundation/zebra/issues/3050" xlink:title="ZcashFoundation/zebra#3050&#10;Tag Zebra 1.0.0&#45;rc.0&#10;stable release candidate" target="_blank">
<polygon fill="#a7c2aa" stroke="#000000" points="516,-267.5 284,-267.5 284,-214.5 516,-214.5 516,-267.5"/>
<text text-anchor="middle" x="400" y="-252.3" font-family="Times,serif" font-size="14.00" fill="#000000">ZcashFoundation/zebra#3050</text>
<text text-anchor="middle" x="400" y="-237.3" font-family="Times,serif" font-size="14.00" fill="#000000">Tag Zebra 1.0.0&#45;rc.0</text>
<text text-anchor="middle" x="400" y="-222.3" font-family="Times,serif" font-size="14.00" fill="#000000">stable release candidate</text>
</a>
</g>
</g>
<!-- ZcashFoundation/zebra#4954&#45;&gt;ZcashFoundation/zebra#3050 -->
<g id="edge6" class="edge">
<title>ZcashFoundation/zebra#4954&#45;&gt;ZcashFoundation/zebra#3050</title>
<path fill="none" stroke="#000000" d="M283.93,-1068.4C275.02,-1061.9 267.4,-1053.9 262,-1044 252.26,-1026.2 252.26,-329.85 262,-312 271.04,-295.44 285.46,-282.63 301.65,-272.75"/>
<polygon fill="#000000" stroke="#000000" points="303.8224,-275.5414 310.79,-267.56 300.3659,-269.4543 303.8224,-275.5414"/>
</g>
<!-- ZcashFoundation/zebra#4612 -->
<g id="node5" class="node open">
<title>ZcashFoundation/zebra#4612</title>
<g id="a_node5"><a xlink:href="https://github.com/ZcashFoundation/zebra/issues/4612" xlink:title="ZcashFoundation/zebra#4612&#10;ci: Wait for lightwalletd&#10;image rebuild if it has&#10;changed" target="_blank">
<polygon fill="#c2e0c6" stroke="#000000" points="516,-958 284,-958 284,-890 516,-890 516,-958"/>
<text text-anchor="middle" x="400" y="-942.8" font-family="Times,serif" font-size="14.00" fill="#000000">ZcashFoundation/zebra#4612</text>
<text text-anchor="middle" x="400" y="-927.8" font-family="Times,serif" font-size="14.00" fill="#000000">ci: Wait for lightwalletd</text>
<text text-anchor="middle" x="400" y="-912.8" font-family="Times,serif" font-size="14.00" fill="#000000">image rebuild if it has</text>
<text text-anchor="middle" x="400" y="-897.8" font-family="Times,serif" font-size="14.00" fill="#000000">changed</text>
</a>
</g>
</g>
<!-- ZcashFoundation/zebra#4955 -->
<g id="node6" class="node open">
<title>ZcashFoundation/zebra#4955</title>
<g id="a_node6"><a xlink:href="https://github.com/ZcashFoundation/zebra/issues/4955" xlink:title="ZcashFoundation/zebra#4955&#10;Make long&#45;running test&#10;names match workflow&#10;names" target="_blank">
<polygon fill="#c2e0c6" stroke="#000000" points="248,-972 16,-972 16,-904 248,-904 248,-972"/>
<text text-anchor="middle" x="132" y="-956.8" font-family="Times,serif" font-size="14.00" fill="#000000">ZcashFoundation/zebra#4955</text>
<text text-anchor="middle" x="132" y="-941.8" font-family="Times,serif" font-size="14.00" fill="#000000">Make long&#45;running test</text>
<text text-anchor="middle" x="132" y="-926.8" font-family="Times,serif" font-size="14.00" fill="#000000">names match workflow</text>
<text text-anchor="middle" x="132" y="-911.8" font-family="Times,serif" font-size="14.00" fill="#000000">names</text>
</a>
</g>
</g>
<!-- ZcashFoundation/zebra#4882 -->
<g id="node7" class="node open">
<title>ZcashFoundation/zebra#4882</title>
<g id="a_node7"><a xlink:href="https://github.com/ZcashFoundation/zebra/issues/4882" xlink:title="ZcashFoundation/zebra#4882&#10;Add zcash&#45;lightwalletd /&#10;Build images to required&#10;jobs" target="_blank">
<polygon fill="#c2e0c6" stroke="#000000" stroke-width="2" points="248,-1058 16,-1058 16,-990 248,-990 248,-1058"/>
<text text-anchor="middle" x="132" y="-1042.8" font-family="Times,serif" font-size="14.00" fill="#000000">ZcashFoundation/zebra#4882</text>
<text text-anchor="middle" x="132" y="-1027.8" font-family="Times,serif" font-size="14.00" fill="#000000">Add zcash&#45;lightwalletd /</text>
<text text-anchor="middle" x="132" y="-1012.8" font-family="Times,serif" font-size="14.00" fill="#000000">Build images to required</text>
<text text-anchor="middle" x="132" y="-997.8" font-family="Times,serif" font-size="14.00" fill="#000000">jobs</text>
</a>
</g>
</g>
<!-- ZcashFoundation/zebra#4882&#45;&gt;ZcashFoundation/zebra#4612 -->
<g id="edge3" class="edge">
<title>ZcashFoundation/zebra#4882&#45;&gt;ZcashFoundation/zebra#4612</title>
<path fill="none" stroke="#000000" d="M226.67,-989.88C233.92,-986.97 241.1,-983.99 248,-981 260.76,-975.46 263.18,-972.4 276,-967 280.19,-965.24 284.48,-963.49 288.82,-961.76"/>
<polygon fill="#000000" stroke="#000000" points="290.3789,-964.9087 298.42,-958.01 287.8319,-958.3885 290.3789,-964.9087"/>
</g>
<!-- ZcashFoundation/zebra#4992 -->
<g id="node8" class="node open">
<title>ZcashFoundation/zebra#4992</title>
<g id="a_node8"><a xlink:href="https://github.com/ZcashFoundation/zebra/issues/4992" xlink:title="ZcashFoundation/zebra#4992&#10;Run cached state CI on&#10;testnet" target="_blank">
<polygon fill="#c2e0c6" stroke="#000000" points="248,-885.5 16,-885.5 16,-832.5 248,-832.5 248,-885.5"/>
<text text-anchor="middle" x="132" y="-870.3" font-family="Times,serif" font-size="14.00" fill="#000000">ZcashFoundation/zebra#4992</text>
<text text-anchor="middle" x="132" y="-855.3" font-family="Times,serif" font-size="14.00" fill="#000000">Run cached state CI on</text>
<text text-anchor="middle" x="132" y="-840.3" font-family="Times,serif" font-size="14.00" fill="#000000">testnet</text>
</a>
</g>
</g>
<!-- ZcashFoundation/zebra#4554 -->
<g id="node9" class="node open">
<title>ZcashFoundation/zebra#4554</title>
<g id="a_node9"><a xlink:href="https://github.com/ZcashFoundation/zebra/issues/4554" xlink:title="ZcashFoundation/zebra#4554&#10;benchmarks: surface&#10;zebrad mainnet sync time&#10;in CI" target="_blank">
<polygon fill="#c2e0c6" stroke="#000000" stroke-width="2" points="248,-743 16,-743 16,-675 248,-675 248,-743"/>
<text text-anchor="middle" x="132" y="-727.8" font-family="Times,serif" font-size="14.00" fill="#000000">ZcashFoundation/zebra#4554</text>
<text text-anchor="middle" x="132" y="-712.8" font-family="Times,serif" font-size="14.00" fill="#000000">benchmarks: surface</text>
<text text-anchor="middle" x="132" y="-697.8" font-family="Times,serif" font-size="14.00" fill="#000000">zebrad mainnet sync time</text>
<text text-anchor="middle" x="132" y="-682.8" font-family="Times,serif" font-size="14.00" fill="#000000">in CI</text>
</a>
</g>
</g>
<!-- ZcashFoundation/zebra#4529 -->
<g id="node10" class="node open">
<title>ZcashFoundation/zebra#4529</title>
<g id="a_node10"><a xlink:href="https://github.com/ZcashFoundation/zebra/issues/4529" xlink:title="ZcashFoundation/zebra#4529&#10;Make PRs from external&#10;repositories pass or skip&#10;CI jobs" target="_blank">
<polygon fill="#c2e0c6" stroke="#000000" stroke-width="2" points="248,-657 16,-657 16,-589 248,-589 248,-657"/>
<text text-anchor="middle" x="132" y="-641.8" font-family="Times,serif" font-size="14.00" fill="#000000">ZcashFoundation/zebra#4529</text>
<text text-anchor="middle" x="132" y="-626.8" font-family="Times,serif" font-size="14.00" fill="#000000">Make PRs from external</text>
<text text-anchor="middle" x="132" y="-611.8" font-family="Times,serif" font-size="14.00" fill="#000000">repositories pass or skip</text>
<text text-anchor="middle" x="132" y="-596.8" font-family="Times,serif" font-size="14.00" fill="#000000">CI jobs</text>
</a>
</g>
</g>
<!-- ZcashFoundation/zebra#4956 -->
<g id="node11" class="node open">
<title>ZcashFoundation/zebra#4956</title>
<g id="a_node11"><a xlink:href="https://github.com/ZcashFoundation/zebra/issues/4956" xlink:title="ZcashFoundation/zebra#4956&#10;Make file locations&#10;appear in zebrad Docker&#10;error messages" target="_blank">
<polygon fill="#c2e0c6" stroke="#000000" stroke-width="2" points="248,-571 16,-571 16,-503 248,-503 248,-571"/>
<text text-anchor="middle" x="132" y="-555.8" font-family="Times,serif" font-size="14.00" fill="#000000">ZcashFoundation/zebra#4956</text>
<text text-anchor="middle" x="132" y="-540.8" font-family="Times,serif" font-size="14.00" fill="#000000">Make file locations</text>
<text text-anchor="middle" x="132" y="-525.8" font-family="Times,serif" font-size="14.00" fill="#000000">appear in zebrad Docker</text>
<text text-anchor="middle" x="132" y="-510.8" font-family="Times,serif" font-size="14.00" fill="#000000">error messages</text>
</a>
</g>
</g>
<!-- ZcashFoundation/zebra#4976 -->
<g id="node12" class="node open">
<title>ZcashFoundation/zebra#4976</title>
<g id="a_node12"><a xlink:href="https://github.com/ZcashFoundation/zebra/issues/4976" xlink:title="ZcashFoundation/zebra#4976&#10;Move continuous&#10;deployment to another&#10;Google Cloud region" target="_blank">
<polygon fill="#c2e0c6" stroke="#000000" stroke-width="2" points="248,-485 16,-485 16,-417 248,-417 248,-485"/>
<text text-anchor="middle" x="132" y="-469.8" font-family="Times,serif" font-size="14.00" fill="#000000">ZcashFoundation/zebra#4976</text>
<text text-anchor="middle" x="132" y="-454.8" font-family="Times,serif" font-size="14.00" fill="#000000">Move continuous</text>
<text text-anchor="middle" x="132" y="-439.8" font-family="Times,serif" font-size="14.00" fill="#000000">deployment to another</text>
<text text-anchor="middle" x="132" y="-424.8" font-family="Times,serif" font-size="14.00" fill="#000000">Google Cloud region</text>
</a>
</g>
</g>
<!-- ZcashFoundation/zebra#4946 -->
<g id="node13" class="node open">
<title>ZcashFoundation/zebra#4946</title>
<g id="a_node13"><a xlink:href="https://github.com/ZcashFoundation/zebra/issues/4946" xlink:title="ZcashFoundation/zebra#4946&#10;Managed instance groups&#10;deployed with continuous&#10;deployment can&#39;t scale&#10;beyond 1 instance" target="_blank">
<polygon fill="#c2e0c6" stroke="#000000" stroke-width="2" points="248,-398.5 16,-398.5 16,-315.5 248,-315.5 248,-398.5"/>
<text text-anchor="middle" x="132" y="-383.3" font-family="Times,serif" font-size="14.00" fill="#000000">ZcashFoundation/zebra#4946</text>
<text text-anchor="middle" x="132" y="-368.3" font-family="Times,serif" font-size="14.00" fill="#000000">Managed instance groups</text>
<text text-anchor="middle" x="132" y="-353.3" font-family="Times,serif" font-size="14.00" fill="#000000">deployed with continuous</text>
<text text-anchor="middle" x="132" y="-338.3" font-family="Times,serif" font-size="14.00" fill="#000000">deployment can&#39;t scale</text>
<text text-anchor="middle" x="132" y="-323.3" font-family="Times,serif" font-size="14.00" fill="#000000">beyond 1 instance</text>
</a>
</g>
</g>
<!-- ZcashFoundation/zebra#3050&#45;&gt;ZcashFoundation/zebra#4955 -->
<g id="edge7" class="edge">
<title>ZcashFoundation/zebra#3050&#45;&gt;ZcashFoundation/zebra#4955</title>
<path fill="none" stroke="#000000" d="M316.15,-267.64C300.38,-276.44 285.78,-287.97 276,-303 204.13,-413.37 325.76,-788.7 248,-895 247.71,-895.39 247.43,-895.78 247.13,-896.16"/>
<polygon fill="#000000" stroke="#000000" points="244.4588,-893.897 240.44,-903.7 249.6949,-898.5428 244.4588,-893.897"/>
</g>
<!-- ZcashFoundation/zebra#3050&#45;&gt;ZcashFoundation/zebra#4992 -->
<g id="edge8" class="edge">
<title>ZcashFoundation/zebra#3050&#45;&gt;ZcashFoundation/zebra#4992</title>
<path fill="none" stroke="#000000" d="M316.54,-267.52C300.64,-276.33 285.9,-287.9 276,-303 212.42,-399.96 319.61,-732.81 248,-824 247.78,-824.28 247.56,-824.56 247.34,-824.83"/>
<polygon fill="#000000" stroke="#000000" points="244.6634,-822.5654 240.3,-832.22 249.7317,-827.3937 244.6634,-822.5654"/>
</g>
<!-- ZcashFoundation/zebra#4967 -->
<g id="node18" class="node open">
<title>ZcashFoundation/zebra#4967</title>
<g id="a_node18"><a xlink:href="https://github.com/ZcashFoundation/zebra/pull/4967" xlink:title="ZcashFoundation/zebra#4967&#10;feat(rpc): add&#10;getblockhash rpc method" target="_blank">
<polygon fill="#a7c2aa" stroke="#000000" points="784,-267.5 552,-267.5 552,-263.5 548,-263.5 548,-259.5 552,-259.5 552,-222.5 548,-222.5 548,-218.5 552,-218.5 552,-214.5 784,-214.5 784,-267.5"/>
<polyline fill="none" stroke="#000000" points="552,-263.5 556,-263.5 556,-259.5 552,-259.5 "/>
<polyline fill="none" stroke="#000000" points="552,-222.5 556,-222.5 556,-218.5 552,-218.5 "/>
<text text-anchor="middle" x="668" y="-252.3" font-family="Times,serif" font-size="14.00" fill="#000000">ZcashFoundation/zebra#4967</text>
<text text-anchor="middle" x="668" y="-237.3" font-family="Times,serif" font-size="14.00" fill="#000000">feat(rpc): add</text>
<text text-anchor="middle" x="668" y="-222.3" font-family="Times,serif" font-size="14.00" fill="#000000">getblockhash rpc method</text>
</a>
</g>
</g>
<!-- ZcashFoundation/zebra#3050&#45;&gt;ZcashFoundation/zebra#4967 -->
<g id="edge9" class="edge">
<title>ZcashFoundation/zebra#3050&#45;&gt;ZcashFoundation/zebra#4967</title>
<path fill="none" stroke="#000000" d="M516.38,-241C524.71,-241 533.14,-241 541.53,-241"/>
<polygon fill="#000000" stroke="#000000" points="541.74,-244.5001 551.74,-241 541.74,-237.5001 541.74,-244.5001"/>
</g>
<!-- ZcashFoundation/zebra#1638 -->
<g id="node16" class="node open">
<title>ZcashFoundation/zebra#1638</title>
<g id="a_node16"><a xlink:href="https://github.com/ZcashFoundation/zebra/issues/1638" xlink:title="ZcashFoundation/zebra#1638&#10;Create PGP keys amongst&#10;security@zfnd.org" target="_blank">
<polygon fill="#c2e0c6" stroke="#000000" stroke-width="2" points="516,-109.5 284,-109.5 284,-56.5 516,-56.5 516,-109.5"/>
<text text-anchor="middle" x="400" y="-94.3" font-family="Times,serif" font-size="14.00" fill="#000000">ZcashFoundation/zebra#1638</text>
<text text-anchor="middle" x="400" y="-79.3" font-family="Times,serif" font-size="14.00" fill="#000000">Create PGP keys amongst</text>
<text text-anchor="middle" x="400" y="-64.3" font-family="Times,serif" font-size="14.00" fill="#000000">security@zfnd.org</text>
</a>
</g>
</g>
</g>
</svg>
