<?xml version="1.0" encoding="UTF-8" standalone="no"?>
<?xml-stylesheet href="zcash-dag.css" type="text/css"?>
<!DOCTYPE svg PUBLIC "-//W3C//DTD SVG 1.1//EN"
 "http://www.w3.org/Graphics/SVG/1.1/DTD/svg11.dtd">
<!-- Generated by graphviz version 2.40.1 (20161225.0304)
 -->
<!-- Pages: 1 -->
<svg width="832pt" height="839pt"
 viewBox="0.00 0.00 832.00 839.00" xmlns="http://www.w3.org/2000/svg" xmlns:xlink="http://www.w3.org/1999/xlink">
<g id="graph0" class="graph" transform="scale(1 1) rotate(0) translate(4 835)">
<polygon fill="#ffffff" stroke="transparent" points="-4,4 -4,-835 828,-835 828,4 -4,4"/>
<g id="clust1" class="cluster">
<title>cluster_0</title>
<polygon fill="none" stroke="#0000ff" points="20,-85 20,-178 268,-178 268,-85 20,-85"/>
<text text-anchor="middle" x="144" y="-162.8" font-family="Times,serif" font-size="14.00" fill="#000000">Tracking: Documentation</text>
</g>
<g id="clust2" class="cluster">
<title>cluster_1</title>
<polygon fill="none" stroke="#0000ff" points="576,-648 576,-741 824,-741 824,-648 576,-648"/>
<text text-anchor="middle" x="700" y="-725.8" font-family="Times,serif" font-size="14.00" fill="#000000">Tracking: Tech Debt</text>
</g>
<g id="clust3" class="cluster">
<title>cluster_5</title>
<polygon fill="none" stroke="#0000ff" points="20,-218 20,-640 824,-640 824,-218 20,-218"/>
<text text-anchor="middle" x="422" y="-624.8" font-family="Times,serif" font-size="14.00" fill="#000000">Epic: Zebra Stable Release Candidate</text>
</g>
<g id="clust4" class="cluster">
<title>cluster_3</title>
<polygon fill="none" stroke="#0000ff" points="0,-648 0,-755 288,-755 288,-648 0,-648"/>
<text text-anchor="middle" x="144" y="-739.8" font-family="Times,serif" font-size="14.00" fill="#000000">Epic: Zebra as a lightwalletd backend</text>
</g>
<!-- ZcashFoundation/zebra#1963 -->
<g id="node1" class="node open">
<title>ZcashFoundation/zebra#1963</title>
<g id="a_node1"><a xlink:href="https://github.com/ZcashFoundation/zebra/issues/1963" xlink:title="ZcashFoundation/zebra#1963&#10;Work out how to release&#10;Zebra binaries" target="_blank">
<polygon fill="#c2e0c6" stroke="#000000" stroke-width="2" points="260,-146.5 28,-146.5 28,-93.5 260,-93.5 260,-146.5"/>
<text text-anchor="middle" x="144" y="-131.3" font-family="Times,serif" font-size="14.00" fill="#000000">ZcashFoundation/zebra#1963</text>
<text text-anchor="middle" x="144" y="-116.3" font-family="Times,serif" font-size="14.00" fill="#000000">Work out how to release</text>
<text text-anchor="middle" x="144" y="-101.3" font-family="Times,serif" font-size="14.00" fill="#000000">Zebra binaries</text>
</a>
</g>
</g>
<!-- ZcashFoundation/zebra#755 -->
<g id="node13" class="node open">
<title>ZcashFoundation/zebra#755</title>
<g id="a_node13"><a xlink:href="https://github.com/ZcashFoundation/zebra/issues/755" xlink:title="ZcashFoundation/zebra#755&#10;Automate zebrad releases" target="_blank">
<polygon fill="#c2e0c6" stroke="#000000" points="543.5,-210 320.5,-210 320.5,-172 543.5,-172 543.5,-210"/>
<text text-anchor="middle" x="432" y="-194.8" font-family="Times,serif" font-size="14.00" fill="#000000">ZcashFoundation/zebra#755</text>
<text text-anchor="middle" x="432" y="-179.8" font-family="Times,serif" font-size="14.00" fill="#000000">Automate zebrad releases</text>
</a>
</g>
</g>
<!-- ZcashFoundation/zebra#1963&#45;&gt;ZcashFoundation/zebra#755 -->
<g id="edge8" class="edge">
<title>ZcashFoundation/zebra#1963&#45;&gt;ZcashFoundation/zebra#755</title>
<path fill="none" stroke="#000000" d="M249.48,-146.51C271.46,-152 294.48,-157.71 316,-163 324.72,-165.14 333.81,-167.36 342.89,-169.57"/>
<polygon fill="#000000" stroke="#000000" points="342.1864,-173.0008 352.73,-171.96 343.8386,-166.1986 342.1864,-173.0008"/>
</g>
<!-- ZcashFoundation/zebra#2564 -->
<g id="node14" class="node open">
<title>ZcashFoundation/zebra#2564</title>
<g id="a_node14"><a xlink:href="https://github.com/ZcashFoundation/zebra/issues/2564" xlink:title="ZcashFoundation/zebra#2564&#10;Include git metadata in&#10;docker logs and Google&#10;Cloud panic reports" target="_blank">
<polygon fill="#c2e0c6" stroke="#000000" points="548,-154 316,-154 316,-86 548,-86 548,-154"/>
<text text-anchor="middle" x="432" y="-138.8" font-family="Times,serif" font-size="14.00" fill="#000000">ZcashFoundation/zebra#2564</text>
<text text-anchor="middle" x="432" y="-123.8" font-family="Times,serif" font-size="14.00" fill="#000000">Include git metadata in</text>
<text text-anchor="middle" x="432" y="-108.8" font-family="Times,serif" font-size="14.00" fill="#000000">docker logs and Google</text>
<text text-anchor="middle" x="432" y="-93.8" font-family="Times,serif" font-size="14.00" fill="#000000">Cloud panic reports</text>
</a>
</g>
</g>
<!-- ZcashFoundation/zebra#1963&#45;&gt;ZcashFoundation/zebra#2564 -->
<g id="edge9" class="edge">
<title>ZcashFoundation/zebra#1963&#45;&gt;ZcashFoundation/zebra#2564</title>
<path fill="none" stroke="#000000" d="M260.31,-120C275.15,-120 290.4,-120 305.39,-120"/>
<polygon fill="#000000" stroke="#000000" points="305.72,-123.5001 315.72,-120 305.72,-116.5001 305.72,-123.5001"/>
</g>
<!-- ZcashFoundation/zebra#4412 -->
<g id="node15" class="node open">
<title>ZcashFoundation/zebra#4412</title>
<g id="a_node15"><a xlink:href="https://github.com/ZcashFoundation/zebra/issues/4412" xlink:title="ZcashFoundation/zebra#4412&#10;Automate pinning CI&#10;dependencies to specific&#10;commit hashes" target="_blank">
<polygon fill="#c2e0c6" stroke="#000000" points="548,-68 316,-68 316,0 548,0 548,-68"/>
<text text-anchor="middle" x="432" y="-52.8" font-family="Times,serif" font-size="14.00" fill="#000000">ZcashFoundation/zebra#4412</text>
<text text-anchor="middle" x="432" y="-37.8" font-family="Times,serif" font-size="14.00" fill="#000000">Automate pinning CI</text>
<text text-anchor="middle" x="432" y="-22.8" font-family="Times,serif" font-size="14.00" fill="#000000">dependencies to specific</text>
<text text-anchor="middle" x="432" y="-7.8" font-family="Times,serif" font-size="14.00" fill="#000000">commit hashes</text>
</a>
</g>
</g>
<!-- ZcashFoundation/zebra#1963&#45;&gt;ZcashFoundation/zebra#4412 -->
<g id="edge10" class="edge">
<title>ZcashFoundation/zebra#1963&#45;&gt;ZcashFoundation/zebra#4412</title>
<path fill="none" stroke="#000000" d="M232.76,-93.495C256.65,-86.362 282.93,-78.515 308.34,-70.926"/>
<polygon fill="#000000" stroke="#000000" points="309.4504,-74.2472 318.03,-68.031 307.4465,-67.5401 309.4504,-74.2472"/>
</g>
<!-- ZcashFoundation/zebra#1791 -->
<g id="node2" class="node closed">
<title>ZcashFoundation/zebra#1791</title>
<g id="a_node2"><a xlink:href="https://github.com/ZcashFoundation/zebra/issues/1791" xlink:title="ZcashFoundation/zebra#1791&#10;Re&#45;enable `sync_large_che&#10;ckpoints_testnet` test" target="_blank">
<polygon fill="#fad8c7" stroke="#000000" points="816,-709.5 584,-709.5 584,-656.5 816,-656.5 816,-709.5"/>
<text text-anchor="middle" x="700" y="-694.3" font-family="Times,serif" font-size="14.00" fill="#000000">ZcashFoundation/zebra#1791</text>
<text text-anchor="middle" x="700" y="-679.3" font-family="Times,serif" font-size="14.00" fill="#000000">Re&#45;enable `sync_large_che</text>
<text text-anchor="middle" x="700" y="-664.3" font-family="Times,serif" font-size="14.00" fill="#000000">ckpoints_testnet` test</text>
</a>
</g>
</g>
<!-- ZcashFoundation/zebra#1894 -->
<g id="node3" class="node open">
<title>ZcashFoundation/zebra#1894</title>
<g id="a_node3"><a xlink:href="https://github.com/ZcashFoundation/zebra/issues/1894" xlink:title="ZcashFoundation/zebra#1894&#10;Zebra should follow OS&#10;directory conventions&#10;better" target="_blank">
<polygon fill="#c2e0c6" stroke="#000000" points="548,-451 316,-451 316,-383 548,-383 548,-451"/>
<text text-anchor="middle" x="432" y="-435.8" font-family="Times,serif" font-size="14.00" fill="#000000">ZcashFoundation/zebra#1894</text>
<text text-anchor="middle" x="432" y="-420.8" font-family="Times,serif" font-size="14.00" fill="#000000">Zebra should follow OS</text>
<text text-anchor="middle" x="432" y="-405.8" font-family="Times,serif" font-size="14.00" fill="#000000">directory conventions</text>
<text text-anchor="middle" x="432" y="-390.8" font-family="Times,serif" font-size="14.00" fill="#000000">better</text>
</a>
</g>
</g>
<!-- ZcashFoundation/zebra#3432 -->
<g id="node4" class="node open">
<title>ZcashFoundation/zebra#3432</title>
<g id="a_node4"><a xlink:href="https://github.com/ZcashFoundation/zebra/issues/3432" xlink:title="ZcashFoundation/zebra#3432&#10;Use the Filesystem&#10;Hierarchy Standard (FHS)&#10;for deployments and&#10;artifacts" target="_blank">
<polygon fill="#c2e0c6" stroke="#000000" points="816,-458.5 584,-458.5 584,-375.5 816,-375.5 816,-458.5"/>
<text text-anchor="middle" x="700" y="-443.3" font-family="Times,serif" font-size="14.00" fill="#000000">ZcashFoundation/zebra#3432</text>
<text text-anchor="middle" x="700" y="-428.3" font-family="Times,serif" font-size="14.00" fill="#000000">Use the Filesystem</text>
<text text-anchor="middle" x="700" y="-413.3" font-family="Times,serif" font-size="14.00" fill="#000000">Hierarchy Standard (FHS)</text>
<text text-anchor="middle" x="700" y="-398.3" font-family="Times,serif" font-size="14.00" fill="#000000">for deployments and</text>
<text text-anchor="middle" x="700" y="-383.3" font-family="Times,serif" font-size="14.00" fill="#000000">artifacts</text>
</a>
</g>
</g>
<!-- ZcashFoundation/zebra#1894&#45;&gt;ZcashFoundation/zebra#3432 -->
<g id="edge1" class="edge">
<title>ZcashFoundation/zebra#1894&#45;&gt;ZcashFoundation/zebra#3432</title>
<path fill="none" stroke="#000000" d="M548.38,-417C556.71,-417 565.14,-417 573.53,-417"/>
<polygon fill="#000000" stroke="#000000" points="573.74,-420.5001 583.74,-417 573.74,-413.5001 573.74,-420.5001"/>
</g>
<!-- ZcashFoundation/zebra#3050 -->
<g id="node5" class="node open">
<title>ZcashFoundation/zebra#3050</title>
<g id="a_node5"><a xlink:href="https://github.com/ZcashFoundation/zebra/issues/3050" xlink:title="ZcashFoundation/zebra#3050&#10;Tag Zebra 1.0.0&#45;rc.0&#10;stable release candidate" target="_blank">
<polygon fill="#a7c2aa" stroke="#000000" points="548,-522.5 316,-522.5 316,-469.5 548,-469.5 548,-522.5"/>
<text text-anchor="middle" x="432" y="-507.3" font-family="Times,serif" font-size="14.00" fill="#000000">ZcashFoundation/zebra#3050</text>
<text text-anchor="middle" x="432" y="-492.3" font-family="Times,serif" font-size="14.00" fill="#000000">Tag Zebra 1.0.0&#45;rc.0</text>
<text text-anchor="middle" x="432" y="-477.3" font-family="Times,serif" font-size="14.00" fill="#000000">stable release candidate</text>
</a>
</g>
</g>
<!-- ZcashFoundation/zebra#1904 -->
<g id="node6" class="node open">
<title>ZcashFoundation/zebra#1904</title>
<g id="a_node6"><a xlink:href="https://github.com/ZcashFoundation/zebra/issues/1904" xlink:title="ZcashFoundation/zebra#1904&#10;Some DNS seeders and&#10;block explorers don&#39;t&#10;show Zebra nodes" target="_blank">
<polygon fill="#a7c2aa" stroke="#000000" points="548,-609 316,-609 316,-541 548,-541 548,-609"/>
<text text-anchor="middle" x="432" y="-593.8" font-family="Times,serif" font-size="14.00" fill="#000000">ZcashFoundation/zebra#1904</text>
<text text-anchor="middle" x="432" y="-578.8" font-family="Times,serif" font-size="14.00" fill="#000000">Some DNS seeders and</text>
<text text-anchor="middle" x="432" y="-563.8" font-family="Times,serif" font-size="14.00" fill="#000000">block explorers don&#39;t</text>
<text text-anchor="middle" x="432" y="-548.8" font-family="Times,serif" font-size="14.00" fill="#000000">show Zebra nodes</text>
</a>
</g>
</g>
<!-- ZcashFoundation/zebra#1904&#45;&gt;ZcashFoundation/zebra#1791 -->
<g id="edge5" class="edge">
<title>ZcashFoundation/zebra#1904&#45;&gt;ZcashFoundation/zebra#1791</title>
<path fill="none" stroke="#000000" d="M498.16,-609.13C522.32,-620.94 550.08,-633.78 576,-644 584.01,-647.16 592.38,-650.24 600.84,-653.2"/>
<polygon fill="#000000" stroke="#000000" points="599.8053,-656.5453 610.4,-656.49 602.0832,-649.9263 599.8053,-656.5453"/>
</g>
<!-- ZcashFoundation/zebra#4448 -->
<g id="node7" class="node open">
<title>ZcashFoundation/zebra#4448</title>
<g id="a_node7"><a xlink:href="https://github.com/ZcashFoundation/zebra/issues/4448" xlink:title="ZcashFoundation/zebra#4448&#10;Decide on supported&#10;platforms and test in CI" target="_blank">
<polygon fill="#c2e0c6" stroke="#000000" stroke-width="2" points="260,-522.5 28,-522.5 28,-469.5 260,-469.5 260,-522.5"/>
<text text-anchor="middle" x="144" y="-507.3" font-family="Times,serif" font-size="14.00" fill="#000000">ZcashFoundation/zebra#4448</text>
<text text-anchor="middle" x="144" y="-492.3" font-family="Times,serif" font-size="14.00" fill="#000000">Decide on supported</text>
<text text-anchor="middle" x="144" y="-477.3" font-family="Times,serif" font-size="14.00" fill="#000000">platforms and test in CI</text>
</a>
</g>
</g>
<!-- ZcashFoundation/zebra#4448&#45;&gt;ZcashFoundation/zebra#1894 -->
<g id="edge2" class="edge">
<title>ZcashFoundation/zebra#4448&#45;&gt;ZcashFoundation/zebra#1894</title>
<path fill="none" stroke="#000000" d="M256.19,-469.4C266.96,-466.65 277.7,-463.82 288,-461 296.24,-458.74 304.73,-456.34 313.26,-453.87"/>
<polygon fill="#000000" stroke="#000000" points="314.2873,-457.2163 322.91,-451.06 312.3302,-450.4954 314.2873,-457.2163"/>
</g>
<!-- ZcashFoundation/zebra#4448&#45;&gt;ZcashFoundation/zebra#3050 -->
<g id="edge3" class="edge">
<title>ZcashFoundation/zebra#4448&#45;&gt;ZcashFoundation/zebra#3050</title>
<path fill="none" stroke="#000000" d="M260.31,-496C275.15,-496 290.4,-496 305.39,-496"/>
<polygon fill="#000000" stroke="#000000" points="305.72,-499.5001 315.72,-496 305.72,-492.5001 305.72,-499.5001"/>
</g>
<!-- ZcashFoundation/zebra#4448&#45;&gt;ZcashFoundation/zebra#755 -->
<g id="edge6" class="edge">
<title>ZcashFoundation/zebra#4448&#45;&gt;ZcashFoundation/zebra#755</title>
<path fill="none" stroke="#000000" d="M260.27,-481.73C270.72,-476.55 280.26,-469.78 288,-461 358.85,-380.64 248.26,-300.31 313.71,-217.48"/>
<polygon fill="#000000" stroke="#000000" points="316.5195,-219.5804 320.37,-209.71 311.2046,-215.0248 316.5195,-219.5804"/>
</g>
<!-- ZcashFoundation/zebra#4448&#45;&gt;ZcashFoundation/zebra#2564 -->
<g id="edge7" class="edge">
<title>ZcashFoundation/zebra#4448&#45;&gt;ZcashFoundation/zebra#2564</title>
<path fill="none" stroke="#000000" d="M260.09,-482.06C270.65,-476.82 280.26,-469.95 288,-461 331.51,-410.69 275.5,-215.76 316,-163 316.39,-162.49 316.78,-161.99 317.18,-161.5"/>
<polygon fill="#000000" stroke="#000000" points="319.9248,-163.6896 324.21,-154 314.8176,-158.9024 319.9248,-163.6896"/>
</g>
<!-- ZcashFoundation/zebra#4562 -->
<g id="node8" class="node open">
<title>ZcashFoundation/zebra#4562</title>
<g id="a_node8"><a xlink:href="https://github.com/ZcashFoundation/zebra/issues/4562" xlink:title="ZcashFoundation/zebra#4562&#10;Deploy long&#45;running Zebra&#10;nodes after each tagged&#10;release" target="_blank">
<polygon fill="#c2e0c6" stroke="#000000" stroke-width="2" points="260,-609 28,-609 28,-541 260,-541 260,-609"/>
<text text-anchor="middle" x="144" y="-593.8" font-family="Times,serif" font-size="14.00" fill="#000000">ZcashFoundation/zebra#4562</text>
<text text-anchor="middle" x="144" y="-578.8" font-family="Times,serif" font-size="14.00" fill="#000000">Deploy long&#45;running Zebra</text>
<text text-anchor="middle" x="144" y="-563.8" font-family="Times,serif" font-size="14.00" fill="#000000">nodes after each tagged</text>
<text text-anchor="middle" x="144" y="-548.8" font-family="Times,serif" font-size="14.00" fill="#000000">release</text>
</a>
</g>
</g>
<!-- ZcashFoundation/zebra#4562&#45;&gt;ZcashFoundation/zebra#1904 -->
<g id="edge4" class="edge">
<title>ZcashFoundation/zebra#4562&#45;&gt;ZcashFoundation/zebra#1904</title>
<path fill="none" stroke="#000000" d="M260.31,-575C275.15,-575 290.4,-575 305.39,-575"/>
<polygon fill="#000000" stroke="#000000" points="305.72,-578.5001 315.72,-575 305.72,-571.5001 305.72,-578.5001"/>
</g>
<!-- ZcashFoundation/zebra#1638 -->
<g id="node9" class="node open">
<title>ZcashFoundation/zebra#1638</title>
<g id="a_node9"><a xlink:href="https://github.com/ZcashFoundation/zebra/issues/1638" xlink:title="ZcashFoundation/zebra#1638&#10;Create PGP keys amongst&#10;security@zfnd.org" target="_blank">
<polygon fill="#c2e0c6" stroke="#000000" stroke-width="2" points="260,-451.5 28,-451.5 28,-398.5 260,-398.5 260,-451.5"/>
<text text-anchor="middle" x="144" y="-436.3" font-family="Times,serif" font-size="14.00" fill="#000000">ZcashFoundation/zebra#1638</text>
<text text-anchor="middle" x="144" y="-421.3" font-family="Times,serif" font-size="14.00" fill="#000000">Create PGP keys amongst</text>
<text text-anchor="middle" x="144" y="-406.3" font-family="Times,serif" font-size="14.00" fill="#000000">security@zfnd.org</text>
</a>
</g>
</g>
<!-- ZcashFoundation/zebra#4751 -->
<g id="node10" class="node open">
<title>ZcashFoundation/zebra#4751</title>
<g id="a_node10"><a xlink:href="https://github.com/ZcashFoundation/zebra/issues/4751" xlink:title="ZcashFoundation/zebra#4751&#10;ci: Add missing CI/CD&#10;status labels to&#10;README.md" target="_blank">
<polygon fill="#c2e0c6" stroke="#000000" stroke-width="2" points="260,-380 28,-380 28,-312 260,-312 260,-380"/>
<text text-anchor="middle" x="144" y="-364.8" font-family="Times,serif" font-size="14.00" fill="#000000">ZcashFoundation/zebra#4751</text>
<text text-anchor="middle" x="144" y="-349.8" font-family="Times,serif" font-size="14.00" fill="#000000">ci: Add missing CI/CD</text>
<text text-anchor="middle" x="144" y="-334.8" font-family="Times,serif" font-size="14.00" fill="#000000">status labels to</text>
<text text-anchor="middle" x="144" y="-319.8" font-family="Times,serif" font-size="14.00" fill="#000000">README.md</text>
</a>
</g>
</g>
<!-- ZcashFoundation/zebra#4753 -->
<g id="node11" class="node open">
<title>ZcashFoundation/zebra#4753</title>
<g id="a_node11"><a xlink:href="https://github.com/ZcashFoundation/zebra/issues/4753" xlink:title="ZcashFoundation/zebra#4753&#10;ci: Split deploy&#45;gcp&#45;&#10;tests workflow into&#10;multiple categories" target="_blank">
<polygon fill="#c2e0c6" stroke="#000000" stroke-width="2" points="260,-294 28,-294 28,-226 260,-226 260,-294"/>
<text text-anchor="middle" x="144" y="-278.8" font-family="Times,serif" font-size="14.00" fill="#000000">ZcashFoundation/zebra#4753</text>
<text text-anchor="middle" x="144" y="-263.8" font-family="Times,serif" font-size="14.00" fill="#000000">ci: Split deploy&#45;gcp&#45;</text>
<text text-anchor="middle" x="144" y="-248.8" font-family="Times,serif" font-size="14.00" fill="#000000">tests workflow into</text>
<text text-anchor="middle" x="144" y="-233.8" font-family="Times,serif" font-size="14.00" fill="#000000">multiple categories</text>
</a>
</g>
</g>
<!-- ZcashFoundation/zebra#4612 -->
<g id="node12" class="node open">
<title>ZcashFoundation/zebra#4612</title>
<g id="a_node12"><a xlink:href="https://github.com/ZcashFoundation/zebra/issues/4612" xlink:title="ZcashFoundation/zebra#4612&#10;ci: Wait for lightwalletd&#10;image rebuild if it has&#10;changed" target="_blank">
<polygon fill="#c2e0c6" stroke="#000000" stroke-width="2" points="260,-724 28,-724 28,-656 260,-656 260,-724"/>
<text text-anchor="middle" x="144" y="-708.8" font-family="Times,serif" font-size="14.00" fill="#000000">ZcashFoundation/zebra#4612</text>
<text text-anchor="middle" x="144" y="-693.8" font-family="Times,serif" font-size="14.00" fill="#000000">ci: Wait for lightwalletd</text>
<text text-anchor="middle" x="144" y="-678.8" font-family="Times,serif" font-size="14.00" fill="#000000">image rebuild if it has</text>
<text text-anchor="middle" x="144" y="-663.8" font-family="Times,serif" font-size="14.00" fill="#000000">changed</text>
</a>
</g>
</g>
<!-- ZcashFoundation/zebra#4554 -->
<g id="node16" class="node open">
<title>ZcashFoundation/zebra#4554</title>
<g id="a_node16"><a xlink:href="https://github.com/ZcashFoundation/zebra/issues/4554" xlink:title="ZcashFoundation/zebra#4554&#10;benchmarks: surface&#10;zebrad mainnet sync time&#10;in CI" target="_blank">
<polygon fill="#c2e0c6" stroke="#000000" stroke-width="2" points="260,-831 28,-831 28,-763 260,-763 260,-831"/>
<text text-anchor="middle" x="144" y="-815.8" font-family="Times,serif" font-size="14.00" fill="#000000">ZcashFoundation/zebra#4554</text>
<text text-anchor="middle" x="144" y="-800.8" font-family="Times,serif" font-size="14.00" fill="#000000">benchmarks: surface</text>
<text text-anchor="middle" x="144" y="-785.8" font-family="Times,serif" font-size="14.00" fill="#000000">zebrad mainnet sync time</text>
<text text-anchor="middle" x="144" y="-770.8" font-family="Times,serif" font-size="14.00" fill="#000000">in CI</text>
</a>
</g>
</g>
</g>
</svg>
