<?xml version="1.0" encoding="UTF-8" standalone="no"?>
<?xml-stylesheet href="zcash-dag.css" type="text/css"?>
<!DOCTYPE svg PUBLIC "-//W3C//DTD SVG 1.1//EN"
 "http://www.w3.org/Graphics/SVG/1.1/DTD/svg11.dtd">
<!-- Generated by graphviz version 2.40.1 (20161225.0304)
 -->
<!-- Pages: 1 -->
<svg width="1513pt" height="763pt"
 viewBox="0.00 0.00 1513.00 763.00" xmlns="http://www.w3.org/2000/svg" xmlns:xlink="http://www.w3.org/1999/xlink">
<g id="graph0" class="graph" transform="scale(1 1) rotate(0) translate(4 759)">
<polygon fill="#ffffff" stroke="transparent" points="-4,4 -4,-759 1509,-759 1509,4 -4,4"/>
<g id="clust1" class="cluster">
<title>cluster_0</title>
<polygon fill="none" stroke="#0000ff" points="0,-1 0,-251 1247.5,-251 1247.5,-1 0,-1"/>
<text text-anchor="middle" x="623.75" y="-235.8" font-family="Times,serif" font-size="14.00" fill="#000000">Epic: v8</text>
</g>
<g id="clust2" class="cluster">
<title>cluster_4</title>
<polygon fill="none" stroke="#0000ff" points="1272,-10 1272,-159 1505,-159 1505,-10 1272,-10"/>
<text text-anchor="middle" x="1388.5" y="-143.8" font-family="Times,serif" font-size="14.00" fill="#000000">Epic: v9/v10</text>
</g>
<g id="clust3" class="cluster">
<title>cluster_1</title>
<polygon fill="none" stroke="#0000ff" points="1023.5,-259 1023.5,-478 1247.5,-478 1247.5,-259 1023.5,-259"/>
<text text-anchor="middle" x="1135.5" y="-462.8" font-family="Times,serif" font-size="14.00" fill="#000000">Epic: Remaining Curves</text>
</g>
<g id="clust4" class="cluster">
<title>cluster_2</title>
<polygon fill="none" stroke="#0000ff" points="8,-415 8,-522 488.5,-522 488.5,-415 8,-415"/>
<text text-anchor="middle" x="248.25" y="-506.8" font-family="Times,serif" font-size="14.00" fill="#000000">Epic: DKG</text>
</g>
<g id="clust5" class="cluster">
<title>cluster_3</title>
<polygon fill="none" stroke="#0000ff" points="766,-486 766,-679 1505,-679 1505,-486 766,-486"/>
<text text-anchor="middle" x="1135.5" y="-663.8" font-family="Times,serif" font-size="14.00" fill="#000000">Epic: Re&#45;randomizable FROST</text>
</g>
<!-- ZcashFoundation/frost#86 -->
<g id="node1" class="node open">
<title>ZcashFoundation/frost#86</title>
<g id="a_node1"><a xlink:href="https://github.com/ZcashFoundation/frost/issues/86" xlink:title="ZcashFoundation/frost#86&#10;frost&#45;core: update for&#10;spec version 6&amp;7" target="_blank">
<polygon fill="#c2e0c6" stroke="#000000" points="480.5,-212.5 272.5,-212.5 272.5,-159.5 480.5,-159.5 480.5,-212.5"/>
<text text-anchor="middle" x="376.5" y="-197.3" font-family="Times,serif" font-size="14.00" fill="#000000">ZcashFoundation/frost#86</text>
<text text-anchor="middle" x="376.5" y="-182.3" font-family="Times,serif" font-size="14.00" fill="#000000">frost&#45;core: update for</text>
<text text-anchor="middle" x="376.5" y="-167.3" font-family="Times,serif" font-size="14.00" fill="#000000">spec version 6&amp;7</text>
</a>
</g>
</g>
<!-- ZcashFoundation/frost#101 -->
<g id="node2" class="node open">
<title>ZcashFoundation/frost#101</title>
<g id="a_node2"><a xlink:href="https://github.com/ZcashFoundation/frost/issues/101" xlink:title="ZcashFoundation/frost#101&#10;frost&#45;core: support H4&#10;and H5 domain&#45;separated&#10;hashes per&#45;ciphersuite" target="_blank">
<polygon fill="#c2e0c6" stroke="#000000" points="738,-220 521,-220 521,-152 738,-152 738,-220"/>
<text text-anchor="middle" x="629.5" y="-204.8" font-family="Times,serif" font-size="14.00" fill="#000000">ZcashFoundation/frost#101</text>
<text text-anchor="middle" x="629.5" y="-189.8" font-family="Times,serif" font-size="14.00" fill="#000000">frost&#45;core: support H4</text>
<text text-anchor="middle" x="629.5" y="-174.8" font-family="Times,serif" font-size="14.00" fill="#000000">and H5 domain&#45;separated</text>
<text text-anchor="middle" x="629.5" y="-159.8" font-family="Times,serif" font-size="14.00" fill="#000000">hashes per&#45;ciphersuite</text>
</a>
</g>
</g>
<!-- ZcashFoundation/frost#86&#45;&gt;ZcashFoundation/frost#101 -->
<g id="edge1" class="edge">
<title>ZcashFoundation/frost#86&#45;&gt;ZcashFoundation/frost#101</title>
<path fill="none" stroke="#000000" d="M480.5,-186C490.52,-186 500.73,-186 510.87,-186"/>
<polygon fill="#000000" stroke="#000000" points="510.99,-189.5001 520.99,-186 510.99,-182.5001 510.99,-189.5001"/>
</g>
<!-- ZcashFoundation/frost#79 -->
<g id="node10" class="node open">
<title>ZcashFoundation/frost#79</title>
<g id="a_node10"><a xlink:href="https://github.com/ZcashFoundation/frost/issues/79" xlink:title="ZcashFoundation/frost#79&#10;Publish `frost&#45;` crates" target="_blank">
<polygon fill="#c2e0c6" stroke="#000000" points="1492.5,-56 1284.5,-56 1284.5,-18 1492.5,-18 1492.5,-56"/>
<text text-anchor="middle" x="1388.5" y="-40.8" font-family="Times,serif" font-size="14.00" fill="#000000">ZcashFoundation/frost#79</text>
<text text-anchor="middle" x="1388.5" y="-25.8" font-family="Times,serif" font-size="14.00" fill="#000000">Publish `frost&#45;` crates</text>
</a>
</g>
</g>
<!-- ZcashFoundation/frost#86&#45;&gt;ZcashFoundation/frost#79 -->
<g id="edge11" class="edge">
<title>ZcashFoundation/frost#86&#45;&gt;ZcashFoundation/frost#79</title>
<path fill="none" stroke="#000000" d="M396.24,-159.49C421.28,-128.28 467.67,-78.05 521,-57 654.67,-4.243 1070.9,-19.011 1274.3,-29.96"/>
<polygon fill="#000000" stroke="#000000" points="1274.2242,-33.461 1284.4,-30.511 1274.6055,-26.4714 1274.2242,-33.461"/>
</g>
<!-- ZcashFoundation/frost#97 -->
<g id="node3" class="node open">
<title>ZcashFoundation/frost#97</title>
<g id="a_node3"><a xlink:href="https://github.com/ZcashFoundation/frost/issues/97" xlink:title="ZcashFoundation/frost#97&#10;frost&#45;core: update to&#10;spec v8" target="_blank">
<polygon fill="#c2e0c6" stroke="#000000" points="986.5,-219.5 778.5,-219.5 778.5,-166.5 986.5,-166.5 986.5,-219.5"/>
<text text-anchor="middle" x="882.5" y="-204.3" font-family="Times,serif" font-size="14.00" fill="#000000">ZcashFoundation/frost#97</text>
<text text-anchor="middle" x="882.5" y="-189.3" font-family="Times,serif" font-size="14.00" fill="#000000">frost&#45;core: update to</text>
<text text-anchor="middle" x="882.5" y="-174.3" font-family="Times,serif" font-size="14.00" fill="#000000">spec v8</text>
</a>
</g>
</g>
<!-- ZcashFoundation/frost#101&#45;&gt;ZcashFoundation/frost#97 -->
<g id="edge2" class="edge">
<title>ZcashFoundation/frost#101&#45;&gt;ZcashFoundation/frost#97</title>
<path fill="none" stroke="#000000" d="M738.26,-189.01C748.1,-189.28 758.09,-189.56 767.98,-189.83"/>
<polygon fill="#000000" stroke="#000000" points="768.1451,-193.336 778.24,-190.12 768.3429,-186.3388 768.1451,-193.336"/>
</g>
<!-- ZcashFoundation/frost#98 -->
<g id="node4" class="node open">
<title>ZcashFoundation/frost#98</title>
<g id="a_node4"><a xlink:href="https://github.com/ZcashFoundation/frost/issues/98" xlink:title="ZcashFoundation/frost#98&#10;frost&#45;ristretto255:&#10;update to use frost&#45;core&#10;v8" target="_blank">
<polygon fill="#c2e0c6" stroke="#000000" points="1239.5,-148 1031.5,-148 1031.5,-80 1239.5,-80 1239.5,-148"/>
<text text-anchor="middle" x="1135.5" y="-132.8" font-family="Times,serif" font-size="14.00" fill="#000000">ZcashFoundation/frost#98</text>
<text text-anchor="middle" x="1135.5" y="-117.8" font-family="Times,serif" font-size="14.00" fill="#000000">frost&#45;ristretto255:</text>
<text text-anchor="middle" x="1135.5" y="-102.8" font-family="Times,serif" font-size="14.00" fill="#000000">update to use frost&#45;core</text>
<text text-anchor="middle" x="1135.5" y="-87.8" font-family="Times,serif" font-size="14.00" fill="#000000">v8</text>
</a>
</g>
</g>
<!-- ZcashFoundation/frost#97&#45;&gt;ZcashFoundation/frost#98 -->
<g id="edge3" class="edge">
<title>ZcashFoundation/frost#97&#45;&gt;ZcashFoundation/frost#98</title>
<path fill="none" stroke="#000000" d="M967.45,-166.47C984.85,-161.04 1003.4,-155.24 1021.7,-149.55"/>
<polygon fill="#000000" stroke="#000000" points="1022.9163,-152.8364 1031.4,-146.49 1020.8103,-146.1607 1022.9163,-152.8364"/>
</g>
<!-- ZcashFoundation/frost#99 -->
<g id="node5" class="node open">
<title>ZcashFoundation/frost#99</title>
<g id="a_node5"><a xlink:href="https://github.com/ZcashFoundation/frost/issues/99" xlink:title="ZcashFoundation/frost#99&#10;frost&#45;p256: update to use&#10;frost&#45;core v8" target="_blank">
<polygon fill="#c2e0c6" stroke="#000000" points="1239.5,-219.5 1031.5,-219.5 1031.5,-166.5 1239.5,-166.5 1239.5,-219.5"/>
<text text-anchor="middle" x="1135.5" y="-204.3" font-family="Times,serif" font-size="14.00" fill="#000000">ZcashFoundation/frost#99</text>
<text text-anchor="middle" x="1135.5" y="-189.3" font-family="Times,serif" font-size="14.00" fill="#000000">frost&#45;p256: update to use</text>
<text text-anchor="middle" x="1135.5" y="-174.3" font-family="Times,serif" font-size="14.00" fill="#000000">frost&#45;core v8</text>
</a>
</g>
</g>
<!-- ZcashFoundation/frost#97&#45;&gt;ZcashFoundation/frost#99 -->
<g id="edge4" class="edge">
<title>ZcashFoundation/frost#97&#45;&gt;ZcashFoundation/frost#99</title>
<path fill="none" stroke="#000000" d="M986.5,-193C998,-193 1009.7,-193 1021.3,-193"/>
<polygon fill="#000000" stroke="#000000" points="1021.5,-196.5001 1031.5,-193 1021.5,-189.5001 1021.5,-196.5001"/>
</g>
<!-- ZcashFoundation/frost#70 -->
<g id="node12" class="node open">
<title>ZcashFoundation/frost#70</title>
<g id="a_node12"><a xlink:href="https://github.com/ZcashFoundation/frost/issues/70" xlink:title="ZcashFoundation/frost#70&#10;Add Ed25519 support" target="_blank">
<polygon fill="#c2e0c6" stroke="#000000" points="1239.5,-447 1031.5,-447 1031.5,-409 1239.5,-409 1239.5,-447"/>
<text text-anchor="middle" x="1135.5" y="-431.8" font-family="Times,serif" font-size="14.00" fill="#000000">ZcashFoundation/frost#70</text>
<text text-anchor="middle" x="1135.5" y="-416.8" font-family="Times,serif" font-size="14.00" fill="#000000">Add Ed25519 support</text>
</a>
</g>
</g>
<!-- ZcashFoundation/frost#97&#45;&gt;ZcashFoundation/frost#70 -->
<g id="edge12" class="edge">
<title>ZcashFoundation/frost#97&#45;&gt;ZcashFoundation/frost#70</title>
<path fill="none" stroke="#000000" d="M893.02,-219.51C912.07,-264 956.62,-353.37 1023.5,-400 1025.6,-401.48 1027.8,-402.88 1030.1,-404.21"/>
<polygon fill="#000000" stroke="#000000" points="1028.5313,-407.3401 1039,-408.97 1031.8326,-401.1675 1028.5313,-407.3401"/>
</g>
<!-- ZcashFoundation/frost#19 -->
<g id="node13" class="node open">
<title>ZcashFoundation/frost#19</title>
<g id="a_node13"><a xlink:href="https://github.com/ZcashFoundation/frost/issues/19" xlink:title="ZcashFoundation/frost#19&#10;`frost&#45;secp256k1`:&#10;implement FROST on&#10;Secp256k1 curve" target="_blank">
<polygon fill="#c2e0c6" stroke="#000000" points="1239.5,-391 1031.5,-391 1031.5,-323 1239.5,-323 1239.5,-391"/>
<text text-anchor="middle" x="1135.5" y="-375.8" font-family="Times,serif" font-size="14.00" fill="#000000">ZcashFoundation/frost#19</text>
<text text-anchor="middle" x="1135.5" y="-360.8" font-family="Times,serif" font-size="14.00" fill="#000000">`frost&#45;secp256k1`:</text>
<text text-anchor="middle" x="1135.5" y="-345.8" font-family="Times,serif" font-size="14.00" fill="#000000">implement FROST on</text>
<text text-anchor="middle" x="1135.5" y="-330.8" font-family="Times,serif" font-size="14.00" fill="#000000">Secp256k1 curve</text>
</a>
</g>
</g>
<!-- ZcashFoundation/frost#97&#45;&gt;ZcashFoundation/frost#19 -->
<g id="edge13" class="edge">
<title>ZcashFoundation/frost#97&#45;&gt;ZcashFoundation/frost#19</title>
<path fill="none" stroke="#000000" d="M907.91,-219.63C934.63,-246.39 978.9,-287.39 1023.5,-314 1026,-315.48 1028.5,-316.92 1031.1,-318.32"/>
<polygon fill="#000000" stroke="#000000" points="1029.516,-321.4413 1040,-322.97 1032.7576,-315.2371 1029.516,-321.4413"/>
</g>
<!-- ZcashFoundation/frost#71 -->
<g id="node14" class="node open">
<title>ZcashFoundation/frost#71</title>
<g id="a_node14"><a xlink:href="https://github.com/ZcashFoundation/frost/issues/71" xlink:title="ZcashFoundation/frost#71&#10;Add Ed448 support" target="_blank">
<polygon fill="#c2e0c6" stroke="#000000" points="1239.5,-305 1031.5,-305 1031.5,-267 1239.5,-267 1239.5,-305"/>
<text text-anchor="middle" x="1135.5" y="-289.8" font-family="Times,serif" font-size="14.00" fill="#000000">ZcashFoundation/frost#71</text>
<text text-anchor="middle" x="1135.5" y="-274.8" font-family="Times,serif" font-size="14.00" fill="#000000">Add Ed448 support</text>
</a>
</g>
</g>
<!-- ZcashFoundation/frost#97&#45;&gt;ZcashFoundation/frost#71 -->
<g id="edge14" class="edge">
<title>ZcashFoundation/frost#97&#45;&gt;ZcashFoundation/frost#71</title>
<path fill="none" stroke="#000000" d="M938.01,-219.62C963.68,-231.36 994.8,-244.77 1023.5,-255 1032.4,-258.17 1041.8,-261.21 1051.2,-264.07"/>
<polygon fill="#000000" stroke="#000000" points="1050.316,-267.4588 1060.9,-266.98 1052.3275,-260.7541 1050.316,-267.4588"/>
</g>
<!-- ZcashFoundation/frost#120 -->
<g id="node19" class="node open">
<title>ZcashFoundation/frost#120</title>
<g id="a_node19"><a xlink:href="https://github.com/ZcashFoundation/frost/issues/120" xlink:title="ZcashFoundation/frost#120&#10;Update Re&#45;randomizable&#10;FROST implementation to&#10;V8" target="_blank">
<polygon fill="#c2e0c6" stroke="#000000" points="1244,-562 1027,-562 1027,-494 1244,-494 1244,-562"/>
<text text-anchor="middle" x="1135.5" y="-546.8" font-family="Times,serif" font-size="14.00" fill="#000000">ZcashFoundation/frost#120</text>
<text text-anchor="middle" x="1135.5" y="-531.8" font-family="Times,serif" font-size="14.00" fill="#000000">Update Re&#45;randomizable</text>
<text text-anchor="middle" x="1135.5" y="-516.8" font-family="Times,serif" font-size="14.00" fill="#000000">FROST implementation to</text>
<text text-anchor="middle" x="1135.5" y="-501.8" font-family="Times,serif" font-size="14.00" fill="#000000">V8</text>
</a>
</g>
</g>
<!-- ZcashFoundation/frost#97&#45;&gt;ZcashFoundation/frost#120 -->
<g id="edge15" class="edge">
<title>ZcashFoundation/frost#97&#45;&gt;ZcashFoundation/frost#120</title>
<path fill="none" stroke="#000000" d="M888.62,-219.56C902.82,-275.52 943.07,-406.58 1023.5,-482 1025.7,-484.02 1027.9,-485.96 1030.3,-487.82"/>
<polygon fill="#000000" stroke="#000000" points="1028.3653,-490.7414 1038.5,-493.83 1032.5034,-485.0955 1028.3653,-490.7414"/>
</g>
<!-- ZcashFoundation/frost#133 -->
<g id="node11" class="node open">
<title>ZcashFoundation/frost#133</title>
<g id="a_node11"><a xlink:href="https://github.com/ZcashFoundation/frost/issues/133" xlink:title="ZcashFoundation/frost#133&#10;Use nonce_generate test&#10;vectors" target="_blank">
<polygon fill="#c2e0c6" stroke="#000000" points="1497,-127.5 1280,-127.5 1280,-74.5 1497,-74.5 1497,-127.5"/>
<text text-anchor="middle" x="1388.5" y="-112.3" font-family="Times,serif" font-size="14.00" fill="#000000">ZcashFoundation/frost#133</text>
<text text-anchor="middle" x="1388.5" y="-97.3" font-family="Times,serif" font-size="14.00" fill="#000000">Use nonce_generate test</text>
<text text-anchor="middle" x="1388.5" y="-82.3" font-family="Times,serif" font-size="14.00" fill="#000000">vectors</text>
</a>
</g>
</g>
<!-- ZcashFoundation/frost#98&#45;&gt;ZcashFoundation/frost#133 -->
<g id="edge16" class="edge">
<title>ZcashFoundation/frost#98&#45;&gt;ZcashFoundation/frost#133</title>
<path fill="none" stroke="#000000" d="M1239.5,-108.66C1249.5,-108.14 1259.7,-107.62 1269.9,-107.1"/>
<polygon fill="#000000" stroke="#000000" points="1270.1932,-110.5896 1280,-106.58 1269.8332,-103.5989 1270.1932,-110.5896"/>
</g>
<!-- ZcashFoundation/frost#134 -->
<g id="node22" class="node open">
<title>ZcashFoundation/frost#134</title>
<g id="a_node22"><a xlink:href="https://github.com/ZcashFoundation/frost/issues/134" xlink:title="ZcashFoundation/frost#134&#10;Reject identity in&#10;DeserializeElement" target="_blank">
<polygon fill="#c2e0c6" stroke="#000000" points="1497,-220.5 1280,-220.5 1280,-167.5 1497,-167.5 1497,-220.5"/>
<text text-anchor="middle" x="1388.5" y="-205.3" font-family="Times,serif" font-size="14.00" fill="#000000">ZcashFoundation/frost#134</text>
<text text-anchor="middle" x="1388.5" y="-190.3" font-family="Times,serif" font-size="14.00" fill="#000000">Reject identity in</text>
<text text-anchor="middle" x="1388.5" y="-175.3" font-family="Times,serif" font-size="14.00" fill="#000000">DeserializeElement</text>
</a>
</g>
</g>
<!-- ZcashFoundation/frost#98&#45;&gt;ZcashFoundation/frost#134 -->
<g id="edge17" class="edge">
<title>ZcashFoundation/frost#98&#45;&gt;ZcashFoundation/frost#134</title>
<path fill="none" stroke="#000000" d="M1226.9,-148.02C1241.9,-153.25 1257.3,-158.43 1272,-163 1273.6,-163.51 1275.3,-164.03 1277,-164.54"/>
<polygon fill="#000000" stroke="#000000" points="1276.116,-167.9288 1286.7,-167.45 1278.1275,-161.2241 1276.116,-167.9288"/>
</g>
<!-- ZcashFoundation/frost#99&#45;&gt;ZcashFoundation/frost#133 -->
<g id="edge18" class="edge">
<title>ZcashFoundation/frost#99&#45;&gt;ZcashFoundation/frost#133</title>
<path fill="none" stroke="#000000" d="M1220.1,-166.48C1229.4,-163.37 1238.7,-160.17 1247.5,-157 1269.5,-149.1 1293.2,-139.93 1314.8,-131.34"/>
<polygon fill="#000000" stroke="#000000" points="1316.3025,-134.5091 1324.3,-127.56 1313.7145,-128.0051 1316.3025,-134.5091"/>
</g>
<!-- ZcashFoundation/frost#99&#45;&gt;ZcashFoundation/frost#134 -->
<g id="edge19" class="edge">
<title>ZcashFoundation/frost#99&#45;&gt;ZcashFoundation/frost#134</title>
<path fill="none" stroke="#000000" d="M1239.5,-193.41C1249.5,-193.45 1259.7,-193.49 1269.9,-193.53"/>
<polygon fill="#000000" stroke="#000000" points="1269.9862,-197.0303 1280,-193.57 1270.014,-190.0303 1269.9862,-197.0303"/>
</g>
<!-- ZcashFoundation/frost#95 -->
<g id="node6" class="node open">
<title>ZcashFoundation/frost#95</title>
<g id="a_node6"><a xlink:href="https://github.com/ZcashFoundation/frost/issues/95" xlink:title="ZcashFoundation/frost#95&#10;Flesh out all rustdoc in&#10;frost&#45;p256 public API" target="_blank">
<polygon fill="#c2e0c6" stroke="#000000" stroke-width="2" points="224,-133.5 16,-133.5 16,-80.5 224,-80.5 224,-133.5"/>
<text text-anchor="middle" x="120" y="-118.3" font-family="Times,serif" font-size="14.00" fill="#000000">ZcashFoundation/frost#95</text>
<text text-anchor="middle" x="120" y="-103.3" font-family="Times,serif" font-size="14.00" fill="#000000">Flesh out all rustdoc in</text>
<text text-anchor="middle" x="120" y="-88.3" font-family="Times,serif" font-size="14.00" fill="#000000">frost&#45;p256 public API</text>
</a>
</g>
</g>
<!-- ZcashFoundation/frost#95&#45;&gt;ZcashFoundation/frost#79 -->
<g id="edge20" class="edge">
<title>ZcashFoundation/frost#95&#45;&gt;ZcashFoundation/frost#79</title>
<path fill="none" stroke="#000000" d="M221.56,-80.482C346.42,-48.794 551.37,0 629.5,0 629.5,0 629.5,0 882.5,0 1044.9,0 1085.8,-1.8019 1247.5,-17 1256.2,-17.815 1265.1,-18.785 1274.1,-19.852"/>
<polygon fill="#000000" stroke="#000000" points="1273.9505,-23.3595 1284.3,-21.093 1274.7959,-16.4108 1273.9505,-23.3595"/>
</g>
<!-- ZcashFoundation/frost#92 -->
<g id="node7" class="node open">
<title>ZcashFoundation/frost#92</title>
<g id="a_node7"><a xlink:href="https://github.com/ZcashFoundation/frost/issues/92" xlink:title="ZcashFoundation/frost#92&#10;v6/v7: Use per&#45;signer&#10;values of rho to mitigate&#10;protocol malleability" target="_blank">
<polygon fill="#c2e0c6" stroke="#000000" stroke-width="2" points="224,-220 16,-220 16,-152 224,-152 224,-220"/>
<text text-anchor="middle" x="120" y="-204.8" font-family="Times,serif" font-size="14.00" fill="#000000">ZcashFoundation/frost#92</text>
<text text-anchor="middle" x="120" y="-189.8" font-family="Times,serif" font-size="14.00" fill="#000000">v6/v7: Use per&#45;signer</text>
<text text-anchor="middle" x="120" y="-174.8" font-family="Times,serif" font-size="14.00" fill="#000000">values of rho to mitigate</text>
<text text-anchor="middle" x="120" y="-159.8" font-family="Times,serif" font-size="14.00" fill="#000000">protocol malleability</text>
</a>
</g>
</g>
<!-- ZcashFoundation/frost#92&#45;&gt;ZcashFoundation/frost#86 -->
<g id="edge5" class="edge">
<title>ZcashFoundation/frost#92&#45;&gt;ZcashFoundation/frost#86</title>
<path fill="none" stroke="#000000" d="M224.33,-186C236.8,-186 249.59,-186 262.2,-186"/>
<polygon fill="#000000" stroke="#000000" points="262.26,-189.5001 272.26,-186 262.26,-182.5001 262.26,-189.5001"/>
</g>
<!-- ZcashFoundation/frost#102 -->
<g id="node8" class="node open">
<title>ZcashFoundation/frost#102</title>
<g id="a_node8"><a xlink:href="https://github.com/ZcashFoundation/frost/issues/102" xlink:title="ZcashFoundation/frost#102&#10;frost&#45;core: add and use C&#10;iphersuite.identifier_to_&#10;scalar()" target="_blank">
<polygon fill="#c2e0c6" stroke="#000000" stroke-width="2" points="738,-134 521,-134 521,-66 738,-66 738,-134"/>
<text text-anchor="middle" x="629.5" y="-118.8" font-family="Times,serif" font-size="14.00" fill="#000000">ZcashFoundation/frost#102</text>
<text text-anchor="middle" x="629.5" y="-103.8" font-family="Times,serif" font-size="14.00" fill="#000000">frost&#45;core: add and use C</text>
<text text-anchor="middle" x="629.5" y="-88.8" font-family="Times,serif" font-size="14.00" fill="#000000">iphersuite.identifier_to_</text>
<text text-anchor="middle" x="629.5" y="-73.8" font-family="Times,serif" font-size="14.00" fill="#000000">scalar()</text>
</a>
</g>
</g>
<!-- ZcashFoundation/frost#102&#45;&gt;ZcashFoundation/frost#97 -->
<g id="edge6" class="edge">
<title>ZcashFoundation/frost#102&#45;&gt;ZcashFoundation/frost#97</title>
<path fill="none" stroke="#000000" d="M722.27,-134.1C748.03,-143.57 775.81,-153.78 800.88,-163"/>
<polygon fill="#000000" stroke="#000000" points="799.7465,-166.3123 810.34,-166.48 802.1633,-159.7427 799.7465,-166.3123"/>
</g>
<!-- ZcashFoundation/frost#127 -->
<g id="node9" class="node open">
<title>ZcashFoundation/frost#127</title>
<g id="a_node9"><a xlink:href="https://github.com/ZcashFoundation/frost/issues/127" xlink:title="ZcashFoundation/frost#127&#10;Dedupe `SharePackage` and&#10;`SecretShare`" target="_blank">
<polygon fill="#c2e0c6" stroke="#000000" stroke-width="2" points="232,-62.5 8,-62.5 8,-9.5 232,-9.5 232,-62.5"/>
<text text-anchor="middle" x="120" y="-47.3" font-family="Times,serif" font-size="14.00" fill="#000000">ZcashFoundation/frost#127</text>
<text text-anchor="middle" x="120" y="-32.3" font-family="Times,serif" font-size="14.00" fill="#000000">Dedupe `SharePackage` and</text>
<text text-anchor="middle" x="120" y="-17.3" font-family="Times,serif" font-size="14.00" fill="#000000">`SecretShare`</text>
</a>
</g>
</g>
<!-- ZcashFoundation/frost#35 -->
<g id="node15" class="node open">
<title>ZcashFoundation/frost#35</title>
<g id="a_node15"><a xlink:href="https://github.com/ZcashFoundation/frost/issues/35" xlink:title="ZcashFoundation/frost#35&#10;frost&#45;core: Implement the&#10;generic DKG" target="_blank">
<polygon fill="#c2e0c6" stroke="#000000" stroke-width="2" points="224,-483.5 16,-483.5 16,-430.5 224,-430.5 224,-483.5"/>
<text text-anchor="middle" x="120" y="-468.3" font-family="Times,serif" font-size="14.00" fill="#000000">ZcashFoundation/frost#35</text>
<text text-anchor="middle" x="120" y="-453.3" font-family="Times,serif" font-size="14.00" fill="#000000">frost&#45;core: Implement the</text>
<text text-anchor="middle" x="120" y="-438.3" font-family="Times,serif" font-size="14.00" fill="#000000">generic DKG</text>
</a>
</g>
</g>
<!-- ZcashFoundation/frost#63 -->
<g id="node16" class="node open">
<title>ZcashFoundation/frost#63</title>
<g id="a_node16"><a xlink:href="https://github.com/ZcashFoundation/frost/issues/63" xlink:title="ZcashFoundation/frost#63&#10;frost&#45;ristretto255:&#10;implement `frost&#45;core`&#39;s&#10;DKG concretely" target="_blank">
<polygon fill="#c2e0c6" stroke="#000000" points="480.5,-491 272.5,-491 272.5,-423 480.5,-423 480.5,-491"/>
<text text-anchor="middle" x="376.5" y="-475.8" font-family="Times,serif" font-size="14.00" fill="#000000">ZcashFoundation/frost#63</text>
<text text-anchor="middle" x="376.5" y="-460.8" font-family="Times,serif" font-size="14.00" fill="#000000">frost&#45;ristretto255:</text>
<text text-anchor="middle" x="376.5" y="-445.8" font-family="Times,serif" font-size="14.00" fill="#000000">implement `frost&#45;core`&#39;s</text>
<text text-anchor="middle" x="376.5" y="-430.8" font-family="Times,serif" font-size="14.00" fill="#000000">DKG concretely</text>
</a>
</g>
</g>
<!-- ZcashFoundation/frost#35&#45;&gt;ZcashFoundation/frost#63 -->
<g id="edge7" class="edge">
<title>ZcashFoundation/frost#35&#45;&gt;ZcashFoundation/frost#63</title>
<path fill="none" stroke="#000000" d="M224.33,-457C236.8,-457 249.59,-457 262.2,-457"/>
<polygon fill="#000000" stroke="#000000" points="262.26,-460.5001 272.26,-457 262.26,-453.5001 262.26,-460.5001"/>
</g>
<!-- ZcashFoundation/frost#118 -->
<g id="node17" class="node open">
<title>ZcashFoundation/frost#118</title>
<g id="a_node17"><a xlink:href="https://github.com/ZcashFoundation/frost/issues/118" xlink:title="ZcashFoundation/frost#118&#10;Update Re&#45;randomizable&#10;FROST ZIP to V8" target="_blank">
<polygon fill="#c2e0c6" stroke="#000000" stroke-width="2" points="991,-630.5 774,-630.5 774,-577.5 991,-577.5 991,-630.5"/>
<text text-anchor="middle" x="882.5" y="-615.3" font-family="Times,serif" font-size="14.00" fill="#000000">ZcashFoundation/frost#118</text>
<text text-anchor="middle" x="882.5" y="-600.3" font-family="Times,serif" font-size="14.00" fill="#000000">Update Re&#45;randomizable</text>
<text text-anchor="middle" x="882.5" y="-585.3" font-family="Times,serif" font-size="14.00" fill="#000000">FROST ZIP to V8</text>
</a>
</g>
</g>
<!-- ZcashFoundation/frost#119 -->
<g id="node18" class="node open">
<title>ZcashFoundation/frost#119</title>
<g id="a_node18"><a xlink:href="https://github.com/ZcashFoundation/frost/issues/119" xlink:title="ZcashFoundation/frost#119&#10;Review and officially&#10;submit the Re&#45;&#10;randomizable FROST ZIP" target="_blank">
<polygon fill="#c2e0c6" stroke="#000000" points="1244,-648 1027,-648 1027,-580 1244,-580 1244,-648"/>
<text text-anchor="middle" x="1135.5" y="-632.8" font-family="Times,serif" font-size="14.00" fill="#000000">ZcashFoundation/frost#119</text>
<text text-anchor="middle" x="1135.5" y="-617.8" font-family="Times,serif" font-size="14.00" fill="#000000">Review and officially</text>
<text text-anchor="middle" x="1135.5" y="-602.8" font-family="Times,serif" font-size="14.00" fill="#000000">submit the Re&#45;</text>
<text text-anchor="middle" x="1135.5" y="-587.8" font-family="Times,serif" font-size="14.00" fill="#000000">randomizable FROST ZIP</text>
</a>
</g>
</g>
<!-- ZcashFoundation/frost#118&#45;&gt;ZcashFoundation/frost#119 -->
<g id="edge8" class="edge">
<title>ZcashFoundation/frost#118&#45;&gt;ZcashFoundation/frost#119</title>
<path fill="none" stroke="#000000" d="M991.26,-608.3C999.6,-608.63 1008.1,-608.97 1016.6,-609.3"/>
<polygon fill="#000000" stroke="#000000" points="1016.6705,-612.8054 1026.8,-609.7 1016.9449,-605.8107 1016.6705,-612.8054"/>
</g>
<!-- ZcashFoundation/frost#118&#45;&gt;ZcashFoundation/frost#120 -->
<g id="edge9" class="edge">
<title>ZcashFoundation/frost#118&#45;&gt;ZcashFoundation/frost#120</title>
<path fill="none" stroke="#000000" d="M970.99,-577.42C985.86,-572.95 1001.5,-568.25 1017,-563.6"/>
<polygon fill="#000000" stroke="#000000" points="1018.0275,-566.9459 1026.6,-560.72 1016.016,-560.2412 1018.0275,-566.9459"/>
</g>
<!-- ZcashFoundation/frost#121 -->
<g id="node20" class="node open">
<title>ZcashFoundation/frost#121</title>
<g id="a_node20"><a xlink:href="https://github.com/ZcashFoundation/frost/issues/121" xlink:title="ZcashFoundation/frost#121&#10;Organize the Re&#45;&#10;randomizable FROST&#10;implementation" target="_blank">
<polygon fill="#c2e0c6" stroke="#000000" points="1497,-562 1280,-562 1280,-494 1497,-494 1497,-562"/>
<text text-anchor="middle" x="1388.5" y="-546.8" font-family="Times,serif" font-size="14.00" fill="#000000">ZcashFoundation/frost#121</text>
<text text-anchor="middle" x="1388.5" y="-531.8" font-family="Times,serif" font-size="14.00" fill="#000000">Organize the Re&#45;</text>
<text text-anchor="middle" x="1388.5" y="-516.8" font-family="Times,serif" font-size="14.00" fill="#000000">randomizable FROST</text>
<text text-anchor="middle" x="1388.5" y="-501.8" font-family="Times,serif" font-size="14.00" fill="#000000">implementation</text>
</a>
</g>
</g>
<!-- ZcashFoundation/frost#120&#45;&gt;ZcashFoundation/frost#121 -->
<g id="edge10" class="edge">
<title>ZcashFoundation/frost#120&#45;&gt;ZcashFoundation/frost#121</title>
<path fill="none" stroke="#000000" d="M1244.3,-528C1252.6,-528 1261.1,-528 1269.6,-528"/>
<polygon fill="#000000" stroke="#000000" points="1269.8,-531.5001 1279.8,-528 1269.8,-524.5001 1269.8,-531.5001"/>
</g>
<!-- ZcashFoundation/frost#81 -->
<g id="node21" class="node open">
<title>ZcashFoundation/frost#81</title>
<g id="a_node21"><a xlink:href="https://github.com/ZcashFoundation/frost/issues/81" xlink:title="ZcashFoundation/frost#81&#10;Start rerandomized repo" target="_blank">
<polygon fill="#c2e0c6" stroke="#000000" stroke-width="2" points="986.5,-550 778.5,-550 778.5,-512 986.5,-512 986.5,-550"/>
<text text-anchor="middle" x="882.5" y="-534.8" font-family="Times,serif" font-size="14.00" fill="#000000">ZcashFoundation/frost#81</text>
<text text-anchor="middle" x="882.5" y="-519.8" font-family="Times,serif" font-size="14.00" fill="#000000">Start rerandomized repo</text>
</a>
</g>
</g>
<!-- ZcashFoundation/frost#39 -->
<g id="node23" class="node open">
<title>ZcashFoundation/frost#39</title>
<g id="a_node23"><a xlink:href="https://github.com/ZcashFoundation/frost/issues/39" xlink:title="ZcashFoundation/frost#39&#10;Migrate/port `redjubjub`&#10;to frost&#45;core / FROST&#10;spec v05+" target="_blank">
<polygon fill="#c2e0c6" stroke="#000000" stroke-width="2" points="224,-598 16,-598 16,-530 224,-530 224,-598"/>
<text text-anchor="middle" x="120" y="-582.8" font-family="Times,serif" font-size="14.00" fill="#000000">ZcashFoundation/frost#39</text>
<text text-anchor="middle" x="120" y="-567.8" font-family="Times,serif" font-size="14.00" fill="#000000">Migrate/port `redjubjub`</text>
<text text-anchor="middle" x="120" y="-552.8" font-family="Times,serif" font-size="14.00" fill="#000000">to frost&#45;core / FROST</text>
<text text-anchor="middle" x="120" y="-537.8" font-family="Times,serif" font-size="14.00" fill="#000000">spec v05+</text>
</a>
</g>
</g>
<!-- ZcashFoundation/frost#40 -->
<g id="node24" class="node open">
<title>ZcashFoundation/frost#40</title>
<g id="a_node24"><a xlink:href="https://github.com/ZcashFoundation/frost/issues/40" xlink:title="ZcashFoundation/frost#40&#10;Migrate/port `redpallas`&#10;to frost&#45;core / FROST&#10;spec v05+" target="_blank">
<polygon fill="#c2e0c6" stroke="#000000" stroke-width="2" points="224,-684 16,-684 16,-616 224,-616 224,-684"/>
<text text-anchor="middle" x="120" y="-668.8" font-family="Times,serif" font-size="14.00" fill="#000000">ZcashFoundation/frost#40</text>
<text text-anchor="middle" x="120" y="-653.8" font-family="Times,serif" font-size="14.00" fill="#000000">Migrate/port `redpallas`</text>
<text text-anchor="middle" x="120" y="-638.8" font-family="Times,serif" font-size="14.00" fill="#000000">to frost&#45;core / FROST</text>
<text text-anchor="middle" x="120" y="-623.8" font-family="Times,serif" font-size="14.00" fill="#000000">spec v05+</text>
</a>
</g>
</g>
<!-- ZcashFoundation/frost#132 -->
<g id="node25" class="node open">
<title>ZcashFoundation/frost#132</title>
<g id="a_node25"><a xlink:href="https://github.com/ZcashFoundation/frost/issues/132" xlink:title="ZcashFoundation/frost#132&#10;Epic: v9/v10" target="_blank">
<polygon fill="#c2e0c6" stroke="#000000" stroke-width="2" points="228.5,-740 11.5,-740 11.5,-702 228.5,-702 228.5,-740"/>
<text text-anchor="middle" x="120" y="-724.8" font-family="Times,serif" font-size="14.00" fill="#000000">ZcashFoundation/frost#132</text>
<text text-anchor="middle" x="120" y="-709.8" font-family="Times,serif" font-size="14.00" fill="#000000">Epic: v9/v10</text>
</a>
</g>
</g>
<!-- ZcashFoundation/frost#114 -->
<g id="node26" class="node open">
<title>ZcashFoundation/frost#114</title>
<g id="a_node26"><a xlink:href="https://github.com/ZcashFoundation/frost/pull/114" xlink:title="ZcashFoundation/frost#114&#10;Refreshed Identifier&#10;newtype of Scalar with&#10;traits" target="_blank">
<polygon fill="#c2e0c6" stroke="#000000" points="485,-755 268,-755 268,-751 264,-751 264,-747 268,-747 268,-695 264,-695 264,-691 268,-691 268,-687 485,-687 485,-755"/>
<polyline fill="none" stroke="#000000" points="268,-751 272,-751 272,-747 268,-747 "/>
<polyline fill="none" stroke="#000000" points="268,-695 272,-695 272,-691 268,-691 "/>
<text text-anchor="middle" x="376.5" y="-739.8" font-family="Times,serif" font-size="14.00" fill="#000000">ZcashFoundation/frost#114</text>
<text text-anchor="middle" x="376.5" y="-724.8" font-family="Times,serif" font-size="14.00" fill="#000000">Refreshed Identifier</text>
<text text-anchor="middle" x="376.5" y="-709.8" font-family="Times,serif" font-size="14.00" fill="#000000">newtype of Scalar with</text>
<text text-anchor="middle" x="376.5" y="-694.8" font-family="Times,serif" font-size="14.00" fill="#000000">traits</text>
</a>
</g>
</g>
<!-- ZcashFoundation/frost#132&#45;&gt;ZcashFoundation/frost#114 -->
<g id="edge21" class="edge">
<title>ZcashFoundation/frost#132&#45;&gt;ZcashFoundation/frost#114</title>
<path fill="none" stroke="#000000" d="M228.78,-721C238.41,-721 248.18,-721 257.89,-721"/>
<polygon fill="#000000" stroke="#000000" points="257.96,-724.5001 267.96,-721 257.96,-717.5001 257.96,-724.5001"/>
</g>
</g>
</svg>
