<?xml version="1.0" encoding="UTF-8" standalone="no"?>
<?xml-stylesheet href="zcash-dag.css" type="text/css"?>
<!DOCTYPE svg PUBLIC "-//W3C//DTD SVG 1.1//EN"
 "http://www.w3.org/Graphics/SVG/1.1/DTD/svg11.dtd">
<!-- Generated by graphviz version 2.40.1 (20161225.0304)
 -->
<!-- Pages: 1 -->
<svg width="564pt" height="988pt"
 viewBox="0.00 0.00 564.00 988.00" xmlns="http://www.w3.org/2000/svg" xmlns:xlink="http://www.w3.org/1999/xlink">
<g id="graph0" class="graph" transform="scale(1 1) rotate(0) translate(4 984)">
<polygon fill="#ffffff" stroke="transparent" points="-4,4 -4,-984 560,-984 560,4 -4,4"/>
<g id="clust1" class="cluster">
<title>cluster_1</title>
<polygon fill="none" stroke="#0000ff" points="20,0 20,-179 268,-179 268,0 20,0"/>
<text text-anchor="middle" x="144" y="-163.8" font-family="Times,serif" font-size="14.00" fill="#000000">Tracking: Tech Debt</text>
</g>
<g id="clust2" class="cluster">
<title>cluster_5</title>
<polygon fill="none" stroke="#0000ff" points="0,-610 0,-717 288,-717 288,-610 0,-610"/>
<text text-anchor="middle" x="144" y="-701.8" font-family="Times,serif" font-size="14.00" fill="#000000">Epic: Zebra as a lightwalletd backend</text>
</g>
<g id="clust3" class="cluster">
<title>cluster_3</title>
<polygon fill="none" stroke="#0000ff" points="20,-187 20,-437 556,-437 556,-187 20,-187"/>
<text text-anchor="middle" x="288" y="-421.8" font-family="Times,serif" font-size="14.00" fill="#000000">Epic: Breaking Changes before the Stable Release</text>
</g>
<g id="clust4" class="cluster">
<title>cluster_4</title>
<polygon fill="none" stroke="#0000ff" points="20,-445 20,-538 556,-538 556,-445 20,-445"/>
<text text-anchor="middle" x="288" y="-522.8" font-family="Times,serif" font-size="14.00" fill="#000000">Epic: Zebra Stable Release Candidate</text>
</g>
<g id="clust5" class="cluster">
<title>cluster_0</title>
<polygon fill="none" stroke="#0000ff" points="20,-725 20,-818 268,-818 268,-725 20,-725"/>
<text text-anchor="middle" x="144" y="-802.8" font-family="Times,serif" font-size="14.00" fill="#000000">Tracking: Documentation</text>
</g>
<!-- ZcashFoundation/zebra#1364 -->
<g id="node1" class="node open">
<title>ZcashFoundation/zebra#1364</title>
<g id="a_node1"><a xlink:href="https://github.com/ZcashFoundation/zebra/issues/1364" xlink:title="ZcashFoundation/zebra#1364&#10;Add a CI job which&#10;compiles each Zebra crate&#10;individually" target="_blank">
<polygon fill="#c2e0c6" stroke="#000000" stroke-width="2" points="260,-148 28,-148 28,-80 260,-80 260,-148"/>
<text text-anchor="middle" x="144" y="-132.8" font-family="Times,serif" font-size="14.00" fill="#000000">ZcashFoundation/zebra#1364</text>
<text text-anchor="middle" x="144" y="-117.8" font-family="Times,serif" font-size="14.00" fill="#000000">Add a CI job which</text>
<text text-anchor="middle" x="144" y="-102.8" font-family="Times,serif" font-size="14.00" fill="#000000">compiles each Zebra crate</text>
<text text-anchor="middle" x="144" y="-87.8" font-family="Times,serif" font-size="14.00" fill="#000000">individually</text>
</a>
</g>
</g>
<!-- ZcashFoundation/zebra#4550 -->
<g id="node11" class="node open">
<title>ZcashFoundation/zebra#4550</title>
<g id="a_node11"><a xlink:href="https://github.com/ZcashFoundation/zebra/issues/4550" xlink:title="ZcashFoundation/zebra#4550&#10;Add all&#45;features and no&#45;&#10;default&#45;features builds&#10;to CI" target="_blank">
<polygon fill="#c2e0c6" stroke="#000000" points="548,-148 316,-148 316,-80 548,-80 548,-148"/>
<text text-anchor="middle" x="432" y="-132.8" font-family="Times,serif" font-size="14.00" fill="#000000">ZcashFoundation/zebra#4550</text>
<text text-anchor="middle" x="432" y="-117.8" font-family="Times,serif" font-size="14.00" fill="#000000">Add all&#45;features and no&#45;</text>
<text text-anchor="middle" x="432" y="-102.8" font-family="Times,serif" font-size="14.00" fill="#000000">default&#45;features builds</text>
<text text-anchor="middle" x="432" y="-87.8" font-family="Times,serif" font-size="14.00" fill="#000000">to CI</text>
</a>
</g>
</g>
<!-- ZcashFoundation/zebra#1364&#45;&gt;ZcashFoundation/zebra#4550 -->
<g id="edge3" class="edge">
<title>ZcashFoundation/zebra#1364&#45;&gt;ZcashFoundation/zebra#4550</title>
<path fill="none" stroke="#000000" d="M260.31,-114C275.15,-114 290.4,-114 305.39,-114"/>
<polygon fill="#000000" stroke="#000000" points="305.72,-117.5001 315.72,-114 305.72,-110.5001 305.72,-117.5001"/>
</g>
<!-- ZcashFoundation/zebra#2090 -->
<g id="node2" class="node open">
<title>ZcashFoundation/zebra#2090</title>
<g id="a_node2"><a xlink:href="https://github.com/ZcashFoundation/zebra/issues/2090" xlink:title="ZcashFoundation/zebra#2090&#10;Auto&#45;delete old Google&#10;Cloud instance templates" target="_blank">
<polygon fill="#c2e0c6" stroke="#000000" stroke-width="2" points="260,-61.5 28,-61.5 28,-8.5 260,-8.5 260,-61.5"/>
<text text-anchor="middle" x="144" y="-46.3" font-family="Times,serif" font-size="14.00" fill="#000000">ZcashFoundation/zebra#2090</text>
<text text-anchor="middle" x="144" y="-31.3" font-family="Times,serif" font-size="14.00" fill="#000000">Auto&#45;delete old Google</text>
<text text-anchor="middle" x="144" y="-16.3" font-family="Times,serif" font-size="14.00" fill="#000000">Cloud instance templates</text>
</a>
</g>
</g>
<!-- ZcashFoundation/zebra#4456 -->
<g id="node3" class="node open">
<title>ZcashFoundation/zebra#4456</title>
<g id="a_node3"><a xlink:href="https://github.com/ZcashFoundation/zebra/issues/4456" xlink:title="ZcashFoundation/zebra#4456&#10;Full sync test takes&#10;slightly longer than CI&#10;timeout" target="_blank">
<polygon fill="#c2e0c6" stroke="#000000" stroke-width="2" points="260,-686 28,-686 28,-618 260,-618 260,-686"/>
<text text-anchor="middle" x="144" y="-670.8" font-family="Times,serif" font-size="14.00" fill="#000000">ZcashFoundation/zebra#4456</text>
<text text-anchor="middle" x="144" y="-655.8" font-family="Times,serif" font-size="14.00" fill="#000000">Full sync test takes</text>
<text text-anchor="middle" x="144" y="-640.8" font-family="Times,serif" font-size="14.00" fill="#000000">slightly longer than CI</text>
<text text-anchor="middle" x="144" y="-625.8" font-family="Times,serif" font-size="14.00" fill="#000000">timeout</text>
</a>
</g>
</g>
<!-- ZcashFoundation/zebra#4554 -->
<g id="node12" class="node open">
<title>ZcashFoundation/zebra#4554</title>
<g id="a_node12"><a xlink:href="https://github.com/ZcashFoundation/zebra/issues/4554" xlink:title="ZcashFoundation/zebra#4554&#10;benchmarks: surface&#10;zebrad mainnet sync time&#10;in CI" target="_blank">
<polygon fill="#c2e0c6" stroke="#000000" points="548,-650 316,-650 316,-582 548,-582 548,-650"/>
<text text-anchor="middle" x="432" y="-634.8" font-family="Times,serif" font-size="14.00" fill="#000000">ZcashFoundation/zebra#4554</text>
<text text-anchor="middle" x="432" y="-619.8" font-family="Times,serif" font-size="14.00" fill="#000000">benchmarks: surface</text>
<text text-anchor="middle" x="432" y="-604.8" font-family="Times,serif" font-size="14.00" fill="#000000">zebrad mainnet sync time</text>
<text text-anchor="middle" x="432" y="-589.8" font-family="Times,serif" font-size="14.00" fill="#000000">in CI</text>
</a>
</g>
</g>
<!-- ZcashFoundation/zebra#4456&#45;&gt;ZcashFoundation/zebra#4554 -->
<g id="edge4" class="edge">
<title>ZcashFoundation/zebra#4456&#45;&gt;ZcashFoundation/zebra#4554</title>
<path fill="none" stroke="#000000" d="M260.31,-637.46C275.15,-635.61 290.4,-633.7 305.39,-631.83"/>
<polygon fill="#000000" stroke="#000000" points="306.2353,-635.2513 315.72,-630.53 305.3612,-628.3061 306.2353,-635.2513"/>
</g>
<!-- ZcashFoundation/zebra#1894 -->
<g id="node4" class="node open">
<title>ZcashFoundation/zebra#1894</title>
<g id="a_node4"><a xlink:href="https://github.com/ZcashFoundation/zebra/issues/1894" xlink:title="ZcashFoundation/zebra#1894&#10;Zebra should follow OS&#10;directory conventions&#10;better" target="_blank">
<polygon fill="#c2e0c6" stroke="#000000" stroke-width="2" points="260,-406 28,-406 28,-338 260,-338 260,-406"/>
<text text-anchor="middle" x="144" y="-390.8" font-family="Times,serif" font-size="14.00" fill="#000000">ZcashFoundation/zebra#1894</text>
<text text-anchor="middle" x="144" y="-375.8" font-family="Times,serif" font-size="14.00" fill="#000000">Zebra should follow OS</text>
<text text-anchor="middle" x="144" y="-360.8" font-family="Times,serif" font-size="14.00" fill="#000000">directory conventions</text>
<text text-anchor="middle" x="144" y="-345.8" font-family="Times,serif" font-size="14.00" fill="#000000">better</text>
</a>
</g>
</g>
<!-- ZcashFoundation/zebra#3432 -->
<g id="node5" class="node open">
<title>ZcashFoundation/zebra#3432</title>
<g id="a_node5"><a xlink:href="https://github.com/ZcashFoundation/zebra/issues/3432" xlink:title="ZcashFoundation/zebra#3432&#10;Use the Filesystem&#10;Hierarchy Standard (FHS)&#10;for deployments and&#10;artifacts" target="_blank">
<polygon fill="#c2e0c6" stroke="#000000" points="548,-405.5 316,-405.5 316,-322.5 548,-322.5 548,-405.5"/>
<text text-anchor="middle" x="432" y="-390.3" font-family="Times,serif" font-size="14.00" fill="#000000">ZcashFoundation/zebra#3432</text>
<text text-anchor="middle" x="432" y="-375.3" font-family="Times,serif" font-size="14.00" fill="#000000">Use the Filesystem</text>
<text text-anchor="middle" x="432" y="-360.3" font-family="Times,serif" font-size="14.00" fill="#000000">Hierarchy Standard (FHS)</text>
<text text-anchor="middle" x="432" y="-345.3" font-family="Times,serif" font-size="14.00" fill="#000000">for deployments and</text>
<text text-anchor="middle" x="432" y="-330.3" font-family="Times,serif" font-size="14.00" fill="#000000">artifacts</text>
</a>
</g>
</g>
<!-- ZcashFoundation/zebra#1894&#45;&gt;ZcashFoundation/zebra#3432 -->
<g id="edge1" class="edge">
<title>ZcashFoundation/zebra#1894&#45;&gt;ZcashFoundation/zebra#3432</title>
<path fill="none" stroke="#000000" d="M260.31,-368.77C275.15,-368.36 290.4,-367.93 305.39,-367.52"/>
<polygon fill="#000000" stroke="#000000" points="305.8222,-371.0093 315.72,-367.23 305.6257,-364.0121 305.8222,-371.0093"/>
</g>
<!-- ZcashFoundation/zebra#1963 -->
<g id="node6" class="node open">
<title>ZcashFoundation/zebra#1963</title>
<g id="a_node6"><a xlink:href="https://github.com/ZcashFoundation/zebra/issues/1963" xlink:title="ZcashFoundation/zebra#1963&#10;Revise Release Process&#10;RFC Draft" target="_blank">
<polygon fill="#c2e0c6" stroke="#000000" stroke-width="2" points="260,-319.5 28,-319.5 28,-266.5 260,-266.5 260,-319.5"/>
<text text-anchor="middle" x="144" y="-304.3" font-family="Times,serif" font-size="14.00" fill="#000000">ZcashFoundation/zebra#1963</text>
<text text-anchor="middle" x="144" y="-289.3" font-family="Times,serif" font-size="14.00" fill="#000000">Revise Release Process</text>
<text text-anchor="middle" x="144" y="-274.3" font-family="Times,serif" font-size="14.00" fill="#000000">RFC Draft</text>
</a>
</g>
</g>
<!-- ZcashFoundation/zebra#1638 -->
<g id="node7" class="node open">
<title>ZcashFoundation/zebra#1638</title>
<g id="a_node7"><a xlink:href="https://github.com/ZcashFoundation/zebra/issues/1638" xlink:title="ZcashFoundation/zebra#1638&#10;Create PGP keys amongst&#10;security@zfnd.org" target="_blank">
<polygon fill="#c2e0c6" stroke="#000000" stroke-width="2" points="260,-248.5 28,-248.5 28,-195.5 260,-195.5 260,-248.5"/>
<text text-anchor="middle" x="144" y="-233.3" font-family="Times,serif" font-size="14.00" fill="#000000">ZcashFoundation/zebra#1638</text>
<text text-anchor="middle" x="144" y="-218.3" font-family="Times,serif" font-size="14.00" fill="#000000">Create PGP keys amongst</text>
<text text-anchor="middle" x="144" y="-203.3" font-family="Times,serif" font-size="14.00" fill="#000000">security@zfnd.org</text>
</a>
</g>
</g>
<!-- ZcashFoundation/zebra#3050 -->
<g id="node8" class="node open">
<title>ZcashFoundation/zebra#3050</title>
<g id="a_node8"><a xlink:href="https://github.com/ZcashFoundation/zebra/issues/3050" xlink:title="ZcashFoundation/zebra#3050&#10;Tag Zebra 1.0.0&#45;rc.0&#10;stable release candidate" target="_blank">
<polygon fill="#a7c2aa" stroke="#000000" points="548,-506.5 316,-506.5 316,-453.5 548,-453.5 548,-506.5"/>
<text text-anchor="middle" x="432" y="-491.3" font-family="Times,serif" font-size="14.00" fill="#000000">ZcashFoundation/zebra#3050</text>
<text text-anchor="middle" x="432" y="-476.3" font-family="Times,serif" font-size="14.00" fill="#000000">Tag Zebra 1.0.0&#45;rc.0</text>
<text text-anchor="middle" x="432" y="-461.3" font-family="Times,serif" font-size="14.00" fill="#000000">stable release candidate</text>
</a>
</g>
</g>
<!-- ZcashFoundation/zebra#4448 -->
<g id="node9" class="node open">
<title>ZcashFoundation/zebra#4448</title>
<g id="a_node9"><a xlink:href="https://github.com/ZcashFoundation/zebra/issues/4448" xlink:title="ZcashFoundation/zebra#4448&#10;Decide on supported&#10;platforms and test in CI" target="_blank">
<polygon fill="#c2e0c6" stroke="#000000" stroke-width="2" points="260,-506.5 28,-506.5 28,-453.5 260,-453.5 260,-506.5"/>
<text text-anchor="middle" x="144" y="-491.3" font-family="Times,serif" font-size="14.00" fill="#000000">ZcashFoundation/zebra#4448</text>
<text text-anchor="middle" x="144" y="-476.3" font-family="Times,serif" font-size="14.00" fill="#000000">Decide on supported</text>
<text text-anchor="middle" x="144" y="-461.3" font-family="Times,serif" font-size="14.00" fill="#000000">platforms and test in CI</text>
</a>
</g>
</g>
<!-- ZcashFoundation/zebra#4448&#45;&gt;ZcashFoundation/zebra#3050 -->
<g id="edge2" class="edge">
<title>ZcashFoundation/zebra#4448&#45;&gt;ZcashFoundation/zebra#3050</title>
<path fill="none" stroke="#000000" d="M260.31,-480C275.15,-480 290.4,-480 305.39,-480"/>
<polygon fill="#000000" stroke="#000000" points="305.72,-483.5001 315.72,-480 305.72,-476.5001 305.72,-483.5001"/>
</g>
<!-- ZcashFoundation/zebra#4524 -->
<g id="node10" class="node open">
<title>ZcashFoundation/zebra#4524</title>
<g id="a_node10"><a xlink:href="https://github.com/ZcashFoundation/zebra/issues/4524" xlink:title="ZcashFoundation/zebra#4524&#10;Add `cargo doc`&#10;warnings/errors to CI" target="_blank">
<polygon fill="#c2e0c6" stroke="#000000" stroke-width="2" points="260,-786.5 28,-786.5 28,-733.5 260,-733.5 260,-786.5"/>
<text text-anchor="middle" x="144" y="-771.3" font-family="Times,serif" font-size="14.00" fill="#000000">ZcashFoundation/zebra#4524</text>
<text text-anchor="middle" x="144" y="-756.3" font-family="Times,serif" font-size="14.00" fill="#000000">Add `cargo doc`</text>
<text text-anchor="middle" x="144" y="-741.3" font-family="Times,serif" font-size="14.00" fill="#000000">warnings/errors to CI</text>
</a>
</g>
</g>
<!-- ZcashFoundation/zebra#4474 -->
<g id="node13" class="node open">
<title>ZcashFoundation/zebra#4474</title>
<g id="a_node13"><a xlink:href="https://github.com/ZcashFoundation/zebra/pull/4474" xlink:title="ZcashFoundation/zebra#4474&#10;fix(ci): Require full&#10;sync to reach 100%" target="_blank">
<polygon fill="#c2e0c6" stroke="#000000" stroke-width="2" points="260,-599.5 28,-599.5 28,-595.5 24,-595.5 24,-591.5 28,-591.5 28,-554.5 24,-554.5 24,-550.5 28,-550.5 28,-546.5 260,-546.5 260,-599.5"/>
<polyline fill="none" stroke="#000000" stroke-width="2" points="28,-595.5 32,-595.5 32,-591.5 28,-591.5 "/>
<polyline fill="none" stroke="#000000" stroke-width="2" points="28,-554.5 32,-554.5 32,-550.5 28,-550.5 "/>
<text text-anchor="middle" x="144" y="-584.3" font-family="Times,serif" font-size="14.00" fill="#000000">ZcashFoundation/zebra#4474</text>
<text text-anchor="middle" x="144" y="-569.3" font-family="Times,serif" font-size="14.00" fill="#000000">fix(ci): Require full</text>
<text text-anchor="middle" x="144" y="-554.3" font-family="Times,serif" font-size="14.00" fill="#000000">sync to reach 100%</text>
</a>
</g>
</g>
<!-- ZcashFoundation/zebra#4474&#45;&gt;ZcashFoundation/zebra#4554 -->
<g id="edge5" class="edge">
<title>ZcashFoundation/zebra#4474&#45;&gt;ZcashFoundation/zebra#4554</title>
<path fill="none" stroke="#000000" d="M260.31,-590.37C275.29,-592.6 290.69,-594.9 305.83,-597.16"/>
<polygon fill="#000000" stroke="#000000" points="305.3121,-600.6214 315.72,-598.64 306.3481,-593.6985 305.3121,-600.6214"/>
</g>
<!-- ZcashFoundation/zebra#4551 -->
<g id="node14" class="node open">
<title>ZcashFoundation/zebra#4551</title>
<g id="a_node14"><a xlink:href="https://github.com/ZcashFoundation/zebra/issues/4551" xlink:title="ZcashFoundation/zebra#4551&#10;ci: lightwalletd tests&#10;fail with &quot;could not read&#10;ScriptSig&quot;" target="_blank">
<polygon fill="#c2e0c6" stroke="#000000" stroke-width="2" points="260,-894 28,-894 28,-826 260,-826 260,-894"/>
<text text-anchor="middle" x="144" y="-878.8" font-family="Times,serif" font-size="14.00" fill="#000000">ZcashFoundation/zebra#4551</text>
<text text-anchor="middle" x="144" y="-863.8" font-family="Times,serif" font-size="14.00" fill="#000000">ci: lightwalletd tests</text>
<text text-anchor="middle" x="144" y="-848.8" font-family="Times,serif" font-size="14.00" fill="#000000">fail with &quot;could not read</text>
<text text-anchor="middle" x="144" y="-833.8" font-family="Times,serif" font-size="14.00" fill="#000000">ScriptSig&quot;</text>
</a>
</g>
</g>
<!-- ZcashFoundation/zebra#4537 -->
<g id="node15" class="node open">
<title>ZcashFoundation/zebra#4537</title>
<g id="a_node15"><a xlink:href="https://github.com/ZcashFoundation/zebra/pull/4537" xlink:title="ZcashFoundation/zebra#4537&#10;test(grpc):&#10;`GetMempoolTx` and&#10;`GetMempoolStream` test" target="_blank">
<polygon fill="#a7c2aa" stroke="#000000" points="548,-894 316,-894 316,-890 312,-890 312,-886 316,-886 316,-834 312,-834 312,-830 316,-830 316,-826 548,-826 548,-894"/>
<polyline fill="none" stroke="#000000" points="316,-890 320,-890 320,-886 316,-886 "/>
<polyline fill="none" stroke="#000000" points="316,-834 320,-834 320,-830 316,-830 "/>
<text text-anchor="middle" x="432" y="-878.8" font-family="Times,serif" font-size="14.00" fill="#000000">ZcashFoundation/zebra#4537</text>
<text text-anchor="middle" x="432" y="-863.8" font-family="Times,serif" font-size="14.00" fill="#000000">test(grpc):</text>
<text text-anchor="middle" x="432" y="-848.8" font-family="Times,serif" font-size="14.00" fill="#000000">`GetMempoolTx` and</text>
<text text-anchor="middle" x="432" y="-833.8" font-family="Times,serif" font-size="14.00" fill="#000000">`GetMempoolStream` test</text>
</a>
</g>
</g>
<!-- ZcashFoundation/zebra#4551&#45;&gt;ZcashFoundation/zebra#4537 -->
<g id="edge6" class="edge">
<title>ZcashFoundation/zebra#4551&#45;&gt;ZcashFoundation/zebra#4537</title>
<path fill="none" stroke="#000000" d="M260.31,-860C275.15,-860 290.4,-860 305.39,-860"/>
<polygon fill="#000000" stroke="#000000" points="305.72,-863.5001 315.72,-860 305.72,-856.5001 305.72,-863.5001"/>
</g>
<!-- ZcashFoundation/zebra#4546 -->
<g id="node16" class="node open">
<title>ZcashFoundation/zebra#4546</title>
<g id="a_node16"><a xlink:href="https://github.com/ZcashFoundation/zebra/issues/4546" xlink:title="ZcashFoundation/zebra#4546&#10;Fix Zebra deployments" target="_blank">
<polygon fill="#c2e0c6" stroke="#000000" stroke-width="2" points="260,-965 28,-965 28,-927 260,-927 260,-965"/>
<text text-anchor="middle" x="144" y="-949.8" font-family="Times,serif" font-size="14.00" fill="#000000">ZcashFoundation/zebra#4546</text>
<text text-anchor="middle" x="144" y="-934.8" font-family="Times,serif" font-size="14.00" fill="#000000">Fix Zebra deployments</text>
</a>
</g>
</g>
<!-- ZcashFoundation/zebra#4562 -->
<g id="node17" class="node open">
<title>ZcashFoundation/zebra#4562</title>
<g id="a_node17"><a xlink:href="https://github.com/ZcashFoundation/zebra/issues/4562" xlink:title="ZcashFoundation/zebra#4562&#10;Deploy long&#45;running Zebra&#10;nodes after each tagged&#10;release" target="_blank">
<polygon fill="#c2e0c6" stroke="#000000" points="548,-980 316,-980 316,-912 548,-912 548,-980"/>
<text text-anchor="middle" x="432" y="-964.8" font-family="Times,serif" font-size="14.00" fill="#000000">ZcashFoundation/zebra#4562</text>
<text text-anchor="middle" x="432" y="-949.8" font-family="Times,serif" font-size="14.00" fill="#000000">Deploy long&#45;running Zebra</text>
<text text-anchor="middle" x="432" y="-934.8" font-family="Times,serif" font-size="14.00" fill="#000000">nodes after each tagged</text>
<text text-anchor="middle" x="432" y="-919.8" font-family="Times,serif" font-size="14.00" fill="#000000">release</text>
</a>
</g>
</g>
<!-- ZcashFoundation/zebra#4546&#45;&gt;ZcashFoundation/zebra#4562 -->
<g id="edge7" class="edge">
<title>ZcashFoundation/zebra#4546&#45;&gt;ZcashFoundation/zebra#4562</title>
<path fill="none" stroke="#000000" d="M260.31,-946C275.15,-946 290.4,-946 305.39,-946"/>
<polygon fill="#000000" stroke="#000000" points="305.72,-949.5001 315.72,-946 305.72,-942.5001 305.72,-949.5001"/>
</g>
</g>
</svg>
