<?xml version="1.0" encoding="UTF-8" standalone="no"?>
<?xml-stylesheet href="zcash-dag.css" type="text/css"?>
<!DOCTYPE svg PUBLIC "-//W3C//DTD SVG 1.1//EN"
 "http://www.w3.org/Graphics/SVG/1.1/DTD/svg11.dtd">
<!-- Generated by graphviz version 2.43.0 (0)
 -->
<!-- Pages: 1 -->
<svg width="1040pt" height="790pt"
 viewBox="0.00 0.00 1040.00 789.50" xmlns="http://www.w3.org/2000/svg" xmlns:xlink="http://www.w3.org/1999/xlink">
<g id="graph0" class="graph" transform="scale(1 1) rotate(0) translate(4 785.5)">
<polygon fill="white" stroke="transparent" points="-4,4 -4,-785.5 1036,-785.5 1036,4 -4,4"/>
<!-- ZcashFoundation/zebra#5297 -->
<g id="node1" class="node open">
<title>ZcashFoundation/zebra#5297</title>
<g id="a_node1"><a xlink:href="https://github.com/ZcashFoundation/zebra/issues/5297" xlink:title="ZcashFoundation/zebra#5297&#10;Add metrics for chain&#10;fork work and lengths" target="_blank">
<polygon fill="#a7c2aa" stroke="black" points="765,-240.5 534,-240.5 534,-187.5 765,-187.5 765,-240.5"/>
<text text-anchor="middle" x="649.5" y="-225.3" font-family="Times,serif" font-size="14.00">ZcashFoundation/zebra#5297</text>
<text text-anchor="middle" x="649.5" y="-210.3" font-family="Times,serif" font-size="14.00">Add metrics for chain</text>
<text text-anchor="middle" x="649.5" y="-195.3" font-family="Times,serif" font-size="14.00">fork work and lengths</text>
</a>
</g>
</g>
<!-- ZcashFoundation/zebra#7109 -->
<g id="node2" class="node open">
<title>ZcashFoundation/zebra#7109</title>
<g id="a_node2"><a xlink:href="https://github.com/ZcashFoundation/zebra/issues/7109" xlink:title="ZcashFoundation/zebra#7109&#10;Store cumulative work in&#10;the finalized state for&#10;each height" target="_blank">
<polygon fill="#a7c2aa" stroke="black" points="498,-162 267,-162 267,-94 498,-94 498,-162"/>
<text text-anchor="middle" x="382.5" y="-146.8" font-family="Times,serif" font-size="14.00">ZcashFoundation/zebra#7109</text>
<text text-anchor="middle" x="382.5" y="-131.8" font-family="Times,serif" font-size="14.00">Store cumulative work in</text>
<text text-anchor="middle" x="382.5" y="-116.8" font-family="Times,serif" font-size="14.00">the finalized state for</text>
<text text-anchor="middle" x="382.5" y="-101.8" font-family="Times,serif" font-size="14.00">each height</text>
</a>
</g>
</g>
<!-- ZcashFoundation/zebra#7109&#45;&gt;ZcashFoundation/zebra#5297 -->
<g id="edge1" class="edge">
<title>ZcashFoundation/zebra#7109&#45;&gt;ZcashFoundation/zebra#5297</title>
<path fill="none" stroke="black" d="M485.43,-162.11C501.66,-167.47 518.28,-172.92 534,-178 540.39,-180.07 546.99,-182.18 553.65,-184.31"/>
<polygon fill="black" stroke="black" points="552.83,-187.72 563.42,-187.42 554.95,-181.05 552.83,-187.72"/>
</g>
<!-- ZcashFoundation/zebra#6688 -->
<g id="node3" class="node open">
<title>ZcashFoundation/zebra#6688</title>
<g id="a_node3"><a xlink:href="https://github.com/ZcashFoundation/zebra/issues/6688" xlink:title="ZcashFoundation/zebra#6688&#10;`getnetworksolps` &amp;&#10;`getnetworkhashps` RPCs&#10;hang with large&#10;num_blocks" target="_blank">
<polygon fill="#a7c2aa" stroke="black" points="765,-169.5 534,-169.5 534,-86.5 765,-86.5 765,-169.5"/>
<text text-anchor="middle" x="649.5" y="-154.3" font-family="Times,serif" font-size="14.00">ZcashFoundation/zebra#6688</text>
<text text-anchor="middle" x="649.5" y="-139.3" font-family="Times,serif" font-size="14.00">`getnetworksolps` &amp;</text>
<text text-anchor="middle" x="649.5" y="-124.3" font-family="Times,serif" font-size="14.00">`getnetworkhashps` RPCs</text>
<text text-anchor="middle" x="649.5" y="-109.3" font-family="Times,serif" font-size="14.00">hang with large</text>
<text text-anchor="middle" x="649.5" y="-94.3" font-family="Times,serif" font-size="14.00">num_blocks</text>
</a>
</g>
</g>
<!-- ZcashFoundation/zebra#7109&#45;&gt;ZcashFoundation/zebra#6688 -->
<g id="edge2" class="edge">
<title>ZcashFoundation/zebra#7109&#45;&gt;ZcashFoundation/zebra#6688</title>
<path fill="none" stroke="black" d="M498.19,-128C506.55,-128 514.99,-128 523.4,-128"/>
<polygon fill="black" stroke="black" points="523.63,-131.5 533.63,-128 523.63,-124.5 523.63,-131.5"/>
</g>
<!-- ZcashFoundation/zebra#7110 -->
<g id="node4" class="node open">
<title>ZcashFoundation/zebra#7110</title>
<g id="a_node4"><a xlink:href="https://github.com/ZcashFoundation/zebra/issues/7110" xlink:title="ZcashFoundation/zebra#7110&#10;Show the full chain work&#10;in the chain fork&#10;progress bars" target="_blank">
<polygon fill="#a7c2aa" stroke="black" points="765,-68 534,-68 534,0 765,0 765,-68"/>
<text text-anchor="middle" x="649.5" y="-52.8" font-family="Times,serif" font-size="14.00">ZcashFoundation/zebra#7110</text>
<text text-anchor="middle" x="649.5" y="-37.8" font-family="Times,serif" font-size="14.00">Show the full chain work</text>
<text text-anchor="middle" x="649.5" y="-22.8" font-family="Times,serif" font-size="14.00">in the chain fork</text>
<text text-anchor="middle" x="649.5" y="-7.8" font-family="Times,serif" font-size="14.00">progress bars</text>
</a>
</g>
</g>
<!-- ZcashFoundation/zebra#7109&#45;&gt;ZcashFoundation/zebra#7110 -->
<g id="edge3" class="edge">
<title>ZcashFoundation/zebra#7109&#45;&gt;ZcashFoundation/zebra#7110</title>
<path fill="none" stroke="black" d="M479.55,-93.93C500.1,-86.64 521.92,-78.9 542.81,-71.49"/>
<polygon fill="black" stroke="black" points="544.08,-74.75 552.34,-68.11 541.75,-68.15 544.08,-74.75"/>
</g>
<!-- ZcashFoundation/zebra#7175 -->
<g id="node5" class="node open">
<title>ZcashFoundation/zebra#7175</title>
<g id="a_node5"><a xlink:href="https://github.com/ZcashFoundation/zebra/pull/7175" xlink:title="ZcashFoundation/zebra#7175&#10;fix(Docker): Pass build&#10;args to `runtime` images" target="_blank">
<polygon fill="#c2e0c6" stroke="black" stroke-width="2" points="231,-334.5 0,-334.5 0,-330.5 -4,-330.5 -4,-326.5 0,-326.5 0,-289.5 -4,-289.5 -4,-285.5 0,-285.5 0,-281.5 231,-281.5 231,-334.5"/>
<polyline fill="none" stroke="black" stroke-width="2" points="0,-330.5 4,-330.5 4,-326.5 0,-326.5 "/>
<polyline fill="none" stroke="black" stroke-width="2" points="0,-289.5 4,-289.5 4,-285.5 0,-285.5 "/>
<text text-anchor="middle" x="115.5" y="-319.3" font-family="Times,serif" font-size="14.00">ZcashFoundation/zebra#7175</text>
<text text-anchor="middle" x="115.5" y="-304.3" font-family="Times,serif" font-size="14.00">fix(Docker): Pass build</text>
<text text-anchor="middle" x="115.5" y="-289.3" font-family="Times,serif" font-size="14.00">args to `runtime` images</text>
</a>
</g>
</g>
<!-- ZcashFoundation/zebra#7179 -->
<g id="node6" class="node open">
<title>ZcashFoundation/zebra#7179</title>
<g id="a_node6"><a xlink:href="https://github.com/ZcashFoundation/zebra/pull/7179" xlink:title="ZcashFoundation/zebra#7179&#10;add(Docker): &#160;Docs for&#10;mining with Docker" target="_blank">
<polygon fill="#c2e0c6" stroke="black" points="498,-294.5 267,-294.5 267,-290.5 263,-290.5 263,-286.5 267,-286.5 267,-249.5 263,-249.5 263,-245.5 267,-245.5 267,-241.5 498,-241.5 498,-294.5"/>
<polyline fill="none" stroke="black" points="267,-290.5 271,-290.5 271,-286.5 267,-286.5 "/>
<polyline fill="none" stroke="black" points="267,-249.5 271,-249.5 271,-245.5 267,-245.5 "/>
<text text-anchor="middle" x="382.5" y="-279.3" font-family="Times,serif" font-size="14.00">ZcashFoundation/zebra#7179</text>
<text text-anchor="middle" x="382.5" y="-264.3" font-family="Times,serif" font-size="14.00">add(Docker): &#160;Docs for</text>
<text text-anchor="middle" x="382.5" y="-249.3" font-family="Times,serif" font-size="14.00">mining with Docker</text>
</a>
</g>
</g>
<!-- ZcashFoundation/zebra#7175&#45;&gt;ZcashFoundation/zebra#7179 -->
<g id="edge4" class="edge">
<title>ZcashFoundation/zebra#7175&#45;&gt;ZcashFoundation/zebra#7179</title>
<path fill="none" stroke="black" d="M231.19,-290.69C239.64,-289.41 248.18,-288.12 256.68,-286.84"/>
<polygon fill="black" stroke="black" points="257.26,-290.29 266.63,-285.34 256.22,-283.37 257.26,-290.29"/>
</g>
<!-- ZcashFoundation/zebra#7031 -->
<g id="node7" class="node open">
<title>ZcashFoundation/zebra#7031</title>
<g id="a_node7"><a xlink:href="https://github.com/ZcashFoundation/zebra/pull/7031" xlink:title="ZcashFoundation/zebra#7031&#10;change(state): Prepare&#10;for in&#45;place database&#10;format upgrades, but&#10;don&#39;t make any format&#10;changes yet" target="_blank">
<polygon fill="#c2e0c6" stroke="black" stroke-width="2" points="231,-177 0,-177 0,-173 -4,-173 -4,-169 0,-169 0,-87 -4,-87 -4,-83 0,-83 0,-79 231,-79 231,-177"/>
<polyline fill="none" stroke="black" stroke-width="2" points="0,-173 4,-173 4,-169 0,-169 "/>
<polyline fill="none" stroke="black" stroke-width="2" points="0,-87 4,-87 4,-83 0,-83 "/>
<text text-anchor="middle" x="115.5" y="-161.8" font-family="Times,serif" font-size="14.00">ZcashFoundation/zebra#7031</text>
<text text-anchor="middle" x="115.5" y="-146.8" font-family="Times,serif" font-size="14.00">change(state): Prepare</text>
<text text-anchor="middle" x="115.5" y="-131.8" font-family="Times,serif" font-size="14.00">for in&#45;place database</text>
<text text-anchor="middle" x="115.5" y="-116.8" font-family="Times,serif" font-size="14.00">format upgrades, but</text>
<text text-anchor="middle" x="115.5" y="-101.8" font-family="Times,serif" font-size="14.00">don&#39;t make any format</text>
<text text-anchor="middle" x="115.5" y="-86.8" font-family="Times,serif" font-size="14.00">changes yet</text>
</a>
</g>
</g>
<!-- ZcashFoundation/zebra#7031&#45;&gt;ZcashFoundation/zebra#7109 -->
<g id="edge5" class="edge">
<title>ZcashFoundation/zebra#7031&#45;&gt;ZcashFoundation/zebra#7109</title>
<path fill="none" stroke="black" d="M231.19,-128C239.55,-128 247.99,-128 256.4,-128"/>
<polygon fill="black" stroke="black" points="256.63,-131.5 266.63,-128 256.63,-124.5 256.63,-131.5"/>
</g>
<!-- ZcashFoundation/zebra#6025 -->
<g id="node8" class="node open">
<title>ZcashFoundation/zebra#6025</title>
<g id="a_node8"><a xlink:href="https://github.com/ZcashFoundation/zebra/issues/6025" xlink:title="ZcashFoundation/zebra#6025&#10;Add a manually&#45;triggered&#10;workflow for mining a&#10;block on testnet" target="_blank">
<polygon fill="#c2e0c6" stroke="black" points="498,-428 267,-428 267,-360 498,-360 498,-428"/>
<text text-anchor="middle" x="382.5" y="-412.8" font-family="Times,serif" font-size="14.00">ZcashFoundation/zebra#6025</text>
<text text-anchor="middle" x="382.5" y="-397.8" font-family="Times,serif" font-size="14.00">Add a manually&#45;triggered</text>
<text text-anchor="middle" x="382.5" y="-382.8" font-family="Times,serif" font-size="14.00">workflow for mining a</text>
<text text-anchor="middle" x="382.5" y="-367.8" font-family="Times,serif" font-size="14.00">block on testnet</text>
</a>
</g>
</g>
<!-- ZcashFoundation/zebra#7200 -->
<g id="node9" class="node open">
<title>ZcashFoundation/zebra#7200</title>
<g id="a_node9"><a xlink:href="https://github.com/ZcashFoundation/zebra/pull/7200" xlink:title="ZcashFoundation/zebra#7200&#10;ref(docker): organize&#10;`ENV` and `ARG` values&#10;based on their usage" target="_blank">
<polygon fill="#c2e0c6" stroke="black" stroke-width="2" points="231,-263 0,-263 0,-259 -4,-259 -4,-255 0,-255 0,-203 -4,-203 -4,-199 0,-199 0,-195 231,-195 231,-263"/>
<polyline fill="none" stroke="black" stroke-width="2" points="0,-259 4,-259 4,-255 0,-255 "/>
<polyline fill="none" stroke="black" stroke-width="2" points="0,-203 4,-203 4,-199 0,-199 "/>
<text text-anchor="middle" x="115.5" y="-247.8" font-family="Times,serif" font-size="14.00">ZcashFoundation/zebra#7200</text>
<text text-anchor="middle" x="115.5" y="-232.8" font-family="Times,serif" font-size="14.00">ref(docker): organize</text>
<text text-anchor="middle" x="115.5" y="-217.8" font-family="Times,serif" font-size="14.00">`ENV` and `ARG` values</text>
<text text-anchor="middle" x="115.5" y="-202.8" font-family="Times,serif" font-size="14.00">based on their usage</text>
</a>
</g>
</g>
<!-- ZcashFoundation/zebra#7200&#45;&gt;ZcashFoundation/zebra#7179 -->
<g id="edge6" class="edge">
<title>ZcashFoundation/zebra#7200&#45;&gt;ZcashFoundation/zebra#7179</title>
<path fill="none" stroke="black" d="M231.19,-245.88C239.64,-247.12 248.18,-248.38 256.68,-249.63"/>
<polygon fill="black" stroke="black" points="256.23,-253.1 266.63,-251.1 257.25,-246.18 256.23,-253.1"/>
</g>
<!-- ZcashFoundation/zebra#6611 -->
<g id="node10" class="node open">
<title>ZcashFoundation/zebra#6611</title>
<g id="a_node10"><a xlink:href="https://github.com/ZcashFoundation/zebra/issues/6611" xlink:title="ZcashFoundation/zebra#6611&#10;Document how to switch&#10;from Testnet to Mainnet&#10;in Docker images" target="_blank">
<polygon fill="#c2e0c6" stroke="black" stroke-width="2" points="231,-522 0,-522 0,-454 231,-454 231,-522"/>
<text text-anchor="middle" x="115.5" y="-506.8" font-family="Times,serif" font-size="14.00">ZcashFoundation/zebra#6611</text>
<text text-anchor="middle" x="115.5" y="-491.8" font-family="Times,serif" font-size="14.00">Document how to switch</text>
<text text-anchor="middle" x="115.5" y="-476.8" font-family="Times,serif" font-size="14.00">from Testnet to Mainnet</text>
<text text-anchor="middle" x="115.5" y="-461.8" font-family="Times,serif" font-size="14.00">in Docker images</text>
</a>
</g>
</g>
<!-- ZcashFoundation/zebra#6159 -->
<g id="node11" class="node closed">
<title>ZcashFoundation/zebra#6159</title>
<g id="a_node11"><a xlink:href="https://github.com/ZcashFoundation/zebra/issues/6159" xlink:title="ZcashFoundation/zebra#6159&#10;Documentation: Write a&#10;blog post to share how we&#10;used Zebra and s&#45;nomp to&#10;mine on testnet" target="_blank">
<polygon fill="#fad8c7" stroke="black" points="498,-529.5 267,-529.5 267,-446.5 498,-446.5 498,-529.5"/>
<text text-anchor="middle" x="382.5" y="-514.3" font-family="Times,serif" font-size="14.00">ZcashFoundation/zebra#6159</text>
<text text-anchor="middle" x="382.5" y="-499.3" font-family="Times,serif" font-size="14.00">Documentation: Write a</text>
<text text-anchor="middle" x="382.5" y="-484.3" font-family="Times,serif" font-size="14.00">blog post to share how we</text>
<text text-anchor="middle" x="382.5" y="-469.3" font-family="Times,serif" font-size="14.00">used Zebra and s&#45;nomp to</text>
<text text-anchor="middle" x="382.5" y="-454.3" font-family="Times,serif" font-size="14.00">mine on testnet</text>
</a>
</g>
</g>
<!-- ZcashFoundation/zebra#6611&#45;&gt;ZcashFoundation/zebra#6159 -->
<g id="edge7" class="edge">
<title>ZcashFoundation/zebra#6611&#45;&gt;ZcashFoundation/zebra#6159</title>
<path fill="none" stroke="black" d="M231.19,-488C239.55,-488 247.99,-488 256.4,-488"/>
<polygon fill="black" stroke="black" points="256.63,-491.5 266.63,-488 256.63,-484.5 256.63,-491.5"/>
</g>
<!-- ZcashFoundation/zebra#6955 -->
<g id="node12" class="node open">
<title>ZcashFoundation/zebra#6955</title>
<g id="a_node12"><a xlink:href="https://github.com/ZcashFoundation/zebra/issues/6955" xlink:title="ZcashFoundation/zebra#6955&#10;Create an empty database&#10;format update task and&#10;format update tests" target="_blank">
<polygon fill="#c2e0c6" stroke="black" stroke-width="2" points="231,-663 0,-663 0,-595 231,-595 231,-663"/>
<text text-anchor="middle" x="115.5" y="-647.8" font-family="Times,serif" font-size="14.00">ZcashFoundation/zebra#6955</text>
<text text-anchor="middle" x="115.5" y="-632.8" font-family="Times,serif" font-size="14.00">Create an empty database</text>
<text text-anchor="middle" x="115.5" y="-617.8" font-family="Times,serif" font-size="14.00">format update task and</text>
<text text-anchor="middle" x="115.5" y="-602.8" font-family="Times,serif" font-size="14.00">format update tests</text>
</a>
</g>
</g>
<!-- ZcashFoundation/zebra#6859 -->
<g id="node13" class="node open">
<title>ZcashFoundation/zebra#6859</title>
<g id="a_node13"><a xlink:href="https://github.com/ZcashFoundation/zebra/issues/6859" xlink:title="ZcashFoundation/zebra#6859&#10;Tracking: Upgrade shared&#10;ECC dependencies and&#10;zcash_script for zcashd&#10;5.6.0" target="_blank">
<polygon fill="#a7c2aa" stroke="black" points="498,-717.5 267,-717.5 267,-634.5 498,-634.5 498,-717.5"/>
<text text-anchor="middle" x="382.5" y="-702.3" font-family="Times,serif" font-size="14.00">ZcashFoundation/zebra#6859</text>
<text text-anchor="middle" x="382.5" y="-687.3" font-family="Times,serif" font-size="14.00">Tracking: Upgrade shared</text>
<text text-anchor="middle" x="382.5" y="-672.3" font-family="Times,serif" font-size="14.00">ECC dependencies and</text>
<text text-anchor="middle" x="382.5" y="-657.3" font-family="Times,serif" font-size="14.00">zcash_script for zcashd</text>
<text text-anchor="middle" x="382.5" y="-642.3" font-family="Times,serif" font-size="14.00">5.6.0</text>
</a>
</g>
</g>
<!-- ZcashFoundation/zebra#6955&#45;&gt;ZcashFoundation/zebra#6859 -->
<g id="edge8" class="edge">
<title>ZcashFoundation/zebra#6955&#45;&gt;ZcashFoundation/zebra#6859</title>
<path fill="none" stroke="black" d="M231.19,-649.34C239.64,-650.84 248.18,-652.35 256.68,-653.86"/>
<polygon fill="black" stroke="black" points="256.17,-657.32 266.63,-655.63 257.4,-650.43 256.17,-657.32"/>
</g>
<!-- ZcashFoundation/zebra#4784 -->
<g id="node14" class="node open">
<title>ZcashFoundation/zebra#4784</title>
<g id="a_node14"><a xlink:href="https://github.com/ZcashFoundation/zebra/issues/4784" xlink:title="ZcashFoundation/zebra#4784&#10;Store only the first tree&#10;state in each identical&#10;series of tree states" target="_blank">
<polygon fill="#a7c2aa" stroke="black" points="498,-616 267,-616 267,-548 498,-548 498,-616"/>
<text text-anchor="middle" x="382.5" y="-600.8" font-family="Times,serif" font-size="14.00">ZcashFoundation/zebra#4784</text>
<text text-anchor="middle" x="382.5" y="-585.8" font-family="Times,serif" font-size="14.00">Store only the first tree</text>
<text text-anchor="middle" x="382.5" y="-570.8" font-family="Times,serif" font-size="14.00">state in each identical</text>
<text text-anchor="middle" x="382.5" y="-555.8" font-family="Times,serif" font-size="14.00">series of tree states</text>
</a>
</g>
</g>
<!-- ZcashFoundation/zebra#6955&#45;&gt;ZcashFoundation/zebra#4784 -->
<g id="edge9" class="edge">
<title>ZcashFoundation/zebra#6955&#45;&gt;ZcashFoundation/zebra#4784</title>
<path fill="none" stroke="black" d="M231.19,-608.66C239.64,-607.16 248.18,-605.65 256.68,-604.14"/>
<polygon fill="black" stroke="black" points="257.4,-607.57 266.63,-602.37 256.17,-600.68 257.4,-607.57"/>
</g>
<!-- ZcashFoundation/zebra#6952 -->
<g id="node15" class="node open">
<title>ZcashFoundation/zebra#6952</title>
<g id="a_node15"><a xlink:href="https://github.com/ZcashFoundation/zebra/issues/6952" xlink:title="ZcashFoundation/zebra#6952&#10;Add note tree size fields&#10;to the `getblock` RPC" target="_blank">
<polygon fill="#a7c2aa" stroke="black" points="765,-781.5 534,-781.5 534,-728.5 765,-728.5 765,-781.5"/>
<text text-anchor="middle" x="649.5" y="-766.3" font-family="Times,serif" font-size="14.00">ZcashFoundation/zebra#6952</text>
<text text-anchor="middle" x="649.5" y="-751.3" font-family="Times,serif" font-size="14.00">Add note tree size fields</text>
<text text-anchor="middle" x="649.5" y="-736.3" font-family="Times,serif" font-size="14.00">to the `getblock` RPC</text>
</a>
</g>
</g>
<!-- ZcashFoundation/zebra#6859&#45;&gt;ZcashFoundation/zebra#6952 -->
<g id="edge10" class="edge">
<title>ZcashFoundation/zebra#6859&#45;&gt;ZcashFoundation/zebra#6952</title>
<path fill="none" stroke="black" d="M498.19,-710.19C515.38,-715.32 532.98,-720.56 549.79,-725.57"/>
<polygon fill="black" stroke="black" points="549.02,-728.99 559.6,-728.5 551.02,-722.28 549.02,-728.99"/>
</g>
<!-- ZcashFoundation/zebra#6953 -->
<g id="node16" class="node open">
<title>ZcashFoundation/zebra#6953</title>
<g id="a_node16"><a xlink:href="https://github.com/ZcashFoundation/zebra/issues/6953" xlink:title="ZcashFoundation/zebra#6953&#10;Add note subtree indexes&#10;to the finalized and non&#45;&#10;finalized state" target="_blank">
<polygon fill="#a7c2aa" stroke="black" points="765,-710 534,-710 534,-642 765,-642 765,-710"/>
<text text-anchor="middle" x="649.5" y="-694.8" font-family="Times,serif" font-size="14.00">ZcashFoundation/zebra#6953</text>
<text text-anchor="middle" x="649.5" y="-679.8" font-family="Times,serif" font-size="14.00">Add note subtree indexes</text>
<text text-anchor="middle" x="649.5" y="-664.8" font-family="Times,serif" font-size="14.00">to the finalized and non&#45;</text>
<text text-anchor="middle" x="649.5" y="-649.8" font-family="Times,serif" font-size="14.00">finalized state</text>
</a>
</g>
</g>
<!-- ZcashFoundation/zebra#6859&#45;&gt;ZcashFoundation/zebra#6953 -->
<g id="edge11" class="edge">
<title>ZcashFoundation/zebra#6859&#45;&gt;ZcashFoundation/zebra#6953</title>
<path fill="none" stroke="black" d="M498.19,-676C506.55,-676 514.99,-676 523.4,-676"/>
<polygon fill="black" stroke="black" points="523.63,-679.5 533.63,-676 523.63,-672.5 523.63,-679.5"/>
</g>
<!-- ZcashFoundation/zebra#6642 -->
<g id="node17" class="node open">
<title>ZcashFoundation/zebra#6642</title>
<g id="a_node17"><a xlink:href="https://github.com/ZcashFoundation/zebra/issues/6642" xlink:title="ZcashFoundation/zebra#6642&#10;Tracking: Update&#10;`lightwalletd` RPCs for&#10;&quot;fast spendability&quot;&#10;algorithm" target="_blank">
<polygon fill="#a7c2aa" stroke="black" points="765,-623.5 534,-623.5 534,-540.5 765,-540.5 765,-623.5"/>
<text text-anchor="middle" x="649.5" y="-608.3" font-family="Times,serif" font-size="14.00">ZcashFoundation/zebra#6642</text>
<text text-anchor="middle" x="649.5" y="-593.3" font-family="Times,serif" font-size="14.00">Tracking: Update</text>
<text text-anchor="middle" x="649.5" y="-578.3" font-family="Times,serif" font-size="14.00">`lightwalletd` RPCs for</text>
<text text-anchor="middle" x="649.5" y="-563.3" font-family="Times,serif" font-size="14.00">&quot;fast spendability&quot;</text>
<text text-anchor="middle" x="649.5" y="-548.3" font-family="Times,serif" font-size="14.00">algorithm</text>
</a>
</g>
</g>
<!-- ZcashFoundation/zebra#4784&#45;&gt;ZcashFoundation/zebra#6642 -->
<g id="edge12" class="edge">
<title>ZcashFoundation/zebra#4784&#45;&gt;ZcashFoundation/zebra#6642</title>
<path fill="none" stroke="black" d="M498.19,-582C506.55,-582 514.99,-582 523.4,-582"/>
<polygon fill="black" stroke="black" points="523.63,-585.5 533.63,-582 523.63,-578.5 523.63,-585.5"/>
</g>
<!-- ZcashFoundation/zebra#6954 -->
<g id="node18" class="node open">
<title>ZcashFoundation/zebra#6954</title>
<g id="a_node18"><a xlink:href="https://github.com/ZcashFoundation/zebra/issues/6954" xlink:title="ZcashFoundation/zebra#6954&#10;Implement&#10;`z_getsubtreesbyindex`&#10;RPC" target="_blank">
<polygon fill="#a7c2aa" stroke="black" points="1032,-710 801,-710 801,-642 1032,-642 1032,-710"/>
<text text-anchor="middle" x="916.5" y="-694.8" font-family="Times,serif" font-size="14.00">ZcashFoundation/zebra#6954</text>
<text text-anchor="middle" x="916.5" y="-679.8" font-family="Times,serif" font-size="14.00">Implement</text>
<text text-anchor="middle" x="916.5" y="-664.8" font-family="Times,serif" font-size="14.00">`z_getsubtreesbyindex`</text>
<text text-anchor="middle" x="916.5" y="-649.8" font-family="Times,serif" font-size="14.00">RPC</text>
</a>
</g>
</g>
<!-- ZcashFoundation/zebra#6953&#45;&gt;ZcashFoundation/zebra#6954 -->
<g id="edge13" class="edge">
<title>ZcashFoundation/zebra#6953&#45;&gt;ZcashFoundation/zebra#6954</title>
<path fill="none" stroke="black" d="M765.19,-676C773.55,-676 781.99,-676 790.4,-676"/>
<polygon fill="black" stroke="black" points="790.63,-679.5 800.63,-676 790.63,-672.5 790.63,-679.5"/>
</g>
<!-- ZcashFoundation/zebra#6118 -->
<g id="node19" class="node open">
<title>ZcashFoundation/zebra#6118</title>
<g id="a_node19"><a xlink:href="https://github.com/ZcashFoundation/zebra/issues/6118" xlink:title="ZcashFoundation/zebra#6118&#10;Create a Docker images&#10;and docker&#45;compose for&#10;mining with Zebra on&#10;Testnet" target="_blank">
<polygon fill="#c2e0c6" stroke="black" stroke-width="2" points="231,-435.5 0,-435.5 0,-352.5 231,-352.5 231,-435.5"/>
<text text-anchor="middle" x="115.5" y="-420.3" font-family="Times,serif" font-size="14.00">ZcashFoundation/zebra#6118</text>
<text text-anchor="middle" x="115.5" y="-405.3" font-family="Times,serif" font-size="14.00">Create a Docker images</text>
<text text-anchor="middle" x="115.5" y="-390.3" font-family="Times,serif" font-size="14.00">and docker&#45;compose for</text>
<text text-anchor="middle" x="115.5" y="-375.3" font-family="Times,serif" font-size="14.00">mining with Zebra on</text>
<text text-anchor="middle" x="115.5" y="-360.3" font-family="Times,serif" font-size="14.00">Testnet</text>
</a>
</g>
</g>
<!-- ZcashFoundation/zebra#6118&#45;&gt;ZcashFoundation/zebra#6025 -->
<g id="edge14" class="edge">
<title>ZcashFoundation/zebra#6118&#45;&gt;ZcashFoundation/zebra#6025</title>
<path fill="none" stroke="black" d="M231.19,-394C239.55,-394 247.99,-394 256.4,-394"/>
<polygon fill="black" stroke="black" points="256.63,-397.5 266.63,-394 256.63,-390.5 256.63,-397.5"/>
</g>
<!-- ZcashFoundation/zebra#4554 -->
<g id="node20" class="node open">
<title>ZcashFoundation/zebra#4554</title>
<g id="a_node20"><a xlink:href="https://github.com/ZcashFoundation/zebra/issues/4554" xlink:title="ZcashFoundation/zebra#4554&#10;benchmarks: create a&#10;ticket if zebrad mainnet&#10;sync time increases&#10;significantly" target="_blank">
<polygon fill="#c2e0c6" stroke="black" stroke-width="2" points="231,-764.5 0,-764.5 0,-681.5 231,-681.5 231,-764.5"/>
<text text-anchor="middle" x="115.5" y="-749.3" font-family="Times,serif" font-size="14.00">ZcashFoundation/zebra#4554</text>
<text text-anchor="middle" x="115.5" y="-734.3" font-family="Times,serif" font-size="14.00">benchmarks: create a</text>
<text text-anchor="middle" x="115.5" y="-719.3" font-family="Times,serif" font-size="14.00">ticket if zebrad mainnet</text>
<text text-anchor="middle" x="115.5" y="-704.3" font-family="Times,serif" font-size="14.00">sync time increases</text>
<text text-anchor="middle" x="115.5" y="-689.3" font-family="Times,serif" font-size="14.00">significantly</text>
</a>
</g>
</g>
</g>
</svg>
