<?xml version="1.0" encoding="UTF-8" standalone="no"?>
<?xml-stylesheet href="zcash-dag.css" type="text/css"?>
<!DOCTYPE svg PUBLIC "-//W3C//DTD SVG 1.1//EN"
 "http://www.w3.org/Graphics/SVG/1.1/DTD/svg11.dtd">
<!-- Generated by graphviz version 2.40.1 (20161225.0304)
 -->
<!-- Pages: 1 -->
<svg width="783pt" height="1175pt"
 viewBox="0.00 0.00 783.00 1175.00" xmlns="http://www.w3.org/2000/svg" xmlns:xlink="http://www.w3.org/1999/xlink">
<g id="graph0" class="graph" transform="scale(1 1) rotate(0) translate(4 1171)">
<polygon fill="#ffffff" stroke="transparent" points="-4,4 -4,-1171 779,-1171 779,4 -4,4"/>
<g id="clust1" class="cluster">
<title>cluster_1</title>
<polygon fill="none" stroke="#0000ff" points="18,-534.5 18,-1012.5 775,-1012.5 775,-534.5 18,-534.5"/>
<text text-anchor="middle" x="396.5" y="-997.3" font-family="Times,serif" font-size="14.00" fill="#000000">Epic: FROST Proof of Concept/Prototype and Documentation</text>
</g>
<g id="clust2" class="cluster">
<title>cluster_0</title>
<polygon fill="none" stroke="#0000ff" points="289,-116.5 289,-223.5 522,-223.5 522,-116.5 289,-116.5"/>
<text text-anchor="middle" x="405.5" y="-208.3" font-family="Times,serif" font-size="14.00" fill="#000000">Epic: FROST Audit</text>
</g>
<g id="clust3" class="cluster">
<title>cluster_2</title>
<polygon fill="none" stroke="#0000ff" points="18,-1020.5 18,-1113.5 252,-1113.5 252,-1020.5 18,-1020.5"/>
<text text-anchor="middle" x="135" y="-1098.3" font-family="Times,serif" font-size="14.00" fill="#000000">Epic: Re&#45;randomizable FROST</text>
</g>
<g id="clust4" class="cluster">
<title>cluster_3</title>
<polygon fill="none" stroke="#0000ff" points="0,-163.5 0,-526.5 269,-526.5 269,-163.5 0,-163.5"/>
<text text-anchor="middle" x="134.5" y="-511.3" font-family="Times,serif" font-size="14.00" fill="#000000">Epic: Prep crates / APIs for release</text>
</g>
<!-- ZcashFoundation/frost#238 -->
<g id="node1" class="node open">
<title>ZcashFoundation/frost#238</title>
<g id="a_node1"><a xlink:href="https://github.com/ZcashFoundation/frost/issues/238" xlink:title="ZcashFoundation/frost#238&#10;Demo for Trusted Dealer&#10;key share generation" target="_blank">
<polygon fill="#c2e0c6" stroke="#000000" stroke-width="2" points="243,-981 26,-981 26,-928 243,-928 243,-981"/>
<text text-anchor="middle" x="134.5" y="-965.8" font-family="Times,serif" font-size="14.00" fill="#000000">ZcashFoundation/frost#238</text>
<text text-anchor="middle" x="134.5" y="-950.8" font-family="Times,serif" font-size="14.00" fill="#000000">Demo for Trusted Dealer</text>
<text text-anchor="middle" x="134.5" y="-935.8" font-family="Times,serif" font-size="14.00" fill="#000000">key share generation</text>
</a>
</g>
</g>
<!-- ZcashFoundation/frost#239 -->
<g id="node2" class="node open">
<title>ZcashFoundation/frost#239</title>
<g id="a_node2"><a xlink:href="https://github.com/ZcashFoundation/frost/issues/239" xlink:title="ZcashFoundation/frost#239&#10;Demo for Signature&#10;generation: Participant&#10;CLI" target="_blank">
<polygon fill="#c2e0c6" stroke="#000000" points="514,-981.5 297,-981.5 297,-913.5 514,-913.5 514,-981.5"/>
<text text-anchor="middle" x="405.5" y="-966.3" font-family="Times,serif" font-size="14.00" fill="#000000">ZcashFoundation/frost#239</text>
<text text-anchor="middle" x="405.5" y="-951.3" font-family="Times,serif" font-size="14.00" fill="#000000">Demo for Signature</text>
<text text-anchor="middle" x="405.5" y="-936.3" font-family="Times,serif" font-size="14.00" fill="#000000">generation: Participant</text>
<text text-anchor="middle" x="405.5" y="-921.3" font-family="Times,serif" font-size="14.00" fill="#000000">CLI</text>
</a>
</g>
</g>
<!-- ZcashFoundation/frost#238&#45;&gt;ZcashFoundation/frost#239 -->
<g id="edge1" class="edge">
<title>ZcashFoundation/frost#238&#45;&gt;ZcashFoundation/frost#239</title>
<path fill="none" stroke="#000000" d="M243.16,-951.69C257.52,-951.32 272.3,-950.94 286.81,-950.57"/>
<polygon fill="#000000" stroke="#000000" points="286.9044,-954.0688 296.81,-950.31 286.7224,-947.0712 286.9044,-954.0688"/>
</g>
<!-- ZcashFoundation/frost#249 -->
<g id="node3" class="node open">
<title>ZcashFoundation/frost#249</title>
<g id="a_node3"><a xlink:href="https://github.com/ZcashFoundation/frost/issues/249" xlink:title="ZcashFoundation/frost#249&#10;Demo for Signature&#10;generation: Coordinator&#10;CLI" target="_blank">
<polygon fill="#c2e0c6" stroke="#000000" points="767,-981.5 550,-981.5 550,-913.5 767,-913.5 767,-981.5"/>
<text text-anchor="middle" x="658.5" y="-966.3" font-family="Times,serif" font-size="14.00" fill="#000000">ZcashFoundation/frost#249</text>
<text text-anchor="middle" x="658.5" y="-951.3" font-family="Times,serif" font-size="14.00" fill="#000000">Demo for Signature</text>
<text text-anchor="middle" x="658.5" y="-936.3" font-family="Times,serif" font-size="14.00" fill="#000000">generation: Coordinator</text>
<text text-anchor="middle" x="658.5" y="-921.3" font-family="Times,serif" font-size="14.00" fill="#000000">CLI</text>
</a>
</g>
</g>
<!-- ZcashFoundation/frost#239&#45;&gt;ZcashFoundation/frost#249 -->
<g id="edge2" class="edge">
<title>ZcashFoundation/frost#239&#45;&gt;ZcashFoundation/frost#249</title>
<path fill="none" stroke="#000000" d="M514.26,-947.5C522.64,-947.5 531.13,-947.5 539.57,-947.5"/>
<polygon fill="#000000" stroke="#000000" points="539.83,-951.0001 549.83,-947.5 539.83,-944.0001 539.83,-951.0001"/>
</g>
<!-- ZcashFoundation/frost#240 -->
<g id="node4" class="node open">
<title>ZcashFoundation/frost#240</title>
<g id="a_node4"><a xlink:href="https://github.com/ZcashFoundation/frost/issues/240" xlink:title="ZcashFoundation/frost#240&#10;Demo for Signature&#10;verification" target="_blank">
<polygon fill="#c2e0c6" stroke="#000000" stroke-width="2" points="243,-910 26,-910 26,-857 243,-857 243,-910"/>
<text text-anchor="middle" x="134.5" y="-894.8" font-family="Times,serif" font-size="14.00" fill="#000000">ZcashFoundation/frost#240</text>
<text text-anchor="middle" x="134.5" y="-879.8" font-family="Times,serif" font-size="14.00" fill="#000000">Demo for Signature</text>
<text text-anchor="middle" x="134.5" y="-864.8" font-family="Times,serif" font-size="14.00" fill="#000000">verification</text>
</a>
</g>
</g>
<!-- ZcashFoundation/frost#252 -->
<g id="node5" class="node open">
<title>ZcashFoundation/frost#252</title>
<g id="a_node5"><a xlink:href="https://github.com/ZcashFoundation/frost/issues/252" xlink:title="ZcashFoundation/frost#252&#10;Demo for Distributed Key&#10;Generation (DKG)" target="_blank">
<polygon fill="#c2e0c6" stroke="#000000" stroke-width="2" points="243,-839 26,-839 26,-786 243,-786 243,-839"/>
<text text-anchor="middle" x="134.5" y="-823.8" font-family="Times,serif" font-size="14.00" fill="#000000">ZcashFoundation/frost#252</text>
<text text-anchor="middle" x="134.5" y="-808.8" font-family="Times,serif" font-size="14.00" fill="#000000">Demo for Distributed Key</text>
<text text-anchor="middle" x="134.5" y="-793.8" font-family="Times,serif" font-size="14.00" fill="#000000">Generation (DKG)</text>
</a>
</g>
</g>
<!-- ZcashFoundation/frost#242 -->
<g id="node6" class="node open">
<title>ZcashFoundation/frost#242</title>
<g id="a_node6"><a xlink:href="https://github.com/ZcashFoundation/frost/issues/242" xlink:title="ZcashFoundation/frost#242&#10;Implement broadcast&#10;channel for FROST PoC" target="_blank">
<polygon fill="#c2e0c6" stroke="#000000" stroke-width="2" points="243,-768 26,-768 26,-715 243,-715 243,-768"/>
<text text-anchor="middle" x="134.5" y="-752.8" font-family="Times,serif" font-size="14.00" fill="#000000">ZcashFoundation/frost#242</text>
<text text-anchor="middle" x="134.5" y="-737.8" font-family="Times,serif" font-size="14.00" fill="#000000">Implement broadcast</text>
<text text-anchor="middle" x="134.5" y="-722.8" font-family="Times,serif" font-size="14.00" fill="#000000">channel for FROST PoC</text>
</a>
</g>
</g>
<!-- ZcashFoundation/frost#251 -->
<g id="node7" class="node open">
<title>ZcashFoundation/frost#251</title>
<g id="a_node7"><a xlink:href="https://github.com/ZcashFoundation/frost/issues/251" xlink:title="ZcashFoundation/frost#251&#10;Publish FROST API&#10;reference docs to&#10;doc.frost.zfnd.org" target="_blank">
<polygon fill="#c2e0c6" stroke="#000000" stroke-width="2" points="243,-696.5 26,-696.5 26,-628.5 243,-628.5 243,-696.5"/>
<text text-anchor="middle" x="134.5" y="-681.3" font-family="Times,serif" font-size="14.00" fill="#000000">ZcashFoundation/frost#251</text>
<text text-anchor="middle" x="134.5" y="-666.3" font-family="Times,serif" font-size="14.00" fill="#000000">Publish FROST API</text>
<text text-anchor="middle" x="134.5" y="-651.3" font-family="Times,serif" font-size="14.00" fill="#000000">reference docs to</text>
<text text-anchor="middle" x="134.5" y="-636.3" font-family="Times,serif" font-size="14.00" fill="#000000">doc.frost.zfnd.org</text>
</a>
</g>
</g>
<!-- ZcashFoundation/frost#241 -->
<g id="node8" class="node open">
<title>ZcashFoundation/frost#241</title>
<g id="a_node8"><a xlink:href="https://github.com/ZcashFoundation/frost/issues/241" xlink:title="ZcashFoundation/frost#241&#10;Generate and publish&#10;documentation for&#10;`frost&#45;*` crates" target="_blank">
<polygon fill="#c2e0c6" stroke="#000000" stroke-width="2" points="243,-610.5 26,-610.5 26,-542.5 243,-542.5 243,-610.5"/>
<text text-anchor="middle" x="134.5" y="-595.3" font-family="Times,serif" font-size="14.00" fill="#000000">ZcashFoundation/frost#241</text>
<text text-anchor="middle" x="134.5" y="-580.3" font-family="Times,serif" font-size="14.00" fill="#000000">Generate and publish</text>
<text text-anchor="middle" x="134.5" y="-565.3" font-family="Times,serif" font-size="14.00" fill="#000000">documentation for</text>
<text text-anchor="middle" x="134.5" y="-550.3" font-family="Times,serif" font-size="14.00" fill="#000000">`frost&#45;*` crates</text>
</a>
</g>
</g>
<!-- ZcashFoundation/frost#235 -->
<g id="node9" class="node open">
<title>ZcashFoundation/frost#235</title>
<g id="a_node9"><a xlink:href="https://github.com/ZcashFoundation/frost/issues/235" xlink:title="ZcashFoundation/frost#235&#10;Tag a `frost` release&#10;based on the final&#10;version of the spec" target="_blank">
<polygon fill="#c2e0c6" stroke="#000000" points="514,-192.5 297,-192.5 297,-124.5 514,-124.5 514,-192.5"/>
<text text-anchor="middle" x="405.5" y="-177.3" font-family="Times,serif" font-size="14.00" fill="#000000">ZcashFoundation/frost#235</text>
<text text-anchor="middle" x="405.5" y="-162.3" font-family="Times,serif" font-size="14.00" fill="#000000">Tag a `frost` release</text>
<text text-anchor="middle" x="405.5" y="-147.3" font-family="Times,serif" font-size="14.00" fill="#000000">based on the final</text>
<text text-anchor="middle" x="405.5" y="-132.3" font-family="Times,serif" font-size="14.00" fill="#000000">version of the spec</text>
</a>
</g>
</g>
<!-- ZcashFoundation/frost#216 -->
<g id="node10" class="node open">
<title>ZcashFoundation/frost#216</title>
<g id="a_node10"><a xlink:href="https://github.com/ZcashFoundation/frost/issues/216" xlink:title="ZcashFoundation/frost#216&#10;Write security proof for&#10;Rerandomized FROST" target="_blank">
<polygon fill="#c2e0c6" stroke="#000000" stroke-width="2" points="243,-1082 26,-1082 26,-1029 243,-1029 243,-1082"/>
<text text-anchor="middle" x="134.5" y="-1066.8" font-family="Times,serif" font-size="14.00" fill="#000000">ZcashFoundation/frost#216</text>
<text text-anchor="middle" x="134.5" y="-1051.8" font-family="Times,serif" font-size="14.00" fill="#000000">Write security proof for</text>
<text text-anchor="middle" x="134.5" y="-1036.8" font-family="Times,serif" font-size="14.00" fill="#000000">Rerandomized FROST</text>
</a>
</g>
</g>
<!-- ZcashFoundation/frost#189 -->
<g id="node11" class="node open">
<title>ZcashFoundation/frost#189</title>
<g id="a_node11"><a xlink:href="https://github.com/ZcashFoundation/frost/issues/189" xlink:title="ZcashFoundation/frost#189&#10;Updated release drafter&#10;config to match zebrad&#39;s" target="_blank">
<polygon fill="#c2e0c6" stroke="#000000" stroke-width="2" points="243,-495 26,-495 26,-442 243,-442 243,-495"/>
<text text-anchor="middle" x="134.5" y="-479.8" font-family="Times,serif" font-size="14.00" fill="#000000">ZcashFoundation/frost#189</text>
<text text-anchor="middle" x="134.5" y="-464.8" font-family="Times,serif" font-size="14.00" fill="#000000">Updated release drafter</text>
<text text-anchor="middle" x="134.5" y="-449.8" font-family="Times,serif" font-size="14.00" fill="#000000">config to match zebrad&#39;s</text>
</a>
</g>
</g>
<!-- ZcashFoundation/frost#189&#45;&gt;ZcashFoundation/frost#235 -->
<g id="edge3" class="edge">
<title>ZcashFoundation/frost#189&#45;&gt;ZcashFoundation/frost#235</title>
<path fill="none" stroke="#000000" d="M243.18,-448.4C252.45,-444.08 261.23,-438.85 269,-432.5 342.29,-372.62 379.67,-263.45 395.63,-202.55"/>
<polygon fill="#000000" stroke="#000000" points="399.024,-203.4045 398.1,-192.85 392.2405,-201.6771 399.024,-203.4045"/>
</g>
<!-- ZcashFoundation/frost#190 -->
<g id="node12" class="node open">
<title>ZcashFoundation/frost#190</title>
<g id="a_node12"><a xlink:href="https://github.com/ZcashFoundation/frost/issues/190" xlink:title="ZcashFoundation/frost#190&#10;Write a release checklist" target="_blank">
<polygon fill="#c2e0c6" stroke="#000000" stroke-width="2" points="243,-423.5 26,-423.5 26,-385.5 243,-385.5 243,-423.5"/>
<text text-anchor="middle" x="134.5" y="-408.3" font-family="Times,serif" font-size="14.00" fill="#000000">ZcashFoundation/frost#190</text>
<text text-anchor="middle" x="134.5" y="-393.3" font-family="Times,serif" font-size="14.00" fill="#000000">Write a release checklist</text>
</a>
</g>
</g>
<!-- ZcashFoundation/frost#190&#45;&gt;ZcashFoundation/frost#235 -->
<g id="edge4" class="edge">
<title>ZcashFoundation/frost#190&#45;&gt;ZcashFoundation/frost#235</title>
<path fill="none" stroke="#000000" d="M243.11,-390.12C252.29,-386.49 261.07,-382.02 269,-376.5 330.84,-333.44 370.46,-252.42 390.29,-202.2"/>
<polygon fill="#000000" stroke="#000000" points="393.6632,-203.1798 393.99,-192.59 387.1306,-200.6646 393.6632,-203.1798"/>
</g>
<!-- ZcashFoundation/frost#79 -->
<g id="node13" class="node open">
<title>ZcashFoundation/frost#79</title>
<g id="a_node13"><a xlink:href="https://github.com/ZcashFoundation/frost/issues/79" xlink:title="ZcashFoundation/frost#79&#10;Publish `frost&#45;` crates" target="_blank">
<polygon fill="#c2e0c6" stroke="#000000" stroke-width="2" points="238.5,-367.5 30.5,-367.5 30.5,-329.5 238.5,-329.5 238.5,-367.5"/>
<text text-anchor="middle" x="134.5" y="-352.3" font-family="Times,serif" font-size="14.00" fill="#000000">ZcashFoundation/frost#79</text>
<text text-anchor="middle" x="134.5" y="-337.3" font-family="Times,serif" font-size="14.00" fill="#000000">Publish `frost&#45;` crates</text>
</a>
</g>
</g>
<!-- ZcashFoundation/frost#243 -->
<g id="node14" class="node open">
<title>ZcashFoundation/frost#243</title>
<g id="a_node14"><a xlink:href="https://github.com/ZcashFoundation/frost/issues/243" xlink:title="ZcashFoundation/frost#243&#10;Publish FROST&#10;documentation to&#10;frost.zfnd.org" target="_blank">
<polygon fill="#c2e0c6" stroke="#000000" stroke-width="2" points="243,-311.5 26,-311.5 26,-243.5 243,-243.5 243,-311.5"/>
<text text-anchor="middle" x="134.5" y="-296.3" font-family="Times,serif" font-size="14.00" fill="#000000">ZcashFoundation/frost#243</text>
<text text-anchor="middle" x="134.5" y="-281.3" font-family="Times,serif" font-size="14.00" fill="#000000">Publish FROST</text>
<text text-anchor="middle" x="134.5" y="-266.3" font-family="Times,serif" font-size="14.00" fill="#000000">documentation to</text>
<text text-anchor="middle" x="134.5" y="-251.3" font-family="Times,serif" font-size="14.00" fill="#000000">frost.zfnd.org</text>
</a>
</g>
</g>
<!-- ZcashFoundation/frost#166 -->
<g id="node15" class="node open">
<title>ZcashFoundation/frost#166</title>
<g id="a_node15"><a xlink:href="https://github.com/ZcashFoundation/frost/issues/166" xlink:title="ZcashFoundation/frost#166&#10;Squat crate names on&#10;crates.io" target="_blank">
<polygon fill="#c2e0c6" stroke="#000000" stroke-width="2" points="243,-225 26,-225 26,-172 243,-172 243,-225"/>
<text text-anchor="middle" x="134.5" y="-209.8" font-family="Times,serif" font-size="14.00" fill="#000000">ZcashFoundation/frost#166</text>
<text text-anchor="middle" x="134.5" y="-194.8" font-family="Times,serif" font-size="14.00" fill="#000000">Squat crate names on</text>
<text text-anchor="middle" x="134.5" y="-179.8" font-family="Times,serif" font-size="14.00" fill="#000000">crates.io</text>
</a>
</g>
</g>
<!-- ZcashFoundation/frost#250 -->
<g id="node16" class="node open">
<title>ZcashFoundation/frost#250</title>
<g id="a_node16"><a xlink:href="https://github.com/ZcashFoundation/frost/pull/250" xlink:title="ZcashFoundation/frost#250&#10;Start FROST book" target="_blank">
<polygon fill="#c2e0c6" stroke="#000000" stroke-width="2" points="243,-1159.5 26,-1159.5 26,-1155.5 22,-1155.5 22,-1151.5 26,-1151.5 26,-1129.5 22,-1129.5 22,-1125.5 26,-1125.5 26,-1121.5 243,-1121.5 243,-1159.5"/>
<polyline fill="none" stroke="#000000" stroke-width="2" points="26,-1155.5 30,-1155.5 30,-1151.5 26,-1151.5 "/>
<polyline fill="none" stroke="#000000" stroke-width="2" points="26,-1129.5 30,-1129.5 30,-1125.5 26,-1125.5 "/>
<text text-anchor="middle" x="134.5" y="-1144.3" font-family="Times,serif" font-size="14.00" fill="#000000">ZcashFoundation/frost#250</text>
<text text-anchor="middle" x="134.5" y="-1129.3" font-family="Times,serif" font-size="14.00" fill="#000000">Start FROST book</text>
</a>
</g>
</g>
<!-- ZcashFoundation/frost#244 -->
<g id="node17" class="node closed">
<title>ZcashFoundation/frost#244</title>
<g id="a_node17"><a xlink:href="https://github.com/ZcashFoundation/frost/pull/244" xlink:title="ZcashFoundation/frost#244&#10;List of dependencies for&#10;audit" target="_blank">
<polygon fill="#fad8c7" stroke="#000000" points="514,-1167 297,-1167 297,-1163 293,-1163 293,-1159 297,-1159 297,-1122 293,-1122 293,-1118 297,-1118 297,-1114 514,-1114 514,-1167"/>
<polyline fill="none" stroke="#000000" points="297,-1163 301,-1163 301,-1159 297,-1159 "/>
<polyline fill="none" stroke="#000000" points="297,-1122 301,-1122 301,-1118 297,-1118 "/>
<text text-anchor="middle" x="405.5" y="-1151.8" font-family="Times,serif" font-size="14.00" fill="#000000">ZcashFoundation/frost#244</text>
<text text-anchor="middle" x="405.5" y="-1136.8" font-family="Times,serif" font-size="14.00" fill="#000000">List of dependencies for</text>
<text text-anchor="middle" x="405.5" y="-1121.8" font-family="Times,serif" font-size="14.00" fill="#000000">audit</text>
</a>
</g>
</g>
<!-- ZcashFoundation/frost#250&#45;&gt;ZcashFoundation/frost#244 -->
<g id="edge5" class="edge">
<title>ZcashFoundation/frost#250&#45;&gt;ZcashFoundation/frost#244</title>
<path fill="none" stroke="#000000" d="M243.16,-1140.5C257.38,-1140.5 272.01,-1140.5 286.39,-1140.5"/>
<polygon fill="#000000" stroke="#000000" points="286.81,-1144.0001 296.81,-1140.5 286.81,-1137.0001 286.81,-1144.0001"/>
</g>
<!-- ZcashFoundation/frost#223 -->
<g id="node18" class="node open">
<title>ZcashFoundation/frost#223</title>
<g id="a_node18"><a xlink:href="https://github.com/ZcashFoundation/frost/pull/223" xlink:title="ZcashFoundation/frost#223&#10;Update curve25519&#45;dalek&#10;requirement from&#10;=4.0.0&#45;pre.1 to&#10;=4.0.0&#45;rc.1" target="_blank">
<polygon fill="#c2e0c6" stroke="#000000" stroke-width="2" points="243,-154 26,-154 26,-150 22,-150 22,-146 26,-146 26,-79 22,-79 22,-75 26,-75 26,-71 243,-71 243,-154"/>
<polyline fill="none" stroke="#000000" stroke-width="2" points="26,-150 30,-150 30,-146 26,-146 "/>
<polyline fill="none" stroke="#000000" stroke-width="2" points="26,-79 30,-79 30,-75 26,-75 "/>
<text text-anchor="middle" x="134.5" y="-138.8" font-family="Times,serif" font-size="14.00" fill="#000000">ZcashFoundation/frost#223</text>
<text text-anchor="middle" x="134.5" y="-123.8" font-family="Times,serif" font-size="14.00" fill="#000000">Update curve25519&#45;dalek</text>
<text text-anchor="middle" x="134.5" y="-108.8" font-family="Times,serif" font-size="14.00" fill="#000000">requirement from</text>
<text text-anchor="middle" x="134.5" y="-93.8" font-family="Times,serif" font-size="14.00" fill="#000000">=4.0.0&#45;pre.1 to</text>
<text text-anchor="middle" x="134.5" y="-78.8" font-family="Times,serif" font-size="14.00" fill="#000000">=4.0.0&#45;rc.1</text>
</a>
</g>
</g>
<!-- ZcashFoundation/frost#223&#45;&gt;ZcashFoundation/frost#235 -->
<g id="edge6" class="edge">
<title>ZcashFoundation/frost#223&#45;&gt;ZcashFoundation/frost#235</title>
<path fill="none" stroke="#000000" d="M243.16,-130.94C257.52,-133.38 272.3,-135.89 286.81,-138.35"/>
<polygon fill="#000000" stroke="#000000" points="286.3648,-141.8245 296.81,-140.05 287.5381,-134.9235 286.3648,-141.8245"/>
</g>
<!-- ZcashFoundation/frost#215 -->
<g id="node19" class="node open">
<title>ZcashFoundation/frost#215</title>
<g id="a_node19"><a xlink:href="https://github.com/ZcashFoundation/frost/pull/215" xlink:title="ZcashFoundation/frost#215&#10;Update p256 requirement&#10;from 0.11.1 to 0.12.0" target="_blank">
<polygon fill="#c2e0c6" stroke="#000000" stroke-width="2" points="243,-53 26,-53 26,-49 22,-49 22,-45 26,-45 26,-8 22,-8 22,-4 26,-4 26,0 243,0 243,-53"/>
<polyline fill="none" stroke="#000000" stroke-width="2" points="26,-49 30,-49 30,-45 26,-45 "/>
<polyline fill="none" stroke="#000000" stroke-width="2" points="26,-8 30,-8 30,-4 26,-4 "/>
<text text-anchor="middle" x="134.5" y="-37.8" font-family="Times,serif" font-size="14.00" fill="#000000">ZcashFoundation/frost#215</text>
<text text-anchor="middle" x="134.5" y="-22.8" font-family="Times,serif" font-size="14.00" fill="#000000">Update p256 requirement</text>
<text text-anchor="middle" x="134.5" y="-7.8" font-family="Times,serif" font-size="14.00" fill="#000000">from 0.11.1 to 0.12.0</text>
</a>
</g>
</g>
<!-- ZcashFoundation/frost#215&#45;&gt;ZcashFoundation/frost#235 -->
<g id="edge7" class="edge">
<title>ZcashFoundation/frost#215&#45;&gt;ZcashFoundation/frost#235</title>
<path fill="none" stroke="#000000" d="M243.26,-51.112C252.11,-54.223 260.8,-57.677 269,-61.5 300.74,-76.296 332.84,-98.646 357.92,-118.16"/>
<polygon fill="#000000" stroke="#000000" points="355.7927,-120.9398 365.81,-124.39 360.1307,-115.446 355.7927,-120.9398"/>
</g>
</g>
</svg>
