<?xml version="1.0" encoding="UTF-8" standalone="no"?>
<?xml-stylesheet href="zcash-dag.css" type="text/css"?>
<!DOCTYPE svg PUBLIC "-//W3C//DTD SVG 1.1//EN"
 "http://www.w3.org/Graphics/SVG/1.1/DTD/svg11.dtd">
<!-- Generated by graphviz version 2.40.1 (20161225.0304)
 -->
<!-- Pages: 1 -->
<svg width="813pt" height="349pt"
 viewBox="0.00 0.00 812.50 349.00" xmlns="http://www.w3.org/2000/svg" xmlns:xlink="http://www.w3.org/1999/xlink">
<g id="graph0" class="graph" transform="scale(1 1) rotate(0) translate(4 345)">
<polygon fill="#ffffff" stroke="transparent" points="-4,4 -4,-345 808.5,-345 808.5,4 -4,4"/>
<g id="clust1" class="cluster">
<title>cluster_3</title>
<polygon fill="none" stroke="#0000ff" points="0,0 0,-107 269,-107 269,0 0,0"/>
<text text-anchor="middle" x="134.5" y="-91.8" font-family="Times,serif" font-size="14.00" fill="#000000">Epic: Prep crates / APIs for release</text>
</g>
<!-- ZcashFoundation/frost#243 -->
<g id="node1" class="node open">
<title>ZcashFoundation/frost#243</title>
<g id="a_node1"><a xlink:href="https://github.com/ZcashFoundation/frost/issues/243" xlink:title="ZcashFoundation/frost#243&#10;Publish FROST&#10;documentation to&#10;frost.zfnd.org" target="_blank">
<polygon fill="#c2e0c6" stroke="#000000" stroke-width="2" points="243,-76 26,-76 26,-8 243,-8 243,-76"/>
<text text-anchor="middle" x="134.5" y="-60.8" font-family="Times,serif" font-size="14.00" fill="#000000">ZcashFoundation/frost#243</text>
<text text-anchor="middle" x="134.5" y="-45.8" font-family="Times,serif" font-size="14.00" fill="#000000">Publish FROST</text>
<text text-anchor="middle" x="134.5" y="-30.8" font-family="Times,serif" font-size="14.00" fill="#000000">documentation to</text>
<text text-anchor="middle" x="134.5" y="-15.8" font-family="Times,serif" font-size="14.00" fill="#000000">frost.zfnd.org</text>
</a>
</g>
</g>
<!-- ZcashFoundation/zebra#6025 -->
<g id="node2" class="node open">
<title>ZcashFoundation/zebra#6025</title>
<g id="a_node2"><a xlink:href="https://github.com/ZcashFoundation/zebra/issues/6025" xlink:title="ZcashFoundation/zebra#6025&#10;Add a manually&#45;triggered&#10;workflow for mining a&#10;block on testnet" target="_blank">
<polygon fill="#c2e0c6" stroke="#000000" points="804.5,-176 572.5,-176 572.5,-108 804.5,-108 804.5,-176"/>
<text text-anchor="middle" x="688.5" y="-160.8" font-family="Times,serif" font-size="14.00" fill="#000000">ZcashFoundation/zebra#6025</text>
<text text-anchor="middle" x="688.5" y="-145.8" font-family="Times,serif" font-size="14.00" fill="#000000">Add a manually&#45;triggered</text>
<text text-anchor="middle" x="688.5" y="-130.8" font-family="Times,serif" font-size="14.00" fill="#000000">workflow for mining a</text>
<text text-anchor="middle" x="688.5" y="-115.8" font-family="Times,serif" font-size="14.00" fill="#000000">block on testnet</text>
</a>
</g>
</g>
<!-- ZcashFoundation/zebra#6118 -->
<g id="node3" class="node open">
<title>ZcashFoundation/zebra#6118</title>
<g id="a_node3"><a xlink:href="https://github.com/ZcashFoundation/zebra/issues/6118" xlink:title="ZcashFoundation/zebra#6118&#10;Create a Docker image for&#10;mining with Zebra on&#10;Testnet" target="_blank">
<polygon fill="#c2e0c6" stroke="#000000" points="536.5,-176 304.5,-176 304.5,-108 536.5,-108 536.5,-176"/>
<text text-anchor="middle" x="420.5" y="-160.8" font-family="Times,serif" font-size="14.00" fill="#000000">ZcashFoundation/zebra#6118</text>
<text text-anchor="middle" x="420.5" y="-145.8" font-family="Times,serif" font-size="14.00" fill="#000000">Create a Docker image for</text>
<text text-anchor="middle" x="420.5" y="-130.8" font-family="Times,serif" font-size="14.00" fill="#000000">mining with Zebra on</text>
<text text-anchor="middle" x="420.5" y="-115.8" font-family="Times,serif" font-size="14.00" fill="#000000">Testnet</text>
</a>
</g>
</g>
<!-- ZcashFoundation/zebra#6118&#45;&gt;ZcashFoundation/zebra#6025 -->
<g id="edge1" class="edge">
<title>ZcashFoundation/zebra#6118&#45;&gt;ZcashFoundation/zebra#6025</title>
<path fill="none" stroke="#000000" d="M536.88,-142C545.21,-142 553.64,-142 562.03,-142"/>
<polygon fill="#000000" stroke="#000000" points="562.24,-145.5001 572.24,-142 562.24,-138.5001 562.24,-145.5001"/>
</g>
<!-- ZcashFoundation/zebra#4554 -->
<g id="node4" class="node open">
<title>ZcashFoundation/zebra#4554</title>
<g id="a_node4"><a xlink:href="https://github.com/ZcashFoundation/zebra/issues/4554" xlink:title="ZcashFoundation/zebra#4554&#10;benchmarks: surface&#10;zebrad mainnet sync time&#10;in CI" target="_blank">
<polygon fill="#c2e0c6" stroke="#000000" stroke-width="2" points="250.5,-255 18.5,-255 18.5,-187 250.5,-187 250.5,-255"/>
<text text-anchor="middle" x="134.5" y="-239.8" font-family="Times,serif" font-size="14.00" fill="#000000">ZcashFoundation/zebra#4554</text>
<text text-anchor="middle" x="134.5" y="-224.8" font-family="Times,serif" font-size="14.00" fill="#000000">benchmarks: surface</text>
<text text-anchor="middle" x="134.5" y="-209.8" font-family="Times,serif" font-size="14.00" fill="#000000">zebrad mainnet sync time</text>
<text text-anchor="middle" x="134.5" y="-194.8" font-family="Times,serif" font-size="14.00" fill="#000000">in CI</text>
</a>
</g>
</g>
<!-- ZcashFoundation/zebra#6200 -->
<g id="node5" class="node open">
<title>ZcashFoundation/zebra#6200</title>
<g id="a_node5"><a xlink:href="https://github.com/ZcashFoundation/zebra/issues/6200" xlink:title="ZcashFoundation/zebra#6200&#10;Publish Docker image with&#10;mining enabled" target="_blank">
<polygon fill="#c2e0c6" stroke="#000000" stroke-width="2" points="250.5,-168.5 18.5,-168.5 18.5,-115.5 250.5,-115.5 250.5,-168.5"/>
<text text-anchor="middle" x="134.5" y="-153.3" font-family="Times,serif" font-size="14.00" fill="#000000">ZcashFoundation/zebra#6200</text>
<text text-anchor="middle" x="134.5" y="-138.3" font-family="Times,serif" font-size="14.00" fill="#000000">Publish Docker image with</text>
<text text-anchor="middle" x="134.5" y="-123.3" font-family="Times,serif" font-size="14.00" fill="#000000">mining enabled</text>
</a>
</g>
</g>
<!-- ZcashFoundation/zebra#6200&#45;&gt;ZcashFoundation/zebra#6118 -->
<g id="edge2" class="edge">
<title>ZcashFoundation/zebra#6200&#45;&gt;ZcashFoundation/zebra#6118</title>
<path fill="none" stroke="#000000" d="M250.83,-142C265.01,-142 279.56,-142 293.89,-142"/>
<polygon fill="#000000" stroke="#000000" points="294.28,-145.5001 304.28,-142 294.28,-138.5001 294.28,-145.5001"/>
</g>
<!-- ZcashFoundation/zebra#6217 -->
<g id="node6" class="node open">
<title>ZcashFoundation/zebra#6217</title>
<g id="a_node6"><a xlink:href="https://github.com/ZcashFoundation/zebra/pull/6217" xlink:title="ZcashFoundation/zebra#6217&#10;change(deps): Update&#10;dependencies that only&#10;appear in the lock file" target="_blank">
<polygon fill="#a7c2aa" stroke="#000000" points="536.5,-341 304.5,-341 304.5,-337 300.5,-337 300.5,-333 304.5,-333 304.5,-281 300.5,-281 300.5,-277 304.5,-277 304.5,-273 536.5,-273 536.5,-341"/>
<polyline fill="none" stroke="#000000" points="304.5,-337 308.5,-337 308.5,-333 304.5,-333 "/>
<polyline fill="none" stroke="#000000" points="304.5,-281 308.5,-281 308.5,-277 304.5,-277 "/>
<text text-anchor="middle" x="420.5" y="-325.8" font-family="Times,serif" font-size="14.00" fill="#000000">ZcashFoundation/zebra#6217</text>
<text text-anchor="middle" x="420.5" y="-310.8" font-family="Times,serif" font-size="14.00" fill="#000000">change(deps): Update</text>
<text text-anchor="middle" x="420.5" y="-295.8" font-family="Times,serif" font-size="14.00" fill="#000000">dependencies that only</text>
<text text-anchor="middle" x="420.5" y="-280.8" font-family="Times,serif" font-size="14.00" fill="#000000">appear in the lock file</text>
</a>
</g>
</g>
<!-- ZcashFoundation/zebra#6216 -->
<g id="node7" class="node open">
<title>ZcashFoundation/zebra#6216</title>
<g id="a_node7"><a xlink:href="https://github.com/ZcashFoundation/zebra/pull/6216" xlink:title="ZcashFoundation/zebra#6216&#10;fix(deps): Remove unused&#10;dependencies, and check&#10;for them in CI" target="_blank">
<polygon fill="#c2e0c6" stroke="#000000" stroke-width="2" points="250.5,-341 18.5,-341 18.5,-337 14.5,-337 14.5,-333 18.5,-333 18.5,-281 14.5,-281 14.5,-277 18.5,-277 18.5,-273 250.5,-273 250.5,-341"/>
<polyline fill="none" stroke="#000000" stroke-width="2" points="18.5,-337 22.5,-337 22.5,-333 18.5,-333 "/>
<polyline fill="none" stroke="#000000" stroke-width="2" points="18.5,-281 22.5,-281 22.5,-277 18.5,-277 "/>
<text text-anchor="middle" x="134.5" y="-325.8" font-family="Times,serif" font-size="14.00" fill="#000000">ZcashFoundation/zebra#6216</text>
<text text-anchor="middle" x="134.5" y="-310.8" font-family="Times,serif" font-size="14.00" fill="#000000">fix(deps): Remove unused</text>
<text text-anchor="middle" x="134.5" y="-295.8" font-family="Times,serif" font-size="14.00" fill="#000000">dependencies, and check</text>
<text text-anchor="middle" x="134.5" y="-280.8" font-family="Times,serif" font-size="14.00" fill="#000000">for them in CI</text>
</a>
</g>
</g>
<!-- ZcashFoundation/zebra#6216&#45;&gt;ZcashFoundation/zebra#6217 -->
<g id="edge3" class="edge">
<title>ZcashFoundation/zebra#6216&#45;&gt;ZcashFoundation/zebra#6217</title>
<path fill="none" stroke="#000000" d="M250.83,-307C265.01,-307 279.56,-307 293.89,-307"/>
<polygon fill="#000000" stroke="#000000" points="294.28,-310.5001 304.28,-307 294.28,-303.5001 294.28,-310.5001"/>
</g>
</g>
</svg>
