<?xml version="1.0" encoding="UTF-8" standalone="no"?>
<?xml-stylesheet href="zcash-dag.css" type="text/css"?>
<!DOCTYPE svg PUBLIC "-//W3C//DTD SVG 1.1//EN"
 "http://www.w3.org/Graphics/SVG/1.1/DTD/svg11.dtd">
<!-- Generated by graphviz version 2.40.1 (20161225.0304)
 -->
<!-- Pages: 1 -->
<svg width="513pt" height="661pt"
 viewBox="0.00 0.00 513.00 661.00" xmlns="http://www.w3.org/2000/svg" xmlns:xlink="http://www.w3.org/1999/xlink">
<g id="graph0" class="graph" transform="scale(1 1) rotate(0) translate(4 657)">
<polygon fill="#ffffff" stroke="transparent" points="-4,4 -4,-657 509,-657 509,4 -4,4"/>
<g id="clust1" class="cluster">
<title>cluster_1</title>
<polygon fill="none" stroke="#0000ff" points="18,-85 18,-334 252,-334 252,-85 18,-85"/>
<text text-anchor="middle" x="135" y="-318.8" font-family="Times,serif" font-size="14.00" fill="#000000">Epic: Re&#45;randomizable FROST</text>
</g>
<g id="clust2" class="cluster">
<title>cluster_0</title>
<polygon fill="none" stroke="#0000ff" points="22.5,0 22.5,-77 246.5,-77 246.5,0 22.5,0"/>
<text text-anchor="middle" x="134.5" y="-61.8" font-family="Times,serif" font-size="14.00" fill="#000000">Epic: Remaining Curves</text>
</g>
<g id="clust3" class="cluster">
<title>cluster_2</title>
<polygon fill="none" stroke="#0000ff" points="0,-342 0,-491 269,-491 269,-342 0,-342"/>
<text text-anchor="middle" x="134.5" y="-475.8" font-family="Times,serif" font-size="14.00" fill="#000000">Epic: Prep crates / APIs for release</text>
</g>
<!-- ZcashFoundation/frost#119 -->
<g id="node1" class="node open">
<title>ZcashFoundation/frost#119</title>
<g id="a_node1"><a xlink:href="https://github.com/ZcashFoundation/frost/issues/119" xlink:title="ZcashFoundation/frost#119&#10;Review and officially&#10;submit the Re&#45;&#10;randomizable FROST ZIP" target="_blank">
<polygon fill="#c2e0c6" stroke="#000000" stroke-width="2" points="243,-303 26,-303 26,-235 243,-235 243,-303"/>
<text text-anchor="middle" x="134.5" y="-287.8" font-family="Times,serif" font-size="14.00" fill="#000000">ZcashFoundation/frost#119</text>
<text text-anchor="middle" x="134.5" y="-272.8" font-family="Times,serif" font-size="14.00" fill="#000000">Review and officially</text>
<text text-anchor="middle" x="134.5" y="-257.8" font-family="Times,serif" font-size="14.00" fill="#000000">submit the Re&#45;</text>
<text text-anchor="middle" x="134.5" y="-242.8" font-family="Times,serif" font-size="14.00" fill="#000000">randomizable FROST ZIP</text>
</a>
</g>
</g>
<!-- ZcashFoundation/frost#121 -->
<g id="node2" class="node open">
<title>ZcashFoundation/frost#121</title>
<g id="a_node2"><a xlink:href="https://github.com/ZcashFoundation/frost/issues/121" xlink:title="ZcashFoundation/frost#121&#10;Organize the Re&#45;&#10;randomizable FROST&#10;implementation" target="_blank">
<polygon fill="#c2e0c6" stroke="#000000" stroke-width="2" points="243,-217 26,-217 26,-149 243,-149 243,-217"/>
<text text-anchor="middle" x="134.5" y="-201.8" font-family="Times,serif" font-size="14.00" fill="#000000">ZcashFoundation/frost#121</text>
<text text-anchor="middle" x="134.5" y="-186.8" font-family="Times,serif" font-size="14.00" fill="#000000">Organize the Re&#45;</text>
<text text-anchor="middle" x="134.5" y="-171.8" font-family="Times,serif" font-size="14.00" fill="#000000">randomizable FROST</text>
<text text-anchor="middle" x="134.5" y="-156.8" font-family="Times,serif" font-size="14.00" fill="#000000">implementation</text>
</a>
</g>
</g>
<!-- ZcashFoundation/frost#83 -->
<g id="node7" class="node closed">
<title>ZcashFoundation/frost#83</title>
<g id="a_node7"><a xlink:href="https://github.com/ZcashFoundation/frost/pull/83" xlink:title="ZcashFoundation/frost#83&#10;Expose internals to&#10;support randomization" target="_blank">
<polygon fill="#fad8c7" stroke="#000000" points="505,-209.5 297,-209.5 297,-205.5 293,-205.5 293,-201.5 297,-201.5 297,-164.5 293,-164.5 293,-160.5 297,-160.5 297,-156.5 505,-156.5 505,-209.5"/>
<polyline fill="none" stroke="#000000" points="297,-205.5 301,-205.5 301,-201.5 297,-201.5 "/>
<polyline fill="none" stroke="#000000" points="297,-164.5 301,-164.5 301,-160.5 297,-160.5 "/>
<text text-anchor="middle" x="401" y="-194.3" font-family="Times,serif" font-size="14.00" fill="#000000">ZcashFoundation/frost#83</text>
<text text-anchor="middle" x="401" y="-179.3" font-family="Times,serif" font-size="14.00" fill="#000000">Expose internals to</text>
<text text-anchor="middle" x="401" y="-164.3" font-family="Times,serif" font-size="14.00" fill="#000000">support randomization</text>
</a>
</g>
</g>
<!-- ZcashFoundation/frost#121&#45;&gt;ZcashFoundation/frost#83 -->
<g id="edge1" class="edge">
<title>ZcashFoundation/frost#121&#45;&gt;ZcashFoundation/frost#83</title>
<path fill="none" stroke="#000000" d="M243.28,-183C257.53,-183 272.16,-183 286.49,-183"/>
<polygon fill="#000000" stroke="#000000" points="286.87,-186.5001 296.87,-183 286.87,-179.5001 286.87,-186.5001"/>
</g>
<!-- ZcashFoundation/frost#81 -->
<g id="node3" class="node open">
<title>ZcashFoundation/frost#81</title>
<g id="a_node3"><a xlink:href="https://github.com/ZcashFoundation/frost/issues/81" xlink:title="ZcashFoundation/frost#81&#10;Start rerandomized repo" target="_blank">
<polygon fill="#c2e0c6" stroke="#000000" stroke-width="2" points="238.5,-131 30.5,-131 30.5,-93 238.5,-93 238.5,-131"/>
<text text-anchor="middle" x="134.5" y="-115.8" font-family="Times,serif" font-size="14.00" fill="#000000">ZcashFoundation/frost#81</text>
<text text-anchor="middle" x="134.5" y="-100.8" font-family="Times,serif" font-size="14.00" fill="#000000">Start rerandomized repo</text>
</a>
</g>
</g>
<!-- ZcashFoundation/frost#71 -->
<g id="node4" class="node open">
<title>ZcashFoundation/frost#71</title>
<g id="a_node4"><a xlink:href="https://github.com/ZcashFoundation/frost/issues/71" xlink:title="ZcashFoundation/frost#71&#10;Add Ed448 support" target="_blank">
<polygon fill="#c2e0c6" stroke="#000000" stroke-width="2" points="238.5,-46 30.5,-46 30.5,-8 238.5,-8 238.5,-46"/>
<text text-anchor="middle" x="134.5" y="-30.8" font-family="Times,serif" font-size="14.00" fill="#000000">ZcashFoundation/frost#71</text>
<text text-anchor="middle" x="134.5" y="-15.8" font-family="Times,serif" font-size="14.00" fill="#000000">Add Ed448 support</text>
</a>
</g>
</g>
<!-- ZcashFoundation/frost#79 -->
<g id="node5" class="node open">
<title>ZcashFoundation/frost#79</title>
<g id="a_node5"><a xlink:href="https://github.com/ZcashFoundation/frost/issues/79" xlink:title="ZcashFoundation/frost#79&#10;Publish `frost&#45;` crates" target="_blank">
<polygon fill="#c2e0c6" stroke="#000000" stroke-width="2" points="238.5,-460 30.5,-460 30.5,-422 238.5,-422 238.5,-460"/>
<text text-anchor="middle" x="134.5" y="-444.8" font-family="Times,serif" font-size="14.00" fill="#000000">ZcashFoundation/frost#79</text>
<text text-anchor="middle" x="134.5" y="-429.8" font-family="Times,serif" font-size="14.00" fill="#000000">Publish `frost&#45;` crates</text>
</a>
</g>
</g>
<!-- ZcashFoundation/frost#166 -->
<g id="node6" class="node open">
<title>ZcashFoundation/frost#166</title>
<g id="a_node6"><a xlink:href="https://github.com/ZcashFoundation/frost/issues/166" xlink:title="ZcashFoundation/frost#166&#10;Squat crate names on&#10;crates.io" target="_blank">
<polygon fill="#c2e0c6" stroke="#000000" stroke-width="2" points="243,-403.5 26,-403.5 26,-350.5 243,-350.5 243,-403.5"/>
<text text-anchor="middle" x="134.5" y="-388.3" font-family="Times,serif" font-size="14.00" fill="#000000">ZcashFoundation/frost#166</text>
<text text-anchor="middle" x="134.5" y="-373.3" font-family="Times,serif" font-size="14.00" fill="#000000">Squat crate names on</text>
<text text-anchor="middle" x="134.5" y="-358.3" font-family="Times,serif" font-size="14.00" fill="#000000">crates.io</text>
</a>
</g>
</g>
<!-- ZcashFoundation/frost#39 -->
<g id="node8" class="node open">
<title>ZcashFoundation/frost#39</title>
<g id="a_node8"><a xlink:href="https://github.com/ZcashFoundation/frost/issues/39" xlink:title="ZcashFoundation/frost#39&#10;Migrate/port `redjubjub`&#10;to frost&#45;core / FROST&#10;spec v05+" target="_blank">
<polygon fill="#c2e0c6" stroke="#000000" stroke-width="2" points="238.5,-567 30.5,-567 30.5,-499 238.5,-499 238.5,-567"/>
<text text-anchor="middle" x="134.5" y="-551.8" font-family="Times,serif" font-size="14.00" fill="#000000">ZcashFoundation/frost#39</text>
<text text-anchor="middle" x="134.5" y="-536.8" font-family="Times,serif" font-size="14.00" fill="#000000">Migrate/port `redjubjub`</text>
<text text-anchor="middle" x="134.5" y="-521.8" font-family="Times,serif" font-size="14.00" fill="#000000">to frost&#45;core / FROST</text>
<text text-anchor="middle" x="134.5" y="-506.8" font-family="Times,serif" font-size="14.00" fill="#000000">spec v05+</text>
</a>
</g>
</g>
<!-- ZcashFoundation/frost#40 -->
<g id="node9" class="node open">
<title>ZcashFoundation/frost#40</title>
<g id="a_node9"><a xlink:href="https://github.com/ZcashFoundation/frost/issues/40" xlink:title="ZcashFoundation/frost#40&#10;Migrate/port `redpallas`&#10;to frost&#45;core / FROST&#10;spec v05+" target="_blank">
<polygon fill="#c2e0c6" stroke="#000000" stroke-width="2" points="238.5,-653 30.5,-653 30.5,-585 238.5,-585 238.5,-653"/>
<text text-anchor="middle" x="134.5" y="-637.8" font-family="Times,serif" font-size="14.00" fill="#000000">ZcashFoundation/frost#40</text>
<text text-anchor="middle" x="134.5" y="-622.8" font-family="Times,serif" font-size="14.00" fill="#000000">Migrate/port `redpallas`</text>
<text text-anchor="middle" x="134.5" y="-607.8" font-family="Times,serif" font-size="14.00" fill="#000000">to frost&#45;core / FROST</text>
<text text-anchor="middle" x="134.5" y="-592.8" font-family="Times,serif" font-size="14.00" fill="#000000">spec v05+</text>
</a>
</g>
</g>
</g>
</svg>
