<?xml version="1.0" encoding="UTF-8" standalone="no"?>
<?xml-stylesheet href="zcash-dag.css" type="text/css"?>
<!DOCTYPE svg PUBLIC "-//W3C//DTD SVG 1.1//EN"
 "http://www.w3.org/Graphics/SVG/1.1/DTD/svg11.dtd">
<!-- Generated by graphviz version 2.43.0 (0)
 -->
<!-- Pages: 1 -->
<svg width="1040pt" height="645pt"
 viewBox="0.00 0.00 1040.00 644.50" xmlns="http://www.w3.org/2000/svg" xmlns:xlink="http://www.w3.org/1999/xlink">
<g id="graph0" class="graph" transform="scale(1 1) rotate(0) translate(4 640.5)">
<polygon fill="white" stroke="transparent" points="-4,4 -4,-640.5 1036,-640.5 1036,4 -4,4"/>
<!-- ZcashFoundation/zebra#5297 -->
<g id="node1" class="node open">
<title>ZcashFoundation/zebra#5297</title>
<g id="a_node1"><a xlink:href="https://github.com/ZcashFoundation/zebra/issues/5297" xlink:title="ZcashFoundation/zebra#5297&#10;Add metrics for chain&#10;fork work and lengths" target="_blank">
<polygon fill="#a7c2aa" stroke="black" points="765,-240.5 534,-240.5 534,-187.5 765,-187.5 765,-240.5"/>
<text text-anchor="middle" x="649.5" y="-225.3" font-family="Times,serif" font-size="14.00">ZcashFoundation/zebra#5297</text>
<text text-anchor="middle" x="649.5" y="-210.3" font-family="Times,serif" font-size="14.00">Add metrics for chain</text>
<text text-anchor="middle" x="649.5" y="-195.3" font-family="Times,serif" font-size="14.00">fork work and lengths</text>
</a>
</g>
</g>
<!-- ZcashFoundation/zebra#7109 -->
<g id="node2" class="node open">
<title>ZcashFoundation/zebra#7109</title>
<g id="a_node2"><a xlink:href="https://github.com/ZcashFoundation/zebra/issues/7109" xlink:title="ZcashFoundation/zebra#7109&#10;Store cumulative work in&#10;the finalized state for&#10;each height" target="_blank">
<polygon fill="#a7c2aa" stroke="black" points="498,-162 267,-162 267,-94 498,-94 498,-162"/>
<text text-anchor="middle" x="382.5" y="-146.8" font-family="Times,serif" font-size="14.00">ZcashFoundation/zebra#7109</text>
<text text-anchor="middle" x="382.5" y="-131.8" font-family="Times,serif" font-size="14.00">Store cumulative work in</text>
<text text-anchor="middle" x="382.5" y="-116.8" font-family="Times,serif" font-size="14.00">the finalized state for</text>
<text text-anchor="middle" x="382.5" y="-101.8" font-family="Times,serif" font-size="14.00">each height</text>
</a>
</g>
</g>
<!-- ZcashFoundation/zebra#7109&#45;&gt;ZcashFoundation/zebra#5297 -->
<g id="edge1" class="edge">
<title>ZcashFoundation/zebra#7109&#45;&gt;ZcashFoundation/zebra#5297</title>
<path fill="none" stroke="black" d="M485.43,-162.11C501.66,-167.47 518.28,-172.92 534,-178 540.39,-180.07 546.99,-182.18 553.65,-184.31"/>
<polygon fill="black" stroke="black" points="552.83,-187.72 563.42,-187.42 554.95,-181.05 552.83,-187.72"/>
</g>
<!-- ZcashFoundation/zebra#6688 -->
<g id="node3" class="node open">
<title>ZcashFoundation/zebra#6688</title>
<g id="a_node3"><a xlink:href="https://github.com/ZcashFoundation/zebra/issues/6688" xlink:title="ZcashFoundation/zebra#6688&#10;`getnetworksolps` &amp;&#10;`getnetworkhashps` RPCs&#10;hang with large&#10;num_blocks" target="_blank">
<polygon fill="#a7c2aa" stroke="black" points="765,-169.5 534,-169.5 534,-86.5 765,-86.5 765,-169.5"/>
<text text-anchor="middle" x="649.5" y="-154.3" font-family="Times,serif" font-size="14.00">ZcashFoundation/zebra#6688</text>
<text text-anchor="middle" x="649.5" y="-139.3" font-family="Times,serif" font-size="14.00">`getnetworksolps` &amp;</text>
<text text-anchor="middle" x="649.5" y="-124.3" font-family="Times,serif" font-size="14.00">`getnetworkhashps` RPCs</text>
<text text-anchor="middle" x="649.5" y="-109.3" font-family="Times,serif" font-size="14.00">hang with large</text>
<text text-anchor="middle" x="649.5" y="-94.3" font-family="Times,serif" font-size="14.00">num_blocks</text>
</a>
</g>
</g>
<!-- ZcashFoundation/zebra#7109&#45;&gt;ZcashFoundation/zebra#6688 -->
<g id="edge2" class="edge">
<title>ZcashFoundation/zebra#7109&#45;&gt;ZcashFoundation/zebra#6688</title>
<path fill="none" stroke="black" d="M498.19,-128C506.55,-128 514.99,-128 523.4,-128"/>
<polygon fill="black" stroke="black" points="523.63,-131.5 533.63,-128 523.63,-124.5 523.63,-131.5"/>
</g>
<!-- ZcashFoundation/zebra#7110 -->
<g id="node4" class="node open">
<title>ZcashFoundation/zebra#7110</title>
<g id="a_node4"><a xlink:href="https://github.com/ZcashFoundation/zebra/issues/7110" xlink:title="ZcashFoundation/zebra#7110&#10;Show the full chain work&#10;in the chain fork&#10;progress bars" target="_blank">
<polygon fill="#a7c2aa" stroke="black" points="765,-68 534,-68 534,0 765,0 765,-68"/>
<text text-anchor="middle" x="649.5" y="-52.8" font-family="Times,serif" font-size="14.00">ZcashFoundation/zebra#7110</text>
<text text-anchor="middle" x="649.5" y="-37.8" font-family="Times,serif" font-size="14.00">Show the full chain work</text>
<text text-anchor="middle" x="649.5" y="-22.8" font-family="Times,serif" font-size="14.00">in the chain fork</text>
<text text-anchor="middle" x="649.5" y="-7.8" font-family="Times,serif" font-size="14.00">progress bars</text>
</a>
</g>
</g>
<!-- ZcashFoundation/zebra#7109&#45;&gt;ZcashFoundation/zebra#7110 -->
<g id="edge3" class="edge">
<title>ZcashFoundation/zebra#7109&#45;&gt;ZcashFoundation/zebra#7110</title>
<path fill="none" stroke="black" d="M479.55,-93.93C500.1,-86.64 521.92,-78.9 542.81,-71.49"/>
<polygon fill="black" stroke="black" points="544.08,-74.75 552.34,-68.11 541.75,-68.15 544.08,-74.75"/>
</g>
<!-- ZcashFoundation/zebra#7175 -->
<g id="node5" class="node open">
<title>ZcashFoundation/zebra#7175</title>
<g id="a_node5"><a xlink:href="https://github.com/ZcashFoundation/zebra/pull/7175" xlink:title="ZcashFoundation/zebra#7175&#10;fix(Docker): Pass build&#10;args to `runtime` images" target="_blank">
<polygon fill="#c2e0c6" stroke="black" stroke-width="2" points="231,-248.5 0,-248.5 0,-244.5 -4,-244.5 -4,-240.5 0,-240.5 0,-203.5 -4,-203.5 -4,-199.5 0,-199.5 0,-195.5 231,-195.5 231,-248.5"/>
<polyline fill="none" stroke="black" stroke-width="2" points="0,-244.5 4,-244.5 4,-240.5 0,-240.5 "/>
<polyline fill="none" stroke="black" stroke-width="2" points="0,-203.5 4,-203.5 4,-199.5 0,-199.5 "/>
<text text-anchor="middle" x="115.5" y="-233.3" font-family="Times,serif" font-size="14.00">ZcashFoundation/zebra#7175</text>
<text text-anchor="middle" x="115.5" y="-218.3" font-family="Times,serif" font-size="14.00">fix(Docker): Pass build</text>
<text text-anchor="middle" x="115.5" y="-203.3" font-family="Times,serif" font-size="14.00">args to `runtime` images</text>
</a>
</g>
</g>
<!-- ZcashFoundation/zebra#7179 -->
<g id="node6" class="node open">
<title>ZcashFoundation/zebra#7179</title>
<g id="a_node6"><a xlink:href="https://github.com/ZcashFoundation/zebra/pull/7179" xlink:title="ZcashFoundation/zebra#7179&#10;add(Docker): &#160;Docs for&#10;mining with Docker" target="_blank">
<polygon fill="#c2e0c6" stroke="black" points="498,-248.5 267,-248.5 267,-244.5 263,-244.5 263,-240.5 267,-240.5 267,-203.5 263,-203.5 263,-199.5 267,-199.5 267,-195.5 498,-195.5 498,-248.5"/>
<polyline fill="none" stroke="black" points="267,-244.5 271,-244.5 271,-240.5 267,-240.5 "/>
<polyline fill="none" stroke="black" points="267,-203.5 271,-203.5 271,-199.5 267,-199.5 "/>
<text text-anchor="middle" x="382.5" y="-233.3" font-family="Times,serif" font-size="14.00">ZcashFoundation/zebra#7179</text>
<text text-anchor="middle" x="382.5" y="-218.3" font-family="Times,serif" font-size="14.00">add(Docker): &#160;Docs for</text>
<text text-anchor="middle" x="382.5" y="-203.3" font-family="Times,serif" font-size="14.00">mining with Docker</text>
</a>
</g>
</g>
<!-- ZcashFoundation/zebra#7175&#45;&gt;ZcashFoundation/zebra#7179 -->
<g id="edge4" class="edge">
<title>ZcashFoundation/zebra#7175&#45;&gt;ZcashFoundation/zebra#7179</title>
<path fill="none" stroke="black" d="M231.19,-222C239.55,-222 247.99,-222 256.4,-222"/>
<polygon fill="black" stroke="black" points="256.63,-225.5 266.63,-222 256.63,-218.5 256.63,-225.5"/>
</g>
<!-- ZcashFoundation/zebra#7031 -->
<g id="node7" class="node open">
<title>ZcashFoundation/zebra#7031</title>
<g id="a_node7"><a xlink:href="https://github.com/ZcashFoundation/zebra/pull/7031" xlink:title="ZcashFoundation/zebra#7031&#10;change(state): Prepare&#10;for in&#45;place database&#10;format upgrades, but&#10;don&#39;t make any format&#10;changes yet" target="_blank">
<polygon fill="#c2e0c6" stroke="black" stroke-width="2" points="231,-177 0,-177 0,-173 -4,-173 -4,-169 0,-169 0,-87 -4,-87 -4,-83 0,-83 0,-79 231,-79 231,-177"/>
<polyline fill="none" stroke="black" stroke-width="2" points="0,-173 4,-173 4,-169 0,-169 "/>
<polyline fill="none" stroke="black" stroke-width="2" points="0,-87 4,-87 4,-83 0,-83 "/>
<text text-anchor="middle" x="115.5" y="-161.8" font-family="Times,serif" font-size="14.00">ZcashFoundation/zebra#7031</text>
<text text-anchor="middle" x="115.5" y="-146.8" font-family="Times,serif" font-size="14.00">change(state): Prepare</text>
<text text-anchor="middle" x="115.5" y="-131.8" font-family="Times,serif" font-size="14.00">for in&#45;place database</text>
<text text-anchor="middle" x="115.5" y="-116.8" font-family="Times,serif" font-size="14.00">format upgrades, but</text>
<text text-anchor="middle" x="115.5" y="-101.8" font-family="Times,serif" font-size="14.00">don&#39;t make any format</text>
<text text-anchor="middle" x="115.5" y="-86.8" font-family="Times,serif" font-size="14.00">changes yet</text>
</a>
</g>
</g>
<!-- ZcashFoundation/zebra#7031&#45;&gt;ZcashFoundation/zebra#7109 -->
<g id="edge5" class="edge">
<title>ZcashFoundation/zebra#7031&#45;&gt;ZcashFoundation/zebra#7109</title>
<path fill="none" stroke="black" d="M231.19,-128C239.55,-128 247.99,-128 256.4,-128"/>
<polygon fill="black" stroke="black" points="256.63,-131.5 266.63,-128 256.63,-124.5 256.63,-131.5"/>
</g>
<!-- ZcashFoundation/zebra#6025 -->
<g id="node8" class="node open">
<title>ZcashFoundation/zebra#6025</title>
<g id="a_node8"><a xlink:href="https://github.com/ZcashFoundation/zebra/issues/6025" xlink:title="ZcashFoundation/zebra#6025&#10;Add a manually&#45;triggered&#10;workflow for mining a&#10;block on testnet" target="_blank">
<polygon fill="#c2e0c6" stroke="black" points="498,-342 267,-342 267,-274 498,-274 498,-342"/>
<text text-anchor="middle" x="382.5" y="-326.8" font-family="Times,serif" font-size="14.00">ZcashFoundation/zebra#6025</text>
<text text-anchor="middle" x="382.5" y="-311.8" font-family="Times,serif" font-size="14.00">Add a manually&#45;triggered</text>
<text text-anchor="middle" x="382.5" y="-296.8" font-family="Times,serif" font-size="14.00">workflow for mining a</text>
<text text-anchor="middle" x="382.5" y="-281.8" font-family="Times,serif" font-size="14.00">block on testnet</text>
</a>
</g>
</g>
<!-- ZcashFoundation/zebra#6955 -->
<g id="node9" class="node open">
<title>ZcashFoundation/zebra#6955</title>
<g id="a_node9"><a xlink:href="https://github.com/ZcashFoundation/zebra/issues/6955" xlink:title="ZcashFoundation/zebra#6955&#10;Create an empty database&#10;format update task and&#10;format update tests" target="_blank">
<polygon fill="#c2e0c6" stroke="black" stroke-width="2" points="231,-436 0,-436 0,-368 231,-368 231,-436"/>
<text text-anchor="middle" x="115.5" y="-420.8" font-family="Times,serif" font-size="14.00">ZcashFoundation/zebra#6955</text>
<text text-anchor="middle" x="115.5" y="-405.8" font-family="Times,serif" font-size="14.00">Create an empty database</text>
<text text-anchor="middle" x="115.5" y="-390.8" font-family="Times,serif" font-size="14.00">format update task and</text>
<text text-anchor="middle" x="115.5" y="-375.8" font-family="Times,serif" font-size="14.00">format update tests</text>
</a>
</g>
</g>
<!-- ZcashFoundation/zebra#6859 -->
<g id="node10" class="node open">
<title>ZcashFoundation/zebra#6859</title>
<g id="a_node10"><a xlink:href="https://github.com/ZcashFoundation/zebra/issues/6859" xlink:title="ZcashFoundation/zebra#6859&#10;Tracking: Upgrade shared&#10;ECC dependencies and&#10;zcash_script for zcashd&#10;5.6.0" target="_blank">
<polygon fill="#a7c2aa" stroke="black" points="498,-532.5 267,-532.5 267,-449.5 498,-449.5 498,-532.5"/>
<text text-anchor="middle" x="382.5" y="-517.3" font-family="Times,serif" font-size="14.00">ZcashFoundation/zebra#6859</text>
<text text-anchor="middle" x="382.5" y="-502.3" font-family="Times,serif" font-size="14.00">Tracking: Upgrade shared</text>
<text text-anchor="middle" x="382.5" y="-487.3" font-family="Times,serif" font-size="14.00">ECC dependencies and</text>
<text text-anchor="middle" x="382.5" y="-472.3" font-family="Times,serif" font-size="14.00">zcash_script for zcashd</text>
<text text-anchor="middle" x="382.5" y="-457.3" font-family="Times,serif" font-size="14.00">5.6.0</text>
</a>
</g>
</g>
<!-- ZcashFoundation/zebra#6955&#45;&gt;ZcashFoundation/zebra#6859 -->
<g id="edge6" class="edge">
<title>ZcashFoundation/zebra#6955&#45;&gt;ZcashFoundation/zebra#6859</title>
<path fill="none" stroke="black" d="M217.82,-436.03C230.75,-440.37 244.11,-444.86 257.35,-449.3"/>
<polygon fill="black" stroke="black" points="256.37,-452.66 266.96,-452.53 258.6,-446.03 256.37,-452.66"/>
</g>
<!-- ZcashFoundation/zebra#4784 -->
<g id="node11" class="node open">
<title>ZcashFoundation/zebra#4784</title>
<g id="a_node11"><a xlink:href="https://github.com/ZcashFoundation/zebra/issues/4784" xlink:title="ZcashFoundation/zebra#4784&#10;Store only the first tree&#10;state in each identical&#10;series of tree states" target="_blank">
<polygon fill="#a7c2aa" stroke="black" points="498,-431 267,-431 267,-363 498,-363 498,-431"/>
<text text-anchor="middle" x="382.5" y="-415.8" font-family="Times,serif" font-size="14.00">ZcashFoundation/zebra#4784</text>
<text text-anchor="middle" x="382.5" y="-400.8" font-family="Times,serif" font-size="14.00">Store only the first tree</text>
<text text-anchor="middle" x="382.5" y="-385.8" font-family="Times,serif" font-size="14.00">state in each identical</text>
<text text-anchor="middle" x="382.5" y="-370.8" font-family="Times,serif" font-size="14.00">series of tree states</text>
</a>
</g>
</g>
<!-- ZcashFoundation/zebra#6955&#45;&gt;ZcashFoundation/zebra#4784 -->
<g id="edge7" class="edge">
<title>ZcashFoundation/zebra#6955&#45;&gt;ZcashFoundation/zebra#4784</title>
<path fill="none" stroke="black" d="M231.19,-399.84C239.55,-399.68 247.99,-399.52 256.4,-399.36"/>
<polygon fill="black" stroke="black" points="256.7,-402.86 266.63,-399.17 256.57,-395.86 256.7,-402.86"/>
</g>
<!-- ZcashFoundation/zebra#6952 -->
<g id="node12" class="node open">
<title>ZcashFoundation/zebra#6952</title>
<g id="a_node12"><a xlink:href="https://github.com/ZcashFoundation/zebra/issues/6952" xlink:title="ZcashFoundation/zebra#6952&#10;Add note tree size fields&#10;to the `getblock` RPC" target="_blank">
<polygon fill="#a7c2aa" stroke="black" points="765,-596.5 534,-596.5 534,-543.5 765,-543.5 765,-596.5"/>
<text text-anchor="middle" x="649.5" y="-581.3" font-family="Times,serif" font-size="14.00">ZcashFoundation/zebra#6952</text>
<text text-anchor="middle" x="649.5" y="-566.3" font-family="Times,serif" font-size="14.00">Add note tree size fields</text>
<text text-anchor="middle" x="649.5" y="-551.3" font-family="Times,serif" font-size="14.00">to the `getblock` RPC</text>
</a>
</g>
</g>
<!-- ZcashFoundation/zebra#6859&#45;&gt;ZcashFoundation/zebra#6952 -->
<g id="edge8" class="edge">
<title>ZcashFoundation/zebra#6859&#45;&gt;ZcashFoundation/zebra#6952</title>
<path fill="none" stroke="black" d="M498.19,-525.19C515.38,-530.32 532.98,-535.56 549.79,-540.57"/>
<polygon fill="black" stroke="black" points="549.02,-543.99 559.6,-543.5 551.02,-537.28 549.02,-543.99"/>
</g>
<!-- ZcashFoundation/zebra#6953 -->
<g id="node13" class="node open">
<title>ZcashFoundation/zebra#6953</title>
<g id="a_node13"><a xlink:href="https://github.com/ZcashFoundation/zebra/issues/6953" xlink:title="ZcashFoundation/zebra#6953&#10;Add note subtree indexes&#10;to the finalized and non&#45;&#10;finalized state" target="_blank">
<polygon fill="#a7c2aa" stroke="black" points="765,-525 534,-525 534,-457 765,-457 765,-525"/>
<text text-anchor="middle" x="649.5" y="-509.8" font-family="Times,serif" font-size="14.00">ZcashFoundation/zebra#6953</text>
<text text-anchor="middle" x="649.5" y="-494.8" font-family="Times,serif" font-size="14.00">Add note subtree indexes</text>
<text text-anchor="middle" x="649.5" y="-479.8" font-family="Times,serif" font-size="14.00">to the finalized and non&#45;</text>
<text text-anchor="middle" x="649.5" y="-464.8" font-family="Times,serif" font-size="14.00">finalized state</text>
</a>
</g>
</g>
<!-- ZcashFoundation/zebra#6859&#45;&gt;ZcashFoundation/zebra#6953 -->
<g id="edge9" class="edge">
<title>ZcashFoundation/zebra#6859&#45;&gt;ZcashFoundation/zebra#6953</title>
<path fill="none" stroke="black" d="M498.19,-491C506.55,-491 514.99,-491 523.4,-491"/>
<polygon fill="black" stroke="black" points="523.63,-494.5 533.63,-491 523.63,-487.5 523.63,-494.5"/>
</g>
<!-- ZcashFoundation/zebra#6642 -->
<g id="node14" class="node open">
<title>ZcashFoundation/zebra#6642</title>
<g id="a_node14"><a xlink:href="https://github.com/ZcashFoundation/zebra/issues/6642" xlink:title="ZcashFoundation/zebra#6642&#10;Tracking: Update&#10;`lightwalletd` RPCs for&#10;&quot;fast spendability&quot;&#10;algorithm" target="_blank">
<polygon fill="#a7c2aa" stroke="black" points="765,-438.5 534,-438.5 534,-355.5 765,-355.5 765,-438.5"/>
<text text-anchor="middle" x="649.5" y="-423.3" font-family="Times,serif" font-size="14.00">ZcashFoundation/zebra#6642</text>
<text text-anchor="middle" x="649.5" y="-408.3" font-family="Times,serif" font-size="14.00">Tracking: Update</text>
<text text-anchor="middle" x="649.5" y="-393.3" font-family="Times,serif" font-size="14.00">`lightwalletd` RPCs for</text>
<text text-anchor="middle" x="649.5" y="-378.3" font-family="Times,serif" font-size="14.00">&quot;fast spendability&quot;</text>
<text text-anchor="middle" x="649.5" y="-363.3" font-family="Times,serif" font-size="14.00">algorithm</text>
</a>
</g>
</g>
<!-- ZcashFoundation/zebra#4784&#45;&gt;ZcashFoundation/zebra#6642 -->
<g id="edge10" class="edge">
<title>ZcashFoundation/zebra#4784&#45;&gt;ZcashFoundation/zebra#6642</title>
<path fill="none" stroke="black" d="M498.19,-397C506.55,-397 514.99,-397 523.4,-397"/>
<polygon fill="black" stroke="black" points="523.63,-400.5 533.63,-397 523.63,-393.5 523.63,-400.5"/>
</g>
<!-- ZcashFoundation/zebra#6954 -->
<g id="node15" class="node open">
<title>ZcashFoundation/zebra#6954</title>
<g id="a_node15"><a xlink:href="https://github.com/ZcashFoundation/zebra/issues/6954" xlink:title="ZcashFoundation/zebra#6954&#10;Implement&#10;`z_getsubtreesbyindex`&#10;RPC" target="_blank">
<polygon fill="#a7c2aa" stroke="black" points="1032,-525 801,-525 801,-457 1032,-457 1032,-525"/>
<text text-anchor="middle" x="916.5" y="-509.8" font-family="Times,serif" font-size="14.00">ZcashFoundation/zebra#6954</text>
<text text-anchor="middle" x="916.5" y="-494.8" font-family="Times,serif" font-size="14.00">Implement</text>
<text text-anchor="middle" x="916.5" y="-479.8" font-family="Times,serif" font-size="14.00">`z_getsubtreesbyindex`</text>
<text text-anchor="middle" x="916.5" y="-464.8" font-family="Times,serif" font-size="14.00">RPC</text>
</a>
</g>
</g>
<!-- ZcashFoundation/zebra#6953&#45;&gt;ZcashFoundation/zebra#6954 -->
<g id="edge11" class="edge">
<title>ZcashFoundation/zebra#6953&#45;&gt;ZcashFoundation/zebra#6954</title>
<path fill="none" stroke="black" d="M765.19,-491C773.55,-491 781.99,-491 790.4,-491"/>
<polygon fill="black" stroke="black" points="790.63,-494.5 800.63,-491 790.63,-487.5 790.63,-494.5"/>
</g>
<!-- ZcashFoundation/zebra#6118 -->
<g id="node16" class="node open">
<title>ZcashFoundation/zebra#6118</title>
<g id="a_node16"><a xlink:href="https://github.com/ZcashFoundation/zebra/issues/6118" xlink:title="ZcashFoundation/zebra#6118&#10;Create a Docker images&#10;and docker&#45;compose for&#10;mining with Zebra on&#10;Testnet" target="_blank">
<polygon fill="#c2e0c6" stroke="black" stroke-width="2" points="231,-349.5 0,-349.5 0,-266.5 231,-266.5 231,-349.5"/>
<text text-anchor="middle" x="115.5" y="-334.3" font-family="Times,serif" font-size="14.00">ZcashFoundation/zebra#6118</text>
<text text-anchor="middle" x="115.5" y="-319.3" font-family="Times,serif" font-size="14.00">Create a Docker images</text>
<text text-anchor="middle" x="115.5" y="-304.3" font-family="Times,serif" font-size="14.00">and docker&#45;compose for</text>
<text text-anchor="middle" x="115.5" y="-289.3" font-family="Times,serif" font-size="14.00">mining with Zebra on</text>
<text text-anchor="middle" x="115.5" y="-274.3" font-family="Times,serif" font-size="14.00">Testnet</text>
</a>
</g>
</g>
<!-- ZcashFoundation/zebra#6118&#45;&gt;ZcashFoundation/zebra#6025 -->
<g id="edge12" class="edge">
<title>ZcashFoundation/zebra#6118&#45;&gt;ZcashFoundation/zebra#6025</title>
<path fill="none" stroke="black" d="M231.19,-308C239.55,-308 247.99,-308 256.4,-308"/>
<polygon fill="black" stroke="black" points="256.63,-311.5 266.63,-308 256.63,-304.5 256.63,-311.5"/>
</g>
<!-- ZcashFoundation/zebra#4554 -->
<g id="node17" class="node open">
<title>ZcashFoundation/zebra#4554</title>
<g id="a_node17"><a xlink:href="https://github.com/ZcashFoundation/zebra/issues/4554" xlink:title="ZcashFoundation/zebra#4554&#10;benchmarks: create a&#10;ticket if zebrad mainnet&#10;sync time increases&#10;significantly" target="_blank">
<polygon fill="#c2e0c6" stroke="black" stroke-width="2" points="231,-540.5 0,-540.5 0,-457.5 231,-457.5 231,-540.5"/>
<text text-anchor="middle" x="115.5" y="-525.3" font-family="Times,serif" font-size="14.00">ZcashFoundation/zebra#4554</text>
<text text-anchor="middle" x="115.5" y="-510.3" font-family="Times,serif" font-size="14.00">benchmarks: create a</text>
<text text-anchor="middle" x="115.5" y="-495.3" font-family="Times,serif" font-size="14.00">ticket if zebrad mainnet</text>
<text text-anchor="middle" x="115.5" y="-480.3" font-family="Times,serif" font-size="14.00">sync time increases</text>
<text text-anchor="middle" x="115.5" y="-465.3" font-family="Times,serif" font-size="14.00">significantly</text>
</a>
</g>
</g>
<!-- ZcashFoundation/zebra#6611 -->
<g id="node18" class="node open">
<title>ZcashFoundation/zebra#6611</title>
<g id="a_node18"><a xlink:href="https://github.com/ZcashFoundation/zebra/issues/6611" xlink:title="ZcashFoundation/zebra#6611&#10;Document how to switch&#10;from Testnet to Mainnet&#10;in Docker images" target="_blank">
<polygon fill="#c2e0c6" stroke="black" stroke-width="2" points="231,-629 0,-629 0,-561 231,-561 231,-629"/>
<text text-anchor="middle" x="115.5" y="-613.8" font-family="Times,serif" font-size="14.00">ZcashFoundation/zebra#6611</text>
<text text-anchor="middle" x="115.5" y="-598.8" font-family="Times,serif" font-size="14.00">Document how to switch</text>
<text text-anchor="middle" x="115.5" y="-583.8" font-family="Times,serif" font-size="14.00">from Testnet to Mainnet</text>
<text text-anchor="middle" x="115.5" y="-568.8" font-family="Times,serif" font-size="14.00">in Docker images</text>
</a>
</g>
</g>
<!-- ZcashFoundation/zebra#6159 -->
<g id="node19" class="node closed">
<title>ZcashFoundation/zebra#6159</title>
<g id="a_node19"><a xlink:href="https://github.com/ZcashFoundation/zebra/issues/6159" xlink:title="ZcashFoundation/zebra#6159&#10;Documentation: Write a&#10;blog post to share how we&#10;used Zebra and s&#45;nomp to&#10;mine on testnet" target="_blank">
<polygon fill="#fad8c7" stroke="black" points="498,-636.5 267,-636.5 267,-553.5 498,-553.5 498,-636.5"/>
<text text-anchor="middle" x="382.5" y="-621.3" font-family="Times,serif" font-size="14.00">ZcashFoundation/zebra#6159</text>
<text text-anchor="middle" x="382.5" y="-606.3" font-family="Times,serif" font-size="14.00">Documentation: Write a</text>
<text text-anchor="middle" x="382.5" y="-591.3" font-family="Times,serif" font-size="14.00">blog post to share how we</text>
<text text-anchor="middle" x="382.5" y="-576.3" font-family="Times,serif" font-size="14.00">used Zebra and s&#45;nomp to</text>
<text text-anchor="middle" x="382.5" y="-561.3" font-family="Times,serif" font-size="14.00">mine on testnet</text>
</a>
</g>
</g>
<!-- ZcashFoundation/zebra#6611&#45;&gt;ZcashFoundation/zebra#6159 -->
<g id="edge13" class="edge">
<title>ZcashFoundation/zebra#6611&#45;&gt;ZcashFoundation/zebra#6159</title>
<path fill="none" stroke="black" d="M231.19,-595C239.55,-595 247.99,-595 256.4,-595"/>
<polygon fill="black" stroke="black" points="256.63,-598.5 266.63,-595 256.63,-591.5 256.63,-598.5"/>
</g>
</g>
</svg>
